<?xml version="1.0" encoding="UTF-8" standalone="no"?>
<!DOCTYPE svg PUBLIC "-//W3C//DTD SVG 1.1//EN"
 "http://www.w3.org/Graphics/SVG/1.1/DTD/svg11.dtd">
<!-- Generated by graphviz version 12.2.1 (0)
 -->
<!-- Title: /build/source/include/state&#45;observation/sensors&#45;simulation/accelerometer&#45;gyrometer.hpp Pages: 1 -->
<svg width="1150pt" height="352pt"
 viewBox="0.00 0.00 1150.12 352.00" xmlns="http://www.w3.org/2000/svg" xmlns:xlink="http://www.w3.org/1999/xlink">
<g id="graph0" class="graph" transform="scale(1 1) rotate(0) translate(4 348)">
<title>/build/source/include/state&#45;observation/sensors&#45;simulation/accelerometer&#45;gyrometer.hpp</title>
<!-- Node1 -->
<g id="Node000001" class="node">
<title>Node1</title>
<g id="a_Node000001"><a xlink:title="Implements the accelerometer&#45;gyrometer inertial measuremen.">
<polygon fill="#999999" stroke="#666666" points="669.38,-344 523.62,-344 523.62,-285 669.38,-285 669.38,-344"/>
<text text-anchor="start" x="531.62" y="-330.5" font-family="Helvetica,sans-Serif" font-size="10.00">/build/source/include</text>
<text text-anchor="start" x="531.62" y="-317.75" font-family="Helvetica,sans-Serif" font-size="10.00">/state&#45;observation/sensors</text>
<text text-anchor="start" x="531.62" y="-305" font-family="Helvetica,sans-Serif" font-size="10.00">&#45;simulation/accelerometer</text>
<text text-anchor="middle" x="596.5" y="-292.25" font-family="Helvetica,sans-Serif" font-size="10.00">&#45;gyrometer.hpp</text>
</a>
</g>
</g>
<!-- Node2 -->
<g id="Node000002" class="node">
<title>Node2</title>
<g id="a_Node000002"><a xlink:href="imu-dynamical-system_8hpp.html" target="_top" xlink:title="The file describes the dynamical system defined by an inertial measurement unit (IMU) fixed on a rigi...">
<polygon fill="white" stroke="#666666" points="193,-242.62 0,-242.62 0,-196.38 193,-196.38 193,-242.62"/>
<text text-anchor="start" x="8" y="-229.12" font-family="Helvetica,sans-Serif" font-size="10.00">/build/source/include</text>
<text text-anchor="start" x="8" y="-216.38" font-family="Helvetica,sans-Serif" font-size="10.00">/state&#45;observation/dynamical</text>
<text text-anchor="middle" x="96.5" y="-203.62" font-family="Helvetica,sans-Serif" font-size="10.00">&#45;system/imu&#45;dynamical&#45;system.hpp</text>
</a>
</g>
</g>
<!-- Node1&#45;&gt;Node2 -->
<g id="edge1_Node000001_Node000002" class="edge">
<title>Node1&#45;&gt;Node2</title>
<g id="a_edge1_Node000001_Node000002"><a xlink:title=" ">
<path fill="none" stroke="#63b8ff" d="M512.47,-302.24C432.38,-290.92 308.63,-271.89 202.5,-249 194.21,-247.21 185.6,-245.18 177.03,-243.05"/>
<polygon fill="#63b8ff" stroke="#63b8ff" points="511.58,-305.65 521.97,-303.57 512.56,-298.72 511.58,-305.65"/>
</a>
</g>
</g>
<!-- Node4 -->
<g id="Node000004" class="node">
<title>Node4</title>
<g id="a_Node000004"><a xlink:href="imu-mltpctive-dynamical-system_8hpp_source.html" target="_top" xlink:title=" ">
<polygon fill="white" stroke="#666666" points="393.75,-249 211.25,-249 211.25,-190 393.75,-190 393.75,-249"/>
<text text-anchor="start" x="219.25" y="-235.5" font-family="Helvetica,sans-Serif" font-size="10.00">/build/source/include</text>
<text text-anchor="start" x="219.25" y="-222.75" font-family="Helvetica,sans-Serif" font-size="10.00">/state&#45;observation/dynamical</text>
<text text-anchor="start" x="219.25" y="-210" font-family="Helvetica,sans-Serif" font-size="10.00">&#45;system/imu&#45;mltpctive&#45;dynamical</text>
<text text-anchor="middle" x="302.5" y="-197.25" font-family="Helvetica,sans-Serif" font-size="10.00">&#45;system.hpp</text>
</a>
</g>
</g>
<!-- Node1&#45;&gt;Node4 -->
<g id="edge3_Node000001_Node000004" class="edge">
<title>Node1&#45;&gt;Node4</title>
<g id="a_edge3_Node000001_Node000004"><a xlink:title=" ">
<path fill="none" stroke="#63b8ff" d="M512.69,-286.99C475.66,-275.28 432.03,-261.48 394.15,-249.49"/>
<polygon fill="#63b8ff" stroke="#63b8ff" points="511.42,-290.26 522.01,-289.94 513.53,-283.58 511.42,-290.26"/>
</a>
</g>
</g>
<!-- Node6 -->
<g id="Node000006" class="node">
<title>Node6</title>
<g id="a_Node000006"><a xlink:href="kinetics-observer_8hpp.html" target="_top" xlink:title="Unified Kinetics estimator.">
<polygon fill="white" stroke="#666666" points="591.62,-242.62 411.38,-242.62 411.38,-196.38 591.62,-196.38 591.62,-242.62"/>
<text text-anchor="start" x="419.38" y="-229.12" font-family="Helvetica,sans-Serif" font-size="10.00">/build/source/include</text>
<text text-anchor="start" x="419.38" y="-216.38" font-family="Helvetica,sans-Serif" font-size="10.00">/state&#45;observation/dynamics</text>
<text text-anchor="middle" x="501.5" y="-203.62" font-family="Helvetica,sans-Serif" font-size="10.00">&#45;estimators/kinetics&#45;observer.hpp</text>
</a>
</g>
</g>
<!-- Node1&#45;&gt;Node6 -->
<g id="edge5_Node000001_Node000006" class="edge">
<title>Node1&#45;&gt;Node6</title>
<g id="a_edge5_Node000001_Node000006"><a xlink:title=" ">
<path fill="none" stroke="#63b8ff" d="M559.03,-276.82C547.32,-265.36 534.77,-253.07 524.38,-242.9"/>
<polygon fill="#63b8ff" stroke="#63b8ff" points="556.29,-279.03 565.88,-283.53 561.18,-274.03 556.29,-279.03"/>
</a>
</g>
</g>
<!-- Node7 -->
<g id="Node000007" class="node">
<title>Node7</title>
<g id="a_Node000007"><a xlink:href="imu-elastic-local-frame-dynamical-system_8hpp_source.html" target="_top" xlink:title=" ">
<polygon fill="white" stroke="#666666" points="773.75,-249 609.25,-249 609.25,-190 773.75,-190 773.75,-249"/>
<text text-anchor="start" x="617.25" y="-235.5" font-family="Helvetica,sans-Serif" font-size="10.00">/build/source/include</text>
<text text-anchor="start" x="617.25" y="-222.75" font-family="Helvetica,sans-Serif" font-size="10.00">/state&#45;observation/flexibility</text>
<text text-anchor="start" x="617.25" y="-210" font-family="Helvetica,sans-Serif" font-size="10.00">&#45;estimation/imu&#45;elastic&#45;local</text>
<text text-anchor="middle" x="691.5" y="-197.25" font-family="Helvetica,sans-Serif" font-size="10.00">&#45;frame&#45;dynamical&#45;system.hpp</text>
</a>
</g>
</g>
<!-- Node1&#45;&gt;Node7 -->
<g id="edge6_Node000001_Node000007" class="edge">
<title>Node1&#45;&gt;Node7</title>
<g id="a_edge6_Node000001_Node000007"><a xlink:title=" ">
<path fill="none" stroke="#63b8ff" d="M634.03,-276.76C643.31,-267.67 653.14,-258.06 661.98,-249.4"/>
<polygon fill="#63b8ff" stroke="#63b8ff" points="631.82,-274.03 627.12,-283.53 636.71,-279.03 631.82,-274.03"/>
</a>
</g>
</g>
<!-- Node10 -->
<g id="Node000010" class="node">
<title>Node10</title>
<g id="a_Node000010"><a xlink:href="imu-fixed-contact-dynamical-system_8hpp.html" target="_top" xlink:title="Definitions of the dynamical system of a robot flexibility with an IMU sensor.">
<polygon fill="white" stroke="#666666" points="952.88,-249 792.12,-249 792.12,-190 952.88,-190 952.88,-249"/>
<text text-anchor="start" x="800.12" y="-235.5" font-family="Helvetica,sans-Serif" font-size="10.00">/build/source/include</text>
<text text-anchor="start" x="800.12" y="-222.75" font-family="Helvetica,sans-Serif" font-size="10.00">/state&#45;observation/flexibility</text>
<text text-anchor="start" x="800.12" y="-210" font-family="Helvetica,sans-Serif" font-size="10.00">&#45;estimation/imu&#45;fixed&#45;contact</text>
<text text-anchor="middle" x="872.5" y="-197.25" font-family="Helvetica,sans-Serif" font-size="10.00">&#45;dynamical&#45;system.hpp</text>
</a>
</g>
</g>
<!-- Node1&#45;&gt;Node10 -->
<g id="edge9_Node000001_Node000010" class="edge">
<title>Node1&#45;&gt;Node10</title>
<g id="a_edge9_Node000001_Node000010"><a xlink:title=" ">
<path fill="none" stroke="#63b8ff" d="M680.5,-285.2C715.79,-273.3 756.68,-259.53 791.63,-247.75"/>
<polygon fill="#63b8ff" stroke="#63b8ff" points="679.53,-281.83 671.17,-288.34 681.77,-288.46 679.53,-281.83"/>
</a>
</g>
</g>
<!-- Node13 -->
<g id="Node000013" class="node">
<title>Node13</title>
<g id="a_Node000013"><a xlink:href="stable-imu-fixed-contact-dynamical-system_8hpp_source.html" target="_top" xlink:title=" ">
<polygon fill="white" stroke="#666666" points="1142.12,-249 970.88,-249 970.88,-190 1142.12,-190 1142.12,-249"/>
<text text-anchor="start" x="978.88" y="-235.5" font-family="Helvetica,sans-Serif" font-size="10.00">/build/source/include</text>
<text text-anchor="start" x="978.88" y="-222.75" font-family="Helvetica,sans-Serif" font-size="10.00">/state&#45;observation/flexibility</text>
<text text-anchor="start" x="978.88" y="-210" font-family="Helvetica,sans-Serif" font-size="10.00">&#45;estimation/stable&#45;imu&#45;fixed</text>
<text text-anchor="middle" x="1056.5" y="-197.25" font-family="Helvetica,sans-Serif" font-size="10.00">&#45;contact&#45;dynamical&#45;system.hpp</text>
</a>
</g>
</g>
<!-- Node1&#45;&gt;Node13 -->
<g id="edge12_Node000001_Node000013" class="edge">
<title>Node1&#45;&gt;Node13</title>
<g id="a_edge12_Node000001_Node000013"><a xlink:title=" ">
<path fill="none" stroke="#63b8ff" d="M680.88,-301.45C755.23,-290.15 866.22,-271.63 961.5,-249 964.43,-248.3 967.41,-247.57 970.41,-246.81"/>
<polygon fill="#63b8ff" stroke="#63b8ff" points="680.59,-297.95 671.22,-302.9 681.63,-304.87 680.59,-297.95"/>
</a>
</g>
</g>
<!-- Node3 -->
<g id="Node000003" class="node">
<title>Node3</title>
<g id="a_Node000003"><a xlink:href="imu-attitude-trajectory-reconstruction_8hpp.html" target="_top" xlink:title="Gives an implementation of attitude estimation for IMU reconstruction with or without given input....">
<polygon fill="white" stroke="#666666" points="174.62,-154 18.38,-154 18.38,-95 174.62,-95 174.62,-154"/>
<text text-anchor="start" x="26.38" y="-140.5" font-family="Helvetica,sans-Serif" font-size="10.00">/build/source/include</text>
<text text-anchor="start" x="26.38" y="-127.75" font-family="Helvetica,sans-Serif" font-size="10.00">/state&#45;observation/examples</text>
<text text-anchor="start" x="26.38" y="-115" font-family="Helvetica,sans-Serif" font-size="10.00">/imu&#45;attitude&#45;trajectory</text>
<text text-anchor="middle" x="96.5" y="-102.25" font-family="Helvetica,sans-Serif" font-size="10.00">&#45;reconstruction.hpp</text>
</a>
</g>
</g>
<!-- Node2&#45;&gt;Node3 -->
<g id="edge2_Node000002_Node000003" class="edge">
<title>Node2&#45;&gt;Node3</title>
<g id="a_edge2_Node000002_Node000003"><a xlink:title=" ">
<path fill="none" stroke="#63b8ff" d="M96.5,-184.51C96.5,-174.66 96.5,-164.01 96.5,-154.5"/>
<polygon fill="#63b8ff" stroke="#63b8ff" points="93,-184.47 96.5,-194.47 100,-184.47 93,-184.47"/>
</a>
</g>
</g>
<!-- Node5 -->
<g id="Node000005" class="node">
<title>Node5</title>
<g id="a_Node000005"><a xlink:href="imu-multiplicative-attitude-reconstruction_8hpp_source.html" target="_top" xlink:title=" ">
<polygon fill="white" stroke="#666666" points="380.62,-154 224.38,-154 224.38,-95 380.62,-95 380.62,-154"/>
<text text-anchor="start" x="232.38" y="-140.5" font-family="Helvetica,sans-Serif" font-size="10.00">/build/source/include</text>
<text text-anchor="start" x="232.38" y="-127.75" font-family="Helvetica,sans-Serif" font-size="10.00">/state&#45;observation/examples</text>
<text text-anchor="start" x="232.38" y="-115" font-family="Helvetica,sans-Serif" font-size="10.00">/imu&#45;multiplicative&#45;attitude</text>
<text text-anchor="middle" x="302.5" y="-102.25" font-family="Helvetica,sans-Serif" font-size="10.00">&#45;reconstruction.hpp</text>
</a>
</g>
</g>
<!-- Node4&#45;&gt;Node5 -->
<g id="edge4_Node000004_Node000005" class="edge">
<title>Node4&#45;&gt;Node5</title>
<g id="a_edge4_Node000004_Node000005"><a xlink:title=" ">
<path fill="none" stroke="#63b8ff" d="M302.5,-178.16C302.5,-170.16 302.5,-161.92 302.5,-154.4"/>
<polygon fill="#63b8ff" stroke="#63b8ff" points="299,-178.07 302.5,-188.07 306,-178.07 299,-178.07"/>
</a>
</g>
</g>
<!-- Node8 -->
<g id="Node000008" class="node">
<title>Node8</title>
<g id="a_Node000008"><a xlink:href="model-base-ekf-flex-estimator-imu_8hpp.html" target="_top" xlink:title="Declares the class of the estimation of the flexibility using an extended Kalman filter and a fixed c...">
<polygon fill="white" stroke="#666666" points="768.5,-154 614.5,-154 614.5,-95 768.5,-95 768.5,-154"/>
<text text-anchor="start" x="622.5" y="-140.5" font-family="Helvetica,sans-Serif" font-size="10.00">/build/source/include</text>
<text text-anchor="start" x="622.5" y="-127.75" font-family="Helvetica,sans-Serif" font-size="10.00">/state&#45;observation/flexibility</text>
<text text-anchor="start" x="622.5" y="-115" font-family="Helvetica,sans-Serif" font-size="10.00">&#45;estimation/model&#45;base&#45;ekf</text>
<text text-anchor="middle" x="691.5" y="-102.25" font-family="Helvetica,sans-Serif" font-size="10.00">&#45;flex&#45;estimator&#45;imu.hpp</text>
</a>
</g>
</g>
<!-- Node7&#45;&gt;Node8 -->
<g id="edge7_Node000007_Node000008" class="edge">
<title>Node7&#45;&gt;Node8</title>
<g id="a_edge7_Node000007_Node000008"><a xlink:title=" ">
<path fill="none" stroke="#63b8ff" d="M691.5,-178.16C691.5,-170.16 691.5,-161.92 691.5,-154.4"/>
<polygon fill="#63b8ff" stroke="#63b8ff" points="688,-178.07 691.5,-188.07 695,-178.07 688,-178.07"/>
</a>
</g>
</g>
<!-- Node9 -->
<g id="Node000009" class="node">
<title>Node9</title>
<g id="a_Node000009"><a xlink:href="offline-model-base-flex-estimation_8hpp_source.html" target="_top" xlink:title=" ">
<polygon fill="white" stroke="#666666" points="769.62,-59 613.38,-59 613.38,0 769.62,0 769.62,-59"/>
<text text-anchor="start" x="621.38" y="-45.5" font-family="Helvetica,sans-Serif" font-size="10.00">/build/source/include</text>
<text text-anchor="start" x="621.38" y="-32.75" font-family="Helvetica,sans-Serif" font-size="10.00">/state&#45;observation/examples</text>
<text text-anchor="start" x="621.38" y="-20" font-family="Helvetica,sans-Serif" font-size="10.00">/offline&#45;model&#45;base&#45;flex</text>
<text text-anchor="middle" x="691.5" y="-7.25" font-family="Helvetica,sans-Serif" font-size="10.00">&#45;estimation.hpp</text>
</a>
</g>
</g>
<!-- Node8&#45;&gt;Node9 -->
<g id="edge8_Node000008_Node000009" class="edge">
<title>Node8&#45;&gt;Node9</title>
<g id="a_edge8_Node000008_Node000009"><a xlink:title=" ">
<path fill="none" stroke="#63b8ff" d="M691.5,-83.16C691.5,-75.16 691.5,-66.92 691.5,-59.4"/>
<polygon fill="#63b8ff" stroke="#63b8ff" points="688,-83.07 691.5,-93.07 695,-83.07 688,-83.07"/>
</a>
</g>
</g>
<!-- Node11 -->
<g id="Node000011" class="node">
<title>Node11</title>
<g id="a_Node000011"><a xlink:href="fixed-contact-ekf-flex-estimator-imu_8hpp.html" target="_top" xlink:title="Declares the class of the estimation of the flexibility using an extended Kalman filter and a fixed c...">
<polygon fill="white" stroke="#666666" points="951.38,-154 793.62,-154 793.62,-95 951.38,-95 951.38,-154"/>
<text text-anchor="start" x="801.62" y="-140.5" font-family="Helvetica,sans-Serif" font-size="10.00">/build/source/include</text>
<text text-anchor="start" x="801.62" y="-127.75" font-family="Helvetica,sans-Serif" font-size="10.00">/state&#45;observation/flexibility</text>
<text text-anchor="start" x="801.62" y="-115" font-family="Helvetica,sans-Serif" font-size="10.00">&#45;estimation/fixed&#45;contact&#45;ekf</text>
<text text-anchor="middle" x="872.5" y="-102.25" font-family="Helvetica,sans-Serif" font-size="10.00">&#45;flex&#45;estimator&#45;imu.hpp</text>
</a>
</g>
</g>
<!-- Node10&#45;&gt;Node11 -->
<g id="edge10_Node000010_Node000011" class="edge">
<title>Node10&#45;&gt;Node11</title>
<g id="a_edge10_Node000010_Node000011"><a xlink:title=" ">
<path fill="none" stroke="#63b8ff" d="M872.5,-178.16C872.5,-170.16 872.5,-161.92 872.5,-154.4"/>
<polygon fill="#63b8ff" stroke="#63b8ff" points="869,-178.07 872.5,-188.07 876,-178.07 869,-178.07"/>
</a>
</g>
</g>
<!-- Node12 -->
<g id="Node000012" class="node">
<title>Node12</title>
<g id="a_Node000012"><a xlink:href="offline-ekf-flexibility-estimation_8hpp.html" target="_top" xlink:title="Gives an implementation of flexibility estimation for IMU reconstruction with or without given input ...">
<polygon fill="white" stroke="#666666" points="950.62,-59 794.38,-59 794.38,0 950.62,0 950.62,-59"/>
<text text-anchor="start" x="802.38" y="-45.5" font-family="Helvetica,sans-Serif" font-size="10.00">/build/source/include</text>
<text text-anchor="start" x="802.38" y="-32.75" font-family="Helvetica,sans-Serif" font-size="10.00">/state&#45;observation/examples</text>
<text text-anchor="start" x="802.38" y="-20" font-family="Helvetica,sans-Serif" font-size="10.00">/offline&#45;ekf&#45;flexibility</text>
<text text-anchor="middle" x="872.5" y="-7.25" font-family="Helvetica,sans-Serif" font-size="10.00">&#45;estimation.hpp</text>
</a>
</g>
</g>
<!-- Node11&#45;&gt;Node12 -->
<g id="edge11_Node000011_Node000012" class="edge">
<title>Node11&#45;&gt;Node12</title>
<g id="a_edge11_Node000011_Node000012"><a xlink:title=" ">
<path fill="none" stroke="#63b8ff" d="M872.5,-83.16C872.5,-75.16 872.5,-66.92 872.5,-59.4"/>
<polygon fill="#63b8ff" stroke="#63b8ff" points="869,-83.07 872.5,-93.07 876,-83.07 869,-83.07"/>
</a>
</g>
</g>
</g>
</svg>
