<?xml version="1.0" encoding="UTF-8" standalone="no"?>
<!DOCTYPE svg PUBLIC "-//W3C//DTD SVG 1.1//EN"
 "http://www.w3.org/Graphics/SVG/1.1/DTD/svg11.dtd">
<!-- Generated by graphviz version 12.2.1 (0)
 -->
<!-- Title: /build/source/include/state&#45;observation/sensors&#45;simulation/accelerometer&#45;gyrometer&#45;magnetometer.hpp Pages: 1 -->
<svg width="1322pt" height="427pt"
 viewBox="0.00 0.00 1321.62 427.25" xmlns="http://www.w3.org/2000/svg" xmlns:xlink="http://www.w3.org/1999/xlink">
<g id="graph0" class="graph" transform="scale(1 1) rotate(0) translate(4 423.25)">
<title>/build/source/include/state&#45;observation/sensors&#45;simulation/accelerometer&#45;gyrometer&#45;magnetometer.hpp</title>
<!-- Node1 -->
<g id="Node000001" class="node">
<title>Node1</title>
<g id="a_Node000001"><a xlink:title="Implements the accelerometer&#45;gyrometer&#45;magnetometer inertial measurement unit.">
<polygon fill="#999999" stroke="#666666" points="537.75,-419.25 370.25,-419.25 370.25,-360.25 537.75,-360.25 537.75,-419.25"/>
<text text-anchor="start" x="378.25" y="-405.75" font-family="Helvetica,sans-Serif" font-size="10.00">/build/source/include</text>
<text text-anchor="start" x="378.25" y="-393" font-family="Helvetica,sans-Serif" font-size="10.00">/state&#45;observation/sensors</text>
<text text-anchor="start" x="378.25" y="-380.25" font-family="Helvetica,sans-Serif" font-size="10.00">&#45;simulation/accelerometer</text>
<text text-anchor="middle" x="454" y="-367.5" font-family="Helvetica,sans-Serif" font-size="10.00">&#45;gyrometer&#45;magnetometer.hpp</text>
</a>
</g>
</g>
<!-- Node2 -->
<g id="Node000002" class="node">
<title>Node2</title>
<g id="a_Node000002"><a xlink:title=" ">
<polygon fill="#e0e0e0" stroke="#999999" points="112.5,-27.12 15.5,-27.12 15.5,-6.38 112.5,-6.38 112.5,-27.12"/>
<text text-anchor="middle" x="64" y="-13.62" font-family="Helvetica,sans-Serif" font-size="10.00">boost/assert.hpp</text>
</a>
</g>
</g>
<!-- Node1&#45;&gt;Node2 -->
<g id="edge1_Node000001_Node000002" class="edge">
<title>Node1&#45;&gt;Node2</title>
<g id="a_edge1_Node000001_Node000002"><a xlink:title=" ">
<path fill="none" stroke="#63b8ff" d="M369.98,-388.53C291.78,-385.09 174.1,-371.46 84,-324.25 36.89,-299.56 0,-292.19 0,-239 0,-239 0,-239 0,-161.12 0,-113 30.44,-63.06 49.34,-36.7"/>
<polygon fill="#63b8ff" stroke="#63b8ff" points="52.11,-38.84 55.25,-28.72 46.48,-34.67 52.11,-38.84"/>
</a>
</g>
</g>
<!-- Node3 -->
<g id="Node000003" class="node">
<title>Node3</title>
<g id="a_Node000003"><a xlink:title=" ">
<polygon fill="#e0e0e0" stroke="#999999" points="205.25,-27.12 136.75,-27.12 136.75,-6.38 205.25,-6.38 205.25,-27.12"/>
<text text-anchor="middle" x="171" y="-13.62" font-family="Helvetica,sans-Serif" font-size="10.00">Eigen/Core</text>
</a>
</g>
</g>
<!-- Node1&#45;&gt;Node3 -->
<g id="edge2_Node000001_Node000003" class="edge">
<title>Node1&#45;&gt;Node3</title>
<g id="a_edge2_Node000001_Node000003"><a xlink:title=" ">
<path fill="none" stroke="#63b8ff" d="M370.05,-380.66C284.99,-371.05 160.62,-352.64 122,-324.25 87.31,-298.75 76,-282.05 76,-239 76,-239 76,-239 76,-161.12 76,-108.01 121.87,-59.48 149.86,-34.81"/>
<polygon fill="#63b8ff" stroke="#63b8ff" points="152.08,-37.52 157.43,-28.37 147.55,-32.19 152.08,-37.52"/>
</a>
</g>
</g>
<!-- Node4 -->
<g id="Node000004" class="node">
<title>Node4</title>
<g id="a_Node000004"><a xlink:title=" ">
<polygon fill="#e0e0e0" stroke="#999999" points="424.62,-27.12 295.38,-27.12 295.38,-6.38 424.62,-6.38 424.62,-27.12"/>
<text text-anchor="middle" x="360" y="-13.62" font-family="Helvetica,sans-Serif" font-size="10.00">state&#45;observation/api.h</text>
</a>
</g>
</g>
<!-- Node1&#45;&gt;Node4 -->
<g id="edge3_Node000001_Node000004" class="edge">
<title>Node1&#45;&gt;Node4</title>
<g id="a_edge3_Node000001_Node000004"><a xlink:title=" ">
<path fill="none" stroke="#63b8ff" d="M454,-359.76C454,-329.6 454,-280.99 454,-239 454,-239 454,-239 454,-161.12 454,-108.18 408.61,-59.58 380.91,-34.86"/>
<polygon fill="#63b8ff" stroke="#63b8ff" points="383.29,-32.29 373.43,-28.41 378.72,-37.59 383.29,-32.29"/>
</a>
</g>
</g>
<!-- Node5 -->
<g id="Node000005" class="node">
<title>Node5</title>
<g id="a_Node000005"><a xlink:href="algebraic-sensor_8hpp.html" target="_top" xlink:title="Gives a base class for algebraic sensors.">
<polygon fill="white" stroke="#666666" points="306.88,-324.25 131.12,-324.25 131.12,-290.75 306.88,-290.75 306.88,-324.25"/>
<text text-anchor="start" x="139.12" y="-310.75" font-family="Helvetica,sans-Serif" font-size="10.00">state&#45;observation/sensors</text>
<text text-anchor="middle" x="219" y="-298" font-family="Helvetica,sans-Serif" font-size="10.00">&#45;simulation/algebraic&#45;sensor.hpp</text>
</a>
</g>
</g>
<!-- Node1&#45;&gt;Node5 -->
<g id="edge4_Node000001_Node000005" class="edge">
<title>Node1&#45;&gt;Node5</title>
<g id="a_edge4_Node000001_Node000005"><a xlink:title=" ">
<path fill="none" stroke="#63b8ff" d="M369.82,-360C339.13,-349.52 305.13,-337.91 277.19,-328.37"/>
<polygon fill="#63b8ff" stroke="#63b8ff" points="278.43,-325.1 267.84,-325.18 276.17,-331.72 278.43,-325.1"/>
</a>
</g>
</g>
<!-- Node18 -->
<g id="Node000018" class="node">
<title>Node18</title>
<g id="a_Node000018"><a xlink:href="linear-acceleration_8hpp.html" target="_top" xlink:title="Implements the accelerometer algorithm.">
<polygon fill="white" stroke="#666666" points="634.25,-185.25 481.75,-185.25 481.75,-139 634.25,-139 634.25,-185.25"/>
<text text-anchor="start" x="489.75" y="-171.75" font-family="Helvetica,sans-Serif" font-size="10.00">state&#45;observation/sensors</text>
<text text-anchor="start" x="489.75" y="-159" font-family="Helvetica,sans-Serif" font-size="10.00">&#45;simulation/algorithm/linear</text>
<text text-anchor="middle" x="558" y="-146.25" font-family="Helvetica,sans-Serif" font-size="10.00">&#45;acceleration.hpp</text>
</a>
</g>
</g>
<!-- Node1&#45;&gt;Node18 -->
<g id="edge27_Node000001_Node000018" class="edge">
<title>Node1&#45;&gt;Node18</title>
<g id="a_edge27_Node000001_Node000018"><a xlink:title=" ">
<path fill="none" stroke="#63b8ff" d="M467.17,-360.17C486.51,-318.22 522.5,-240.15 542.89,-195.91"/>
<polygon fill="#63b8ff" stroke="#63b8ff" points="545.95,-197.62 546.96,-187.07 539.6,-194.69 545.95,-197.62"/>
</a>
</g>
</g>
<!-- Node19 -->
<g id="Node000019" class="node">
<title>Node19</title>
<g id="a_Node000019"><a xlink:href="magnetic-field_8hpp.html" target="_top" xlink:title="Implements the magnetic field algorithm.">
<polygon fill="white" stroke="#666666" points="823.25,-185.25 652.75,-185.25 652.75,-139 823.25,-139 823.25,-185.25"/>
<text text-anchor="start" x="660.75" y="-171.75" font-family="Helvetica,sans-Serif" font-size="10.00">state&#45;observation/sensors</text>
<text text-anchor="start" x="660.75" y="-159" font-family="Helvetica,sans-Serif" font-size="10.00">&#45;simulation/algorithm/magnetic</text>
<text text-anchor="middle" x="738" y="-146.25" font-family="Helvetica,sans-Serif" font-size="10.00">&#45;field.hpp</text>
</a>
</g>
</g>
<!-- Node1&#45;&gt;Node19 -->
<g id="edge30_Node000001_Node000019" class="edge">
<title>Node1&#45;&gt;Node19</title>
<g id="a_edge30_Node000001_Node000019"><a xlink:title=" ">
<path fill="none" stroke="#63b8ff" d="M490.26,-359.95C544.51,-316.84 646.27,-236 700.97,-192.54"/>
<polygon fill="#63b8ff" stroke="#63b8ff" points="702.81,-195.55 708.47,-186.59 698.46,-190.07 702.81,-195.55"/>
</a>
</g>
</g>
<!-- Node20 -->
<g id="Node000020" class="node">
<title>Node20</title>
<g id="a_Node000020"><a xlink:href="rotation-velocity_8hpp.html" target="_top" xlink:title="The implementation of the algorithm of a rotation velocity sensor.">
<polygon fill="white" stroke="#666666" points="1004.5,-185.25 841.5,-185.25 841.5,-139 1004.5,-139 1004.5,-185.25"/>
<text text-anchor="start" x="849.5" y="-171.75" font-family="Helvetica,sans-Serif" font-size="10.00">state&#45;observation/sensors</text>
<text text-anchor="start" x="849.5" y="-159" font-family="Helvetica,sans-Serif" font-size="10.00">&#45;simulation/algorithm/rotation</text>
<text text-anchor="middle" x="923" y="-146.25" font-family="Helvetica,sans-Serif" font-size="10.00">&#45;velocity.hpp</text>
</a>
</g>
</g>
<!-- Node1&#45;&gt;Node20 -->
<g id="edge33_Node000001_Node000020" class="edge">
<title>Node1&#45;&gt;Node20</title>
<g id="a_edge33_Node000001_Node000020"><a xlink:title=" ">
<path fill="none" stroke="#63b8ff" d="M513.88,-359.95C604.85,-316.18 776.73,-233.49 865.98,-190.55"/>
<polygon fill="#63b8ff" stroke="#63b8ff" points="867.33,-193.79 874.82,-186.3 864.29,-187.48 867.33,-193.79"/>
</a>
</g>
</g>
<!-- Node5&#45;&gt;Node2 -->
<g id="edge5_Node000005_Node000002" class="edge">
<title>Node5&#45;&gt;Node2</title>
<g id="a_edge5_Node000005_Node000002"><a xlink:title=" ">
<path fill="none" stroke="#63b8ff" d="M168.55,-290.28C149.93,-282.14 129.98,-270.57 116,-254.75 59.22,-190.48 60.34,-155.24 62,-69.5 62.2,-59.36 62.61,-48.12 63.01,-38.71"/>
<polygon fill="#63b8ff" stroke="#63b8ff" points="66.5,-38.94 63.45,-28.8 59.51,-38.63 66.5,-38.94"/>
</a>
</g>
</g>
<!-- Node5&#45;&gt;Node3 -->
<g id="edge6_Node000005_Node000003" class="edge">
<title>Node5&#45;&gt;Node3</title>
<g id="a_edge6_Node000005_Node000003"><a xlink:title=" ">
<path fill="none" stroke="#63b8ff" d="M173.93,-290.35C158.09,-282.25 142,-270.68 133,-254.75 92.34,-182.82 137.46,-80.14 159.87,-37.49"/>
<polygon fill="#63b8ff" stroke="#63b8ff" points="162.85,-39.35 164.54,-28.89 156.7,-36.01 162.85,-39.35"/>
</a>
</g>
</g>
<!-- Node5&#45;&gt;Node4 -->
<g id="edge7_Node000005_Node000004" class="edge">
<title>Node5&#45;&gt;Node4</title>
<g id="a_edge7_Node000005_Node000004"><a xlink:title=" ">
<path fill="none" stroke="#63b8ff" d="M264.07,-290.35C279.91,-282.25 296,-270.68 305,-254.75 312.33,-241.79 308.73,-235.66 305,-221.25 300.41,-203.53 289.59,-202.97 285,-185.25 279.84,-165.35 279.38,-158.77 285,-139 296.44,-98.77 325.46,-58.81 343.86,-36.3"/>
<polygon fill="#63b8ff" stroke="#63b8ff" points="346.52,-38.58 350.27,-28.67 341.16,-34.08 346.52,-38.58"/>
</a>
</g>
</g>
<!-- Node6 -->
<g id="Node000006" class="node">
<title>Node6</title>
<g id="a_Node000006"><a xlink:href="sensor-base_8hpp.html" target="_top" xlink:title="Implements the base class of all sensors.">
<polygon fill="white" stroke="#666666" points="296.38,-254.75 141.62,-254.75 141.62,-221.25 296.38,-221.25 296.38,-254.75"/>
<text text-anchor="start" x="149.62" y="-241.25" font-family="Helvetica,sans-Serif" font-size="10.00">state&#45;observation/sensors</text>
<text text-anchor="middle" x="219" y="-228.5" font-family="Helvetica,sans-Serif" font-size="10.00">&#45;simulation/sensor&#45;base.hpp</text>
</a>
</g>
</g>
<!-- Node5&#45;&gt;Node6 -->
<g id="edge8_Node000005_Node000006" class="edge">
<title>Node5&#45;&gt;Node6</title>
<g id="a_edge8_Node000005_Node000006"><a xlink:title=" ">
<path fill="none" stroke="#63b8ff" d="M219,-290.5C219,-283.27 219,-274.53 219,-266.31"/>
<polygon fill="#63b8ff" stroke="#63b8ff" points="222.5,-266.4 219,-256.4 215.5,-266.4 222.5,-266.4"/>
</a>
</g>
</g>
<!-- Node6&#45;&gt;Node2 -->
<g id="edge9_Node000006_Node000002" class="edge">
<title>Node6&#45;&gt;Node2</title>
<g id="a_edge9_Node000006_Node000002"><a xlink:title=" ">
<path fill="none" stroke="#63b8ff" d="M207.6,-220.88C179.57,-181.23 107.38,-79.11 77.38,-36.68"/>
<polygon fill="#63b8ff" stroke="#63b8ff" points="80.37,-34.85 71.74,-28.7 74.66,-38.89 80.37,-34.85"/>
</a>
</g>
</g>
<!-- Node6&#45;&gt;Node3 -->
<g id="edge10_Node000006_Node000003" class="edge">
<title>Node6&#45;&gt;Node3</title>
<g id="a_edge10_Node000006_Node000003"><a xlink:title=" ">
<path fill="none" stroke="#63b8ff" d="M215.47,-220.88C206.92,-181.81 185.09,-82.12 175.57,-38.6"/>
<polygon fill="#63b8ff" stroke="#63b8ff" points="179.01,-37.97 173.45,-28.95 172.17,-39.46 179.01,-37.97"/>
</a>
</g>
</g>
<!-- Node6&#45;&gt;Node4 -->
<g id="edge11_Node000006_Node000004" class="edge">
<title>Node6&#45;&gt;Node4</title>
<g id="a_edge11_Node000006_Node000004"><a xlink:title=" ">
<path fill="none" stroke="#63b8ff" d="M217.7,-220.78C215.98,-188.46 216.6,-115.19 252,-69.5 265.98,-51.46 287.83,-39.38 308.23,-31.46"/>
<polygon fill="#63b8ff" stroke="#63b8ff" points="309.37,-34.76 317.61,-28.09 307.01,-28.17 309.37,-34.76"/>
</a>
</g>
</g>
<!-- Node7 -->
<g id="Node000007" class="node">
<title>Node7</title>
<g id="a_Node000007"><a xlink:href="noise-base_8hpp.html" target="_top" xlink:title=" ">
<polygon fill="white" stroke="#666666" points="425.75,-178.88 294.25,-178.88 294.25,-145.38 425.75,-145.38 425.75,-178.88"/>
<text text-anchor="start" x="302.25" y="-165.38" font-family="Helvetica,sans-Serif" font-size="10.00">state&#45;observation/noise</text>
<text text-anchor="middle" x="360" y="-152.62" font-family="Helvetica,sans-Serif" font-size="10.00">/noise&#45;base.hpp</text>
</a>
</g>
</g>
<!-- Node6&#45;&gt;Node7 -->
<g id="edge12_Node000006_Node000007" class="edge">
<title>Node6&#45;&gt;Node7</title>
<g id="a_edge12_Node000006_Node000007"><a xlink:title=" ">
<path fill="none" stroke="#63b8ff" d="M249.94,-220.79C270.24,-210.15 297,-196.13 319.05,-184.58"/>
<polygon fill="#63b8ff" stroke="#63b8ff" points="320.55,-187.74 327.79,-180 317.31,-181.54 320.55,-187.74"/>
</a>
</g>
</g>
<!-- Node7&#45;&gt;Node4 -->
<g id="edge13_Node000007_Node000004" class="edge">
<title>Node7&#45;&gt;Node4</title>
<g id="a_edge13_Node000007_Node000004"><a xlink:title=" ">
<path fill="none" stroke="#63b8ff" d="M360,-144.96C360,-118.8 360,-67.24 360,-38.44"/>
<polygon fill="#63b8ff" stroke="#63b8ff" points="363.5,-38.82 360,-28.82 356.5,-38.82 363.5,-38.82"/>
</a>
</g>
</g>
<!-- Node8 -->
<g id="Node000008" class="node">
<title>Node8</title>
<g id="a_Node000008"><a xlink:href="definitions_8hpp.html" target="_top" xlink:title="Definitions of types and some structures.">
<polygon fill="white" stroke="#666666" points="742.62,-103 613.38,-103 613.38,-69.5 742.62,-69.5 742.62,-103"/>
<text text-anchor="start" x="621.38" y="-89.5" font-family="Helvetica,sans-Serif" font-size="10.00">state&#45;observation/tools</text>
<text text-anchor="middle" x="678" y="-76.75" font-family="Helvetica,sans-Serif" font-size="10.00">/definitions.hpp</text>
</a>
</g>
</g>
<!-- Node7&#45;&gt;Node8 -->
<g id="edge14_Node000007_Node000008" class="edge">
<title>Node7&#45;&gt;Node8</title>
<g id="a_edge14_Node000007_Node000008"><a xlink:title=" ">
<path fill="none" stroke="#63b8ff" d="M425.89,-145.82C477.1,-133.92 548.2,-117.4 601.84,-104.94"/>
<polygon fill="#63b8ff" stroke="#63b8ff" points="602.59,-108.36 611.54,-102.69 601,-101.54 602.59,-108.36"/>
</a>
</g>
</g>
<!-- Node8&#45;&gt;Node2 -->
<g id="edge19_Node000008_Node000002" class="edge">
<title>Node8&#45;&gt;Node2</title>
<g id="a_edge19_Node000008_Node000002"><a xlink:title=" ">
<path fill="none" stroke="#63b8ff" d="M613.25,-82.26C510.01,-76.79 302,-62.93 128,-33.5 122.43,-32.56 116.63,-31.39 110.89,-30.13"/>
<polygon fill="#63b8ff" stroke="#63b8ff" points="112.03,-26.8 101.5,-27.94 110.44,-33.62 112.03,-26.8"/>
</a>
</g>
</g>
<!-- Node8&#45;&gt;Node3 -->
<g id="edge21_Node000008_Node000003" class="edge">
<title>Node8&#45;&gt;Node3</title>
<g id="a_edge21_Node000008_Node000003"><a xlink:title=" ">
<path fill="none" stroke="#63b8ff" d="M613.13,-76.78C535.38,-66.61 401.15,-48.99 286,-33.5 263.25,-30.44 237.98,-26.99 216.93,-24.09"/>
<polygon fill="#63b8ff" stroke="#63b8ff" points="217.6,-20.65 207.22,-22.76 216.65,-27.59 217.6,-20.65"/>
</a>
</g>
</g>
<!-- Node8&#45;&gt;Node4 -->
<g id="edge24_Node000008_Node000004" class="edge">
<title>Node8&#45;&gt;Node4</title>
<g id="a_edge24_Node000008_Node000004"><a xlink:title=" ">
<path fill="none" stroke="#63b8ff" d="M613.01,-71.48C563.85,-61.06 494.68,-46.39 434,-33.5 428.52,-32.34 422.81,-31.12 417.1,-29.91"/>
<polygon fill="#63b8ff" stroke="#63b8ff" points="418.17,-26.56 407.66,-27.9 416.72,-33.4 418.17,-26.56"/>
</a>
</g>
</g>
<!-- Node9 -->
<g id="Node000009" class="node">
<title>Node9</title>
<g id="a_Node000009"><a xlink:title=" ">
<polygon fill="#e0e0e0" stroke="#999999" points="491.5,-27.12 442.5,-27.12 442.5,-6.38 491.5,-6.38 491.5,-27.12"/>
<text text-anchor="middle" x="467" y="-13.62" font-family="Helvetica,sans-Serif" font-size="10.00">chrono</text>
</a>
</g>
</g>
<!-- Node8&#45;&gt;Node9 -->
<g id="edge15_Node000008_Node000009" class="edge">
<title>Node8&#45;&gt;Node9</title>
<g id="a_edge15_Node000008_Node000009"><a xlink:title=" ">
<path fill="none" stroke="#63b8ff" d="M614.17,-69.07C580.17,-59.83 537.87,-47.34 501,-33.5 499.84,-33.07 498.67,-32.61 497.49,-32.14"/>
<polygon fill="#63b8ff" stroke="#63b8ff" points="498.88,-28.92 488.31,-28.18 496.11,-35.35 498.88,-28.92"/>
</a>
</g>
</g>
<!-- Node10 -->
<g id="Node000010" class="node">
<title>Node10</title>
<g id="a_Node000010"><a xlink:title=" ">
<polygon fill="#e0e0e0" stroke="#999999" points="556,-27.12 510,-27.12 510,-6.38 556,-6.38 556,-27.12"/>
<text text-anchor="middle" x="533" y="-13.62" font-family="Helvetica,sans-Serif" font-size="10.00">deque</text>
</a>
</g>
</g>
<!-- Node8&#45;&gt;Node10 -->
<g id="edge16_Node000008_Node000010" class="edge">
<title>Node8&#45;&gt;Node10</title>
<g id="a_edge16_Node000008_Node000010"><a xlink:title=" ">
<path fill="none" stroke="#63b8ff" d="M642,-69.07C619.75,-59 590.63,-45.67 565,-33.5 564.24,-33.14 563.48,-32.78 562.71,-32.41"/>
<polygon fill="#63b8ff" stroke="#63b8ff" points="564.48,-29.37 553.95,-28.16 561.42,-35.67 564.48,-29.37"/>
</a>
</g>
</g>
<!-- Node11 -->
<g id="Node000011" class="node">
<title>Node11</title>
<g id="a_Node000011"><a xlink:title=" ">
<polygon fill="#e0e0e0" stroke="#999999" points="638,-27.12 574,-27.12 574,-6.38 638,-6.38 638,-27.12"/>
<text text-anchor="middle" x="606" y="-13.62" font-family="Helvetica,sans-Serif" font-size="10.00">stdexcept</text>
</a>
</g>
</g>
<!-- Node8&#45;&gt;Node11 -->
<g id="edge17_Node000008_Node000011" class="edge">
<title>Node8&#45;&gt;Node11</title>
<g id="a_edge17_Node000008_Node000011"><a xlink:title=" ">
<path fill="none" stroke="#63b8ff" d="M660.94,-69.25C650.04,-59.04 635.91,-45.8 624.71,-35.29"/>
<polygon fill="#63b8ff" stroke="#63b8ff" points="627.27,-32.89 617.58,-28.61 622.48,-38 627.27,-32.89"/>
</a>
</g>
</g>
<!-- Node12 -->
<g id="Node000012" class="node">
<title>Node12</title>
<g id="a_Node000012"><a xlink:title=" ">
<polygon fill="#e0e0e0" stroke="#999999" points="702.38,-27.12 655.62,-27.12 655.62,-6.38 702.38,-6.38 702.38,-27.12"/>
<text text-anchor="middle" x="679" y="-13.62" font-family="Helvetica,sans-Serif" font-size="10.00">vector</text>
</a>
</g>
</g>
<!-- Node8&#45;&gt;Node12 -->
<g id="edge18_Node000008_Node000012" class="edge">
<title>Node8&#45;&gt;Node12</title>
<g id="a_edge18_Node000008_Node000012"><a xlink:title=" ">
<path fill="none" stroke="#63b8ff" d="M678.24,-69.25C678.37,-60.15 678.54,-48.64 678.69,-38.82"/>
<polygon fill="#63b8ff" stroke="#63b8ff" points="682.18,-39.14 678.83,-29.09 675.18,-39.03 682.18,-39.14"/>
</a>
</g>
</g>
<!-- Node13 -->
<g id="Node000013" class="node">
<title>Node13</title>
<g id="a_Node000013"><a xlink:title=" ">
<polygon fill="#e0e0e0" stroke="#999999" points="841.88,-27.12 720.12,-27.12 720.12,-6.38 841.88,-6.38 841.88,-27.12"/>
<text text-anchor="middle" x="781" y="-13.62" font-family="Helvetica,sans-Serif" font-size="10.00">boost/timer/timer.hpp</text>
</a>
</g>
</g>
<!-- Node8&#45;&gt;Node13 -->
<g id="edge20_Node000008_Node000013" class="edge">
<title>Node8&#45;&gt;Node13</title>
<g id="a_edge20_Node000008_Node000013"><a xlink:title=" ">
<path fill="none" stroke="#63b8ff" d="M702.67,-69.08C719.03,-58.36 740.41,-44.35 756.7,-33.68"/>
<polygon fill="#63b8ff" stroke="#63b8ff" points="758.38,-36.76 764.82,-28.35 754.54,-30.9 758.38,-36.76"/>
</a>
</g>
</g>
<!-- Node14 -->
<g id="Node000014" class="node">
<title>Node14</title>
<g id="a_Node000014"><a xlink:title=" ">
<polygon fill="#e0e0e0" stroke="#999999" points="954.38,-27.12 859.62,-27.12 859.62,-6.38 954.38,-6.38 954.38,-27.12"/>
<text text-anchor="middle" x="907" y="-13.62" font-family="Helvetica,sans-Serif" font-size="10.00">Eigen/Geometry</text>
</a>
</g>
</g>
<!-- Node8&#45;&gt;Node14 -->
<g id="edge22_Node000008_Node000014" class="edge">
<title>Node8&#45;&gt;Node14</title>
<g id="a_edge22_Node000008_Node000014"><a xlink:title=" ">
<path fill="none" stroke="#63b8ff" d="M732.85,-69.08C772.54,-57.38 825.5,-41.77 862.56,-30.85"/>
<polygon fill="#63b8ff" stroke="#63b8ff" points="863.46,-34.23 872.06,-28.05 861.48,-27.52 863.46,-34.23"/>
</a>
</g>
</g>
<!-- Node15 -->
<g id="Node000015" class="node">
<title>Node15</title>
<g id="a_Node000015"><a xlink:title=" ">
<polygon fill="#e0e0e0" stroke="#999999" points="1093.88,-33.5 972.12,-33.5 972.12,0 1093.88,0 1093.88,-33.5"/>
<text text-anchor="start" x="980.12" y="-20" font-family="Helvetica,sans-Serif" font-size="10.00">boost/math/constants</text>
<text text-anchor="middle" x="1033" y="-7.25" font-family="Helvetica,sans-Serif" font-size="10.00">/constants.hpp</text>
</a>
</g>
</g>
<!-- Node8&#45;&gt;Node15 -->
<g id="edge23_Node000008_Node000015" class="edge">
<title>Node8&#45;&gt;Node15</title>
<g id="a_edge23_Node000008_Node000015"><a xlink:title=" ">
<path fill="none" stroke="#63b8ff" d="M742.95,-74.25C798.32,-64.69 880.31,-50.12 961.08,-33.85"/>
<polygon fill="#63b8ff" stroke="#63b8ff" points="961.36,-37.36 970.47,-31.94 959.97,-30.5 961.36,-37.36"/>
</a>
</g>
</g>
<!-- Node16 -->
<g id="Node000016" class="node">
<title>Node16</title>
<g id="a_Node000016"><a xlink:title=" ">
<polygon fill="#e0e0e0" stroke="#999999" points="1166.12,-27.12 1111.88,-27.12 1111.88,-6.38 1166.12,-6.38 1166.12,-27.12"/>
<text text-anchor="middle" x="1139" y="-13.62" font-family="Helvetica,sans-Serif" font-size="10.00">fstream</text>
</a>
</g>
</g>
<!-- Node8&#45;&gt;Node16 -->
<g id="edge25_Node000008_Node000016" class="edge">
<title>Node8&#45;&gt;Node16</title>
<g id="a_edge25_Node000008_Node000016"><a xlink:title=" ">
<path fill="none" stroke="#63b8ff" d="M742.84,-83.2C827.17,-79.22 978.42,-67.55 1103,-33.5 1104.99,-32.96 1107.01,-32.32 1109.02,-31.63"/>
<polygon fill="#63b8ff" stroke="#63b8ff" points="1110.14,-34.95 1118.16,-28.03 1107.57,-28.44 1110.14,-34.95"/>
</a>
</g>
</g>
<!-- Node17 -->
<g id="Node000017" class="node">
<title>Node17</title>
<g id="a_Node000017"><a xlink:title=" ">
<polygon fill="#e0e0e0" stroke="#999999" points="1313.62,-33.5 1184.38,-33.5 1184.38,0 1313.62,0 1313.62,-33.5"/>
<text text-anchor="start" x="1192.38" y="-20" font-family="Helvetica,sans-Serif" font-size="10.00">state&#45;observation/tools</text>
<text text-anchor="middle" x="1249" y="-7.25" font-family="Helvetica,sans-Serif" font-size="10.00">/definitions.hxx</text>
</a>
</g>
</g>
<!-- Node8&#45;&gt;Node17 -->
<g id="edge26_Node000008_Node000017" class="edge">
<title>Node8&#45;&gt;Node17</title>
<g id="a_edge26_Node000008_Node000017"><a xlink:title=" ">
<path fill="none" stroke="#63b8ff" d="M743.02,-80.69C836.08,-73.67 1012.81,-58.54 1173.08,-33.7"/>
<polygon fill="#63b8ff" stroke="#63b8ff" points="1173.27,-37.21 1182.61,-32.2 1172.18,-30.3 1173.27,-37.21"/>
</a>
</g>
</g>
<!-- Node18&#45;&gt;Node4 -->
<g id="edge28_Node000018_Node000004" class="edge">
<title>Node18&#45;&gt;Node4</title>
<g id="a_edge28_Node000018_Node000004"><a xlink:title=" ">
<path fill="none" stroke="#63b8ff" d="M539.83,-138.59C522.83,-118.57 495.94,-89.47 468,-69.5 446.15,-53.88 418.85,-40.85 397.17,-31.77"/>
<polygon fill="#63b8ff" stroke="#63b8ff" points="398.7,-28.61 388.11,-28.08 396.06,-35.1 398.7,-28.61"/>
</a>
</g>
</g>
<!-- Node18&#45;&gt;Node8 -->
<g id="edge29_Node000018_Node000008" class="edge">
<title>Node18&#45;&gt;Node8</title>
<g id="a_edge29_Node000018_Node000008"><a xlink:title=" ">
<path fill="none" stroke="#63b8ff" d="M594.66,-138.56C609.81,-129.23 627.31,-118.45 642.36,-109.19"/>
<polygon fill="#63b8ff" stroke="#63b8ff" points="643.87,-112.37 650.55,-104.15 640.2,-106.41 643.87,-112.37"/>
</a>
</g>
</g>
<!-- Node19&#45;&gt;Node4 -->
<g id="edge31_Node000019_Node000004" class="edge">
<title>Node19&#45;&gt;Node4</title>
<g id="a_edge31_Node000019_Node000004"><a xlink:title=" ">
<path fill="none" stroke="#63b8ff" d="M666.12,-138.63C635.82,-128.58 600.37,-116.06 569,-103 537.9,-90.05 531.97,-82.77 501,-69.5 467.57,-55.18 428.71,-41.1 400.26,-31.25"/>
<polygon fill="#63b8ff" stroke="#63b8ff" points="401.55,-27.99 390.95,-28.05 399.27,-34.61 401.55,-27.99"/>
</a>
</g>
</g>
<!-- Node19&#45;&gt;Node8 -->
<g id="edge32_Node000019_Node000008" class="edge">
<title>Node19&#45;&gt;Node8</title>
<g id="a_edge32_Node000019_Node000008"><a xlink:title=" ">
<path fill="none" stroke="#63b8ff" d="M719.67,-138.56C712.89,-130.21 705.16,-120.7 698.22,-112.15"/>
<polygon fill="#63b8ff" stroke="#63b8ff" points="701.05,-110.08 692.03,-104.53 695.62,-114.5 701.05,-110.08"/>
</a>
</g>
</g>
<!-- Node20&#45;&gt;Node4 -->
<g id="edge34_Node000020_Node000004" class="edge">
<title>Node20&#45;&gt;Node4</title>
<g id="a_edge34_Node000020_Node000004"><a xlink:title=" ">
<path fill="none" stroke="#63b8ff" d="M841.22,-140.91C838.11,-140.24 835.03,-139.61 832,-139 731.41,-118.86 700.3,-138.35 604,-103 577.13,-93.14 575.28,-80.83 549,-69.5 524.49,-58.93 459.01,-41.87 412,-30.25"/>
<polygon fill="#63b8ff" stroke="#63b8ff" points="413.1,-26.92 402.55,-27.93 411.43,-33.72 413.1,-26.92"/>
</a>
</g>
</g>
<!-- Node20&#45;&gt;Node8 -->
<g id="edge35_Node000020_Node000008" class="edge">
<title>Node20&#45;&gt;Node8</title>
<g id="a_edge35_Node000020_Node000008"><a xlink:title=" ">
<path fill="none" stroke="#63b8ff" d="M848.16,-138.56C814.4,-128.38 774.93,-116.48 742.5,-106.7"/>
<polygon fill="#63b8ff" stroke="#63b8ff" points="743.82,-103.44 733.24,-103.91 741.8,-110.14 743.82,-103.44"/>
</a>
</g>
</g>
</g>
</svg>
