<?xml version="1.0" encoding="UTF-8" standalone="no"?>
<!DOCTYPE svg PUBLIC "-//W3C//DTD SVG 1.1//EN"
 "http://www.w3.org/Graphics/SVG/1.1/DTD/svg11.dtd">
<!-- Generated by graphviz version 12.2.1 (0)
 -->
<!-- Title: /build/source/include/state&#45;observation/sensors&#45;simulation/accelerometer&#45;gyrometer.hpp Pages: 1 -->
<svg width="1294pt" height="427pt"
 viewBox="0.00 0.00 1293.62 427.25" xmlns="http://www.w3.org/2000/svg" xmlns:xlink="http://www.w3.org/1999/xlink">
<g id="graph0" class="graph" transform="scale(1 1) rotate(0) translate(4 423.25)">
<title>/build/source/include/state&#45;observation/sensors&#45;simulation/accelerometer&#45;gyrometer.hpp</title>
<!-- Node1 -->
<g id="Node000001" class="node">
<title>Node1</title>
<g id="a_Node000001"><a xlink:title="Implements the accelerometer&#45;gyrometer inertial measuremen.">
<polygon fill="#999999" stroke="#666666" points="408.88,-419.25 263.12,-419.25 263.12,-360.25 408.88,-360.25 408.88,-419.25"/>
<text text-anchor="start" x="271.12" y="-405.75" font-family="Helvetica,sans-Serif" font-size="10.00">/build/source/include</text>
<text text-anchor="start" x="271.12" y="-393" font-family="Helvetica,sans-Serif" font-size="10.00">/state&#45;observation/sensors</text>
<text text-anchor="start" x="271.12" y="-380.25" font-family="Helvetica,sans-Serif" font-size="10.00">&#45;simulation/accelerometer</text>
<text text-anchor="middle" x="336" y="-367.5" font-family="Helvetica,sans-Serif" font-size="10.00">&#45;gyrometer.hpp</text>
</a>
</g>
</g>
<!-- Node2 -->
<g id="Node000002" class="node">
<title>Node2</title>
<g id="a_Node000002"><a xlink:title=" ">
<polygon fill="#e0e0e0" stroke="#999999" points="219.5,-27.12 122.5,-27.12 122.5,-6.38 219.5,-6.38 219.5,-27.12"/>
<text text-anchor="middle" x="171" y="-13.62" font-family="Helvetica,sans-Serif" font-size="10.00">boost/assert.hpp</text>
</a>
</g>
</g>
<!-- Node1&#45;&gt;Node2 -->
<g id="edge1_Node000001_Node000002" class="edge">
<title>Node1&#45;&gt;Node2</title>
<g id="a_edge1_Node000001_Node000002"><a xlink:title=" ">
<path fill="none" stroke="#63b8ff" d="M262.71,-380.94C217.98,-372.95 161.91,-356.81 122,-324.25 88.64,-297.03 76,-282.05 76,-239 76,-239 76,-239 76,-161.12 76,-108.01 121.87,-59.48 149.86,-34.81"/>
<polygon fill="#63b8ff" stroke="#63b8ff" points="152.08,-37.52 157.43,-28.37 147.55,-32.19 152.08,-37.52"/>
</a>
</g>
</g>
<!-- Node3 -->
<g id="Node000003" class="node">
<title>Node3</title>
<g id="a_Node000003"><a xlink:title=" ">
<polygon fill="#e0e0e0" stroke="#999999" points="98.25,-27.12 29.75,-27.12 29.75,-6.38 98.25,-6.38 98.25,-27.12"/>
<text text-anchor="middle" x="64" y="-13.62" font-family="Helvetica,sans-Serif" font-size="10.00">Eigen/Core</text>
</a>
</g>
</g>
<!-- Node1&#45;&gt;Node3 -->
<g id="edge2_Node000001_Node000003" class="edge">
<title>Node1&#45;&gt;Node3</title>
<g id="a_edge2_Node000001_Node000003"><a xlink:title=" ">
<path fill="none" stroke="#63b8ff" d="M262.68,-387.26C163.81,-380.91 0,-353.16 0,-239 0,-239 0,-239 0,-161.12 0,-113 30.44,-63.06 49.34,-36.7"/>
<polygon fill="#63b8ff" stroke="#63b8ff" points="52.11,-38.84 55.25,-28.72 46.48,-34.67 52.11,-38.84"/>
</a>
</g>
</g>
<!-- Node4 -->
<g id="Node000004" class="node">
<title>Node4</title>
<g id="a_Node000004"><a xlink:title=" ">
<polygon fill="#e0e0e0" stroke="#999999" points="396.62,-27.12 267.38,-27.12 267.38,-6.38 396.62,-6.38 396.62,-27.12"/>
<text text-anchor="middle" x="332" y="-13.62" font-family="Helvetica,sans-Serif" font-size="10.00">state&#45;observation/api.h</text>
</a>
</g>
</g>
<!-- Node1&#45;&gt;Node4 -->
<g id="edge3_Node000001_Node000004" class="edge">
<title>Node1&#45;&gt;Node4</title>
<g id="a_edge3_Node000001_Node000004"><a xlink:title=" ">
<path fill="none" stroke="#63b8ff" d="M378.27,-359.86C412.13,-332.96 454,-289.48 454,-239 454,-239 454,-239 454,-161.12 454,-103.02 395.16,-56.47 359.21,-33.45"/>
<polygon fill="#63b8ff" stroke="#63b8ff" points="361.37,-30.68 351.03,-28.39 357.69,-36.63 361.37,-30.68"/>
</a>
</g>
</g>
<!-- Node5 -->
<g id="Node000005" class="node">
<title>Node5</title>
<g id="a_Node000005"><a xlink:href="algebraic-sensor_8hpp.html" target="_top" xlink:title="Gives a base class for algebraic sensors.">
<polygon fill="white" stroke="#666666" points="306.88,-324.25 131.12,-324.25 131.12,-290.75 306.88,-290.75 306.88,-324.25"/>
<text text-anchor="start" x="139.12" y="-310.75" font-family="Helvetica,sans-Serif" font-size="10.00">state&#45;observation/sensors</text>
<text text-anchor="middle" x="219" y="-298" font-family="Helvetica,sans-Serif" font-size="10.00">&#45;simulation/algebraic&#45;sensor.hpp</text>
</a>
</g>
</g>
<!-- Node1&#45;&gt;Node5 -->
<g id="edge4_Node000001_Node000005" class="edge">
<title>Node1&#45;&gt;Node5</title>
<g id="a_edge4_Node000001_Node000005"><a xlink:title=" ">
<path fill="none" stroke="#63b8ff" d="M293.76,-359.78C279.99,-350.33 264.91,-339.99 251.93,-331.09"/>
<polygon fill="#63b8ff" stroke="#63b8ff" points="253.94,-328.22 243.71,-325.45 249.98,-333.99 253.94,-328.22"/>
</a>
</g>
</g>
<!-- Node18 -->
<g id="Node000018" class="node">
<title>Node18</title>
<g id="a_Node000018"><a xlink:href="linear-acceleration_8hpp.html" target="_top" xlink:title="Implements the accelerometer algorithm.">
<polygon fill="white" stroke="#666666" points="634.25,-185.25 481.75,-185.25 481.75,-139 634.25,-139 634.25,-185.25"/>
<text text-anchor="start" x="489.75" y="-171.75" font-family="Helvetica,sans-Serif" font-size="10.00">state&#45;observation/sensors</text>
<text text-anchor="start" x="489.75" y="-159" font-family="Helvetica,sans-Serif" font-size="10.00">&#45;simulation/algorithm/linear</text>
<text text-anchor="middle" x="558" y="-146.25" font-family="Helvetica,sans-Serif" font-size="10.00">&#45;acceleration.hpp</text>
</a>
</g>
</g>
<!-- Node1&#45;&gt;Node18 -->
<g id="edge27_Node000001_Node000018" class="edge">
<title>Node1&#45;&gt;Node18</title>
<g id="a_edge27_Node000001_Node000018"><a xlink:title=" ">
<path fill="none" stroke="#63b8ff" d="M409.16,-362.63C429.83,-352.83 451.24,-340.12 468,-324.25 506.38,-287.92 532.66,-231.52 546.51,-195.99"/>
<polygon fill="#63b8ff" stroke="#63b8ff" points="549.61,-197.69 549.87,-187.1 543.06,-195.22 549.61,-197.69"/>
</a>
</g>
</g>
<!-- Node19 -->
<g id="Node000019" class="node">
<title>Node19</title>
<g id="a_Node000019"><a xlink:href="rotation-velocity_8hpp.html" target="_top" xlink:title="The implementation of the algorithm of a rotation velocity sensor.">
<polygon fill="white" stroke="#666666" points="815.5,-185.25 652.5,-185.25 652.5,-139 815.5,-139 815.5,-185.25"/>
<text text-anchor="start" x="660.5" y="-171.75" font-family="Helvetica,sans-Serif" font-size="10.00">state&#45;observation/sensors</text>
<text text-anchor="start" x="660.5" y="-159" font-family="Helvetica,sans-Serif" font-size="10.00">&#45;simulation/algorithm/rotation</text>
<text text-anchor="middle" x="734" y="-146.25" font-family="Helvetica,sans-Serif" font-size="10.00">&#45;velocity.hpp</text>
</a>
</g>
</g>
<!-- Node1&#45;&gt;Node19 -->
<g id="edge30_Node000001_Node000019" class="edge">
<title>Node1&#45;&gt;Node19</title>
<g id="a_edge30_Node000001_Node000019"><a xlink:title=" ">
<path fill="none" stroke="#63b8ff" d="M409.16,-363.02C436.94,-352.28 468.5,-338.89 496,-324.25 570.59,-284.55 650.63,-226.87 696.28,-192.37"/>
<polygon fill="#63b8ff" stroke="#63b8ff" points="698.16,-195.34 704.01,-186.5 693.93,-189.76 698.16,-195.34"/>
</a>
</g>
</g>
<!-- Node5&#45;&gt;Node2 -->
<g id="edge5_Node000005_Node000002" class="edge">
<title>Node5&#45;&gt;Node2</title>
<g id="a_edge5_Node000005_Node000002"><a xlink:title=" ">
<path fill="none" stroke="#63b8ff" d="M173.93,-290.35C158.09,-282.25 142,-270.68 133,-254.75 92.34,-182.82 137.46,-80.14 159.87,-37.49"/>
<polygon fill="#63b8ff" stroke="#63b8ff" points="162.85,-39.35 164.54,-28.89 156.7,-36.01 162.85,-39.35"/>
</a>
</g>
</g>
<!-- Node5&#45;&gt;Node3 -->
<g id="edge6_Node000005_Node000003" class="edge">
<title>Node5&#45;&gt;Node3</title>
<g id="a_edge6_Node000005_Node000003"><a xlink:title=" ">
<path fill="none" stroke="#63b8ff" d="M168.55,-290.28C149.93,-282.14 129.98,-270.57 116,-254.75 59.22,-190.48 60.34,-155.24 62,-69.5 62.2,-59.36 62.61,-48.12 63.01,-38.71"/>
<polygon fill="#63b8ff" stroke="#63b8ff" points="66.5,-38.94 63.45,-28.8 59.51,-38.63 66.5,-38.94"/>
</a>
</g>
</g>
<!-- Node5&#45;&gt;Node4 -->
<g id="edge7_Node000005_Node000004" class="edge">
<title>Node5&#45;&gt;Node4</title>
<g id="a_edge7_Node000005_Node000004"><a xlink:title=" ">
<path fill="none" stroke="#63b8ff" d="M264.07,-290.35C279.91,-282.25 296,-270.68 305,-254.75 312.33,-241.79 308.73,-235.66 305,-221.25 300.41,-203.53 289.59,-202.97 285,-185.25 279.84,-165.35 281.22,-159.21 285,-139 291.99,-101.62 310.13,-60.94 321.72,-37.48"/>
<polygon fill="#63b8ff" stroke="#63b8ff" points="324.73,-39.29 326.12,-28.79 318.48,-36.13 324.73,-39.29"/>
</a>
</g>
</g>
<!-- Node6 -->
<g id="Node000006" class="node">
<title>Node6</title>
<g id="a_Node000006"><a xlink:href="sensor-base_8hpp.html" target="_top" xlink:title="Implements the base class of all sensors.">
<polygon fill="white" stroke="#666666" points="296.38,-254.75 141.62,-254.75 141.62,-221.25 296.38,-221.25 296.38,-254.75"/>
<text text-anchor="start" x="149.62" y="-241.25" font-family="Helvetica,sans-Serif" font-size="10.00">state&#45;observation/sensors</text>
<text text-anchor="middle" x="219" y="-228.5" font-family="Helvetica,sans-Serif" font-size="10.00">&#45;simulation/sensor&#45;base.hpp</text>
</a>
</g>
</g>
<!-- Node5&#45;&gt;Node6 -->
<g id="edge8_Node000005_Node000006" class="edge">
<title>Node5&#45;&gt;Node6</title>
<g id="a_edge8_Node000005_Node000006"><a xlink:title=" ">
<path fill="none" stroke="#63b8ff" d="M219,-290.5C219,-283.27 219,-274.53 219,-266.31"/>
<polygon fill="#63b8ff" stroke="#63b8ff" points="222.5,-266.4 219,-256.4 215.5,-266.4 222.5,-266.4"/>
</a>
</g>
</g>
<!-- Node6&#45;&gt;Node2 -->
<g id="edge9_Node000006_Node000002" class="edge">
<title>Node6&#45;&gt;Node2</title>
<g id="a_edge9_Node000006_Node000002"><a xlink:title=" ">
<path fill="none" stroke="#63b8ff" d="M215.47,-220.88C206.92,-181.81 185.09,-82.12 175.57,-38.6"/>
<polygon fill="#63b8ff" stroke="#63b8ff" points="179.01,-37.97 173.45,-28.95 172.17,-39.46 179.01,-37.97"/>
</a>
</g>
</g>
<!-- Node6&#45;&gt;Node3 -->
<g id="edge10_Node000006_Node000003" class="edge">
<title>Node6&#45;&gt;Node3</title>
<g id="a_edge10_Node000006_Node000003"><a xlink:title=" ">
<path fill="none" stroke="#63b8ff" d="M207.6,-220.88C179.57,-181.23 107.38,-79.11 77.38,-36.68"/>
<polygon fill="#63b8ff" stroke="#63b8ff" points="80.37,-34.85 71.74,-28.7 74.66,-38.89 80.37,-34.85"/>
</a>
</g>
</g>
<!-- Node6&#45;&gt;Node4 -->
<g id="edge11_Node000006_Node000004" class="edge">
<title>Node6&#45;&gt;Node4</title>
<g id="a_edge11_Node000006_Node000004"><a xlink:title=" ">
<path fill="none" stroke="#63b8ff" d="M218.21,-221.15C217.4,-189.49 219.58,-117.34 252,-69.5 262.96,-53.32 280.84,-41.06 296.92,-32.54"/>
<polygon fill="#63b8ff" stroke="#63b8ff" points="298.37,-35.72 305.78,-28.15 295.26,-29.45 298.37,-35.72"/>
</a>
</g>
</g>
<!-- Node7 -->
<g id="Node000007" class="node">
<title>Node7</title>
<g id="a_Node000007"><a xlink:href="noise-base_8hpp.html" target="_top" xlink:title=" ">
<polygon fill="white" stroke="#666666" points="425.75,-178.88 294.25,-178.88 294.25,-145.38 425.75,-145.38 425.75,-178.88"/>
<text text-anchor="start" x="302.25" y="-165.38" font-family="Helvetica,sans-Serif" font-size="10.00">state&#45;observation/noise</text>
<text text-anchor="middle" x="360" y="-152.62" font-family="Helvetica,sans-Serif" font-size="10.00">/noise&#45;base.hpp</text>
</a>
</g>
</g>
<!-- Node6&#45;&gt;Node7 -->
<g id="edge12_Node000006_Node000007" class="edge">
<title>Node6&#45;&gt;Node7</title>
<g id="a_edge12_Node000006_Node000007"><a xlink:title=" ">
<path fill="none" stroke="#63b8ff" d="M249.94,-220.79C270.24,-210.15 297,-196.13 319.05,-184.58"/>
<polygon fill="#63b8ff" stroke="#63b8ff" points="320.55,-187.74 327.79,-180 317.31,-181.54 320.55,-187.74"/>
</a>
</g>
</g>
<!-- Node7&#45;&gt;Node4 -->
<g id="edge13_Node000007_Node000004" class="edge">
<title>Node7&#45;&gt;Node4</title>
<g id="a_edge13_Node000007_Node000004"><a xlink:title=" ">
<path fill="none" stroke="#63b8ff" d="M356.84,-144.96C351.73,-118.8 341.66,-67.24 336.04,-38.44"/>
<polygon fill="#63b8ff" stroke="#63b8ff" points="339.51,-37.94 334.16,-28.79 332.64,-39.28 339.51,-37.94"/>
</a>
</g>
</g>
<!-- Node8 -->
<g id="Node000008" class="node">
<title>Node8</title>
<g id="a_Node000008"><a xlink:href="definitions_8hpp.html" target="_top" xlink:title="Definitions of types and some structures.">
<polygon fill="white" stroke="#666666" points="687.62,-103 558.38,-103 558.38,-69.5 687.62,-69.5 687.62,-103"/>
<text text-anchor="start" x="566.38" y="-89.5" font-family="Helvetica,sans-Serif" font-size="10.00">state&#45;observation/tools</text>
<text text-anchor="middle" x="623" y="-76.75" font-family="Helvetica,sans-Serif" font-size="10.00">/definitions.hpp</text>
</a>
</g>
</g>
<!-- Node7&#45;&gt;Node8 -->
<g id="edge14_Node000007_Node000008" class="edge">
<title>Node7&#45;&gt;Node8</title>
<g id="a_edge14_Node000007_Node000008"><a xlink:title=" ">
<path fill="none" stroke="#63b8ff" d="M417.72,-144.91C458.06,-133.58 512.09,-118.4 554.6,-106.46"/>
<polygon fill="#63b8ff" stroke="#63b8ff" points="555.28,-109.91 563.96,-103.83 553.39,-103.17 555.28,-109.91"/>
</a>
</g>
</g>
<!-- Node8&#45;&gt;Node2 -->
<g id="edge19_Node000008_Node000002" class="edge">
<title>Node8&#45;&gt;Node2</title>
<g id="a_edge19_Node000008_Node000002"><a xlink:title=" ">
<path fill="none" stroke="#63b8ff" d="M557.94,-76.79C484.85,-67.11 362.73,-50.4 258,-33.5 249.26,-32.09 240.05,-30.52 231.01,-28.92"/>
<polygon fill="#63b8ff" stroke="#63b8ff" points="231.67,-25.49 221.21,-27.17 230.44,-32.38 231.67,-25.49"/>
</a>
</g>
</g>
<!-- Node8&#45;&gt;Node3 -->
<g id="edge21_Node000008_Node000003" class="edge">
<title>Node8&#45;&gt;Node3</title>
<g id="a_edge21_Node000008_Node000003"><a xlink:title=" ">
<path fill="none" stroke="#63b8ff" d="M557.93,-83.01C460.33,-78.68 270.68,-66.46 113,-33.5 109.41,-32.75 105.72,-31.84 102.04,-30.83"/>
<polygon fill="#63b8ff" stroke="#63b8ff" points="103.23,-27.53 92.65,-28.04 101.24,-34.24 103.23,-27.53"/>
</a>
</g>
</g>
<!-- Node8&#45;&gt;Node4 -->
<g id="edge24_Node000008_Node000004" class="edge">
<title>Node8&#45;&gt;Node4</title>
<g id="a_edge24_Node000008_Node000004"><a xlink:title=" ">
<path fill="none" stroke="#63b8ff" d="M558.06,-70.19C506,-58.11 433.84,-41.37 385.18,-30.08"/>
<polygon fill="#63b8ff" stroke="#63b8ff" points="386.26,-26.74 375.72,-27.89 384.67,-33.56 386.26,-26.74"/>
</a>
</g>
</g>
<!-- Node9 -->
<g id="Node000009" class="node">
<title>Node9</title>
<g id="a_Node000009"><a xlink:title=" ">
<polygon fill="#e0e0e0" stroke="#999999" points="463.5,-27.12 414.5,-27.12 414.5,-6.38 463.5,-6.38 463.5,-27.12"/>
<text text-anchor="middle" x="439" y="-13.62" font-family="Helvetica,sans-Serif" font-size="10.00">chrono</text>
</a>
</g>
</g>
<!-- Node8&#45;&gt;Node9 -->
<g id="edge15_Node000008_Node000009" class="edge">
<title>Node8&#45;&gt;Node9</title>
<g id="a_edge15_Node000008_Node000009"><a xlink:title=" ">
<path fill="none" stroke="#63b8ff" d="M571.84,-69.03C542.62,-59.41 505.45,-46.57 473,-33.5 471.88,-33.05 470.75,-32.58 469.61,-32.1"/>
<polygon fill="#63b8ff" stroke="#63b8ff" points="471.3,-29.02 460.73,-28.19 468.48,-35.43 471.3,-29.02"/>
</a>
</g>
</g>
<!-- Node10 -->
<g id="Node000010" class="node">
<title>Node10</title>
<g id="a_Node000010"><a xlink:title=" ">
<polygon fill="#e0e0e0" stroke="#999999" points="528,-27.12 482,-27.12 482,-6.38 528,-6.38 528,-27.12"/>
<text text-anchor="middle" x="505" y="-13.62" font-family="Helvetica,sans-Serif" font-size="10.00">deque</text>
</a>
</g>
</g>
<!-- Node8&#45;&gt;Node10 -->
<g id="edge16_Node000008_Node000010" class="edge">
<title>Node8&#45;&gt;Node10</title>
<g id="a_edge16_Node000008_Node000010"><a xlink:title=" ">
<path fill="none" stroke="#63b8ff" d="M594.74,-69.08C575.72,-58.21 550.81,-43.95 532.05,-33.23"/>
<polygon fill="#63b8ff" stroke="#63b8ff" points="533.81,-30.2 523.4,-28.27 530.34,-36.28 533.81,-30.2"/>
</a>
</g>
</g>
<!-- Node11 -->
<g id="Node000011" class="node">
<title>Node11</title>
<g id="a_Node000011"><a xlink:title=" ">
<polygon fill="#e0e0e0" stroke="#999999" points="610,-27.12 546,-27.12 546,-6.38 610,-6.38 610,-27.12"/>
<text text-anchor="middle" x="578" y="-13.62" font-family="Helvetica,sans-Serif" font-size="10.00">stdexcept</text>
</a>
</g>
</g>
<!-- Node8&#45;&gt;Node11 -->
<g id="edge17_Node000008_Node000011" class="edge">
<title>Node8&#45;&gt;Node11</title>
<g id="a_edge17_Node000008_Node000011"><a xlink:title=" ">
<path fill="none" stroke="#63b8ff" d="M612.34,-69.25C605.86,-59.55 597.57,-47.1 590.75,-36.87"/>
<polygon fill="#63b8ff" stroke="#63b8ff" points="593.85,-35.21 585.39,-28.83 588.02,-39.09 593.85,-35.21"/>
</a>
</g>
</g>
<!-- Node12 -->
<g id="Node000012" class="node">
<title>Node12</title>
<g id="a_Node000012"><a xlink:title=" ">
<polygon fill="#e0e0e0" stroke="#999999" points="674.38,-27.12 627.62,-27.12 627.62,-6.38 674.38,-6.38 674.38,-27.12"/>
<text text-anchor="middle" x="651" y="-13.62" font-family="Helvetica,sans-Serif" font-size="10.00">vector</text>
</a>
</g>
</g>
<!-- Node8&#45;&gt;Node12 -->
<g id="edge18_Node000008_Node000012" class="edge">
<title>Node8&#45;&gt;Node12</title>
<g id="a_edge18_Node000008_Node000012"><a xlink:title=" ">
<path fill="none" stroke="#63b8ff" d="M629.64,-69.25C633.49,-59.95 638.4,-48.13 642.53,-38.16"/>
<polygon fill="#63b8ff" stroke="#63b8ff" points="645.75,-39.55 646.35,-28.97 639.28,-36.87 645.75,-39.55"/>
</a>
</g>
</g>
<!-- Node13 -->
<g id="Node000013" class="node">
<title>Node13</title>
<g id="a_Node000013"><a xlink:title=" ">
<polygon fill="#e0e0e0" stroke="#999999" points="813.88,-27.12 692.12,-27.12 692.12,-6.38 813.88,-6.38 813.88,-27.12"/>
<text text-anchor="middle" x="753" y="-13.62" font-family="Helvetica,sans-Serif" font-size="10.00">boost/timer/timer.hpp</text>
</a>
</g>
</g>
<!-- Node8&#45;&gt;Node13 -->
<g id="edge20_Node000008_Node000013" class="edge">
<title>Node8&#45;&gt;Node13</title>
<g id="a_edge20_Node000008_Node000013"><a xlink:title=" ">
<path fill="none" stroke="#63b8ff" d="M654.14,-69.08C675.37,-58.06 703.3,-43.55 724.06,-32.78"/>
<polygon fill="#63b8ff" stroke="#63b8ff" points="725.58,-35.93 732.84,-28.22 722.35,-29.72 725.58,-35.93"/>
</a>
</g>
</g>
<!-- Node14 -->
<g id="Node000014" class="node">
<title>Node14</title>
<g id="a_Node000014"><a xlink:title=" ">
<polygon fill="#e0e0e0" stroke="#999999" points="926.38,-27.12 831.62,-27.12 831.62,-6.38 926.38,-6.38 926.38,-27.12"/>
<text text-anchor="middle" x="879" y="-13.62" font-family="Helvetica,sans-Serif" font-size="10.00">Eigen/Geometry</text>
</a>
</g>
</g>
<!-- Node8&#45;&gt;Node14 -->
<g id="edge22_Node000008_Node000014" class="edge">
<title>Node8&#45;&gt;Node14</title>
<g id="a_edge22_Node000008_Node000014"><a xlink:title=" ">
<path fill="none" stroke="#63b8ff" d="M687.04,-69.04C726.33,-59.01 777.64,-45.75 823,-33.5 826.35,-32.59 829.82,-31.65 833.3,-30.69"/>
<polygon fill="#63b8ff" stroke="#63b8ff" points="834.22,-34.06 842.92,-28.01 832.35,-27.32 834.22,-34.06"/>
</a>
</g>
</g>
<!-- Node15 -->
<g id="Node000015" class="node">
<title>Node15</title>
<g id="a_Node000015"><a xlink:title=" ">
<polygon fill="#e0e0e0" stroke="#999999" points="1065.88,-33.5 944.12,-33.5 944.12,0 1065.88,0 1065.88,-33.5"/>
<text text-anchor="start" x="952.12" y="-20" font-family="Helvetica,sans-Serif" font-size="10.00">boost/math/constants</text>
<text text-anchor="middle" x="1005" y="-7.25" font-family="Helvetica,sans-Serif" font-size="10.00">/constants.hpp</text>
</a>
</g>
</g>
<!-- Node8&#45;&gt;Node15 -->
<g id="edge23_Node000008_Node000015" class="edge">
<title>Node8&#45;&gt;Node15</title>
<g id="a_edge23_Node000008_Node000015"><a xlink:title=" ">
<path fill="none" stroke="#63b8ff" d="M688.03,-75.57C748.81,-66.27 842.33,-51.32 932.93,-33.84"/>
<polygon fill="#63b8ff" stroke="#63b8ff" points="933.33,-37.33 942.47,-31.99 931.99,-30.46 933.33,-37.33"/>
</a>
</g>
</g>
<!-- Node16 -->
<g id="Node000016" class="node">
<title>Node16</title>
<g id="a_Node000016"><a xlink:title=" ">
<polygon fill="#e0e0e0" stroke="#999999" points="1138.12,-27.12 1083.88,-27.12 1083.88,-6.38 1138.12,-6.38 1138.12,-27.12"/>
<text text-anchor="middle" x="1111" y="-13.62" font-family="Helvetica,sans-Serif" font-size="10.00">fstream</text>
</a>
</g>
</g>
<!-- Node8&#45;&gt;Node16 -->
<g id="edge25_Node000008_Node000016" class="edge">
<title>Node8&#45;&gt;Node16</title>
<g id="a_edge25_Node000008_Node000016"><a xlink:title=" ">
<path fill="none" stroke="#63b8ff" d="M687.75,-83.87C776.54,-80.63 940.39,-69.77 1075,-33.5 1076.99,-32.96 1079.01,-32.34 1081.03,-31.64"/>
<polygon fill="#63b8ff" stroke="#63b8ff" points="1082.14,-34.97 1090.17,-28.06 1079.58,-28.45 1082.14,-34.97"/>
</a>
</g>
</g>
<!-- Node17 -->
<g id="Node000017" class="node">
<title>Node17</title>
<g id="a_Node000017"><a xlink:title=" ">
<polygon fill="#e0e0e0" stroke="#999999" points="1285.62,-33.5 1156.38,-33.5 1156.38,0 1285.62,0 1285.62,-33.5"/>
<text text-anchor="start" x="1164.38" y="-20" font-family="Helvetica,sans-Serif" font-size="10.00">state&#45;observation/tools</text>
<text text-anchor="middle" x="1221" y="-7.25" font-family="Helvetica,sans-Serif" font-size="10.00">/definitions.hxx</text>
</a>
</g>
</g>
<!-- Node8&#45;&gt;Node17 -->
<g id="edge26_Node000008_Node000017" class="edge">
<title>Node8&#45;&gt;Node17</title>
<g id="a_edge26_Node000008_Node000017"><a xlink:title=" ">
<path fill="none" stroke="#63b8ff" d="M687.83,-81.18C784.97,-74.56 974.24,-59.69 1144.89,-33.72"/>
<polygon fill="#63b8ff" stroke="#63b8ff" points="1145.26,-37.2 1154.61,-32.22 1144.19,-30.28 1145.26,-37.2"/>
</a>
</g>
</g>
<!-- Node18&#45;&gt;Node4 -->
<g id="edge28_Node000018_Node000004" class="edge">
<title>Node18&#45;&gt;Node4</title>
<g id="a_edge28_Node000018_Node000004"><a xlink:title=" ">
<path fill="none" stroke="#63b8ff" d="M540.86,-138.82C524.17,-118.39 497.12,-88.53 468,-69.5 441.42,-52.13 408.16,-39.34 381.19,-30.82"/>
<polygon fill="#63b8ff" stroke="#63b8ff" points="382.46,-27.55 371.87,-27.98 380.42,-34.25 382.46,-27.55"/>
</a>
</g>
</g>
<!-- Node18&#45;&gt;Node8 -->
<g id="edge29_Node000018_Node000008" class="edge">
<title>Node18&#45;&gt;Node8</title>
<g id="a_edge29_Node000018_Node000008"><a xlink:title=" ">
<path fill="none" stroke="#63b8ff" d="M577.86,-138.56C585.28,-130.12 593.75,-120.49 601.33,-111.88"/>
<polygon fill="#63b8ff" stroke="#63b8ff" points="603.85,-114.31 607.83,-104.49 598.6,-109.69 603.85,-114.31"/>
</a>
</g>
</g>
<!-- Node19&#45;&gt;Node4 -->
<g id="edge31_Node000019_Node000004" class="edge">
<title>Node19&#45;&gt;Node4</title>
<g id="a_edge31_Node000019_Node000004"><a xlink:title=" ">
<path fill="none" stroke="#63b8ff" d="M652.26,-141.26C619.3,-131.77 581.48,-118.97 549,-103 525.65,-91.52 524.39,-80.89 501,-69.5 465.19,-52.06 422.23,-39 388.59,-30.36"/>
<polygon fill="#63b8ff" stroke="#63b8ff" points="389.58,-27 379.03,-27.97 387.89,-33.79 389.58,-27"/>
</a>
</g>
</g>
<!-- Node19&#45;&gt;Node8 -->
<g id="edge32_Node000019_Node000008" class="edge">
<title>Node19&#45;&gt;Node8</title>
<g id="a_edge32_Node000019_Node000008"><a xlink:title=" ">
<path fill="none" stroke="#63b8ff" d="M700.09,-138.56C686.34,-129.41 670.5,-118.86 656.76,-109.72"/>
<polygon fill="#63b8ff" stroke="#63b8ff" points="658.72,-106.82 648.46,-104.19 654.84,-112.65 658.72,-106.82"/>
</a>
</g>
</g>
</g>
</svg>
