<?xml version="1.0" encoding="UTF-8" standalone="no"?>
<!DOCTYPE svg PUBLIC "-//W3C//DTD SVG 1.1//EN"
 "http://www.w3.org/Graphics/SVG/1.1/DTD/svg11.dtd">
<!-- Generated by graphviz version 12.2.1 (0)
 -->
<!-- Title: /build/source/include/state&#45;observation/sensors&#45;simulation/algebraic&#45;sensor.hpp Pages: 1 -->
<svg width="1228pt" height="332pt"
 viewBox="0.00 0.00 1227.88 332.25" xmlns="http://www.w3.org/2000/svg" xmlns:xlink="http://www.w3.org/1999/xlink">
<g id="graph0" class="graph" transform="scale(1 1) rotate(0) translate(4 328.25)">
<title>/build/source/include/state&#45;observation/sensors&#45;simulation/algebraic&#45;sensor.hpp</title>
<!-- Node1 -->
<g id="Node000001" class="node">
<title>Node1</title>
<g id="a_Node000001"><a xlink:title="Gives a base class for algebraic sensors.">
<polygon fill="#999999" stroke="#666666" points="275.12,-324.25 99.38,-324.25 99.38,-278 275.12,-278 275.12,-324.25"/>
<text text-anchor="start" x="107.38" y="-310.75" font-family="Helvetica,sans-Serif" font-size="10.00">/build/source/include</text>
<text text-anchor="start" x="107.38" y="-298" font-family="Helvetica,sans-Serif" font-size="10.00">/state&#45;observation/sensors</text>
<text text-anchor="middle" x="187.25" y="-285.25" font-family="Helvetica,sans-Serif" font-size="10.00">&#45;simulation/algebraic&#45;sensor.hpp</text>
</a>
</g>
</g>
<!-- Node2 -->
<g id="Node000002" class="node">
<title>Node2</title>
<g id="a_Node000002"><a xlink:title=" ">
<polygon fill="#e0e0e0" stroke="#999999" points="183.75,-27.12 86.75,-27.12 86.75,-6.38 183.75,-6.38 183.75,-27.12"/>
<text text-anchor="middle" x="135.25" y="-13.62" font-family="Helvetica,sans-Serif" font-size="10.00">boost/assert.hpp</text>
</a>
</g>
</g>
<!-- Node1&#45;&gt;Node2 -->
<g id="edge1_Node000001_Node000002" class="edge">
<title>Node1&#45;&gt;Node2</title>
<g id="a_edge1_Node000001_Node000002"><a xlink:title=" ">
<path fill="none" stroke="#63b8ff" d="M171.5,-277.7C165.02,-267.32 158.13,-254.53 154.25,-242 131.97,-170.09 132.47,-79.39 134.07,-38.92"/>
<polygon fill="#63b8ff" stroke="#63b8ff" points="137.57,-39.09 134.55,-28.94 130.58,-38.76 137.57,-39.09"/>
</a>
</g>
</g>
<!-- Node3 -->
<g id="Node000003" class="node">
<title>Node3</title>
<g id="a_Node000003"><a xlink:title=" ">
<polygon fill="#e0e0e0" stroke="#999999" points="68.5,-27.12 0,-27.12 0,-6.38 68.5,-6.38 68.5,-27.12"/>
<text text-anchor="middle" x="34.25" y="-13.62" font-family="Helvetica,sans-Serif" font-size="10.00">Eigen/Core</text>
</a>
</g>
</g>
<!-- Node1&#45;&gt;Node3 -->
<g id="edge2_Node000001_Node000003" class="edge">
<title>Node1&#45;&gt;Node3</title>
<g id="a_edge2_Node000001_Node000003"><a xlink:title=" ">
<path fill="none" stroke="#63b8ff" d="M168.14,-277.74C159.66,-267.25 149.9,-254.37 142.25,-242 98.08,-170.57 58.73,-78.34 42.34,-38.07"/>
<polygon fill="#63b8ff" stroke="#63b8ff" points="45.64,-36.9 38.66,-28.93 39.15,-39.51 45.64,-36.9"/>
</a>
</g>
</g>
<!-- Node4 -->
<g id="Node000004" class="node">
<title>Node4</title>
<g id="a_Node000004"><a xlink:title=" ">
<polygon fill="#e0e0e0" stroke="#999999" points="1219.88,-27.12 1090.62,-27.12 1090.62,-6.38 1219.88,-6.38 1219.88,-27.12"/>
<text text-anchor="middle" x="1155.25" y="-13.62" font-family="Helvetica,sans-Serif" font-size="10.00">state&#45;observation/api.h</text>
</a>
</g>
</g>
<!-- Node1&#45;&gt;Node4 -->
<g id="edge3_Node000001_Node000004" class="edge">
<title>Node1&#45;&gt;Node4</title>
<g id="a_edge3_Node000001_Node000004"><a xlink:title=" ">
<path fill="none" stroke="#63b8ff" d="M275.56,-286.95C426.08,-262.64 740.21,-203.78 989.25,-103 1040.25,-82.36 1096.62,-51.6 1128.81,-33.22"/>
<polygon fill="#63b8ff" stroke="#63b8ff" points="1130.52,-36.27 1137.44,-28.25 1127.03,-30.2 1130.52,-36.27"/>
</a>
</g>
</g>
<!-- Node5 -->
<g id="Node000005" class="node">
<title>Node5</title>
<g id="a_Node000005"><a xlink:href="sensor-base_8hpp.html" target="_top" xlink:title="Implements the base class of all sensors.">
<polygon fill="white" stroke="#666666" points="317.62,-242 162.88,-242 162.88,-208.5 317.62,-208.5 317.62,-242"/>
<text text-anchor="start" x="170.88" y="-228.5" font-family="Helvetica,sans-Serif" font-size="10.00">state&#45;observation/sensors</text>
<text text-anchor="middle" x="240.25" y="-215.75" font-family="Helvetica,sans-Serif" font-size="10.00">&#45;simulation/sensor&#45;base.hpp</text>
</a>
</g>
</g>
<!-- Node1&#45;&gt;Node5 -->
<g id="edge4_Node000001_Node000005" class="edge">
<title>Node1&#45;&gt;Node5</title>
<g id="a_edge4_Node000001_Node000005"><a xlink:title=" ">
<path fill="none" stroke="#63b8ff" d="M203.44,-277.56C209.3,-269.39 215.97,-260.1 221.99,-251.7"/>
<polygon fill="#63b8ff" stroke="#63b8ff" points="224.83,-253.75 227.81,-243.58 219.14,-249.67 224.83,-253.75"/>
</a>
</g>
</g>
<!-- Node5&#45;&gt;Node2 -->
<g id="edge5_Node000005_Node000002" class="edge">
<title>Node5&#45;&gt;Node2</title>
<g id="a_edge5_Node000005_Node000002"><a xlink:title=" ">
<path fill="none" stroke="#63b8ff" d="M238.45,-208.1C234.52,-178.53 223.13,-114.57 194.25,-69.5 185.38,-55.65 171.75,-43.35 159.83,-34.23"/>
<polygon fill="#63b8ff" stroke="#63b8ff" points="162.12,-31.57 151.98,-28.51 158,-37.23 162.12,-31.57"/>
</a>
</g>
</g>
<!-- Node5&#45;&gt;Node3 -->
<g id="edge6_Node000005_Node000003" class="edge">
<title>Node5&#45;&gt;Node3</title>
<g id="a_edge6_Node000005_Node000003"><a xlink:title=" ">
<path fill="none" stroke="#63b8ff" d="M224.09,-208.05C185.99,-169.86 90.85,-74.49 51.6,-35.14"/>
<polygon fill="#63b8ff" stroke="#63b8ff" points="54.31,-32.91 44.77,-28.3 49.36,-37.85 54.31,-32.91"/>
</a>
</g>
</g>
<!-- Node5&#45;&gt;Node4 -->
<g id="edge7_Node000005_Node000004" class="edge">
<title>Node5&#45;&gt;Node4</title>
<g id="a_edge7_Node000005_Node000004"><a xlink:title=" ">
<path fill="none" stroke="#63b8ff" d="M317.81,-220C407.23,-214 558.22,-200.5 685.25,-172.5 852.37,-135.67 1043.99,-62.46 1120.79,-31.78"/>
<polygon fill="#63b8ff" stroke="#63b8ff" points="1121.89,-35.11 1129.87,-28.14 1119.28,-28.62 1121.89,-35.11"/>
</a>
</g>
</g>
<!-- Node6 -->
<g id="Node000006" class="node">
<title>Node6</title>
<g id="a_Node000006"><a xlink:href="noise-base_8hpp.html" target="_top" xlink:title=" ">
<polygon fill="white" stroke="#666666" points="676,-172.5 544.5,-172.5 544.5,-139 676,-139 676,-172.5"/>
<text text-anchor="start" x="552.5" y="-159" font-family="Helvetica,sans-Serif" font-size="10.00">state&#45;observation/noise</text>
<text text-anchor="middle" x="610.25" y="-146.25" font-family="Helvetica,sans-Serif" font-size="10.00">/noise&#45;base.hpp</text>
</a>
</g>
</g>
<!-- Node5&#45;&gt;Node6 -->
<g id="edge8_Node000005_Node000006" class="edge">
<title>Node5&#45;&gt;Node6</title>
<g id="a_edge8_Node000005_Node000006"><a xlink:title=" ">
<path fill="none" stroke="#63b8ff" d="M317.81,-210.1C381.08,-198.56 470.01,-182.33 533.15,-170.82"/>
<polygon fill="#63b8ff" stroke="#63b8ff" points="533.54,-174.3 542.75,-169.06 532.28,-167.42 533.54,-174.3"/>
</a>
</g>
</g>
<!-- Node6&#45;&gt;Node4 -->
<g id="edge9_Node000006_Node000004" class="edge">
<title>Node6&#45;&gt;Node4</title>
<g id="a_edge9_Node000006_Node000004"><a xlink:title=" ">
<path fill="none" stroke="#63b8ff" d="M654.6,-138.56C707.16,-119.86 797.65,-89.14 877.25,-69.5 966.64,-47.45 990.88,-51.09 1081.25,-33.5 1087.13,-32.36 1093.27,-31.12 1099.38,-29.86"/>
<polygon fill="#63b8ff" stroke="#63b8ff" points="1099.74,-33.36 1108.82,-27.89 1098.31,-26.51 1099.74,-33.36"/>
</a>
</g>
</g>
<!-- Node7 -->
<g id="Node000007" class="node">
<title>Node7</title>
<g id="a_Node000007"><a xlink:href="definitions_8hpp.html" target="_top" xlink:title="Definitions of types and some structures.">
<polygon fill="white" stroke="#666666" points="674.88,-103 545.62,-103 545.62,-69.5 674.88,-69.5 674.88,-103"/>
<text text-anchor="start" x="553.62" y="-89.5" font-family="Helvetica,sans-Serif" font-size="10.00">state&#45;observation/tools</text>
<text text-anchor="middle" x="610.25" y="-76.75" font-family="Helvetica,sans-Serif" font-size="10.00">/definitions.hpp</text>
</a>
</g>
</g>
<!-- Node6&#45;&gt;Node7 -->
<g id="edge10_Node000006_Node000007" class="edge">
<title>Node6&#45;&gt;Node7</title>
<g id="a_edge10_Node000006_Node000007"><a xlink:title=" ">
<path fill="none" stroke="#63b8ff" d="M610.25,-138.75C610.25,-131.52 610.25,-122.78 610.25,-114.56"/>
<polygon fill="#63b8ff" stroke="#63b8ff" points="613.75,-114.65 610.25,-104.65 606.75,-114.65 613.75,-114.65"/>
</a>
</g>
</g>
<!-- Node7&#45;&gt;Node2 -->
<g id="edge15_Node000007_Node000002" class="edge">
<title>Node7&#45;&gt;Node2</title>
<g id="a_edge15_Node000007_Node000002"><a xlink:title=" ">
<path fill="none" stroke="#63b8ff" d="M545.33,-80.18C462.74,-73.05 315.96,-58.11 192.25,-33.5 187.84,-32.62 183.28,-31.59 178.74,-30.47"/>
<polygon fill="#63b8ff" stroke="#63b8ff" points="179.63,-27.09 169.07,-27.96 177.87,-33.86 179.63,-27.09"/>
</a>
</g>
</g>
<!-- Node7&#45;&gt;Node3 -->
<g id="edge17_Node000007_Node000003" class="edge">
<title>Node7&#45;&gt;Node3</title>
<g id="a_edge17_Node000007_Node000003"><a xlink:title=" ">
<path fill="none" stroke="#63b8ff" d="M545.41,-84.24C444.22,-81.49 243.14,-71.28 77.25,-33.5 74.3,-32.83 71.28,-32.01 68.27,-31.1"/>
<polygon fill="#63b8ff" stroke="#63b8ff" points="69.61,-27.86 59.02,-28 67.39,-34.49 69.61,-27.86"/>
</a>
</g>
</g>
<!-- Node7&#45;&gt;Node4 -->
<g id="edge20_Node000007_Node000004" class="edge">
<title>Node7&#45;&gt;Node4</title>
<g id="a_edge20_Node000007_Node000004"><a xlink:title=" ">
<path fill="none" stroke="#63b8ff" d="M675.25,-78.92C785.52,-68.05 1004.7,-45.82 1081.25,-33.5 1087.81,-32.44 1094.67,-31.19 1101.46,-29.86"/>
<polygon fill="#63b8ff" stroke="#63b8ff" points="1102.15,-33.29 1111.25,-27.86 1100.75,-26.43 1102.15,-33.29"/>
</a>
</g>
</g>
<!-- Node8 -->
<g id="Node000008" class="node">
<title>Node8</title>
<g id="a_Node000008"><a xlink:title=" ">
<polygon fill="#e0e0e0" stroke="#999999" points="609.75,-27.12 560.75,-27.12 560.75,-6.38 609.75,-6.38 609.75,-27.12"/>
<text text-anchor="middle" x="585.25" y="-13.62" font-family="Helvetica,sans-Serif" font-size="10.00">chrono</text>
</a>
</g>
</g>
<!-- Node7&#45;&gt;Node8 -->
<g id="edge11_Node000007_Node000008" class="edge">
<title>Node7&#45;&gt;Node8</title>
<g id="a_edge11_Node000007_Node000008"><a xlink:title=" ">
<path fill="none" stroke="#63b8ff" d="M604.33,-69.25C600.88,-59.95 596.5,-48.13 592.81,-38.16"/>
<polygon fill="#63b8ff" stroke="#63b8ff" points="596.17,-37.15 589.41,-28.99 589.6,-39.58 596.17,-37.15"/>
</a>
</g>
</g>
<!-- Node9 -->
<g id="Node000009" class="node">
<title>Node9</title>
<g id="a_Node000009"><a xlink:title=" ">
<polygon fill="#e0e0e0" stroke="#999999" points="674.25,-27.12 628.25,-27.12 628.25,-6.38 674.25,-6.38 674.25,-27.12"/>
<text text-anchor="middle" x="651.25" y="-13.62" font-family="Helvetica,sans-Serif" font-size="10.00">deque</text>
</a>
</g>
</g>
<!-- Node7&#45;&gt;Node9 -->
<g id="edge12_Node000007_Node000009" class="edge">
<title>Node7&#45;&gt;Node9</title>
<g id="a_edge12_Node000007_Node000009"><a xlink:title=" ">
<path fill="none" stroke="#63b8ff" d="M619.97,-69.25C625.8,-59.65 633.27,-47.36 639.44,-37.19"/>
<polygon fill="#63b8ff" stroke="#63b8ff" points="642.3,-39.23 644.5,-28.87 636.32,-35.6 642.3,-39.23"/>
</a>
</g>
</g>
<!-- Node10 -->
<g id="Node000010" class="node">
<title>Node10</title>
<g id="a_Node000010"><a xlink:title=" ">
<polygon fill="#e0e0e0" stroke="#999999" points="756.25,-27.12 692.25,-27.12 692.25,-6.38 756.25,-6.38 756.25,-27.12"/>
<text text-anchor="middle" x="724.25" y="-13.62" font-family="Helvetica,sans-Serif" font-size="10.00">stdexcept</text>
</a>
</g>
</g>
<!-- Node7&#45;&gt;Node10 -->
<g id="edge13_Node000007_Node000010" class="edge">
<title>Node7&#45;&gt;Node10</title>
<g id="a_edge13_Node000007_Node000010"><a xlink:title=" ">
<path fill="none" stroke="#63b8ff" d="M637.56,-69.08C655.84,-58.26 679.77,-44.09 697.86,-33.38"/>
<polygon fill="#63b8ff" stroke="#63b8ff" points="699.62,-36.4 706.45,-28.29 696.06,-30.38 699.62,-36.4"/>
</a>
</g>
</g>
<!-- Node11 -->
<g id="Node000011" class="node">
<title>Node11</title>
<g id="a_Node000011"><a xlink:title=" ">
<polygon fill="#e0e0e0" stroke="#999999" points="820.62,-27.12 773.88,-27.12 773.88,-6.38 820.62,-6.38 820.62,-27.12"/>
<text text-anchor="middle" x="797.25" y="-13.62" font-family="Helvetica,sans-Serif" font-size="10.00">vector</text>
</a>
</g>
</g>
<!-- Node7&#45;&gt;Node11 -->
<g id="edge14_Node000007_Node000011" class="edge">
<title>Node7&#45;&gt;Node11</title>
<g id="a_edge14_Node000007_Node000011"><a xlink:title=" ">
<path fill="none" stroke="#63b8ff" d="M664.71,-69.05C694.72,-59.63 732.45,-46.98 765.25,-33.5 766.2,-33.11 767.17,-32.7 768.13,-32.28"/>
<polygon fill="#63b8ff" stroke="#63b8ff" points="769.5,-35.51 777.12,-28.14 766.57,-29.15 769.5,-35.51"/>
</a>
</g>
</g>
<!-- Node12 -->
<g id="Node000012" class="node">
<title>Node12</title>
<g id="a_Node000012"><a xlink:title=" ">
<polygon fill="#e0e0e0" stroke="#999999" points="960.12,-27.12 838.38,-27.12 838.38,-6.38 960.12,-6.38 960.12,-27.12"/>
<text text-anchor="middle" x="899.25" y="-13.62" font-family="Helvetica,sans-Serif" font-size="10.00">boost/timer/timer.hpp</text>
</a>
</g>
</g>
<!-- Node7&#45;&gt;Node12 -->
<g id="edge16_Node000007_Node000012" class="edge">
<title>Node7&#45;&gt;Node12</title>
<g id="a_edge16_Node000007_Node000012"><a xlink:title=" ">
<path fill="none" stroke="#63b8ff" d="M675.11,-70.1C726.72,-58.05 798.05,-41.39 846.27,-30.12"/>
<polygon fill="#63b8ff" stroke="#63b8ff" points="846.98,-33.55 855.92,-27.87 845.39,-26.74 846.98,-33.55"/>
</a>
</g>
</g>
<!-- Node13 -->
<g id="Node000013" class="node">
<title>Node13</title>
<g id="a_Node000013"><a xlink:title=" ">
<polygon fill="#e0e0e0" stroke="#999999" points="1072.62,-27.12 977.88,-27.12 977.88,-6.38 1072.62,-6.38 1072.62,-27.12"/>
<text text-anchor="middle" x="1025.25" y="-13.62" font-family="Helvetica,sans-Serif" font-size="10.00">Eigen/Geometry</text>
</a>
</g>
</g>
<!-- Node7&#45;&gt;Node13 -->
<g id="edge18_Node000007_Node000013" class="edge">
<title>Node7&#45;&gt;Node13</title>
<g id="a_edge18_Node000007_Node000013"><a xlink:title=" ">
<path fill="none" stroke="#63b8ff" d="M675.23,-78.48C747.49,-70.35 867.45,-55.06 969.25,-33.5 973.52,-32.6 977.94,-31.55 982.34,-30.43"/>
<polygon fill="#63b8ff" stroke="#63b8ff" points="982.93,-33.9 991.69,-27.95 981.12,-27.13 982.93,-33.9"/>
</a>
</g>
</g>
<!-- Node14 -->
<g id="Node000014" class="node">
<title>Node14</title>
<g id="a_Node000014"><a xlink:title=" ">
<polygon fill="#e0e0e0" stroke="#999999" points="323.12,-33.5 201.38,-33.5 201.38,0 323.12,0 323.12,-33.5"/>
<text text-anchor="start" x="209.38" y="-20" font-family="Helvetica,sans-Serif" font-size="10.00">boost/math/constants</text>
<text text-anchor="middle" x="262.25" y="-7.25" font-family="Helvetica,sans-Serif" font-size="10.00">/constants.hpp</text>
</a>
</g>
</g>
<!-- Node7&#45;&gt;Node14 -->
<g id="edge19_Node000007_Node000014" class="edge">
<title>Node7&#45;&gt;Node14</title>
<g id="a_edge19_Node000007_Node000014"><a xlink:title=" ">
<path fill="none" stroke="#63b8ff" d="M545.24,-73.85C491.35,-64.25 412.46,-49.82 334.32,-33.89"/>
<polygon fill="#63b8ff" stroke="#63b8ff" points="335.29,-30.51 324.79,-31.93 333.88,-37.37 335.29,-30.51"/>
</a>
</g>
</g>
<!-- Node15 -->
<g id="Node000015" class="node">
<title>Node15</title>
<g id="a_Node000015"><a xlink:title=" ">
<polygon fill="#e0e0e0" stroke="#999999" points="395.38,-27.12 341.12,-27.12 341.12,-6.38 395.38,-6.38 395.38,-27.12"/>
<text text-anchor="middle" x="368.25" y="-13.62" font-family="Helvetica,sans-Serif" font-size="10.00">fstream</text>
</a>
</g>
</g>
<!-- Node7&#45;&gt;Node15 -->
<g id="edge21_Node000007_Node000015" class="edge">
<title>Node7&#45;&gt;Node15</title>
<g id="a_edge21_Node000007_Node000015"><a xlink:title=" ">
<path fill="none" stroke="#63b8ff" d="M545.42,-71.87C504.45,-62.71 450.66,-49.36 404.25,-33.5 402.68,-32.96 401.08,-32.38 399.47,-31.78"/>
<polygon fill="#63b8ff" stroke="#63b8ff" points="400.94,-28.6 390.36,-28.08 398.31,-35.08 400.94,-28.6"/>
</a>
</g>
</g>
<!-- Node16 -->
<g id="Node000016" class="node">
<title>Node16</title>
<g id="a_Node000016"><a xlink:title=" ">
<polygon fill="#e0e0e0" stroke="#999999" points="542.88,-33.5 413.62,-33.5 413.62,0 542.88,0 542.88,-33.5"/>
<text text-anchor="start" x="421.62" y="-20" font-family="Helvetica,sans-Serif" font-size="10.00">state&#45;observation/tools</text>
<text text-anchor="middle" x="478.25" y="-7.25" font-family="Helvetica,sans-Serif" font-size="10.00">/definitions.hxx</text>
</a>
</g>
</g>
<!-- Node7&#45;&gt;Node16 -->
<g id="edge22_Node000007_Node000016" class="edge">
<title>Node7&#45;&gt;Node16</title>
<g id="a_edge22_Node000007_Node000016"><a xlink:title=" ">
<path fill="none" stroke="#63b8ff" d="M578.63,-69.08C561,-60.07 538.82,-48.73 519.8,-39"/>
<polygon fill="#63b8ff" stroke="#63b8ff" points="521.45,-35.91 510.96,-34.48 518.27,-42.14 521.45,-35.91"/>
</a>
</g>
</g>
</g>
</svg>
