<?xml version="1.0" encoding="UTF-8" standalone="no"?>
<!DOCTYPE svg PUBLIC "-//W3C//DTD SVG 1.1//EN"
 "http://www.w3.org/Graphics/SVG/1.1/DTD/svg11.dtd">
<!-- Generated by graphviz version 12.2.1 (0)
 -->
<!-- Title: stateObservation::kine::internal::KinematicsInternal&lt; T &gt; Pages: 1 -->
<svg width="646pt" height="197pt"
 viewBox="0.00 0.00 646.25 196.67" xmlns="http://www.w3.org/2000/svg" xmlns:xlink="http://www.w3.org/1999/xlink">
<g id="graph0" class="graph" transform="scale(1 1) rotate(0) translate(4 192.67)">
<title>stateObservation::kine::internal::KinematicsInternal&lt; T &gt;</title>
<!-- Node1 -->
<g id="Node000001" class="node">
<title>Node1</title>
<g id="a_Node000001"><a xlink:title=" ">
<polygon fill="#999999" stroke="#666666" points="638.25,-100.88 452,-100.88 452,-67.38 638.25,-67.38 638.25,-100.88"/>
<text text-anchor="start" x="460" y="-87.38" font-family="Helvetica,sans-Serif" font-size="10.00">stateObservation::kine</text>
<text text-anchor="middle" x="545.12" y="-74.62" font-family="Helvetica,sans-Serif" font-size="10.00">::internal::KinematicsInternal&lt; T &gt;</text>
</a>
</g>
</g>
<!-- Node2 -->
<g id="Node000002" class="node">
<title>Node2</title>
<g id="a_Node000002"><a xlink:href="classstateObservation_1_1CheckedItem.html" target="_top" xlink:title=" ">
<polygon fill="white" stroke="#666666" points="356.75,-136.25 207.25,-136.25 207.25,-90 356.75,-90 356.75,-136.25"/>
<text text-anchor="start" x="215.25" y="-122.75" font-family="Helvetica,sans-Serif" font-size="10.00">stateObservation::Checked</text>
<text text-anchor="start" x="215.25" y="-110" font-family="Helvetica,sans-Serif" font-size="10.00">Item&lt; Vector3, false, false,</text>
<text text-anchor="middle" x="282" y="-97.25" font-family="Helvetica,sans-Serif" font-size="10.00"> true, true, CheckNaN &gt;</text>
</a>
</g>
</g>
<!-- Node2&#45;&gt;Node1 -->
<g id="edge1_Node000001_Node000002" class="edge">
<title>Node2&#45;&gt;Node1</title>
<g id="a_edge1_Node000001_Node000002"><a xlink:title=" ">
<path fill="none" stroke="#9a32cd" stroke-dasharray="5,2" d="M368.36,-103.64C395.02,-100.68 424.54,-97.41 451.65,-94.39"/>
<polygon fill="#9a32cd" stroke="#9a32cd" points="368.19,-100.14 358.63,-104.73 368.96,-107.1 368.19,-100.14"/>
</a>
</g>
<text text-anchor="start" x="384.88" y="-176.17" font-family="Helvetica,sans-Serif" font-size="10.00" fill="grey">angAcc</text>
<text text-anchor="start" x="384.88" y="-159.42" font-family="Helvetica,sans-Serif" font-size="10.00" fill="grey">angVel</text>
<text text-anchor="start" x="384.88" y="-142.67" font-family="Helvetica,sans-Serif" font-size="10.00" fill="grey">linAcc</text>
<text text-anchor="start" x="384.88" y="-125.92" font-family="Helvetica,sans-Serif" font-size="10.00" fill="grey">linVel</text>
<text text-anchor="start" x="384.88" y="-109.17" font-family="Helvetica,sans-Serif" font-size="10.00" fill="grey">position</text>
</g>
<!-- Node3 -->
<g id="Node000003" class="node">
<title>Node3</title>
<g id="a_Node000003"><a xlink:href="classstateObservation_1_1kine_1_1Orientation.html" target="_top" xlink:title=" ">
<polygon fill="white" stroke="#bfbfbf" points="345.5,-71.88 218.5,-71.88 218.5,-38.38 345.5,-38.38 345.5,-71.88"/>
<text text-anchor="start" x="226.5" y="-58.38" font-family="Helvetica,sans-Serif" font-size="10.00">stateObservation::kine</text>
<text text-anchor="middle" x="282" y="-45.62" font-family="Helvetica,sans-Serif" font-size="10.00">::Orientation</text>
</a>
</g>
</g>
<!-- Node3&#45;&gt;Node1 -->
<g id="edge2_Node000001_Node000003" class="edge">
<title>Node3&#45;&gt;Node1</title>
<g id="a_edge2_Node000001_Node000003"><a xlink:title=" ">
<path fill="none" stroke="#9a32cd" stroke-dasharray="5,2" d="M357.3,-63.38C386.67,-66.64 420.72,-70.42 451.65,-73.85"/>
<polygon fill="#9a32cd" stroke="#9a32cd" points="357.71,-59.9 347.38,-62.28 356.94,-66.86 357.71,-59.9"/>
</a>
</g>
<text text-anchor="start" x="377.75" y="-77.61" font-family="Helvetica,sans-Serif" font-size="10.00" fill="grey">orientation</text>
</g>
<!-- Node4 -->
<g id="Node000004" class="node">
<title>Node4</title>
<g id="a_Node000004"><a xlink:href="classstateObservation_1_1CheckedItem.html" target="_top" xlink:title=" ">
<polygon fill="white" stroke="#666666" points="148.75,-110.25 1.5,-110.25 1.5,-64 148.75,-64 148.75,-110.25"/>
<text text-anchor="start" x="9.5" y="-96.75" font-family="Helvetica,sans-Serif" font-size="10.00">stateObservation::Checked</text>
<text text-anchor="start" x="9.5" y="-84" font-family="Helvetica,sans-Serif" font-size="10.00">Item&lt; Quaternion, false,</text>
<text text-anchor="middle" x="75.12" y="-71.25" font-family="Helvetica,sans-Serif" font-size="10.00"> false, true, true &gt;</text>
</a>
</g>
</g>
<!-- Node4&#45;&gt;Node3 -->
<g id="edge3_Node000003_Node000004" class="edge">
<title>Node4&#45;&gt;Node3</title>
<g id="a_edge3_Node000003_Node000004"><a xlink:title=" ">
<path fill="none" stroke="#9a32cd" stroke-dasharray="5,2" d="M160.45,-73.95C179.74,-70.94 199.91,-67.79 218.11,-64.95"/>
<polygon fill="#9a32cd" stroke="#9a32cd" points="160.06,-70.47 150.72,-75.47 161.14,-77.39 160.06,-70.47"/>
</a>
</g>
<text text-anchor="start" x="173.12" y="-78.33" font-family="Helvetica,sans-Serif" font-size="10.00" fill="grey">q_</text>
</g>
<!-- Node5 -->
<g id="Node000005" class="node">
<title>Node5</title>
<g id="a_Node000005"><a xlink:href="classstateObservation_1_1CheckedItem.html" target="_top" xlink:title=" ">
<polygon fill="white" stroke="#666666" points="150.25,-46.25 0,-46.25 0,0 150.25,0 150.25,-46.25"/>
<text text-anchor="start" x="8" y="-32.75" font-family="Helvetica,sans-Serif" font-size="10.00">stateObservation::Checked</text>
<text text-anchor="start" x="8" y="-20" font-family="Helvetica,sans-Serif" font-size="10.00">Item&lt; Matrix3, false, false,</text>
<text text-anchor="middle" x="75.12" y="-7.25" font-family="Helvetica,sans-Serif" font-size="10.00"> true, true, CheckNaN &gt;</text>
</a>
</g>
</g>
<!-- Node5&#45;&gt;Node3 -->
<g id="edge4_Node000003_Node000005" class="edge">
<title>Node5&#45;&gt;Node3</title>
<g id="a_edge4_Node000003_Node000005"><a xlink:title=" ">
<path fill="none" stroke="#9a32cd" stroke-dasharray="5,2" d="M161.99,-36.54C180.88,-39.49 200.54,-42.56 218.31,-45.33"/>
<polygon fill="#9a32cd" stroke="#9a32cd" points="162.58,-33.09 152.16,-35 161.5,-40 162.58,-33.09"/>
</a>
</g>
<text text-anchor="start" x="171.25" y="-46.33" font-family="Helvetica,sans-Serif" font-size="10.00" fill="grey">m_</text>
</g>
</g>
</svg>
