<?xml version="1.0" encoding="UTF-8" standalone="no"?>
<!DOCTYPE svg PUBLIC "-//W3C//DTD SVG 1.1//EN"
 "http://www.w3.org/Graphics/SVG/1.1/DTD/svg11.dtd">
<!-- Generated by graphviz version 12.2.1 (0)
 -->
<!-- Title: stateObservation::StateVectorArithmetics Pages: 1 -->
<svg width="565pt" height="146pt"
 viewBox="0.00 0.00 565.25 145.50" xmlns="http://www.w3.org/2000/svg" xmlns:xlink="http://www.w3.org/1999/xlink">
<g id="graph0" class="graph" transform="scale(1 1) rotate(0) translate(4 141.5)">
<title>stateObservation::StateVectorArithmetics</title>
<!-- Node1 -->
<g id="Node000001" class="node">
<title>Node1</title>
<g id="a_Node000001"><a xlink:title="This class is used to customize the way the difference between measurements, the state update functio...">
<polygon fill="#999999" stroke="#666666" points="162.25,-85.5 0,-85.5 0,-52 162.25,-52 162.25,-85.5"/>
<text text-anchor="start" x="8" y="-72" font-family="Helvetica,sans-Serif" font-size="10.00">stateObservation::StateVector</text>
<text text-anchor="middle" x="81.12" y="-59.25" font-family="Helvetica,sans-Serif" font-size="10.00">Arithmetics</text>
</a>
</g>
</g>
<!-- Node2 -->
<g id="Node000002" class="node">
<title>Node2</title>
<g id="a_Node000002"><a xlink:href="classstateObservation_1_1IMUMltpctiveDynamicalSystem.html" target="_top" xlink:title="The class is an implementation of the dynamical system defined by an inertial measurement unit (IMU) ...">
<polygon fill="white" stroke="#666666" points="369.5,-137.5 198.25,-137.5 198.25,-104 369.5,-104 369.5,-137.5"/>
<text text-anchor="start" x="206.25" y="-124" font-family="Helvetica,sans-Serif" font-size="10.00">stateObservation::IMUMltpctive</text>
<text text-anchor="middle" x="283.88" y="-111.25" font-family="Helvetica,sans-Serif" font-size="10.00">DynamicalSystem</text>
</a>
</g>
</g>
<!-- Node1&#45;&gt;Node2 -->
<g id="edge1_Node000001_Node000002" class="edge">
<title>Node1&#45;&gt;Node2</title>
<g id="a_edge1_Node000001_Node000002"><a xlink:title=" ">
<path fill="none" stroke="#63b8ff" d="M159.6,-88.82C178.37,-93.68 198.28,-98.84 216.49,-103.55"/>
<polygon fill="#63b8ff" stroke="#63b8ff" points="160.72,-85.49 150.16,-86.37 158.96,-92.27 160.72,-85.49"/>
</a>
</g>
</g>
<!-- Node3 -->
<g id="Node000003" class="node">
<title>Node3</title>
<g id="a_Node000003"><a xlink:href="classstateObservation_1_1KalmanFilterBase.html" target="_top" xlink:title="It mostly implements the equations of Kalman filtering It is suitablle by derivation to be used incas...">
<polygon fill="white" stroke="#666666" points="355.62,-85.5 212.12,-85.5 212.12,-52 355.62,-52 355.62,-85.5"/>
<text text-anchor="start" x="220.12" y="-72" font-family="Helvetica,sans-Serif" font-size="10.00">stateObservation::Kalman</text>
<text text-anchor="middle" x="283.88" y="-59.25" font-family="Helvetica,sans-Serif" font-size="10.00">FilterBase</text>
</a>
</g>
</g>
<!-- Node1&#45;&gt;Node3 -->
<g id="edge2_Node000001_Node000003" class="edge">
<title>Node1&#45;&gt;Node3</title>
<g id="a_edge2_Node000001_Node000003"><a xlink:title=" ">
<path fill="none" stroke="darkgreen" d="M173.76,-68.75C186.51,-68.75 199.46,-68.75 211.76,-68.75"/>
<polygon fill="darkgreen" stroke="darkgreen" points="174.13,-65.25 164.13,-68.75 174.13,-72.25 174.13,-65.25"/>
</a>
</g>
</g>
<!-- Node6 -->
<g id="Node000006" class="node">
<title>Node6</title>
<g id="a_Node000006"><a xlink:href="classstateObservation_1_1KineticsObserver.html" target="_top" xlink:title="This observer estimates the kinematics, the external forces, the bias on the gyrometers measurements,...">
<polygon fill="white" stroke="#666666" points="356.38,-33.5 211.38,-33.5 211.38,0 356.38,0 356.38,-33.5"/>
<text text-anchor="start" x="219.38" y="-20" font-family="Helvetica,sans-Serif" font-size="10.00">stateObservation::Kinetics</text>
<text text-anchor="middle" x="283.88" y="-7.25" font-family="Helvetica,sans-Serif" font-size="10.00">Observer</text>
</a>
</g>
</g>
<!-- Node1&#45;&gt;Node6 -->
<g id="edge5_Node000001_Node000006" class="edge">
<title>Node1&#45;&gt;Node6</title>
<g id="a_edge5_Node000001_Node000006"><a xlink:title=" ">
<path fill="none" stroke="darkgreen" d="M159.6,-48.68C178.37,-43.82 198.28,-38.66 216.49,-33.95"/>
<polygon fill="darkgreen" stroke="darkgreen" points="158.96,-45.23 150.16,-51.13 160.72,-52.01 158.96,-45.23"/>
</a>
</g>
</g>
<!-- Node4 -->
<g id="Node000004" class="node">
<title>Node4</title>
<g id="a_Node000004"><a xlink:href="classstateObservation_1_1ExtendedKalmanFilter.html" target="_top" xlink:title=" ">
<polygon fill="white" stroke="#666666" points="557.25,-111.5 405.5,-111.5 405.5,-78 557.25,-78 557.25,-111.5"/>
<text text-anchor="start" x="413.5" y="-98" font-family="Helvetica,sans-Serif" font-size="10.00">stateObservation::Extended</text>
<text text-anchor="middle" x="481.38" y="-85.25" font-family="Helvetica,sans-Serif" font-size="10.00">KalmanFilter</text>
</a>
</g>
</g>
<!-- Node3&#45;&gt;Node4 -->
<g id="edge3_Node000003_Node000004" class="edge">
<title>Node3&#45;&gt;Node4</title>
<g id="a_edge3_Node000003_Node000004"><a xlink:title=" ">
<path fill="none" stroke="#63b8ff" d="M367.36,-79.72C379.85,-81.38 392.68,-83.09 405.01,-84.73"/>
<polygon fill="#63b8ff" stroke="#63b8ff" points="367.88,-76.26 357.51,-78.41 366.96,-83.2 367.88,-76.26"/>
</a>
</g>
</g>
<!-- Node5 -->
<g id="Node000005" class="node">
<title>Node5</title>
<g id="a_Node000005"><a xlink:href="classstateObservation_1_1LinearKalmanFilter.html" target="_top" xlink:title="The class of a Linear Kalman filter.">
<polygon fill="white" stroke="#666666" points="549.38,-59.5 413.38,-59.5 413.38,-26 549.38,-26 549.38,-59.5"/>
<text text-anchor="start" x="421.38" y="-46" font-family="Helvetica,sans-Serif" font-size="10.00">stateObservation::Linear</text>
<text text-anchor="middle" x="481.38" y="-33.25" font-family="Helvetica,sans-Serif" font-size="10.00">KalmanFilter</text>
</a>
</g>
</g>
<!-- Node3&#45;&gt;Node5 -->
<g id="edge4_Node000003_Node000005" class="edge">
<title>Node3&#45;&gt;Node5</title>
<g id="a_edge4_Node000003_Node000005"><a xlink:title=" ">
<path fill="none" stroke="#63b8ff" d="M367.02,-57.83C382.3,-55.79 398.1,-53.69 412.88,-51.73"/>
<polygon fill="#63b8ff" stroke="#63b8ff" points="366.96,-54.3 357.51,-59.09 367.88,-61.24 366.96,-54.3"/>
</a>
</g>
</g>
</g>
</svg>
