<?xml version="1.0" encoding="UTF-8" standalone="no"?>
<!DOCTYPE svg PUBLIC "-//W3C//DTD SVG 1.1//EN"
 "http://www.w3.org/Graphics/SVG/1.1/DTD/svg11.dtd">
<!-- Generated by graphviz version 12.2.1 (0)
 -->
<!-- Title: stateObservation::IMUDynamicalSystem Pages: 1 -->
<svg width="1064pt" height="244pt"
 viewBox="0.00 0.00 1064.25 243.50" xmlns="http://www.w3.org/2000/svg" xmlns:xlink="http://www.w3.org/1999/xlink">
<g id="graph0" class="graph" transform="scale(1 1) rotate(0) translate(4 239.5)">
<title>stateObservation::IMUDynamicalSystem</title>
<!-- Node1 -->
<g id="Node000001" class="node">
<title>Node1</title>
<g id="a_Node000001"><a xlink:title="The class is an implementation of the dynamical system defined by an inertial measurement unit (IMU) ...">
<polygon fill="#999999" stroke="#666666" points="1056.25,-190.5 878.25,-190.5 878.25,-157 1056.25,-157 1056.25,-190.5"/>
<text text-anchor="start" x="886.25" y="-177" font-family="Helvetica,sans-Serif" font-size="10.00">stateObservation::IMUDynamical</text>
<text text-anchor="middle" x="967.25" y="-164.25" font-family="Helvetica,sans-Serif" font-size="10.00">System</text>
</a>
</g>
</g>
<!-- Node2 -->
<g id="Node000002" class="node">
<title>Node2</title>
<g id="a_Node000002"><a xlink:href="classstateObservation_1_1DynamicalSystemFunctorBase.html" target="_top" xlink:title="This is the base class of any functor that describes the dynamics of the state and the measurement....">
<polygon fill="white" stroke="#666666" points="789.38,-235.5 630.88,-235.5 630.88,-202 789.38,-202 789.38,-235.5"/>
<text text-anchor="start" x="638.88" y="-222" font-family="Helvetica,sans-Serif" font-size="10.00">stateObservation::Dynamical</text>
<text text-anchor="middle" x="710.12" y="-209.25" font-family="Helvetica,sans-Serif" font-size="10.00">SystemFunctorBase</text>
</a>
</g>
</g>
<!-- Node2&#45;&gt;Node1 -->
<g id="edge1_Node000001_Node000002" class="edge">
<title>Node2&#45;&gt;Node1</title>
<g id="a_edge1_Node000001_Node000002"><a xlink:title=" ">
<path fill="none" stroke="#63b8ff" d="M801.07,-202.88C826.08,-198.47 853.19,-193.69 878.09,-189.3"/>
<polygon fill="#63b8ff" stroke="#63b8ff" points="800.48,-199.43 791.24,-204.62 801.7,-206.33 800.48,-199.43"/>
</a>
</g>
</g>
<!-- Node3 -->
<g id="Node000003" class="node">
<title>Node3</title>
<g id="a_Node000003"><a xlink:href="classstateObservation_1_1AccelerometerGyrometer.html" target="_top" xlink:title="Implements the accelerometer&#45;gyrometer measurements.">
<polygon fill="white" stroke="#666666" points="798.75,-105.5 621.5,-105.5 621.5,-72 798.75,-72 798.75,-105.5"/>
<text text-anchor="start" x="629.5" y="-92" font-family="Helvetica,sans-Serif" font-size="10.00">stateObservation::Accelerometer</text>
<text text-anchor="middle" x="710.12" y="-79.25" font-family="Helvetica,sans-Serif" font-size="10.00">Gyrometer</text>
</a>
</g>
</g>
<!-- Node3&#45;&gt;Node1 -->
<g id="edge2_Node000001_Node000003" class="edge">
<title>Node3&#45;&gt;Node1</title>
<g id="a_edge2_Node000001_Node000003"><a xlink:title=" ">
<path fill="none" stroke="#9a32cd" stroke-dasharray="5,2" d="M773.46,-109.52C816.81,-123.96 873.91,-142.99 914.7,-156.57"/>
<polygon fill="#9a32cd" stroke="#9a32cd" points="774.78,-106.27 764.19,-106.43 772.57,-112.91 774.78,-106.27"/>
</a>
</g>
<text text-anchor="start" x="819.75" y="-142.59" font-family="Helvetica,sans-Serif" font-size="10.00" fill="grey">sensor_</text>
</g>
<!-- Node4 -->
<g id="Node000004" class="node">
<title>Node4</title>
<g id="a_Node000004"><a xlink:href="classstateObservation_1_1AlgebraicSensor.html" target="_top" xlink:title="The base class for algebraic sensors. Algebraic sensors are sensors which depend only on the state va...">
<polygon fill="white" stroke="#666666" points="583.75,-137.5 432,-137.5 432,-104 583.75,-104 583.75,-137.5"/>
<text text-anchor="start" x="440" y="-124" font-family="Helvetica,sans-Serif" font-size="10.00">stateObservation::Algebraic</text>
<text text-anchor="middle" x="507.88" y="-111.25" font-family="Helvetica,sans-Serif" font-size="10.00">Sensor</text>
</a>
</g>
</g>
<!-- Node4&#45;&gt;Node3 -->
<g id="edge3_Node000003_Node000004" class="edge">
<title>Node4&#45;&gt;Node3</title>
<g id="a_edge3_Node000003_Node000004"><a xlink:title=" ">
<path fill="none" stroke="#63b8ff" d="M595.19,-106.96C603.77,-105.59 612.49,-104.19 621.09,-102.82"/>
<polygon fill="#63b8ff" stroke="#63b8ff" points="594.83,-103.47 585.51,-108.5 595.93,-110.38 594.83,-103.47"/>
</a>
</g>
</g>
<!-- Node5 -->
<g id="Node000005" class="node">
<title>Node5</title>
<g id="a_Node000005"><a xlink:href="classstateObservation_1_1SensorBase.html" target="_top" xlink:title="The base class for sensors. This must be derived to implement a sensor.">
<polygon fill="white" stroke="#666666" points="394.25,-142.12 231.25,-142.12 231.25,-121.38 394.25,-121.38 394.25,-142.12"/>
<text text-anchor="middle" x="312.75" y="-128.62" font-family="Helvetica,sans-Serif" font-size="10.00">stateObservation::SensorBase</text>
</a>
</g>
</g>
<!-- Node5&#45;&gt;Node4 -->
<g id="edge4_Node000004_Node000005" class="edge">
<title>Node5&#45;&gt;Node4</title>
<g id="a_edge4_Node000004_Node000005"><a xlink:title=" ">
<path fill="none" stroke="#63b8ff" d="M405.85,-126.5C414.5,-126.01 423.19,-125.52 431.66,-125.03"/>
<polygon fill="#63b8ff" stroke="#63b8ff" points="405.83,-123 396.04,-127.06 406.23,-129.99 405.83,-123"/>
</a>
</g>
</g>
<!-- Node6 -->
<g id="Node000006" class="node">
<title>Node6</title>
<g id="a_Node000006"><a xlink:href="classstateObservation_1_1NoiseBase.html" target="_top" xlink:title=" ">
<polygon fill="white" stroke="#bfbfbf" points="157.75,-163.12 0,-163.12 0,-142.38 157.75,-142.38 157.75,-163.12"/>
<text text-anchor="middle" x="78.88" y="-149.62" font-family="Helvetica,sans-Serif" font-size="10.00">stateObservation::NoiseBase</text>
</a>
</g>
</g>
<!-- Node6&#45;&gt;Node1 -->
<g id="edge8_Node000001_Node000006" class="edge">
<title>Node6&#45;&gt;Node1</title>
<g id="a_edge8_Node000001_Node000006"><a xlink:title=" ">
<path fill="none" stroke="#9a32cd" stroke-dasharray="5,2" d="M169.36,-164.65C212.33,-169.39 264.63,-173.75 311.75,-173.75 311.75,-173.75 311.75,-173.75 711.12,-173.75 766.6,-173.75 828.86,-173.75 877.99,-173.75"/>
<polygon fill="#9a32cd" stroke="#9a32cd" points="169.9,-161.19 159.57,-163.54 169.11,-168.15 169.9,-161.19"/>
</a>
</g>
<text text-anchor="start" x="472.62" y="-180" font-family="Helvetica,sans-Serif" font-size="10.00" fill="grey">processNoise_</text>
</g>
<!-- Node6&#45;&gt;Node5 -->
<g id="edge5_Node000005_Node000006" class="edge">
<title>Node6&#45;&gt;Node5</title>
<g id="a_edge5_Node000005_Node000006"><a xlink:title=" ">
<path fill="none" stroke="#9a32cd" stroke-dasharray="5,2" d="M169.47,-141.62C171.59,-141.4 173.68,-141.2 175.75,-141 193.54,-139.31 212.66,-137.81 230.79,-136.54"/>
<polygon fill="#9a32cd" stroke="#9a32cd" points="169.15,-138.13 159.57,-142.66 169.88,-145.09 169.15,-138.13"/>
</a>
</g>
<text text-anchor="start" x="178.75" y="-147.25" font-family="Helvetica,sans-Serif" font-size="10.00" fill="grey">noise_</text>
</g>
<!-- Node7 -->
<g id="Node000007" class="node">
<title>Node7</title>
<g id="a_Node000007"><a xlink:href="classstateObservation_1_1algorithm_1_1LinearAcceleration.html" target="_top" xlink:title="Implements the measurements given by an accelerometer.">
<polygon fill="white" stroke="#666666" points="584.5,-85.5 431.25,-85.5 431.25,-52 584.5,-52 584.5,-85.5"/>
<text text-anchor="start" x="439.25" y="-72" font-family="Helvetica,sans-Serif" font-size="10.00">stateObservation::algorithm</text>
<text text-anchor="middle" x="507.88" y="-59.25" font-family="Helvetica,sans-Serif" font-size="10.00">::LinearAcceleration</text>
</a>
</g>
</g>
<!-- Node7&#45;&gt;Node3 -->
<g id="edge6_Node000003_Node000007" class="edge">
<title>Node7&#45;&gt;Node3</title>
<g id="a_edge6_Node000003_Node000007"><a xlink:title=" ">
<path fill="none" stroke="darkgreen" d="M596.08,-77.46C604.38,-78.29 612.8,-79.13 621.1,-79.96"/>
<polygon fill="darkgreen" stroke="darkgreen" points="596.67,-74 586.37,-76.49 595.98,-80.97 596.67,-74"/>
</a>
</g>
</g>
<!-- Node8 -->
<g id="Node000008" class="node">
<title>Node8</title>
<g id="a_Node000008"><a xlink:href="classstateObservation_1_1algorithm_1_1RotationVelocity.html" target="_top" xlink:title="Implements the gyrometer measurement algorithm.">
<polygon fill="white" stroke="#666666" points="584.5,-33.5 431.25,-33.5 431.25,0 584.5,0 584.5,-33.5"/>
<text text-anchor="start" x="439.25" y="-20" font-family="Helvetica,sans-Serif" font-size="10.00">stateObservation::algorithm</text>
<text text-anchor="middle" x="507.88" y="-7.25" font-family="Helvetica,sans-Serif" font-size="10.00">::RotationVelocity</text>
</a>
</g>
</g>
<!-- Node8&#45;&gt;Node3 -->
<g id="edge7_Node000003_Node000008" class="edge">
<title>Node8&#45;&gt;Node3</title>
<g id="a_edge7_Node000003_Node000008"><a xlink:title=" ">
<path fill="none" stroke="darkgreen" d="M570.07,-37.66C574.95,-39.37 579.81,-41.08 584.5,-42.75 610.68,-52.08 639.82,-62.82 663.34,-71.57"/>
<polygon fill="darkgreen" stroke="darkgreen" points="571.4,-34.41 560.8,-34.43 569.1,-41.02 571.4,-34.41"/>
</a>
</g>
</g>
</g>
</svg>
