<?xml version="1.0" encoding="UTF-8" standalone="no"?>
<!DOCTYPE svg PUBLIC "-//W3C//DTD SVG 1.1//EN"
 "http://www.w3.org/Graphics/SVG/1.1/DTD/svg11.dtd">
<!-- Generated by graphviz version 12.2.1 (0)
 -->
<!-- Title: stateObservation::ObserverBase Pages: 1 -->
<svg width="785pt" height="146pt"
 viewBox="0.00 0.00 785.25 145.50" xmlns="http://www.w3.org/2000/svg" xmlns:xlink="http://www.w3.org/1999/xlink">
<g id="graph0" class="graph" transform="scale(1 1) rotate(0) translate(4 141.5)">
<title>stateObservation::ObserverBase</title>
<!-- Node1 -->
<g id="Node000001" class="node">
<title>Node1</title>
<g id="a_Node000001"><a xlink:title="The base class for observers. The observer is destinated to any dynamical system with a vector state ...">
<polygon fill="#999999" stroke="#666666" points="174.25,-53.12 0,-53.12 0,-32.38 174.25,-32.38 174.25,-53.12"/>
<text text-anchor="middle" x="87.12" y="-39.62" font-family="Helvetica,sans-Serif" font-size="10.00">stateObservation::ObserverBase</text>
</a>
</g>
</g>
<!-- Node2 -->
<g id="Node000002" class="node">
<title>Node2</title>
<g id="a_Node000002"><a xlink:href="classstateObservation_1_1ZeroDelayObserver.html" target="_top" xlink:title="Defines the base class of online zero delay observers. Zero delay observers are the classical state o...">
<polygon fill="white" stroke="#666666" points="367.25,-59.5 210.25,-59.5 210.25,-26 367.25,-26 367.25,-59.5"/>
<text text-anchor="start" x="218.25" y="-46" font-family="Helvetica,sans-Serif" font-size="10.00">stateObservation::ZeroDelay</text>
<text text-anchor="middle" x="288.75" y="-33.25" font-family="Helvetica,sans-Serif" font-size="10.00">Observer</text>
</a>
</g>
</g>
<!-- Node1&#45;&gt;Node2 -->
<g id="edge1_Node000001_Node000002" class="edge">
<title>Node1&#45;&gt;Node2</title>
<g id="a_edge1_Node000001_Node000002"><a xlink:title=" ">
<path fill="none" stroke="#63b8ff" d="M185.92,-42.75C194,-42.75 202.11,-42.75 210.02,-42.75"/>
<polygon fill="#63b8ff" stroke="#63b8ff" points="186.04,-39.25 176.04,-42.75 186.04,-46.25 186.04,-39.25"/>
</a>
</g>
</g>
<!-- Node3 -->
<g id="Node000003" class="node">
<title>Node3</title>
<g id="a_Node000003"><a xlink:href="classstateObservation_1_1KalmanFilterBase.html" target="_top" xlink:title="It mostly implements the equations of Kalman filtering It is suitablle by derivation to be used incas...">
<polygon fill="white" stroke="#666666" points="559.5,-85.5 416,-85.5 416,-52 559.5,-52 559.5,-85.5"/>
<text text-anchor="start" x="424" y="-72" font-family="Helvetica,sans-Serif" font-size="10.00">stateObservation::Kalman</text>
<text text-anchor="middle" x="487.75" y="-59.25" font-family="Helvetica,sans-Serif" font-size="10.00">FilterBase</text>
</a>
</g>
</g>
<!-- Node2&#45;&gt;Node3 -->
<g id="edge2_Node000002_Node000003" class="edge">
<title>Node2&#45;&gt;Node3</title>
<g id="a_edge2_Node000002_Node000003"><a xlink:title=" ">
<path fill="none" stroke="#63b8ff" d="M378.83,-54.51C391.12,-56.13 403.62,-57.78 415.54,-59.35"/>
<polygon fill="#63b8ff" stroke="#63b8ff" points="379.48,-51.06 369.11,-53.22 378.57,-58 379.48,-51.06"/>
</a>
</g>
</g>
<!-- Node6 -->
<g id="Node000006" class="node">
<title>Node6</title>
<g id="a_Node000006"><a xlink:href="classstateObservation_1_1TiltEstimator.html" target="_top" xlink:title="Description is pending.">
<polygon fill="white" stroke="#666666" points="572.25,-31.12 403.25,-31.12 403.25,-10.38 572.25,-10.38 572.25,-31.12"/>
<text text-anchor="middle" x="487.75" y="-17.62" font-family="Helvetica,sans-Serif" font-size="10.00">stateObservation::TiltEstimator</text>
</a>
</g>
</g>
<!-- Node2&#45;&gt;Node6 -->
<g id="edge5_Node000002_Node000006" class="edge">
<title>Node2&#45;&gt;Node6</title>
<g id="a_edge5_Node000002_Node000006"><a xlink:title=" ">
<path fill="none" stroke="#63b8ff" d="M378.87,-32.8C386.89,-31.9 395,-31 402.97,-30.11"/>
<polygon fill="#63b8ff" stroke="#63b8ff" points="378.66,-29.3 369.11,-33.89 379.44,-36.26 378.66,-29.3"/>
</a>
</g>
</g>
<!-- Node4 -->
<g id="Node000004" class="node">
<title>Node4</title>
<g id="a_Node000004"><a xlink:href="classstateObservation_1_1ExtendedKalmanFilter.html" target="_top" xlink:title=" ">
<polygon fill="white" stroke="#666666" points="768.62,-137.5 616.88,-137.5 616.88,-104 768.62,-104 768.62,-137.5"/>
<text text-anchor="start" x="624.88" y="-124" font-family="Helvetica,sans-Serif" font-size="10.00">stateObservation::Extended</text>
<text text-anchor="middle" x="692.75" y="-111.25" font-family="Helvetica,sans-Serif" font-size="10.00">KalmanFilter</text>
</a>
</g>
</g>
<!-- Node3&#45;&gt;Node4 -->
<g id="edge3_Node000003_Node000004" class="edge">
<title>Node3&#45;&gt;Node4</title>
<g id="a_edge3_Node000003_Node000004"><a xlink:title=" ">
<path fill="none" stroke="#63b8ff" d="M567.09,-88.82C586.07,-93.68 606.2,-98.84 624.62,-103.55"/>
<polygon fill="#63b8ff" stroke="#63b8ff" points="568.09,-85.46 557.53,-86.37 566.35,-92.24 568.09,-85.46"/>
</a>
</g>
</g>
<!-- Node5 -->
<g id="Node000005" class="node">
<title>Node5</title>
<g id="a_Node000005"><a xlink:href="classstateObservation_1_1LinearKalmanFilter.html" target="_top" xlink:title="The class of a Linear Kalman filter.">
<polygon fill="white" stroke="#666666" points="760.75,-85.5 624.75,-85.5 624.75,-52 760.75,-52 760.75,-85.5"/>
<text text-anchor="start" x="632.75" y="-72" font-family="Helvetica,sans-Serif" font-size="10.00">stateObservation::Linear</text>
<text text-anchor="middle" x="692.75" y="-59.25" font-family="Helvetica,sans-Serif" font-size="10.00">KalmanFilter</text>
</a>
</g>
</g>
<!-- Node3&#45;&gt;Node5 -->
<g id="edge4_Node000003_Node000005" class="edge">
<title>Node3&#45;&gt;Node5</title>
<g id="a_edge4_Node000003_Node000005"><a xlink:title=" ">
<path fill="none" stroke="#63b8ff" d="M571.25,-68.75C588.97,-68.75 607.49,-68.75 624.54,-68.75"/>
<polygon fill="#63b8ff" stroke="#63b8ff" points="571.26,-65.25 561.26,-68.75 571.26,-72.25 571.26,-65.25"/>
</a>
</g>
</g>
<!-- Node7 -->
<g id="Node000007" class="node">
<title>Node7</title>
<g id="a_Node000007"><a xlink:href="classstateObservation_1_1TiltEstimatorHumanoid.html" target="_top" xlink:title="Version of the Tilt Estimator for humanoid robots.">
<polygon fill="white" stroke="#666666" points="777.25,-33.5 608.25,-33.5 608.25,0 777.25,0 777.25,-33.5"/>
<text text-anchor="start" x="616.25" y="-20" font-family="Helvetica,sans-Serif" font-size="10.00">stateObservation::TiltEstimator</text>
<text text-anchor="middle" x="692.75" y="-7.25" font-family="Helvetica,sans-Serif" font-size="10.00">Humanoid</text>
</a>
</g>
</g>
<!-- Node6&#45;&gt;Node7 -->
<g id="edge6_Node000006_Node000007" class="edge">
<title>Node6&#45;&gt;Node7</title>
<g id="a_edge6_Node000006_Node000007"><a xlink:title=" ">
<path fill="none" stroke="#63b8ff" d="M583.8,-18.88C591.84,-18.72 599.93,-18.56 607.87,-18.4"/>
<polygon fill="#63b8ff" stroke="#63b8ff" points="583.93,-15.37 574,-19.07 584.07,-22.37 583.93,-15.37"/>
</a>
</g>
</g>
</g>
</svg>
