<?xml version="1.0" encoding="UTF-8" standalone="no"?>
<!DOCTYPE svg PUBLIC "-//W3C//DTD SVG 1.1//EN"
 "http://www.w3.org/Graphics/SVG/1.1/DTD/svg11.dtd">
<!-- Generated by graphviz version 12.2.1 (0)
 -->
<!-- Title: stateObservation::flexibilityEstimation::ModelBaseEKFFlexEstimatorIMU Pages: 1 -->
<svg width="2024pt" height="482pt"
 viewBox="0.00 0.00 2023.75 481.72" xmlns="http://www.w3.org/2000/svg" xmlns:xlink="http://www.w3.org/1999/xlink">
<g id="graph0" class="graph" transform="scale(1 1) rotate(0) translate(4 477.72)">
<title>stateObservation::flexibilityEstimation::ModelBaseEKFFlexEstimatorIMU</title>
<!-- Node1 -->
<g id="Node000001" class="node">
<title>Node1</title>
<g id="a_Node000001"><a xlink:title="This class implements the flexibility estimation of a robot with the hypothesis that the contact posi...">
<polygon fill="#999999" stroke="#666666" points="2015.75,-172.5 1780.75,-172.5 1780.75,-139 2015.75,-139 2015.75,-172.5"/>
<text text-anchor="start" x="1788.75" y="-159" font-family="Helvetica,sans-Serif" font-size="10.00">stateObservation::flexibility</text>
<text text-anchor="middle" x="1898.25" y="-146.25" font-family="Helvetica,sans-Serif" font-size="10.00">Estimation::ModelBaseEKFFlexEstimatorIMU</text>
</a>
</g>
</g>
<!-- Node2 -->
<g id="Node000002" class="node">
<title>Node2</title>
<g id="a_Node000002"><a xlink:href="classstateObservation_1_1flexibilityEstimation_1_1EKFFlexibilityEstimatorBase.html" target="_top" xlink:title="This class is the base class of the flexibility estimators that use an extended Kalman Filter....">
<polygon fill="white" stroke="#666666" points="1720.38,-251.5 1507.12,-251.5 1507.12,-218 1720.38,-218 1720.38,-251.5"/>
<text text-anchor="start" x="1515.12" y="-238" font-family="Helvetica,sans-Serif" font-size="10.00">stateObservation::flexibility</text>
<text text-anchor="middle" x="1613.75" y="-225.25" font-family="Helvetica,sans-Serif" font-size="10.00">Estimation::EKFFlexibilityEstimatorBase</text>
</a>
</g>
</g>
<!-- Node2&#45;&gt;Node1 -->
<g id="edge1_Node000001_Node000002" class="edge">
<title>Node2&#45;&gt;Node1</title>
<g id="a_edge1_Node000001_Node000002"><a xlink:title=" ">
<path fill="none" stroke="#63b8ff" d="M1687.48,-214.41C1733.42,-201.56 1792.12,-185.15 1835.73,-172.95"/>
<polygon fill="#63b8ff" stroke="#63b8ff" points="1686.54,-211.04 1677.85,-217.1 1688.43,-217.78 1686.54,-211.04"/>
</a>
</g>
</g>
<!-- Node3 -->
<g id="Node000003" class="node">
<title>Node3</title>
<g id="a_Node000003"><a xlink:href="classstateObservation_1_1flexibilityEstimation_1_1FlexibilityEstimatorBase.html" target="_top" xlink:title="This class is the base class of the flexibility estimators.">
<polygon fill="white" stroke="#666666" points="1443,-251.5 1248.5,-251.5 1248.5,-218 1443,-218 1443,-251.5"/>
<text text-anchor="start" x="1256.5" y="-238" font-family="Helvetica,sans-Serif" font-size="10.00">stateObservation::flexibility</text>
<text text-anchor="middle" x="1345.75" y="-225.25" font-family="Helvetica,sans-Serif" font-size="10.00">Estimation::FlexibilityEstimatorBase</text>
</a>
</g>
</g>
<!-- Node3&#45;&gt;Node2 -->
<g id="edge2_Node000002_Node000003" class="edge">
<title>Node3&#45;&gt;Node2</title>
<g id="a_edge2_Node000002_Node000003"><a xlink:title=" ">
<path fill="none" stroke="#63b8ff" d="M1454.41,-234.75C1471.68,-234.75 1489.54,-234.75 1506.78,-234.75"/>
<polygon fill="#63b8ff" stroke="#63b8ff" points="1454.67,-231.25 1444.67,-234.75 1454.67,-238.25 1454.67,-231.25"/>
</a>
</g>
</g>
<!-- Node4 -->
<g id="Node000004" class="node">
<title>Node4</title>
<g id="a_Node000004"><a xlink:href="classstateObservation_1_1ExtendedKalmanFilter.html" target="_top" xlink:title=" ">
<polygon fill="white" stroke="#666666" points="1421.62,-303.5 1269.88,-303.5 1269.88,-270 1421.62,-270 1421.62,-303.5"/>
<text text-anchor="start" x="1277.88" y="-290" font-family="Helvetica,sans-Serif" font-size="10.00">stateObservation::Extended</text>
<text text-anchor="middle" x="1345.75" y="-277.25" font-family="Helvetica,sans-Serif" font-size="10.00">KalmanFilter</text>
</a>
</g>
</g>
<!-- Node4&#45;&gt;Node2 -->
<g id="edge3_Node000002_Node000004" class="edge">
<title>Node4&#45;&gt;Node2</title>
<g id="a_edge3_Node000002_Node000004"><a xlink:title=" ">
<path fill="none" stroke="#9a32cd" stroke-dasharray="5,2" d="M1432.97,-269.9C1462.3,-264.16 1495.12,-257.75 1524.6,-251.98"/>
<polygon fill="#9a32cd" stroke="#9a32cd" points="1432.54,-266.41 1423.39,-271.77 1433.88,-273.28 1432.54,-266.41"/>
</a>
</g>
<text text-anchor="start" x="1464" y="-270.11" font-family="Helvetica,sans-Serif" font-size="10.00" fill="grey">ekf_</text>
</g>
<!-- Node5 -->
<g id="Node000005" class="node">
<title>Node5</title>
<g id="a_Node000005"><a xlink:href="classstateObservation_1_1KalmanFilterBase.html" target="_top" xlink:title="It mostly implements the equations of Kalman filtering It is suitablle by derivation to be used incas...">
<polygon fill="white" stroke="#666666" points="1104.12,-397.5 960.62,-397.5 960.62,-364 1104.12,-364 1104.12,-397.5"/>
<text text-anchor="start" x="968.62" y="-384" font-family="Helvetica,sans-Serif" font-size="10.00">stateObservation::Kalman</text>
<text text-anchor="middle" x="1032.38" y="-371.25" font-family="Helvetica,sans-Serif" font-size="10.00">FilterBase</text>
</a>
</g>
</g>
<!-- Node5&#45;&gt;Node4 -->
<g id="edge4_Node000004_Node000005" class="edge">
<title>Node5&#45;&gt;Node4</title>
<g id="a_edge4_Node000004_Node000005"><a xlink:title=" ">
<path fill="none" stroke="#63b8ff" d="M1115.12,-368.09C1151.02,-361.43 1193.36,-352.05 1230.5,-339.75 1259.35,-330.2 1290.56,-315.39 1313.05,-303.86"/>
<polygon fill="#63b8ff" stroke="#63b8ff" points="1114.9,-364.57 1105.69,-369.8 1116.15,-371.46 1114.9,-364.57"/>
</a>
</g>
</g>
<!-- Node6 -->
<g id="Node000006" class="node">
<title>Node6</title>
<g id="a_Node000006"><a xlink:href="classstateObservation_1_1ZeroDelayObserver.html" target="_top" xlink:title="Defines the base class of online zero delay observers. Zero delay observers are the classical state o...">
<polygon fill="white" stroke="#666666" points="714,-414.5 557,-414.5 557,-381 714,-381 714,-414.5"/>
<text text-anchor="start" x="565" y="-401" font-family="Helvetica,sans-Serif" font-size="10.00">stateObservation::ZeroDelay</text>
<text text-anchor="middle" x="635.5" y="-388.25" font-family="Helvetica,sans-Serif" font-size="10.00">Observer</text>
</a>
</g>
</g>
<!-- Node6&#45;&gt;Node5 -->
<g id="edge5_Node000005_Node000006" class="edge">
<title>Node6&#45;&gt;Node5</title>
<g id="a_edge5_Node000005_Node000006"><a xlink:title=" ">
<path fill="none" stroke="#63b8ff" d="M725.67,-395.4C782.87,-393.71 858.71,-391.13 925.75,-387.75 936.95,-387.19 948.8,-386.49 960.37,-385.76"/>
<polygon fill="#63b8ff" stroke="#63b8ff" points="725.89,-391.89 716,-395.68 726.1,-398.88 725.89,-391.89"/>
</a>
</g>
</g>
<!-- Node7 -->
<g id="Node000007" class="node">
<title>Node7</title>
<g id="a_Node000007"><a xlink:href="classstateObservation_1_1ObserverBase.html" target="_top" xlink:title="The base class for observers. The observer is destinated to any dynamical system with a vector state ...">
<polygon fill="white" stroke="#666666" points="407.75,-394.12 233.5,-394.12 233.5,-373.38 407.75,-373.38 407.75,-394.12"/>
<text text-anchor="middle" x="320.62" y="-380.62" font-family="Helvetica,sans-Serif" font-size="10.00">stateObservation::ObserverBase</text>
</a>
</g>
</g>
<!-- Node7&#45;&gt;Node6 -->
<g id="edge6_Node000006_Node000007" class="edge">
<title>Node7&#45;&gt;Node6</title>
<g id="a_edge6_Node000006_Node000007"><a xlink:title=" ">
<path fill="none" stroke="#63b8ff" d="M419.33,-388.12C463.58,-390.1 515.17,-392.41 556.74,-394.27"/>
<polygon fill="#63b8ff" stroke="#63b8ff" points="419.61,-384.63 409.46,-387.68 419.29,-391.62 419.61,-384.63"/>
</a>
</g>
</g>
<!-- Node8 -->
<g id="Node000008" class="node">
<title>Node8</title>
<g id="a_Node000008"><a xlink:href="classstateObservation_1_1IndexedMatrixT.html" target="_top" xlink:title=" ">
<polygon fill="white" stroke="#666666" points="392.75,-456.5 248.5,-456.5 248.5,-423 392.75,-423 392.75,-456.5"/>
<text text-anchor="start" x="256.5" y="-443" font-family="Helvetica,sans-Serif" font-size="10.00">stateObservation::Indexed</text>
<text text-anchor="middle" x="320.62" y="-430.25" font-family="Helvetica,sans-Serif" font-size="10.00">MatrixT&lt; Vector &gt;</text>
</a>
</g>
</g>
<!-- Node8&#45;&gt;Node5 -->
<g id="edge11_Node000005_Node000008" class="edge">
<title>Node8&#45;&gt;Node5</title>
<g id="a_edge11_Node000005_Node000008"><a xlink:title=" ">
<path fill="none" stroke="#9a32cd" stroke-dasharray="5,2" d="M404.16,-440.55C521.03,-440.45 741.11,-435.73 925.75,-405.75 938.58,-403.67 952.17,-400.89 965.18,-397.94"/>
<polygon fill="#9a32cd" stroke="#9a32cd" points="404.35,-437.05 394.34,-440.55 404.34,-444.05 404.35,-437.05"/>
</a>
</g>
<text text-anchor="start" x="622" y="-461.22" font-family="Helvetica,sans-Serif" font-size="10.00" fill="grey">xbar_</text>
<text text-anchor="start" x="622" y="-444.47" font-family="Helvetica,sans-Serif" font-size="10.00" fill="grey">ybar_</text>
</g>
<!-- Node8&#45;&gt;Node6 -->
<g id="edge7_Node000006_Node000008" class="edge">
<title>Node8&#45;&gt;Node6</title>
<g id="a_edge7_Node000006_Node000008"><a xlink:title=" ">
<path fill="none" stroke="#9a32cd" stroke-dasharray="5,2" d="M404.42,-421.6C411.62,-420.28 418.8,-419.06 425.75,-418 468.94,-411.41 517.51,-406.55 556.92,-403.25"/>
<polygon fill="#9a32cd" stroke="#9a32cd" points="403.8,-418.16 394.62,-423.46 405.1,-425.04 403.8,-418.16"/>
</a>
</g>
<text text-anchor="start" x="471.12" y="-424.25" font-family="Helvetica,sans-Serif" font-size="10.00" fill="grey">x_</text>
</g>
<!-- Node9 -->
<g id="Node000009" class="node">
<title>Node9</title>
<g id="a_Node000009"><a xlink:href="classstateObservation_1_1DebugItem.html" target="_top" xlink:title=" ">
<polygon fill="white" stroke="#666666" points="160,-462.88 0,-462.88 0,-416.62 160,-416.62 160,-462.88"/>
<text text-anchor="start" x="8" y="-449.38" font-family="Helvetica,sans-Serif" font-size="10.00">stateObservation::DebugItem</text>
<text text-anchor="start" x="8" y="-436.62" font-family="Helvetica,sans-Serif" font-size="10.00">&lt; bool, detail::defaultTrue,</text>
<text text-anchor="middle" x="80" y="-423.88" font-family="Helvetica,sans-Serif" font-size="10.00"> !false||isDebug &gt;</text>
</a>
</g>
</g>
<!-- Node9&#45;&gt;Node8 -->
<g id="edge8_Node000008_Node000009" class="edge">
<title>Node9&#45;&gt;Node8</title>
<g id="a_edge8_Node000008_Node000009"><a xlink:title=" ">
<path fill="none" stroke="darkgreen" d="M171.91,-439.75C197.15,-439.75 224.19,-439.75 248.14,-439.75"/>
<polygon fill="darkgreen" stroke="darkgreen" points="171.97,-436.25 161.97,-439.75 171.97,-443.25 171.97,-436.25"/>
</a>
</g>
</g>
<!-- Node10 -->
<g id="Node000010" class="node">
<title>Node10</title>
<g id="a_Node000010"><a xlink:href="classstateObservation_1_1IndexedMatrixArrayT.html" target="_top" xlink:title=" ">
<polygon fill="white" stroke="#666666" points="392.75,-295.5 248.5,-295.5 248.5,-262 392.75,-262 392.75,-295.5"/>
<text text-anchor="start" x="256.5" y="-282" font-family="Helvetica,sans-Serif" font-size="10.00">stateObservation::Indexed</text>
<text text-anchor="middle" x="320.62" y="-269.25" font-family="Helvetica,sans-Serif" font-size="10.00">MatrixArrayT&lt; Vector &gt;</text>
</a>
</g>
</g>
<!-- Node10&#45;&gt;Node6 -->
<g id="edge9_Node000006_Node000010" class="edge">
<title>Node10&#45;&gt;Node6</title>
<g id="a_edge9_Node000006_Node000010"><a xlink:title=" ">
<path fill="none" stroke="#9a32cd" stroke-dasharray="5,2" d="M388.06,-299.42C443.68,-317.07 515.84,-340.88 527.75,-349.25 538.23,-356.62 535.11,-364.62 545.75,-371.75 550.82,-375.15 556.34,-378.11 562.06,-380.69"/>
<polygon fill="#9a32cd" stroke="#9a32cd" points="389.21,-296.12 378.62,-296.44 387.1,-302.79 389.21,-296.12"/>
</a>
</g>
<text text-anchor="start" x="471.12" y="-372.25" font-family="Helvetica,sans-Serif" font-size="10.00" fill="grey">u_</text>
<text text-anchor="start" x="471.12" y="-355.5" font-family="Helvetica,sans-Serif" font-size="10.00" fill="grey">y_</text>
</g>
<!-- Node24 -->
<g id="Node000024" class="node">
<title>Node24</title>
<g id="a_Node000024"><a xlink:href="structstateObservation_1_1flexibilityEstimation_1_1IMUElasticLocalFrameDynamicalSystem_1_1Optimization.html" target="_top" xlink:title=" ">
<polygon fill="white" stroke="#bfbfbf" points="925.75,-246.88 743.25,-246.88 743.25,-200.62 925.75,-200.62 925.75,-246.88"/>
<text text-anchor="start" x="751.25" y="-233.38" font-family="Helvetica,sans-Serif" font-size="10.00">stateObservation::flexibility</text>
<text text-anchor="start" x="751.25" y="-220.62" font-family="Helvetica,sans-Serif" font-size="10.00">Estimation::IMUElasticLocalFrame</text>
<text text-anchor="middle" x="834.5" y="-207.88" font-family="Helvetica,sans-Serif" font-size="10.00">DynamicalSystem::Optimization</text>
</a>
</g>
</g>
<!-- Node10&#45;&gt;Node24 -->
<g id="edge28_Node000024_Node000010" class="edge">
<title>Node10&#45;&gt;Node24</title>
<g id="a_edge28_Node000024_Node000010"><a xlink:title=" ">
<path fill="none" stroke="#9a32cd" stroke-dasharray="5,2" d="M355.11,-255.34C374.72,-243.08 400.51,-229.33 425.75,-223 532.18,-196.3 659.21,-202.21 742.87,-211.02"/>
<polygon fill="#9a32cd" stroke="#9a32cd" points="353.24,-252.39 346.73,-260.75 357.03,-258.27 353.24,-252.39"/>
</a>
</g>
<text text-anchor="start" x="428.75" y="-296.25" font-family="Helvetica,sans-Serif" font-size="10.00" fill="grey">contactAngVelArray</text>
<text text-anchor="start" x="428.75" y="-279.5" font-family="Helvetica,sans-Serif" font-size="10.00" fill="grey">contactOriV</text>
<text text-anchor="start" x="428.75" y="-262.75" font-family="Helvetica,sans-Serif" font-size="10.00" fill="grey">contactPosV</text>
<text text-anchor="start" x="428.75" y="-246" font-family="Helvetica,sans-Serif" font-size="10.00" fill="grey">contactVelArray</text>
<text text-anchor="start" x="428.75" y="-229.25" font-family="Helvetica,sans-Serif" font-size="10.00" fill="grey">efforts</text>
</g>
<!-- Node11 -->
<g id="Node000011" class="node">
<title>Node11</title>
<g id="a_Node000011"><a xlink:href="classstateObservation_1_1StateVectorArithmetics.html" target="_top" xlink:title="This class is used to customize the way the difference between measurements, the state update functio...">
<polygon fill="white" stroke="#666666" points="716.62,-362.5 554.38,-362.5 554.38,-329 716.62,-329 716.62,-362.5"/>
<text text-anchor="start" x="562.38" y="-349" font-family="Helvetica,sans-Serif" font-size="10.00">stateObservation::StateVector</text>
<text text-anchor="middle" x="635.5" y="-336.25" font-family="Helvetica,sans-Serif" font-size="10.00">Arithmetics</text>
</a>
</g>
</g>
<!-- Node11&#45;&gt;Node5 -->
<g id="edge10_Node000005_Node000011" class="edge">
<title>Node11&#45;&gt;Node5</title>
<g id="a_edge10_Node000005_Node000011"><a xlink:title=" ">
<path fill="none" stroke="darkgreen" d="M728.25,-360.94C733.32,-361.6 738.34,-362.21 743.25,-362.75 816.98,-370.9 901.76,-375.65 960.17,-378.2"/>
<polygon fill="darkgreen" stroke="darkgreen" points="729,-357.51 718.62,-359.63 728.06,-364.44 729,-357.51"/>
</a>
</g>
</g>
<!-- Node11&#45;&gt;Node5 -->
<g id="edge13_Node000005_Node000011" class="edge">
<title>Node11&#45;&gt;Node5</title>
<g id="a_edge13_Node000005_Node000011"><a xlink:title=" ">
<path fill="none" stroke="#9a32cd" stroke-dasharray="5,2" d="M728.31,-327.57C786.55,-319.97 862.56,-317.42 925.75,-340 935.49,-343.48 934.61,-349.91 943.75,-354.75 949.92,-358.02 956.56,-360.93 963.32,-363.52"/>
<polygon fill="#9a32cd" stroke="#9a32cd" points="727.83,-324.11 718.41,-328.95 728.8,-331.04 727.83,-324.11"/>
</a>
</g>
<text text-anchor="start" x="815.75" y="-346.25" font-family="Helvetica,sans-Serif" font-size="10.00" fill="grey">arithm_</text>
</g>
<!-- Node12 -->
<g id="Node000012" class="node">
<title>Node12</title>
<g id="a_Node000012"><a xlink:href="structstateObservation_1_1KalmanFilterBase_1_1optimizationContainer.html" target="_top" xlink:title=" ">
<polygon fill="white" stroke="#bfbfbf" points="725.25,-310.5 545.75,-310.5 545.75,-277 725.25,-277 725.25,-310.5"/>
<text text-anchor="start" x="553.75" y="-297" font-family="Helvetica,sans-Serif" font-size="10.00">stateObservation::Kalman</text>
<text text-anchor="middle" x="635.5" y="-284.25" font-family="Helvetica,sans-Serif" font-size="10.00">FilterBase::optimizationContainer</text>
</a>
</g>
</g>
<!-- Node12&#45;&gt;Node5 -->
<g id="edge12_Node000005_Node000012" class="edge">
<title>Node12&#45;&gt;Node5</title>
<g id="a_edge12_Node000005_Node000012"><a xlink:title=" ">
<path fill="none" stroke="#9a32cd" stroke-dasharray="5,2" d="M706.05,-274.07C769.6,-260.54 862.97,-252.42 925.75,-299 946.66,-314.51 925.12,-336.56 943.75,-354.75 948.63,-359.52 954.35,-363.42 960.48,-366.6"/>
<polygon fill="#9a32cd" stroke="#9a32cd" points="705.41,-270.62 696.41,-276.22 706.93,-277.45 705.41,-270.62"/>
</a>
</g>
<text text-anchor="start" x="826.25" y="-305.25" font-family="Helvetica,sans-Serif" font-size="10.00" fill="grey">oc_</text>
</g>
<!-- Node13 -->
<g id="Node000013" class="node">
<title>Node13</title>
<g id="a_Node000013"><a xlink:href="classstateObservation_1_1DynamicalSystemFunctorBase.html" target="_top" xlink:title="This is the base class of any functor that describes the dynamics of the state and the measurement....">
<polygon fill="white" stroke="#666666" points="1111.62,-293.5 953.12,-293.5 953.12,-260 1111.62,-260 1111.62,-293.5"/>
<text text-anchor="start" x="961.12" y="-280" font-family="Helvetica,sans-Serif" font-size="10.00">stateObservation::Dynamical</text>
<text text-anchor="middle" x="1032.38" y="-267.25" font-family="Helvetica,sans-Serif" font-size="10.00">SystemFunctorBase</text>
</a>
</g>
</g>
<!-- Node13&#45;&gt;Node4 -->
<g id="edge14_Node000004_Node000013" class="edge">
<title>Node13&#45;&gt;Node4</title>
<g id="a_edge14_Node000004_Node000013"><a xlink:title=" ">
<path fill="none" stroke="#9a32cd" stroke-dasharray="5,2" d="M1123.2,-279.63C1169.52,-281.12 1225.38,-282.92 1269.42,-284.33"/>
<polygon fill="#9a32cd" stroke="#9a32cd" points="1123.57,-276.14 1113.46,-279.32 1123.34,-283.14 1123.57,-276.14"/>
</a>
</g>
<text text-anchor="start" x="1180.25" y="-289.19" font-family="Helvetica,sans-Serif" font-size="10.00" fill="grey">f_</text>
</g>
<!-- Node16 -->
<g id="Node000016" class="node">
<title>Node16</title>
<g id="a_Node000016"><a xlink:href="classstateObservation_1_1flexibilityEstimation_1_1IMUElasticLocalFrameDynamicalSystem.html" target="_top" xlink:title="This class describes the dynamics of a robot&#39;s flexibility this dynamics with elastic forces to bring...">
<polygon fill="white" stroke="#666666" points="1437,-199.88 1254.5,-199.88 1254.5,-153.62 1437,-153.62 1437,-199.88"/>
<text text-anchor="start" x="1262.5" y="-186.38" font-family="Helvetica,sans-Serif" font-size="10.00">stateObservation::flexibility</text>
<text text-anchor="start" x="1262.5" y="-173.62" font-family="Helvetica,sans-Serif" font-size="10.00">Estimation::IMUElasticLocalFrame</text>
<text text-anchor="middle" x="1345.75" y="-160.88" font-family="Helvetica,sans-Serif" font-size="10.00">DynamicalSystem</text>
</a>
</g>
</g>
<!-- Node13&#45;&gt;Node16 -->
<g id="edge18_Node000016_Node000013" class="edge">
<title>Node13&#45;&gt;Node16</title>
<g id="a_edge18_Node000016_Node000013"><a xlink:title=" ">
<path fill="none" stroke="#63b8ff" d="M1122.73,-272.78C1158.68,-267.62 1199,-257.02 1230.5,-235.75 1242.45,-227.68 1237.04,-217.5 1248.5,-208.75 1252.56,-205.65 1256.93,-202.84 1261.5,-200.3"/>
<polygon fill="#63b8ff" stroke="#63b8ff" points="1122.7,-269.25 1113.23,-274.01 1123.6,-276.19 1122.7,-269.25"/>
</a>
</g>
</g>
<!-- Node14 -->
<g id="Node000014" class="node">
<title>Node14</title>
<g id="a_Node000014"><a xlink:href="structstateObservation_1_1ExtendedKalmanFilter_1_1Optimization.html" target="_top" xlink:title=" ">
<polygon fill="white" stroke="#bfbfbf" points="1108.25,-345.5 956.5,-345.5 956.5,-312 1108.25,-312 1108.25,-345.5"/>
<text text-anchor="start" x="964.5" y="-332" font-family="Helvetica,sans-Serif" font-size="10.00">stateObservation::Extended</text>
<text text-anchor="middle" x="1032.38" y="-319.25" font-family="Helvetica,sans-Serif" font-size="10.00">KalmanFilter::Optimization</text>
</a>
</g>
</g>
<!-- Node14&#45;&gt;Node4 -->
<g id="edge15_Node000004_Node000014" class="edge">
<title>Node14&#45;&gt;Node4</title>
<g id="a_edge15_Node000004_Node000014"><a xlink:title=" ">
<path fill="none" stroke="#9a32cd" stroke-dasharray="5,2" d="M1119.39,-319.63C1153.97,-315.73 1194.17,-310.89 1230.5,-305.75 1243.14,-303.96 1256.54,-301.89 1269.55,-299.79"/>
<polygon fill="#9a32cd" stroke="#9a32cd" points="1119.42,-316.11 1109.87,-320.7 1120.2,-323.06 1119.42,-316.11"/>
</a>
</g>
<text text-anchor="start" x="1176.88" y="-323.04" font-family="Helvetica,sans-Serif" font-size="10.00" fill="grey">opt</text>
</g>
<!-- Node15 -->
<g id="Node000015" class="node">
<title>Node15</title>
<g id="a_Node000015"><a xlink:title=" ">
<polygon fill="white" stroke="#bfbfbf" points="1669.38,-143.12 1558.12,-143.12 1558.12,-122.38 1669.38,-122.38 1669.38,-143.12"/>
<text text-anchor="middle" x="1613.75" y="-129.62" font-family="Helvetica,sans-Serif" font-size="10.00">boost::noncopyable</text>
</a>
</g>
</g>
<!-- Node15&#45;&gt;Node1 -->
<g id="edge16_Node000001_Node000015" class="edge">
<title>Node15&#45;&gt;Node1</title>
<g id="a_edge16_Node000001_Node000015"><a xlink:title=" ">
<path fill="none" stroke="#8b1a1a" d="M1681,-138.14C1710.63,-140.56 1746.45,-143.47 1780.34,-146.23"/>
<polygon fill="#8b1a1a" stroke="#8b1a1a" points="1681.31,-134.66 1671.06,-137.33 1680.75,-141.63 1681.31,-134.66"/>
</a>
</g>
</g>
<!-- Node16&#45;&gt;Node1 -->
<g id="edge17_Node000001_Node000016" class="edge">
<title>Node16&#45;&gt;Node1</title>
<g id="a_edge17_Node000001_Node000016"><a xlink:title=" ">
<path fill="none" stroke="#9a32cd" stroke-dasharray="5,2" d="M1448.57,-172.87C1542.53,-169.28 1681.97,-163.96 1780.42,-160.21"/>
<polygon fill="#9a32cd" stroke="#9a32cd" points="1448.72,-169.36 1438.86,-173.24 1448.98,-176.35 1448.72,-169.36"/>
</a>
</g>
<text text-anchor="start" x="1593.88" y="-176.92" font-family="Helvetica,sans-Serif" font-size="10.00" fill="grey">functor_</text>
</g>
<!-- Node17 -->
<g id="Node000017" class="node">
<title>Node17</title>
<g id="a_Node000017"><a xlink:href="classstateObservation_1_1AccelerometerGyrometer.html" target="_top" xlink:title="Implements the accelerometer&#45;gyrometer measurements.">
<polygon fill="white" stroke="#666666" points="1121,-84.5 943.75,-84.5 943.75,-51 1121,-51 1121,-84.5"/>
<text text-anchor="start" x="951.75" y="-71" font-family="Helvetica,sans-Serif" font-size="10.00">stateObservation::Accelerometer</text>
<text text-anchor="middle" x="1032.38" y="-58.25" font-family="Helvetica,sans-Serif" font-size="10.00">Gyrometer</text>
</a>
</g>
</g>
<!-- Node17&#45;&gt;Node16 -->
<g id="edge19_Node000016_Node000017" class="edge">
<title>Node17&#45;&gt;Node16</title>
<g id="a_edge19_Node000016_Node000017"><a xlink:title=" ">
<path fill="none" stroke="#9a32cd" stroke-dasharray="5,2" d="M1132.2,-81.84C1164.22,-88.13 1199.45,-96.93 1230.5,-109 1259.52,-120.28 1289.7,-138.5 1311.75,-153.21"/>
<polygon fill="#9a32cd" stroke="#9a32cd" points="1132.99,-78.43 1122.52,-80 1131.69,-85.31 1132.99,-78.43"/>
</a>
</g>
<text text-anchor="start" x="1166" y="-115.25" font-family="Helvetica,sans-Serif" font-size="10.00" fill="grey">sensor_</text>
</g>
<!-- Node18 -->
<g id="Node000018" class="node">
<title>Node18</title>
<g id="a_Node000018"><a xlink:href="classstateObservation_1_1AlgebraicSensor.html" target="_top" xlink:title="The base class for algebraic sensors. Algebraic sensors are sensors which depend only on the state va...">
<polygon fill="white" stroke="#666666" points="711.38,-139.5 559.62,-139.5 559.62,-106 711.38,-106 711.38,-139.5"/>
<text text-anchor="start" x="567.62" y="-126" font-family="Helvetica,sans-Serif" font-size="10.00">stateObservation::Algebraic</text>
<text text-anchor="middle" x="635.5" y="-113.25" font-family="Helvetica,sans-Serif" font-size="10.00">Sensor</text>
</a>
</g>
</g>
<!-- Node18&#45;&gt;Node17 -->
<g id="edge20_Node000017_Node000018" class="edge">
<title>Node18&#45;&gt;Node17</title>
<g id="a_edge20_Node000017_Node000018"><a xlink:title=" ">
<path fill="none" stroke="#63b8ff" d="M722.79,-110.73C788.14,-101.63 877.59,-89.17 943.35,-80.01"/>
<polygon fill="#63b8ff" stroke="#63b8ff" points="722.62,-107.22 713.2,-112.07 723.59,-114.15 722.62,-107.22"/>
</a>
</g>
</g>
<!-- Node19 -->
<g id="Node000019" class="node">
<title>Node19</title>
<g id="a_Node000019"><a xlink:href="classstateObservation_1_1SensorBase.html" target="_top" xlink:title="The base class for sensors. This must be derived to implement a sensor.">
<polygon fill="white" stroke="#666666" points="402.12,-145.12 239.12,-145.12 239.12,-124.38 402.12,-124.38 402.12,-145.12"/>
<text text-anchor="middle" x="320.62" y="-131.62" font-family="Helvetica,sans-Serif" font-size="10.00">stateObservation::SensorBase</text>
</a>
</g>
</g>
<!-- Node19&#45;&gt;Node18 -->
<g id="edge21_Node000018_Node000019" class="edge">
<title>Node19&#45;&gt;Node18</title>
<g id="a_edge21_Node000018_Node000019"><a xlink:title=" ">
<path fill="none" stroke="#63b8ff" d="M413.86,-131.21C460.16,-129.44 515.54,-127.31 559.23,-125.64"/>
<polygon fill="#63b8ff" stroke="#63b8ff" points="413.98,-127.71 404.12,-131.59 414.24,-134.7 413.98,-127.71"/>
</a>
</g>
</g>
<!-- Node20 -->
<g id="Node000020" class="node">
<title>Node20</title>
<g id="a_Node000020"><a xlink:href="classstateObservation_1_1NoiseBase.html" target="_top" xlink:title=" ">
<polygon fill="white" stroke="#bfbfbf" points="158.88,-166.12 1.12,-166.12 1.12,-145.38 158.88,-145.38 158.88,-166.12"/>
<text text-anchor="middle" x="80" y="-152.62" font-family="Helvetica,sans-Serif" font-size="10.00">stateObservation::NoiseBase</text>
</a>
</g>
</g>
<!-- Node20&#45;&gt;Node16 -->
<g id="edge25_Node000016_Node000020" class="edge">
<title>Node20&#45;&gt;Node16</title>
<g id="a_edge25_Node000016_Node000020"><a xlink:title=" ">
<path fill="none" stroke="#9a32cd" stroke-dasharray="5,2" d="M170.73,-167.4C215.4,-172.24 270.27,-176.75 319.62,-176.75 319.62,-176.75 319.62,-176.75 1033.38,-176.75 1107.7,-176.75 1192.02,-176.75 1254.14,-176.75"/>
<polygon fill="#9a32cd" stroke="#9a32cd" points="171.13,-163.92 160.81,-166.29 170.36,-170.88 171.13,-163.92"/>
</a>
</g>
<text text-anchor="start" x="600.25" y="-183" font-family="Helvetica,sans-Serif" font-size="10.00" fill="grey">processNoise_</text>
</g>
<!-- Node20&#45;&gt;Node19 -->
<g id="edge22_Node000019_Node000020" class="edge">
<title>Node20&#45;&gt;Node19</title>
<g id="a_edge22_Node000019_Node000020"><a xlink:title=" ">
<path fill="none" stroke="#9a32cd" stroke-dasharray="5,2" d="M170.5,-144.72C173.03,-144.47 175.53,-144.23 178,-144 197.63,-142.17 218.82,-140.58 238.68,-139.26"/>
<polygon fill="#9a32cd" stroke="#9a32cd" points="170.4,-141.22 160.82,-145.73 171.13,-148.18 170.4,-141.22"/>
</a>
</g>
<text text-anchor="start" x="181" y="-150.25" font-family="Helvetica,sans-Serif" font-size="10.00" fill="grey">noise_</text>
</g>
<!-- Node21 -->
<g id="Node000021" class="node">
<title>Node21</title>
<g id="a_Node000021"><a xlink:href="classstateObservation_1_1algorithm_1_1LinearAcceleration.html" target="_top" xlink:title="Implements the measurements given by an accelerometer.">
<polygon fill="white" stroke="#666666" points="712.12,-33.5 558.88,-33.5 558.88,0 712.12,0 712.12,-33.5"/>
<text text-anchor="start" x="566.88" y="-20" font-family="Helvetica,sans-Serif" font-size="10.00">stateObservation::algorithm</text>
<text text-anchor="middle" x="635.5" y="-7.25" font-family="Helvetica,sans-Serif" font-size="10.00">::LinearAcceleration</text>
</a>
</g>
</g>
<!-- Node21&#45;&gt;Node17 -->
<g id="edge23_Node000017_Node000021" class="edge">
<title>Node21&#45;&gt;Node17</title>
<g id="a_edge23_Node000017_Node000021"><a xlink:title=" ">
<path fill="none" stroke="darkgreen" d="M723.27,-27.96C788.64,-36.4 877.93,-47.93 943.56,-56.41"/>
<polygon fill="darkgreen" stroke="darkgreen" points="724.04,-24.53 713.67,-26.72 723.14,-31.47 724.04,-24.53"/>
</a>
</g>
</g>
<!-- Node22 -->
<g id="Node000022" class="node">
<title>Node22</title>
<g id="a_Node000022"><a xlink:href="classstateObservation_1_1algorithm_1_1RotationVelocity.html" target="_top" xlink:title="Implements the gyrometer measurement algorithm.">
<polygon fill="white" stroke="#666666" points="712.12,-85.5 558.88,-85.5 558.88,-52 712.12,-52 712.12,-85.5"/>
<text text-anchor="start" x="566.88" y="-72" font-family="Helvetica,sans-Serif" font-size="10.00">stateObservation::algorithm</text>
<text text-anchor="middle" x="635.5" y="-59.25" font-family="Helvetica,sans-Serif" font-size="10.00">::RotationVelocity</text>
</a>
</g>
</g>
<!-- Node22&#45;&gt;Node17 -->
<g id="edge24_Node000017_Node000022" class="edge">
<title>Node22&#45;&gt;Node17</title>
<g id="a_edge24_Node000017_Node000022"><a xlink:title=" ">
<path fill="none" stroke="darkgreen" d="M723.67,-68.53C789.01,-68.36 878.07,-68.14 943.56,-67.97"/>
<polygon fill="darkgreen" stroke="darkgreen" points="723.67,-65.03 713.68,-68.55 723.69,-72.03 723.67,-65.03"/>
</a>
</g>
</g>
<!-- Node23 -->
<g id="Node000023" class="node">
<title>Node23</title>
<g id="a_Node000023"><a xlink:title=" ">
<polygon fill="white" stroke="#666666" points="1100.38,-148.88 964.38,-148.88 964.38,-102.62 1100.38,-102.62 1100.38,-148.88"/>
<text text-anchor="start" x="972.38" y="-135.38" font-family="Helvetica,sans-Serif" font-size="10.00">std::vector&lt; Vector3,</text>
<text text-anchor="start" x="972.38" y="-122.62" font-family="Helvetica,sans-Serif" font-size="10.00"> Eigen::aligned_allocator</text>
<text text-anchor="middle" x="1032.38" y="-109.88" font-family="Helvetica,sans-Serif" font-size="10.00">&lt; Vector3 &gt; &gt;</text>
</a>
</g>
</g>
<!-- Node23&#45;&gt;Node16 -->
<g id="edge26_Node000016_Node000023" class="edge">
<title>Node23&#45;&gt;Node16</title>
<g id="a_edge26_Node000016_Node000023"><a xlink:title=" ">
<path fill="none" stroke="#9a32cd" stroke-dasharray="5,2" d="M1111.89,-129.64C1148.2,-132.3 1191.78,-136.72 1230.5,-144 1243.38,-146.42 1256.9,-149.65 1269.94,-153.15"/>
<polygon fill="#9a32cd" stroke="#9a32cd" points="1112.6,-126.18 1102.38,-128.98 1112.11,-133.17 1112.6,-126.18"/>
</a>
</g>
<text text-anchor="start" x="1142" y="-150.25" font-family="Helvetica,sans-Serif" font-size="10.00" fill="grey">contactPositions_</text>
</g>
<!-- Node24&#45;&gt;Node16 -->
<g id="edge27_Node000016_Node000024" class="edge">
<title>Node24&#45;&gt;Node16</title>
<g id="a_edge27_Node000016_Node000024"><a xlink:title=" ">
<path fill="none" stroke="#9a32cd" stroke-dasharray="5,2" d="M937.23,-216.34C1017.06,-210.26 1130.96,-201 1230.5,-190.75 1238.15,-189.96 1246.09,-189.09 1254.05,-188.19"/>
<polygon fill="#9a32cd" stroke="#9a32cd" points="937.41,-212.81 927.7,-217.06 937.94,-219.79 937.41,-212.81"/>
</a>
</g>
<text text-anchor="start" x="1023.75" y="-221.76" font-family="Helvetica,sans-Serif" font-size="10.00" fill="grey">op_</text>
</g>
<!-- Node25 -->
<g id="Node000025" class="node">
<title>Node25</title>
<g id="a_Node000025"><a xlink:href="structstateObservation_1_1flexibilityEstimation_1_1ModelBaseEKFFlexEstimatorIMU_1_1optimization.html" target="_top" xlink:title=" ">
<polygon fill="white" stroke="#bfbfbf" points="1721.5,-103.88 1506,-103.88 1506,-57.62 1721.5,-57.62 1721.5,-103.88"/>
<text text-anchor="start" x="1514" y="-90.38" font-family="Helvetica,sans-Serif" font-size="10.00">stateObservation::flexibility</text>
<text text-anchor="start" x="1514" y="-77.62" font-family="Helvetica,sans-Serif" font-size="10.00">Estimation::ModelBaseEKFFlexEstimator</text>
<text text-anchor="middle" x="1613.75" y="-64.88" font-family="Helvetica,sans-Serif" font-size="10.00">IMU::optimization</text>
</a>
</g>
</g>
<!-- Node25&#45;&gt;Node1 -->
<g id="edge29_Node000001_Node000025" class="edge">
<title>Node25&#45;&gt;Node1</title>
<g id="a_edge29_Node000001_Node000025"><a xlink:title=" ">
<path fill="none" stroke="#9a32cd" stroke-dasharray="5,2" d="M1714.31,-107.18C1753.63,-117.62 1797.69,-129.32 1832.71,-138.62"/>
<polygon fill="#9a32cd" stroke="#9a32cd" points="1715.39,-103.85 1704.82,-104.66 1713.59,-110.61 1715.39,-103.85"/>
</a>
</g>
<text text-anchor="start" x="1742.5" y="-124.5" font-family="Helvetica,sans-Serif" font-size="10.00" fill="grey">op_</text>
</g>
</g>
</svg>
