<?xml version="1.0" encoding="UTF-8" standalone="no"?>
<!DOCTYPE svg PUBLIC "-//W3C//DTD SVG 1.1//EN"
 "http://www.w3.org/Graphics/SVG/1.1/DTD/svg11.dtd">
<!-- Generated by graphviz version 12.2.1 (0)
 -->
<!-- Title: stateObservation::DynamicalSystemSimulator Pages: 1 -->
<svg width="378pt" height="153pt"
 viewBox="0.00 0.00 378.25 152.50" xmlns="http://www.w3.org/2000/svg" xmlns:xlink="http://www.w3.org/1999/xlink">
<g id="graph0" class="graph" transform="scale(1 1) rotate(0) translate(4 148.5)">
<title>stateObservation::DynamicalSystemSimulator</title>
<!-- Node1 -->
<g id="Node000001" class="node">
<title>Node1</title>
<g id="a_Node000001"><a xlink:title="The class gives a small encapsulation of the dynamics functor, which enables the simulation of the dy...">
<polygon fill="#999999" stroke="#666666" points="370.25,-85.5 211.75,-85.5 211.75,-52 370.25,-52 370.25,-85.5"/>
<text text-anchor="start" x="219.75" y="-72" font-family="Helvetica,sans-Serif" font-size="10.00">stateObservation::Dynamical</text>
<text text-anchor="middle" x="291" y="-59.25" font-family="Helvetica,sans-Serif" font-size="10.00">SystemSimulator</text>
</a>
</g>
</g>
<!-- Node2 -->
<g id="Node000002" class="node">
<title>Node2</title>
<g id="a_Node000002"><a xlink:href="classstateObservation_1_1DynamicalSystemFunctorBase.html" target="_top" xlink:title="This is the base class of any functor that describes the dynamics of the state and the measurement....">
<polygon fill="white" stroke="#666666" points="158.5,-144.5 0,-144.5 0,-111 158.5,-111 158.5,-144.5"/>
<text text-anchor="start" x="8" y="-131" font-family="Helvetica,sans-Serif" font-size="10.00">stateObservation::Dynamical</text>
<text text-anchor="middle" x="79.25" y="-118.25" font-family="Helvetica,sans-Serif" font-size="10.00">SystemFunctorBase</text>
</a>
</g>
</g>
<!-- Node2&#45;&gt;Node1 -->
<g id="edge1_Node000001_Node000002" class="edge">
<title>Node2&#45;&gt;Node1</title>
<g id="a_edge1_Node000001_Node000002"><a xlink:title=" ">
<path fill="none" stroke="#9a32cd" stroke-dasharray="5,2" d="M169.9,-111.9C178.01,-110.01 186.06,-107.96 193.75,-105.75 212.68,-100.32 233.11,-92.73 250.26,-85.83"/>
<polygon fill="#9a32cd" stroke="#9a32cd" points="169.3,-108.45 160.31,-114.05 170.83,-115.28 169.3,-108.45"/>
</a>
</g>
<text text-anchor="start" x="180.62" y="-116.06" font-family="Helvetica,sans-Serif" font-size="10.00" fill="grey">f_</text>
</g>
<!-- Node3 -->
<g id="Node000003" class="node">
<title>Node3</title>
<g id="a_Node000003"><a xlink:href="classstateObservation_1_1IndexedMatrixArrayT.html" target="_top" xlink:title=" ">
<polygon fill="white" stroke="#666666" points="151.38,-85.5 7.12,-85.5 7.12,-52 151.38,-52 151.38,-85.5"/>
<text text-anchor="start" x="15.12" y="-72" font-family="Helvetica,sans-Serif" font-size="10.00">stateObservation::Indexed</text>
<text text-anchor="middle" x="79.25" y="-59.25" font-family="Helvetica,sans-Serif" font-size="10.00">MatrixArrayT&lt; Vector &gt;</text>
</a>
</g>
</g>
<!-- Node3&#45;&gt;Node1 -->
<g id="edge2_Node000001_Node000003" class="edge">
<title>Node3&#45;&gt;Node1</title>
<g id="a_edge2_Node000001_Node000003"><a xlink:title=" ">
<path fill="none" stroke="#9a32cd" stroke-dasharray="5,2" d="M163.28,-68.75C179.18,-68.75 195.79,-68.75 211.54,-68.75"/>
<polygon fill="#9a32cd" stroke="#9a32cd" points="163.36,-65.25 153.36,-68.75 163.36,-72.25 163.36,-65.25"/>
</a>
</g>
<text text-anchor="start" x="179.5" y="-91.75" font-family="Helvetica,sans-Serif" font-size="10.00" fill="grey">x_</text>
<text text-anchor="start" x="179.5" y="-75" font-family="Helvetica,sans-Serif" font-size="10.00" fill="grey">y_</text>
</g>
<!-- Node4 -->
<g id="Node000004" class="node">
<title>Node4</title>
<g id="a_Node000004"><a xlink:title=" ">
<polygon fill="white" stroke="#666666" points="141.62,-33.5 16.88,-33.5 16.88,0 141.62,0 141.62,-33.5"/>
<text text-anchor="start" x="24.88" y="-20" font-family="Helvetica,sans-Serif" font-size="10.00">std::map&lt; TimeIndex,</text>
<text text-anchor="middle" x="79.25" y="-7.25" font-family="Helvetica,sans-Serif" font-size="10.00"> Vector &gt;</text>
</a>
</g>
</g>
<!-- Node4&#45;&gt;Node1 -->
<g id="edge3_Node000001_Node000004" class="edge">
<title>Node4&#45;&gt;Node1</title>
<g id="a_edge3_Node000001_Node000004"><a xlink:title=" ">
<path fill="none" stroke="#9a32cd" stroke-dasharray="5,2" d="M152.96,-34.77C174.87,-40.21 198.86,-46.16 220.56,-51.53"/>
<polygon fill="#9a32cd" stroke="#9a32cd" points="154.06,-31.44 143.52,-32.43 152.38,-38.24 154.06,-31.44"/>
</a>
</g>
<text text-anchor="start" x="179.5" y="-50.56" font-family="Helvetica,sans-Serif" font-size="10.00" fill="grey">u_</text>
</g>
</g>
</svg>
