<?xml version="1.0" encoding="UTF-8" standalone="no"?>
<!DOCTYPE svg PUBLIC "-//W3C//DTD SVG 1.1//EN"
 "http://www.w3.org/Graphics/SVG/1.1/DTD/svg11.dtd">
<!-- Generated by graphviz version 12.2.1 (0)
 -->
<!-- Title: stateObservation::flexibilityEstimation::IMUFixedContactDynamicalSystem Pages: 1 -->
<svg width="1144pt" height="244pt"
 viewBox="0.00 0.00 1143.75 243.50" xmlns="http://www.w3.org/2000/svg" xmlns:xlink="http://www.w3.org/1999/xlink">
<g id="graph0" class="graph" transform="scale(1 1) rotate(0) translate(4 239.5)">
<title>stateObservation::flexibilityEstimation::IMUFixedContactDynamicalSystem</title>
<!-- Node1 -->
<g id="Node000001" class="node">
<title>Node1</title>
<g id="a_Node000001"><a xlink:title="This class describes the dynamics of a robot&#39;s flexibility this dynamics is the simplest possible sys...">
<polygon fill="#999999" stroke="#666666" points="1135.75,-178.88 926.25,-178.88 926.25,-132.62 1135.75,-132.62 1135.75,-178.88"/>
<text text-anchor="start" x="934.25" y="-165.38" font-family="Helvetica,sans-Serif" font-size="10.00">stateObservation::flexibility</text>
<text text-anchor="start" x="934.25" y="-152.62" font-family="Helvetica,sans-Serif" font-size="10.00">Estimation::IMUFixedContactDynamical</text>
<text text-anchor="middle" x="1031" y="-139.88" font-family="Helvetica,sans-Serif" font-size="10.00">System</text>
</a>
</g>
</g>
<!-- Node2 -->
<g id="Node000002" class="node">
<title>Node2</title>
<g id="a_Node000002"><a xlink:href="classstateObservation_1_1DynamicalSystemFunctorBase.html" target="_top" xlink:title="This is the base class of any functor that describes the dynamics of the state and the measurement....">
<polygon fill="white" stroke="#666666" points="789.38,-235.5 630.88,-235.5 630.88,-202 789.38,-202 789.38,-235.5"/>
<text text-anchor="start" x="638.88" y="-222" font-family="Helvetica,sans-Serif" font-size="10.00">stateObservation::Dynamical</text>
<text text-anchor="middle" x="710.12" y="-209.25" font-family="Helvetica,sans-Serif" font-size="10.00">SystemFunctorBase</text>
</a>
</g>
</g>
<!-- Node2&#45;&gt;Node1 -->
<g id="edge1_Node000001_Node000002" class="edge">
<title>Node2&#45;&gt;Node1</title>
<g id="a_edge1_Node000001_Node000002"><a xlink:title=" ">
<path fill="none" stroke="#63b8ff" d="M800.9,-206.59C834.69,-201.5 873.37,-195.06 908.25,-187.75 920.12,-185.26 932.57,-182.35 944.78,-179.31"/>
<polygon fill="#63b8ff" stroke="#63b8ff" points="800.51,-203.11 791.14,-208.04 801.54,-210.03 800.51,-203.11"/>
</a>
</g>
</g>
<!-- Node3 -->
<g id="Node000003" class="node">
<title>Node3</title>
<g id="a_Node000003"><a xlink:href="classstateObservation_1_1AccelerometerGyrometer.html" target="_top" xlink:title="Implements the accelerometer&#45;gyrometer measurements.">
<polygon fill="white" stroke="#666666" points="798.75,-137.5 621.5,-137.5 621.5,-104 798.75,-104 798.75,-137.5"/>
<text text-anchor="start" x="629.5" y="-124" font-family="Helvetica,sans-Serif" font-size="10.00">stateObservation::Accelerometer</text>
<text text-anchor="middle" x="710.12" y="-111.25" font-family="Helvetica,sans-Serif" font-size="10.00">Gyrometer</text>
</a>
</g>
</g>
<!-- Node3&#45;&gt;Node1 -->
<g id="edge2_Node000001_Node000003" class="edge">
<title>Node3&#45;&gt;Node1</title>
<g id="a_edge2_Node000001_Node000003"><a xlink:title=" ">
<path fill="none" stroke="#9a32cd" stroke-dasharray="5,2" d="M810.36,-130.59C841.69,-133.79 876.43,-137.44 908.25,-141 914.07,-141.65 920.04,-142.33 926.07,-143.03"/>
<polygon fill="#9a32cd" stroke="#9a32cd" points="810.8,-127.11 800.49,-129.58 810.09,-134.08 810.8,-127.11"/>
</a>
</g>
<text text-anchor="start" x="843.75" y="-147.25" font-family="Helvetica,sans-Serif" font-size="10.00" fill="grey">sensor_</text>
</g>
<!-- Node4 -->
<g id="Node000004" class="node">
<title>Node4</title>
<g id="a_Node000004"><a xlink:href="classstateObservation_1_1AlgebraicSensor.html" target="_top" xlink:title="The base class for algebraic sensors. Algebraic sensors are sensors which depend only on the state va...">
<polygon fill="white" stroke="#666666" points="583.75,-137.5 432,-137.5 432,-104 583.75,-104 583.75,-137.5"/>
<text text-anchor="start" x="440" y="-124" font-family="Helvetica,sans-Serif" font-size="10.00">stateObservation::Algebraic</text>
<text text-anchor="middle" x="507.88" y="-111.25" font-family="Helvetica,sans-Serif" font-size="10.00">Sensor</text>
</a>
</g>
</g>
<!-- Node4&#45;&gt;Node3 -->
<g id="edge3_Node000003_Node000004" class="edge">
<title>Node4&#45;&gt;Node3</title>
<g id="a_edge3_Node000003_Node000004"><a xlink:title=" ">
<path fill="none" stroke="#63b8ff" d="M595.48,-120.75C603.97,-120.75 612.59,-120.75 621.09,-120.75"/>
<polygon fill="#63b8ff" stroke="#63b8ff" points="595.52,-117.25 585.52,-120.75 595.52,-124.25 595.52,-117.25"/>
</a>
</g>
</g>
<!-- Node5 -->
<g id="Node000005" class="node">
<title>Node5</title>
<g id="a_Node000005"><a xlink:href="classstateObservation_1_1SensorBase.html" target="_top" xlink:title="The base class for sensors. This must be derived to implement a sensor.">
<polygon fill="white" stroke="#666666" points="394.25,-142.12 231.25,-142.12 231.25,-121.38 394.25,-121.38 394.25,-142.12"/>
<text text-anchor="middle" x="312.75" y="-128.62" font-family="Helvetica,sans-Serif" font-size="10.00">stateObservation::SensorBase</text>
</a>
</g>
</g>
<!-- Node5&#45;&gt;Node4 -->
<g id="edge4_Node000004_Node000005" class="edge">
<title>Node5&#45;&gt;Node4</title>
<g id="a_edge4_Node000004_Node000005"><a xlink:title=" ">
<path fill="none" stroke="#63b8ff" d="M405.85,-126.5C414.5,-126.01 423.19,-125.52 431.66,-125.03"/>
<polygon fill="#63b8ff" stroke="#63b8ff" points="405.83,-123 396.04,-127.06 406.23,-129.99 405.83,-123"/>
</a>
</g>
</g>
<!-- Node6 -->
<g id="Node000006" class="node">
<title>Node6</title>
<g id="a_Node000006"><a xlink:href="classstateObservation_1_1NoiseBase.html" target="_top" xlink:title=" ">
<polygon fill="white" stroke="#bfbfbf" points="157.75,-163.12 0,-163.12 0,-142.38 157.75,-142.38 157.75,-163.12"/>
<text text-anchor="middle" x="78.88" y="-149.62" font-family="Helvetica,sans-Serif" font-size="10.00">stateObservation::NoiseBase</text>
</a>
</g>
</g>
<!-- Node6&#45;&gt;Node1 -->
<g id="edge8_Node000001_Node000006" class="edge">
<title>Node6&#45;&gt;Node1</title>
<g id="a_edge8_Node000001_Node000006"><a xlink:title=" ">
<path fill="none" stroke="#9a32cd" stroke-dasharray="5,2" d="M169.36,-164.65C212.33,-169.39 264.63,-173.75 311.75,-173.75 311.75,-173.75 311.75,-173.75 711.12,-173.75 782.93,-173.75 863.69,-169.14 925.96,-164.59"/>
<polygon fill="#9a32cd" stroke="#9a32cd" points="169.9,-161.19 159.57,-163.54 169.11,-168.15 169.9,-161.19"/>
</a>
</g>
<text text-anchor="start" x="472.62" y="-180" font-family="Helvetica,sans-Serif" font-size="10.00" fill="grey">processNoise_</text>
</g>
<!-- Node6&#45;&gt;Node5 -->
<g id="edge5_Node000005_Node000006" class="edge">
<title>Node6&#45;&gt;Node5</title>
<g id="a_edge5_Node000005_Node000006"><a xlink:title=" ">
<path fill="none" stroke="#9a32cd" stroke-dasharray="5,2" d="M169.47,-141.62C171.59,-141.4 173.68,-141.2 175.75,-141 193.54,-139.31 212.66,-137.81 230.79,-136.54"/>
<polygon fill="#9a32cd" stroke="#9a32cd" points="169.15,-138.13 159.57,-142.66 169.88,-145.09 169.15,-138.13"/>
</a>
</g>
<text text-anchor="start" x="178.75" y="-147.25" font-family="Helvetica,sans-Serif" font-size="10.00" fill="grey">noise_</text>
</g>
<!-- Node7 -->
<g id="Node000007" class="node">
<title>Node7</title>
<g id="a_Node000007"><a xlink:href="classstateObservation_1_1algorithm_1_1LinearAcceleration.html" target="_top" xlink:title="Implements the measurements given by an accelerometer.">
<polygon fill="white" stroke="#666666" points="584.5,-85.5 431.25,-85.5 431.25,-52 584.5,-52 584.5,-85.5"/>
<text text-anchor="start" x="439.25" y="-72" font-family="Helvetica,sans-Serif" font-size="10.00">stateObservation::algorithm</text>
<text text-anchor="middle" x="507.88" y="-59.25" font-family="Helvetica,sans-Serif" font-size="10.00">::LinearAcceleration</text>
</a>
</g>
</g>
<!-- Node7&#45;&gt;Node3 -->
<g id="edge6_Node000003_Node000007" class="edge">
<title>Node7&#45;&gt;Node3</title>
<g id="a_edge6_Node000003_Node000007"><a xlink:title=" ">
<path fill="none" stroke="darkgreen" d="M586.42,-88.89C605.07,-93.73 624.82,-98.86 642.9,-103.55"/>
<polygon fill="darkgreen" stroke="darkgreen" points="587.3,-85.5 576.74,-86.37 585.54,-92.27 587.3,-85.5"/>
</a>
</g>
</g>
<!-- Node8 -->
<g id="Node000008" class="node">
<title>Node8</title>
<g id="a_Node000008"><a xlink:href="classstateObservation_1_1algorithm_1_1RotationVelocity.html" target="_top" xlink:title="Implements the gyrometer measurement algorithm.">
<polygon fill="white" stroke="#666666" points="584.5,-33.5 431.25,-33.5 431.25,0 584.5,0 584.5,-33.5"/>
<text text-anchor="start" x="439.25" y="-20" font-family="Helvetica,sans-Serif" font-size="10.00">stateObservation::algorithm</text>
<text text-anchor="middle" x="507.88" y="-7.25" font-family="Helvetica,sans-Serif" font-size="10.00">::RotationVelocity</text>
</a>
</g>
</g>
<!-- Node8&#45;&gt;Node3 -->
<g id="edge7_Node000003_Node000008" class="edge">
<title>Node8&#45;&gt;Node3</title>
<g id="a_edge7_Node000003_Node000008"><a xlink:title=" ">
<path fill="none" stroke="darkgreen" d="M579.76,-39.46C581.39,-40.51 582.97,-41.61 584.5,-42.75 607.22,-59.73 598.42,-78.26 621.5,-94.75 626.15,-98.07 631.22,-100.97 636.51,-103.51"/>
<polygon fill="darkgreen" stroke="darkgreen" points="581.78,-36.58 571.35,-34.69 578.32,-42.67 581.78,-36.58"/>
</a>
</g>
</g>
<!-- Node9 -->
<g id="Node000009" class="node">
<title>Node9</title>
<g id="a_Node000009"><a xlink:title=" ">
<polygon fill="white" stroke="#666666" points="778.12,-85.88 642.12,-85.88 642.12,-39.62 778.12,-39.62 778.12,-85.88"/>
<text text-anchor="start" x="650.12" y="-72.38" font-family="Helvetica,sans-Serif" font-size="10.00">std::vector&lt; Vector3,</text>
<text text-anchor="start" x="650.12" y="-59.62" font-family="Helvetica,sans-Serif" font-size="10.00"> Eigen::aligned_allocator</text>
<text text-anchor="middle" x="710.12" y="-46.88" font-family="Helvetica,sans-Serif" font-size="10.00">&lt; Vector3 &gt; &gt;</text>
</a>
</g>
</g>
<!-- Node9&#45;&gt;Node1 -->
<g id="edge9_Node000001_Node000009" class="edge">
<title>Node9&#45;&gt;Node1</title>
<g id="a_edge9_Node000001_Node000009"><a xlink:title=" ">
<path fill="none" stroke="#9a32cd" stroke-dasharray="5,2" d="M789.4,-78.55C825.84,-86.55 869.58,-97.1 908.25,-109 929.78,-115.63 952.97,-124.16 973.27,-132.13"/>
<polygon fill="#9a32cd" stroke="#9a32cd" points="790.33,-75.17 779.82,-76.46 788.85,-82.01 790.33,-75.17"/>
</a>
</g>
<text text-anchor="start" x="819.75" y="-115.25" font-family="Helvetica,sans-Serif" font-size="10.00" fill="grey">contactPositions_</text>
</g>
</g>
</svg>
