<?xml version="1.0" encoding="UTF-8" standalone="no"?>
<!DOCTYPE svg PUBLIC "-//W3C//DTD SVG 1.1//EN"
 "http://www.w3.org/Graphics/SVG/1.1/DTD/svg11.dtd">
<!-- Generated by graphviz version 12.2.1 (0)
 -->
<!-- Title: stateObservation::AccelerometerGyrometer Pages: 1 -->
<svg width="574pt" height="146pt"
 viewBox="0.00 0.00 573.50 145.50" xmlns="http://www.w3.org/2000/svg" xmlns:xlink="http://www.w3.org/1999/xlink">
<g id="graph0" class="graph" transform="scale(1 1) rotate(0) translate(4 141.5)">
<title>stateObservation::AccelerometerGyrometer</title>
<!-- Node1 -->
<g id="Node000001" class="node">
<title>Node1</title>
<g id="a_Node000001"><a xlink:title="Implements the accelerometer&#45;gyrometer measurements.">
<polygon fill="#999999" stroke="#666666" points="565.5,-85.5 388.25,-85.5 388.25,-52 565.5,-52 565.5,-85.5"/>
<text text-anchor="start" x="396.25" y="-72" font-family="Helvetica,sans-Serif" font-size="10.00">stateObservation::Accelerometer</text>
<text text-anchor="middle" x="476.88" y="-59.25" font-family="Helvetica,sans-Serif" font-size="10.00">Gyrometer</text>
</a>
</g>
</g>
<!-- Node2 -->
<g id="Node000002" class="node">
<title>Node2</title>
<g id="a_Node000002"><a xlink:href="classstateObservation_1_1AlgebraicSensor.html" target="_top" xlink:title="The base class for algebraic sensors. Algebraic sensors are sensors which depend only on the state va...">
<polygon fill="white" stroke="#666666" points="351.5,-137.5 199.75,-137.5 199.75,-104 351.5,-104 351.5,-137.5"/>
<text text-anchor="start" x="207.75" y="-124" font-family="Helvetica,sans-Serif" font-size="10.00">stateObservation::Algebraic</text>
<text text-anchor="middle" x="275.62" y="-111.25" font-family="Helvetica,sans-Serif" font-size="10.00">Sensor</text>
</a>
</g>
</g>
<!-- Node2&#45;&gt;Node1 -->
<g id="edge1_Node000001_Node000002" class="edge">
<title>Node2&#45;&gt;Node1</title>
<g id="a_edge1_Node000001_Node000002"><a xlink:title=" ">
<path fill="none" stroke="#63b8ff" d="M353.78,-100.61C372.34,-95.77 391.99,-90.64 409.98,-85.95"/>
<polygon fill="#63b8ff" stroke="#63b8ff" points="352.95,-97.21 344.16,-103.12 354.72,-103.99 352.95,-97.21"/>
</a>
</g>
</g>
<!-- Node3 -->
<g id="Node000003" class="node">
<title>Node3</title>
<g id="a_Node000003"><a xlink:href="classstateObservation_1_1SensorBase.html" target="_top" xlink:title="The base class for sensors. This must be derived to implement a sensor.">
<polygon fill="white" stroke="#666666" points="163,-131.12 0,-131.12 0,-110.38 163,-110.38 163,-131.12"/>
<text text-anchor="middle" x="81.5" y="-117.62" font-family="Helvetica,sans-Serif" font-size="10.00">stateObservation::SensorBase</text>
</a>
</g>
</g>
<!-- Node3&#45;&gt;Node2 -->
<g id="edge2_Node000002_Node000003" class="edge">
<title>Node3&#45;&gt;Node2</title>
<g id="a_edge2_Node000002_Node000003"><a xlink:title=" ">
<path fill="none" stroke="#63b8ff" d="M174.93,-120.75C183.1,-120.75 191.3,-120.75 199.31,-120.75"/>
<polygon fill="#63b8ff" stroke="#63b8ff" points="174.94,-117.25 164.94,-120.75 174.93,-124.25 174.94,-117.25"/>
</a>
</g>
</g>
<!-- Node4 -->
<g id="Node000004" class="node">
<title>Node4</title>
<g id="a_Node000004"><a xlink:href="classstateObservation_1_1algorithm_1_1LinearAcceleration.html" target="_top" xlink:title="Implements the measurements given by an accelerometer.">
<polygon fill="white" stroke="#666666" points="352.25,-85.5 199,-85.5 199,-52 352.25,-52 352.25,-85.5"/>
<text text-anchor="start" x="207" y="-72" font-family="Helvetica,sans-Serif" font-size="10.00">stateObservation::algorithm</text>
<text text-anchor="middle" x="275.62" y="-59.25" font-family="Helvetica,sans-Serif" font-size="10.00">::LinearAcceleration</text>
</a>
</g>
</g>
<!-- Node4&#45;&gt;Node1 -->
<g id="edge3_Node000001_Node000004" class="edge">
<title>Node4&#45;&gt;Node1</title>
<g id="a_edge3_Node000001_Node000004"><a xlink:title=" ">
<path fill="none" stroke="darkgreen" d="M364.01,-68.75C371.92,-68.75 379.93,-68.75 387.85,-68.75"/>
<polygon fill="darkgreen" stroke="darkgreen" points="364.03,-65.25 354.03,-68.75 364.03,-72.25 364.03,-65.25"/>
</a>
</g>
</g>
<!-- Node5 -->
<g id="Node000005" class="node">
<title>Node5</title>
<g id="a_Node000005"><a xlink:href="classstateObservation_1_1algorithm_1_1RotationVelocity.html" target="_top" xlink:title="Implements the gyrometer measurement algorithm.">
<polygon fill="white" stroke="#666666" points="352.25,-33.5 199,-33.5 199,0 352.25,0 352.25,-33.5"/>
<text text-anchor="start" x="207" y="-20" font-family="Helvetica,sans-Serif" font-size="10.00">stateObservation::algorithm</text>
<text text-anchor="middle" x="275.62" y="-7.25" font-family="Helvetica,sans-Serif" font-size="10.00">::RotationVelocity</text>
</a>
</g>
</g>
<!-- Node5&#45;&gt;Node1 -->
<g id="edge4_Node000001_Node000005" class="edge">
<title>Node5&#45;&gt;Node1</title>
<g id="a_edge4_Node000001_Node000005"><a xlink:title=" ">
<path fill="none" stroke="darkgreen" d="M353.78,-36.89C372.34,-41.73 391.99,-46.86 409.98,-51.55"/>
<polygon fill="darkgreen" stroke="darkgreen" points="354.72,-33.51 344.16,-34.38 352.95,-40.29 354.72,-33.51"/>
</a>
</g>
</g>
</g>
</svg>
