<?xml version="1.0" encoding="UTF-8" standalone="no"?>
<!DOCTYPE svg PUBLIC "-//W3C//DTD SVG 1.1//EN"
 "http://www.w3.org/Graphics/SVG/1.1/DTD/svg11.dtd">
<!-- Generated by graphviz version 12.2.1 (0)
 -->
<!-- Title: stateObservation::AccelerometerGyrometerMagnetometer Pages: 1 -->
<svg width="574pt" height="198pt"
 viewBox="0.00 0.00 573.50 197.50" xmlns="http://www.w3.org/2000/svg" xmlns:xlink="http://www.w3.org/1999/xlink">
<g id="graph0" class="graph" transform="scale(1 1) rotate(0) translate(4 193.5)">
<title>stateObservation::AccelerometerGyrometerMagnetometer</title>
<!-- Node1 -->
<g id="Node000001" class="node">
<title>Node1</title>
<g id="a_Node000001"><a xlink:title="Implements the accelerometer&#45;gyrometer&#45;magnetometer measurements.">
<polygon fill="#999999" stroke="#666666" points="565.5,-111.5 388.25,-111.5 388.25,-78 565.5,-78 565.5,-111.5"/>
<text text-anchor="start" x="396.25" y="-98" font-family="Helvetica,sans-Serif" font-size="10.00">stateObservation::Accelerometer</text>
<text text-anchor="middle" x="476.88" y="-85.25" font-family="Helvetica,sans-Serif" font-size="10.00">GyrometerMagnetometer</text>
</a>
</g>
</g>
<!-- Node2 -->
<g id="Node000002" class="node">
<title>Node2</title>
<g id="a_Node000002"><a xlink:href="classstateObservation_1_1AlgebraicSensor.html" target="_top" xlink:title="The base class for algebraic sensors. Algebraic sensors are sensors which depend only on the state va...">
<polygon fill="white" stroke="#666666" points="351.5,-189.5 199.75,-189.5 199.75,-156 351.5,-156 351.5,-189.5"/>
<text text-anchor="start" x="207.75" y="-176" font-family="Helvetica,sans-Serif" font-size="10.00">stateObservation::Algebraic</text>
<text text-anchor="middle" x="275.62" y="-163.25" font-family="Helvetica,sans-Serif" font-size="10.00">Sensor</text>
</a>
</g>
</g>
<!-- Node2&#45;&gt;Node1 -->
<g id="edge1_Node000001_Node000002" class="edge">
<title>Node2&#45;&gt;Node1</title>
<g id="a_edge1_Node000001_Node000002"><a xlink:title=" ">
<path fill="none" stroke="#63b8ff" d="M338.75,-151.76C343.33,-150.1 347.87,-148.42 352.25,-146.75 380.86,-135.83 412.69,-122.41 436.89,-111.94"/>
<polygon fill="#63b8ff" stroke="#63b8ff" points="337.71,-148.42 329.47,-155.08 340.07,-155.01 337.71,-148.42"/>
</a>
</g>
</g>
<!-- Node3 -->
<g id="Node000003" class="node">
<title>Node3</title>
<g id="a_Node000003"><a xlink:href="classstateObservation_1_1SensorBase.html" target="_top" xlink:title="The base class for sensors. This must be derived to implement a sensor.">
<polygon fill="white" stroke="#666666" points="163,-183.12 0,-183.12 0,-162.38 163,-162.38 163,-183.12"/>
<text text-anchor="middle" x="81.5" y="-169.62" font-family="Helvetica,sans-Serif" font-size="10.00">stateObservation::SensorBase</text>
</a>
</g>
</g>
<!-- Node3&#45;&gt;Node2 -->
<g id="edge2_Node000002_Node000003" class="edge">
<title>Node3&#45;&gt;Node2</title>
<g id="a_edge2_Node000002_Node000003"><a xlink:title=" ">
<path fill="none" stroke="#63b8ff" d="M174.93,-172.75C183.1,-172.75 191.3,-172.75 199.31,-172.75"/>
<polygon fill="#63b8ff" stroke="#63b8ff" points="174.94,-169.25 164.94,-172.75 174.93,-176.25 174.94,-169.25"/>
</a>
</g>
</g>
<!-- Node4 -->
<g id="Node000004" class="node">
<title>Node4</title>
<g id="a_Node000004"><a xlink:href="classstateObservation_1_1algorithm_1_1LinearAcceleration.html" target="_top" xlink:title="Implements the measurements given by an accelerometer.">
<polygon fill="white" stroke="#666666" points="352.25,-137.5 199,-137.5 199,-104 352.25,-104 352.25,-137.5"/>
<text text-anchor="start" x="207" y="-124" font-family="Helvetica,sans-Serif" font-size="10.00">stateObservation::algorithm</text>
<text text-anchor="middle" x="275.62" y="-111.25" font-family="Helvetica,sans-Serif" font-size="10.00">::LinearAcceleration</text>
</a>
</g>
</g>
<!-- Node4&#45;&gt;Node1 -->
<g id="edge3_Node000001_Node000004" class="edge">
<title>Node4&#45;&gt;Node1</title>
<g id="a_edge3_Node000001_Node000004"><a xlink:title=" ">
<path fill="none" stroke="darkgreen" d="M363.73,-109.38C371.73,-108.34 379.84,-107.28 387.85,-106.24"/>
<polygon fill="darkgreen" stroke="darkgreen" points="363.49,-105.89 354.02,-110.65 364.39,-112.83 363.49,-105.89"/>
</a>
</g>
</g>
<!-- Node5 -->
<g id="Node000005" class="node">
<title>Node5</title>
<g id="a_Node000005"><a xlink:href="classstateObservation_1_1algorithm_1_1RotationVelocity.html" target="_top" xlink:title="Implements the gyrometer measurement algorithm.">
<polygon fill="white" stroke="#666666" points="352.25,-85.5 199,-85.5 199,-52 352.25,-52 352.25,-85.5"/>
<text text-anchor="start" x="207" y="-72" font-family="Helvetica,sans-Serif" font-size="10.00">stateObservation::algorithm</text>
<text text-anchor="middle" x="275.62" y="-59.25" font-family="Helvetica,sans-Serif" font-size="10.00">::RotationVelocity</text>
</a>
</g>
</g>
<!-- Node5&#45;&gt;Node1 -->
<g id="edge4_Node000001_Node000005" class="edge">
<title>Node5&#45;&gt;Node1</title>
<g id="a_edge4_Node000001_Node000005"><a xlink:title=" ">
<path fill="none" stroke="darkgreen" d="M363.73,-80.12C371.73,-81.16 379.84,-82.22 387.85,-83.26"/>
<polygon fill="darkgreen" stroke="darkgreen" points="364.39,-76.67 354.02,-78.85 363.49,-83.61 364.39,-76.67"/>
</a>
</g>
</g>
<!-- Node6 -->
<g id="Node000006" class="node">
<title>Node6</title>
<g id="a_Node000006"><a xlink:href="classstateObservation_1_1algorithm_1_1MagneticField.html" target="_top" xlink:title="Implements the measurements given by an magnetometer.">
<polygon fill="white" stroke="#666666" points="352.25,-33.5 199,-33.5 199,0 352.25,0 352.25,-33.5"/>
<text text-anchor="start" x="207" y="-20" font-family="Helvetica,sans-Serif" font-size="10.00">stateObservation::algorithm</text>
<text text-anchor="middle" x="275.62" y="-7.25" font-family="Helvetica,sans-Serif" font-size="10.00">::MagneticField</text>
</a>
</g>
</g>
<!-- Node6&#45;&gt;Node1 -->
<g id="edge5_Node000001_Node000006" class="edge">
<title>Node6&#45;&gt;Node1</title>
<g id="a_edge5_Node000001_Node000006"><a xlink:title=" ">
<path fill="none" stroke="darkgreen" d="M338.75,-37.74C343.33,-39.4 347.87,-41.08 352.25,-42.75 380.86,-53.67 412.69,-67.09 436.89,-77.56"/>
<polygon fill="darkgreen" stroke="darkgreen" points="340.07,-34.49 329.47,-34.42 337.71,-41.08 340.07,-34.49"/>
</a>
</g>
</g>
</g>
</svg>
