<?xml version="1.0" encoding="UTF-8" standalone="no"?>
<!DOCTYPE svg PUBLIC "-//W3C//DTD SVG 1.1//EN"
 "http://www.w3.org/Graphics/SVG/1.1/DTD/svg11.dtd">
<!-- Generated by graphviz version 12.2.1 (0)
 -->
<!-- Title: stateObservation::flexibilityEstimation::IMUElasticLocalFrameDynamicalSystem Pages: 1 -->
<svg width="1223pt" height="331pt"
 viewBox="0.00 0.00 1223.00 330.50" xmlns="http://www.w3.org/2000/svg" xmlns:xlink="http://www.w3.org/1999/xlink">
<g id="graph0" class="graph" transform="scale(1 1) rotate(0) translate(4 326.5)">
<title>stateObservation::flexibilityEstimation::IMUElasticLocalFrameDynamicalSystem</title>
<!-- Node1 -->
<g id="Node000001" class="node">
<title>Node1</title>
<g id="a_Node000001"><a xlink:title="This class describes the dynamics of a robot&#39;s flexibility this dynamics with elastic forces to bring...">
<polygon fill="#999999" stroke="#666666" points="1215,-197.88 1032.5,-197.88 1032.5,-151.62 1215,-151.62 1215,-197.88"/>
<text text-anchor="start" x="1040.5" y="-184.38" font-family="Helvetica,sans-Serif" font-size="10.00">stateObservation::flexibility</text>
<text text-anchor="start" x="1040.5" y="-171.62" font-family="Helvetica,sans-Serif" font-size="10.00">Estimation::IMUElasticLocalFrame</text>
<text text-anchor="middle" x="1123.75" y="-158.88" font-family="Helvetica,sans-Serif" font-size="10.00">DynamicalSystem</text>
</a>
</g>
</g>
<!-- Node2 -->
<g id="Node000002" class="node">
<title>Node2</title>
<g id="a_Node000002"><a xlink:href="classstateObservation_1_1DynamicalSystemFunctorBase.html" target="_top" xlink:title="This is the base class of any functor that describes the dynamics of the state and the measurement....">
<polygon fill="white" stroke="#666666" points="893,-322.5 734.5,-322.5 734.5,-289 893,-289 893,-322.5"/>
<text text-anchor="start" x="742.5" y="-309" font-family="Helvetica,sans-Serif" font-size="10.00">stateObservation::Dynamical</text>
<text text-anchor="middle" x="813.75" y="-296.25" font-family="Helvetica,sans-Serif" font-size="10.00">SystemFunctorBase</text>
</a>
</g>
</g>
<!-- Node2&#45;&gt;Node1 -->
<g id="edge1_Node000001_Node000002" class="edge">
<title>Node2&#45;&gt;Node1</title>
<g id="a_edge1_Node000001_Node000002"><a xlink:title=" ">
<path fill="none" stroke="#63b8ff" d="M904.69,-303.06C940.3,-299.16 980.71,-291.07 1014.5,-274.75 1051.82,-256.73 1085.26,-221.47 1104.78,-198.01"/>
<polygon fill="#63b8ff" stroke="#63b8ff" points="904.43,-299.57 894.82,-304.03 905.11,-306.53 904.43,-299.57"/>
</a>
</g>
</g>
<!-- Node3 -->
<g id="Node000003" class="node">
<title>Node3</title>
<g id="a_Node000003"><a xlink:href="classstateObservation_1_1AccelerometerGyrometer.html" target="_top" xlink:title="Implements the accelerometer&#45;gyrometer measurements.">
<polygon fill="white" stroke="#666666" points="902.38,-191.5 725.12,-191.5 725.12,-158 902.38,-158 902.38,-191.5"/>
<text text-anchor="start" x="733.12" y="-178" font-family="Helvetica,sans-Serif" font-size="10.00">stateObservation::Accelerometer</text>
<text text-anchor="middle" x="813.75" y="-165.25" font-family="Helvetica,sans-Serif" font-size="10.00">Gyrometer</text>
</a>
</g>
</g>
<!-- Node3&#45;&gt;Node1 -->
<g id="edge2_Node000001_Node000003" class="edge">
<title>Node3&#45;&gt;Node1</title>
<g id="a_edge2_Node000001_Node000003"><a xlink:title=" ">
<path fill="none" stroke="#9a32cd" stroke-dasharray="5,2" d="M913.7,-174.75C951.72,-174.75 994.9,-174.75 1032.11,-174.75"/>
<polygon fill="#9a32cd" stroke="#9a32cd" points="914.11,-171.25 904.11,-174.75 914.11,-178.25 914.11,-171.25"/>
</a>
</g>
<text text-anchor="start" x="950" y="-181" font-family="Helvetica,sans-Serif" font-size="10.00" fill="grey">sensor_</text>
</g>
<!-- Node4 -->
<g id="Node000004" class="node">
<title>Node4</title>
<g id="a_Node000004"><a xlink:href="classstateObservation_1_1AlgebraicSensor.html" target="_top" xlink:title="The base class for algebraic sensors. Algebraic sensors are sensors which depend only on the state va...">
<polygon fill="white" stroke="#666666" points="583.75,-224.5 432,-224.5 432,-191 583.75,-191 583.75,-224.5"/>
<text text-anchor="start" x="440" y="-211" font-family="Helvetica,sans-Serif" font-size="10.00">stateObservation::Algebraic</text>
<text text-anchor="middle" x="507.88" y="-198.25" font-family="Helvetica,sans-Serif" font-size="10.00">Sensor</text>
</a>
</g>
</g>
<!-- Node4&#45;&gt;Node3 -->
<g id="edge3_Node000003_Node000004" class="edge">
<title>Node4&#45;&gt;Node3</title>
<g id="a_edge3_Node000003_Node000004"><a xlink:title=" ">
<path fill="none" stroke="#63b8ff" d="M595.21,-198.37C635.75,-193.97 684.01,-188.73 724.76,-184.31"/>
<polygon fill="#63b8ff" stroke="#63b8ff" points="595.06,-194.87 585.49,-199.43 595.81,-201.83 595.06,-194.87"/>
</a>
</g>
</g>
<!-- Node5 -->
<g id="Node000005" class="node">
<title>Node5</title>
<g id="a_Node000005"><a xlink:href="classstateObservation_1_1SensorBase.html" target="_top" xlink:title="The base class for sensors. This must be derived to implement a sensor.">
<polygon fill="white" stroke="#666666" points="394.25,-229.12 231.25,-229.12 231.25,-208.38 394.25,-208.38 394.25,-229.12"/>
<text text-anchor="middle" x="312.75" y="-215.62" font-family="Helvetica,sans-Serif" font-size="10.00">stateObservation::SensorBase</text>
</a>
</g>
</g>
<!-- Node5&#45;&gt;Node4 -->
<g id="edge4_Node000004_Node000005" class="edge">
<title>Node5&#45;&gt;Node4</title>
<g id="a_edge4_Node000004_Node000005"><a xlink:title=" ">
<path fill="none" stroke="#63b8ff" d="M405.85,-213.5C414.5,-213.01 423.19,-212.52 431.66,-212.03"/>
<polygon fill="#63b8ff" stroke="#63b8ff" points="405.83,-210 396.04,-214.06 406.23,-216.99 405.83,-210"/>
</a>
</g>
</g>
<!-- Node6 -->
<g id="Node000006" class="node">
<title>Node6</title>
<g id="a_Node000006"><a xlink:href="classstateObservation_1_1NoiseBase.html" target="_top" xlink:title=" ">
<polygon fill="white" stroke="#bfbfbf" points="157.75,-250.12 0,-250.12 0,-229.38 157.75,-229.38 157.75,-250.12"/>
<text text-anchor="middle" x="78.88" y="-236.62" font-family="Helvetica,sans-Serif" font-size="10.00">stateObservation::NoiseBase</text>
</a>
</g>
</g>
<!-- Node6&#45;&gt;Node1 -->
<g id="edge8_Node000001_Node000006" class="edge">
<title>Node6&#45;&gt;Node1</title>
<g id="a_edge8_Node000001_Node000006"><a xlink:title=" ">
<path fill="none" stroke="#9a32cd" stroke-dasharray="5,2" d="M169.36,-251.65C212.33,-256.39 264.63,-260.75 311.75,-260.75 311.75,-260.75 311.75,-260.75 814.75,-260.75 907.88,-260.75 1011.21,-223.82 1071.38,-198.36"/>
<polygon fill="#9a32cd" stroke="#9a32cd" points="169.9,-248.19 159.57,-250.54 169.11,-255.15 169.9,-248.19"/>
</a>
</g>
<text text-anchor="start" x="472.62" y="-267" font-family="Helvetica,sans-Serif" font-size="10.00" fill="grey">processNoise_</text>
</g>
<!-- Node6&#45;&gt;Node5 -->
<g id="edge5_Node000005_Node000006" class="edge">
<title>Node6&#45;&gt;Node5</title>
<g id="a_edge5_Node000005_Node000006"><a xlink:title=" ">
<path fill="none" stroke="#9a32cd" stroke-dasharray="5,2" d="M169.47,-228.62C171.59,-228.4 173.68,-228.2 175.75,-228 193.54,-226.31 212.66,-224.81 230.79,-223.54"/>
<polygon fill="#9a32cd" stroke="#9a32cd" points="169.15,-225.13 159.57,-229.66 169.88,-232.09 169.15,-225.13"/>
</a>
</g>
<text text-anchor="start" x="178.75" y="-234.25" font-family="Helvetica,sans-Serif" font-size="10.00" fill="grey">noise_</text>
</g>
<!-- Node7 -->
<g id="Node000007" class="node">
<title>Node7</title>
<g id="a_Node000007"><a xlink:href="classstateObservation_1_1algorithm_1_1LinearAcceleration.html" target="_top" xlink:title="Implements the measurements given by an accelerometer.">
<polygon fill="white" stroke="#666666" points="584.5,-172.5 431.25,-172.5 431.25,-139 584.5,-139 584.5,-172.5"/>
<text text-anchor="start" x="439.25" y="-159" font-family="Helvetica,sans-Serif" font-size="10.00">stateObservation::algorithm</text>
<text text-anchor="middle" x="507.88" y="-146.25" font-family="Helvetica,sans-Serif" font-size="10.00">::LinearAcceleration</text>
</a>
</g>
</g>
<!-- Node7&#45;&gt;Node3 -->
<g id="edge6_Node000003_Node000007" class="edge">
<title>Node7&#45;&gt;Node3</title>
<g id="a_edge6_Node000003_Node000007"><a xlink:title=" ">
<path fill="none" stroke="darkgreen" d="M596.2,-161.21C636.5,-163.73 684.24,-166.72 724.64,-169.24"/>
<polygon fill="darkgreen" stroke="darkgreen" points="596.48,-157.72 586.28,-160.59 596.04,-164.71 596.48,-157.72"/>
</a>
</g>
</g>
<!-- Node8 -->
<g id="Node000008" class="node">
<title>Node8</title>
<g id="a_Node000008"><a xlink:href="classstateObservation_1_1algorithm_1_1RotationVelocity.html" target="_top" xlink:title="Implements the gyrometer measurement algorithm.">
<polygon fill="white" stroke="#666666" points="584.5,-120.5 431.25,-120.5 431.25,-87 584.5,-87 584.5,-120.5"/>
<text text-anchor="start" x="439.25" y="-107" font-family="Helvetica,sans-Serif" font-size="10.00">stateObservation::algorithm</text>
<text text-anchor="middle" x="507.88" y="-94.25" font-family="Helvetica,sans-Serif" font-size="10.00">::RotationVelocity</text>
</a>
</g>
</g>
<!-- Node8&#45;&gt;Node3 -->
<g id="edge7_Node000003_Node000008" class="edge">
<title>Node8&#45;&gt;Node3</title>
<g id="a_edge7_Node000003_Node000008"><a xlink:title=" ">
<path fill="none" stroke="darkgreen" d="M593.52,-123.53C639.25,-134.21 695.16,-147.28 739.08,-157.54"/>
<polygon fill="darkgreen" stroke="darkgreen" points="594.44,-120.15 583.91,-121.28 592.85,-126.96 594.44,-120.15"/>
</a>
</g>
</g>
<!-- Node9 -->
<g id="Node000009" class="node">
<title>Node9</title>
<g id="a_Node000009"><a xlink:title=" ">
<polygon fill="white" stroke="#666666" points="881.75,-139.88 745.75,-139.88 745.75,-93.62 881.75,-93.62 881.75,-139.88"/>
<text text-anchor="start" x="753.75" y="-126.38" font-family="Helvetica,sans-Serif" font-size="10.00">std::vector&lt; Vector3,</text>
<text text-anchor="start" x="753.75" y="-113.62" font-family="Helvetica,sans-Serif" font-size="10.00"> Eigen::aligned_allocator</text>
<text text-anchor="middle" x="813.75" y="-100.88" font-family="Helvetica,sans-Serif" font-size="10.00">&lt; Vector3 &gt; &gt;</text>
</a>
</g>
</g>
<!-- Node9&#45;&gt;Node1 -->
<g id="edge9_Node000001_Node000009" class="edge">
<title>Node9&#45;&gt;Node1</title>
<g id="a_edge9_Node000001_Node000009"><a xlink:title=" ">
<path fill="none" stroke="#9a32cd" stroke-dasharray="5,2" d="M893.08,-129.97C929.97,-136.35 974.55,-144.28 1014.5,-152 1020.25,-153.11 1026.17,-154.28 1032.13,-155.48"/>
<polygon fill="#9a32cd" stroke="#9a32cd" points="893.83,-126.54 883.38,-128.3 892.64,-133.44 893.83,-126.54"/>
</a>
</g>
<text text-anchor="start" x="926" y="-158.25" font-family="Helvetica,sans-Serif" font-size="10.00" fill="grey">contactPositions_</text>
</g>
<!-- Node10 -->
<g id="Node000010" class="node">
<title>Node10</title>
<g id="a_Node000010"><a xlink:href="structstateObservation_1_1flexibilityEstimation_1_1IMUElasticLocalFrameDynamicalSystem_1_1Optimization.html" target="_top" xlink:title=" ">
<polygon fill="white" stroke="#bfbfbf" points="905,-73.88 722.5,-73.88 722.5,-27.62 905,-27.62 905,-73.88"/>
<text text-anchor="start" x="730.5" y="-60.38" font-family="Helvetica,sans-Serif" font-size="10.00">stateObservation::flexibility</text>
<text text-anchor="start" x="730.5" y="-47.62" font-family="Helvetica,sans-Serif" font-size="10.00">Estimation::IMUElasticLocalFrame</text>
<text text-anchor="middle" x="813.75" y="-34.88" font-family="Helvetica,sans-Serif" font-size="10.00">DynamicalSystem::Optimization</text>
</a>
</g>
</g>
<!-- Node10&#45;&gt;Node1 -->
<g id="edge10_Node000001_Node000010" class="edge">
<title>Node10&#45;&gt;Node1</title>
<g id="a_edge10_Node000001_Node000010"><a xlink:title=" ">
<path fill="none" stroke="#9a32cd" stroke-dasharray="5,2" d="M915.52,-77.52C947.69,-87.29 983.08,-99.33 1014.5,-113 1039.3,-123.79 1065.69,-138.76 1086.21,-151.26"/>
<polygon fill="#9a32cd" stroke="#9a32cd" points="916.78,-74.24 906.2,-74.73 914.78,-80.95 916.78,-74.24"/>
</a>
</g>
<text text-anchor="start" x="960.12" y="-119.25" font-family="Helvetica,sans-Serif" font-size="10.00" fill="grey">op_</text>
</g>
<!-- Node11 -->
<g id="Node000011" class="node">
<title>Node11</title>
<g id="a_Node000011"><a xlink:href="classstateObservation_1_1IndexedMatrixArrayT.html" target="_top" xlink:title=" ">
<polygon fill="white" stroke="#666666" points="580,-33.5 435.75,-33.5 435.75,0 580,0 580,-33.5"/>
<text text-anchor="start" x="443.75" y="-20" font-family="Helvetica,sans-Serif" font-size="10.00">stateObservation::Indexed</text>
<text text-anchor="middle" x="507.88" y="-7.25" font-family="Helvetica,sans-Serif" font-size="10.00">MatrixArrayT&lt; Vector &gt;</text>
</a>
</g>
</g>
<!-- Node11&#45;&gt;Node10 -->
<g id="edge11_Node000010_Node000011" class="edge">
<title>Node11&#45;&gt;Node10</title>
<g id="a_edge11_Node000010_Node000011"><a xlink:title=" ">
<path fill="none" stroke="#9a32cd" stroke-dasharray="5,2" d="M591.49,-12.05C626.52,-11.4 667.68,-12.43 704.5,-18 717.99,-20.04 732.14,-23.39 745.59,-27.18"/>
<polygon fill="#9a32cd" stroke="#9a32cd" points="591.77,-8.54 581.86,-12.28 591.94,-15.54 591.77,-8.54"/>
</a>
</g>
<text text-anchor="start" x="605.5" y="-91.25" font-family="Helvetica,sans-Serif" font-size="10.00" fill="grey">contactAngVelArray</text>
<text text-anchor="start" x="605.5" y="-74.5" font-family="Helvetica,sans-Serif" font-size="10.00" fill="grey">contactOriV</text>
<text text-anchor="start" x="605.5" y="-57.75" font-family="Helvetica,sans-Serif" font-size="10.00" fill="grey">contactPosV</text>
<text text-anchor="start" x="605.5" y="-41" font-family="Helvetica,sans-Serif" font-size="10.00" fill="grey">contactVelArray</text>
<text text-anchor="start" x="605.5" y="-24.25" font-family="Helvetica,sans-Serif" font-size="10.00" fill="grey">efforts</text>
</g>
</g>
</svg>
