<?xml version="1.0" encoding="UTF-8" standalone="no"?>
<!DOCTYPE svg PUBLIC "-//W3C//DTD SVG 1.1//EN"
 "http://www.w3.org/Graphics/SVG/1.1/DTD/svg11.dtd">
<!-- Generated by graphviz version 12.2.1 (0)
 -->
<!-- Title: stateObservation::BidimElasticInvPendulum Pages: 1 -->
<svg width="342pt" height="130pt"
 viewBox="0.00 0.00 342.12 129.75" xmlns="http://www.w3.org/2000/svg" xmlns:xlink="http://www.w3.org/1999/xlink">
<g id="graph0" class="graph" transform="scale(1 1) rotate(0) translate(4 125.75)">
<title>stateObservation::BidimElasticInvPendulum</title>
<!-- Node1 -->
<g id="Node000001" class="node">
<title>Node1</title>
<g id="a_Node000001"><a xlink:title="The class is an implementation of the dynamical system defined by a 2D inverted pendulum with an elas...">
<polygon fill="#999999" stroke="#666666" points="250.62,-33.5 83.88,-33.5 83.88,0 250.62,0 250.62,-33.5"/>
<text text-anchor="start" x="91.88" y="-20" font-family="Helvetica,sans-Serif" font-size="10.00">stateObservation::BidimElastic</text>
<text text-anchor="middle" x="167.25" y="-7.25" font-family="Helvetica,sans-Serif" font-size="10.00">InvPendulum</text>
</a>
</g>
</g>
<!-- Node2 -->
<g id="Node000002" class="node">
<title>Node2</title>
<g id="a_Node000002"><a xlink:href="classstateObservation_1_1DynamicalSystemFunctorBase.html" target="_top" xlink:title="This is the base class of any functor that describes the dynamics of the state and the measurement....">
<polygon fill="white" stroke="#666666" points="158.5,-121.75 0,-121.75 0,-88.25 158.5,-88.25 158.5,-121.75"/>
<text text-anchor="start" x="8" y="-108.25" font-family="Helvetica,sans-Serif" font-size="10.00">stateObservation::Dynamical</text>
<text text-anchor="middle" x="79.25" y="-95.5" font-family="Helvetica,sans-Serif" font-size="10.00">SystemFunctorBase</text>
</a>
</g>
</g>
<!-- Node2&#45;&gt;Node1 -->
<g id="edge1_Node000001_Node000002" class="edge">
<title>Node2&#45;&gt;Node1</title>
<g id="a_edge1_Node000001_Node000002"><a xlink:title=" ">
<path fill="none" stroke="#63b8ff" d="M103.69,-80.05C118.7,-65.34 137.52,-46.89 150.77,-33.9"/>
<polygon fill="#63b8ff" stroke="#63b8ff" points="101.57,-77.22 96.88,-86.72 106.47,-82.22 101.57,-77.22"/>
</a>
</g>
</g>
<!-- Node3 -->
<g id="Node000003" class="node">
<title>Node3</title>
<g id="a_Node000003"><a xlink:href="classstateObservation_1_1NoiseBase.html" target="_top" xlink:title=" ">
<polygon fill="white" stroke="#bfbfbf" points="334.12,-115.38 176.38,-115.38 176.38,-94.62 334.12,-94.62 334.12,-115.38"/>
<text text-anchor="middle" x="255.25" y="-101.88" font-family="Helvetica,sans-Serif" font-size="10.00">stateObservation::NoiseBase</text>
</a>
</g>
</g>
<!-- Node3&#45;&gt;Node1 -->
<g id="edge2_Node000001_Node000003" class="edge">
<title>Node3&#45;&gt;Node1</title>
<g id="a_edge2_Node000001_Node000003"><a xlink:title=" ">
<path fill="none" stroke="#9a32cd" stroke-dasharray="5,2" d="M237.57,-86.67C221.83,-71.24 198.97,-48.83 183.63,-33.8"/>
<polygon fill="#9a32cd" stroke="#9a32cd" points="234.82,-88.88 244.42,-93.38 239.72,-83.88 234.82,-88.88"/>
</a>
</g>
<text text-anchor="start" x="222.13" y="-57.75" font-family="Helvetica,sans-Serif" font-size="10.00" fill="grey">processNoise_</text>
</g>
</g>
</svg>
