<?xml version="1.0" encoding="UTF-8" standalone="no"?>
<!DOCTYPE svg PUBLIC "-//W3C//DTD SVG 1.1//EN"
 "http://www.w3.org/Graphics/SVG/1.1/DTD/svg11.dtd">
<!-- Generated by graphviz version 12.2.1 (0)
 -->
<!-- Title: stateObservation::algorithm::LinearAcceleration Pages: 1 -->
<svg width="375pt" height="94pt"
 viewBox="0.00 0.00 374.50 93.50" xmlns="http://www.w3.org/2000/svg" xmlns:xlink="http://www.w3.org/1999/xlink">
<g id="graph0" class="graph" transform="scale(1 1) rotate(0) translate(4 89.5)">
<title>stateObservation::algorithm::LinearAcceleration</title>
<!-- Node1 -->
<g id="Node000001" class="node">
<title>Node1</title>
<g id="a_Node000001"><a xlink:title="Implements the measurements given by an accelerometer.">
<polygon fill="#999999" stroke="#666666" points="153.25,-59.5 0,-59.5 0,-26 153.25,-26 153.25,-59.5"/>
<text text-anchor="start" x="8" y="-46" font-family="Helvetica,sans-Serif" font-size="10.00">stateObservation::algorithm</text>
<text text-anchor="middle" x="76.62" y="-33.25" font-family="Helvetica,sans-Serif" font-size="10.00">::LinearAcceleration</text>
</a>
</g>
</g>
<!-- Node2 -->
<g id="Node000002" class="node">
<title>Node2</title>
<g id="a_Node000002"><a xlink:href="classstateObservation_1_1AccelerometerGyrometer.html" target="_top" xlink:title="Implements the accelerometer&#45;gyrometer measurements.">
<polygon fill="white" stroke="#666666" points="366.5,-85.5 189.25,-85.5 189.25,-52 366.5,-52 366.5,-85.5"/>
<text text-anchor="start" x="197.25" y="-72" font-family="Helvetica,sans-Serif" font-size="10.00">stateObservation::Accelerometer</text>
<text text-anchor="middle" x="277.88" y="-59.25" font-family="Helvetica,sans-Serif" font-size="10.00">Gyrometer</text>
</a>
</g>
</g>
<!-- Node1&#45;&gt;Node2 -->
<g id="edge1_Node000001_Node000002" class="edge">
<title>Node1&#45;&gt;Node2</title>
<g id="a_edge1_Node000001_Node000002"><a xlink:title=" ">
<path fill="none" stroke="darkgreen" d="M164.73,-54.12C172.73,-55.16 180.84,-56.22 188.85,-57.26"/>
<polygon fill="darkgreen" stroke="darkgreen" points="165.39,-50.67 155.02,-52.85 164.49,-57.61 165.39,-50.67"/>
</a>
</g>
</g>
<!-- Node3 -->
<g id="Node000003" class="node">
<title>Node3</title>
<g id="a_Node000003"><a xlink:href="classstateObservation_1_1AccelerometerGyrometerMagnetometer.html" target="_top" xlink:title="Implements the accelerometer&#45;gyrometer&#45;magnetometer measurements.">
<polygon fill="white" stroke="#666666" points="366.5,-33.5 189.25,-33.5 189.25,0 366.5,0 366.5,-33.5"/>
<text text-anchor="start" x="197.25" y="-20" font-family="Helvetica,sans-Serif" font-size="10.00">stateObservation::Accelerometer</text>
<text text-anchor="middle" x="277.88" y="-7.25" font-family="Helvetica,sans-Serif" font-size="10.00">GyrometerMagnetometer</text>
</a>
</g>
</g>
<!-- Node1&#45;&gt;Node3 -->
<g id="edge2_Node000001_Node000003" class="edge">
<title>Node1&#45;&gt;Node3</title>
<g id="a_edge2_Node000001_Node000003"><a xlink:title=" ">
<path fill="none" stroke="darkgreen" d="M164.73,-31.38C172.73,-30.34 180.84,-29.28 188.85,-28.24"/>
<polygon fill="darkgreen" stroke="darkgreen" points="164.49,-27.89 155.02,-32.65 165.39,-34.83 164.49,-27.89"/>
</a>
</g>
</g>
</g>
</svg>
