<?xml version="1.0" encoding="UTF-8" standalone="no"?>
<!DOCTYPE svg PUBLIC "-//W3C//DTD SVG 1.1//EN"
 "http://www.w3.org/Graphics/SVG/1.1/DTD/svg11.dtd">
<!-- Generated by graphviz version 12.2.1 (0)
 -->
<!-- Title: stateObservation::IMUMagnetometerDynamicalSystem Pages: 1 -->
<svg width="1084pt" height="296pt"
 viewBox="0.00 0.00 1083.75 295.50" xmlns="http://www.w3.org/2000/svg" xmlns:xlink="http://www.w3.org/1999/xlink">
<g id="graph0" class="graph" transform="scale(1 1) rotate(0) translate(4 291.5)">
<title>stateObservation::IMUMagnetometerDynamicalSystem</title>
<!-- Node1 -->
<g id="Node000001" class="node">
<title>Node1</title>
<g id="a_Node000001"><a xlink:title="The class is an implementation of the dynamical system defined by an inertial measurement unit (IMU) ...">
<polygon fill="#999999" stroke="#666666" points="1075.75,-242.5 878.25,-242.5 878.25,-209 1075.75,-209 1075.75,-242.5"/>
<text text-anchor="start" x="886.25" y="-229" font-family="Helvetica,sans-Serif" font-size="10.00">stateObservation::IMUMagnetometer</text>
<text text-anchor="middle" x="977" y="-216.25" font-family="Helvetica,sans-Serif" font-size="10.00">DynamicalSystem</text>
</a>
</g>
</g>
<!-- Node2 -->
<g id="Node000002" class="node">
<title>Node2</title>
<g id="a_Node000002"><a xlink:href="classstateObservation_1_1DynamicalSystemFunctorBase.html" target="_top" xlink:title="This is the base class of any functor that describes the dynamics of the state and the measurement....">
<polygon fill="white" stroke="#666666" points="789.38,-287.5 630.88,-287.5 630.88,-254 789.38,-254 789.38,-287.5"/>
<text text-anchor="start" x="638.88" y="-274" font-family="Helvetica,sans-Serif" font-size="10.00">stateObservation::Dynamical</text>
<text text-anchor="middle" x="710.12" y="-261.25" font-family="Helvetica,sans-Serif" font-size="10.00">SystemFunctorBase</text>
</a>
</g>
</g>
<!-- Node2&#45;&gt;Node1 -->
<g id="edge1_Node000001_Node000002" class="edge">
<title>Node2&#45;&gt;Node1</title>
<g id="a_edge1_Node000001_Node000002"><a xlink:title=" ">
<path fill="none" stroke="#63b8ff" d="M800.77,-255.52C825.63,-251.3 852.75,-246.69 878.06,-242.39"/>
<polygon fill="#63b8ff" stroke="#63b8ff" points="800.29,-252.05 791.01,-257.18 801.46,-258.95 800.29,-252.05"/>
</a>
</g>
</g>
<!-- Node3 -->
<g id="Node000003" class="node">
<title>Node3</title>
<g id="a_Node000003"><a xlink:href="classstateObservation_1_1AccelerometerGyrometerMagnetometer.html" target="_top" xlink:title="Implements the accelerometer&#45;gyrometer&#45;magnetometer measurements.">
<polygon fill="white" stroke="#666666" points="798.75,-137.5 621.5,-137.5 621.5,-104 798.75,-104 798.75,-137.5"/>
<text text-anchor="start" x="629.5" y="-124" font-family="Helvetica,sans-Serif" font-size="10.00">stateObservation::Accelerometer</text>
<text text-anchor="middle" x="710.12" y="-111.25" font-family="Helvetica,sans-Serif" font-size="10.00">GyrometerMagnetometer</text>
</a>
</g>
</g>
<!-- Node3&#45;&gt;Node1 -->
<g id="edge2_Node000001_Node000003" class="edge">
<title>Node3&#45;&gt;Node1</title>
<g id="a_edge2_Node000001_Node000003"><a xlink:title=" ">
<path fill="none" stroke="#9a32cd" stroke-dasharray="5,2" d="M765.06,-142.13C814.48,-161.72 886.72,-190.36 932.53,-208.52"/>
<polygon fill="#9a32cd" stroke="#9a32cd" points="766.56,-138.96 755.97,-138.53 763.98,-145.47 766.56,-138.96"/>
</a>
</g>
<text text-anchor="start" x="819.75" y="-185.79" font-family="Helvetica,sans-Serif" font-size="10.00" fill="grey">sensor_</text>
</g>
<!-- Node4 -->
<g id="Node000004" class="node">
<title>Node4</title>
<g id="a_Node000004"><a xlink:href="classstateObservation_1_1AlgebraicSensor.html" target="_top" xlink:title="The base class for algebraic sensors. Algebraic sensors are sensors which depend only on the state va...">
<polygon fill="white" stroke="#666666" points="583.75,-189.5 432,-189.5 432,-156 583.75,-156 583.75,-189.5"/>
<text text-anchor="start" x="440" y="-176" font-family="Helvetica,sans-Serif" font-size="10.00">stateObservation::Algebraic</text>
<text text-anchor="middle" x="507.88" y="-163.25" font-family="Helvetica,sans-Serif" font-size="10.00">Sensor</text>
</a>
</g>
</g>
<!-- Node4&#45;&gt;Node3 -->
<g id="edge3_Node000003_Node000004" class="edge">
<title>Node4&#45;&gt;Node3</title>
<g id="a_edge3_Node000003_Node000004"><a xlink:title=" ">
<path fill="none" stroke="#63b8ff" d="M586.42,-152.61C605.07,-147.77 624.82,-142.64 642.9,-137.95"/>
<polygon fill="#63b8ff" stroke="#63b8ff" points="585.54,-149.23 576.74,-155.13 587.3,-156 585.54,-149.23"/>
</a>
</g>
</g>
<!-- Node5 -->
<g id="Node000005" class="node">
<title>Node5</title>
<g id="a_Node000005"><a xlink:href="classstateObservation_1_1SensorBase.html" target="_top" xlink:title="The base class for sensors. This must be derived to implement a sensor.">
<polygon fill="white" stroke="#666666" points="394.25,-194.12 231.25,-194.12 231.25,-173.38 394.25,-173.38 394.25,-194.12"/>
<text text-anchor="middle" x="312.75" y="-180.62" font-family="Helvetica,sans-Serif" font-size="10.00">stateObservation::SensorBase</text>
</a>
</g>
</g>
<!-- Node5&#45;&gt;Node4 -->
<g id="edge4_Node000004_Node000005" class="edge">
<title>Node5&#45;&gt;Node4</title>
<g id="a_edge4_Node000004_Node000005"><a xlink:title=" ">
<path fill="none" stroke="#63b8ff" d="M405.85,-178.5C414.5,-178.01 423.19,-177.52 431.66,-177.03"/>
<polygon fill="#63b8ff" stroke="#63b8ff" points="405.83,-175 396.04,-179.06 406.23,-181.99 405.83,-175"/>
</a>
</g>
</g>
<!-- Node6 -->
<g id="Node000006" class="node">
<title>Node6</title>
<g id="a_Node000006"><a xlink:href="classstateObservation_1_1NoiseBase.html" target="_top" xlink:title=" ">
<polygon fill="white" stroke="#bfbfbf" points="157.75,-215.12 0,-215.12 0,-194.38 157.75,-194.38 157.75,-215.12"/>
<text text-anchor="middle" x="78.88" y="-201.62" font-family="Helvetica,sans-Serif" font-size="10.00">stateObservation::NoiseBase</text>
</a>
</g>
</g>
<!-- Node6&#45;&gt;Node1 -->
<g id="edge9_Node000001_Node000006" class="edge">
<title>Node6&#45;&gt;Node1</title>
<g id="a_edge9_Node000001_Node000006"><a xlink:title=" ">
<path fill="none" stroke="#9a32cd" stroke-dasharray="5,2" d="M169.36,-216.65C212.33,-221.39 264.63,-225.75 311.75,-225.75 311.75,-225.75 311.75,-225.75 711.12,-225.75 766.31,-225.75 827.96,-225.75 877.88,-225.75"/>
<polygon fill="#9a32cd" stroke="#9a32cd" points="169.9,-213.19 159.57,-215.54 169.11,-220.15 169.9,-213.19"/>
</a>
</g>
<text text-anchor="start" x="472.62" y="-232" font-family="Helvetica,sans-Serif" font-size="10.00" fill="grey">processNoise_</text>
</g>
<!-- Node6&#45;&gt;Node5 -->
<g id="edge5_Node000005_Node000006" class="edge">
<title>Node6&#45;&gt;Node5</title>
<g id="a_edge5_Node000005_Node000006"><a xlink:title=" ">
<path fill="none" stroke="#9a32cd" stroke-dasharray="5,2" d="M169.47,-193.62C171.59,-193.4 173.68,-193.2 175.75,-193 193.54,-191.31 212.66,-189.81 230.79,-188.54"/>
<polygon fill="#9a32cd" stroke="#9a32cd" points="169.15,-190.13 159.57,-194.66 169.88,-197.09 169.15,-190.13"/>
</a>
</g>
<text text-anchor="start" x="178.75" y="-199.25" font-family="Helvetica,sans-Serif" font-size="10.00" fill="grey">noise_</text>
</g>
<!-- Node7 -->
<g id="Node000007" class="node">
<title>Node7</title>
<g id="a_Node000007"><a xlink:href="classstateObservation_1_1algorithm_1_1LinearAcceleration.html" target="_top" xlink:title="Implements the measurements given by an accelerometer.">
<polygon fill="white" stroke="#666666" points="584.5,-137.5 431.25,-137.5 431.25,-104 584.5,-104 584.5,-137.5"/>
<text text-anchor="start" x="439.25" y="-124" font-family="Helvetica,sans-Serif" font-size="10.00">stateObservation::algorithm</text>
<text text-anchor="middle" x="507.88" y="-111.25" font-family="Helvetica,sans-Serif" font-size="10.00">::LinearAcceleration</text>
</a>
</g>
</g>
<!-- Node7&#45;&gt;Node3 -->
<g id="edge6_Node000003_Node000007" class="edge">
<title>Node7&#45;&gt;Node3</title>
<g id="a_edge6_Node000003_Node000007"><a xlink:title=" ">
<path fill="none" stroke="darkgreen" d="M596.37,-120.75C604.57,-120.75 612.89,-120.75 621.1,-120.75"/>
<polygon fill="darkgreen" stroke="darkgreen" points="596.38,-117.25 586.38,-120.75 596.38,-124.25 596.38,-117.25"/>
</a>
</g>
</g>
<!-- Node8 -->
<g id="Node000008" class="node">
<title>Node8</title>
<g id="a_Node000008"><a xlink:href="classstateObservation_1_1algorithm_1_1RotationVelocity.html" target="_top" xlink:title="Implements the gyrometer measurement algorithm.">
<polygon fill="white" stroke="#666666" points="584.5,-85.5 431.25,-85.5 431.25,-52 584.5,-52 584.5,-85.5"/>
<text text-anchor="start" x="439.25" y="-72" font-family="Helvetica,sans-Serif" font-size="10.00">stateObservation::algorithm</text>
<text text-anchor="middle" x="507.88" y="-59.25" font-family="Helvetica,sans-Serif" font-size="10.00">::RotationVelocity</text>
</a>
</g>
</g>
<!-- Node8&#45;&gt;Node3 -->
<g id="edge7_Node000003_Node000008" class="edge">
<title>Node8&#45;&gt;Node3</title>
<g id="a_edge7_Node000003_Node000008"><a xlink:title=" ">
<path fill="none" stroke="darkgreen" d="M586.42,-88.89C605.07,-93.73 624.82,-98.86 642.9,-103.55"/>
<polygon fill="darkgreen" stroke="darkgreen" points="587.3,-85.5 576.74,-86.37 585.54,-92.27 587.3,-85.5"/>
</a>
</g>
</g>
<!-- Node9 -->
<g id="Node000009" class="node">
<title>Node9</title>
<g id="a_Node000009"><a xlink:href="classstateObservation_1_1algorithm_1_1MagneticField.html" target="_top" xlink:title="Implements the measurements given by an magnetometer.">
<polygon fill="white" stroke="#666666" points="584.5,-33.5 431.25,-33.5 431.25,0 584.5,0 584.5,-33.5"/>
<text text-anchor="start" x="439.25" y="-20" font-family="Helvetica,sans-Serif" font-size="10.00">stateObservation::algorithm</text>
<text text-anchor="middle" x="507.88" y="-7.25" font-family="Helvetica,sans-Serif" font-size="10.00">::MagneticField</text>
</a>
</g>
</g>
<!-- Node9&#45;&gt;Node3 -->
<g id="edge8_Node000003_Node000009" class="edge">
<title>Node9&#45;&gt;Node3</title>
<g id="a_edge8_Node000003_Node000009"><a xlink:title=" ">
<path fill="none" stroke="darkgreen" d="M574.23,-38.15C577.74,-39.63 581.18,-41.17 584.5,-42.75 621.59,-60.45 661.32,-86.73 685.7,-103.81"/>
<polygon fill="darkgreen" stroke="darkgreen" points="575.58,-34.92 565,-34.45 572.98,-41.42 575.58,-34.92"/>
</a>
</g>
</g>
</g>
</svg>
