<?xml version="1.0" encoding="UTF-8" standalone="no"?>
<!DOCTYPE svg PUBLIC "-//W3C//DTD SVG 1.1//EN"
 "http://www.w3.org/Graphics/SVG/1.1/DTD/svg11.dtd">
<!-- Generated by graphviz version 12.2.1 (0)
 -->
<!-- Title: stateObservation::flexibilityEstimation::FixedContactEKFFlexEstimatorIMU Pages: 1 -->
<svg width="732pt" height="80pt"
 viewBox="0.00 0.00 731.75 80.12" xmlns="http://www.w3.org/2000/svg" xmlns:xlink="http://www.w3.org/1999/xlink">
<g id="graph0" class="graph" transform="scale(1 1) rotate(0) translate(4 76.12)">
<title>stateObservation::flexibilityEstimation::FixedContactEKFFlexEstimatorIMU</title>
<!-- Node1 -->
<g id="Node000001" class="node">
<title>Node1</title>
<g id="a_Node000001"><a xlink:title="This class implements the flexibility estimation of a robot with the hypothesis that the contact posi...">
<polygon fill="#999999" stroke="#666666" points="723.75,-49.12 479.75,-49.12 479.75,-15.62 723.75,-15.62 723.75,-49.12"/>
<text text-anchor="start" x="487.75" y="-35.62" font-family="Helvetica,sans-Serif" font-size="10.00">stateObservation::flexibility</text>
<text text-anchor="middle" x="601.75" y="-22.88" font-family="Helvetica,sans-Serif" font-size="10.00">Estimation::FixedContactEKFFlexEstimatorIMU</text>
</a>
</g>
</g>
<!-- Node2 -->
<g id="Node000002" class="node">
<title>Node2</title>
<g id="a_Node000002"><a xlink:href="classstateObservation_1_1flexibilityEstimation_1_1EKFFlexibilityEstimatorBase.html" target="_top" xlink:title="This class is the base class of the flexibility estimators that use an extended Kalman Filter....">
<polygon fill="white" stroke="#666666" points="443.75,-72.12 230.5,-72.12 230.5,-38.62 443.75,-38.62 443.75,-72.12"/>
<text text-anchor="start" x="238.5" y="-58.62" font-family="Helvetica,sans-Serif" font-size="10.00">stateObservation::flexibility</text>
<text text-anchor="middle" x="337.12" y="-45.88" font-family="Helvetica,sans-Serif" font-size="10.00">Estimation::EKFFlexibilityEstimatorBase</text>
</a>
</g>
</g>
<!-- Node2&#45;&gt;Node1 -->
<g id="edge1_Node000001_Node000002" class="edge">
<title>Node2&#45;&gt;Node1</title>
<g id="a_edge1_Node000001_Node000002"><a xlink:title=" ">
<path fill="none" stroke="#63b8ff" d="M455.48,-45.1C463.51,-44.39 471.6,-43.69 479.65,-42.98"/>
<polygon fill="#63b8ff" stroke="#63b8ff" points="455.35,-41.6 445.7,-45.95 455.96,-48.57 455.35,-41.6"/>
</a>
</g>
</g>
<!-- Node3 -->
<g id="Node000003" class="node">
<title>Node3</title>
<g id="a_Node000003"><a xlink:href="classstateObservation_1_1flexibilityEstimation_1_1FlexibilityEstimatorBase.html" target="_top" xlink:title="This class is the base class of the flexibility estimators.">
<polygon fill="white" stroke="#666666" points="194.5,-72.12 0,-72.12 0,-38.62 194.5,-38.62 194.5,-72.12"/>
<text text-anchor="start" x="8" y="-58.62" font-family="Helvetica,sans-Serif" font-size="10.00">stateObservation::flexibility</text>
<text text-anchor="middle" x="97.25" y="-45.88" font-family="Helvetica,sans-Serif" font-size="10.00">Estimation::FlexibilityEstimatorBase</text>
</a>
</g>
</g>
<!-- Node3&#45;&gt;Node2 -->
<g id="edge2_Node000002_Node000003" class="edge">
<title>Node3&#45;&gt;Node2</title>
<g id="a_edge2_Node000002_Node000003"><a xlink:title=" ">
<path fill="none" stroke="#63b8ff" d="M206,-55.38C214.06,-55.38 222.2,-55.38 230.25,-55.38"/>
<polygon fill="#63b8ff" stroke="#63b8ff" points="206.17,-51.88 196.17,-55.38 206.17,-58.88 206.17,-51.88"/>
</a>
</g>
</g>
<!-- Node4 -->
<g id="Node000004" class="node">
<title>Node4</title>
<g id="a_Node000004"><a xlink:title=" ">
<polygon fill="white" stroke="#bfbfbf" points="392.75,-20.75 281.5,-20.75 281.5,0 392.75,0 392.75,-20.75"/>
<text text-anchor="middle" x="337.12" y="-7.25" font-family="Helvetica,sans-Serif" font-size="10.00">boost::noncopyable</text>
</a>
</g>
</g>
<!-- Node4&#45;&gt;Node1 -->
<g id="edge3_Node000001_Node000004" class="edge">
<title>Node4&#45;&gt;Node1</title>
<g id="a_edge3_Node000001_Node000004"><a xlink:title=" ">
<path fill="none" stroke="#8b1a1a" d="M404.44,-15.93C427.3,-17.84 453.66,-20.05 479.51,-22.22"/>
<polygon fill="#8b1a1a" stroke="#8b1a1a" points="404.95,-12.46 394.69,-15.11 404.36,-19.44 404.95,-12.46"/>
</a>
</g>
</g>
</g>
</svg>
