<?xml version="1.0" encoding="UTF-8" standalone="no"?>
<!DOCTYPE svg PUBLIC "-//W3C//DTD SVG 1.1//EN"
 "http://www.w3.org/Graphics/SVG/1.1/DTD/svg11.dtd">
<!-- Generated by graphviz version 12.2.1 (0)
 -->
<!-- Title: stateObservation::IMUMltpctiveDynamicalSystem Pages: 1 -->
<svg width="1058pt" height="348pt"
 viewBox="0.00 0.00 1057.50 347.50" xmlns="http://www.w3.org/2000/svg" xmlns:xlink="http://www.w3.org/1999/xlink">
<g id="graph0" class="graph" transform="scale(1 1) rotate(0) translate(4 343.5)">
<title>stateObservation::IMUMltpctiveDynamicalSystem</title>
<!-- Node1 -->
<g id="Node000001" class="node">
<title>Node1</title>
<g id="a_Node000001"><a xlink:title="The class is an implementation of the dynamical system defined by an inertial measurement unit (IMU) ...">
<polygon fill="#999999" stroke="#666666" points="1049.5,-235.5 878.25,-235.5 878.25,-202 1049.5,-202 1049.5,-235.5"/>
<text text-anchor="start" x="886.25" y="-222" font-family="Helvetica,sans-Serif" font-size="10.00">stateObservation::IMUMltpctive</text>
<text text-anchor="middle" x="963.88" y="-209.25" font-family="Helvetica,sans-Serif" font-size="10.00">DynamicalSystem</text>
</a>
</g>
</g>
<!-- Node2 -->
<g id="Node000002" class="node">
<title>Node2</title>
<g id="a_Node000002"><a xlink:href="classstateObservation_1_1DynamicalSystemFunctorBase.html" target="_top" xlink:title="This is the base class of any functor that describes the dynamics of the state and the measurement....">
<polygon fill="white" stroke="#666666" points="789.38,-339.5 630.88,-339.5 630.88,-306 789.38,-306 789.38,-339.5"/>
<text text-anchor="start" x="638.88" y="-326" font-family="Helvetica,sans-Serif" font-size="10.00">stateObservation::Dynamical</text>
<text text-anchor="middle" x="710.12" y="-313.25" font-family="Helvetica,sans-Serif" font-size="10.00">SystemFunctorBase</text>
</a>
</g>
</g>
<!-- Node2&#45;&gt;Node1 -->
<g id="edge1_Node000001_Node000002" class="edge">
<title>Node2&#45;&gt;Node1</title>
<g id="a_edge1_Node000001_Node000002"><a xlink:title=" ">
<path fill="none" stroke="#63b8ff" d="M784.19,-302.01C789.15,-300.31 794.04,-298.56 798.75,-296.75 845.74,-278.74 897.88,-252.89 930.52,-235.97"/>
<polygon fill="#63b8ff" stroke="#63b8ff" points="783.12,-298.68 774.72,-305.14 785.31,-305.32 783.12,-298.68"/>
</a>
</g>
</g>
<!-- Node3 -->
<g id="Node000003" class="node">
<title>Node3</title>
<g id="a_Node000003"><a xlink:href="classstateObservation_1_1StateVectorArithmetics.html" target="_top" xlink:title="This class is used to customize the way the difference between measurements, the state update functio...">
<polygon fill="white" stroke="#666666" points="791.25,-287.5 629,-287.5 629,-254 791.25,-254 791.25,-287.5"/>
<text text-anchor="start" x="637" y="-274" font-family="Helvetica,sans-Serif" font-size="10.00">stateObservation::StateVector</text>
<text text-anchor="middle" x="710.12" y="-261.25" font-family="Helvetica,sans-Serif" font-size="10.00">Arithmetics</text>
</a>
</g>
</g>
<!-- Node3&#45;&gt;Node1 -->
<g id="edge2_Node000001_Node000003" class="edge">
<title>Node3&#45;&gt;Node1</title>
<g id="a_edge2_Node000001_Node000003"><a xlink:title=" ">
<path fill="none" stroke="#63b8ff" d="M802.78,-253.35C821.8,-249.62 841.69,-245.63 860.25,-241.75 869.01,-239.92 878.17,-237.94 887.27,-235.95"/>
<polygon fill="#63b8ff" stroke="#63b8ff" points="802.33,-249.87 793.18,-255.23 803.67,-256.74 802.33,-249.87"/>
</a>
</g>
</g>
<!-- Node4 -->
<g id="Node000004" class="node">
<title>Node4</title>
<g id="a_Node000004"><a xlink:href="structstateObservation_1_1IMUMltpctiveDynamicalSystem_1_1opt.html" target="_top" xlink:title=" ">
<polygon fill="white" stroke="#bfbfbf" points="795.75,-235.5 624.5,-235.5 624.5,-202 795.75,-202 795.75,-235.5"/>
<text text-anchor="start" x="632.5" y="-222" font-family="Helvetica,sans-Serif" font-size="10.00">stateObservation::IMUMltpctive</text>
<text text-anchor="middle" x="710.12" y="-209.25" font-family="Helvetica,sans-Serif" font-size="10.00">DynamicalSystem::opt</text>
</a>
</g>
</g>
<!-- Node4&#45;&gt;Node1 -->
<g id="edge3_Node000001_Node000004" class="edge">
<title>Node4&#45;&gt;Node1</title>
<g id="a_edge3_Node000001_Node000004"><a xlink:title=" ">
<path fill="none" stroke="#9a32cd" stroke-dasharray="5,2" d="M807.29,-218.75C830.55,-218.75 855.24,-218.75 877.94,-218.75"/>
<polygon fill="#9a32cd" stroke="#9a32cd" points="807.52,-215.25 797.52,-218.75 807.52,-222.25 807.52,-215.25"/>
</a>
</g>
<text text-anchor="start" x="828" y="-225" font-family="Helvetica,sans-Serif" font-size="10.00" fill="grey">opt_</text>
</g>
<!-- Node5 -->
<g id="Node000005" class="node">
<title>Node5</title>
<g id="a_Node000005"><a xlink:href="classstateObservation_1_1AccelerometerGyrometer.html" target="_top" xlink:title="Implements the accelerometer&#45;gyrometer measurements.">
<polygon fill="white" stroke="#666666" points="798.75,-105.5 621.5,-105.5 621.5,-72 798.75,-72 798.75,-105.5"/>
<text text-anchor="start" x="629.5" y="-92" font-family="Helvetica,sans-Serif" font-size="10.00">stateObservation::Accelerometer</text>
<text text-anchor="middle" x="710.12" y="-79.25" font-family="Helvetica,sans-Serif" font-size="10.00">Gyrometer</text>
</a>
</g>
</g>
<!-- Node5&#45;&gt;Node1 -->
<g id="edge4_Node000001_Node000005" class="edge">
<title>Node5&#45;&gt;Node1</title>
<g id="a_edge4_Node000001_Node000005"><a xlink:title=" ">
<path fill="none" stroke="#9a32cd" stroke-dasharray="5,2" d="M784.68,-109.47C809.4,-117.74 836.67,-128.34 860.25,-141 891.96,-158.02 924.37,-184.39 944.07,-201.61"/>
<polygon fill="#9a32cd" stroke="#9a32cd" points="785.93,-106.2 775.34,-106.42 783.76,-112.85 785.93,-106.2"/>
</a>
</g>
<text text-anchor="start" x="819.75" y="-147.25" font-family="Helvetica,sans-Serif" font-size="10.00" fill="grey">sensor_</text>
</g>
<!-- Node6 -->
<g id="Node000006" class="node">
<title>Node6</title>
<g id="a_Node000006"><a xlink:href="classstateObservation_1_1AlgebraicSensor.html" target="_top" xlink:title="The base class for algebraic sensors. Algebraic sensors are sensors which depend only on the state va...">
<polygon fill="white" stroke="#666666" points="583.75,-137.5 432,-137.5 432,-104 583.75,-104 583.75,-137.5"/>
<text text-anchor="start" x="440" y="-124" font-family="Helvetica,sans-Serif" font-size="10.00">stateObservation::Algebraic</text>
<text text-anchor="middle" x="507.88" y="-111.25" font-family="Helvetica,sans-Serif" font-size="10.00">Sensor</text>
</a>
</g>
</g>
<!-- Node6&#45;&gt;Node5 -->
<g id="edge5_Node000005_Node000006" class="edge">
<title>Node6&#45;&gt;Node5</title>
<g id="a_edge5_Node000005_Node000006"><a xlink:title=" ">
<path fill="none" stroke="#63b8ff" d="M595.19,-106.96C603.77,-105.59 612.49,-104.19 621.09,-102.82"/>
<polygon fill="#63b8ff" stroke="#63b8ff" points="594.83,-103.47 585.51,-108.5 595.93,-110.38 594.83,-103.47"/>
</a>
</g>
</g>
<!-- Node7 -->
<g id="Node000007" class="node">
<title>Node7</title>
<g id="a_Node000007"><a xlink:href="classstateObservation_1_1SensorBase.html" target="_top" xlink:title="The base class for sensors. This must be derived to implement a sensor.">
<polygon fill="white" stroke="#666666" points="394.25,-142.12 231.25,-142.12 231.25,-121.38 394.25,-121.38 394.25,-142.12"/>
<text text-anchor="middle" x="312.75" y="-128.62" font-family="Helvetica,sans-Serif" font-size="10.00">stateObservation::SensorBase</text>
</a>
</g>
</g>
<!-- Node7&#45;&gt;Node6 -->
<g id="edge6_Node000006_Node000007" class="edge">
<title>Node7&#45;&gt;Node6</title>
<g id="a_edge6_Node000006_Node000007"><a xlink:title=" ">
<path fill="none" stroke="#63b8ff" d="M405.85,-126.5C414.5,-126.01 423.19,-125.52 431.66,-125.03"/>
<polygon fill="#63b8ff" stroke="#63b8ff" points="405.83,-123 396.04,-127.06 406.23,-129.99 405.83,-123"/>
</a>
</g>
</g>
<!-- Node8 -->
<g id="Node000008" class="node">
<title>Node8</title>
<g id="a_Node000008"><a xlink:href="classstateObservation_1_1NoiseBase.html" target="_top" xlink:title=" ">
<polygon fill="white" stroke="#bfbfbf" points="157.75,-163.12 0,-163.12 0,-142.38 157.75,-142.38 157.75,-163.12"/>
<text text-anchor="middle" x="78.88" y="-149.62" font-family="Helvetica,sans-Serif" font-size="10.00">stateObservation::NoiseBase</text>
</a>
</g>
</g>
<!-- Node8&#45;&gt;Node1 -->
<g id="edge10_Node000001_Node000008" class="edge">
<title>Node8&#45;&gt;Node1</title>
<g id="a_edge10_Node000001_Node000008"><a xlink:title=" ">
<path fill="none" stroke="#9a32cd" stroke-dasharray="5,2" d="M169.36,-164.65C212.33,-169.39 264.63,-173.75 311.75,-173.75 311.75,-173.75 311.75,-173.75 711.12,-173.75 776.95,-173.75 850.96,-188.84 901.6,-201.54"/>
<polygon fill="#9a32cd" stroke="#9a32cd" points="169.9,-161.19 159.57,-163.54 169.11,-168.15 169.9,-161.19"/>
</a>
</g>
<text text-anchor="start" x="472.62" y="-180" font-family="Helvetica,sans-Serif" font-size="10.00" fill="grey">processNoise_</text>
</g>
<!-- Node8&#45;&gt;Node7 -->
<g id="edge7_Node000007_Node000008" class="edge">
<title>Node8&#45;&gt;Node7</title>
<g id="a_edge7_Node000007_Node000008"><a xlink:title=" ">
<path fill="none" stroke="#9a32cd" stroke-dasharray="5,2" d="M169.47,-141.62C171.59,-141.4 173.68,-141.2 175.75,-141 193.54,-139.31 212.66,-137.81 230.79,-136.54"/>
<polygon fill="#9a32cd" stroke="#9a32cd" points="169.15,-138.13 159.57,-142.66 169.88,-145.09 169.15,-138.13"/>
</a>
</g>
<text text-anchor="start" x="178.75" y="-147.25" font-family="Helvetica,sans-Serif" font-size="10.00" fill="grey">noise_</text>
</g>
<!-- Node9 -->
<g id="Node000009" class="node">
<title>Node9</title>
<g id="a_Node000009"><a xlink:href="classstateObservation_1_1algorithm_1_1LinearAcceleration.html" target="_top" xlink:title="Implements the measurements given by an accelerometer.">
<polygon fill="white" stroke="#666666" points="584.5,-85.5 431.25,-85.5 431.25,-52 584.5,-52 584.5,-85.5"/>
<text text-anchor="start" x="439.25" y="-72" font-family="Helvetica,sans-Serif" font-size="10.00">stateObservation::algorithm</text>
<text text-anchor="middle" x="507.88" y="-59.25" font-family="Helvetica,sans-Serif" font-size="10.00">::LinearAcceleration</text>
</a>
</g>
</g>
<!-- Node9&#45;&gt;Node5 -->
<g id="edge8_Node000005_Node000009" class="edge">
<title>Node9&#45;&gt;Node5</title>
<g id="a_edge8_Node000005_Node000009"><a xlink:title=" ">
<path fill="none" stroke="darkgreen" d="M596.08,-77.46C604.38,-78.29 612.8,-79.13 621.1,-79.96"/>
<polygon fill="darkgreen" stroke="darkgreen" points="596.67,-74 586.37,-76.49 595.98,-80.97 596.67,-74"/>
</a>
</g>
</g>
<!-- Node10 -->
<g id="Node000010" class="node">
<title>Node10</title>
<g id="a_Node000010"><a xlink:href="classstateObservation_1_1algorithm_1_1RotationVelocity.html" target="_top" xlink:title="Implements the gyrometer measurement algorithm.">
<polygon fill="white" stroke="#666666" points="584.5,-33.5 431.25,-33.5 431.25,0 584.5,0 584.5,-33.5"/>
<text text-anchor="start" x="439.25" y="-20" font-family="Helvetica,sans-Serif" font-size="10.00">stateObservation::algorithm</text>
<text text-anchor="middle" x="507.88" y="-7.25" font-family="Helvetica,sans-Serif" font-size="10.00">::RotationVelocity</text>
</a>
</g>
</g>
<!-- Node10&#45;&gt;Node5 -->
<g id="edge9_Node000005_Node000010" class="edge">
<title>Node10&#45;&gt;Node5</title>
<g id="a_edge9_Node000005_Node000010"><a xlink:title=" ">
<path fill="none" stroke="darkgreen" d="M570.07,-37.66C574.95,-39.37 579.81,-41.08 584.5,-42.75 610.68,-52.08 639.82,-62.82 663.34,-71.57"/>
<polygon fill="darkgreen" stroke="darkgreen" points="571.4,-34.41 560.8,-34.43 569.1,-41.02 571.4,-34.41"/>
</a>
</g>
</g>
</g>
</svg>
