<?xml version="1.0" encoding="UTF-8" standalone="no"?>
<!DOCTYPE svg PUBLIC "-//W3C//DTD SVG 1.1//EN"
 "http://www.w3.org/Graphics/SVG/1.1/DTD/svg11.dtd">
<!-- Generated by graphviz version 12.2.1 (0)
 -->
<!-- Title: stateObservation::DynamicalSystemFunctorBase Pages: 1 -->
<svg width="412pt" height="442pt"
 viewBox="0.00 0.00 412.00 441.88" xmlns="http://www.w3.org/2000/svg" xmlns:xlink="http://www.w3.org/1999/xlink">
<g id="graph0" class="graph" transform="scale(1 1) rotate(0) translate(4 437.88)">
<title>stateObservation::DynamicalSystemFunctorBase</title>
<!-- Node1 -->
<g id="Node000001" class="node">
<title>Node1</title>
<g id="a_Node000001"><a xlink:title="This is the base class of any functor that describes the dynamics of the state and the measurement....">
<polygon fill="#999999" stroke="#666666" points="158.5,-251.88 0,-251.88 0,-218.38 158.5,-218.38 158.5,-251.88"/>
<text text-anchor="start" x="8" y="-238.38" font-family="Helvetica,sans-Serif" font-size="10.00">stateObservation::Dynamical</text>
<text text-anchor="middle" x="79.25" y="-225.62" font-family="Helvetica,sans-Serif" font-size="10.00">SystemFunctorBase</text>
</a>
</g>
</g>
<!-- Node2 -->
<g id="Node000002" class="node">
<title>Node2</title>
<g id="a_Node000002"><a xlink:href="classstateObservation_1_1BidimElasticInvPendulum.html" target="_top" xlink:title="The class is an implementation of the dynamical system defined by a 2D inverted pendulum with an elas...">
<polygon fill="white" stroke="#666666" points="382.62,-433.88 215.88,-433.88 215.88,-400.38 382.62,-400.38 382.62,-433.88"/>
<text text-anchor="start" x="223.88" y="-420.38" font-family="Helvetica,sans-Serif" font-size="10.00">stateObservation::BidimElastic</text>
<text text-anchor="middle" x="299.25" y="-407.62" font-family="Helvetica,sans-Serif" font-size="10.00">InvPendulum</text>
</a>
</g>
</g>
<!-- Node1&#45;&gt;Node2 -->
<g id="edge1_Node000001_Node000002" class="edge">
<title>Node1&#45;&gt;Node2</title>
<g id="a_edge1_Node000001_Node000002"><a xlink:title=" ">
<path fill="none" stroke="#63b8ff" d="M92.71,-262.3C110.3,-297.54 145.78,-358.35 194.5,-391.12 200.97,-395.48 208.11,-399.1 215.53,-402.12"/>
<polygon fill="#63b8ff" stroke="#63b8ff" points="96.01,-261.08 88.5,-253.61 89.71,-264.13 96.01,-261.08"/>
</a>
</g>
</g>
<!-- Node3 -->
<g id="Node000003" class="node">
<title>Node3</title>
<g id="a_Node000003"><a xlink:href="classstateObservation_1_1IMUDynamicalSystem.html" target="_top" xlink:title="The class is an implementation of the dynamical system defined by an inertial measurement unit (IMU) ...">
<polygon fill="white" stroke="#666666" points="388.25,-381.88 210.25,-381.88 210.25,-348.38 388.25,-348.38 388.25,-381.88"/>
<text text-anchor="start" x="218.25" y="-368.38" font-family="Helvetica,sans-Serif" font-size="10.00">stateObservation::IMUDynamical</text>
<text text-anchor="middle" x="299.25" y="-355.62" font-family="Helvetica,sans-Serif" font-size="10.00">System</text>
</a>
</g>
</g>
<!-- Node1&#45;&gt;Node3 -->
<g id="edge2_Node000001_Node000003" class="edge">
<title>Node1&#45;&gt;Node3</title>
<g id="a_edge2_Node000001_Node000003"><a xlink:title=" ">
<path fill="none" stroke="#63b8ff" d="M101.66,-260.85C122.84,-284.65 157.4,-319.24 194.5,-339.12 200.72,-342.46 207.38,-345.37 214.21,-347.93"/>
<polygon fill="#63b8ff" stroke="#63b8ff" points="104.42,-258.7 95.22,-253.46 99.15,-263.3 104.42,-258.7"/>
</a>
</g>
</g>
<!-- Node4 -->
<g id="Node000004" class="node">
<title>Node4</title>
<g id="a_Node000004"><a xlink:href="classstateObservation_1_1IMUMagnetometerDynamicalSystem.html" target="_top" xlink:title="The class is an implementation of the dynamical system defined by an inertial measurement unit (IMU) ...">
<polygon fill="white" stroke="#666666" points="398,-329.88 200.5,-329.88 200.5,-296.38 398,-296.38 398,-329.88"/>
<text text-anchor="start" x="208.5" y="-316.38" font-family="Helvetica,sans-Serif" font-size="10.00">stateObservation::IMUMagnetometer</text>
<text text-anchor="middle" x="299.25" y="-303.62" font-family="Helvetica,sans-Serif" font-size="10.00">DynamicalSystem</text>
</a>
</g>
</g>
<!-- Node1&#45;&gt;Node4 -->
<g id="edge3_Node000001_Node000004" class="edge">
<title>Node1&#45;&gt;Node4</title>
<g id="a_edge3_Node000001_Node000004"><a xlink:title=" ">
<path fill="none" stroke="#63b8ff" d="M123.79,-257.2C144.79,-267.26 170.57,-278.76 194.5,-287.12 203.53,-290.28 213.12,-293.22 222.69,-295.9"/>
<polygon fill="#63b8ff" stroke="#63b8ff" points="125.47,-254.12 114.95,-252.9 122.41,-260.42 125.47,-254.12"/>
</a>
</g>
</g>
<!-- Node5 -->
<g id="Node000005" class="node">
<title>Node5</title>
<g id="a_Node000005"><a xlink:href="classstateObservation_1_1IMUMltpctiveDynamicalSystem.html" target="_top" xlink:title="The class is an implementation of the dynamical system defined by an inertial measurement unit (IMU) ...">
<polygon fill="white" stroke="#666666" points="384.88,-277.88 213.62,-277.88 213.62,-244.38 384.88,-244.38 384.88,-277.88"/>
<text text-anchor="start" x="221.62" y="-264.38" font-family="Helvetica,sans-Serif" font-size="10.00">stateObservation::IMUMltpctive</text>
<text text-anchor="middle" x="299.25" y="-251.62" font-family="Helvetica,sans-Serif" font-size="10.00">DynamicalSystem</text>
</a>
</g>
</g>
<!-- Node1&#45;&gt;Node5 -->
<g id="edge4_Node000001_Node000005" class="edge">
<title>Node1&#45;&gt;Node5</title>
<g id="a_edge4_Node000001_Node000005"><a xlink:title=" ">
<path fill="none" stroke="#63b8ff" d="M170.28,-245.86C184.54,-247.56 199.26,-249.32 213.4,-251.01"/>
<polygon fill="#63b8ff" stroke="#63b8ff" points="170.8,-242.4 160.46,-244.69 169.97,-249.35 170.8,-242.4"/>
</a>
</g>
</g>
<!-- Node6 -->
<g id="Node000006" class="node">
<title>Node6</title>
<g id="a_Node000006"><a xlink:href="classstateObservation_1_1KineticsObserver.html" target="_top" xlink:title="This observer estimates the kinematics, the external forces, the bias on the gyrometers measurements,...">
<polygon fill="white" stroke="#666666" points="371.75,-225.88 226.75,-225.88 226.75,-192.38 371.75,-192.38 371.75,-225.88"/>
<text text-anchor="start" x="234.75" y="-212.38" font-family="Helvetica,sans-Serif" font-size="10.00">stateObservation::Kinetics</text>
<text text-anchor="middle" x="299.25" y="-199.62" font-family="Helvetica,sans-Serif" font-size="10.00">Observer</text>
</a>
</g>
</g>
<!-- Node1&#45;&gt;Node6 -->
<g id="edge5_Node000001_Node000006" class="edge">
<title>Node1&#45;&gt;Node6</title>
<g id="a_edge5_Node000001_Node000006"><a xlink:title=" ">
<path fill="none" stroke="darkgreen" d="M170.21,-224.4C188.99,-222.16 208.54,-219.82 226.55,-217.68"/>
<polygon fill="darkgreen" stroke="darkgreen" points="169.97,-220.9 160.46,-225.56 170.8,-227.85 169.97,-220.9"/>
</a>
</g>
</g>
<!-- Node7 -->
<g id="Node000007" class="node">
<title>Node7</title>
<g id="a_Node000007"><a xlink:href="classstateObservation_1_1flexibilityEstimation_1_1IMUElasticLocalFrameDynamicalSystem.html" target="_top" xlink:title="This class describes the dynamics of a robot&#39;s flexibility this dynamics with elastic forces to bring...">
<polygon fill="white" stroke="#666666" points="390.5,-174.25 208,-174.25 208,-128 390.5,-128 390.5,-174.25"/>
<text text-anchor="start" x="216" y="-160.75" font-family="Helvetica,sans-Serif" font-size="10.00">stateObservation::flexibility</text>
<text text-anchor="start" x="216" y="-148" font-family="Helvetica,sans-Serif" font-size="10.00">Estimation::IMUElasticLocalFrame</text>
<text text-anchor="middle" x="299.25" y="-135.25" font-family="Helvetica,sans-Serif" font-size="10.00">DynamicalSystem</text>
</a>
</g>
</g>
<!-- Node1&#45;&gt;Node7 -->
<g id="edge6_Node000001_Node000007" class="edge">
<title>Node1&#45;&gt;Node7</title>
<g id="a_edge6_Node000001_Node000007"><a xlink:title=" ">
<path fill="none" stroke="#63b8ff" d="M125.16,-213.08C145.99,-203.27 171.23,-191.97 194.5,-183.12 202.08,-180.25 210.04,-177.43 218.03,-174.74"/>
<polygon fill="#63b8ff" stroke="#63b8ff" points="123.91,-209.79 116.38,-217.25 126.91,-216.12 123.91,-209.79"/>
</a>
</g>
</g>
<!-- Node8 -->
<g id="Node000008" class="node">
<title>Node8</title>
<g id="a_Node000008"><a xlink:href="classstateObservation_1_1flexibilityEstimation_1_1IMUFixedContactDynamicalSystem.html" target="_top" xlink:title="This class describes the dynamics of a robot&#39;s flexibility this dynamics is the simplest possible sys...">
<polygon fill="white" stroke="#666666" points="404,-110.25 194.5,-110.25 194.5,-64 404,-64 404,-110.25"/>
<text text-anchor="start" x="202.5" y="-96.75" font-family="Helvetica,sans-Serif" font-size="10.00">stateObservation::flexibility</text>
<text text-anchor="start" x="202.5" y="-84" font-family="Helvetica,sans-Serif" font-size="10.00">Estimation::IMUFixedContactDynamical</text>
<text text-anchor="middle" x="299.25" y="-71.25" font-family="Helvetica,sans-Serif" font-size="10.00">System</text>
</a>
</g>
</g>
<!-- Node1&#45;&gt;Node8 -->
<g id="edge7_Node000001_Node000008" class="edge">
<title>Node1&#45;&gt;Node8</title>
<g id="a_edge7_Node000001_Node000008"><a xlink:title=" ">
<path fill="none" stroke="#63b8ff" d="M99.63,-208.92C120.36,-182.65 155.56,-142.79 194.5,-119.12 199.57,-116.04 204.97,-113.23 210.53,-110.68"/>
<polygon fill="#63b8ff" stroke="#63b8ff" points="96.94,-206.68 93.59,-216.73 102.47,-210.96 96.94,-206.68"/>
</a>
</g>
</g>
<!-- Node9 -->
<g id="Node000009" class="node">
<title>Node9</title>
<g id="a_Node000009"><a xlink:href="classstateObservation_1_1flexibilityEstimation_1_1StableIMUFixedContactDynamicalSystem.html" target="_top" xlink:title="This class describes the dynamics of a robot&#39;s flexibility this dynamics is the simplest possible sys...">
<polygon fill="white" stroke="#666666" points="393.12,-46.25 205.38,-46.25 205.38,0 393.12,0 393.12,-46.25"/>
<text text-anchor="start" x="213.38" y="-32.75" font-family="Helvetica,sans-Serif" font-size="10.00">stateObservation::flexibility</text>
<text text-anchor="start" x="213.38" y="-20" font-family="Helvetica,sans-Serif" font-size="10.00">Estimation::StableIMUFixedContact</text>
<text text-anchor="middle" x="299.25" y="-7.25" font-family="Helvetica,sans-Serif" font-size="10.00">DynamicalSystem</text>
</a>
</g>
</g>
<!-- Node1&#45;&gt;Node9 -->
<g id="edge8_Node000001_Node000009" class="edge">
<title>Node1&#45;&gt;Node9</title>
<g id="a_edge8_Node000001_Node000009"><a xlink:title=" ">
<path fill="none" stroke="#63b8ff" d="M90.56,-207.44C106.7,-167.87 141.64,-95.49 194.5,-55.12 198.54,-52.04 202.89,-49.24 207.43,-46.72"/>
<polygon fill="#63b8ff" stroke="#63b8ff" points="87.4,-205.91 86.98,-216.49 93.91,-208.48 87.4,-205.91"/>
</a>
</g>
</g>
</g>
</svg>
