<?xml version="1.0" encoding="UTF-8" standalone="no"?>
<!DOCTYPE svg PUBLIC "-//W3C//DTD SVG 1.1//EN"
 "http://www.w3.org/Graphics/SVG/1.1/DTD/svg11.dtd">
<!-- Generated by graphviz version 12.2.1 (0)
 -->
<!-- Title: stateObservation::flexibilityEstimation::EKFFlexibilityEstimatorBase Pages: 1 -->
<svg width="1379pt" height="294pt"
 viewBox="0.00 0.00 1378.50 293.50" xmlns="http://www.w3.org/2000/svg" xmlns:xlink="http://www.w3.org/1999/xlink">
<g id="graph0" class="graph" transform="scale(1 1) rotate(0) translate(4 289.5)">
<title>stateObservation::flexibilityEstimation::EKFFlexibilityEstimatorBase</title>
<!-- Node1 -->
<g id="Node000001" class="node">
<title>Node1</title>
<g id="a_Node000001"><a xlink:title="This class is the base class of the flexibility estimators that use an extended Kalman Filter....">
<polygon fill="#999999" stroke="#666666" points="1370.5,-111.5 1157.25,-111.5 1157.25,-78 1370.5,-78 1370.5,-111.5"/>
<text text-anchor="start" x="1165.25" y="-98" font-family="Helvetica,sans-Serif" font-size="10.00">stateObservation::flexibility</text>
<text text-anchor="middle" x="1263.88" y="-85.25" font-family="Helvetica,sans-Serif" font-size="10.00">Estimation::EKFFlexibilityEstimatorBase</text>
</a>
</g>
</g>
<!-- Node2 -->
<g id="Node000002" class="node">
<title>Node2</title>
<g id="a_Node000002"><a xlink:href="classstateObservation_1_1flexibilityEstimation_1_1FlexibilityEstimatorBase.html" target="_top" xlink:title="This class is the base class of the flexibility estimators.">
<polygon fill="white" stroke="#666666" points="1094.25,-137.5 899.75,-137.5 899.75,-104 1094.25,-104 1094.25,-137.5"/>
<text text-anchor="start" x="907.75" y="-124" font-family="Helvetica,sans-Serif" font-size="10.00">stateObservation::flexibility</text>
<text text-anchor="middle" x="997" y="-111.25" font-family="Helvetica,sans-Serif" font-size="10.00">Estimation::FlexibilityEstimatorBase</text>
</a>
</g>
</g>
<!-- Node2&#45;&gt;Node1 -->
<g id="edge1_Node000001_Node000002" class="edge">
<title>Node2&#45;&gt;Node1</title>
<g id="a_edge1_Node000001_Node000002"><a xlink:title=" ">
<path fill="none" stroke="#63b8ff" d="M1105.49,-110.2C1122.54,-108.53 1140.16,-106.8 1157.18,-105.13"/>
<polygon fill="#63b8ff" stroke="#63b8ff" points="1105.49,-106.68 1095.88,-111.14 1106.18,-113.65 1105.49,-106.68"/>
</a>
</g>
</g>
<!-- Node3 -->
<g id="Node000003" class="node">
<title>Node3</title>
<g id="a_Node000003"><a xlink:href="classstateObservation_1_1ExtendedKalmanFilter.html" target="_top" xlink:title=" ">
<polygon fill="white" stroke="#666666" points="1072.88,-85.5 921.12,-85.5 921.12,-52 1072.88,-52 1072.88,-85.5"/>
<text text-anchor="start" x="929.12" y="-72" font-family="Helvetica,sans-Serif" font-size="10.00">stateObservation::Extended</text>
<text text-anchor="middle" x="997" y="-59.25" font-family="Helvetica,sans-Serif" font-size="10.00">KalmanFilter</text>
</a>
</g>
</g>
<!-- Node3&#45;&gt;Node1 -->
<g id="edge2_Node000001_Node000003" class="edge">
<title>Node3&#45;&gt;Node1</title>
<g id="a_edge2_Node000001_Node000003"><a xlink:title=" ">
<path fill="none" stroke="#9a32cd" stroke-dasharray="5,2" d="M1084.36,-77.23C1107.5,-79.5 1132.78,-81.98 1156.85,-84.34"/>
<polygon fill="#9a32cd" stroke="#9a32cd" points="1084.99,-73.77 1074.7,-76.28 1084.31,-80.74 1084.99,-73.77"/>
</a>
</g>
<text text-anchor="start" x="1115.25" y="-88.78" font-family="Helvetica,sans-Serif" font-size="10.00" fill="grey">ekf_</text>
</g>
<!-- Node4 -->
<g id="Node000004" class="node">
<title>Node4</title>
<g id="a_Node000004"><a xlink:href="classstateObservation_1_1KalmanFilterBase.html" target="_top" xlink:title="It mostly implements the equations of Kalman filtering It is suitablle by derivation to be used incas...">
<polygon fill="white" stroke="#666666" points="834.5,-137.5 691,-137.5 691,-104 834.5,-104 834.5,-137.5"/>
<text text-anchor="start" x="699" y="-124" font-family="Helvetica,sans-Serif" font-size="10.00">stateObservation::Kalman</text>
<text text-anchor="middle" x="762.75" y="-111.25" font-family="Helvetica,sans-Serif" font-size="10.00">FilterBase</text>
</a>
</g>
</g>
<!-- Node4&#45;&gt;Node3 -->
<g id="edge3_Node000003_Node000004" class="edge">
<title>Node4&#45;&gt;Node3</title>
<g id="a_edge3_Node000003_Node000004"><a xlink:title=" ">
<path fill="none" stroke="#63b8ff" d="M845.73,-102.4C870.12,-96.93 896.71,-90.98 920.66,-85.62"/>
<polygon fill="#63b8ff" stroke="#63b8ff" points="845.17,-98.93 836.17,-104.54 846.69,-105.77 845.17,-98.93"/>
</a>
</g>
</g>
<!-- Node5 -->
<g id="Node000005" class="node">
<title>Node5</title>
<g id="a_Node000005"><a xlink:href="classstateObservation_1_1ZeroDelayObserver.html" target="_top" xlink:title="Defines the base class of online zero delay observers. Zero delay observers are the classical state o...">
<polygon fill="white" stroke="#666666" points="592.75,-241.5 435.75,-241.5 435.75,-208 592.75,-208 592.75,-241.5"/>
<text text-anchor="start" x="443.75" y="-228" font-family="Helvetica,sans-Serif" font-size="10.00">stateObservation::ZeroDelay</text>
<text text-anchor="middle" x="514.25" y="-215.25" font-family="Helvetica,sans-Serif" font-size="10.00">Observer</text>
</a>
</g>
</g>
<!-- Node5&#45;&gt;Node4 -->
<g id="edge4_Node000004_Node000005" class="edge">
<title>Node5&#45;&gt;Node4</title>
<g id="a_edge4_Node000004_Node000005"><a xlink:title=" ">
<path fill="none" stroke="#63b8ff" d="M578.75,-203.92C587.27,-200.94 595.87,-197.84 604,-194.75 631.74,-184.21 638.54,-181.16 665.5,-168.75 686.7,-158.99 710.15,-147.32 728.59,-137.93"/>
<polygon fill="#63b8ff" stroke="#63b8ff" points="577.78,-200.55 569.47,-207.13 580.07,-207.17 577.78,-200.55"/>
</a>
</g>
</g>
<!-- Node6 -->
<g id="Node000006" class="node">
<title>Node6</title>
<g id="a_Node000006"><a xlink:href="classstateObservation_1_1ObserverBase.html" target="_top" xlink:title="The base class for observers. The observer is destinated to any dynamical system with a vector state ...">
<polygon fill="white" stroke="#666666" points="371.25,-234.12 197,-234.12 197,-213.38 371.25,-213.38 371.25,-234.12"/>
<text text-anchor="middle" x="284.12" y="-220.62" font-family="Helvetica,sans-Serif" font-size="10.00">stateObservation::ObserverBase</text>
</a>
</g>
</g>
<!-- Node6&#45;&gt;Node5 -->
<g id="edge5_Node000005_Node000006" class="edge">
<title>Node6&#45;&gt;Node5</title>
<g id="a_edge5_Node000005_Node000006"><a xlink:title=" ">
<path fill="none" stroke="#63b8ff" d="M383.08,-224.18C400.55,-224.26 418.54,-224.33 435.35,-224.41"/>
<polygon fill="#63b8ff" stroke="#63b8ff" points="383.22,-220.68 373.21,-224.14 383.19,-227.68 383.22,-220.68"/>
</a>
</g>
</g>
<!-- Node7 -->
<g id="Node000007" class="node">
<title>Node7</title>
<g id="a_Node000007"><a xlink:href="classstateObservation_1_1IndexedMatrixT.html" target="_top" xlink:title=" ">
<polygon fill="white" stroke="#666666" points="356.25,-183.5 212,-183.5 212,-150 356.25,-150 356.25,-183.5"/>
<text text-anchor="start" x="220" y="-170" font-family="Helvetica,sans-Serif" font-size="10.00">stateObservation::Indexed</text>
<text text-anchor="middle" x="284.12" y="-157.25" font-family="Helvetica,sans-Serif" font-size="10.00">MatrixT&lt; Vector &gt;</text>
</a>
</g>
</g>
<!-- Node7&#45;&gt;Node4 -->
<g id="edge10_Node000004_Node000007" class="edge">
<title>Node7&#45;&gt;Node4</title>
<g id="a_edge10_Node000004_Node000007"><a xlink:title=" ">
<path fill="none" stroke="#9a32cd" stroke-dasharray="5,2" d="M367.51,-161.78C444.68,-156.72 563.12,-147.88 665.5,-135.75 673.65,-134.78 682.16,-133.65 690.61,-132.44"/>
<polygon fill="#9a32cd" stroke="#9a32cd" points="367.7,-158.26 357.95,-162.41 368.15,-165.25 367.7,-158.26"/>
</a>
</g>
<text text-anchor="start" x="500.75" y="-180.65" font-family="Helvetica,sans-Serif" font-size="10.00" fill="grey">xbar_</text>
<text text-anchor="start" x="500.75" y="-163.9" font-family="Helvetica,sans-Serif" font-size="10.00" fill="grey">ybar_</text>
</g>
<!-- Node7&#45;&gt;Node5 -->
<g id="edge6_Node000005_Node000007" class="edge">
<title>Node7&#45;&gt;Node5</title>
<g id="a_edge6_Node000005_Node000007"><a xlink:title=" ">
<path fill="none" stroke="#9a32cd" stroke-dasharray="5,2" d="M363.79,-186.75C390.45,-193.53 419.97,-201.03 445.68,-207.57"/>
<polygon fill="#9a32cd" stroke="#9a32cd" points="364.97,-183.44 354.42,-184.37 363.25,-190.22 364.97,-183.44"/>
</a>
</g>
<text text-anchor="start" x="392.25" y="-203.74" font-family="Helvetica,sans-Serif" font-size="10.00" fill="grey">x_</text>
</g>
<!-- Node8 -->
<g id="Node000008" class="node">
<title>Node8</title>
<g id="a_Node000008"><a xlink:href="classstateObservation_1_1DebugItem.html" target="_top" xlink:title=" ">
<polygon fill="white" stroke="#666666" points="160,-189.88 0,-189.88 0,-143.62 160,-143.62 160,-189.88"/>
<text text-anchor="start" x="8" y="-176.38" font-family="Helvetica,sans-Serif" font-size="10.00">stateObservation::DebugItem</text>
<text text-anchor="start" x="8" y="-163.62" font-family="Helvetica,sans-Serif" font-size="10.00">&lt; bool, detail::defaultTrue,</text>
<text text-anchor="middle" x="80" y="-150.88" font-family="Helvetica,sans-Serif" font-size="10.00"> !false||isDebug &gt;</text>
</a>
</g>
</g>
<!-- Node8&#45;&gt;Node7 -->
<g id="edge7_Node000007_Node000008" class="edge">
<title>Node8&#45;&gt;Node7</title>
<g id="a_edge7_Node000007_Node000008"><a xlink:title=" ">
<path fill="none" stroke="darkgreen" d="M171.51,-166.75C184.95,-166.75 198.64,-166.75 211.61,-166.75"/>
<polygon fill="darkgreen" stroke="darkgreen" points="171.82,-163.25 161.82,-166.75 171.82,-170.25 171.82,-163.25"/>
</a>
</g>
</g>
<!-- Node9 -->
<g id="Node000009" class="node">
<title>Node9</title>
<g id="a_Node000009"><a xlink:href="classstateObservation_1_1IndexedMatrixArrayT.html" target="_top" xlink:title=" ">
<polygon fill="white" stroke="#666666" points="356.25,-285.5 212,-285.5 212,-252 356.25,-252 356.25,-285.5"/>
<text text-anchor="start" x="220" y="-272" font-family="Helvetica,sans-Serif" font-size="10.00">stateObservation::Indexed</text>
<text text-anchor="middle" x="284.12" y="-259.25" font-family="Helvetica,sans-Serif" font-size="10.00">MatrixArrayT&lt; Vector &gt;</text>
</a>
</g>
</g>
<!-- Node9&#45;&gt;Node5 -->
<g id="edge8_Node000005_Node000009" class="edge">
<title>Node9&#45;&gt;Node5</title>
<g id="a_edge8_Node000005_Node000009"><a xlink:title=" ">
<path fill="none" stroke="#9a32cd" stroke-dasharray="5,2" d="M367.74,-252.82C389.89,-248.54 413.75,-243.94 435.62,-239.72"/>
<polygon fill="#9a32cd" stroke="#9a32cd" points="367.32,-249.33 358.17,-254.66 368.65,-256.2 367.32,-249.33"/>
</a>
</g>
<text text-anchor="start" x="392.25" y="-271.07" font-family="Helvetica,sans-Serif" font-size="10.00" fill="grey">u_</text>
<text text-anchor="start" x="392.25" y="-254.32" font-family="Helvetica,sans-Serif" font-size="10.00" fill="grey">y_</text>
</g>
<!-- Node10 -->
<g id="Node000010" class="node">
<title>Node10</title>
<g id="a_Node000010"><a xlink:href="classstateObservation_1_1StateVectorArithmetics.html" target="_top" xlink:title="This class is used to customize the way the difference between measurements, the state update functio...">
<polygon fill="white" stroke="#666666" points="595.38,-118.5 433.12,-118.5 433.12,-85 595.38,-85 595.38,-118.5"/>
<text text-anchor="start" x="441.12" y="-105" font-family="Helvetica,sans-Serif" font-size="10.00">stateObservation::StateVector</text>
<text text-anchor="middle" x="514.25" y="-92.25" font-family="Helvetica,sans-Serif" font-size="10.00">Arithmetics</text>
</a>
</g>
</g>
<!-- Node10&#45;&gt;Node4 -->
<g id="edge9_Node000004_Node000010" class="edge">
<title>Node10&#45;&gt;Node4</title>
<g id="a_edge9_Node000004_Node000010"><a xlink:title=" ">
<path fill="none" stroke="darkgreen" d="M606.98,-98.91C626.34,-99.11 646.62,-99.9 665.5,-101.75 673.72,-102.55 682.28,-103.73 690.76,-105.12"/>
<polygon fill="darkgreen" stroke="darkgreen" points="607.23,-95.41 597.22,-98.87 607.2,-102.41 607.23,-95.41"/>
</a>
</g>
</g>
<!-- Node10&#45;&gt;Node4 -->
<g id="edge12_Node000004_Node000010" class="edge">
<title>Node10&#45;&gt;Node4</title>
<g id="a_edge12_Node000004_Node000010"><a xlink:title=" ">
<path fill="none" stroke="#9a32cd" stroke-dasharray="5,2" d="M606.91,-108.82C634.57,-110.95 664.51,-113.25 690.62,-115.27"/>
<polygon fill="#9a32cd" stroke="#9a32cd" points="607.37,-105.34 597.13,-108.06 606.83,-112.32 607.37,-105.34"/>
</a>
</g>
<text text-anchor="start" x="625" y="-119.2" font-family="Helvetica,sans-Serif" font-size="10.00" fill="grey">arithm_</text>
</g>
<!-- Node11 -->
<g id="Node000011" class="node">
<title>Node11</title>
<g id="a_Node000011"><a xlink:href="structstateObservation_1_1KalmanFilterBase_1_1optimizationContainer.html" target="_top" xlink:title=" ">
<polygon fill="white" stroke="#bfbfbf" points="604,-66.5 424.5,-66.5 424.5,-33 604,-33 604,-66.5"/>
<text text-anchor="start" x="432.5" y="-53" font-family="Helvetica,sans-Serif" font-size="10.00">stateObservation::Kalman</text>
<text text-anchor="middle" x="514.25" y="-40.25" font-family="Helvetica,sans-Serif" font-size="10.00">FilterBase::optimizationContainer</text>
</a>
</g>
</g>
<!-- Node11&#45;&gt;Node4 -->
<g id="edge11_Node000004_Node000011" class="edge">
<title>Node11&#45;&gt;Node4</title>
<g id="a_edge11_Node000004_Node000011"><a xlink:title=" ">
<path fill="none" stroke="#9a32cd" stroke-dasharray="5,2" d="M615.16,-59.21C632.55,-63.25 650.01,-68.96 665.5,-77 675.47,-82.18 673.92,-88.88 683.5,-94.75 688.87,-98.04 694.71,-100.97 700.69,-103.56"/>
<polygon fill="#9a32cd" stroke="#9a32cd" points="616.35,-55.88 605.84,-57.21 614.88,-62.73 616.35,-55.88"/>
</a>
</g>
<text text-anchor="start" x="635.5" y="-83.25" font-family="Helvetica,sans-Serif" font-size="10.00" fill="grey">oc_</text>
</g>
<!-- Node12 -->
<g id="Node000012" class="node">
<title>Node12</title>
<g id="a_Node000012"><a xlink:href="classstateObservation_1_1DynamicalSystemFunctorBase.html" target="_top" xlink:title="This is the base class of any functor that describes the dynamics of the state and the measurement....">
<polygon fill="white" stroke="#666666" points="842,-85.5 683.5,-85.5 683.5,-52 842,-52 842,-85.5"/>
<text text-anchor="start" x="691.5" y="-72" font-family="Helvetica,sans-Serif" font-size="10.00">stateObservation::Dynamical</text>
<text text-anchor="middle" x="762.75" y="-59.25" font-family="Helvetica,sans-Serif" font-size="10.00">SystemFunctorBase</text>
</a>
</g>
</g>
<!-- Node12&#45;&gt;Node3 -->
<g id="edge13_Node000003_Node000012" class="edge">
<title>Node12&#45;&gt;Node3</title>
<g id="a_edge13_Node000003_Node000012"><a xlink:title=" ">
<path fill="none" stroke="#9a32cd" stroke-dasharray="5,2" d="M853.85,-68.75C876.05,-68.75 899.59,-68.75 920.99,-68.75"/>
<polygon fill="#9a32cd" stroke="#9a32cd" points="853.89,-65.25 843.89,-68.75 853.89,-72.25 853.89,-65.25"/>
</a>
</g>
<text text-anchor="start" x="866.38" y="-75" font-family="Helvetica,sans-Serif" font-size="10.00" fill="grey">f_</text>
</g>
<!-- Node13 -->
<g id="Node000013" class="node">
<title>Node13</title>
<g id="a_Node000013"><a xlink:href="structstateObservation_1_1ExtendedKalmanFilter_1_1Optimization.html" target="_top" xlink:title=" ">
<polygon fill="white" stroke="#bfbfbf" points="838.62,-33.5 686.88,-33.5 686.88,0 838.62,0 838.62,-33.5"/>
<text text-anchor="start" x="694.88" y="-20" font-family="Helvetica,sans-Serif" font-size="10.00">stateObservation::Extended</text>
<text text-anchor="middle" x="762.75" y="-7.25" font-family="Helvetica,sans-Serif" font-size="10.00">KalmanFilter::Optimization</text>
</a>
</g>
</g>
<!-- Node13&#45;&gt;Node3 -->
<g id="edge14_Node000003_Node000013" class="edge">
<title>Node13&#45;&gt;Node3</title>
<g id="a_edge14_Node000003_Node000013"><a xlink:title=" ">
<path fill="none" stroke="#9a32cd" stroke-dasharray="5,2" d="M849.76,-36.01C873.07,-41.23 898.11,-46.83 920.78,-51.91"/>
<polygon fill="#9a32cd" stroke="#9a32cd" points="850.83,-32.66 840.31,-33.89 849.3,-39.49 850.83,-32.66"/>
</a>
</g>
<text text-anchor="start" x="863" y="-49" font-family="Helvetica,sans-Serif" font-size="10.00" fill="grey">opt</text>
</g>
</g>
</svg>
