<?xml version="1.0" encoding="UTF-8" standalone="no"?>
<!DOCTYPE svg PUBLIC "-//W3C//DTD SVG 1.1//EN"
 "http://www.w3.org/Graphics/SVG/1.1/DTD/svg11.dtd">
<!-- Generated by graphviz version 12.2.1 (0)
 -->
<!-- Title: stateObservation::LipmDcmEstimator Pages: 1 -->
<svg width="1230pt" height="261pt"
 viewBox="0.00 0.00 1230.25 260.50" xmlns="http://www.w3.org/2000/svg" xmlns:xlink="http://www.w3.org/1999/xlink">
<g id="graph0" class="graph" transform="scale(1 1) rotate(0) translate(4 256.5)">
<title>stateObservation::LipmDcmEstimator</title>
<!-- Node1 -->
<g id="Node000001" class="node">
<title>Node1</title>
<g id="a_Node000001"><a xlink:title="Filtering of divergent component of motion (DCM) and estimation of a bias betweeen the DCM and the co...">
<polygon fill="#999999" stroke="#666666" points="1222.25,-104.5 1069.75,-104.5 1069.75,-71 1222.25,-71 1222.25,-104.5"/>
<text text-anchor="start" x="1077.75" y="-91" font-family="Helvetica,sans-Serif" font-size="10.00">stateObservation::LipmDcm</text>
<text text-anchor="middle" x="1146" y="-78.25" font-family="Helvetica,sans-Serif" font-size="10.00">Estimator</text>
</a>
</g>
</g>
<!-- Node2 -->
<g id="Node000002" class="node">
<title>Node2</title>
<g id="a_Node000002"><a xlink:href="classstateObservation_1_1LinearKalmanFilter.html" target="_top" xlink:title="The class of a Linear Kalman filter.">
<polygon fill="white" stroke="#666666" points="1000,-104.5 864,-104.5 864,-71 1000,-71 1000,-104.5"/>
<text text-anchor="start" x="872" y="-91" font-family="Helvetica,sans-Serif" font-size="10.00">stateObservation::Linear</text>
<text text-anchor="middle" x="932" y="-78.25" font-family="Helvetica,sans-Serif" font-size="10.00">KalmanFilter</text>
</a>
</g>
</g>
<!-- Node2&#45;&gt;Node1 -->
<g id="edge1_Node000001_Node000002" class="edge">
<title>Node2&#45;&gt;Node1</title>
<g id="a_edge1_Node000001_Node000002"><a xlink:title=" ">
<path fill="none" stroke="#9a32cd" stroke-dasharray="5,2" d="M1011.62,-87.75C1030.49,-87.75 1050.6,-87.75 1069.33,-87.75"/>
<polygon fill="#9a32cd" stroke="#9a32cd" points="1011.88,-84.25 1001.88,-87.75 1011.88,-91.25 1011.88,-84.25"/>
</a>
</g>
<text text-anchor="start" x="1021" y="-94" font-family="Helvetica,sans-Serif" font-size="10.00" fill="grey">filter_</text>
</g>
<!-- Node3 -->
<g id="Node000003" class="node">
<title>Node3</title>
<g id="a_Node000003"><a xlink:href="classstateObservation_1_1KalmanFilterBase.html" target="_top" xlink:title="It mostly implements the equations of Kalman filtering It is suitablle by derivation to be used incas...">
<polygon fill="white" stroke="#666666" points="827,-104.5 683.5,-104.5 683.5,-71 827,-71 827,-104.5"/>
<text text-anchor="start" x="691.5" y="-91" font-family="Helvetica,sans-Serif" font-size="10.00">stateObservation::Kalman</text>
<text text-anchor="middle" x="755.25" y="-78.25" font-family="Helvetica,sans-Serif" font-size="10.00">FilterBase</text>
</a>
</g>
</g>
<!-- Node3&#45;&gt;Node2 -->
<g id="edge2_Node000002_Node000003" class="edge">
<title>Node3&#45;&gt;Node2</title>
<g id="a_edge2_Node000002_Node000003"><a xlink:title=" ">
<path fill="none" stroke="#63b8ff" d="M838.67,-87.75C847.04,-87.75 855.47,-87.75 863.66,-87.75"/>
<polygon fill="#63b8ff" stroke="#63b8ff" points="838.84,-84.25 828.84,-87.75 838.84,-91.25 838.84,-84.25"/>
</a>
</g>
</g>
<!-- Node4 -->
<g id="Node000004" class="node">
<title>Node4</title>
<g id="a_Node000004"><a xlink:href="classstateObservation_1_1ZeroDelayObserver.html" target="_top" xlink:title="Defines the base class of online zero delay observers. Zero delay observers are the classical state o...">
<polygon fill="white" stroke="#666666" points="592.75,-208.5 435.75,-208.5 435.75,-175 592.75,-175 592.75,-208.5"/>
<text text-anchor="start" x="443.75" y="-195" font-family="Helvetica,sans-Serif" font-size="10.00">stateObservation::ZeroDelay</text>
<text text-anchor="middle" x="514.25" y="-182.25" font-family="Helvetica,sans-Serif" font-size="10.00">Observer</text>
</a>
</g>
</g>
<!-- Node4&#45;&gt;Node3 -->
<g id="edge3_Node000003_Node000004" class="edge">
<title>Node4&#45;&gt;Node3</title>
<g id="a_edge3_Node000003_Node000004"><a xlink:title=" ">
<path fill="none" stroke="#63b8ff" d="M578.75,-170.92C587.27,-167.94 595.87,-164.84 604,-161.75 631.74,-151.21 638.75,-148.6 665.5,-135.75 685.39,-126.19 707.21,-114.41 724.23,-104.92"/>
<polygon fill="#63b8ff" stroke="#63b8ff" points="577.78,-167.55 569.47,-174.13 580.07,-174.17 577.78,-167.55"/>
</a>
</g>
</g>
<!-- Node5 -->
<g id="Node000005" class="node">
<title>Node5</title>
<g id="a_Node000005"><a xlink:href="classstateObservation_1_1ObserverBase.html" target="_top" xlink:title="The base class for observers. The observer is destinated to any dynamical system with a vector state ...">
<polygon fill="white" stroke="#666666" points="371.25,-201.12 197,-201.12 197,-180.38 371.25,-180.38 371.25,-201.12"/>
<text text-anchor="middle" x="284.12" y="-187.62" font-family="Helvetica,sans-Serif" font-size="10.00">stateObservation::ObserverBase</text>
</a>
</g>
</g>
<!-- Node5&#45;&gt;Node4 -->
<g id="edge4_Node000004_Node000005" class="edge">
<title>Node5&#45;&gt;Node4</title>
<g id="a_edge4_Node000004_Node000005"><a xlink:title=" ">
<path fill="none" stroke="#63b8ff" d="M383.08,-191.18C400.55,-191.26 418.54,-191.33 435.35,-191.41"/>
<polygon fill="#63b8ff" stroke="#63b8ff" points="383.22,-187.68 373.21,-191.14 383.19,-194.68 383.22,-187.68"/>
</a>
</g>
</g>
<!-- Node6 -->
<g id="Node000006" class="node">
<title>Node6</title>
<g id="a_Node000006"><a xlink:href="classstateObservation_1_1IndexedMatrixT.html" target="_top" xlink:title=" ">
<polygon fill="white" stroke="#666666" points="356.25,-150.5 212,-150.5 212,-117 356.25,-117 356.25,-150.5"/>
<text text-anchor="start" x="220" y="-137" font-family="Helvetica,sans-Serif" font-size="10.00">stateObservation::Indexed</text>
<text text-anchor="middle" x="284.12" y="-124.25" font-family="Helvetica,sans-Serif" font-size="10.00">MatrixT&lt; Vector &gt;</text>
</a>
</g>
</g>
<!-- Node6&#45;&gt;Node3 -->
<g id="edge9_Node000003_Node000006" class="edge">
<title>Node6&#45;&gt;Node3</title>
<g id="a_edge9_Node000003_Node000006"><a xlink:title=" ">
<path fill="none" stroke="#9a32cd" stroke-dasharray="5,2" d="M367.59,-129.62C444.8,-125.2 563.28,-116.96 665.5,-103.75 671.25,-103.01 677.18,-102.15 683.14,-101.21"/>
<polygon fill="#9a32cd" stroke="#9a32cd" points="367.8,-126.11 358.01,-130.16 368.19,-133.09 367.8,-126.11"/>
</a>
</g>
<text text-anchor="start" x="500.75" y="-148.91" font-family="Helvetica,sans-Serif" font-size="10.00" fill="grey">xbar_</text>
<text text-anchor="start" x="500.75" y="-132.16" font-family="Helvetica,sans-Serif" font-size="10.00" fill="grey">ybar_</text>
</g>
<!-- Node6&#45;&gt;Node4 -->
<g id="edge5_Node000004_Node000006" class="edge">
<title>Node6&#45;&gt;Node4</title>
<g id="a_edge5_Node000004_Node000006"><a xlink:title=" ">
<path fill="none" stroke="#9a32cd" stroke-dasharray="5,2" d="M363.79,-153.75C390.45,-160.53 419.97,-168.03 445.68,-174.57"/>
<polygon fill="#9a32cd" stroke="#9a32cd" points="364.97,-150.44 354.42,-151.37 363.25,-157.22 364.97,-150.44"/>
</a>
</g>
<text text-anchor="start" x="392.25" y="-170.74" font-family="Helvetica,sans-Serif" font-size="10.00" fill="grey">x_</text>
</g>
<!-- Node7 -->
<g id="Node000007" class="node">
<title>Node7</title>
<g id="a_Node000007"><a xlink:href="classstateObservation_1_1DebugItem.html" target="_top" xlink:title=" ">
<polygon fill="white" stroke="#666666" points="160,-156.88 0,-156.88 0,-110.62 160,-110.62 160,-156.88"/>
<text text-anchor="start" x="8" y="-143.38" font-family="Helvetica,sans-Serif" font-size="10.00">stateObservation::DebugItem</text>
<text text-anchor="start" x="8" y="-130.62" font-family="Helvetica,sans-Serif" font-size="10.00">&lt; bool, detail::defaultTrue,</text>
<text text-anchor="middle" x="80" y="-117.88" font-family="Helvetica,sans-Serif" font-size="10.00"> !false||isDebug &gt;</text>
</a>
</g>
</g>
<!-- Node7&#45;&gt;Node6 -->
<g id="edge6_Node000006_Node000007" class="edge">
<title>Node7&#45;&gt;Node6</title>
<g id="a_edge6_Node000006_Node000007"><a xlink:title=" ">
<path fill="none" stroke="darkgreen" d="M171.51,-133.75C184.95,-133.75 198.64,-133.75 211.61,-133.75"/>
<polygon fill="darkgreen" stroke="darkgreen" points="171.82,-130.25 161.82,-133.75 171.82,-137.25 171.82,-130.25"/>
</a>
</g>
</g>
<!-- Node8 -->
<g id="Node000008" class="node">
<title>Node8</title>
<g id="a_Node000008"><a xlink:href="classstateObservation_1_1IndexedMatrixArrayT.html" target="_top" xlink:title=" ">
<polygon fill="white" stroke="#666666" points="356.25,-252.5 212,-252.5 212,-219 356.25,-219 356.25,-252.5"/>
<text text-anchor="start" x="220" y="-239" font-family="Helvetica,sans-Serif" font-size="10.00">stateObservation::Indexed</text>
<text text-anchor="middle" x="284.12" y="-226.25" font-family="Helvetica,sans-Serif" font-size="10.00">MatrixArrayT&lt; Vector &gt;</text>
</a>
</g>
</g>
<!-- Node8&#45;&gt;Node4 -->
<g id="edge7_Node000004_Node000008" class="edge">
<title>Node8&#45;&gt;Node4</title>
<g id="a_edge7_Node000004_Node000008"><a xlink:title=" ">
<path fill="none" stroke="#9a32cd" stroke-dasharray="5,2" d="M367.74,-219.82C389.89,-215.54 413.75,-210.94 435.62,-206.72"/>
<polygon fill="#9a32cd" stroke="#9a32cd" points="367.32,-216.33 358.17,-221.66 368.65,-223.2 367.32,-216.33"/>
</a>
</g>
<text text-anchor="start" x="392.25" y="-238.07" font-family="Helvetica,sans-Serif" font-size="10.00" fill="grey">u_</text>
<text text-anchor="start" x="392.25" y="-221.32" font-family="Helvetica,sans-Serif" font-size="10.00" fill="grey">y_</text>
</g>
<!-- Node9 -->
<g id="Node000009" class="node">
<title>Node9</title>
<g id="a_Node000009"><a xlink:href="classstateObservation_1_1StateVectorArithmetics.html" target="_top" xlink:title="This class is used to customize the way the difference between measurements, the state update functio...">
<polygon fill="white" stroke="#666666" points="595.38,-85.5 433.12,-85.5 433.12,-52 595.38,-52 595.38,-85.5"/>
<text text-anchor="start" x="441.12" y="-72" font-family="Helvetica,sans-Serif" font-size="10.00">stateObservation::StateVector</text>
<text text-anchor="middle" x="514.25" y="-59.25" font-family="Helvetica,sans-Serif" font-size="10.00">Arithmetics</text>
</a>
</g>
</g>
<!-- Node9&#45;&gt;Node3 -->
<g id="edge8_Node000003_Node000009" class="edge">
<title>Node9&#45;&gt;Node3</title>
<g id="a_edge8_Node000003_Node000009"><a xlink:title=" ">
<path fill="none" stroke="darkgreen" d="M607,-65.68C626.36,-65.89 646.63,-66.75 665.5,-68.75 671.3,-69.36 677.27,-70.2 683.25,-71.17"/>
<polygon fill="darkgreen" stroke="darkgreen" points="607.26,-62.18 597.24,-65.63 607.23,-69.18 607.26,-62.18"/>
</a>
</g>
</g>
<!-- Node9&#45;&gt;Node3 -->
<g id="edge11_Node000003_Node000009" class="edge">
<title>Node9&#45;&gt;Node3</title>
<g id="a_edge11_Node000003_Node000009"><a xlink:title=" ">
<path fill="none" stroke="#9a32cd" stroke-dasharray="5,2" d="M607.27,-76.07C632.47,-78.07 659.4,-80.21 683.23,-82.1"/>
<polygon fill="#9a32cd" stroke="#9a32cd" points="607.59,-72.58 597.34,-75.28 607.03,-79.56 607.59,-72.58"/>
</a>
</g>
<text text-anchor="start" x="625" y="-86.76" font-family="Helvetica,sans-Serif" font-size="10.00" fill="grey">arithm_</text>
</g>
<!-- Node10 -->
<g id="Node000010" class="node">
<title>Node10</title>
<g id="a_Node000010"><a xlink:href="structstateObservation_1_1KalmanFilterBase_1_1optimizationContainer.html" target="_top" xlink:title=" ">
<polygon fill="white" stroke="#bfbfbf" points="604,-33.5 424.5,-33.5 424.5,0 604,0 604,-33.5"/>
<text text-anchor="start" x="432.5" y="-20" font-family="Helvetica,sans-Serif" font-size="10.00">stateObservation::Kalman</text>
<text text-anchor="middle" x="514.25" y="-7.25" font-family="Helvetica,sans-Serif" font-size="10.00">FilterBase::optimizationContainer</text>
</a>
</g>
</g>
<!-- Node10&#45;&gt;Node3 -->
<g id="edge10_Node000003_Node000010" class="edge">
<title>Node10&#45;&gt;Node3</title>
<g id="a_edge10_Node000003_Node000010"><a xlink:title=" ">
<path fill="none" stroke="#9a32cd" stroke-dasharray="5,2" d="M615.22,-29.97C632.21,-33.42 649.52,-37.7 665.5,-43 686.47,-49.95 708.65,-61.14 725.6,-70.59"/>
<polygon fill="#9a32cd" stroke="#9a32cd" points="616.08,-26.57 605.6,-28.11 614.75,-33.45 616.08,-26.57"/>
</a>
</g>
<text text-anchor="start" x="635.5" y="-49.25" font-family="Helvetica,sans-Serif" font-size="10.00" fill="grey">oc_</text>
</g>
</g>
</svg>
