<?xml version="1.0" encoding="UTF-8" standalone="no"?>
<!DOCTYPE svg PUBLIC "-//W3C//DTD SVG 1.1//EN"
 "http://www.w3.org/Graphics/SVG/1.1/DTD/svg11.dtd">
<!-- Generated by graphviz version 12.2.1 (0)
 -->
<!-- Title: stateObservation::SensorBase Pages: 1 -->
<svg width="572pt" height="94pt"
 viewBox="0.00 0.00 572.00 93.50" xmlns="http://www.w3.org/2000/svg" xmlns:xlink="http://www.w3.org/1999/xlink">
<g id="graph0" class="graph" transform="scale(1 1) rotate(0) translate(4 89.5)">
<title>stateObservation::SensorBase</title>
<!-- Node1 -->
<g id="Node000001" class="node">
<title>Node1</title>
<g id="a_Node000001"><a xlink:title="The base class for sensors. This must be derived to implement a sensor.">
<polygon fill="#999999" stroke="#666666" points="163,-53.12 0,-53.12 0,-32.38 163,-32.38 163,-53.12"/>
<text text-anchor="middle" x="81.5" y="-39.62" font-family="Helvetica,sans-Serif" font-size="10.00">stateObservation::SensorBase</text>
</a>
</g>
</g>
<!-- Node2 -->
<g id="Node000002" class="node">
<title>Node2</title>
<g id="a_Node000002"><a xlink:href="classstateObservation_1_1AlgebraicSensor.html" target="_top" xlink:title="The base class for algebraic sensors. Algebraic sensors are sensors which depend only on the state va...">
<polygon fill="white" stroke="#666666" points="350.75,-59.5 199,-59.5 199,-26 350.75,-26 350.75,-59.5"/>
<text text-anchor="start" x="207" y="-46" font-family="Helvetica,sans-Serif" font-size="10.00">stateObservation::Algebraic</text>
<text text-anchor="middle" x="274.88" y="-33.25" font-family="Helvetica,sans-Serif" font-size="10.00">Sensor</text>
</a>
</g>
</g>
<!-- Node1&#45;&gt;Node2 -->
<g id="edge1_Node000001_Node000002" class="edge">
<title>Node1&#45;&gt;Node2</title>
<g id="a_edge1_Node000001_Node000002"><a xlink:title=" ">
<path fill="none" stroke="#63b8ff" d="M174.73,-42.75C182.78,-42.75 190.87,-42.75 198.76,-42.75"/>
<polygon fill="#63b8ff" stroke="#63b8ff" points="174.9,-39.25 164.9,-42.75 174.9,-46.25 174.9,-39.25"/>
</a>
</g>
</g>
<!-- Node3 -->
<g id="Node000003" class="node">
<title>Node3</title>
<g id="a_Node000003"><a xlink:href="classstateObservation_1_1AccelerometerGyrometer.html" target="_top" xlink:title="Implements the accelerometer&#45;gyrometer measurements.">
<polygon fill="white" stroke="#666666" points="564,-85.5 386.75,-85.5 386.75,-52 564,-52 564,-85.5"/>
<text text-anchor="start" x="394.75" y="-72" font-family="Helvetica,sans-Serif" font-size="10.00">stateObservation::Accelerometer</text>
<text text-anchor="middle" x="475.38" y="-59.25" font-family="Helvetica,sans-Serif" font-size="10.00">Gyrometer</text>
</a>
</g>
</g>
<!-- Node2&#45;&gt;Node3 -->
<g id="edge2_Node000002_Node000003" class="edge">
<title>Node2&#45;&gt;Node3</title>
<g id="a_edge2_Node000002_Node000003"><a xlink:title=" ">
<path fill="none" stroke="#63b8ff" d="M362.39,-54.08C370.37,-55.13 378.46,-56.19 386.45,-57.23"/>
<polygon fill="#63b8ff" stroke="#63b8ff" points="363.07,-50.64 352.7,-52.81 362.16,-57.58 363.07,-50.64"/>
</a>
</g>
</g>
<!-- Node4 -->
<g id="Node000004" class="node">
<title>Node4</title>
<g id="a_Node000004"><a xlink:href="classstateObservation_1_1AccelerometerGyrometerMagnetometer.html" target="_top" xlink:title="Implements the accelerometer&#45;gyrometer&#45;magnetometer measurements.">
<polygon fill="white" stroke="#666666" points="564,-33.5 386.75,-33.5 386.75,0 564,0 564,-33.5"/>
<text text-anchor="start" x="394.75" y="-20" font-family="Helvetica,sans-Serif" font-size="10.00">stateObservation::Accelerometer</text>
<text text-anchor="middle" x="475.38" y="-7.25" font-family="Helvetica,sans-Serif" font-size="10.00">GyrometerMagnetometer</text>
</a>
</g>
</g>
<!-- Node2&#45;&gt;Node4 -->
<g id="edge3_Node000002_Node000004" class="edge">
<title>Node2&#45;&gt;Node4</title>
<g id="a_edge3_Node000002_Node000004"><a xlink:title=" ">
<path fill="none" stroke="#63b8ff" d="M362.39,-31.42C370.37,-30.37 378.46,-29.31 386.45,-28.27"/>
<polygon fill="#63b8ff" stroke="#63b8ff" points="362.16,-27.92 352.7,-32.69 363.07,-34.86 362.16,-27.92"/>
</a>
</g>
</g>
</g>
</svg>
