<?xml version="1.0" encoding="UTF-8" standalone="no"?>
<!DOCTYPE svg PUBLIC "-//W3C//DTD SVG 1.1//EN"
 "http://www.w3.org/Graphics/SVG/1.1/DTD/svg11.dtd">
<!-- Generated by graphviz version 12.2.1 (0)
 -->
<!-- Title: stateObservation::AccelerometerGyrometerMagnetometer Pages: 1 -->
<svg width="807pt" height="200pt"
 viewBox="0.00 0.00 806.75 199.50" xmlns="http://www.w3.org/2000/svg" xmlns:xlink="http://www.w3.org/1999/xlink">
<g id="graph0" class="graph" transform="scale(1 1) rotate(0) translate(4 195.5)">
<title>stateObservation::AccelerometerGyrometerMagnetometer</title>
<!-- Node1 -->
<g id="Node000001" class="node">
<title>Node1</title>
<g id="a_Node000001"><a xlink:title="Implements the accelerometer&#45;gyrometer&#45;magnetometer measurements.">
<polygon fill="#999999" stroke="#666666" points="798.75,-111.5 621.5,-111.5 621.5,-78 798.75,-78 798.75,-111.5"/>
<text text-anchor="start" x="629.5" y="-98" font-family="Helvetica,sans-Serif" font-size="10.00">stateObservation::Accelerometer</text>
<text text-anchor="middle" x="710.12" y="-85.25" font-family="Helvetica,sans-Serif" font-size="10.00">GyrometerMagnetometer</text>
</a>
</g>
</g>
<!-- Node2 -->
<g id="Node000002" class="node">
<title>Node2</title>
<g id="a_Node000002"><a xlink:href="classstateObservation_1_1AlgebraicSensor.html" target="_top" xlink:title="The base class for algebraic sensors. Algebraic sensors are sensors which depend only on the state va...">
<polygon fill="white" stroke="#666666" points="583.75,-189.5 432,-189.5 432,-156 583.75,-156 583.75,-189.5"/>
<text text-anchor="start" x="440" y="-176" font-family="Helvetica,sans-Serif" font-size="10.00">stateObservation::Algebraic</text>
<text text-anchor="middle" x="507.88" y="-163.25" font-family="Helvetica,sans-Serif" font-size="10.00">Sensor</text>
</a>
</g>
</g>
<!-- Node2&#45;&gt;Node1 -->
<g id="edge1_Node000001_Node000002" class="edge">
<title>Node2&#45;&gt;Node1</title>
<g id="a_edge1_Node000001_Node000002"><a xlink:title=" ">
<path fill="none" stroke="#63b8ff" d="M571,-151.75C575.58,-150.09 580.12,-148.41 584.5,-146.75 613.32,-135.8 645.41,-122.38 669.82,-111.91"/>
<polygon fill="#63b8ff" stroke="#63b8ff" points="569.96,-148.41 561.72,-155.06 572.31,-155 569.96,-148.41"/>
</a>
</g>
</g>
<!-- Node3 -->
<g id="Node000003" class="node">
<title>Node3</title>
<g id="a_Node000003"><a xlink:href="classstateObservation_1_1SensorBase.html" target="_top" xlink:title="The base class for sensors. This must be derived to implement a sensor.">
<polygon fill="white" stroke="#666666" points="394.25,-183.12 231.25,-183.12 231.25,-162.38 394.25,-162.38 394.25,-183.12"/>
<text text-anchor="middle" x="312.75" y="-169.62" font-family="Helvetica,sans-Serif" font-size="10.00">stateObservation::SensorBase</text>
</a>
</g>
</g>
<!-- Node3&#45;&gt;Node2 -->
<g id="edge2_Node000002_Node000003" class="edge">
<title>Node3&#45;&gt;Node2</title>
<g id="a_edge2_Node000002_Node000003"><a xlink:title=" ">
<path fill="none" stroke="#63b8ff" d="M405.85,-172.75C414.5,-172.75 423.19,-172.75 431.66,-172.75"/>
<polygon fill="#63b8ff" stroke="#63b8ff" points="406.05,-169.25 396.05,-172.75 406.05,-176.25 406.05,-169.25"/>
</a>
</g>
</g>
<!-- Node4 -->
<g id="Node000004" class="node">
<title>Node4</title>
<g id="a_Node000004"><a xlink:href="classstateObservation_1_1NoiseBase.html" target="_top" xlink:title=" ">
<polygon fill="white" stroke="#bfbfbf" points="157.75,-183.12 0,-183.12 0,-162.38 157.75,-162.38 157.75,-183.12"/>
<text text-anchor="middle" x="78.88" y="-169.62" font-family="Helvetica,sans-Serif" font-size="10.00">stateObservation::NoiseBase</text>
</a>
</g>
</g>
<!-- Node4&#45;&gt;Node3 -->
<g id="edge3_Node000003_Node000004" class="edge">
<title>Node4&#45;&gt;Node3</title>
<g id="a_edge3_Node000003_Node000004"><a xlink:title=" ">
<path fill="none" stroke="#9a32cd" stroke-dasharray="5,2" d="M169.52,-172.75C189.82,-172.75 211.25,-172.75 231.14,-172.75"/>
<polygon fill="#9a32cd" stroke="#9a32cd" points="169.57,-169.25 159.57,-172.75 169.57,-176.25 169.57,-169.25"/>
</a>
</g>
<text text-anchor="start" x="178.75" y="-179" font-family="Helvetica,sans-Serif" font-size="10.00" fill="grey">noise_</text>
</g>
<!-- Node5 -->
<g id="Node000005" class="node">
<title>Node5</title>
<g id="a_Node000005"><a xlink:href="classstateObservation_1_1algorithm_1_1LinearAcceleration.html" target="_top" xlink:title="Implements the measurements given by an accelerometer.">
<polygon fill="white" stroke="#666666" points="584.5,-137.5 431.25,-137.5 431.25,-104 584.5,-104 584.5,-137.5"/>
<text text-anchor="start" x="439.25" y="-124" font-family="Helvetica,sans-Serif" font-size="10.00">stateObservation::algorithm</text>
<text text-anchor="middle" x="507.88" y="-111.25" font-family="Helvetica,sans-Serif" font-size="10.00">::LinearAcceleration</text>
</a>
</g>
</g>
<!-- Node5&#45;&gt;Node1 -->
<g id="edge4_Node000001_Node000005" class="edge">
<title>Node5&#45;&gt;Node1</title>
<g id="a_edge4_Node000001_Node000005"><a xlink:title=" ">
<path fill="none" stroke="darkgreen" d="M596.08,-109.43C604.38,-108.35 612.8,-107.26 621.1,-106.18"/>
<polygon fill="darkgreen" stroke="darkgreen" points="595.83,-105.93 586.37,-110.69 596.73,-112.87 595.83,-105.93"/>
</a>
</g>
</g>
<!-- Node6 -->
<g id="Node000006" class="node">
<title>Node6</title>
<g id="a_Node000006"><a xlink:href="classstateObservation_1_1algorithm_1_1RotationVelocity.html" target="_top" xlink:title="Implements the gyrometer measurement algorithm.">
<polygon fill="white" stroke="#666666" points="584.5,-85.5 431.25,-85.5 431.25,-52 584.5,-52 584.5,-85.5"/>
<text text-anchor="start" x="439.25" y="-72" font-family="Helvetica,sans-Serif" font-size="10.00">stateObservation::algorithm</text>
<text text-anchor="middle" x="507.88" y="-59.25" font-family="Helvetica,sans-Serif" font-size="10.00">::RotationVelocity</text>
</a>
</g>
</g>
<!-- Node6&#45;&gt;Node1 -->
<g id="edge5_Node000001_Node000006" class="edge">
<title>Node6&#45;&gt;Node1</title>
<g id="a_edge5_Node000001_Node000006"><a xlink:title=" ">
<path fill="none" stroke="darkgreen" d="M596.08,-80.07C604.38,-81.15 612.8,-82.24 621.1,-83.32"/>
<polygon fill="darkgreen" stroke="darkgreen" points="596.73,-76.63 586.37,-78.81 595.83,-83.57 596.73,-76.63"/>
</a>
</g>
</g>
<!-- Node7 -->
<g id="Node000007" class="node">
<title>Node7</title>
<g id="a_Node000007"><a xlink:href="classstateObservation_1_1algorithm_1_1MagneticField.html" target="_top" xlink:title="Implements the measurements given by an magnetometer.">
<polygon fill="white" stroke="#666666" points="584.5,-33.5 431.25,-33.5 431.25,0 584.5,0 584.5,-33.5"/>
<text text-anchor="start" x="439.25" y="-20" font-family="Helvetica,sans-Serif" font-size="10.00">stateObservation::algorithm</text>
<text text-anchor="middle" x="507.88" y="-7.25" font-family="Helvetica,sans-Serif" font-size="10.00">::MagneticField</text>
</a>
</g>
</g>
<!-- Node7&#45;&gt;Node1 -->
<g id="edge6_Node000001_Node000007" class="edge">
<title>Node7&#45;&gt;Node1</title>
<g id="a_edge6_Node000001_Node000007"><a xlink:title=" ">
<path fill="none" stroke="darkgreen" d="M571,-37.75C575.58,-39.41 580.12,-41.09 584.5,-42.75 613.32,-53.7 645.41,-67.12 669.82,-77.59"/>
<polygon fill="darkgreen" stroke="darkgreen" points="572.31,-34.5 561.72,-34.44 569.96,-41.09 572.31,-34.5"/>
</a>
</g>
</g>
</g>
</svg>
