<?xml version="1.0" encoding="UTF-8" standalone="no"?>
<!DOCTYPE svg PUBLIC "-//W3C//DTD SVG 1.1//EN"
 "http://www.w3.org/Graphics/SVG/1.1/DTD/svg11.dtd">
<!-- Generated by graphviz version 12.2.1 (0)
 -->
<!-- Title: stateObservation::AccelerometerGyrometer Pages: 1 -->
<svg width="807pt" height="148pt"
 viewBox="0.00 0.00 806.75 147.50" xmlns="http://www.w3.org/2000/svg" xmlns:xlink="http://www.w3.org/1999/xlink">
<g id="graph0" class="graph" transform="scale(1 1) rotate(0) translate(4 143.5)">
<title>stateObservation::AccelerometerGyrometer</title>
<!-- Node1 -->
<g id="Node000001" class="node">
<title>Node1</title>
<g id="a_Node000001"><a xlink:title="Implements the accelerometer&#45;gyrometer measurements.">
<polygon fill="#999999" stroke="#666666" points="798.75,-85.5 621.5,-85.5 621.5,-52 798.75,-52 798.75,-85.5"/>
<text text-anchor="start" x="629.5" y="-72" font-family="Helvetica,sans-Serif" font-size="10.00">stateObservation::Accelerometer</text>
<text text-anchor="middle" x="710.12" y="-59.25" font-family="Helvetica,sans-Serif" font-size="10.00">Gyrometer</text>
</a>
</g>
</g>
<!-- Node2 -->
<g id="Node000002" class="node">
<title>Node2</title>
<g id="a_Node000002"><a xlink:href="classstateObservation_1_1AlgebraicSensor.html" target="_top" xlink:title="The base class for algebraic sensors. Algebraic sensors are sensors which depend only on the state va...">
<polygon fill="white" stroke="#666666" points="583.75,-137.5 432,-137.5 432,-104 583.75,-104 583.75,-137.5"/>
<text text-anchor="start" x="440" y="-124" font-family="Helvetica,sans-Serif" font-size="10.00">stateObservation::Algebraic</text>
<text text-anchor="middle" x="507.88" y="-111.25" font-family="Helvetica,sans-Serif" font-size="10.00">Sensor</text>
</a>
</g>
</g>
<!-- Node2&#45;&gt;Node1 -->
<g id="edge1_Node000001_Node000002" class="edge">
<title>Node2&#45;&gt;Node1</title>
<g id="a_edge1_Node000001_Node000002"><a xlink:title=" ">
<path fill="none" stroke="#63b8ff" d="M586.42,-100.61C605.07,-95.77 624.82,-90.64 642.9,-85.95"/>
<polygon fill="#63b8ff" stroke="#63b8ff" points="585.54,-97.23 576.74,-103.13 587.3,-104 585.54,-97.23"/>
</a>
</g>
</g>
<!-- Node3 -->
<g id="Node000003" class="node">
<title>Node3</title>
<g id="a_Node000003"><a xlink:href="classstateObservation_1_1SensorBase.html" target="_top" xlink:title="The base class for sensors. This must be derived to implement a sensor.">
<polygon fill="white" stroke="#666666" points="394.25,-131.12 231.25,-131.12 231.25,-110.38 394.25,-110.38 394.25,-131.12"/>
<text text-anchor="middle" x="312.75" y="-117.62" font-family="Helvetica,sans-Serif" font-size="10.00">stateObservation::SensorBase</text>
</a>
</g>
</g>
<!-- Node3&#45;&gt;Node2 -->
<g id="edge2_Node000002_Node000003" class="edge">
<title>Node3&#45;&gt;Node2</title>
<g id="a_edge2_Node000002_Node000003"><a xlink:title=" ">
<path fill="none" stroke="#63b8ff" d="M405.85,-120.75C414.5,-120.75 423.19,-120.75 431.66,-120.75"/>
<polygon fill="#63b8ff" stroke="#63b8ff" points="406.05,-117.25 396.05,-120.75 406.05,-124.25 406.05,-117.25"/>
</a>
</g>
</g>
<!-- Node4 -->
<g id="Node000004" class="node">
<title>Node4</title>
<g id="a_Node000004"><a xlink:href="classstateObservation_1_1NoiseBase.html" target="_top" xlink:title=" ">
<polygon fill="white" stroke="#bfbfbf" points="157.75,-131.12 0,-131.12 0,-110.38 157.75,-110.38 157.75,-131.12"/>
<text text-anchor="middle" x="78.88" y="-117.62" font-family="Helvetica,sans-Serif" font-size="10.00">stateObservation::NoiseBase</text>
</a>
</g>
</g>
<!-- Node4&#45;&gt;Node3 -->
<g id="edge3_Node000003_Node000004" class="edge">
<title>Node4&#45;&gt;Node3</title>
<g id="a_edge3_Node000003_Node000004"><a xlink:title=" ">
<path fill="none" stroke="#9a32cd" stroke-dasharray="5,2" d="M169.52,-120.75C189.82,-120.75 211.25,-120.75 231.14,-120.75"/>
<polygon fill="#9a32cd" stroke="#9a32cd" points="169.57,-117.25 159.57,-120.75 169.57,-124.25 169.57,-117.25"/>
</a>
</g>
<text text-anchor="start" x="178.75" y="-127" font-family="Helvetica,sans-Serif" font-size="10.00" fill="grey">noise_</text>
</g>
<!-- Node5 -->
<g id="Node000005" class="node">
<title>Node5</title>
<g id="a_Node000005"><a xlink:href="classstateObservation_1_1algorithm_1_1LinearAcceleration.html" target="_top" xlink:title="Implements the measurements given by an accelerometer.">
<polygon fill="white" stroke="#666666" points="584.5,-85.5 431.25,-85.5 431.25,-52 584.5,-52 584.5,-85.5"/>
<text text-anchor="start" x="439.25" y="-72" font-family="Helvetica,sans-Serif" font-size="10.00">stateObservation::algorithm</text>
<text text-anchor="middle" x="507.88" y="-59.25" font-family="Helvetica,sans-Serif" font-size="10.00">::LinearAcceleration</text>
</a>
</g>
</g>
<!-- Node5&#45;&gt;Node1 -->
<g id="edge4_Node000001_Node000005" class="edge">
<title>Node5&#45;&gt;Node1</title>
<g id="a_edge4_Node000001_Node000005"><a xlink:title=" ">
<path fill="none" stroke="darkgreen" d="M596.37,-68.75C604.57,-68.75 612.89,-68.75 621.1,-68.75"/>
<polygon fill="darkgreen" stroke="darkgreen" points="596.38,-65.25 586.38,-68.75 596.38,-72.25 596.38,-65.25"/>
</a>
</g>
</g>
<!-- Node6 -->
<g id="Node000006" class="node">
<title>Node6</title>
<g id="a_Node000006"><a xlink:href="classstateObservation_1_1algorithm_1_1RotationVelocity.html" target="_top" xlink:title="Implements the gyrometer measurement algorithm.">
<polygon fill="white" stroke="#666666" points="584.5,-33.5 431.25,-33.5 431.25,0 584.5,0 584.5,-33.5"/>
<text text-anchor="start" x="439.25" y="-20" font-family="Helvetica,sans-Serif" font-size="10.00">stateObservation::algorithm</text>
<text text-anchor="middle" x="507.88" y="-7.25" font-family="Helvetica,sans-Serif" font-size="10.00">::RotationVelocity</text>
</a>
</g>
</g>
<!-- Node6&#45;&gt;Node1 -->
<g id="edge5_Node000001_Node000006" class="edge">
<title>Node6&#45;&gt;Node1</title>
<g id="a_edge5_Node000001_Node000006"><a xlink:title=" ">
<path fill="none" stroke="darkgreen" d="M586.42,-36.89C605.07,-41.73 624.82,-46.86 642.9,-51.55"/>
<polygon fill="darkgreen" stroke="darkgreen" points="587.3,-33.5 576.74,-34.37 585.54,-40.27 587.3,-33.5"/>
</a>
</g>
</g>
</g>
</svg>
