<?xml version="1.0" encoding="UTF-8" standalone="no"?>
<!DOCTYPE svg PUBLIC "-//W3C//DTD SVG 1.1//EN"
 "http://www.w3.org/Graphics/SVG/1.1/DTD/svg11.dtd">
<!-- Generated by graphviz version 12.2.1 (0)
 -->
<!-- Title: stateObservation::TiltEstimatorHumanoid Pages: 1 -->
<svg width="182pt" height="225pt"
 viewBox="0.00 0.00 182.25 224.50" xmlns="http://www.w3.org/2000/svg" xmlns:xlink="http://www.w3.org/1999/xlink">
<g id="graph0" class="graph" transform="scale(1 1) rotate(0) translate(4 220.5)">
<title>stateObservation::TiltEstimatorHumanoid</title>
<!-- Node1 -->
<g id="Node000001" class="node">
<title>Node1</title>
<g id="a_Node000001"><a xlink:title="Version of the Tilt Estimator for humanoid robots.">
<polygon fill="#999999" stroke="#666666" points="171.62,-33.5 2.62,-33.5 2.62,0 171.62,0 171.62,-33.5"/>
<text text-anchor="start" x="10.62" y="-20" font-family="Helvetica,sans-Serif" font-size="10.00">stateObservation::TiltEstimator</text>
<text text-anchor="middle" x="87.12" y="-7.25" font-family="Helvetica,sans-Serif" font-size="10.00">Humanoid</text>
</a>
</g>
</g>
<!-- Node2 -->
<g id="Node000002" class="node">
<title>Node2</title>
<g id="a_Node000002"><a xlink:href="classstateObservation_1_1TiltEstimator.html" target="_top" xlink:title="Description is pending.">
<polygon fill="white" stroke="#666666" points="171.62,-90.25 2.62,-90.25 2.62,-69.5 171.62,-69.5 171.62,-90.25"/>
<text text-anchor="middle" x="87.12" y="-76.75" font-family="Helvetica,sans-Serif" font-size="10.00">stateObservation::TiltEstimator</text>
</a>
</g>
</g>
<!-- Node2&#45;&gt;Node1 -->
<g id="edge1_Node000001_Node000002" class="edge">
<title>Node2&#45;&gt;Node1</title>
<g id="a_edge1_Node000001_Node000002"><a xlink:title=" ">
<path fill="none" stroke="#63b8ff" d="M87.12,-57.59C87.12,-49.85 87.12,-41.22 87.12,-33.98"/>
<polygon fill="#63b8ff" stroke="#63b8ff" points="83.63,-57.54 87.13,-67.54 90.63,-57.54 83.63,-57.54"/>
</a>
</g>
</g>
<!-- Node3 -->
<g id="Node000003" class="node">
<title>Node3</title>
<g id="a_Node000003"><a xlink:href="classstateObservation_1_1ZeroDelayObserver.html" target="_top" xlink:title="Defines the base class of online zero delay observers. Zero delay observers are the classical state o...">
<polygon fill="white" stroke="#666666" points="165.62,-159.75 8.62,-159.75 8.62,-126.25 165.62,-126.25 165.62,-159.75"/>
<text text-anchor="start" x="16.62" y="-146.25" font-family="Helvetica,sans-Serif" font-size="10.00">stateObservation::ZeroDelay</text>
<text text-anchor="middle" x="87.12" y="-133.5" font-family="Helvetica,sans-Serif" font-size="10.00">Observer</text>
</a>
</g>
</g>
<!-- Node3&#45;&gt;Node2 -->
<g id="edge2_Node000002_Node000003" class="edge">
<title>Node3&#45;&gt;Node2</title>
<g id="a_edge2_Node000002_Node000003"><a xlink:title=" ">
<path fill="none" stroke="#63b8ff" d="M87.12,-114.44C87.12,-105.96 87.12,-97.17 87.12,-90.72"/>
<polygon fill="#63b8ff" stroke="#63b8ff" points="83.63,-114.43 87.13,-124.43 90.63,-114.43 83.63,-114.43"/>
</a>
</g>
</g>
<!-- Node4 -->
<g id="Node000004" class="node">
<title>Node4</title>
<g id="a_Node000004"><a xlink:href="classstateObservation_1_1ObserverBase.html" target="_top" xlink:title="The base class for observers. The observer is destinated to any dynamical system with a vector state ...">
<polygon fill="white" stroke="#666666" points="174.25,-216.5 0,-216.5 0,-195.75 174.25,-195.75 174.25,-216.5"/>
<text text-anchor="middle" x="87.12" y="-203" font-family="Helvetica,sans-Serif" font-size="10.00">stateObservation::ObserverBase</text>
</a>
</g>
</g>
<!-- Node4&#45;&gt;Node3 -->
<g id="edge3_Node000003_Node000004" class="edge">
<title>Node4&#45;&gt;Node3</title>
<g id="a_edge3_Node000003_Node000004"><a xlink:title=" ">
<path fill="none" stroke="#63b8ff" d="M87.12,-183.84C87.12,-176.1 87.12,-167.47 87.12,-160.23"/>
<polygon fill="#63b8ff" stroke="#63b8ff" points="83.63,-183.79 87.13,-193.79 90.63,-183.79 83.63,-183.79"/>
</a>
</g>
</g>
</g>
</svg>
