<?xml version="1.0" encoding="UTF-8" standalone="no"?>
<!DOCTYPE svg PUBLIC "-//W3C//DTD SVG 1.1//EN"
 "http://www.w3.org/Graphics/SVG/1.1/DTD/svg11.dtd">
<!-- Generated by graphviz version 12.2.1 (0)
 -->
<!-- Title: stateObservation::KineticsObserver Pages: 1 -->
<svg width="1663pt" height="929pt"
 viewBox="0.00 0.00 1663.00 928.63" xmlns="http://www.w3.org/2000/svg" xmlns:xlink="http://www.w3.org/1999/xlink">
<g id="graph0" class="graph" transform="scale(1 1) rotate(0) translate(4 924.63)">
<title>stateObservation::KineticsObserver</title>
<!-- Node1 -->
<g id="Node000001" class="node">
<title>Node1</title>
<g id="a_Node000001"><a xlink:title="This observer estimates the kinematics, the external forces, the bias on the gyrometers measurements,...">
<polygon fill="#999999" stroke="#666666" points="1655,-452.26 1510,-452.26 1510,-418.76 1655,-418.76 1655,-452.26"/>
<text text-anchor="start" x="1518" y="-438.76" font-family="Helvetica,sans-Serif" font-size="10.00">stateObservation::Kinetics</text>
<text text-anchor="middle" x="1582.5" y="-426.01" font-family="Helvetica,sans-Serif" font-size="10.00">Observer</text>
</a>
</g>
</g>
<!-- Node2 -->
<g id="Node000002" class="node">
<title>Node2</title>
<g id="a_Node000002"><a xlink:href="classstateObservation_1_1DynamicalSystemFunctorBase.html" target="_top" xlink:title="This is the base class of any functor that describes the dynamics of the state and the measurement....">
<polygon fill="white" stroke="#666666" points="1089.75,-759.26 931.25,-759.26 931.25,-725.76 1089.75,-725.76 1089.75,-759.26"/>
<text text-anchor="start" x="939.25" y="-745.76" font-family="Helvetica,sans-Serif" font-size="10.00">stateObservation::Dynamical</text>
<text text-anchor="middle" x="1010.5" y="-733.01" font-family="Helvetica,sans-Serif" font-size="10.00">SystemFunctorBase</text>
</a>
</g>
</g>
<!-- Node2&#45;&gt;Node1 -->
<g id="edge1_Node000001_Node000002" class="edge">
<title>Node2&#45;&gt;Node1</title>
<g id="a_edge1_Node000001_Node000002"><a xlink:title=" ">
<path fill="none" stroke="darkgreen" d="M1101.34,-732.21C1223.35,-716.62 1433.01,-683.66 1492,-635.51 1551.23,-587.16 1572.63,-491.44 1579.08,-452.54"/>
<polygon fill="darkgreen" stroke="darkgreen" points="1101.16,-728.7 1091.68,-733.43 1102.04,-735.65 1101.16,-728.7"/>
</a>
</g>
</g>
<!-- Node18 -->
<g id="Node000018" class="node">
<title>Node18</title>
<g id="a_Node000018"><a xlink:href="classstateObservation_1_1ExtendedKalmanFilter.html" target="_top" xlink:title=" ">
<polygon fill="white" stroke="#666666" points="1360,-786.26 1208.25,-786.26 1208.25,-752.76 1360,-752.76 1360,-786.26"/>
<text text-anchor="start" x="1216.25" y="-772.76" font-family="Helvetica,sans-Serif" font-size="10.00">stateObservation::Extended</text>
<text text-anchor="middle" x="1284.12" y="-760.01" font-family="Helvetica,sans-Serif" font-size="10.00">KalmanFilter</text>
</a>
</g>
</g>
<!-- Node2&#45;&gt;Node18 -->
<g id="edge34_Node000018_Node000002" class="edge">
<title>Node2&#45;&gt;Node18</title>
<g id="a_edge34_Node000018_Node000002"><a xlink:title=" ">
<path fill="none" stroke="#9a32cd" stroke-dasharray="5,2" d="M1101.12,-749.17C1127.66,-751.35 1156.77,-753.94 1183.5,-756.76 1191.39,-757.59 1199.62,-758.53 1207.83,-759.51"/>
<polygon fill="#9a32cd" stroke="#9a32cd" points="1101.67,-745.71 1091.42,-748.39 1101.11,-752.68 1101.67,-745.71"/>
</a>
</g>
<text text-anchor="start" x="1141.12" y="-763.01" font-family="Helvetica,sans-Serif" font-size="10.00" fill="grey">f_</text>
</g>
<!-- Node3 -->
<g id="Node000003" class="node">
<title>Node3</title>
<g id="a_Node000003"><a xlink:href="classstateObservation_1_1StateVectorArithmetics.html" target="_top" xlink:title="This class is used to customize the way the difference between measurements, the state update functio...">
<polygon fill="white" stroke="#666666" points="742.38,-885.26 580.12,-885.26 580.12,-851.76 742.38,-851.76 742.38,-885.26"/>
<text text-anchor="start" x="588.12" y="-871.76" font-family="Helvetica,sans-Serif" font-size="10.00">stateObservation::StateVector</text>
<text text-anchor="middle" x="661.25" y="-859.01" font-family="Helvetica,sans-Serif" font-size="10.00">Arithmetics</text>
</a>
</g>
</g>
<!-- Node3&#45;&gt;Node1 -->
<g id="edge2_Node000001_Node000003" class="edge">
<title>Node3&#45;&gt;Node1</title>
<g id="a_edge2_Node000001_Node000003"><a xlink:title=" ">
<path fill="none" stroke="darkgreen" d="M743.92,-888.06C910.14,-922.5 1289.17,-972.81 1492,-773.51 1539.19,-727.13 1570.91,-514.64 1579.29,-452.57"/>
<polygon fill="darkgreen" stroke="darkgreen" points="744.79,-884.67 734.28,-886.03 743.34,-891.52 744.79,-884.67"/>
</a>
</g>
</g>
<!-- Node19 -->
<g id="Node000019" class="node">
<title>Node19</title>
<g id="a_Node000019"><a xlink:href="classstateObservation_1_1KalmanFilterBase.html" target="_top" xlink:title="It mostly implements the equations of Kalman filtering It is suitablle by derivation to be used incas...">
<polygon fill="white" stroke="#666666" points="1082.25,-811.26 938.75,-811.26 938.75,-777.76 1082.25,-777.76 1082.25,-811.26"/>
<text text-anchor="start" x="946.75" y="-797.76" font-family="Helvetica,sans-Serif" font-size="10.00">stateObservation::Kalman</text>
<text text-anchor="middle" x="1010.5" y="-785.01" font-family="Helvetica,sans-Serif" font-size="10.00">FilterBase</text>
</a>
</g>
</g>
<!-- Node3&#45;&gt;Node19 -->
<g id="edge30_Node000019_Node000003" class="edge">
<title>Node3&#45;&gt;Node19</title>
<g id="a_edge30_Node000019_Node000003"><a xlink:title=" ">
<path fill="none" stroke="darkgreen" d="M753.86,-871.65C814.45,-872.04 887.32,-868.8 913.25,-852.51 927.07,-843.83 918.66,-830.89 931.25,-820.51 935.34,-817.14 939.88,-814.2 944.65,-811.64"/>
<polygon fill="darkgreen" stroke="darkgreen" points="754.26,-868.15 744.22,-871.55 754.18,-875.15 754.26,-868.15"/>
</a>
</g>
</g>
<!-- Node3&#45;&gt;Node19 -->
<g id="edge33_Node000019_Node000003" class="edge">
<title>Node3&#45;&gt;Node19</title>
<g id="a_edge33_Node000019_Node000003"><a xlink:title=" ">
<path fill="none" stroke="#9a32cd" stroke-dasharray="5,2" d="M727.46,-847.52C735.45,-844.64 743.45,-841.61 751,-838.51 759.23,-835.13 760.48,-832.32 769,-829.76 830.93,-811.1 849.28,-820.09 913.25,-810.51 921.37,-809.29 929.88,-807.96 938.32,-806.6"/>
<polygon fill="#9a32cd" stroke="#9a32cd" points="726.32,-844.21 718.05,-850.84 728.65,-850.81 726.32,-844.21"/>
</a>
</g>
<text text-anchor="start" x="822.38" y="-836.01" font-family="Helvetica,sans-Serif" font-size="10.00" fill="grey">arithm_</text>
</g>
<!-- Node4 -->
<g id="Node000004" class="node">
<title>Node4</title>
<g id="a_Node000004"><a xlink:href="structstateObservation_1_1KineticsObserver_1_1AbsolutePoseSensor.html" target="_top" xlink:title=" ">
<polygon fill="white" stroke="#bfbfbf" points="1366.75,-305.26 1201.5,-305.26 1201.5,-271.76 1366.75,-271.76 1366.75,-305.26"/>
<text text-anchor="start" x="1209.5" y="-291.76" font-family="Helvetica,sans-Serif" font-size="10.00">stateObservation::Kinetics</text>
<text text-anchor="middle" x="1284.12" y="-279.01" font-family="Helvetica,sans-Serif" font-size="10.00">Observer::AbsolutePoseSensor</text>
</a>
</g>
</g>
<!-- Node4&#45;&gt;Node1 -->
<g id="edge3_Node000001_Node000004" class="edge">
<title>Node4&#45;&gt;Node1</title>
<g id="a_edge3_Node000001_Node000004"><a xlink:title=" ">
<path fill="none" stroke="#9a32cd" stroke-dasharray="5,2" d="M1368.47,-308.92C1407.48,-320.42 1453.68,-336.91 1492,-358.76 1520.63,-375.08 1548.65,-401.23 1565.5,-418.39"/>
<polygon fill="#9a32cd" stroke="#9a32cd" points="1369.44,-305.56 1358.87,-306.16 1367.51,-312.29 1369.44,-305.56"/>
</a>
</g>
<text text-anchor="start" x="1399" y="-365.01" font-family="Helvetica,sans-Serif" font-size="10.00" fill="grey">absPoseSensor_</text>
</g>
<!-- Node5 -->
<g id="Node000005" class="node">
<title>Node5</title>
<g id="a_Node000005"><a xlink:href="structstateObservation_1_1KineticsObserver_1_1Sensor.html" target="_top" xlink:title=" ">
<polygon fill="white" stroke="#bfbfbf" points="376.62,-209.26 231.62,-209.26 231.62,-175.76 376.62,-175.76 376.62,-209.26"/>
<text text-anchor="start" x="239.62" y="-195.76" font-family="Helvetica,sans-Serif" font-size="10.00">stateObservation::Kinetics</text>
<text text-anchor="middle" x="304.12" y="-183.01" font-family="Helvetica,sans-Serif" font-size="10.00">Observer::Sensor</text>
</a>
</g>
</g>
<!-- Node5&#45;&gt;Node4 -->
<g id="edge4_Node000004_Node000005" class="edge">
<title>Node5&#45;&gt;Node4</title>
<g id="a_edge4_Node000004_Node000005"><a xlink:title=" ">
<path fill="none" stroke="#63b8ff" d="M388.46,-190.92C562.12,-188.18 957.58,-185.07 1089.75,-210.51 1149.47,-222 1214.09,-252 1251.45,-271.27"/>
<polygon fill="#63b8ff" stroke="#63b8ff" points="388.55,-187.42 378.61,-191.08 388.66,-194.42 388.55,-187.42"/>
</a>
</g>
</g>
<!-- Node13 -->
<g id="Node000013" class="node">
<title>Node13</title>
<g id="a_Node000013"><a xlink:href="structstateObservation_1_1KineticsObserver_1_1AbsoluteOriSensor.html" target="_top" xlink:title=" ">
<polygon fill="white" stroke="#bfbfbf" points="739.38,-163.26 583.12,-163.26 583.12,-129.76 739.38,-129.76 739.38,-163.26"/>
<text text-anchor="start" x="591.12" y="-149.76" font-family="Helvetica,sans-Serif" font-size="10.00">stateObservation::Kinetics</text>
<text text-anchor="middle" x="661.25" y="-137.01" font-family="Helvetica,sans-Serif" font-size="10.00">Observer::AbsoluteOriSensor</text>
</a>
</g>
</g>
<!-- Node5&#45;&gt;Node13 -->
<g id="edge13_Node000013_Node000005" class="edge">
<title>Node5&#45;&gt;Node13</title>
<g id="a_edge13_Node000013_Node000005"><a xlink:title=" ">
<path fill="none" stroke="#63b8ff" d="M388.1,-181.76C446.85,-174.15 525.12,-164.01 582.64,-156.56"/>
<polygon fill="#63b8ff" stroke="#63b8ff" points="387.96,-178.25 378.49,-183.01 388.86,-185.19 387.96,-178.25"/>
</a>
</g>
</g>
<!-- Node6 -->
<g id="Node000006" class="node">
<title>Node6</title>
<g id="a_Node000006"><a xlink:href="structstateObservation_1_1kine_1_1Kinematics.html" target="_top" xlink:title="Class facilitating the manipulation of the kinematics of a frame within another and the associated op...">
<polygon fill="white" stroke="#666666" points="1074,-374.26 947,-374.26 947,-340.76 1074,-340.76 1074,-374.26"/>
<text text-anchor="start" x="955" y="-360.76" font-family="Helvetica,sans-Serif" font-size="10.00">stateObservation::kine</text>
<text text-anchor="middle" x="1010.5" y="-348.01" font-family="Helvetica,sans-Serif" font-size="10.00">::Kinematics</text>
</a>
</g>
</g>
<!-- Node6&#45;&gt;Node1 -->
<g id="edge22_Node000001_Node000006" class="edge">
<title>Node6&#45;&gt;Node1</title>
<g id="a_edge22_Node000001_Node000006"><a xlink:title=" ">
<path fill="none" stroke="#9a32cd" stroke-dasharray="5,2" d="M1038.91,-381.8C1057.07,-396.28 1082.19,-413.37 1107.75,-421.51 1144.9,-433.33 1386.64,-435.32 1509.72,-435.56"/>
<polygon fill="#9a32cd" stroke="#9a32cd" points="1041.19,-379.15 1031.25,-375.49 1036.74,-384.55 1041.19,-379.15"/>
</a>
</g>
<text text-anchor="start" x="1220" y="-440.75" font-family="Helvetica,sans-Serif" font-size="10.00" fill="grey">worldCentroidKinematics_</text>
</g>
<!-- Node6&#45;&gt;Node4 -->
<g id="edge5_Node000004_Node000006" class="edge">
<title>Node6&#45;&gt;Node4</title>
<g id="a_edge5_Node000004_Node000006"><a xlink:title=" ">
<path fill="none" stroke="#9a32cd" stroke-dasharray="5,2" d="M1075.17,-337.05C1086,-333.79 1097.16,-330.57 1107.75,-327.76 1138.05,-319.7 1171.59,-311.92 1201.16,-305.44"/>
<polygon fill="#9a32cd" stroke="#9a32cd" points="1074.48,-333.6 1065.93,-339.86 1076.52,-340.3 1074.48,-333.6"/>
</a>
</g>
<text text-anchor="start" x="1134" y="-334.01" font-family="Helvetica,sans-Serif" font-size="10.00" fill="grey">pose</text>
</g>
<!-- Node7 -->
<g id="Node000007" class="node">
<title>Node7</title>
<g id="a_Node000007"><a xlink:href="classstateObservation_1_1kine_1_1internal_1_1KinematicsInternal.html" target="_top" xlink:title=" ">
<polygon fill="white" stroke="#bfbfbf" points="740.12,-380.63 582.38,-380.63 582.38,-334.38 740.12,-334.38 740.12,-380.63"/>
<text text-anchor="start" x="590.38" y="-367.13" font-family="Helvetica,sans-Serif" font-size="10.00">stateObservation::kine</text>
<text text-anchor="start" x="590.38" y="-354.38" font-family="Helvetica,sans-Serif" font-size="10.00">::internal::KinematicsInternal</text>
<text text-anchor="middle" x="661.25" y="-341.63" font-family="Helvetica,sans-Serif" font-size="10.00">&lt; Kinematics &gt;</text>
</a>
</g>
</g>
<!-- Node7&#45;&gt;Node6 -->
<g id="edge6_Node000006_Node000007" class="edge">
<title>Node7&#45;&gt;Node6</title>
<g id="a_edge6_Node000006_Node000007"><a xlink:title=" ">
<path fill="none" stroke="#63b8ff" d="M751.8,-357.51C812.91,-357.51 892.33,-357.51 946.76,-357.51"/>
<polygon fill="#63b8ff" stroke="#63b8ff" points="752.13,-354.01 742.13,-357.51 752.13,-361.01 752.13,-354.01"/>
</a>
</g>
</g>
<!-- Node8 -->
<g id="Node000008" class="node">
<title>Node8</title>
<g id="a_Node000008"><a xlink:href="classstateObservation_1_1CheckedItem.html" target="_top" xlink:title=" ">
<polygon fill="white" stroke="#666666" points="378.88,-453.63 229.38,-453.63 229.38,-407.38 378.88,-407.38 378.88,-453.63"/>
<text text-anchor="start" x="237.38" y="-440.13" font-family="Helvetica,sans-Serif" font-size="10.00">stateObservation::Checked</text>
<text text-anchor="start" x="237.38" y="-427.38" font-family="Helvetica,sans-Serif" font-size="10.00">Item&lt; Vector3, false, false,</text>
<text text-anchor="middle" x="304.12" y="-414.63" font-family="Helvetica,sans-Serif" font-size="10.00"> true, true, CheckNaN &gt;</text>
</a>
</g>
</g>
<!-- Node8&#45;&gt;Node7 -->
<g id="edge7_Node000007_Node000008" class="edge">
<title>Node8&#45;&gt;Node7</title>
<g id="a_edge7_Node000007_Node000008"><a xlink:title=" ">
<path fill="none" stroke="#9a32cd" stroke-dasharray="5,2" d="M348.22,-400.93C366.28,-390.08 387.98,-378.96 409.25,-372.76 465.52,-356.36 531.8,-352.97 582.12,-353.45"/>
<polygon fill="#9a32cd" stroke="#9a32cd" points="346.54,-397.85 339.88,-406.09 350.23,-403.8 346.54,-397.85"/>
</a>
</g>
<text text-anchor="start" x="461.88" y="-446.01" font-family="Helvetica,sans-Serif" font-size="10.00" fill="grey">angAcc</text>
<text text-anchor="start" x="461.88" y="-429.26" font-family="Helvetica,sans-Serif" font-size="10.00" fill="grey">angVel</text>
<text text-anchor="start" x="461.88" y="-412.51" font-family="Helvetica,sans-Serif" font-size="10.00" fill="grey">linAcc</text>
<text text-anchor="start" x="461.88" y="-395.76" font-family="Helvetica,sans-Serif" font-size="10.00" fill="grey">linVel</text>
<text text-anchor="start" x="461.88" y="-379.01" font-family="Helvetica,sans-Serif" font-size="10.00" fill="grey">position</text>
</g>
<!-- Node17 -->
<g id="Node000017" class="node">
<title>Node17</title>
<g id="a_Node000017"><a xlink:href="classstateObservation_1_1kine_1_1internal_1_1KinematicsInternal.html" target="_top" xlink:title=" ">
<polygon fill="white" stroke="#bfbfbf" points="740.12,-466.63 582.38,-466.63 582.38,-420.38 740.12,-420.38 740.12,-466.63"/>
<text text-anchor="start" x="590.38" y="-453.13" font-family="Helvetica,sans-Serif" font-size="10.00">stateObservation::kine</text>
<text text-anchor="start" x="590.38" y="-440.38" font-family="Helvetica,sans-Serif" font-size="10.00">::internal::KinematicsInternal</text>
<text text-anchor="middle" x="661.25" y="-427.63" font-family="Helvetica,sans-Serif" font-size="10.00">&lt; LocalKinematics &gt;</text>
</a>
</g>
</g>
<!-- Node8&#45;&gt;Node17 -->
<g id="edge20_Node000017_Node000008" class="edge">
<title>Node8&#45;&gt;Node17</title>
<g id="a_edge20_Node000017_Node000008"><a xlink:title=" ">
<path fill="none" stroke="#9a32cd" stroke-dasharray="5,2" d="M382.28,-456.99C391.28,-459.25 400.41,-461.18 409.25,-462.51 472.65,-472.03 489.64,-468.15 553.5,-462.51 562.78,-461.69 572.47,-460.48 582.05,-459.05"/>
<polygon fill="#9a32cd" stroke="#9a32cd" points="383.4,-453.67 372.84,-454.47 381.6,-460.43 383.4,-453.67"/>
</a>
</g>
<text text-anchor="start" x="461.88" y="-541.53" font-family="Helvetica,sans-Serif" font-size="10.00" fill="grey">angAcc</text>
<text text-anchor="start" x="461.88" y="-524.78" font-family="Helvetica,sans-Serif" font-size="10.00" fill="grey">angVel</text>
<text text-anchor="start" x="461.88" y="-508.03" font-family="Helvetica,sans-Serif" font-size="10.00" fill="grey">linAcc</text>
<text text-anchor="start" x="461.88" y="-491.28" font-family="Helvetica,sans-Serif" font-size="10.00" fill="grey">linVel</text>
<text text-anchor="start" x="461.88" y="-474.53" font-family="Helvetica,sans-Serif" font-size="10.00" fill="grey">position</text>
</g>
<!-- Node9 -->
<g id="Node000009" class="node">
<title>Node9</title>
<g id="a_Node000009"><a xlink:href="classstateObservation_1_1kine_1_1Orientation.html" target="_top" xlink:title=" ">
<polygon fill="white" stroke="#bfbfbf" points="367.62,-275.26 240.62,-275.26 240.62,-241.76 367.62,-241.76 367.62,-275.26"/>
<text text-anchor="start" x="248.62" y="-261.76" font-family="Helvetica,sans-Serif" font-size="10.00">stateObservation::kine</text>
<text text-anchor="middle" x="304.12" y="-249.01" font-family="Helvetica,sans-Serif" font-size="10.00">::Orientation</text>
</a>
</g>
</g>
<!-- Node9&#45;&gt;Node7 -->
<g id="edge8_Node000007_Node000009" class="edge">
<title>Node9&#45;&gt;Node7</title>
<g id="a_edge8_Node000007_Node000009"><a xlink:title=" ">
<path fill="none" stroke="#9a32cd" stroke-dasharray="5,2" d="M379.5,-267.22C446.64,-275.33 537.31,-287.01 553.5,-292.76 580.87,-302.48 608.84,-319.76 629.27,-334.03"/>
<polygon fill="#9a32cd" stroke="#9a32cd" points="379.95,-263.74 369.6,-266.03 379.11,-270.69 379.95,-263.74"/>
</a>
</g>
<text text-anchor="start" x="454.75" y="-299.01" font-family="Helvetica,sans-Serif" font-size="10.00" fill="grey">orientation</text>
</g>
<!-- Node9&#45;&gt;Node13 -->
<g id="edge14_Node000013_Node000009" class="edge">
<title>Node9&#45;&gt;Node13</title>
<g id="a_edge14_Node000013_Node000009"><a xlink:title=" ">
<path fill="none" stroke="#9a32cd" stroke-dasharray="5,2" d="M369.64,-237.93C382.73,-233.83 396.42,-229.61 409.25,-225.76 473.12,-206.59 490,-204.87 553.5,-184.51 573.45,-178.11 595.28,-170.46 613.97,-163.71"/>
<polygon fill="#9a32cd" stroke="#9a32cd" points="368.75,-234.54 360.26,-240.87 370.85,-241.22 368.75,-234.54"/>
</a>
</g>
<text text-anchor="start" x="475" y="-232.01" font-family="Helvetica,sans-Serif" font-size="10.00" fill="grey">ori</text>
</g>
<!-- Node9&#45;&gt;Node17 -->
<g id="edge21_Node000017_Node000009" class="edge">
<title>Node9&#45;&gt;Node17</title>
<g id="a_edge21_Node000017_Node000009"><a xlink:title=" ">
<path fill="none" stroke="#9a32cd" stroke-dasharray="5,2" d="M342.21,-281.27C361.53,-292.1 385.94,-304.25 409.25,-311.51 440.13,-321.12 528.83,-309.85 553.5,-330.76 574.33,-348.42 554.74,-367.95 571.5,-389.51 581.02,-401.76 594.16,-411.87 607.41,-419.9"/>
<polygon fill="#9a32cd" stroke="#9a32cd" points="344.05,-278.29 333.63,-276.34 340.56,-284.36 344.05,-278.29"/>
</a>
</g>
<text text-anchor="start" x="454.75" y="-337.01" font-family="Helvetica,sans-Serif" font-size="10.00" fill="grey">orientation</text>
</g>
<!-- Node30 -->
<g id="Node000030" class="node">
<title>Node30</title>
<g id="a_Node000030"><a xlink:href="structstateObservation_1_1KineticsObserver_1_1Opt.html" target="_top" xlink:title="a structure to optimize computations">
<polygon fill="white" stroke="#666666" points="1356.62,-385.26 1211.62,-385.26 1211.62,-351.76 1356.62,-351.76 1356.62,-385.26"/>
<text text-anchor="start" x="1219.62" y="-371.76" font-family="Helvetica,sans-Serif" font-size="10.00">stateObservation::Kinetics</text>
<text text-anchor="middle" x="1284.12" y="-359.01" font-family="Helvetica,sans-Serif" font-size="10.00">Observer::Opt</text>
</a>
</g>
</g>
<!-- Node9&#45;&gt;Node30 -->
<g id="edge43_Node000030_Node000009" class="edge">
<title>Node9&#45;&gt;Node30</title>
<g id="a_edge43_Node000030_Node000009"><a xlink:title=" ">
<path fill="none" stroke="#9a32cd" stroke-dasharray="5,2" d="M379.29,-260.57C577.18,-266.35 1107.83,-283.89 1183.5,-307.51 1199.08,-312.37 1234.47,-335.25 1258.59,-351.55"/>
<polygon fill="#9a32cd" stroke="#9a32cd" points="379.48,-257.07 369.38,-260.28 379.27,-264.07 379.48,-257.07"/>
</a>
</g>
<text text-anchor="start" x="831.75" y="-321.28" font-family="Helvetica,sans-Serif" font-size="10.00" fill="grey">ori</text>
<text text-anchor="start" x="831.75" y="-304.53" font-family="Helvetica,sans-Serif" font-size="10.00" fill="grey">ori1</text>
<text text-anchor="start" x="831.75" y="-287.78" font-family="Helvetica,sans-Serif" font-size="10.00" fill="grey">ori2</text>
</g>
<!-- Node10 -->
<g id="Node000010" class="node">
<title>Node10</title>
<g id="a_Node000010"><a xlink:href="classstateObservation_1_1CheckedItem.html" target="_top" xlink:title=" ">
<polygon fill="white" stroke="#666666" points="153.62,-281.63 6.38,-281.63 6.38,-235.38 153.62,-235.38 153.62,-281.63"/>
<text text-anchor="start" x="14.38" y="-268.13" font-family="Helvetica,sans-Serif" font-size="10.00">stateObservation::Checked</text>
<text text-anchor="start" x="14.38" y="-255.38" font-family="Helvetica,sans-Serif" font-size="10.00">Item&lt; Quaternion, false,</text>
<text text-anchor="middle" x="80" y="-242.63" font-family="Helvetica,sans-Serif" font-size="10.00"> false, true, true &gt;</text>
</a>
</g>
</g>
<!-- Node10&#45;&gt;Node9 -->
<g id="edge9_Node000009_Node000010" class="edge">
<title>Node10&#45;&gt;Node9</title>
<g id="a_edge9_Node000009_Node000010"><a xlink:title=" ">
<path fill="none" stroke="#9a32cd" stroke-dasharray="5,2" d="M165.35,-258.51C190.29,-258.51 217.15,-258.51 240.47,-258.51"/>
<polygon fill="#9a32cd" stroke="#9a32cd" points="165.55,-255.01 155.55,-258.51 165.55,-262.01 165.55,-255.01"/>
</a>
</g>
<text text-anchor="start" x="182.88" y="-264.76" font-family="Helvetica,sans-Serif" font-size="10.00" fill="grey">q_</text>
</g>
<!-- Node11 -->
<g id="Node000011" class="node">
<title>Node11</title>
<g id="a_Node000011"><a xlink:href="classstateObservation_1_1CheckedItem.html" target="_top" xlink:title=" ">
<polygon fill="white" stroke="#666666" points="155.12,-191.63 4.88,-191.63 4.88,-145.38 155.12,-145.38 155.12,-191.63"/>
<text text-anchor="start" x="12.88" y="-178.13" font-family="Helvetica,sans-Serif" font-size="10.00">stateObservation::Checked</text>
<text text-anchor="start" x="12.88" y="-165.38" font-family="Helvetica,sans-Serif" font-size="10.00">Item&lt; Matrix3, false, false,</text>
<text text-anchor="middle" x="80" y="-152.63" font-family="Helvetica,sans-Serif" font-size="10.00"> true, true, CheckNaN &gt;</text>
</a>
</g>
</g>
<!-- Node11&#45;&gt;Node9 -->
<g id="edge10_Node000009_Node000011" class="edge">
<title>Node11&#45;&gt;Node9</title>
<g id="a_edge10_Node000009_Node000011"><a xlink:title=" ">
<path fill="none" stroke="#9a32cd" stroke-dasharray="5,2" d="M149.61,-196.31C185.95,-211.03 229.44,-228.65 260.83,-241.37"/>
<polygon fill="#9a32cd" stroke="#9a32cd" points="151.06,-193.12 140.47,-192.61 148.43,-199.61 151.06,-193.12"/>
</a>
</g>
<text text-anchor="start" x="181" y="-222.46" font-family="Helvetica,sans-Serif" font-size="10.00" fill="grey">m_</text>
</g>
<!-- Node11&#45;&gt;Node13 -->
<g id="edge15_Node000013_Node000011" class="edge">
<title>Node11&#45;&gt;Node13</title>
<g id="a_edge15_Node000013_Node000011"><a xlink:title=" ">
<path fill="none" stroke="#9a32cd" stroke-dasharray="5,2" d="M166.93,-153.42C183.49,-151.08 200.75,-149.01 217,-147.76 344.94,-137.87 494.27,-140.34 582.84,-143.25"/>
<polygon fill="#9a32cd" stroke="#9a32cd" points="166.48,-149.95 157.09,-154.87 167.49,-156.88 166.48,-149.95"/>
</a>
</g>
<text text-anchor="start" x="279.75" y="-154.01" font-family="Helvetica,sans-Serif" font-size="10.00" fill="grey">covMatrix</text>
</g>
<!-- Node12 -->
<g id="Node000012" class="node">
<title>Node12</title>
<g id="a_Node000012"><a xlink:href="classstateObservation_1_1CheckedItem.html" target="_top" xlink:title=" ">
<polygon fill="white" stroke="#666666" points="1085.62,-265.63 935.38,-265.63 935.38,-219.38 1085.62,-219.38 1085.62,-265.63"/>
<text text-anchor="start" x="943.38" y="-252.13" font-family="Helvetica,sans-Serif" font-size="10.00">stateObservation::Checked</text>
<text text-anchor="start" x="943.38" y="-239.38" font-family="Helvetica,sans-Serif" font-size="10.00">Item&lt; Matrix6, false, false,</text>
<text text-anchor="middle" x="1010.5" y="-226.63" font-family="Helvetica,sans-Serif" font-size="10.00"> true, true, CheckNaN &gt;</text>
</a>
</g>
</g>
<!-- Node12&#45;&gt;Node4 -->
<g id="edge11_Node000004_Node000012" class="edge">
<title>Node12&#45;&gt;Node4</title>
<g id="a_edge11_Node000004_Node000012"><a xlink:title=" ">
<path fill="none" stroke="#9a32cd" stroke-dasharray="5,2" d="M1097.23,-248.78C1124.91,-251.56 1155.63,-255.44 1183.5,-260.76 1197.96,-263.52 1213.38,-267.36 1227.66,-271.3"/>
<polygon fill="#9a32cd" stroke="#9a32cd" points="1097.77,-245.32 1087.48,-247.84 1097.1,-252.29 1097.77,-245.32"/>
</a>
</g>
<text text-anchor="start" x="1121.25" y="-267.01" font-family="Helvetica,sans-Serif" font-size="10.00" fill="grey">covMatrix</text>
</g>
<!-- Node13&#45;&gt;Node1 -->
<g id="edge12_Node000001_Node000013" class="edge">
<title>Node13&#45;&gt;Node1</title>
<g id="a_edge12_Node000001_Node000013"><a xlink:title=" ">
<path fill="none" stroke="#9a32cd" stroke-dasharray="5,2" d="M751.16,-146.68C855.87,-148.61 1034.43,-157.32 1183.5,-191.76 1326.65,-224.83 1375.79,-220.61 1492,-310.51 1530.84,-340.56 1560.09,-391.99 1573.46,-418.54"/>
<polygon fill="#9a32cd" stroke="#9a32cd" points="751.27,-143.18 741.22,-146.52 751.16,-150.18 751.27,-143.18"/>
</a>
</g>
<text text-anchor="start" x="1110.75" y="-198.01" font-family="Helvetica,sans-Serif" font-size="10.00" fill="grey">absOriSensor_</text>
</g>
<!-- Node14 -->
<g id="Node000014" class="node">
<title>Node14</title>
<g id="a_Node000014"><a xlink:title=" ">
<polygon fill="white" stroke="#666666" points="1352.12,-158.63 1216.12,-158.63 1216.12,-112.38 1352.12,-112.38 1352.12,-158.63"/>
<text text-anchor="start" x="1224.12" y="-145.13" font-family="Helvetica,sans-Serif" font-size="10.00">std::vector&lt; Contact,</text>
<text text-anchor="start" x="1224.12" y="-132.38" font-family="Helvetica,sans-Serif" font-size="10.00"> Eigen::aligned_allocator</text>
<text text-anchor="middle" x="1284.12" y="-119.63" font-family="Helvetica,sans-Serif" font-size="10.00">&lt; Contact &gt; &gt;</text>
</a>
</g>
</g>
<!-- Node14&#45;&gt;Node1 -->
<g id="edge16_Node000001_Node000014" class="edge">
<title>Node14&#45;&gt;Node1</title>
<g id="a_edge16_Node000001_Node000014"><a xlink:title=" ">
<path fill="none" stroke="#9a32cd" stroke-dasharray="5,2" d="M1363.61,-122.87C1405.92,-120.49 1456.56,-125.36 1492,-153.76 1576.3,-221.32 1582.48,-368.27 1582.01,-418.37"/>
<polygon fill="#9a32cd" stroke="#9a32cd" points="1363.43,-119.37 1353.71,-123.58 1363.94,-126.35 1363.43,-119.37"/>
</a>
</g>
<text text-anchor="start" x="1415.12" y="-160.01" font-family="Helvetica,sans-Serif" font-size="10.00" fill="grey">contacts_</text>
</g>
<!-- Node15 -->
<g id="Node000015" class="node">
<title>Node15</title>
<g id="a_Node000015"><a xlink:title=" ">
<polygon fill="white" stroke="#666666" points="1363.75,-94.26 1204.5,-94.26 1204.5,-60.76 1363.75,-60.76 1363.75,-94.26"/>
<text text-anchor="start" x="1212.5" y="-80.76" font-family="Helvetica,sans-Serif" font-size="10.00">std::vector&lt; IMU, Eigen</text>
<text text-anchor="middle" x="1284.12" y="-68.01" font-family="Helvetica,sans-Serif" font-size="10.00">::aligned_allocator&lt; IMU &gt; &gt;</text>
</a>
</g>
</g>
<!-- Node15&#45;&gt;Node1 -->
<g id="edge17_Node000001_Node000015" class="edge">
<title>Node15&#45;&gt;Node1</title>
<g id="a_edge17_Node000001_Node000015"><a xlink:title=" ">
<path fill="none" stroke="#9a32cd" stroke-dasharray="5,2" d="M1375.4,-65.72C1415.39,-65.47 1460.42,-72.69 1492,-99.76 1541.92,-142.56 1571.72,-355.94 1579.47,-418.34"/>
<polygon fill="#9a32cd" stroke="#9a32cd" points="1375.43,-62.22 1365.51,-65.95 1375.59,-69.21 1375.43,-62.22"/>
</a>
</g>
<text text-anchor="start" x="1407.25" y="-106.01" font-family="Helvetica,sans-Serif" font-size="10.00" fill="grey">imuSensors_</text>
</g>
<!-- Node16 -->
<g id="Node000016" class="node">
<title>Node16</title>
<g id="a_Node000016"><a xlink:href="structstateObservation_1_1kine_1_1LocalKinematics.html" target="_top" xlink:title="Class facilitating the manipulation of the local kinematics of a frame within another and the associa...">
<polygon fill="white" stroke="#666666" points="1074,-460.26 947,-460.26 947,-426.76 1074,-426.76 1074,-460.26"/>
<text text-anchor="start" x="955" y="-446.76" font-family="Helvetica,sans-Serif" font-size="10.00">stateObservation::kine</text>
<text text-anchor="middle" x="1010.5" y="-434.01" font-family="Helvetica,sans-Serif" font-size="10.00">::LocalKinematics</text>
</a>
</g>
</g>
<!-- Node16&#45;&gt;Node1 -->
<g id="edge18_Node000001_Node000016" class="edge">
<title>Node16&#45;&gt;Node1</title>
<g id="a_edge18_Node000001_Node000016"><a xlink:title=" ">
<path fill="none" stroke="#9a32cd" stroke-dasharray="5,2" d="M1085.45,-450.71C1120.58,-453.78 1163.16,-457 1201.5,-458.51 1330.57,-463.6 1363.66,-464.13 1492,-449.51 1497.78,-448.85 1503.76,-448.09 1509.76,-447.27"/>
<polygon fill="#9a32cd" stroke="#9a32cd" points="1086.11,-447.25 1075.83,-449.85 1085.49,-454.23 1086.11,-447.25"/>
</a>
</g>
<text text-anchor="start" x="1207.25" y="-468.01" font-family="Helvetica,sans-Serif" font-size="10.00" fill="grey">worldCentroidStateKinematics_</text>
</g>
<!-- Node16&#45;&gt;Node30 -->
<g id="edge42_Node000030_Node000016" class="edge">
<title>Node16&#45;&gt;Node30</title>
<g id="a_edge42_Node000030_Node000016"><a xlink:title=" ">
<path fill="none" stroke="#9a32cd" stroke-dasharray="5,2" d="M1084.7,-423.3C1127.34,-411.52 1180.53,-396.84 1221.1,-385.64"/>
<polygon fill="#9a32cd" stroke="#9a32cd" points="1083.98,-419.86 1075.28,-425.9 1085.85,-426.61 1083.98,-419.86"/>
</a>
</g>
<text text-anchor="start" x="1124.62" y="-454.68" font-family="Helvetica,sans-Serif" font-size="10.00" fill="grey">locKine</text>
<text text-anchor="start" x="1124.62" y="-437.93" font-family="Helvetica,sans-Serif" font-size="10.00" fill="grey">locKine1</text>
<text text-anchor="start" x="1124.62" y="-421.18" font-family="Helvetica,sans-Serif" font-size="10.00" fill="grey">locKine2</text>
</g>
<!-- Node17&#45;&gt;Node16 -->
<g id="edge19_Node000016_Node000017" class="edge">
<title>Node17&#45;&gt;Node16</title>
<g id="a_edge19_Node000016_Node000017"><a xlink:title=" ">
<path fill="none" stroke="#63b8ff" d="M751.8,-443.51C812.91,-443.51 892.33,-443.51 946.76,-443.51"/>
<polygon fill="#63b8ff" stroke="#63b8ff" points="752.13,-440.01 742.13,-443.51 752.13,-447.01 752.13,-440.01"/>
</a>
</g>
</g>
<!-- Node18&#45;&gt;Node1 -->
<g id="edge23_Node000001_Node000018" class="edge">
<title>Node18&#45;&gt;Node1</title>
<g id="a_edge23_Node000001_Node000018"><a xlink:title=" ">
<path fill="none" stroke="#9a32cd" stroke-dasharray="5,2" d="M1371.48,-756.03C1412.73,-745.55 1459.95,-727.04 1492,-694.51 1561.11,-624.35 1576.97,-498.31 1580.51,-452.63"/>
<polygon fill="#9a32cd" stroke="#9a32cd" points="1370.69,-752.62 1361.78,-758.36 1372.32,-759.43 1370.69,-752.62"/>
</a>
</g>
<text text-anchor="start" x="1427.88" y="-757.26" font-family="Helvetica,sans-Serif" font-size="10.00" fill="grey">ekf_</text>
</g>
<!-- Node19&#45;&gt;Node18 -->
<g id="edge24_Node000018_Node000019" class="edge">
<title>Node19&#45;&gt;Node18</title>
<g id="a_edge24_Node000018_Node000019"><a xlink:title=" ">
<path fill="none" stroke="#63b8ff" d="M1093.57,-786.96C1129.87,-783.61 1172.28,-779.71 1207.78,-776.44"/>
<polygon fill="#63b8ff" stroke="#63b8ff" points="1093.66,-783.43 1084.02,-787.83 1094.3,-790.4 1093.66,-783.43"/>
</a>
</g>
</g>
<!-- Node20 -->
<g id="Node000020" class="node">
<title>Node20</title>
<g id="a_Node000020"><a xlink:href="classstateObservation_1_1ZeroDelayObserver.html" target="_top" xlink:title="Defines the base class of online zero delay observers. Zero delay observers are the classical state o...">
<polygon fill="white" stroke="#666666" points="739.75,-710.26 582.75,-710.26 582.75,-676.76 739.75,-676.76 739.75,-710.26"/>
<text text-anchor="start" x="590.75" y="-696.76" font-family="Helvetica,sans-Serif" font-size="10.00">stateObservation::ZeroDelay</text>
<text text-anchor="middle" x="661.25" y="-684.01" font-family="Helvetica,sans-Serif" font-size="10.00">Observer</text>
</a>
</g>
</g>
<!-- Node20&#45;&gt;Node19 -->
<g id="edge25_Node000019_Node000020" class="edge">
<title>Node20&#45;&gt;Node19</title>
<g id="a_edge25_Node000019_Node000020"><a xlink:title=" ">
<path fill="none" stroke="#63b8ff" d="M751.38,-696.97C802.04,-702.46 864.83,-715.45 913.25,-745.51 924.28,-752.35 920.64,-761.03 931.25,-768.51 936.05,-771.89 941.32,-774.85 946.78,-777.45"/>
<polygon fill="#63b8ff" stroke="#63b8ff" points="751.9,-693.51 741.61,-696 751.21,-700.47 751.9,-693.51"/>
</a>
</g>
</g>
<!-- Node21 -->
<g id="Node000021" class="node">
<title>Node21</title>
<g id="a_Node000021"><a xlink:href="classstateObservation_1_1ObserverBase.html" target="_top" xlink:title="The base class for observers. The observer is destinated to any dynamical system with a vector state ...">
<polygon fill="white" stroke="#666666" points="391.25,-671.88 217,-671.88 217,-651.13 391.25,-651.13 391.25,-671.88"/>
<text text-anchor="middle" x="304.12" y="-658.38" font-family="Helvetica,sans-Serif" font-size="10.00">stateObservation::ObserverBase</text>
</a>
</g>
</g>
<!-- Node21&#45;&gt;Node20 -->
<g id="edge26_Node000020_Node000021" class="edge">
<title>Node21&#45;&gt;Node20</title>
<g id="a_edge26_Node000020_Node000021"><a xlink:title=" ">
<path fill="none" stroke="#63b8ff" d="M402.68,-670.3C459.31,-675.4 529.67,-681.74 582.54,-686.51"/>
<polygon fill="#63b8ff" stroke="#63b8ff" points="403.33,-666.84 393.05,-669.43 402.7,-673.82 403.33,-666.84"/>
</a>
</g>
</g>
<!-- Node22 -->
<g id="Node000022" class="node">
<title>Node22</title>
<g id="a_Node000022"><a xlink:href="classstateObservation_1_1IndexedMatrixT.html" target="_top" xlink:title=" ">
<polygon fill="white" stroke="#666666" points="376.25,-778.26 232,-778.26 232,-744.76 376.25,-744.76 376.25,-778.26"/>
<text text-anchor="start" x="240" y="-764.76" font-family="Helvetica,sans-Serif" font-size="10.00">stateObservation::Indexed</text>
<text text-anchor="middle" x="304.12" y="-752.01" font-family="Helvetica,sans-Serif" font-size="10.00">MatrixT&lt; Vector &gt;</text>
</a>
</g>
</g>
<!-- Node22&#45;&gt;Node19 -->
<g id="edge31_Node000019_Node000022" class="edge">
<title>Node22&#45;&gt;Node19</title>
<g id="a_edge31_Node000019_Node000022"><a xlink:title=" ">
<path fill="none" stroke="#9a32cd" stroke-dasharray="5,2" d="M387.86,-779.59C395.07,-780.74 402.27,-781.74 409.25,-782.51 599.63,-803.44 825.96,-800.51 938.55,-797.18"/>
<polygon fill="#9a32cd" stroke="#9a32cd" points="388.49,-776.14 378.05,-777.92 387.32,-783.05 388.49,-776.14"/>
</a>
</g>
<text text-anchor="start" x="647.75" y="-822.4" font-family="Helvetica,sans-Serif" font-size="10.00" fill="grey">xbar_</text>
<text text-anchor="start" x="647.75" y="-805.65" font-family="Helvetica,sans-Serif" font-size="10.00" fill="grey">ybar_</text>
</g>
<!-- Node22&#45;&gt;Node20 -->
<g id="edge27_Node000020_Node000022" class="edge">
<title>Node22&#45;&gt;Node20</title>
<g id="a_edge27_Node000020_Node000022"><a xlink:title=" ">
<path fill="none" stroke="#9a32cd" stroke-dasharray="5,2" d="M387.73,-760.63C448.5,-758.79 525.24,-753.62 553.5,-739.51 564.2,-734.17 561.38,-725.88 571.5,-719.51 576.8,-716.18 582.55,-713.25 588.48,-710.7"/>
<polygon fill="#9a32cd" stroke="#9a32cd" points="388,-757.12 378.1,-760.9 388.19,-764.12 388,-757.12"/>
</a>
</g>
<text text-anchor="start" x="475.75" y="-766.04" font-family="Helvetica,sans-Serif" font-size="10.00" fill="grey">x_</text>
</g>
<!-- Node23 -->
<g id="Node000023" class="node">
<title>Node23</title>
<g id="a_Node000023"><a xlink:href="classstateObservation_1_1DebugItem.html" target="_top" xlink:title=" ">
<polygon fill="white" stroke="#666666" points="160,-646.63 0,-646.63 0,-600.38 160,-600.38 160,-646.63"/>
<text text-anchor="start" x="8" y="-633.13" font-family="Helvetica,sans-Serif" font-size="10.00">stateObservation::DebugItem</text>
<text text-anchor="start" x="8" y="-620.38" font-family="Helvetica,sans-Serif" font-size="10.00">&lt; bool, detail::defaultTrue,</text>
<text text-anchor="middle" x="80" y="-607.63" font-family="Helvetica,sans-Serif" font-size="10.00"> !false||isDebug &gt;</text>
</a>
</g>
</g>
<!-- Node23&#45;&gt;Node22 -->
<g id="edge28_Node000022_Node000023" class="edge">
<title>Node23&#45;&gt;Node22</title>
<g id="a_edge28_Node000022_Node000023"><a xlink:title=" ">
<path fill="none" stroke="darkgreen" d="M113.04,-654.63C139.21,-678.65 178.12,-711.26 217,-732.51 225.17,-736.97 234.15,-740.92 243.13,-744.35"/>
<polygon fill="darkgreen" stroke="darkgreen" points="115.48,-652.13 105.78,-647.88 110.72,-657.25 115.48,-652.13"/>
</a>
</g>
</g>
<!-- Node27 -->
<g id="Node000027" class="node">
<title>Node27</title>
<g id="a_Node000027"><a xlink:href="classstateObservation_1_1IndexedMatrixT.html" target="_top" xlink:title=" ">
<polygon fill="white" stroke="#666666" points="553.5,-640.26 409.25,-640.26 409.25,-606.76 553.5,-606.76 553.5,-640.26"/>
<text text-anchor="start" x="417.25" y="-626.76" font-family="Helvetica,sans-Serif" font-size="10.00">stateObservation::Indexed</text>
<text text-anchor="middle" x="481.38" y="-614.01" font-family="Helvetica,sans-Serif" font-size="10.00">MatrixT&lt; Vector3 &gt;</text>
</a>
</g>
</g>
<!-- Node23&#45;&gt;Node27 -->
<g id="edge37_Node000027_Node000023" class="edge">
<title>Node23&#45;&gt;Node27</title>
<g id="a_edge37_Node000027_Node000023"><a xlink:title=" ">
<path fill="none" stroke="darkgreen" d="M171.67,-623.51C243.52,-623.51 342.52,-623.51 408.85,-623.51"/>
<polygon fill="darkgreen" stroke="darkgreen" points="171.89,-620.01 161.89,-623.51 171.89,-627.01 171.89,-620.01"/>
</a>
</g>
</g>
<!-- Node28 -->
<g id="Node000028" class="node">
<title>Node28</title>
<g id="a_Node000028"><a xlink:href="classstateObservation_1_1IndexedMatrixT.html" target="_top" xlink:title=" ">
<polygon fill="white" stroke="#666666" points="913.25,-586.26 769,-586.26 769,-552.76 913.25,-552.76 913.25,-586.26"/>
<text text-anchor="start" x="777" y="-572.76" font-family="Helvetica,sans-Serif" font-size="10.00">stateObservation::Indexed</text>
<text text-anchor="middle" x="841.12" y="-560.01" font-family="Helvetica,sans-Serif" font-size="10.00">MatrixT&lt; Matrix3 &gt;</text>
</a>
</g>
</g>
<!-- Node23&#45;&gt;Node28 -->
<g id="edge39_Node000028_Node000023" class="edge">
<title>Node23&#45;&gt;Node28</title>
<g id="a_edge39_Node000028_Node000023"><a xlink:title=" ">
<path fill="none" stroke="darkgreen" d="M171.43,-616.81C237.36,-611.95 328.84,-605.25 409.25,-599.51 535.84,-590.47 683.38,-580.27 768.83,-574.4"/>
<polygon fill="darkgreen" stroke="darkgreen" points="171.48,-613.3 161.76,-617.53 172,-620.28 171.48,-613.3"/>
</a>
</g>
</g>
<!-- Node24 -->
<g id="Node000024" class="node">
<title>Node24</title>
<g id="a_Node000024"><a xlink:href="classstateObservation_1_1IndexedMatrixArrayT.html" target="_top" xlink:title=" ">
<polygon fill="white" stroke="#666666" points="376.25,-723.26 232,-723.26 232,-689.76 376.25,-689.76 376.25,-723.26"/>
<text text-anchor="start" x="240" y="-709.76" font-family="Helvetica,sans-Serif" font-size="10.00">stateObservation::Indexed</text>
<text text-anchor="middle" x="304.12" y="-697.01" font-family="Helvetica,sans-Serif" font-size="10.00">MatrixArrayT&lt; Vector &gt;</text>
</a>
</g>
</g>
<!-- Node24&#45;&gt;Node20 -->
<g id="edge29_Node000020_Node000024" class="edge">
<title>Node24&#45;&gt;Node20</title>
<g id="a_edge29_Node000020_Node000024"><a xlink:title=" ">
<path fill="none" stroke="#9a32cd" stroke-dasharray="5,2" d="M388.03,-703.47C446.73,-701.33 524.93,-698.46 582.46,-696.36"/>
<polygon fill="#9a32cd" stroke="#9a32cd" points="387.94,-699.97 378.08,-703.84 388.2,-706.97 387.94,-699.97"/>
</a>
</g>
<text text-anchor="start" x="475.75" y="-725.67" font-family="Helvetica,sans-Serif" font-size="10.00" fill="grey">u_</text>
<text text-anchor="start" x="475.75" y="-708.92" font-family="Helvetica,sans-Serif" font-size="10.00" fill="grey">y_</text>
</g>
<!-- Node25 -->
<g id="Node000025" class="node">
<title>Node25</title>
<g id="a_Node000025"><a xlink:href="structstateObservation_1_1KalmanFilterBase_1_1optimizationContainer.html" target="_top" xlink:title=" ">
<polygon fill="white" stroke="#bfbfbf" points="751,-762.26 571.5,-762.26 571.5,-728.76 751,-728.76 751,-762.26"/>
<text text-anchor="start" x="579.5" y="-748.76" font-family="Helvetica,sans-Serif" font-size="10.00">stateObservation::Kalman</text>
<text text-anchor="middle" x="661.25" y="-736.01" font-family="Helvetica,sans-Serif" font-size="10.00">FilterBase::optimizationContainer</text>
</a>
</g>
</g>
<!-- Node25&#45;&gt;Node19 -->
<g id="edge32_Node000019_Node000025" class="edge">
<title>Node25&#45;&gt;Node19</title>
<g id="a_edge32_Node000019_Node000025"><a xlink:title=" ">
<path fill="none" stroke="#9a32cd" stroke-dasharray="5,2" d="M762.65,-748.79C808.82,-751.52 864.13,-756.55 913.25,-765.76 928.33,-768.59 944.42,-772.87 959.04,-777.27"/>
<polygon fill="#9a32cd" stroke="#9a32cd" points="763.12,-745.31 752.94,-748.24 762.72,-752.3 763.12,-745.31"/>
</a>
</g>
<text text-anchor="start" x="832.88" y="-772.01" font-family="Helvetica,sans-Serif" font-size="10.00" fill="grey">oc_</text>
</g>
<!-- Node26 -->
<g id="Node000026" class="node">
<title>Node26</title>
<g id="a_Node000026"><a xlink:href="structstateObservation_1_1ExtendedKalmanFilter_1_1Optimization.html" target="_top" xlink:title=" ">
<polygon fill="white" stroke="#bfbfbf" points="1086.38,-863.26 934.62,-863.26 934.62,-829.76 1086.38,-829.76 1086.38,-863.26"/>
<text text-anchor="start" x="942.62" y="-849.76" font-family="Helvetica,sans-Serif" font-size="10.00">stateObservation::Extended</text>
<text text-anchor="middle" x="1010.5" y="-837.01" font-family="Helvetica,sans-Serif" font-size="10.00">KalmanFilter::Optimization</text>
</a>
</g>
</g>
<!-- Node26&#45;&gt;Node18 -->
<g id="edge35_Node000018_Node000026" class="edge">
<title>Node26&#45;&gt;Node18</title>
<g id="a_edge35_Node000018_Node000026"><a xlink:title=" ">
<path fill="none" stroke="#9a32cd" stroke-dasharray="5,2" d="M1083.19,-826.19C1126.64,-813.87 1181.45,-798.33 1222.69,-786.64"/>
<polygon fill="#9a32cd" stroke="#9a32cd" points="1082.24,-822.82 1073.58,-828.91 1084.15,-829.55 1082.24,-822.82"/>
</a>
</g>
<text text-anchor="start" x="1137.75" y="-823.42" font-family="Helvetica,sans-Serif" font-size="10.00" fill="grey">opt</text>
</g>
<!-- Node27&#45;&gt;Node1 -->
<g id="edge36_Node000001_Node000027" class="edge">
<title>Node27&#45;&gt;Node1</title>
<g id="a_edge36_Node000001_Node000027"><a xlink:title=" ">
<path fill="none" stroke="#9a32cd" stroke-dasharray="5,2" d="M565.01,-623.81C696.76,-623.07 962.15,-616.54 1183.5,-579.51 1323.77,-556.04 1362.48,-553.26 1492,-494.51 1516.74,-483.28 1542.38,-465.67 1559.83,-452.61"/>
<polygon fill="#9a32cd" stroke="#9a32cd" points="565.33,-620.31 555.35,-623.86 565.36,-627.31 565.33,-620.31"/>
</a>
</g>
<text text-anchor="start" x="989.88" y="-682.14" font-family="Helvetica,sans-Serif" font-size="10.00" fill="grey">com_</text>
<text text-anchor="start" x="989.88" y="-665.39" font-family="Helvetica,sans-Serif" font-size="10.00" fill="grey">comd_</text>
<text text-anchor="start" x="989.88" y="-648.64" font-family="Helvetica,sans-Serif" font-size="10.00" fill="grey">comdd_</text>
<text text-anchor="start" x="989.88" y="-631.89" font-family="Helvetica,sans-Serif" font-size="10.00" fill="grey">sigma_</text>
<text text-anchor="start" x="989.88" y="-615.14" font-family="Helvetica,sans-Serif" font-size="10.00" fill="grey">sigmad_</text>
</g>
<!-- Node28&#45;&gt;Node1 -->
<g id="edge38_Node000001_Node000028" class="edge">
<title>Node28&#45;&gt;Node1</title>
<g id="a_edge38_Node000001_Node000028"><a xlink:title=" ">
<path fill="none" stroke="#9a32cd" stroke-dasharray="5,2" d="M925.07,-561.96C1049.66,-549.42 1291.84,-520.41 1492,-468.51 1508.03,-464.35 1525.19,-458.41 1540.16,-452.71"/>
<polygon fill="#9a32cd" stroke="#9a32cd" points="924.86,-558.46 915.26,-562.93 925.55,-565.43 924.86,-558.46"/>
</a>
</g>
<text text-anchor="start" x="1138.5" y="-562.93" font-family="Helvetica,sans-Serif" font-size="10.00" fill="grey">I_</text>
<text text-anchor="start" x="1138.5" y="-546.18" font-family="Helvetica,sans-Serif" font-size="10.00" fill="grey">Id_</text>
</g>
<!-- Node29 -->
<g id="Node000029" class="node">
<title>Node29</title>
<g id="a_Node000029"><a xlink:href="classstateObservation_1_1NoiseBase.html" target="_top" xlink:title=" ">
<polygon fill="white" stroke="#bfbfbf" points="1363,-35.88 1205.25,-35.88 1205.25,-15.13 1363,-15.13 1363,-35.88"/>
<text text-anchor="middle" x="1284.12" y="-22.38" font-family="Helvetica,sans-Serif" font-size="10.00">stateObservation::NoiseBase</text>
</a>
</g>
</g>
<!-- Node29&#45;&gt;Node1 -->
<g id="edge40_Node000001_Node000029" class="edge">
<title>Node29&#45;&gt;Node1</title>
<g id="a_edge40_Node000001_Node000029"><a xlink:title=" ">
<path fill="none" stroke="#9a32cd" stroke-dasharray="5,2" d="M1327.47,-11.55C1373.26,0.66 1445.88,11.21 1492,-26.01 1554.86,-76.74 1576,-347.43 1580.51,-418.44"/>
<polygon fill="#9a32cd" stroke="#9a32cd" points="1326.57,-8.17 1317.89,-14.25 1328.47,-14.9 1326.57,-8.17"/>
</a>
</g>
<text text-anchor="start" x="1387.75" y="-49.01" font-family="Helvetica,sans-Serif" font-size="10.00" fill="grey">measurementNoise_</text>
<text text-anchor="start" x="1387.75" y="-32.26" font-family="Helvetica,sans-Serif" font-size="10.00" fill="grey">processNoise_</text>
</g>
<!-- Node30&#45;&gt;Node1 -->
<g id="edge41_Node000001_Node000030" class="edge">
<title>Node30&#45;&gt;Node1</title>
<g id="a_edge41_Node000001_Node000030"><a xlink:title=" ">
<path fill="none" stroke="#9a32cd" stroke-dasharray="5,2" d="M1367.74,-378.58C1405.91,-384.15 1451.63,-392.13 1492,-402.76 1507.84,-406.93 1524.81,-412.77 1539.68,-418.37"/>
<polygon fill="#9a32cd" stroke="#9a32cd" points="1368.56,-375.16 1358.17,-377.21 1367.57,-382.09 1368.56,-375.16"/>
</a>
</g>
<text text-anchor="start" x="1427.88" y="-409.01" font-family="Helvetica,sans-Serif" font-size="10.00" fill="grey">opt_</text>
</g>
</g>
</svg>
