<?xml version="1.0" encoding="UTF-8" standalone="no"?>
<!DOCTYPE svg PUBLIC "-//W3C//DTD SVG 1.1//EN"
 "http://www.w3.org/Graphics/SVG/1.1/DTD/svg11.dtd">
<!-- Generated by graphviz version 12.2.1 (0)
 -->
<!-- Title: stateObservation::ZeroDelayObserver Pages: 1 -->
<svg width="590pt" height="135pt"
 viewBox="0.00 0.00 589.50 135.12" xmlns="http://www.w3.org/2000/svg" xmlns:xlink="http://www.w3.org/1999/xlink">
<g id="graph0" class="graph" transform="scale(1 1) rotate(0) translate(4 131.12)">
<title>stateObservation::ZeroDelayObserver</title>
<!-- Node1 -->
<g id="Node000001" class="node">
<title>Node1</title>
<g id="a_Node000001"><a xlink:title="Defines the base class of online zero delay observers. Zero delay observers are the classical state o...">
<polygon fill="#999999" stroke="#666666" points="581.5,-92.5 424.5,-92.5 424.5,-59 581.5,-59 581.5,-92.5"/>
<text text-anchor="start" x="432.5" y="-79" font-family="Helvetica,sans-Serif" font-size="10.00">stateObservation::ZeroDelay</text>
<text text-anchor="middle" x="503" y="-66.25" font-family="Helvetica,sans-Serif" font-size="10.00">Observer</text>
</a>
</g>
</g>
<!-- Node2 -->
<g id="Node000002" class="node">
<title>Node2</title>
<g id="a_Node000002"><a xlink:href="classstateObservation_1_1ObserverBase.html" target="_top" xlink:title="The base class for observers. The observer is destinated to any dynamical system with a vector state ...">
<polygon fill="white" stroke="#666666" points="371.25,-127.12 197,-127.12 197,-106.38 371.25,-106.38 371.25,-127.12"/>
<text text-anchor="middle" x="284.12" y="-113.62" font-family="Helvetica,sans-Serif" font-size="10.00">stateObservation::ObserverBase</text>
</a>
</g>
</g>
<!-- Node2&#45;&gt;Node1 -->
<g id="edge1_Node000001_Node000002" class="edge">
<title>Node2&#45;&gt;Node1</title>
<g id="a_edge1_Node000001_Node000002"><a xlink:title=" ">
<path fill="none" stroke="#63b8ff" d="M366.12,-104.02C379.62,-101.72 393.47,-99.25 406.5,-96.75 412.67,-95.56 419.05,-94.28 425.45,-92.96"/>
<polygon fill="#63b8ff" stroke="#63b8ff" points="365.65,-100.55 356.37,-105.66 366.81,-107.45 365.65,-100.55"/>
</a>
</g>
</g>
<!-- Node3 -->
<g id="Node000003" class="node">
<title>Node3</title>
<g id="a_Node000003"><a xlink:href="classstateObservation_1_1IndexedMatrixT.html" target="_top" xlink:title=" ">
<polygon fill="white" stroke="#666666" points="356.25,-88.5 212,-88.5 212,-55 356.25,-55 356.25,-88.5"/>
<text text-anchor="start" x="220" y="-75" font-family="Helvetica,sans-Serif" font-size="10.00">stateObservation::Indexed</text>
<text text-anchor="middle" x="284.12" y="-62.25" font-family="Helvetica,sans-Serif" font-size="10.00">MatrixT&lt; Vector &gt;</text>
</a>
</g>
</g>
<!-- Node3&#45;&gt;Node1 -->
<g id="edge2_Node000001_Node000003" class="edge">
<title>Node3&#45;&gt;Node1</title>
<g id="a_edge2_Node000001_Node000003"><a xlink:title=" ">
<path fill="none" stroke="#9a32cd" stroke-dasharray="5,2" d="M368.05,-73.28C386.46,-73.62 405.91,-73.98 424.11,-74.31"/>
<polygon fill="#9a32cd" stroke="#9a32cd" points="368.32,-69.78 358.25,-73.1 368.19,-76.78 368.32,-69.78"/>
</a>
</g>
<text text-anchor="start" x="392.25" y="-80.12" font-family="Helvetica,sans-Serif" font-size="10.00" fill="grey">x_</text>
</g>
<!-- Node4 -->
<g id="Node000004" class="node">
<title>Node4</title>
<g id="a_Node000004"><a xlink:href="classstateObservation_1_1DebugItem.html" target="_top" xlink:title=" ">
<polygon fill="white" stroke="#666666" points="160,-94.88 0,-94.88 0,-48.62 160,-48.62 160,-94.88"/>
<text text-anchor="start" x="8" y="-81.38" font-family="Helvetica,sans-Serif" font-size="10.00">stateObservation::DebugItem</text>
<text text-anchor="start" x="8" y="-68.62" font-family="Helvetica,sans-Serif" font-size="10.00">&lt; bool, detail::defaultTrue,</text>
<text text-anchor="middle" x="80" y="-55.88" font-family="Helvetica,sans-Serif" font-size="10.00"> !false||isDebug &gt;</text>
</a>
</g>
</g>
<!-- Node4&#45;&gt;Node3 -->
<g id="edge3_Node000003_Node000004" class="edge">
<title>Node4&#45;&gt;Node3</title>
<g id="a_edge3_Node000003_Node000004"><a xlink:title=" ">
<path fill="none" stroke="darkgreen" d="M171.51,-71.75C184.95,-71.75 198.64,-71.75 211.61,-71.75"/>
<polygon fill="darkgreen" stroke="darkgreen" points="171.82,-68.25 161.82,-71.75 171.82,-75.25 171.82,-68.25"/>
</a>
</g>
</g>
<!-- Node5 -->
<g id="Node000005" class="node">
<title>Node5</title>
<g id="a_Node000005"><a xlink:href="classstateObservation_1_1IndexedMatrixArrayT.html" target="_top" xlink:title=" ">
<polygon fill="white" stroke="#666666" points="356.25,-33.5 212,-33.5 212,0 356.25,0 356.25,-33.5"/>
<text text-anchor="start" x="220" y="-20" font-family="Helvetica,sans-Serif" font-size="10.00">stateObservation::Indexed</text>
<text text-anchor="middle" x="284.12" y="-7.25" font-family="Helvetica,sans-Serif" font-size="10.00">MatrixArrayT&lt; Vector &gt;</text>
</a>
</g>
</g>
<!-- Node5&#45;&gt;Node1 -->
<g id="edge4_Node000001_Node000005" class="edge">
<title>Node5&#45;&gt;Node1</title>
<g id="a_edge4_Node000001_Node000005"><a xlink:title=" ">
<path fill="none" stroke="#9a32cd" stroke-dasharray="5,2" d="M368.05,-25.69C381.04,-27.95 394.22,-30.77 406.5,-34.25 427.89,-40.32 450.77,-50.14 468.77,-58.7"/>
<polygon fill="#9a32cd" stroke="#9a32cd" points="368.64,-22.24 358.21,-24.08 367.51,-29.15 368.64,-22.24"/>
</a>
</g>
<text text-anchor="start" x="392.25" y="-57.25" font-family="Helvetica,sans-Serif" font-size="10.00" fill="grey">u_</text>
<text text-anchor="start" x="392.25" y="-40.5" font-family="Helvetica,sans-Serif" font-size="10.00" fill="grey">y_</text>
</g>
</g>
</svg>
