<?xml version="1.0" encoding="UTF-8" standalone="no"?>
<!DOCTYPE svg PUBLIC "-//W3C//DTD SVG 1.1//EN"
 "http://www.w3.org/Graphics/SVG/1.1/DTD/svg11.dtd">
<!-- Generated by graphviz version 12.2.1 (0)
 -->
<!-- Title: stateObservation::LinearKalmanFilter Pages: 1 -->
<svg width="354pt" height="237pt"
 viewBox="0.00 0.00 354.25 237.25" xmlns="http://www.w3.org/2000/svg" xmlns:xlink="http://www.w3.org/1999/xlink">
<g id="graph0" class="graph" transform="scale(1 1) rotate(0) translate(4 233.25)">
<title>stateObservation::LinearKalmanFilter</title>
<!-- Node1 -->
<g id="Node000001" class="node">
<title>Node1</title>
<g id="a_Node000001"><a xlink:title="The class of a Linear Kalman filter.">
<polygon fill="#999999" stroke="#666666" points="244.12,-33.5 108.12,-33.5 108.12,0 244.12,0 244.12,-33.5"/>
<text text-anchor="start" x="116.12" y="-20" font-family="Helvetica,sans-Serif" font-size="10.00">stateObservation::Linear</text>
<text text-anchor="middle" x="176.12" y="-7.25" font-family="Helvetica,sans-Serif" font-size="10.00">KalmanFilter</text>
</a>
</g>
</g>
<!-- Node2 -->
<g id="Node000002" class="node">
<title>Node2</title>
<g id="a_Node000002"><a xlink:href="classstateObservation_1_1KalmanFilterBase.html" target="_top" xlink:title="It mostly implements the equations of Kalman filtering It is suitablle by derivation to be used incas...">
<polygon fill="white" stroke="#666666" points="247.88,-103 104.38,-103 104.38,-69.5 247.88,-69.5 247.88,-103"/>
<text text-anchor="start" x="112.38" y="-89.5" font-family="Helvetica,sans-Serif" font-size="10.00">stateObservation::Kalman</text>
<text text-anchor="middle" x="176.12" y="-76.75" font-family="Helvetica,sans-Serif" font-size="10.00">FilterBase</text>
</a>
</g>
</g>
<!-- Node2&#45;&gt;Node1 -->
<g id="edge1_Node000001_Node000002" class="edge">
<title>Node2&#45;&gt;Node1</title>
<g id="a_edge1_Node000001_Node000002"><a xlink:title=" ">
<path fill="none" stroke="#63b8ff" d="M176.12,-57.81C176.12,-49.59 176.12,-40.84 176.12,-33.63"/>
<polygon fill="#63b8ff" stroke="#63b8ff" points="172.63,-57.74 176.13,-67.74 179.63,-57.74 172.63,-57.74"/>
</a>
</g>
</g>
<!-- Node3 -->
<g id="Node000003" class="node">
<title>Node3</title>
<g id="a_Node000003"><a xlink:href="classstateObservation_1_1ZeroDelayObserver.html" target="_top" xlink:title="Defines the base class of online zero delay observers. Zero delay observers are the classical state o...">
<polygon fill="white" stroke="#666666" points="165.62,-172.5 8.62,-172.5 8.62,-139 165.62,-139 165.62,-172.5"/>
<text text-anchor="start" x="16.62" y="-159" font-family="Helvetica,sans-Serif" font-size="10.00">stateObservation::ZeroDelay</text>
<text text-anchor="middle" x="87.12" y="-146.25" font-family="Helvetica,sans-Serif" font-size="10.00">Observer</text>
</a>
</g>
</g>
<!-- Node3&#45;&gt;Node2 -->
<g id="edge2_Node000002_Node000003" class="edge">
<title>Node3&#45;&gt;Node2</title>
<g id="a_edge2_Node000002_Node000003"><a xlink:title=" ">
<path fill="none" stroke="#63b8ff" d="M117.27,-131.89C129.62,-122.52 143.63,-111.9 154.88,-103.37"/>
<polygon fill="#63b8ff" stroke="#63b8ff" points="115.28,-129.01 109.42,-137.84 119.51,-134.58 115.28,-129.01"/>
</a>
</g>
</g>
<!-- Node4 -->
<g id="Node000004" class="node">
<title>Node4</title>
<g id="a_Node000004"><a xlink:href="classstateObservation_1_1ObserverBase.html" target="_top" xlink:title="The base class for observers. The observer is destinated to any dynamical system with a vector state ...">
<polygon fill="white" stroke="#666666" points="174.25,-229.25 0,-229.25 0,-208.5 174.25,-208.5 174.25,-229.25"/>
<text text-anchor="middle" x="87.12" y="-215.75" font-family="Helvetica,sans-Serif" font-size="10.00">stateObservation::ObserverBase</text>
</a>
</g>
</g>
<!-- Node4&#45;&gt;Node3 -->
<g id="edge3_Node000003_Node000004" class="edge">
<title>Node4&#45;&gt;Node3</title>
<g id="a_edge3_Node000003_Node000004"><a xlink:title=" ">
<path fill="none" stroke="#63b8ff" d="M87.12,-196.59C87.12,-188.85 87.12,-180.22 87.12,-172.98"/>
<polygon fill="#63b8ff" stroke="#63b8ff" points="83.63,-196.54 87.13,-206.54 90.63,-196.54 83.63,-196.54"/>
</a>
</g>
</g>
<!-- Node5 -->
<g id="Node000005" class="node">
<title>Node5</title>
<g id="a_Node000005"><a xlink:href="classstateObservation_1_1StateVectorArithmetics.html" target="_top" xlink:title="This class is used to customize the way the difference between measurements, the state update functio...">
<polygon fill="white" stroke="#666666" points="346.25,-172.5 184,-172.5 184,-139 346.25,-139 346.25,-172.5"/>
<text text-anchor="start" x="192" y="-159" font-family="Helvetica,sans-Serif" font-size="10.00">stateObservation::StateVector</text>
<text text-anchor="middle" x="265.12" y="-146.25" font-family="Helvetica,sans-Serif" font-size="10.00">Arithmetics</text>
</a>
</g>
</g>
<!-- Node5&#45;&gt;Node2 -->
<g id="edge4_Node000002_Node000005" class="edge">
<title>Node5&#45;&gt;Node2</title>
<g id="a_edge4_Node000002_Node000005"><a xlink:title=" ">
<path fill="none" stroke="darkgreen" d="M234.98,-131.89C222.63,-122.52 208.62,-111.9 197.37,-103.37"/>
<polygon fill="darkgreen" stroke="darkgreen" points="232.74,-134.58 242.83,-137.84 236.97,-129.01 232.74,-134.58"/>
</a>
</g>
</g>
</g>
</svg>
