<?xml version="1.0" encoding="UTF-8" standalone="no"?>
<!DOCTYPE svg PUBLIC "-//W3C//DTD SVG 1.1//EN"
 "http://www.w3.org/Graphics/SVG/1.1/DTD/svg11.dtd">
<!-- Generated by graphviz version 12.2.1 (0)
 -->
<!-- Title: stateObservation::AlgebraicSensor Pages: 1 -->
<svg width="171pt" height="175pt"
 viewBox="0.00 0.00 171.00 174.75" xmlns="http://www.w3.org/2000/svg" xmlns:xlink="http://www.w3.org/1999/xlink">
<g id="graph0" class="graph" transform="scale(1 1) rotate(0) translate(4 170.75)">
<title>stateObservation::AlgebraicSensor</title>
<!-- Node1 -->
<g id="Node000001" class="node">
<title>Node1</title>
<g id="a_Node000001"><a xlink:title="The base class for algebraic sensors. Algebraic sensors are sensors which depend only on the state va...">
<polygon fill="#999999" stroke="#666666" points="157.38,-33.5 5.62,-33.5 5.62,0 157.38,0 157.38,-33.5"/>
<text text-anchor="start" x="13.62" y="-20" font-family="Helvetica,sans-Serif" font-size="10.00">stateObservation::Algebraic</text>
<text text-anchor="middle" x="81.5" y="-7.25" font-family="Helvetica,sans-Serif" font-size="10.00">Sensor</text>
</a>
</g>
</g>
<!-- Node2 -->
<g id="Node000002" class="node">
<title>Node2</title>
<g id="a_Node000002"><a xlink:href="classstateObservation_1_1SensorBase.html" target="_top" xlink:title="The base class for sensors. This must be derived to implement a sensor.">
<polygon fill="white" stroke="#666666" points="163,-91.25 0,-91.25 0,-70.5 163,-70.5 163,-91.25"/>
<text text-anchor="middle" x="81.5" y="-77.75" font-family="Helvetica,sans-Serif" font-size="10.00">stateObservation::SensorBase</text>
</a>
</g>
</g>
<!-- Node2&#45;&gt;Node1 -->
<g id="edge1_Node000001_Node000002" class="edge">
<title>Node2&#45;&gt;Node1</title>
<g id="a_edge1_Node000001_Node000002"><a xlink:title=" ">
<path fill="none" stroke="#63b8ff" d="M81.5,-58.92C81.5,-50.76 81.5,-41.55 81.5,-33.91"/>
<polygon fill="#63b8ff" stroke="#63b8ff" points="78,-58.65 81.5,-68.65 85,-58.65 78,-58.65"/>
</a>
</g>
</g>
<!-- Node3 -->
<g id="Node000003" class="node">
<title>Node3</title>
<g id="a_Node000003"><a xlink:href="classstateObservation_1_1NoiseBase.html" target="_top" xlink:title=" ">
<polygon fill="white" stroke="#bfbfbf" points="160.38,-166.75 2.62,-166.75 2.62,-146 160.38,-146 160.38,-166.75"/>
<text text-anchor="middle" x="81.5" y="-153.25" font-family="Helvetica,sans-Serif" font-size="10.00">stateObservation::NoiseBase</text>
</a>
</g>
</g>
<!-- Node3&#45;&gt;Node2 -->
<g id="edge2_Node000002_Node000003" class="edge">
<title>Node3&#45;&gt;Node2</title>
<g id="a_edge2_Node000002_Node000003"><a xlink:title=" ">
<path fill="none" stroke="#9a32cd" stroke-dasharray="5,2" d="M81.5,-134.26C81.5,-120.26 81.5,-102.55 81.5,-91.72"/>
<polygon fill="#9a32cd" stroke="#9a32cd" points="78,-134.25 81.5,-144.25 85,-134.25 78,-134.25"/>
</a>
</g>
<text text-anchor="start" x="84.5" y="-115.5" font-family="Helvetica,sans-Serif" font-size="10.00" fill="grey">noise_</text>
</g>
</g>
</svg>
