<?xml version="1.0" encoding="UTF-8" standalone="no"?>
<!DOCTYPE svg PUBLIC "-//W3C//DTD SVG 1.1//EN"
 "http://www.w3.org/Graphics/SVG/1.1/DTD/svg11.dtd">
<!-- Generated by graphviz version 12.2.1 (0)
 -->
<!-- Title: stateObservation::detail::DebugItemDefaultError&lt; exceptionAddr, dummy &gt; Pages: 1 -->
<svg width="161pt" height="188pt"
 viewBox="0.00 0.00 160.50 187.50" xmlns="http://www.w3.org/2000/svg" xmlns:xlink="http://www.w3.org/1999/xlink">
<g id="graph0" class="graph" transform="scale(1 1) rotate(0) translate(4 183.5)">
<title>stateObservation::detail::DebugItemDefaultError&lt; exceptionAddr, dummy &gt;</title>
<!-- Node1 -->
<g id="Node000001" class="node">
<title>Node1</title>
<g id="a_Node000001"><a xlink:title=" ">
<polygon fill="#999999" stroke="#666666" points="152.5,-46.25 0,-46.25 0,0 152.5,0 152.5,-46.25"/>
<text text-anchor="start" x="8" y="-32.75" font-family="Helvetica,sans-Serif" font-size="10.00">stateObservation::detail</text>
<text text-anchor="start" x="8" y="-20" font-family="Helvetica,sans-Serif" font-size="10.00">::DebugItemDefaultError</text>
<text text-anchor="middle" x="76.25" y="-7.25" font-family="Helvetica,sans-Serif" font-size="10.00">&lt; exceptionAddr, dummy &gt;</text>
</a>
</g>
</g>
<!-- Node2 -->
<g id="Node000002" class="node">
<title>Node2</title>
<g id="a_Node000002"><a xlink:title=" ">
<polygon fill="white" stroke="#666666" points="128.12,-121.75 24.38,-121.75 24.38,-101 128.12,-101 128.12,-121.75"/>
<text text-anchor="middle" x="76.25" y="-108.25" font-family="Helvetica,sans-Serif" font-size="10.00">std::runtime_error</text>
</a>
</g>
</g>
<!-- Node2&#45;&gt;Node1 -->
<g id="edge1_Node000001_Node000002" class="edge">
<title>Node2&#45;&gt;Node1</title>
<g id="a_edge1_Node000001_Node000002"><a xlink:title=" ">
<path fill="none" stroke="#9a32cd" stroke-dasharray="5,2" d="M76.25,-89.35C76.25,-76.41 76.25,-59.83 76.25,-46.62"/>
<polygon fill="#9a32cd" stroke="#9a32cd" points="72.75,-89.3 76.25,-99.3 79.75,-89.3 72.75,-89.3"/>
</a>
</g>
<text text-anchor="start" x="79.25" y="-70.5" font-family="Helvetica,sans-Serif" font-size="10.00" fill="grey">v</text>
</g>
<!-- Node3 -->
<g id="Node000003" class="node">
<title>Node3</title>
<g id="a_Node000003"><a xlink:title=" ">
<polygon fill="white" stroke="#666666" points="118.75,-179.5 33.75,-179.5 33.75,-158.75 118.75,-158.75 118.75,-179.5"/>
<text text-anchor="middle" x="76.25" y="-166" font-family="Helvetica,sans-Serif" font-size="10.00">std::exception</text>
</a>
</g>
</g>
<!-- Node3&#45;&gt;Node2 -->
<g id="edge2_Node000002_Node000003" class="edge">
<title>Node3&#45;&gt;Node2</title>
<g id="a_edge2_Node000002_Node000003"><a xlink:title=" ">
<path fill="none" stroke="#63b8ff" d="M76.25,-147.18C76.25,-138.52 76.25,-128.9 76.25,-121.97"/>
<polygon fill="#63b8ff" stroke="#63b8ff" points="72.75,-146.9 76.25,-156.9 79.75,-146.9 72.75,-146.9"/>
</a>
</g>
</g>
</g>
</svg>
