<?xml version="1.0" encoding="UTF-8" standalone="no"?>
<!DOCTYPE svg PUBLIC "-//W3C//DTD SVG 1.1//EN"
 "http://www.w3.org/Graphics/SVG/1.1/DTD/svg11.dtd">
<!-- Generated by graphviz version 12.2.1 (0)
 -->
<!-- Title: stateObservation::flexibilityEstimation::FixedContactEKFFlexEstimatorIMU Pages: 1 -->
<svg width="1800pt" height="430pt"
 viewBox="0.00 0.00 1799.50 430.42" xmlns="http://www.w3.org/2000/svg" xmlns:xlink="http://www.w3.org/1999/xlink">
<g id="graph0" class="graph" transform="scale(1 1) rotate(0) translate(4 426.42)">
<title>stateObservation::flexibilityEstimation::FixedContactEKFFlexEstimatorIMU</title>
<!-- Node1 -->
<g id="Node000001" class="node">
<title>Node1</title>
<g id="a_Node000001"><a xlink:title="This class implements the flexibility estimation of a robot with the hypothesis that the contact posi...">
<polygon fill="#999999" stroke="#666666" points="1791.5,-131.75 1547.5,-131.75 1547.5,-98.25 1791.5,-98.25 1791.5,-131.75"/>
<text text-anchor="start" x="1555.5" y="-118.25" font-family="Helvetica,sans-Serif" font-size="10.00">stateObservation::flexibility</text>
<text text-anchor="middle" x="1669.5" y="-105.5" font-family="Helvetica,sans-Serif" font-size="10.00">Estimation::FixedContactEKFFlexEstimatorIMU</text>
</a>
</g>
</g>
<!-- Node2 -->
<g id="Node000002" class="node">
<title>Node2</title>
<g id="a_Node000002"><a xlink:href="classstateObservation_1_1flexibilityEstimation_1_1EKFFlexibilityEstimatorBase.html" target="_top" xlink:title="This class is the base class of the flexibility estimators that use an extended Kalman Filter....">
<polygon fill="white" stroke="#666666" points="1510.5,-188.75 1297.25,-188.75 1297.25,-155.25 1510.5,-155.25 1510.5,-188.75"/>
<text text-anchor="start" x="1305.25" y="-175.25" font-family="Helvetica,sans-Serif" font-size="10.00">stateObservation::flexibility</text>
<text text-anchor="middle" x="1403.88" y="-162.5" font-family="Helvetica,sans-Serif" font-size="10.00">Estimation::EKFFlexibilityEstimatorBase</text>
</a>
</g>
</g>
<!-- Node2&#45;&gt;Node1 -->
<g id="edge1_Node000001_Node000002" class="edge">
<title>Node2&#45;&gt;Node1</title>
<g id="a_edge1_Node000001_Node000002"><a xlink:title=" ">
<path fill="none" stroke="#63b8ff" d="M1495.35,-152.44C1525.69,-145.88 1559.29,-138.61 1588.75,-132.24"/>
<polygon fill="#63b8ff" stroke="#63b8ff" points="1494.84,-148.97 1485.81,-154.5 1496.32,-155.81 1494.84,-148.97"/>
</a>
</g>
</g>
<!-- Node3 -->
<g id="Node000003" class="node">
<title>Node3</title>
<g id="a_Node000003"><a xlink:href="classstateObservation_1_1flexibilityEstimation_1_1FlexibilityEstimatorBase.html" target="_top" xlink:title="This class is the base class of the flexibility estimators.">
<polygon fill="white" stroke="#666666" points="1226.75,-188.75 1032.25,-188.75 1032.25,-155.25 1226.75,-155.25 1226.75,-188.75"/>
<text text-anchor="start" x="1040.25" y="-175.25" font-family="Helvetica,sans-Serif" font-size="10.00">stateObservation::flexibility</text>
<text text-anchor="middle" x="1129.5" y="-162.5" font-family="Helvetica,sans-Serif" font-size="10.00">Estimation::FlexibilityEstimatorBase</text>
</a>
</g>
</g>
<!-- Node3&#45;&gt;Node2 -->
<g id="edge2_Node000002_Node000003" class="edge">
<title>Node3&#45;&gt;Node2</title>
<g id="a_edge2_Node000002_Node000003"><a xlink:title=" ">
<path fill="none" stroke="#63b8ff" d="M1238.18,-172C1257.49,-172 1277.6,-172 1296.86,-172"/>
<polygon fill="#63b8ff" stroke="#63b8ff" points="1238.43,-168.5 1228.43,-172 1238.43,-175.5 1238.43,-168.5"/>
</a>
</g>
</g>
<!-- Node4 -->
<g id="Node000004" class="node">
<title>Node4</title>
<g id="a_Node000004"><a xlink:href="classstateObservation_1_1ExtendedKalmanFilter.html" target="_top" xlink:title=" ">
<polygon fill="white" stroke="#666666" points="1205.38,-240.75 1053.62,-240.75 1053.62,-207.25 1205.38,-207.25 1205.38,-240.75"/>
<text text-anchor="start" x="1061.62" y="-227.25" font-family="Helvetica,sans-Serif" font-size="10.00">stateObservation::Extended</text>
<text text-anchor="middle" x="1129.5" y="-214.5" font-family="Helvetica,sans-Serif" font-size="10.00">KalmanFilter</text>
</a>
</g>
</g>
<!-- Node4&#45;&gt;Node2 -->
<g id="edge3_Node000002_Node000004" class="edge">
<title>Node4&#45;&gt;Node2</title>
<g id="a_edge3_Node000002_Node000004"><a xlink:title=" ">
<path fill="none" stroke="#9a32cd" stroke-dasharray="5,2" d="M1216.76,-207.53C1247.42,-201.68 1282.01,-195.07 1312.98,-189.16"/>
<polygon fill="#9a32cd" stroke="#9a32cd" points="1216.3,-204.06 1207.14,-209.37 1217.61,-210.93 1216.3,-204.06"/>
</a>
</g>
<text text-anchor="start" x="1255.25" y="-205.81" font-family="Helvetica,sans-Serif" font-size="10.00" fill="grey">ekf_</text>
</g>
<!-- Node5 -->
<g id="Node000005" class="node">
<title>Node5</title>
<g id="a_Node000005"><a xlink:href="classstateObservation_1_1KalmanFilterBase.html" target="_top" xlink:title="It mostly implements the equations of Kalman filtering It is suitablle by derivation to be used incas...">
<polygon fill="white" stroke="#666666" points="880.38,-271.75 736.88,-271.75 736.88,-238.25 880.38,-238.25 880.38,-271.75"/>
<text text-anchor="start" x="744.88" y="-258.25" font-family="Helvetica,sans-Serif" font-size="10.00">stateObservation::Kalman</text>
<text text-anchor="middle" x="808.62" y="-245.5" font-family="Helvetica,sans-Serif" font-size="10.00">FilterBase</text>
</a>
</g>
</g>
<!-- Node5&#45;&gt;Node4 -->
<g id="edge4_Node000004_Node000005" class="edge">
<title>Node5&#45;&gt;Node4</title>
<g id="a_edge4_Node000004_Node000005"><a xlink:title=" ">
<path fill="none" stroke="#63b8ff" d="M892.18,-246.97C941.99,-242.13 1004.97,-236.01 1053.39,-231.3"/>
<polygon fill="#63b8ff" stroke="#63b8ff" points="891.91,-243.48 882.3,-247.94 892.59,-250.45 891.91,-243.48"/>
</a>
</g>
</g>
<!-- Node6 -->
<g id="Node000006" class="node">
<title>Node6</title>
<g id="a_Node000006"><a xlink:href="classstateObservation_1_1ZeroDelayObserver.html" target="_top" xlink:title="Defines the base class of online zero delay observers. Zero delay observers are the classical state o...">
<polygon fill="white" stroke="#666666" points="629.25,-226.75 472.25,-226.75 472.25,-193.25 629.25,-193.25 629.25,-226.75"/>
<text text-anchor="start" x="480.25" y="-213.25" font-family="Helvetica,sans-Serif" font-size="10.00">stateObservation::ZeroDelay</text>
<text text-anchor="middle" x="550.75" y="-200.5" font-family="Helvetica,sans-Serif" font-size="10.00">Observer</text>
</a>
</g>
</g>
<!-- Node6&#45;&gt;Node5 -->
<g id="edge5_Node000005_Node000006" class="edge">
<title>Node6&#45;&gt;Node5</title>
<g id="a_edge5_Node000005_Node000006"><a xlink:title=" ">
<path fill="none" stroke="#63b8ff" d="M640.53,-225.61C671.99,-231.15 706.94,-237.29 736.72,-242.53"/>
<polygon fill="#63b8ff" stroke="#63b8ff" points="641.51,-222.23 631.05,-223.95 640.3,-229.13 641.51,-222.23"/>
</a>
</g>
</g>
<!-- Node7 -->
<g id="Node000007" class="node">
<title>Node7</title>
<g id="a_Node000007"><a xlink:href="classstateObservation_1_1ObserverBase.html" target="_top" xlink:title="The base class for observers. The observer is destinated to any dynamical system with a vector state ...">
<polygon fill="white" stroke="#666666" points="407.75,-187.38 233.5,-187.38 233.5,-166.62 407.75,-166.62 407.75,-187.38"/>
<text text-anchor="middle" x="320.62" y="-173.88" font-family="Helvetica,sans-Serif" font-size="10.00">stateObservation::ObserverBase</text>
</a>
</g>
</g>
<!-- Node7&#45;&gt;Node6 -->
<g id="edge6_Node000006_Node000007" class="edge">
<title>Node7&#45;&gt;Node6</title>
<g id="a_edge6_Node000006_Node000007"><a xlink:title=" ">
<path fill="none" stroke="#63b8ff" d="M407.84,-189.47C428.9,-192.52 451.31,-195.76 471.95,-198.75"/>
<polygon fill="#63b8ff" stroke="#63b8ff" points="408.53,-186.04 398.14,-188.07 407.53,-192.96 408.53,-186.04"/>
</a>
</g>
</g>
<!-- Node8 -->
<g id="Node000008" class="node">
<title>Node8</title>
<g id="a_Node000008"><a xlink:href="classstateObservation_1_1IndexedMatrixT.html" target="_top" xlink:title=" ">
<polygon fill="white" stroke="#666666" points="392.75,-370.75 248.5,-370.75 248.5,-337.25 392.75,-337.25 392.75,-370.75"/>
<text text-anchor="start" x="256.5" y="-357.25" font-family="Helvetica,sans-Serif" font-size="10.00">stateObservation::Indexed</text>
<text text-anchor="middle" x="320.62" y="-344.5" font-family="Helvetica,sans-Serif" font-size="10.00">MatrixT&lt; Vector &gt;</text>
</a>
</g>
</g>
<!-- Node8&#45;&gt;Node5 -->
<g id="edge11_Node000005_Node000008" class="edge">
<title>Node8&#45;&gt;Node5</title>
<g id="a_edge11_Node000005_Node000008"><a xlink:title=" ">
<path fill="none" stroke="#9a32cd" stroke-dasharray="5,2" d="M396.69,-373.54C480.38,-390.53 615.33,-402.98 702,-335 721.91,-319.39 701.82,-298.59 720,-281 724.9,-276.26 730.63,-272.37 736.77,-269.19"/>
<polygon fill="#9a32cd" stroke="#9a32cd" points="397.47,-370.13 386.96,-371.49 396.03,-376.98 397.47,-370.13"/>
</a>
</g>
<text text-anchor="start" x="537.25" y="-409.92" font-family="Helvetica,sans-Serif" font-size="10.00" fill="grey">xbar_</text>
<text text-anchor="start" x="537.25" y="-393.17" font-family="Helvetica,sans-Serif" font-size="10.00" fill="grey">ybar_</text>
</g>
<!-- Node8&#45;&gt;Node6 -->
<g id="edge7_Node000006_Node000008" class="edge">
<title>Node8&#45;&gt;Node6</title>
<g id="a_edge7_Node000006_Node000008"><a xlink:title=" ">
<path fill="none" stroke="#9a32cd" stroke-dasharray="5,2" d="M354,-330.11C379.14,-311.03 414.41,-283.09 443,-256 451.68,-247.77 450.88,-242.37 461,-236 466.3,-232.67 472.05,-229.74 477.98,-227.19"/>
<polygon fill="#9a32cd" stroke="#9a32cd" points="351.99,-327.24 346.1,-336.05 356.2,-332.83 351.99,-327.24"/>
</a>
</g>
<text text-anchor="start" x="428.75" y="-276.58" font-family="Helvetica,sans-Serif" font-size="10.00" fill="grey">x_</text>
</g>
<!-- Node9 -->
<g id="Node000009" class="node">
<title>Node9</title>
<g id="a_Node000009"><a xlink:href="classstateObservation_1_1DebugItem.html" target="_top" xlink:title=" ">
<polygon fill="white" stroke="#666666" points="160,-377.12 0,-377.12 0,-330.88 160,-330.88 160,-377.12"/>
<text text-anchor="start" x="8" y="-363.62" font-family="Helvetica,sans-Serif" font-size="10.00">stateObservation::DebugItem</text>
<text text-anchor="start" x="8" y="-350.88" font-family="Helvetica,sans-Serif" font-size="10.00">&lt; bool, detail::defaultTrue,</text>
<text text-anchor="middle" x="80" y="-338.12" font-family="Helvetica,sans-Serif" font-size="10.00"> !false||isDebug &gt;</text>
</a>
</g>
</g>
<!-- Node9&#45;&gt;Node8 -->
<g id="edge8_Node000008_Node000009" class="edge">
<title>Node9&#45;&gt;Node8</title>
<g id="a_edge8_Node000008_Node000009"><a xlink:title=" ">
<path fill="none" stroke="darkgreen" d="M171.91,-354C197.15,-354 224.19,-354 248.14,-354"/>
<polygon fill="darkgreen" stroke="darkgreen" points="171.97,-350.5 161.97,-354 171.97,-357.5 171.97,-350.5"/>
</a>
</g>
</g>
<!-- Node10 -->
<g id="Node000010" class="node">
<title>Node10</title>
<g id="a_Node000010"><a xlink:href="classstateObservation_1_1IndexedMatrixArrayT.html" target="_top" xlink:title=" ">
<polygon fill="white" stroke="#666666" points="392.75,-238.75 248.5,-238.75 248.5,-205.25 392.75,-205.25 392.75,-238.75"/>
<text text-anchor="start" x="256.5" y="-225.25" font-family="Helvetica,sans-Serif" font-size="10.00">stateObservation::Indexed</text>
<text text-anchor="middle" x="320.62" y="-212.5" font-family="Helvetica,sans-Serif" font-size="10.00">MatrixArrayT&lt; Vector &gt;</text>
</a>
</g>
</g>
<!-- Node10&#45;&gt;Node6 -->
<g id="edge9_Node000006_Node000010" class="edge">
<title>Node10&#45;&gt;Node6</title>
<g id="a_edge9_Node000006_Node000010"><a xlink:title=" ">
<path fill="none" stroke="#9a32cd" stroke-dasharray="5,2" d="M404.54,-217.64C426.61,-216.48 450.35,-215.23 472.12,-214.08"/>
<polygon fill="#9a32cd" stroke="#9a32cd" points="404.49,-214.14 394.69,-218.16 404.86,-221.13 404.49,-214.14"/>
</a>
</g>
<text text-anchor="start" x="428.75" y="-239.36" font-family="Helvetica,sans-Serif" font-size="10.00" fill="grey">u_</text>
<text text-anchor="start" x="428.75" y="-222.61" font-family="Helvetica,sans-Serif" font-size="10.00" fill="grey">y_</text>
</g>
<!-- Node11 -->
<g id="Node000011" class="node">
<title>Node11</title>
<g id="a_Node000011"><a xlink:href="classstateObservation_1_1StateVectorArithmetics.html" target="_top" xlink:title="This class is used to customize the way the difference between measurements, the state update functio...">
<polygon fill="white" stroke="#666666" points="631.88,-330.75 469.62,-330.75 469.62,-297.25 631.88,-297.25 631.88,-330.75"/>
<text text-anchor="start" x="477.62" y="-317.25" font-family="Helvetica,sans-Serif" font-size="10.00">stateObservation::StateVector</text>
<text text-anchor="middle" x="550.75" y="-304.5" font-family="Helvetica,sans-Serif" font-size="10.00">Arithmetics</text>
</a>
</g>
</g>
<!-- Node11&#45;&gt;Node5 -->
<g id="edge10_Node000005_Node000011" class="edge">
<title>Node11&#45;&gt;Node5</title>
<g id="a_edge10_Node000005_Node000011"><a xlink:title=" ">
<path fill="none" stroke="darkgreen" d="M637.66,-294.19C669.88,-286.76 706.09,-278.41 736.79,-271.33"/>
<polygon fill="darkgreen" stroke="darkgreen" points="636.88,-290.78 627.92,-296.44 638.45,-297.6 636.88,-290.78"/>
</a>
</g>
</g>
<!-- Node11&#45;&gt;Node5 -->
<g id="edge13_Node000005_Node000011" class="edge">
<title>Node11&#45;&gt;Node5</title>
<g id="a_edge13_Node000005_Node000011"><a xlink:title=" ">
<path fill="none" stroke="#9a32cd" stroke-dasharray="5,2" d="M643.43,-314.83C663.44,-312.32 683.99,-307.53 702,-299 712.22,-294.16 710.28,-286.79 720,-281 725.59,-277.67 731.64,-274.74 737.85,-272.17"/>
<polygon fill="#9a32cd" stroke="#9a32cd" points="643.14,-311.34 633.57,-315.88 643.88,-318.3 643.14,-311.34"/>
</a>
</g>
<text text-anchor="start" x="661.5" y="-318.65" font-family="Helvetica,sans-Serif" font-size="10.00" fill="grey">arithm_</text>
</g>
<!-- Node12 -->
<g id="Node000012" class="node">
<title>Node12</title>
<g id="a_Node000012"><a xlink:href="structstateObservation_1_1KalmanFilterBase_1_1optimizationContainer.html" target="_top" xlink:title=" ">
<polygon fill="white" stroke="#bfbfbf" points="640.5,-278.75 461,-278.75 461,-245.25 640.5,-245.25 640.5,-278.75"/>
<text text-anchor="start" x="469" y="-265.25" font-family="Helvetica,sans-Serif" font-size="10.00">stateObservation::Kalman</text>
<text text-anchor="middle" x="550.75" y="-252.5" font-family="Helvetica,sans-Serif" font-size="10.00">FilterBase::optimizationContainer</text>
</a>
</g>
</g>
<!-- Node12&#45;&gt;Node5 -->
<g id="edge12_Node000005_Node000012" class="edge">
<title>Node12&#45;&gt;Node5</title>
<g id="a_edge12_Node000005_Node000012"><a xlink:title=" ">
<path fill="none" stroke="#9a32cd" stroke-dasharray="5,2" d="M652.24,-256.46C654.34,-256.38 656.43,-256.31 658.5,-256.25 683.99,-255.46 711.94,-255.09 736.69,-254.94"/>
<polygon fill="#9a32cd" stroke="#9a32cd" points="652.23,-252.96 642.37,-256.84 652.5,-259.95 652.23,-252.96"/>
</a>
</g>
<text text-anchor="start" x="672" y="-262.5" font-family="Helvetica,sans-Serif" font-size="10.00" fill="grey">oc_</text>
</g>
<!-- Node13 -->
<g id="Node000013" class="node">
<title>Node13</title>
<g id="a_Node000013"><a xlink:href="classstateObservation_1_1DynamicalSystemFunctorBase.html" target="_top" xlink:title="This is the base class of any functor that describes the dynamics of the state and the measurement....">
<polygon fill="white" stroke="#666666" points="887.88,-212.75 729.38,-212.75 729.38,-179.25 887.88,-179.25 887.88,-212.75"/>
<text text-anchor="start" x="737.38" y="-199.25" font-family="Helvetica,sans-Serif" font-size="10.00">stateObservation::Dynamical</text>
<text text-anchor="middle" x="808.62" y="-186.5" font-family="Helvetica,sans-Serif" font-size="10.00">SystemFunctorBase</text>
</a>
</g>
</g>
<!-- Node13&#45;&gt;Node4 -->
<g id="edge14_Node000004_Node000013" class="edge">
<title>Node13&#45;&gt;Node4</title>
<g id="a_edge14_Node000004_Node000013"><a xlink:title=" ">
<path fill="none" stroke="#9a32cd" stroke-dasharray="5,2" d="M899.48,-203.89C947.95,-208.15 1007.09,-213.34 1053.14,-217.38"/>
<polygon fill="#9a32cd" stroke="#9a32cd" points="899.81,-200.41 889.55,-203.02 899.2,-207.38 899.81,-200.41"/>
</a>
</g>
<text text-anchor="start" x="956.5" y="-218.76" font-family="Helvetica,sans-Serif" font-size="10.00" fill="grey">f_</text>
</g>
<!-- Node16 -->
<g id="Node000016" class="node">
<title>Node16</title>
<g id="a_Node000016"><a xlink:href="classstateObservation_1_1flexibilityEstimation_1_1IMUFixedContactDynamicalSystem.html" target="_top" xlink:title="This class describes the dynamics of a robot&#39;s flexibility this dynamics is the simplest possible sys...">
<polygon fill="white" stroke="#666666" points="1234.25,-136.12 1024.75,-136.12 1024.75,-89.88 1234.25,-89.88 1234.25,-136.12"/>
<text text-anchor="start" x="1032.75" y="-122.62" font-family="Helvetica,sans-Serif" font-size="10.00">stateObservation::flexibility</text>
<text text-anchor="start" x="1032.75" y="-109.88" font-family="Helvetica,sans-Serif" font-size="10.00">Estimation::IMUFixedContactDynamical</text>
<text text-anchor="middle" x="1129.5" y="-97.12" font-family="Helvetica,sans-Serif" font-size="10.00">System</text>
</a>
</g>
</g>
<!-- Node13&#45;&gt;Node16 -->
<g id="edge18_Node000016_Node000013" class="edge">
<title>Node13&#45;&gt;Node16</title>
<g id="a_edge18_Node000016_Node000013"><a xlink:title=" ">
<path fill="none" stroke="#63b8ff" d="M886.71,-175.94C932.3,-164.07 990.28,-148.98 1038.03,-136.55"/>
<polygon fill="#63b8ff" stroke="#63b8ff" points="885.96,-172.51 877.16,-178.42 887.72,-179.29 885.96,-172.51"/>
</a>
</g>
</g>
<!-- Node14 -->
<g id="Node000014" class="node">
<title>Node14</title>
<g id="a_Node000014"><a xlink:href="structstateObservation_1_1ExtendedKalmanFilter_1_1Optimization.html" target="_top" xlink:title=" ">
<polygon fill="white" stroke="#bfbfbf" points="884.5,-323.75 732.75,-323.75 732.75,-290.25 884.5,-290.25 884.5,-323.75"/>
<text text-anchor="start" x="740.75" y="-310.25" font-family="Helvetica,sans-Serif" font-size="10.00">stateObservation::Extended</text>
<text text-anchor="middle" x="808.62" y="-297.5" font-family="Helvetica,sans-Serif" font-size="10.00">KalmanFilter::Optimization</text>
</a>
</g>
</g>
<!-- Node14&#45;&gt;Node4 -->
<g id="edge15_Node000004_Node000014" class="edge">
<title>Node14&#45;&gt;Node4</title>
<g id="a_edge15_Node000004_Node000014"><a xlink:title=" ">
<path fill="none" stroke="#9a32cd" stroke-dasharray="5,2" d="M886.53,-286.98C940.19,-273.01 1011.08,-254.56 1062.24,-241.25"/>
<polygon fill="#9a32cd" stroke="#9a32cd" points="885.96,-283.51 877.16,-289.42 887.72,-290.29 885.96,-283.51"/>
</a>
</g>
<text text-anchor="start" x="953.12" y="-284.03" font-family="Helvetica,sans-Serif" font-size="10.00" fill="grey">opt</text>
</g>
<!-- Node15 -->
<g id="Node000015" class="node">
<title>Node15</title>
<g id="a_Node000015"><a xlink:title=" ">
<polygon fill="white" stroke="#bfbfbf" points="1459.5,-79.38 1348.25,-79.38 1348.25,-58.62 1459.5,-58.62 1459.5,-79.38"/>
<text text-anchor="middle" x="1403.88" y="-65.88" font-family="Helvetica,sans-Serif" font-size="10.00">boost::noncopyable</text>
</a>
</g>
</g>
<!-- Node15&#45;&gt;Node1 -->
<g id="edge16_Node000001_Node000015" class="edge">
<title>Node15&#45;&gt;Node1</title>
<g id="a_edge16_Node000001_Node000015"><a xlink:title=" ">
<path fill="none" stroke="#8b1a1a" d="M1470.95,-80.53C1500.81,-85.74 1536.71,-92 1569.68,-97.76"/>
<polygon fill="#8b1a1a" stroke="#8b1a1a" points="1471.76,-77.12 1461.31,-78.85 1470.56,-84.01 1471.76,-77.12"/>
</a>
</g>
</g>
<!-- Node16&#45;&gt;Node1 -->
<g id="edge17_Node000001_Node000016" class="edge">
<title>Node16&#45;&gt;Node1</title>
<g id="a_edge17_Node000001_Node000016"><a xlink:title=" ">
<path fill="none" stroke="#9a32cd" stroke-dasharray="5,2" d="M1246.03,-113.43C1334.84,-113.76 1457.18,-114.21 1547.36,-114.55"/>
<polygon fill="#9a32cd" stroke="#9a32cd" points="1246.08,-109.93 1236.06,-113.39 1246.05,-116.93 1246.08,-109.93"/>
</a>
</g>
<text text-anchor="start" x="1384" y="-120.64" font-family="Helvetica,sans-Serif" font-size="10.00" fill="grey">functor_</text>
</g>
<!-- Node17 -->
<g id="Node000017" class="node">
<title>Node17</title>
<g id="a_Node000017"><a xlink:href="classstateObservation_1_1AccelerometerGyrometer.html" target="_top" xlink:title="Implements the accelerometer&#45;gyrometer measurements.">
<polygon fill="white" stroke="#666666" points="897.25,-129.75 720,-129.75 720,-96.25 897.25,-96.25 897.25,-129.75"/>
<text text-anchor="start" x="728" y="-116.25" font-family="Helvetica,sans-Serif" font-size="10.00">stateObservation::Accelerometer</text>
<text text-anchor="middle" x="808.62" y="-103.5" font-family="Helvetica,sans-Serif" font-size="10.00">Gyrometer</text>
</a>
</g>
</g>
<!-- Node17&#45;&gt;Node16 -->
<g id="edge19_Node000016_Node000017" class="edge">
<title>Node17&#45;&gt;Node16</title>
<g id="a_edge19_Node000016_Node000017"><a xlink:title=" ">
<path fill="none" stroke="#9a32cd" stroke-dasharray="5,2" d="M908.83,-113C945.55,-113 987.27,-113 1024.41,-113"/>
<polygon fill="#9a32cd" stroke="#9a32cd" points="909.12,-109.5 899.12,-113 909.12,-116.5 909.12,-109.5"/>
</a>
</g>
<text text-anchor="start" x="942.25" y="-119.25" font-family="Helvetica,sans-Serif" font-size="10.00" fill="grey">sensor_</text>
</g>
<!-- Node18 -->
<g id="Node000018" class="node">
<title>Node18</title>
<g id="a_Node000018"><a xlink:href="classstateObservation_1_1AlgebraicSensor.html" target="_top" xlink:title="The base class for algebraic sensors. Algebraic sensors are sensors which depend only on the state va...">
<polygon fill="white" stroke="#666666" points="626.62,-174.75 474.88,-174.75 474.88,-141.25 626.62,-141.25 626.62,-174.75"/>
<text text-anchor="start" x="482.88" y="-161.25" font-family="Helvetica,sans-Serif" font-size="10.00">stateObservation::Algebraic</text>
<text text-anchor="middle" x="550.75" y="-148.5" font-family="Helvetica,sans-Serif" font-size="10.00">Sensor</text>
</a>
</g>
</g>
<!-- Node18&#45;&gt;Node17 -->
<g id="edge20_Node000017_Node000018" class="edge">
<title>Node18&#45;&gt;Node17</title>
<g id="a_edge20_Node000017_Node000018"><a xlink:title=" ">
<path fill="none" stroke="#63b8ff" d="M637.94,-142.84C664.35,-138.2 693.44,-133.08 719.95,-128.42"/>
<polygon fill="#63b8ff" stroke="#63b8ff" points="637.53,-139.36 628.28,-144.54 638.74,-146.26 637.53,-139.36"/>
</a>
</g>
</g>
<!-- Node19 -->
<g id="Node000019" class="node">
<title>Node19</title>
<g id="a_Node000019"><a xlink:href="classstateObservation_1_1SensorBase.html" target="_top" xlink:title="The base class for sensors. This must be derived to implement a sensor.">
<polygon fill="white" stroke="#666666" points="402.12,-128.38 239.12,-128.38 239.12,-107.62 402.12,-107.62 402.12,-128.38"/>
<text text-anchor="middle" x="320.62" y="-114.88" font-family="Helvetica,sans-Serif" font-size="10.00">stateObservation::SensorBase</text>
</a>
</g>
</g>
<!-- Node19&#45;&gt;Node18 -->
<g id="edge21_Node000018_Node000019" class="edge">
<title>Node19&#45;&gt;Node18</title>
<g id="a_edge21_Node000018_Node000019"><a xlink:title=" ">
<path fill="none" stroke="#63b8ff" d="M394.48,-130.77C420.04,-135.26 448.79,-140.3 474.55,-144.81"/>
<polygon fill="#63b8ff" stroke="#63b8ff" points="395.3,-127.37 384.85,-129.09 394.09,-134.26 395.3,-127.37"/>
</a>
</g>
</g>
<!-- Node20 -->
<g id="Node000020" class="node">
<title>Node20</title>
<g id="a_Node000020"><a xlink:href="classstateObservation_1_1NoiseBase.html" target="_top" xlink:title=" ">
<polygon fill="white" stroke="#bfbfbf" points="158.88,-42.38 1.12,-42.38 1.12,-21.62 158.88,-21.62 158.88,-42.38"/>
<text text-anchor="middle" x="80" y="-28.88" font-family="Helvetica,sans-Serif" font-size="10.00">stateObservation::NoiseBase</text>
</a>
</g>
</g>
<!-- Node20&#45;&gt;Node16 -->
<g id="edge25_Node000016_Node000020" class="edge">
<title>Node20&#45;&gt;Node16</title>
<g id="a_edge25_Node000016_Node000020"><a xlink:title=" ">
<path fill="none" stroke="#9a32cd" stroke-dasharray="5,2" d="M143.07,-19.06C191.06,-10.18 259.26,0 319.62,0 319.62,0 319.62,0 809.62,0 915.93,0 1031.32,-56.49 1089.8,-89.59"/>
<polygon fill="#9a32cd" stroke="#9a32cd" points="142.6,-15.59 133.43,-20.89 143.9,-22.47 142.6,-15.59"/>
</a>
</g>
<text text-anchor="start" x="515.5" y="-6.25" font-family="Helvetica,sans-Serif" font-size="10.00" fill="grey">processNoise_</text>
</g>
<!-- Node20&#45;&gt;Node19 -->
<g id="edge22_Node000019_Node000020" class="edge">
<title>Node20&#45;&gt;Node19</title>
<g id="a_edge22_Node000019_Node000020"><a xlink:title=" ">
<path fill="none" stroke="#9a32cd" stroke-dasharray="5,2" d="M121.57,-46.62C169.17,-63.78 246.97,-91.82 289.51,-107.15"/>
<polygon fill="#9a32cd" stroke="#9a32cd" points="122.76,-43.33 112.16,-43.23 120.38,-49.91 122.76,-43.33"/>
</a>
</g>
<text text-anchor="start" x="181" y="-86.4" font-family="Helvetica,sans-Serif" font-size="10.00" fill="grey">noise_</text>
</g>
<!-- Node21 -->
<g id="Node000021" class="node">
<title>Node21</title>
<g id="a_Node000021"><a xlink:href="classstateObservation_1_1algorithm_1_1LinearAcceleration.html" target="_top" xlink:title="Implements the measurements given by an accelerometer.">
<polygon fill="white" stroke="#666666" points="627.38,-122.75 474.12,-122.75 474.12,-89.25 627.38,-89.25 627.38,-122.75"/>
<text text-anchor="start" x="482.12" y="-109.25" font-family="Helvetica,sans-Serif" font-size="10.00">stateObservation::algorithm</text>
<text text-anchor="middle" x="550.75" y="-96.5" font-family="Helvetica,sans-Serif" font-size="10.00">::LinearAcceleration</text>
</a>
</g>
</g>
<!-- Node21&#45;&gt;Node17 -->
<g id="edge23_Node000017_Node000021" class="edge">
<title>Node21&#45;&gt;Node17</title>
<g id="a_edge23_Node000017_Node000021"><a xlink:title=" ">
<path fill="none" stroke="darkgreen" d="M639.19,-108.39C665.19,-109.1 693.67,-109.88 719.7,-110.59"/>
<polygon fill="darkgreen" stroke="darkgreen" points="639.43,-104.9 629.34,-108.12 639.24,-111.89 639.43,-104.9"/>
</a>
</g>
</g>
<!-- Node22 -->
<g id="Node000022" class="node">
<title>Node22</title>
<g id="a_Node000022"><a xlink:href="classstateObservation_1_1algorithm_1_1RotationVelocity.html" target="_top" xlink:title="Implements the gyrometer measurement algorithm.">
<polygon fill="white" stroke="#666666" points="627.38,-70.75 474.12,-70.75 474.12,-37.25 627.38,-37.25 627.38,-70.75"/>
<text text-anchor="start" x="482.12" y="-57.25" font-family="Helvetica,sans-Serif" font-size="10.00">stateObservation::algorithm</text>
<text text-anchor="middle" x="550.75" y="-44.5" font-family="Helvetica,sans-Serif" font-size="10.00">::RotationVelocity</text>
</a>
</g>
</g>
<!-- Node22&#45;&gt;Node17 -->
<g id="edge24_Node000017_Node000022" class="edge">
<title>Node22&#45;&gt;Node17</title>
<g id="a_edge24_Node000017_Node000022"><a xlink:title=" ">
<path fill="none" stroke="darkgreen" d="M637.63,-73.8C668.48,-80.92 703,-88.88 732.83,-95.75"/>
<polygon fill="darkgreen" stroke="darkgreen" points="638.45,-70.4 627.92,-71.56 636.88,-77.22 638.45,-70.4"/>
</a>
</g>
</g>
<!-- Node23 -->
<g id="Node000023" class="node">
<title>Node23</title>
<g id="a_Node000023"><a xlink:title=" ">
<polygon fill="white" stroke="#666666" points="876.62,-78.12 740.62,-78.12 740.62,-31.88 876.62,-31.88 876.62,-78.12"/>
<text text-anchor="start" x="748.62" y="-64.62" font-family="Helvetica,sans-Serif" font-size="10.00">std::vector&lt; Vector3,</text>
<text text-anchor="start" x="748.62" y="-51.88" font-family="Helvetica,sans-Serif" font-size="10.00"> Eigen::aligned_allocator</text>
<text text-anchor="middle" x="808.62" y="-39.12" font-family="Helvetica,sans-Serif" font-size="10.00">&lt; Vector3 &gt; &gt;</text>
</a>
</g>
</g>
<!-- Node23&#45;&gt;Node16 -->
<g id="edge26_Node000016_Node000023" class="edge">
<title>Node23&#45;&gt;Node16</title>
<g id="a_edge26_Node000016_Node000023"><a xlink:title=" ">
<path fill="none" stroke="#9a32cd" stroke-dasharray="5,2" d="M887.7,-68.82C923.92,-75.26 967.54,-83.08 1006.75,-90.25 1012.57,-91.31 1018.54,-92.41 1024.57,-93.52"/>
<polygon fill="#9a32cd" stroke="#9a32cd" points="888.66,-65.43 878.2,-67.13 887.43,-72.32 888.66,-65.43"/>
</a>
</g>
<text text-anchor="start" x="918.25" y="-96.5" font-family="Helvetica,sans-Serif" font-size="10.00" fill="grey">contactPositions_</text>
</g>
</g>
</svg>
