<?xml version="1.0" encoding="UTF-8" standalone="no"?>
<!DOCTYPE svg PUBLIC "-//W3C//DTD SVG 1.1//EN"
 "http://www.w3.org/Graphics/SVG/1.1/DTD/svg11.dtd">
<!-- Generated by graphviz version 12.2.1 (0)
 -->
<!-- Title: stateObservation::tools::Logger Pages: 1 -->
<svg width="255pt" height="390pt"
 viewBox="0.00 0.00 255.00 389.50" xmlns="http://www.w3.org/2000/svg" xmlns:xlink="http://www.w3.org/1999/xlink">
<g id="graph0" class="graph" transform="scale(1 1) rotate(0) translate(4 385.5)">
<title>stateObservation::tools::Logger</title>
<!-- Node1 -->
<g id="Node000001" class="node">
<title>Node1</title>
<g id="a_Node000001"><a xlink:title=" ">
<polygon fill="#999999" stroke="#666666" points="214.12,-33.5 84.12,-33.5 84.12,0 214.12,0 214.12,-33.5"/>
<text text-anchor="start" x="92.12" y="-20" font-family="Helvetica,sans-Serif" font-size="10.00">stateObservation::tools</text>
<text text-anchor="middle" x="149.12" y="-7.25" font-family="Helvetica,sans-Serif" font-size="10.00">::Logger</text>
</a>
</g>
</g>
<!-- Node2 -->
<g id="Node000002" class="node">
<title>Node2</title>
<g id="a_Node000002"><a xlink:title=" ">
<polygon fill="white" stroke="#666666" points="227.5,-304.62 162.75,-304.62 162.75,-283.88 227.5,-283.88 227.5,-304.62"/>
<text text-anchor="middle" x="195.12" y="-291.12" font-family="Helvetica,sans-Serif" font-size="10.00">std::string</text>
</a>
</g>
</g>
<!-- Node2&#45;&gt;Node1 -->
<g id="edge1_Node000001_Node000002" class="edge">
<title>Node2&#45;&gt;Node1</title>
<g id="a_edge1_Node000001_Node000002"><a xlink:title=" ">
<path fill="none" stroke="#9a32cd" stroke-dasharray="5,2" d="M194.22,-272.54C192.37,-235.4 187.35,-155.1 176.12,-88.25 173.34,-71.67 173.13,-67.21 167.12,-51.5 164.85,-45.55 161.75,-39.31 158.76,-33.84"/>
<polygon fill="#9a32cd" stroke="#9a32cd" points="190.71,-272.45 194.67,-282.27 197.7,-272.12 190.71,-272.45"/>
</a>
</g>
<text text-anchor="start" x="189.7" y="-158.75" font-family="Helvetica,sans-Serif" font-size="10.00" fill="grey">path_</text>
</g>
<!-- Node5 -->
<g id="Node000005" class="node">
<title>Node5</title>
<g id="a_Node000005"><a xlink:href="structstateObservation_1_1tools_1_1Logger_1_1log__s.html" target="_top" xlink:title=" ">
<polygon fill="white" stroke="#bfbfbf" points="167.12,-222.75 37.12,-222.75 37.12,-189.25 167.12,-189.25 167.12,-222.75"/>
<text text-anchor="start" x="45.12" y="-209.25" font-family="Helvetica,sans-Serif" font-size="10.00">stateObservation::tools</text>
<text text-anchor="middle" x="102.12" y="-196.5" font-family="Helvetica,sans-Serif" font-size="10.00">::Logger::log_s</text>
</a>
</g>
</g>
<!-- Node2&#45;&gt;Node5 -->
<g id="edge6_Node000005_Node000002" class="edge">
<title>Node2&#45;&gt;Node5</title>
<g id="a_edge6_Node000005_Node000002"><a xlink:title=" ">
<path fill="none" stroke="#9a32cd" stroke-dasharray="5,2" d="M159.41,-278.41C149.9,-273.35 140.13,-267.03 132.38,-259.5 121.81,-249.24 113.75,-234.5 108.62,-223.25"/>
<polygon fill="#9a32cd" stroke="#9a32cd" points="157.65,-281.45 168.16,-282.74 160.75,-275.17 157.65,-281.45"/>
</a>
</g>
<text text-anchor="start" x="135.38" y="-247" font-family="Helvetica,sans-Serif" font-size="10.00" fill="grey">filename</text>
</g>
<!-- Node3 -->
<g id="Node000003" class="node">
<title>Node3</title>
<g id="a_Node000003"><a xlink:title=" ">
<polygon fill="white" stroke="#666666" points="247,-381.5 143.25,-381.5 143.25,-348 247,-348 247,-381.5"/>
<text text-anchor="start" x="151.25" y="-368" font-family="Helvetica,sans-Serif" font-size="10.00">std::basic_string&lt;</text>
<text text-anchor="middle" x="195.12" y="-355.25" font-family="Helvetica,sans-Serif" font-size="10.00"> Char &gt;</text>
</a>
</g>
</g>
<!-- Node3&#45;&gt;Node2 -->
<g id="edge2_Node000002_Node000003" class="edge">
<title>Node3&#45;&gt;Node2</title>
<g id="a_edge2_Node000002_Node000003"><a xlink:title=" ">
<path fill="none" stroke="#63b8ff" d="M195.12,-336.08C195.12,-324.99 195.12,-312.93 195.12,-304.82"/>
<polygon fill="#63b8ff" stroke="#63b8ff" points="191.63,-336 195.13,-346 198.63,-336 191.63,-336"/>
</a>
</g>
</g>
<!-- Node4 -->
<g id="Node000004" class="node">
<title>Node4</title>
<g id="a_Node000004"><a xlink:title=" ">
<polygon fill="white" stroke="#666666" points="167,-134.5 39.25,-134.5 39.25,-88.25 167,-88.25 167,-134.5"/>
<text text-anchor="start" x="47.25" y="-121" font-family="Helvetica,sans-Serif" font-size="10.00">std::map&lt; const void</text>
<text text-anchor="start" x="47.25" y="-108.25" font-family="Helvetica,sans-Serif" font-size="10.00"> *, stateObservation</text>
<text text-anchor="middle" x="103.12" y="-95.5" font-family="Helvetica,sans-Serif" font-size="10.00">::tools::Logger::log_s &gt;</text>
</a>
</g>
</g>
<!-- Node4&#45;&gt;Node1 -->
<g id="edge3_Node000001_Node000004" class="edge">
<title>Node4&#45;&gt;Node1</title>
<g id="a_edge3_Node000001_Node000004"><a xlink:title=" ">
<path fill="none" stroke="#9a32cd" stroke-dasharray="5,2" d="M119.18,-78.04C126.6,-63.1 135.08,-46.03 141.12,-33.87"/>
<polygon fill="#9a32cd" stroke="#9a32cd" points="116.25,-76.08 114.93,-86.6 122.52,-79.2 116.25,-76.08"/>
</a>
</g>
<text text-anchor="start" x="134.6" y="-57.75" font-family="Helvetica,sans-Serif" font-size="10.00" fill="grey">logs_</text>
</g>
<!-- Node5&#45;&gt;Node4 -->
<g id="edge4_Node000004_Node000005" class="edge">
<title>Node5&#45;&gt;Node4</title>
<g id="a_edge4_Node000004_Node000005"><a xlink:title=" ">
<path fill="none" stroke="#9a32cd" stroke-dasharray="5,2" d="M102.42,-177.73C102.57,-164.11 102.74,-147.82 102.88,-134.92"/>
<polygon fill="#9a32cd" stroke="#9a32cd" points="98.92,-177.32 102.32,-187.35 105.92,-177.39 98.92,-177.32"/>
</a>
</g>
<text text-anchor="start" x="105.68" y="-158.75" font-family="Helvetica,sans-Serif" font-size="10.00" fill="grey">elements</text>
</g>
<!-- Node6 -->
<g id="Node000006" class="node">
<title>Node6</title>
<g id="a_Node000006"><a xlink:href="classstateObservation_1_1IndexedMatrixArrayT.html" target="_top" xlink:title=" ">
<polygon fill="white" stroke="#666666" points="144.25,-311 0,-311 0,-277.5 144.25,-277.5 144.25,-311"/>
<text text-anchor="start" x="8" y="-297.5" font-family="Helvetica,sans-Serif" font-size="10.00">stateObservation::Indexed</text>
<text text-anchor="middle" x="72.12" y="-284.75" font-family="Helvetica,sans-Serif" font-size="10.00">MatrixArrayT&lt; Matrix &gt;</text>
</a>
</g>
</g>
<!-- Node6&#45;&gt;Node5 -->
<g id="edge5_Node000005_Node000006" class="edge">
<title>Node6&#45;&gt;Node5</title>
<g id="a_edge5_Node000005_Node000006"><a xlink:title=" ">
<path fill="none" stroke="#9a32cd" stroke-dasharray="5,2" d="M70.9,-265.71C71.34,-257.46 72.64,-248.54 75.62,-240.75 78.08,-234.35 82.19,-228.19 86.45,-222.93"/>
<polygon fill="#9a32cd" stroke="#9a32cd" points="67.4,-265.55 70.8,-275.59 74.4,-265.63 67.4,-265.55"/>
</a>
</g>
<text text-anchor="start" x="78.62" y="-247" font-family="Helvetica,sans-Serif" font-size="10.00" fill="grey">array</text>
</g>
</g>
</svg>
