<?xml version="1.0" encoding="UTF-8" standalone="no"?>
<!DOCTYPE svg PUBLIC "-//W3C//DTD SVG 1.1//EN"
 "http://www.w3.org/Graphics/SVG/1.1/DTD/svg11.dtd">
<!-- Generated by graphviz version 12.2.1 (0)
 -->
<!-- Title: /build/source/include/state&#45;observation/tools/definitions.hpp Pages: 1 -->
<svg width="1229pt" height="124pt"
 viewBox="0.00 0.00 1229.12 123.75" xmlns="http://www.w3.org/2000/svg" xmlns:xlink="http://www.w3.org/1999/xlink">
<g id="graph0" class="graph" transform="scale(1 1) rotate(0) translate(4 119.75)">
<title>/build/source/include/state&#45;observation/tools/definitions.hpp</title>
<!-- Node1 -->
<g id="Node000001" class="node">
<title>Node1</title>
<g id="a_Node000001"><a xlink:title="Definitions of types and some structures.">
<polygon fill="#999999" stroke="#666666" points="575.62,-115.75 443.38,-115.75 443.38,-69.5 575.62,-69.5 575.62,-115.75"/>
<text text-anchor="start" x="451.38" y="-102.25" font-family="Helvetica,sans-Serif" font-size="10.00">/build/source/include</text>
<text text-anchor="start" x="451.38" y="-89.5" font-family="Helvetica,sans-Serif" font-size="10.00">/state&#45;observation/tools</text>
<text text-anchor="middle" x="509.5" y="-76.75" font-family="Helvetica,sans-Serif" font-size="10.00">/definitions.hpp</text>
</a>
</g>
</g>
<!-- Node2 -->
<g id="Node000002" class="node">
<title>Node2</title>
<g id="a_Node000002"><a xlink:title=" ">
<polygon fill="#e0e0e0" stroke="#999999" points="49,-27.12 0,-27.12 0,-6.38 49,-6.38 49,-27.12"/>
<text text-anchor="middle" x="24.5" y="-13.62" font-family="Helvetica,sans-Serif" font-size="10.00">chrono</text>
</a>
</g>
</g>
<!-- Node1&#45;&gt;Node2 -->
<g id="edge1_Node000001_Node000002" class="edge">
<title>Node1&#45;&gt;Node2</title>
<g id="a_edge1_Node000001_Node000002"><a xlink:title=" ">
<path fill="none" stroke="#63b8ff" d="M443.25,-89.39C354.18,-84.98 191.62,-71.92 58.5,-33.5 56.7,-32.98 54.87,-32.38 53.04,-31.71"/>
<polygon fill="#63b8ff" stroke="#63b8ff" points="54.79,-28.65 44.21,-28.05 52.11,-35.12 54.79,-28.65"/>
</a>
</g>
</g>
<!-- Node3 -->
<g id="Node000003" class="node">
<title>Node3</title>
<g id="a_Node000003"><a xlink:title=" ">
<polygon fill="#e0e0e0" stroke="#999999" points="113.5,-27.12 67.5,-27.12 67.5,-6.38 113.5,-6.38 113.5,-27.12"/>
<text text-anchor="middle" x="90.5" y="-13.62" font-family="Helvetica,sans-Serif" font-size="10.00">deque</text>
</a>
</g>
</g>
<!-- Node1&#45;&gt;Node3 -->
<g id="edge2_Node000001_Node000003" class="edge">
<title>Node1&#45;&gt;Node3</title>
<g id="a_edge2_Node000001_Node000003"><a xlink:title=" ">
<path fill="none" stroke="#63b8ff" d="M443.06,-87.88C364.85,-82.05 231.76,-67.68 122.5,-33.5 121.14,-33.07 119.76,-32.6 118.38,-32.08"/>
<polygon fill="#63b8ff" stroke="#63b8ff" points="119.99,-28.96 109.43,-28.19 117.2,-35.38 119.99,-28.96"/>
</a>
</g>
</g>
<!-- Node4 -->
<g id="Node000004" class="node">
<title>Node4</title>
<g id="a_Node000004"><a xlink:title=" ">
<polygon fill="#e0e0e0" stroke="#999999" points="195.5,-27.12 131.5,-27.12 131.5,-6.38 195.5,-6.38 195.5,-27.12"/>
<text text-anchor="middle" x="163.5" y="-13.62" font-family="Helvetica,sans-Serif" font-size="10.00">stdexcept</text>
</a>
</g>
</g>
<!-- Node1&#45;&gt;Node4 -->
<g id="edge3_Node000001_Node000004" class="edge">
<title>Node1&#45;&gt;Node4</title>
<g id="a_edge3_Node000001_Node000004"><a xlink:title=" ">
<path fill="none" stroke="#63b8ff" d="M442.96,-82.45C380.63,-73.03 285.24,-56.5 204.5,-33.5 202.12,-32.82 199.68,-32.06 197.24,-31.25"/>
<polygon fill="#63b8ff" stroke="#63b8ff" points="198.69,-28.05 188.1,-27.99 196.34,-34.65 198.69,-28.05"/>
</a>
</g>
</g>
<!-- Node5 -->
<g id="Node000005" class="node">
<title>Node5</title>
<g id="a_Node000005"><a xlink:title=" ">
<polygon fill="#e0e0e0" stroke="#999999" points="259.88,-27.12 213.12,-27.12 213.12,-6.38 259.88,-6.38 259.88,-27.12"/>
<text text-anchor="middle" x="236.5" y="-13.62" font-family="Helvetica,sans-Serif" font-size="10.00">vector</text>
</a>
</g>
</g>
<!-- Node1&#45;&gt;Node5 -->
<g id="edge4_Node000001_Node000005" class="edge">
<title>Node1&#45;&gt;Node5</title>
<g id="a_edge4_Node000001_Node000005"><a xlink:title=" ">
<path fill="none" stroke="#63b8ff" d="M442.88,-79.68C393.84,-69.9 325.97,-54.29 268.5,-33.5 267.36,-33.09 266.22,-32.65 265.06,-32.19"/>
<polygon fill="#63b8ff" stroke="#63b8ff" points="266.75,-29.11 256.19,-28.24 263.9,-35.5 266.75,-29.11"/>
</a>
</g>
</g>
<!-- Node6 -->
<g id="Node000006" class="node">
<title>Node6</title>
<g id="a_Node000006"><a xlink:title=" ">
<polygon fill="#e0e0e0" stroke="#999999" points="375,-27.12 278,-27.12 278,-6.38 375,-6.38 375,-27.12"/>
<text text-anchor="middle" x="326.5" y="-13.62" font-family="Helvetica,sans-Serif" font-size="10.00">boost/assert.hpp</text>
</a>
</g>
</g>
<!-- Node1&#45;&gt;Node6 -->
<g id="edge5_Node000001_Node000006" class="edge">
<title>Node1&#45;&gt;Node6</title>
<g id="a_edge5_Node000001_Node000006"><a xlink:title=" ">
<path fill="none" stroke="#63b8ff" d="M453.6,-69.06C423.43,-56.88 387.15,-42.23 361.09,-31.71"/>
<polygon fill="#63b8ff" stroke="#63b8ff" points="362.58,-28.54 351.99,-28.04 359.95,-35.03 362.58,-28.54"/>
</a>
</g>
</g>
<!-- Node7 -->
<g id="Node000007" class="node">
<title>Node7</title>
<g id="a_Node000007"><a xlink:title=" ">
<polygon fill="#e0e0e0" stroke="#999999" points="514.38,-27.12 392.62,-27.12 392.62,-6.38 514.38,-6.38 514.38,-27.12"/>
<text text-anchor="middle" x="453.5" y="-13.62" font-family="Helvetica,sans-Serif" font-size="10.00">boost/timer/timer.hpp</text>
</a>
</g>
</g>
<!-- Node1&#45;&gt;Node7 -->
<g id="edge6_Node000001_Node000007" class="edge">
<title>Node1&#45;&gt;Node7</title>
<g id="a_edge6_Node000001_Node000007"><a xlink:title=" ">
<path fill="none" stroke="#63b8ff" d="M492.39,-69.06C484.48,-58.62 475.19,-46.37 467.68,-36.45"/>
<polygon fill="#63b8ff" stroke="#63b8ff" points="470.62,-34.54 461.79,-28.68 465.04,-38.76 470.62,-34.54"/>
</a>
</g>
</g>
<!-- Node8 -->
<g id="Node000008" class="node">
<title>Node8</title>
<g id="a_Node000008"><a xlink:title=" ">
<polygon fill="#e0e0e0" stroke="#999999" points="600.75,-27.12 532.25,-27.12 532.25,-6.38 600.75,-6.38 600.75,-27.12"/>
<text text-anchor="middle" x="566.5" y="-13.62" font-family="Helvetica,sans-Serif" font-size="10.00">Eigen/Core</text>
</a>
</g>
</g>
<!-- Node1&#45;&gt;Node8 -->
<g id="edge7_Node000001_Node000008" class="edge">
<title>Node1&#45;&gt;Node8</title>
<g id="a_edge7_Node000001_Node000008"><a xlink:title=" ">
<path fill="none" stroke="#63b8ff" d="M526.91,-69.06C534.97,-58.62 544.42,-46.37 552.07,-36.45"/>
<polygon fill="#63b8ff" stroke="#63b8ff" points="554.73,-38.73 558.07,-28.67 549.19,-34.45 554.73,-38.73"/>
</a>
</g>
</g>
<!-- Node9 -->
<g id="Node000009" class="node">
<title>Node9</title>
<g id="a_Node000009"><a xlink:title=" ">
<polygon fill="#e0e0e0" stroke="#999999" points="713.88,-27.12 619.12,-27.12 619.12,-6.38 713.88,-6.38 713.88,-27.12"/>
<text text-anchor="middle" x="666.5" y="-13.62" font-family="Helvetica,sans-Serif" font-size="10.00">Eigen/Geometry</text>
</a>
</g>
</g>
<!-- Node1&#45;&gt;Node9 -->
<g id="edge8_Node000001_Node000009" class="edge">
<title>Node1&#45;&gt;Node9</title>
<g id="a_edge8_Node000001_Node000009"><a xlink:title=" ">
<path fill="none" stroke="#63b8ff" d="M557.46,-69.06C582.88,-57.1 613.36,-42.76 635.62,-32.28"/>
<polygon fill="#63b8ff" stroke="#63b8ff" points="636.91,-35.54 644.46,-28.12 633.93,-29.21 636.91,-35.54"/>
</a>
</g>
</g>
<!-- Node10 -->
<g id="Node000010" class="node">
<title>Node10</title>
<g id="a_Node000010"><a xlink:title=" ">
<polygon fill="#e0e0e0" stroke="#999999" points="853.38,-33.5 731.62,-33.5 731.62,0 853.38,0 853.38,-33.5"/>
<text text-anchor="start" x="739.62" y="-20" font-family="Helvetica,sans-Serif" font-size="10.00">boost/math/constants</text>
<text text-anchor="middle" x="792.5" y="-7.25" font-family="Helvetica,sans-Serif" font-size="10.00">/constants.hpp</text>
</a>
</g>
</g>
<!-- Node1&#45;&gt;Node10 -->
<g id="edge9_Node000001_Node000010" class="edge">
<title>Node1&#45;&gt;Node10</title>
<g id="a_edge9_Node000001_Node000010"><a xlink:title=" ">
<path fill="none" stroke="#63b8ff" d="M575.85,-74.3C619.23,-62.98 675.87,-48.19 720.36,-36.58"/>
<polygon fill="#63b8ff" stroke="#63b8ff" points="721.14,-39.99 729.93,-34.08 719.37,-33.22 721.14,-39.99"/>
</a>
</g>
</g>
<!-- Node11 -->
<g id="Node000011" class="node">
<title>Node11</title>
<g id="a_Node000011"><a xlink:title=" ">
<polygon fill="#e0e0e0" stroke="#999999" points="1001.12,-27.12 871.88,-27.12 871.88,-6.38 1001.12,-6.38 1001.12,-27.12"/>
<text text-anchor="middle" x="936.5" y="-13.62" font-family="Helvetica,sans-Serif" font-size="10.00">state&#45;observation/api.h</text>
</a>
</g>
</g>
<!-- Node1&#45;&gt;Node11 -->
<g id="edge10_Node000001_Node000011" class="edge">
<title>Node1&#45;&gt;Node11</title>
<g id="a_edge10_Node000001_Node000011"><a xlink:title=" ">
<path fill="none" stroke="#63b8ff" d="M576.02,-81.62C647.11,-70.7 763.02,-52.27 862.5,-33.5 868.47,-32.37 874.7,-31.14 880.9,-29.88"/>
<polygon fill="#63b8ff" stroke="#63b8ff" points="881.4,-33.35 890.48,-27.89 879.97,-26.49 881.4,-33.35"/>
</a>
</g>
</g>
<!-- Node12 -->
<g id="Node000012" class="node">
<title>Node12</title>
<g id="a_Node000012"><a xlink:title=" ">
<polygon fill="#e0e0e0" stroke="#999999" points="1073.62,-27.12 1019.38,-27.12 1019.38,-6.38 1073.62,-6.38 1073.62,-27.12"/>
<text text-anchor="middle" x="1046.5" y="-13.62" font-family="Helvetica,sans-Serif" font-size="10.00">fstream</text>
</a>
</g>
</g>
<!-- Node1&#45;&gt;Node12 -->
<g id="edge11_Node000001_Node000012" class="edge">
<title>Node1&#45;&gt;Node12</title>
<g id="a_edge11_Node000001_Node000012"><a xlink:title=" ">
<path fill="none" stroke="#63b8ff" d="M575.92,-90.16C672.99,-86.62 858.56,-74.56 1010.5,-33.5 1012.49,-32.96 1014.51,-32.33 1016.52,-31.64"/>
<polygon fill="#63b8ff" stroke="#63b8ff" points="1017.64,-34.96 1025.67,-28.05 1015.08,-28.45 1017.64,-34.96"/>
</a>
</g>
</g>
<!-- Node13 -->
<g id="Node000013" class="node">
<title>Node13</title>
<g id="a_Node000013"><a xlink:title=" ">
<polygon fill="#e0e0e0" stroke="#999999" points="1221.12,-33.5 1091.88,-33.5 1091.88,0 1221.12,0 1221.12,-33.5"/>
<text text-anchor="start" x="1099.88" y="-20" font-family="Helvetica,sans-Serif" font-size="10.00">state&#45;observation/tools</text>
<text text-anchor="middle" x="1156.5" y="-7.25" font-family="Helvetica,sans-Serif" font-size="10.00">/definitions.hxx</text>
</a>
</g>
</g>
<!-- Node1&#45;&gt;Node13 -->
<g id="edge12_Node000001_Node000013" class="edge">
<title>Node1&#45;&gt;Node13</title>
<g id="a_edge12_Node000001_Node000013"><a xlink:title=" ">
<path fill="none" stroke="#63b8ff" d="M575.97,-87.24C680.98,-79.79 891.8,-62.74 1080.36,-33.73"/>
<polygon fill="#63b8ff" stroke="#63b8ff" points="1080.76,-37.21 1090.11,-32.21 1079.69,-30.29 1080.76,-37.21"/>
</a>
</g>
</g>
</g>
</svg>
