<?xml version="1.0" encoding="UTF-8" standalone="no"?>
<!DOCTYPE svg PUBLIC "-//W3C//DTD SVG 1.1//EN"
 "http://www.w3.org/Graphics/SVG/1.1/DTD/svg11.dtd">
<!-- Generated by graphviz version 12.2.1 (0)
 -->
<!-- Title: /build/source/include/state&#45;observation Pages: 1 -->
<svg width="456pt" height="325pt"
 viewBox="0.00 0.00 456.00 324.50" xmlns="http://www.w3.org/2000/svg" xmlns:xlink="http://www.w3.org/1999/xlink">
<g id="graph0" class="graph" transform="scale(1 1) rotate(0) translate(4 320.5)">
<title>/build/source/include/state&#45;observation</title>
<g id="clust1" class="cluster">
<title>clusterdir_d44c64559bbebec7f509842c48db8b23</title>
<g id="a_clust1"><a xlink:href="dir_d44c64559bbebec7f509842c48db8b23.html" target="_top" xlink:title="include">
<polygon fill="#edf0f7" stroke="#404040" stroke-dasharray="5,2" points="8,-8 8,-308.5 440,-308.5 440,-8 8,-8"/>
<text text-anchor="middle" x="224" y="-295" font-family="Helvetica,sans-Serif" font-size="10.00">include</text>
</a>
</g>
</g>
<g id="clust2" class="cluster">
<title>clusterdir_83a5adf5943f4a4b3f547bb1caea8ebc</title>
<g id="a_clust2"><a xlink:href="dir_83a5adf5943f4a4b3f547bb1caea8ebc.html" target="_top">
<polygon fill="#edf0f7" stroke="#404040" stroke-width="2" points="16,-16 16,-279.75 432,-279.75 432,-16 16,-16"/>
</a>
</g>
</g>
<!-- dir_83a5adf5943f4a4b3f547bb1caea8ebc -->
<g id="node1" class="node">
<title>dir_83a5adf5943f4a4b3f547bb1caea8ebc</title>
<text text-anchor="middle" x="163" y="-258.25" font-family="Helvetica,sans-Serif" font-size="10.00">state&#45;observation</text>
</g>
<!-- dir_1590af73df7e3bdf8b13ca2f501650d1 -->
<g id="node2" class="node">
<title>dir_1590af73df7e3bdf8b13ca2f501650d1</title>
<g id="a_node2"><a xlink:href="dir_1590af73df7e3bdf8b13ca2f501650d1.html" target="_top" xlink:title="dynamical&#45;system">
<polygon fill="#a2b4d6" stroke="#404040" points="404.38,-215 297.62,-215 297.62,-194.25 404.38,-194.25 404.38,-215"/>
<text text-anchor="middle" x="351" y="-201.5" font-family="Helvetica,sans-Serif" font-size="10.00">dynamical&#45;system</text>
</a>
</g>
</g>
<!-- dir_6fbd0b0e2cb21ce00ddd2cc4e06b3785 -->
<g id="node6" class="node">
<title>dir_6fbd0b0e2cb21ce00ddd2cc4e06b3785</title>
<g id="a_node6"><a xlink:href="dir_6fbd0b0e2cb21ce00ddd2cc4e06b3785.html" target="_top" xlink:title="noise">
<polygon fill="#a2b4d6" stroke="#404040" points="284.12,-101.5 241.88,-101.5 241.88,-80.75 284.12,-80.75 284.12,-101.5"/>
<text text-anchor="middle" x="263" y="-88" font-family="Helvetica,sans-Serif" font-size="10.00">noise</text>
</a>
</g>
</g>
<!-- dir_1590af73df7e3bdf8b13ca2f501650d1&#45;&gt;dir_6fbd0b0e2cb21ce00ddd2cc4e06b3785 -->
<g id="edge3" class="edge">
<title>dir_1590af73df7e3bdf8b13ca2f501650d1&#45;&gt;dir_6fbd0b0e2cb21ce00ddd2cc4e06b3785</title>
<g id="a_edge3"><a xlink:href="dir_000001_000006.html" target="_top">
<path fill="none" stroke="#63b8ff" d="M343.5,-194.12C328.96,-175.7 296.71,-134.84 277.74,-110.8"/>
<polygon fill="#63b8ff" stroke="#63b8ff" points="280.62,-108.79 271.67,-103.11 275.12,-113.13 280.62,-108.79"/>
</a>
</g>
<g id="a_edge3&#45;headlabel"><a xlink:href="dir_000001_000006.html" target="_top" xlink:title="4">
<text text-anchor="middle" x="284.13" y="-105.54" font-family="Helvetica,sans-Serif" font-size="10.00" fill="#63b8ff">4</text>
</a>
</g>
</g>
<!-- dir_2561071a805c5ec499f97a9e3197d13a -->
<g id="node8" class="node">
<title>dir_2561071a805c5ec499f97a9e3197d13a</title>
<g id="a_node8"><a xlink:href="dir_2561071a805c5ec499f97a9e3197d13a.html" target="_top" xlink:title="sensors&#45;simulation">
<polygon fill="#a2b4d6" stroke="#404040" points="252.5,-158.25 143.5,-158.25 143.5,-137.5 252.5,-137.5 252.5,-158.25"/>
<text text-anchor="middle" x="198" y="-144.75" font-family="Helvetica,sans-Serif" font-size="10.00">sensors&#45;simulation</text>
</a>
</g>
</g>
<!-- dir_1590af73df7e3bdf8b13ca2f501650d1&#45;&gt;dir_2561071a805c5ec499f97a9e3197d13a -->
<g id="edge2" class="edge">
<title>dir_1590af73df7e3bdf8b13ca2f501650d1&#45;&gt;dir_2561071a805c5ec499f97a9e3197d13a</title>
<g id="a_edge2"><a xlink:href="dir_000001_000009.html" target="_top">
<path fill="none" stroke="#63b8ff" d="M323.65,-193.84C299.25,-185.11 263.28,-172.23 236.07,-162.5"/>
<polygon fill="#63b8ff" stroke="#63b8ff" points="237.39,-159.25 226.8,-159.18 235.04,-165.85 237.39,-159.25"/>
</a>
</g>
<g id="a_edge2&#45;headlabel"><a xlink:href="dir_000001_000009.html" target="_top" xlink:title="3">
<text text-anchor="middle" x="240.31" y="-154.16" font-family="Helvetica,sans-Serif" font-size="10.00" fill="#63b8ff">3</text>
</a>
</g>
</g>
<!-- dir_10173d511f8d64922babfe9876d221d4 -->
<g id="node9" class="node">
<title>dir_10173d511f8d64922babfe9876d221d4</title>
<g id="a_node9"><a xlink:href="dir_10173d511f8d64922babfe9876d221d4.html" target="_top" xlink:title="tools">
<polygon fill="#a2b4d6" stroke="#404040" points="283,-44.75 243,-44.75 243,-24 283,-24 283,-44.75"/>
<text text-anchor="middle" x="263" y="-31.25" font-family="Helvetica,sans-Serif" font-size="10.00">tools</text>
</a>
</g>
</g>
<!-- dir_1590af73df7e3bdf8b13ca2f501650d1&#45;&gt;dir_10173d511f8d64922babfe9876d221d4 -->
<g id="edge1" class="edge">
<title>dir_1590af73df7e3bdf8b13ca2f501650d1&#45;&gt;dir_10173d511f8d64922babfe9876d221d4</title>
<g id="a_edge1"><a xlink:href="dir_000001_000011.html" target="_top">
<path fill="none" stroke="#63b8ff" d="M347.91,-193.96C340.9,-172.65 322.52,-120.39 299,-80.75 293.45,-71.4 286.18,-61.86 279.62,-53.96"/>
<polygon fill="#63b8ff" stroke="#63b8ff" points="282.29,-51.7 273.12,-46.4 276.98,-56.26 282.29,-51.7"/>
</a>
</g>
<g id="a_edge1&#45;headlabel"><a xlink:href="dir_000001_000011.html" target="_top" xlink:title="4">
<text text-anchor="middle" x="285.8" y="-48.31" font-family="Helvetica,sans-Serif" font-size="10.00" fill="#63b8ff">4</text>
</a>
</g>
</g>
<!-- dir_cda5fc5be0e10eb55ab46f5ba25ddf36 -->
<g id="node3" class="node">
<title>dir_cda5fc5be0e10eb55ab46f5ba25ddf36</title>
<g id="a_node3"><a xlink:href="dir_cda5fc5be0e10eb55ab46f5ba25ddf36.html" target="_top" xlink:title="dynamics&#45;estimators">
<polygon fill="#a2b4d6" stroke="#404040" points="143.75,-215 24.25,-215 24.25,-194.25 143.75,-194.25 143.75,-215"/>
<text text-anchor="middle" x="84" y="-201.5" font-family="Helvetica,sans-Serif" font-size="10.00">dynamics&#45;estimators</text>
</a>
</g>
</g>
<!-- dir_cda5fc5be0e10eb55ab46f5ba25ddf36&#45;&gt;dir_6fbd0b0e2cb21ce00ddd2cc4e06b3785 -->
<g id="edge6" class="edge">
<title>dir_cda5fc5be0e10eb55ab46f5ba25ddf36&#45;&gt;dir_6fbd0b0e2cb21ce00ddd2cc4e06b3785</title>
<g id="a_edge6"><a xlink:href="dir_000002_000006.html" target="_top">
<path fill="none" stroke="#63b8ff" d="M91.23,-193.96C104.62,-176.09 132.17,-139.55 135,-137.5 163.9,-116.55 203.37,-104.51 230.82,-98.17"/>
<polygon fill="#63b8ff" stroke="#63b8ff" points="231.26,-101.65 240.29,-96.11 229.78,-94.81 231.26,-101.65"/>
</a>
</g>
<g id="a_edge6&#45;headlabel"><a xlink:href="dir_000002_000006.html" target="_top" xlink:title="1">
<text text-anchor="middle" x="229.83" y="-101.75" font-family="Helvetica,sans-Serif" font-size="10.00" fill="#63b8ff">1</text>
</a>
</g>
</g>
<!-- dir_c4c28657b08aec13789223b1c69a0431 -->
<g id="node7" class="node">
<title>dir_c4c28657b08aec13789223b1c69a0431</title>
<g id="a_node7"><a xlink:href="dir_c4c28657b08aec13789223b1c69a0431.html" target="_top" xlink:title="observer">
<polygon fill="#a2b4d6" stroke="#404040" points="178.38,-101.5 119.62,-101.5 119.62,-80.75 178.38,-80.75 178.38,-101.5"/>
<text text-anchor="middle" x="149" y="-88" font-family="Helvetica,sans-Serif" font-size="10.00">observer</text>
</a>
</g>
</g>
<!-- dir_cda5fc5be0e10eb55ab46f5ba25ddf36&#45;&gt;dir_c4c28657b08aec13789223b1c69a0431 -->
<g id="edge7" class="edge">
<title>dir_cda5fc5be0e10eb55ab46f5ba25ddf36&#45;&gt;dir_c4c28657b08aec13789223b1c69a0431</title>
<g id="a_edge7"><a xlink:href="dir_000002_000007.html" target="_top">
<path fill="none" stroke="#63b8ff" d="M88.7,-194.05C95.17,-181.04 107.33,-157.16 119,-137.5 124.23,-128.69 130.41,-119.2 135.8,-111.19"/>
<polygon fill="#63b8ff" stroke="#63b8ff" points="138.69,-113.17 141.43,-102.94 132.9,-109.22 138.69,-113.17"/>
</a>
</g>
<g id="a_edge7&#45;headlabel"><a xlink:href="dir_000002_000007.html" target="_top" xlink:title="3">
<text text-anchor="middle" x="139.86" y="-113.36" font-family="Helvetica,sans-Serif" font-size="10.00" fill="#63b8ff">3</text>
</a>
</g>
</g>
<!-- dir_cda5fc5be0e10eb55ab46f5ba25ddf36&#45;&gt;dir_2561071a805c5ec499f97a9e3197d13a -->
<g id="edge5" class="edge">
<title>dir_cda5fc5be0e10eb55ab46f5ba25ddf36&#45;&gt;dir_2561071a805c5ec499f97a9e3197d13a</title>
<g id="a_edge5"><a xlink:href="dir_000002_000009.html" target="_top">
<path fill="none" stroke="#63b8ff" d="M104.38,-193.84C121.97,-185.39 147.63,-173.07 167.63,-163.46"/>
<polygon fill="#63b8ff" stroke="#63b8ff" points="168.93,-166.72 176.43,-159.23 165.9,-160.41 168.93,-166.72"/>
</a>
</g>
<g id="a_edge5&#45;headlabel"><a xlink:href="dir_000002_000009.html" target="_top" xlink:title="1">
<text text-anchor="middle" x="168.29" y="-167.05" font-family="Helvetica,sans-Serif" font-size="10.00" fill="#63b8ff">1</text>
</a>
</g>
</g>
<!-- dir_cda5fc5be0e10eb55ab46f5ba25ddf36&#45;&gt;dir_10173d511f8d64922babfe9876d221d4 -->
<g id="edge4" class="edge">
<title>dir_cda5fc5be0e10eb55ab46f5ba25ddf36&#45;&gt;dir_10173d511f8d64922babfe9876d221d4</title>
<g id="a_edge4"><a xlink:href="dir_000002_000011.html" target="_top">
<path fill="none" stroke="#63b8ff" d="M83.09,-193.84C81.52,-170.89 80.97,-113.08 111,-80.75 142.1,-47.27 196.74,-38.13 231.34,-35.84"/>
<polygon fill="#63b8ff" stroke="#63b8ff" points="231.35,-39.34 241.16,-35.36 231.01,-32.35 231.35,-39.34"/>
</a>
</g>
<g id="a_edge4&#45;headlabel"><a xlink:href="dir_000002_000011.html" target="_top" xlink:title="7">
<text text-anchor="middle" x="229.41" y="-39.16" font-family="Helvetica,sans-Serif" font-size="10.00" fill="#63b8ff">7</text>
</a>
</g>
</g>
<!-- dir_f0f17f841abfc01a14216cd450994e91 -->
<g id="node4" class="node">
<title>dir_f0f17f841abfc01a14216cd450994e91</title>
<g id="a_node4"><a xlink:href="dir_f0f17f841abfc01a14216cd450994e91.html" target="_top" xlink:title="examples">
<polygon fill="#a2b4d6" stroke="#404040" points="383,-271.75 319,-271.75 319,-251 383,-251 383,-271.75"/>
<text text-anchor="middle" x="351" y="-258.25" font-family="Helvetica,sans-Serif" font-size="10.00">examples</text>
</a>
</g>
</g>
<!-- dir_f0f17f841abfc01a14216cd450994e91&#45;&gt;dir_1590af73df7e3bdf8b13ca2f501650d1 -->
<g id="edge9" class="edge">
<title>dir_f0f17f841abfc01a14216cd450994e91&#45;&gt;dir_1590af73df7e3bdf8b13ca2f501650d1</title>
<g id="a_edge9"><a xlink:href="dir_000003_000001.html" target="_top">
<path fill="none" stroke="#63b8ff" d="M351,-250.59C351,-243.97 351,-234.97 351,-226.77"/>
<polygon fill="#63b8ff" stroke="#63b8ff" points="354.5,-226.84 351,-216.84 347.5,-226.84 354.5,-226.84"/>
</a>
</g>
<g id="a_edge9&#45;headlabel"><a xlink:href="dir_000003_000001.html" target="_top" xlink:title="3">
<text text-anchor="middle" x="357.34" y="-225.8" font-family="Helvetica,sans-Serif" font-size="10.00" fill="#63b8ff">3</text>
</a>
</g>
</g>
<!-- dir_af263ed31e7d5e1974340c16f9c2f8e6 -->
<g id="node5" class="node">
<title>dir_af263ed31e7d5e1974340c16f9c2f8e6</title>
<g id="a_node5"><a xlink:href="dir_af263ed31e7d5e1974340c16f9c2f8e6.html" target="_top" xlink:title="flexibility&#45;estimation">
<polygon fill="#a2b4d6" stroke="#404040" points="280,-215 162,-215 162,-194.25 280,-194.25 280,-215"/>
<text text-anchor="middle" x="221" y="-201.5" font-family="Helvetica,sans-Serif" font-size="10.00">flexibility&#45;estimation</text>
</a>
</g>
</g>
<!-- dir_f0f17f841abfc01a14216cd450994e91&#45;&gt;dir_af263ed31e7d5e1974340c16f9c2f8e6 -->
<g id="edge10" class="edge">
<title>dir_f0f17f841abfc01a14216cd450994e91&#45;&gt;dir_af263ed31e7d5e1974340c16f9c2f8e6</title>
<g id="a_edge10"><a xlink:href="dir_000003_000004.html" target="_top">
<path fill="none" stroke="#63b8ff" d="M327.76,-250.59C307.33,-241.98 277.36,-229.36 254.37,-219.68"/>
<polygon fill="#63b8ff" stroke="#63b8ff" points="256.01,-216.57 245.44,-215.92 253.29,-223.02 256.01,-216.57"/>
</a>
</g>
<g id="a_edge10&#45;headlabel"><a xlink:href="dir_000003_000004.html" target="_top" xlink:title="2">
<text text-anchor="middle" x="259.03" y="-211.64" font-family="Helvetica,sans-Serif" font-size="10.00" fill="#63b8ff">2</text>
</a>
</g>
</g>
<!-- dir_f0f17f841abfc01a14216cd450994e91&#45;&gt;dir_10173d511f8d64922babfe9876d221d4 -->
<g id="edge8" class="edge">
<title>dir_f0f17f841abfc01a14216cd450994e91&#45;&gt;dir_10173d511f8d64922babfe9876d221d4</title>
<g id="a_edge8"><a xlink:href="dir_000003_000011.html" target="_top">
<path fill="none" stroke="#63b8ff" d="M373.38,-250.64C387.56,-243.15 404.73,-231.3 413,-215 417.17,-206.78 416.32,-202.85 413,-194.25 388.15,-129.88 322.88,-76.77 287.18,-51.42"/>
<polygon fill="#63b8ff" stroke="#63b8ff" points="289.41,-48.71 279.2,-45.89 285.42,-54.46 289.41,-48.71"/>
</a>
</g>
<g id="a_edge8&#45;headlabel"><a xlink:href="dir_000003_000011.html" target="_top" xlink:title="2">
<text text-anchor="middle" x="292.74" y="-44.44" font-family="Helvetica,sans-Serif" font-size="10.00" fill="#63b8ff">2</text>
</a>
</g>
</g>
<!-- dir_af263ed31e7d5e1974340c16f9c2f8e6&#45;&gt;dir_6fbd0b0e2cb21ce00ddd2cc4e06b3785 -->
<g id="edge13" class="edge">
<title>dir_af263ed31e7d5e1974340c16f9c2f8e6&#45;&gt;dir_6fbd0b0e2cb21ce00ddd2cc4e06b3785</title>
<g id="a_edge13"><a xlink:href="dir_000004_000006.html" target="_top">
<path fill="none" stroke="#63b8ff" d="M233.66,-194.02C243.44,-185.75 256.25,-172.87 262,-158.25 267.61,-144 267.64,-126.65 266.39,-113.3"/>
<polygon fill="#63b8ff" stroke="#63b8ff" points="269.87,-112.93 265.13,-103.45 262.93,-113.82 269.87,-112.93"/>
</a>
</g>
<g id="a_edge13&#45;headlabel"><a xlink:href="dir_000004_000006.html" target="_top" xlink:title="3">
<text text-anchor="middle" x="272.95" y="-111.51" font-family="Helvetica,sans-Serif" font-size="10.00" fill="#63b8ff">3</text>
</a>
</g>
</g>
<!-- dir_af263ed31e7d5e1974340c16f9c2f8e6&#45;&gt;dir_2561071a805c5ec499f97a9e3197d13a -->
<g id="edge12" class="edge">
<title>dir_af263ed31e7d5e1974340c16f9c2f8e6&#45;&gt;dir_2561071a805c5ec499f97a9e3197d13a</title>
<g id="a_edge12"><a xlink:href="dir_000004_000009.html" target="_top">
<path fill="none" stroke="#63b8ff" d="M216.89,-193.84C214.01,-186.99 210.06,-177.59 206.52,-169.15"/>
<polygon fill="#63b8ff" stroke="#63b8ff" points="209.76,-167.84 202.66,-159.97 203.31,-170.55 209.76,-167.84"/>
</a>
</g>
<g id="a_edge12&#45;headlabel"><a xlink:href="dir_000004_000009.html" target="_top" xlink:title="3">
<text text-anchor="middle" x="213.19" y="-165.53" font-family="Helvetica,sans-Serif" font-size="10.00" fill="#63b8ff">3</text>
</a>
</g>
</g>
<!-- dir_af263ed31e7d5e1974340c16f9c2f8e6&#45;&gt;dir_10173d511f8d64922babfe9876d221d4 -->
<g id="edge11" class="edge">
<title>dir_af263ed31e7d5e1974340c16f9c2f8e6&#45;&gt;dir_10173d511f8d64922babfe9876d221d4</title>
<g id="a_edge11"><a xlink:href="dir_000004_000011.html" target="_top">
<path fill="none" stroke="#63b8ff" d="M233.83,-194C244.4,-185.53 259.19,-172.38 269,-158.25 284.62,-135.75 287.56,-128.34 293,-101.5 294.83,-92.46 295.66,-89.58 293,-80.75 290.09,-71.08 284.39,-61.58 278.72,-53.79"/>
<polygon fill="#63b8ff" stroke="#63b8ff" points="281.65,-51.85 272.72,-46.14 276.14,-56.17 281.65,-51.85"/>
</a>
</g>
<g id="a_edge11&#45;headlabel"><a xlink:href="dir_000004_000011.html" target="_top" xlink:title="5">
<text text-anchor="middle" x="285.16" y="-48.61" font-family="Helvetica,sans-Serif" font-size="10.00" fill="#63b8ff">5</text>
</a>
</g>
</g>
<!-- dir_6fbd0b0e2cb21ce00ddd2cc4e06b3785&#45;&gt;dir_10173d511f8d64922babfe9876d221d4 -->
<g id="edge14" class="edge">
<title>dir_6fbd0b0e2cb21ce00ddd2cc4e06b3785&#45;&gt;dir_10173d511f8d64922babfe9876d221d4</title>
<g id="a_edge14"><a xlink:href="dir_000006_000011.html" target="_top">
<path fill="none" stroke="#63b8ff" d="M263,-80.34C263,-73.72 263,-64.72 263,-56.52"/>
<polygon fill="#63b8ff" stroke="#63b8ff" points="266.5,-56.59 263,-46.59 259.5,-56.59 266.5,-56.59"/>
</a>
</g>
<g id="a_edge14&#45;headlabel"><a xlink:href="dir_000006_000011.html" target="_top" xlink:title="1">
<text text-anchor="middle" x="269.34" y="-55.55" font-family="Helvetica,sans-Serif" font-size="10.00" fill="#63b8ff">1</text>
</a>
</g>
</g>
<!-- dir_c4c28657b08aec13789223b1c69a0431&#45;&gt;dir_10173d511f8d64922babfe9876d221d4 -->
<g id="edge15" class="edge">
<title>dir_c4c28657b08aec13789223b1c69a0431&#45;&gt;dir_10173d511f8d64922babfe9876d221d4</title>
<g id="a_edge15"><a xlink:href="dir_000007_000011.html" target="_top">
<path fill="none" stroke="#63b8ff" d="M169.38,-80.34C186.97,-71.89 212.63,-59.57 232.63,-49.96"/>
<polygon fill="#63b8ff" stroke="#63b8ff" points="233.93,-53.22 241.43,-45.73 230.9,-46.91 233.93,-53.22"/>
</a>
</g>
<g id="a_edge15&#45;headlabel"><a xlink:href="dir_000007_000011.html" target="_top" xlink:title="1">
<text text-anchor="middle" x="233.29" y="-53.55" font-family="Helvetica,sans-Serif" font-size="10.00" fill="#63b8ff">1</text>
</a>
</g>
</g>
<!-- dir_2561071a805c5ec499f97a9e3197d13a&#45;&gt;dir_6fbd0b0e2cb21ce00ddd2cc4e06b3785 -->
<g id="edge17" class="edge">
<title>dir_2561071a805c5ec499f97a9e3197d13a&#45;&gt;dir_6fbd0b0e2cb21ce00ddd2cc4e06b3785</title>
<g id="a_edge17"><a xlink:href="dir_000009_000006.html" target="_top">
<path fill="none" stroke="#63b8ff" d="M209.62,-137.09C218.86,-129.3 232.01,-118.22 242.95,-109.01"/>
<polygon fill="#63b8ff" stroke="#63b8ff" points="244.93,-111.92 250.32,-102.8 240.42,-106.57 244.93,-111.92"/>
</a>
</g>
<g id="a_edge17&#45;headlabel"><a xlink:href="dir_000009_000006.html" target="_top" xlink:title="1">
<text text-anchor="middle" x="245.17" y="-112.31" font-family="Helvetica,sans-Serif" font-size="10.00" fill="#63b8ff">1</text>
</a>
</g>
</g>
<!-- dir_2561071a805c5ec499f97a9e3197d13a&#45;&gt;dir_10173d511f8d64922babfe9876d221d4 -->
<g id="edge16" class="edge">
<title>dir_2561071a805c5ec499f97a9e3197d13a&#45;&gt;dir_10173d511f8d64922babfe9876d221d4</title>
<g id="a_edge16"><a xlink:href="dir_000009_000011.html" target="_top">
<path fill="none" stroke="#63b8ff" d="M202.7,-137.3C209.17,-124.29 221.33,-100.41 233,-80.75 238.23,-71.94 244.41,-62.45 249.8,-54.44"/>
<polygon fill="#63b8ff" stroke="#63b8ff" points="252.69,-56.42 255.43,-46.19 246.9,-52.47 252.69,-56.42"/>
</a>
</g>
<g id="a_edge16&#45;headlabel"><a xlink:href="dir_000009_000011.html" target="_top" xlink:title="3">
<text text-anchor="middle" x="253.86" y="-56.61" font-family="Helvetica,sans-Serif" font-size="10.00" fill="#63b8ff">3</text>
</a>
</g>
</g>
</g>
</svg>
