<?xml version="1.0" encoding="UTF-8" standalone="no"?>
<!DOCTYPE svg PUBLIC "-//W3C//DTD SVG 1.1//EN"
 "http://www.w3.org/Graphics/SVG/1.1/DTD/svg11.dtd">
<!-- Generated by graphviz version 12.2.1 (0)
 -->
<!-- Title: /build/source/include/state&#45;observation/dynamical&#45;system/dynamical&#45;system&#45;simulator.hpp Pages: 1 -->
<svg width="1274pt" height="276pt"
 viewBox="0.00 0.00 1273.62 275.50" xmlns="http://www.w3.org/2000/svg" xmlns:xlink="http://www.w3.org/1999/xlink">
<g id="graph0" class="graph" transform="scale(1 1) rotate(0) translate(4 271.5)">
<title>/build/source/include/state&#45;observation/dynamical&#45;system/dynamical&#45;system&#45;simulator.hpp</title>
<!-- Node1 -->
<g id="Node000001" class="node">
<title>Node1</title>
<g id="a_Node000001"><a xlink:title="Provides an interface to simulate the dynamics provided by a dynamics functor.">
<polygon fill="#999999" stroke="#666666" points="220,-267.5 0,-267.5 0,-221.25 220,-221.25 220,-267.5"/>
<text text-anchor="start" x="8" y="-254" font-family="Helvetica,sans-Serif" font-size="10.00">/build/source/include</text>
<text text-anchor="start" x="8" y="-241.25" font-family="Helvetica,sans-Serif" font-size="10.00">/state&#45;observation/dynamical</text>
<text text-anchor="middle" x="110" y="-228.5" font-family="Helvetica,sans-Serif" font-size="10.00">&#45;system/dynamical&#45;system&#45;simulator.hpp</text>
</a>
</g>
</g>
<!-- Node2 -->
<g id="Node000002" class="node">
<title>Node2</title>
<g id="a_Node000002"><a xlink:title=" ">
<polygon fill="#e0e0e0" stroke="#999999" points="81.88,-172.5 44.12,-172.5 44.12,-151.75 81.88,-151.75 81.88,-172.5"/>
<text text-anchor="middle" x="63" y="-159" font-family="Helvetica,sans-Serif" font-size="10.00">map</text>
</a>
</g>
</g>
<!-- Node1&#45;&gt;Node2 -->
<g id="edge1_Node000001_Node000002" class="edge">
<title>Node1&#45;&gt;Node2</title>
<g id="a_edge1_Node000001_Node000002"><a xlink:title=" ">
<path fill="none" stroke="#63b8ff" d="M96.91,-221.02C89.84,-208.95 81.19,-194.19 74.4,-182.59"/>
<polygon fill="#63b8ff" stroke="#63b8ff" points="77.62,-181.16 69.55,-174.3 71.58,-184.7 77.62,-181.16"/>
</a>
</g>
</g>
<!-- Node3 -->
<g id="Node000003" class="node">
<title>Node3</title>
<g id="a_Node000003"><a xlink:title=" ">
<polygon fill="#e0e0e0" stroke="#999999" points="174.62,-27.12 45.38,-27.12 45.38,-6.38 174.62,-6.38 174.62,-27.12"/>
<text text-anchor="middle" x="110" y="-13.62" font-family="Helvetica,sans-Serif" font-size="10.00">state&#45;observation/api.h</text>
</a>
</g>
</g>
<!-- Node1&#45;&gt;Node3 -->
<g id="edge2_Node000001_Node000003" class="edge">
<title>Node1&#45;&gt;Node3</title>
<g id="a_edge2_Node000001_Node000003"><a xlink:title=" ">
<path fill="none" stroke="#63b8ff" d="M110,-220.92C110,-177.28 110,-81.59 110,-38.96"/>
<polygon fill="#63b8ff" stroke="#63b8ff" points="113.5,-39.07 110,-29.07 106.5,-39.07 113.5,-39.07"/>
</a>
</g>
</g>
<!-- Node4 -->
<g id="Node000004" class="node">
<title>Node4</title>
<g id="a_Node000004"><a xlink:href="dynamical-system-functor-base_8hpp_source.html" target="_top" xlink:title=" ">
<polygon fill="white" stroke="#666666" points="294.12,-185.25 137.88,-185.25 137.88,-139 294.12,-139 294.12,-185.25"/>
<text text-anchor="start" x="145.88" y="-171.75" font-family="Helvetica,sans-Serif" font-size="10.00">state&#45;observation/dynamical</text>
<text text-anchor="start" x="145.88" y="-159" font-family="Helvetica,sans-Serif" font-size="10.00">&#45;system/dynamical&#45;system</text>
<text text-anchor="middle" x="216" y="-146.25" font-family="Helvetica,sans-Serif" font-size="10.00">&#45;functor&#45;base.hpp</text>
</a>
</g>
</g>
<!-- Node1&#45;&gt;Node4 -->
<g id="edge3_Node000001_Node000004" class="edge">
<title>Node1&#45;&gt;Node4</title>
<g id="a_edge3_Node000001_Node000004"><a xlink:title=" ">
<path fill="none" stroke="#63b8ff" d="M139.81,-220.81C151.42,-212.02 164.89,-201.82 177.24,-192.47"/>
<polygon fill="#63b8ff" stroke="#63b8ff" points="179.35,-195.26 185.21,-186.44 175.12,-189.68 179.35,-195.26"/>
</a>
</g>
</g>
<!-- Node4&#45;&gt;Node3 -->
<g id="edge4_Node000004_Node000003" class="edge">
<title>Node4&#45;&gt;Node3</title>
<g id="a_edge4_Node000004_Node000003"><a xlink:title=" ">
<path fill="none" stroke="#63b8ff" d="M199.44,-138.72C178.58,-110.51 143.12,-62.55 123.71,-36.3"/>
<polygon fill="#63b8ff" stroke="#63b8ff" points="126.78,-34.56 118.02,-28.6 121.15,-38.72 126.78,-34.56"/>
</a>
</g>
</g>
<!-- Node5 -->
<g id="Node000005" class="node">
<title>Node5</title>
<g id="a_Node000005"><a xlink:href="definitions_8hpp.html" target="_top" xlink:title="Definitions of types and some structures.">
<polygon fill="white" stroke="#666666" points="583.62,-103 454.38,-103 454.38,-69.5 583.62,-69.5 583.62,-103"/>
<text text-anchor="start" x="462.38" y="-89.5" font-family="Helvetica,sans-Serif" font-size="10.00">state&#45;observation/tools</text>
<text text-anchor="middle" x="519" y="-76.75" font-family="Helvetica,sans-Serif" font-size="10.00">/definitions.hpp</text>
</a>
</g>
</g>
<!-- Node4&#45;&gt;Node5 -->
<g id="edge5_Node000004_Node000005" class="edge">
<title>Node4&#45;&gt;Node5</title>
<g id="a_edge5_Node000004_Node000005"><a xlink:title=" ">
<path fill="none" stroke="#63b8ff" d="M294.42,-142C340.27,-130.83 397.85,-116.79 443.23,-105.72"/>
<polygon fill="#63b8ff" stroke="#63b8ff" points="443.83,-109.18 452.72,-103.41 442.18,-102.38 443.83,-109.18"/>
</a>
</g>
</g>
<!-- Node5&#45;&gt;Node3 -->
<g id="edge15_Node000005_Node000003" class="edge">
<title>Node5&#45;&gt;Node3</title>
<g id="a_edge15_Node000005_Node000003"><a xlink:title=" ">
<path fill="none" stroke="#63b8ff" d="M454.08,-76.42C386.26,-66.93 276.88,-50.84 183,-33.5 177.02,-32.4 170.79,-31.17 164.59,-29.9"/>
<polygon fill="#63b8ff" stroke="#63b8ff" points="165.52,-26.52 155.02,-27.9 164.09,-33.37 165.52,-26.52"/>
</a>
</g>
</g>
<!-- Node6 -->
<g id="Node000006" class="node">
<title>Node6</title>
<g id="a_Node000006"><a xlink:title=" ">
<polygon fill="#e0e0e0" stroke="#999999" points="241.5,-27.12 192.5,-27.12 192.5,-6.38 241.5,-6.38 241.5,-27.12"/>
<text text-anchor="middle" x="217" y="-13.62" font-family="Helvetica,sans-Serif" font-size="10.00">chrono</text>
</a>
</g>
</g>
<!-- Node5&#45;&gt;Node6 -->
<g id="edge6_Node000005_Node000006" class="edge">
<title>Node5&#45;&gt;Node6</title>
<g id="a_edge6_Node000005_Node000006"><a xlink:title=" ">
<path fill="none" stroke="#63b8ff" d="M454,-77.21C399.03,-69.35 318.64,-55.34 251,-33.5 249.45,-33 247.88,-32.45 246.31,-31.86"/>
<polygon fill="#63b8ff" stroke="#63b8ff" points="248.06,-28.8 237.49,-28.16 245.36,-35.25 248.06,-28.8"/>
</a>
</g>
</g>
<!-- Node7 -->
<g id="Node000007" class="node">
<title>Node7</title>
<g id="a_Node000007"><a xlink:title=" ">
<polygon fill="#e0e0e0" stroke="#999999" points="306,-27.12 260,-27.12 260,-6.38 306,-6.38 306,-27.12"/>
<text text-anchor="middle" x="283" y="-13.62" font-family="Helvetica,sans-Serif" font-size="10.00">deque</text>
</a>
</g>
</g>
<!-- Node5&#45;&gt;Node7 -->
<g id="edge7_Node000005_Node000007" class="edge">
<title>Node5&#45;&gt;Node7</title>
<g id="a_edge7_Node000005_Node000007"><a xlink:title=" ">
<path fill="none" stroke="#63b8ff" d="M454.1,-72.42C413.48,-63.51 360.43,-50.23 315,-33.5 313.87,-33.08 312.72,-32.64 311.57,-32.17"/>
<polygon fill="#63b8ff" stroke="#63b8ff" points="313.26,-29.09 302.71,-28.2 310.4,-35.48 313.26,-29.09"/>
</a>
</g>
</g>
<!-- Node8 -->
<g id="Node000008" class="node">
<title>Node8</title>
<g id="a_Node000008"><a xlink:title=" ">
<polygon fill="#e0e0e0" stroke="#999999" points="388,-27.12 324,-27.12 324,-6.38 388,-6.38 388,-27.12"/>
<text text-anchor="middle" x="356" y="-13.62" font-family="Helvetica,sans-Serif" font-size="10.00">stdexcept</text>
</a>
</g>
</g>
<!-- Node5&#45;&gt;Node8 -->
<g id="edge8_Node000005_Node000008" class="edge">
<title>Node5&#45;&gt;Node8</title>
<g id="a_edge8_Node000005_Node000008"><a xlink:title=" ">
<path fill="none" stroke="#63b8ff" d="M479.96,-69.08C452.6,-57.75 416.38,-42.75 390.16,-31.9"/>
<polygon fill="#63b8ff" stroke="#63b8ff" points="391.57,-28.69 380.99,-28.1 388.89,-35.16 391.57,-28.69"/>
</a>
</g>
</g>
<!-- Node9 -->
<g id="Node000009" class="node">
<title>Node9</title>
<g id="a_Node000009"><a xlink:title=" ">
<polygon fill="#e0e0e0" stroke="#999999" points="452.38,-27.12 405.62,-27.12 405.62,-6.38 452.38,-6.38 452.38,-27.12"/>
<text text-anchor="middle" x="429" y="-13.62" font-family="Helvetica,sans-Serif" font-size="10.00">vector</text>
</a>
</g>
</g>
<!-- Node5&#45;&gt;Node9 -->
<g id="edge9_Node000005_Node000009" class="edge">
<title>Node5&#45;&gt;Node9</title>
<g id="a_edge9_Node000005_Node000009"><a xlink:title=" ">
<path fill="none" stroke="#63b8ff" d="M497.67,-69.25C483.65,-58.74 465.34,-45.01 451.15,-34.37"/>
<polygon fill="#63b8ff" stroke="#63b8ff" points="453.41,-31.68 443.31,-28.48 449.21,-37.28 453.41,-31.68"/>
</a>
</g>
</g>
<!-- Node10 -->
<g id="Node000010" class="node">
<title>Node10</title>
<g id="a_Node000010"><a xlink:title=" ">
<polygon fill="#e0e0e0" stroke="#999999" points="567.5,-27.12 470.5,-27.12 470.5,-6.38 567.5,-6.38 567.5,-27.12"/>
<text text-anchor="middle" x="519" y="-13.62" font-family="Helvetica,sans-Serif" font-size="10.00">boost/assert.hpp</text>
</a>
</g>
</g>
<!-- Node5&#45;&gt;Node10 -->
<g id="edge10_Node000005_Node000010" class="edge">
<title>Node5&#45;&gt;Node10</title>
<g id="a_edge10_Node000005_Node000010"><a xlink:title=" ">
<path fill="none" stroke="#63b8ff" d="M519,-69.25C519,-60.15 519,-48.64 519,-38.82"/>
<polygon fill="#63b8ff" stroke="#63b8ff" points="522.5,-39.09 519,-29.09 515.5,-39.09 522.5,-39.09"/>
</a>
</g>
</g>
<!-- Node11 -->
<g id="Node000011" class="node">
<title>Node11</title>
<g id="a_Node000011"><a xlink:title=" ">
<polygon fill="#e0e0e0" stroke="#999999" points="706.88,-27.12 585.12,-27.12 585.12,-6.38 706.88,-6.38 706.88,-27.12"/>
<text text-anchor="middle" x="646" y="-13.62" font-family="Helvetica,sans-Serif" font-size="10.00">boost/timer/timer.hpp</text>
</a>
</g>
</g>
<!-- Node5&#45;&gt;Node11 -->
<g id="edge11_Node000005_Node000011" class="edge">
<title>Node5&#45;&gt;Node11</title>
<g id="a_edge11_Node000005_Node000011"><a xlink:title=" ">
<path fill="none" stroke="#63b8ff" d="M549.42,-69.08C570.17,-58.06 597.45,-43.55 617.72,-32.78"/>
<polygon fill="#63b8ff" stroke="#63b8ff" points="619.09,-36.02 626.28,-28.23 615.81,-29.83 619.09,-36.02"/>
</a>
</g>
</g>
<!-- Node12 -->
<g id="Node000012" class="node">
<title>Node12</title>
<g id="a_Node000012"><a xlink:title=" ">
<polygon fill="#e0e0e0" stroke="#999999" points="793.25,-27.12 724.75,-27.12 724.75,-6.38 793.25,-6.38 793.25,-27.12"/>
<text text-anchor="middle" x="759" y="-13.62" font-family="Helvetica,sans-Serif" font-size="10.00">Eigen/Core</text>
</a>
</g>
</g>
<!-- Node5&#45;&gt;Node12 -->
<g id="edge12_Node000005_Node000012" class="edge">
<title>Node5&#45;&gt;Node12</title>
<g id="a_edge12_Node000005_Node000012"><a xlink:title=" ">
<path fill="none" stroke="#63b8ff" d="M583.76,-69.87C622.41,-60.29 672.31,-47.21 716,-33.5 718.25,-32.79 720.56,-32.04 722.88,-31.26"/>
<polygon fill="#63b8ff" stroke="#63b8ff" points="723.96,-34.59 732.24,-27.98 721.65,-27.98 723.96,-34.59"/>
</a>
</g>
</g>
<!-- Node13 -->
<g id="Node000013" class="node">
<title>Node13</title>
<g id="a_Node000013"><a xlink:title=" ">
<polygon fill="#e0e0e0" stroke="#999999" points="906.38,-27.12 811.62,-27.12 811.62,-6.38 906.38,-6.38 906.38,-27.12"/>
<text text-anchor="middle" x="859" y="-13.62" font-family="Helvetica,sans-Serif" font-size="10.00">Eigen/Geometry</text>
</a>
</g>
</g>
<!-- Node5&#45;&gt;Node13 -->
<g id="edge13_Node000005_Node000013" class="edge">
<title>Node5&#45;&gt;Node13</title>
<g id="a_edge13_Node000005_Node000013"><a xlink:title=" ">
<path fill="none" stroke="#63b8ff" d="M583.96,-75.05C641.54,-65.62 727.76,-50.51 802,-33.5 806.04,-32.57 810.22,-31.55 814.41,-30.48"/>
<polygon fill="#63b8ff" stroke="#63b8ff" points="815.13,-33.91 823.91,-27.96 813.34,-27.14 815.13,-33.91"/>
</a>
</g>
</g>
<!-- Node14 -->
<g id="Node000014" class="node">
<title>Node14</title>
<g id="a_Node000014"><a xlink:title=" ">
<polygon fill="#e0e0e0" stroke="#999999" points="1045.88,-33.5 924.12,-33.5 924.12,0 1045.88,0 1045.88,-33.5"/>
<text text-anchor="start" x="932.12" y="-20" font-family="Helvetica,sans-Serif" font-size="10.00">boost/math/constants</text>
<text text-anchor="middle" x="985" y="-7.25" font-family="Helvetica,sans-Serif" font-size="10.00">/constants.hpp</text>
</a>
</g>
</g>
<!-- Node5&#45;&gt;Node14 -->
<g id="edge14_Node000005_Node000014" class="edge">
<title>Node5&#45;&gt;Node14</title>
<g id="a_edge14_Node000005_Node000014"><a xlink:title=" ">
<path fill="none" stroke="#63b8ff" d="M584.1,-78.59C660.49,-70.36 791.18,-55 912.98,-33.76"/>
<polygon fill="#63b8ff" stroke="#63b8ff" points="913.25,-37.27 922.49,-32.09 912.04,-30.37 913.25,-37.27"/>
</a>
</g>
</g>
<!-- Node15 -->
<g id="Node000015" class="node">
<title>Node15</title>
<g id="a_Node000015"><a xlink:title=" ">
<polygon fill="#e0e0e0" stroke="#999999" points="1118.12,-27.12 1063.88,-27.12 1063.88,-6.38 1118.12,-6.38 1118.12,-27.12"/>
<text text-anchor="middle" x="1091" y="-13.62" font-family="Helvetica,sans-Serif" font-size="10.00">fstream</text>
</a>
</g>
</g>
<!-- Node5&#45;&gt;Node15 -->
<g id="edge16_Node000005_Node000015" class="edge">
<title>Node5&#45;&gt;Node15</title>
<g id="a_edge16_Node000005_Node000015"><a xlink:title=" ">
<path fill="none" stroke="#63b8ff" d="M584.09,-85.53C686.12,-84.51 889.19,-76.6 1055,-33.5 1056.99,-32.98 1059.02,-32.37 1061.04,-31.69"/>
<polygon fill="#63b8ff" stroke="#63b8ff" points="1062.14,-35.01 1070.18,-28.12 1059.6,-28.49 1062.14,-35.01"/>
</a>
</g>
</g>
<!-- Node16 -->
<g id="Node000016" class="node">
<title>Node16</title>
<g id="a_Node000016"><a xlink:title=" ">
<polygon fill="#e0e0e0" stroke="#999999" points="1265.62,-33.5 1136.38,-33.5 1136.38,0 1265.62,0 1265.62,-33.5"/>
<text text-anchor="start" x="1144.38" y="-20" font-family="Helvetica,sans-Serif" font-size="10.00">state&#45;observation/tools</text>
<text text-anchor="middle" x="1201" y="-7.25" font-family="Helvetica,sans-Serif" font-size="10.00">/definitions.hxx</text>
</a>
</g>
</g>
<!-- Node5&#45;&gt;Node16 -->
<g id="edge17_Node000005_Node000016" class="edge">
<title>Node5&#45;&gt;Node16</title>
<g id="a_edge17_Node000005_Node000016"><a xlink:title=" ">
<path fill="none" stroke="#63b8ff" d="M584.1,-82.38C693.68,-76.96 922.07,-63.17 1124.94,-33.68"/>
<polygon fill="#63b8ff" stroke="#63b8ff" points="1125.23,-37.18 1134.61,-32.26 1124.21,-30.25 1125.23,-37.18"/>
</a>
</g>
</g>
</g>
</svg>
