<?xml version="1.0" encoding="UTF-8" standalone="no"?>
<!DOCTYPE svg PUBLIC "-//W3C//DTD SVG 1.1//EN"
 "http://www.w3.org/Graphics/SVG/1.1/DTD/svg11.dtd">
<!-- Generated by graphviz version 12.2.1 (0)
 -->
<!-- Title: /build/source/include/state&#45;observation/flexibility&#45;estimation/ekf&#45;flexibility&#45;estimator&#45;base.hpp Pages: 1 -->
<svg width="1241pt" height="497pt"
 viewBox="0.00 0.00 1241.00 496.75" xmlns="http://www.w3.org/2000/svg" xmlns:xlink="http://www.w3.org/1999/xlink">
<g id="graph0" class="graph" transform="scale(1 1) rotate(0) translate(4 492.75)">
<title>/build/source/include/state&#45;observation/flexibility&#45;estimation/ekf&#45;flexibility&#45;estimator&#45;base.hpp</title>
<!-- Node1 -->
<g id="Node000001" class="node">
<title>Node1</title>
<g id="a_Node000001"><a xlink:title="Declare the class of the flexibility estimation using the extended Kalman Filter.">
<polygon fill="#999999" stroke="#666666" points="910,-488.75 756,-488.75 756,-429.75 910,-429.75 910,-488.75"/>
<text text-anchor="start" x="764" y="-475.25" font-family="Helvetica,sans-Serif" font-size="10.00">/build/source/include</text>
<text text-anchor="start" x="764" y="-462.5" font-family="Helvetica,sans-Serif" font-size="10.00">/state&#45;observation/flexibility</text>
<text text-anchor="start" x="764" y="-449.75" font-family="Helvetica,sans-Serif" font-size="10.00">&#45;estimation/ekf&#45;flexibility</text>
<text text-anchor="middle" x="833" y="-437" font-family="Helvetica,sans-Serif" font-size="10.00">&#45;estimator&#45;base.hpp</text>
</a>
</g>
</g>
<!-- Node2 -->
<g id="Node000002" class="node">
<title>Node2</title>
<g id="a_Node000002"><a xlink:title=" ">
<polygon fill="#e0e0e0" stroke="#999999" points="639,-387.38 545,-387.38 545,-366.62 639,-366.62 639,-387.38"/>
<text text-anchor="middle" x="592" y="-373.88" font-family="Helvetica,sans-Serif" font-size="10.00">boost/utility.hpp</text>
</a>
</g>
</g>
<!-- Node1&#45;&gt;Node2 -->
<g id="edge1_Node000001_Node000002" class="edge">
<title>Node1&#45;&gt;Node2</title>
<g id="a_edge1_Node000001_Node000002"><a xlink:title=" ">
<path fill="none" stroke="#63b8ff" d="M755.75,-432.53C714.68,-418.85 665.89,-402.6 632.31,-391.42"/>
<polygon fill="#63b8ff" stroke="#63b8ff" points="633.57,-388.15 622.97,-388.31 631.36,-394.79 633.57,-388.15"/>
</a>
</g>
</g>
<!-- Node3 -->
<g id="Node000003" class="node">
<title>Node3</title>
<g id="a_Node000003"><a xlink:title=" ">
<polygon fill="#e0e0e0" stroke="#999999" points="1220.62,-27.12 1091.38,-27.12 1091.38,-6.38 1220.62,-6.38 1220.62,-27.12"/>
<text text-anchor="middle" x="1156" y="-13.62" font-family="Helvetica,sans-Serif" font-size="10.00">state&#45;observation/api.h</text>
</a>
</g>
</g>
<!-- Node1&#45;&gt;Node3 -->
<g id="edge2_Node000001_Node000003" class="edge">
<title>Node1&#45;&gt;Node3</title>
<g id="a_edge2_Node000001_Node000003"><a xlink:title=" ">
<path fill="none" stroke="#63b8ff" d="M910.12,-445.57C1026.36,-424.23 1233,-376.72 1233,-308.5 1233,-308.5 1233,-308.5 1233,-161.12 1233,-111.05 1196.09,-61.59 1173.38,-35.89"/>
<polygon fill="#63b8ff" stroke="#63b8ff" points="1176.1,-33.68 1166.77,-28.66 1170.94,-38.41 1176.1,-33.68"/>
</a>
</g>
</g>
<!-- Node4 -->
<g id="Node000004" class="node">
<title>Node4</title>
<g id="a_Node000004"><a xlink:href="extended-kalman-filter_8hpp_source.html" target="_top" xlink:title=" ">
<polygon fill="white" stroke="#666666" points="1096.5,-393.75 945.5,-393.75 945.5,-360.25 1096.5,-360.25 1096.5,-393.75"/>
<text text-anchor="start" x="953.5" y="-380.25" font-family="Helvetica,sans-Serif" font-size="10.00">state&#45;observation/observer</text>
<text text-anchor="middle" x="1021" y="-367.5" font-family="Helvetica,sans-Serif" font-size="10.00">/extended&#45;kalman&#45;filter.hpp</text>
</a>
</g>
</g>
<!-- Node1&#45;&gt;Node4 -->
<g id="edge3_Node000001_Node000004" class="edge">
<title>Node1&#45;&gt;Node4</title>
<g id="a_edge3_Node000001_Node000004"><a xlink:title=" ">
<path fill="none" stroke="#63b8ff" d="M900.87,-429.28C924.64,-419.13 950.84,-407.95 972.68,-398.63"/>
<polygon fill="#63b8ff" stroke="#63b8ff" points="973.81,-401.95 981.63,-394.8 971.06,-395.51 973.81,-401.95"/>
</a>
</g>
</g>
<!-- Node23 -->
<g id="Node000023" class="node">
<title>Node23</title>
<g id="a_Node000023"><a xlink:href="flexibility-estimator-base_8hpp.html" target="_top" xlink:title="Definitions of base class for flexibility estimator.">
<polygon fill="white" stroke="#666666" points="741,-185.25 569,-185.25 569,-139 741,-139 741,-185.25"/>
<text text-anchor="start" x="577" y="-171.75" font-family="Helvetica,sans-Serif" font-size="10.00">state&#45;observation/flexibility</text>
<text text-anchor="start" x="577" y="-159" font-family="Helvetica,sans-Serif" font-size="10.00">&#45;estimation/flexibility&#45;estimator</text>
<text text-anchor="middle" x="655" y="-146.25" font-family="Helvetica,sans-Serif" font-size="10.00">&#45;base.hpp</text>
</a>
</g>
</g>
<!-- Node1&#45;&gt;Node23 -->
<g id="edge33_Node000001_Node000023" class="edge">
<title>Node1&#45;&gt;Node23</title>
<g id="a_edge33_Node000001_Node000023"><a xlink:title=" ">
<path fill="none" stroke="#63b8ff" d="M807.83,-429.41C775.85,-391.54 720.64,-321.96 686,-254.75 676.53,-236.38 669.01,-214.5 663.74,-196.73"/>
<polygon fill="#63b8ff" stroke="#63b8ff" points="667.12,-195.84 661.02,-187.18 660.39,-197.76 667.12,-195.84"/>
</a>
</g>
</g>
<!-- Node4&#45;&gt;Node3 -->
<g id="edge4_Node000004_Node000003" class="edge">
<title>Node4&#45;&gt;Node3</title>
<g id="a_edge4_Node000004_Node000003"><a xlink:title=" ">
<path fill="none" stroke="#63b8ff" d="M1072.73,-359.89C1124.03,-340.31 1195,-301.86 1195,-239 1195,-239 1195,-239 1195,-161.12 1195,-115.96 1176.76,-65.51 1165.22,-38.13"/>
<polygon fill="#63b8ff" stroke="#63b8ff" points="1168.44,-36.74 1161.23,-28.97 1162.02,-39.53 1168.44,-36.74"/>
</a>
</g>
</g>
<!-- Node5 -->
<g id="Node000005" class="node">
<title>Node5</title>
<g id="a_Node000005"><a xlink:href="dynamical-system-functor-base_8hpp_source.html" target="_top" xlink:title=" ">
<polygon fill="white" stroke="#666666" points="1167.12,-185.25 1010.88,-185.25 1010.88,-139 1167.12,-139 1167.12,-185.25"/>
<text text-anchor="start" x="1018.88" y="-171.75" font-family="Helvetica,sans-Serif" font-size="10.00">state&#45;observation/dynamical</text>
<text text-anchor="start" x="1018.88" y="-159" font-family="Helvetica,sans-Serif" font-size="10.00">&#45;system/dynamical&#45;system</text>
<text text-anchor="middle" x="1089" y="-146.25" font-family="Helvetica,sans-Serif" font-size="10.00">&#45;functor&#45;base.hpp</text>
</a>
</g>
</g>
<!-- Node4&#45;&gt;Node5 -->
<g id="edge5_Node000004_Node000005" class="edge">
<title>Node4&#45;&gt;Node5</title>
<g id="a_edge5_Node000004_Node000005"><a xlink:title=" ">
<path fill="none" stroke="#63b8ff" d="M1026.11,-360C1037.18,-325.34 1063.58,-242.72 1078.41,-196.28"/>
<polygon fill="#63b8ff" stroke="#63b8ff" points="1081.66,-197.61 1081.37,-187.01 1074.99,-195.48 1081.66,-197.61"/>
</a>
</g>
</g>
<!-- Node18 -->
<g id="Node000018" class="node">
<title>Node18</title>
<g id="a_Node000018"><a xlink:href="kalman-filter-base_8hpp.html" target="_top" xlink:title="Defines the base class of a Kalman filter.">
<polygon fill="white" stroke="#666666" points="1006,-324.25 858,-324.25 858,-290.75 1006,-290.75 1006,-324.25"/>
<text text-anchor="start" x="866" y="-310.75" font-family="Helvetica,sans-Serif" font-size="10.00">state&#45;observation/observer</text>
<text text-anchor="middle" x="932" y="-298" font-family="Helvetica,sans-Serif" font-size="10.00">/kalman&#45;filter&#45;base.hpp</text>
</a>
</g>
</g>
<!-- Node4&#45;&gt;Node18 -->
<g id="edge20_Node000004_Node000018" class="edge">
<title>Node4&#45;&gt;Node18</title>
<g id="a_edge20_Node000004_Node000018"><a xlink:title=" ">
<path fill="none" stroke="#63b8ff" d="M999.91,-360C988.68,-351.49 974.68,-340.87 962.32,-331.49"/>
<polygon fill="#63b8ff" stroke="#63b8ff" points="964.54,-328.78 954.45,-325.53 960.31,-334.36 964.54,-328.78"/>
</a>
</g>
</g>
<!-- Node5&#45;&gt;Node3 -->
<g id="edge6_Node000005_Node000003" class="edge">
<title>Node5&#45;&gt;Node3</title>
<g id="a_edge6_Node000005_Node000003"><a xlink:title=" ">
<path fill="none" stroke="#63b8ff" d="M1099.47,-138.72C1112.42,-111.01 1134.28,-64.24 1146.68,-37.7"/>
<polygon fill="#63b8ff" stroke="#63b8ff" points="1149.8,-39.29 1150.86,-28.75 1143.45,-36.33 1149.8,-39.29"/>
</a>
</g>
</g>
<!-- Node6 -->
<g id="Node000006" class="node">
<title>Node6</title>
<g id="a_Node000006"><a xlink:href="definitions_8hpp.html" target="_top" xlink:title="Definitions of types and some structures.">
<polygon fill="white" stroke="#666666" points="664.62,-103 535.38,-103 535.38,-69.5 664.62,-69.5 664.62,-103"/>
<text text-anchor="start" x="543.38" y="-89.5" font-family="Helvetica,sans-Serif" font-size="10.00">state&#45;observation/tools</text>
<text text-anchor="middle" x="600" y="-76.75" font-family="Helvetica,sans-Serif" font-size="10.00">/definitions.hpp</text>
</a>
</g>
</g>
<!-- Node5&#45;&gt;Node6 -->
<g id="edge7_Node000005_Node000006" class="edge">
<title>Node5&#45;&gt;Node6</title>
<g id="a_edge7_Node000005_Node000006"><a xlink:title=" ">
<path fill="none" stroke="#63b8ff" d="M1010.39,-146.79C995.02,-144.11 979.02,-141.4 964,-139 864.62,-123.15 749.6,-107.19 675.88,-97.27"/>
<polygon fill="#63b8ff" stroke="#63b8ff" points="676.74,-93.86 666.37,-96 675.81,-100.8 676.74,-93.86"/>
</a>
</g>
</g>
<!-- Node6&#45;&gt;Node3 -->
<g id="edge17_Node000006_Node000003" class="edge">
<title>Node6&#45;&gt;Node3</title>
<g id="a_edge17_Node000006_Node000003"><a xlink:title=" ">
<path fill="none" stroke="#63b8ff" d="M665,-71.71C669.73,-70.91 674.43,-70.16 679,-69.5 857.43,-43.84 904.78,-60.56 1083,-33.5 1089.73,-32.48 1096.78,-31.21 1103.72,-29.85"/>
<polygon fill="#63b8ff" stroke="#63b8ff" points="1104.28,-33.3 1113.37,-27.86 1102.87,-26.45 1104.28,-33.3"/>
</a>
</g>
</g>
<!-- Node7 -->
<g id="Node000007" class="node">
<title>Node7</title>
<g id="a_Node000007"><a xlink:title=" ">
<polygon fill="#e0e0e0" stroke="#999999" points="228.5,-27.12 179.5,-27.12 179.5,-6.38 228.5,-6.38 228.5,-27.12"/>
<text text-anchor="middle" x="204" y="-13.62" font-family="Helvetica,sans-Serif" font-size="10.00">chrono</text>
</a>
</g>
</g>
<!-- Node6&#45;&gt;Node7 -->
<g id="edge8_Node000006_Node000007" class="edge">
<title>Node6&#45;&gt;Node7</title>
<g id="a_edge8_Node000006_Node000007"><a xlink:title=" ">
<path fill="none" stroke="#63b8ff" d="M535.18,-70.95C532.42,-70.44 529.68,-69.96 527,-69.5 399.39,-47.83 362.44,-69.13 238,-33.5 236.19,-32.98 234.36,-32.38 232.54,-31.72"/>
<polygon fill="#63b8ff" stroke="#63b8ff" points="234.28,-28.66 223.7,-28.07 231.61,-35.13 234.28,-28.66"/>
</a>
</g>
</g>
<!-- Node8 -->
<g id="Node000008" class="node">
<title>Node8</title>
<g id="a_Node000008"><a xlink:title=" ">
<polygon fill="#e0e0e0" stroke="#999999" points="46,-27.12 0,-27.12 0,-6.38 46,-6.38 46,-27.12"/>
<text text-anchor="middle" x="23" y="-13.62" font-family="Helvetica,sans-Serif" font-size="10.00">deque</text>
</a>
</g>
</g>
<!-- Node6&#45;&gt;Node8 -->
<g id="edge9_Node000006_Node000008" class="edge">
<title>Node6&#45;&gt;Node8</title>
<g id="a_edge9_Node000006_Node000008"><a xlink:title=" ">
<path fill="none" stroke="#63b8ff" d="M535.2,-70.79C532.44,-70.32 529.69,-69.89 527,-69.5 318.8,-39.24 257.95,-88.96 55,-33.5 53.39,-33.06 51.77,-32.54 50.16,-31.96"/>
<polygon fill="#63b8ff" stroke="#63b8ff" points="51.76,-28.84 41.19,-28.1 48.99,-35.27 51.76,-28.84"/>
</a>
</g>
</g>
<!-- Node9 -->
<g id="Node000009" class="node">
<title>Node9</title>
<g id="a_Node000009"><a xlink:title=" ">
<polygon fill="#e0e0e0" stroke="#999999" points="311,-27.12 247,-27.12 247,-6.38 311,-6.38 311,-27.12"/>
<text text-anchor="middle" x="279" y="-13.62" font-family="Helvetica,sans-Serif" font-size="10.00">stdexcept</text>
</a>
</g>
</g>
<!-- Node6&#45;&gt;Node9 -->
<g id="edge10_Node000006_Node000009" class="edge">
<title>Node6&#45;&gt;Node9</title>
<g id="a_edge10_Node000006_Node000009"><a xlink:title=" ">
<path fill="none" stroke="#63b8ff" d="M535.15,-71.12C532.4,-70.56 529.67,-70.02 527,-69.5 435.34,-51.65 410.01,-58.36 320,-33.5 317.7,-32.87 315.36,-32.15 313.01,-31.39"/>
<polygon fill="#63b8ff" stroke="#63b8ff" points="314.17,-28.09 303.58,-28.05 311.84,-34.69 314.17,-28.09"/>
</a>
</g>
</g>
<!-- Node10 -->
<g id="Node000010" class="node">
<title>Node10</title>
<g id="a_Node000010"><a xlink:title=" ">
<polygon fill="#e0e0e0" stroke="#999999" points="375.38,-27.12 328.62,-27.12 328.62,-6.38 375.38,-6.38 375.38,-27.12"/>
<text text-anchor="middle" x="352" y="-13.62" font-family="Helvetica,sans-Serif" font-size="10.00">vector</text>
</a>
</g>
</g>
<!-- Node6&#45;&gt;Node10 -->
<g id="edge11_Node000006_Node000010" class="edge">
<title>Node6&#45;&gt;Node10</title>
<g id="a_edge11_Node000006_Node000010"><a xlink:title=" ">
<path fill="none" stroke="#63b8ff" d="M535.02,-70.45C476.75,-57.05 398.28,-38.65 384,-33.5 382.84,-33.08 381.66,-32.63 380.47,-32.16"/>
<polygon fill="#63b8ff" stroke="#63b8ff" points="381.91,-28.96 371.35,-28.08 379.06,-35.35 381.91,-28.96"/>
</a>
</g>
</g>
<!-- Node11 -->
<g id="Node000011" class="node">
<title>Node11</title>
<g id="a_Node000011"><a xlink:title=" ">
<polygon fill="#e0e0e0" stroke="#999999" points="161.5,-27.12 64.5,-27.12 64.5,-6.38 161.5,-6.38 161.5,-27.12"/>
<text text-anchor="middle" x="113" y="-13.62" font-family="Helvetica,sans-Serif" font-size="10.00">boost/assert.hpp</text>
</a>
</g>
</g>
<!-- Node6&#45;&gt;Node11 -->
<g id="edge12_Node000006_Node000011" class="edge">
<title>Node6&#45;&gt;Node11</title>
<g id="a_edge12_Node000006_Node000011"><a xlink:title=" ">
<path fill="none" stroke="#63b8ff" d="M535.19,-70.87C532.43,-70.39 529.69,-69.92 527,-69.5 369.48,-44.64 326.75,-62.84 170,-33.5 165.4,-32.64 160.64,-31.59 155.91,-30.44"/>
<polygon fill="#63b8ff" stroke="#63b8ff" points="157.06,-27.12 146.5,-28 155.3,-33.9 157.06,-27.12"/>
</a>
</g>
</g>
<!-- Node12 -->
<g id="Node000012" class="node">
<title>Node12</title>
<g id="a_Node000012"><a xlink:title=" ">
<polygon fill="#e0e0e0" stroke="#999999" points="514.88,-27.12 393.12,-27.12 393.12,-6.38 514.88,-6.38 514.88,-27.12"/>
<text text-anchor="middle" x="454" y="-13.62" font-family="Helvetica,sans-Serif" font-size="10.00">boost/timer/timer.hpp</text>
</a>
</g>
</g>
<!-- Node6&#45;&gt;Node12 -->
<g id="edge13_Node000006_Node000012" class="edge">
<title>Node6&#45;&gt;Node12</title>
<g id="a_edge13_Node000006_Node000012"><a xlink:title=" ">
<path fill="none" stroke="#63b8ff" d="M565.03,-69.08C540.85,-57.9 508.95,-43.15 485.55,-32.34"/>
<polygon fill="#63b8ff" stroke="#63b8ff" points="487.05,-29.18 476.51,-28.16 484.12,-35.53 487.05,-29.18"/>
</a>
</g>
</g>
<!-- Node13 -->
<g id="Node000013" class="node">
<title>Node13</title>
<g id="a_Node000013"><a xlink:title=" ">
<polygon fill="#e0e0e0" stroke="#999999" points="601.25,-27.12 532.75,-27.12 532.75,-6.38 601.25,-6.38 601.25,-27.12"/>
<text text-anchor="middle" x="567" y="-13.62" font-family="Helvetica,sans-Serif" font-size="10.00">Eigen/Core</text>
</a>
</g>
</g>
<!-- Node6&#45;&gt;Node13 -->
<g id="edge14_Node000006_Node000013" class="edge">
<title>Node6&#45;&gt;Node13</title>
<g id="a_edge14_Node000006_Node000013"><a xlink:title=" ">
<path fill="none" stroke="#63b8ff" d="M592.18,-69.25C587.58,-59.85 581.73,-47.87 576.82,-37.84"/>
<polygon fill="#63b8ff" stroke="#63b8ff" points="580,-36.38 572.47,-28.93 573.71,-39.45 580,-36.38"/>
</a>
</g>
</g>
<!-- Node14 -->
<g id="Node000014" class="node">
<title>Node14</title>
<g id="a_Node000014"><a xlink:title=" ">
<polygon fill="#e0e0e0" stroke="#999999" points="714.38,-27.12 619.62,-27.12 619.62,-6.38 714.38,-6.38 714.38,-27.12"/>
<text text-anchor="middle" x="667" y="-13.62" font-family="Helvetica,sans-Serif" font-size="10.00">Eigen/Geometry</text>
</a>
</g>
</g>
<!-- Node6&#45;&gt;Node14 -->
<g id="edge15_Node000006_Node000014" class="edge">
<title>Node6&#45;&gt;Node14</title>
<g id="a_edge15_Node000006_Node000014"><a xlink:title=" ">
<path fill="none" stroke="#63b8ff" d="M615.88,-69.25C625.92,-59.14 638.9,-46.06 649.28,-35.61"/>
<polygon fill="#63b8ff" stroke="#63b8ff" points="651.62,-38.21 656.18,-28.65 646.66,-33.28 651.62,-38.21"/>
</a>
</g>
</g>
<!-- Node15 -->
<g id="Node000015" class="node">
<title>Node15</title>
<g id="a_Node000015"><a xlink:title=" ">
<polygon fill="#e0e0e0" stroke="#999999" points="853.88,-33.5 732.12,-33.5 732.12,0 853.88,0 853.88,-33.5"/>
<text text-anchor="start" x="740.12" y="-20" font-family="Helvetica,sans-Serif" font-size="10.00">boost/math/constants</text>
<text text-anchor="middle" x="793" y="-7.25" font-family="Helvetica,sans-Serif" font-size="10.00">/constants.hpp</text>
</a>
</g>
</g>
<!-- Node6&#45;&gt;Node15 -->
<g id="edge16_Node000006_Node000015" class="edge">
<title>Node6&#45;&gt;Node15</title>
<g id="a_edge16_Node000006_Node000015"><a xlink:title=" ">
<path fill="none" stroke="#63b8ff" d="M646.23,-69.08C673.22,-59.64 707.5,-47.65 736.14,-37.64"/>
<polygon fill="#63b8ff" stroke="#63b8ff" points="737.1,-41.01 745.39,-34.4 734.79,-34.4 737.1,-41.01"/>
</a>
</g>
</g>
<!-- Node16 -->
<g id="Node000016" class="node">
<title>Node16</title>
<g id="a_Node000016"><a xlink:title=" ">
<polygon fill="#e0e0e0" stroke="#999999" points="926.12,-27.12 871.88,-27.12 871.88,-6.38 926.12,-6.38 926.12,-27.12"/>
<text text-anchor="middle" x="899" y="-13.62" font-family="Helvetica,sans-Serif" font-size="10.00">fstream</text>
</a>
</g>
</g>
<!-- Node6&#45;&gt;Node16 -->
<g id="edge18_Node000006_Node000016" class="edge">
<title>Node6&#45;&gt;Node16</title>
<g id="a_edge18_Node000006_Node000016"><a xlink:title=" ">
<path fill="none" stroke="#63b8ff" d="M665.09,-72.25C669.8,-71.32 674.47,-70.39 679,-69.5 760.75,-53.35 783.46,-58.35 863,-33.5 864.79,-32.94 866.61,-32.32 868.44,-31.66"/>
<polygon fill="#63b8ff" stroke="#63b8ff" points="869.34,-35.06 877.33,-28.1 866.75,-28.56 869.34,-35.06"/>
</a>
</g>
</g>
<!-- Node17 -->
<g id="Node000017" class="node">
<title>Node17</title>
<g id="a_Node000017"><a xlink:title=" ">
<polygon fill="#e0e0e0" stroke="#999999" points="1073.62,-33.5 944.38,-33.5 944.38,0 1073.62,0 1073.62,-33.5"/>
<text text-anchor="start" x="952.38" y="-20" font-family="Helvetica,sans-Serif" font-size="10.00">state&#45;observation/tools</text>
<text text-anchor="middle" x="1009" y="-7.25" font-family="Helvetica,sans-Serif" font-size="10.00">/definitions.hxx</text>
</a>
</g>
</g>
<!-- Node6&#45;&gt;Node17 -->
<g id="edge19_Node000006_Node000017" class="edge">
<title>Node6&#45;&gt;Node17</title>
<g id="a_edge19_Node000006_Node000017"><a xlink:title=" ">
<path fill="none" stroke="#63b8ff" d="M665.04,-71.98C669.76,-71.11 674.45,-70.27 679,-69.5 788.74,-50.86 819.92,-53.29 932.89,-33.79"/>
<polygon fill="#63b8ff" stroke="#63b8ff" points="933.34,-37.27 942.59,-32.1 932.13,-30.37 933.34,-37.27"/>
</a>
</g>
</g>
<!-- Node18&#45;&gt;Node3 -->
<g id="edge21_Node000018_Node000003" class="edge">
<title>Node18&#45;&gt;Node3</title>
<g id="a_edge21_Node000018_Node000003"><a xlink:title=" ">
<path fill="none" stroke="#63b8ff" d="M935.82,-290.35C943.88,-258.77 965,-187.68 1002,-139 1037.45,-92.35 1094.88,-53.6 1128.69,-33.23"/>
<polygon fill="#63b8ff" stroke="#63b8ff" points="1130.24,-36.38 1137.07,-28.28 1126.68,-30.35 1130.24,-36.38"/>
</a>
</g>
</g>
<!-- Node19 -->
<g id="Node000019" class="node">
<title>Node19</title>
<g id="a_Node000019"><a xlink:href="zero-delay-observer_8hpp.html" target="_top" xlink:title="Defines the base class of online zero delay observers. Zero delay observers are the classical state o...">
<polygon fill="white" stroke="#666666" points="843,-254.75 695,-254.75 695,-221.25 843,-221.25 843,-254.75"/>
<text text-anchor="start" x="703" y="-241.25" font-family="Helvetica,sans-Serif" font-size="10.00">state&#45;observation/observer</text>
<text text-anchor="middle" x="769" y="-228.5" font-family="Helvetica,sans-Serif" font-size="10.00">/zero&#45;delay&#45;observer.hpp</text>
</a>
</g>
</g>
<!-- Node18&#45;&gt;Node19 -->
<g id="edge22_Node000018_Node000019" class="edge">
<title>Node18&#45;&gt;Node19</title>
<g id="a_edge22_Node000018_Node000019"><a xlink:title=" ">
<path fill="none" stroke="#63b8ff" d="M892.96,-290.33C870.66,-281.1 842.48,-269.43 818.63,-259.55"/>
<polygon fill="#63b8ff" stroke="#63b8ff" points="819.98,-256.32 809.4,-255.73 817.3,-262.79 819.98,-256.32"/>
</a>
</g>
</g>
<!-- Node22 -->
<g id="Node000022" class="node">
<title>Node22</title>
<g id="a_Node000022"><a xlink:href="state-vector-arithmetics_8hpp_source.html" target="_top" xlink:title=" ">
<polygon fill="white" stroke="#666666" points="954.88,-178.88 797.12,-178.88 797.12,-145.38 954.88,-145.38 954.88,-178.88"/>
<text text-anchor="start" x="805.12" y="-165.38" font-family="Helvetica,sans-Serif" font-size="10.00">state&#45;observation/tools</text>
<text text-anchor="middle" x="876" y="-152.62" font-family="Helvetica,sans-Serif" font-size="10.00">/state&#45;vector&#45;arithmetics.hpp</text>
</a>
</g>
</g>
<!-- Node18&#45;&gt;Node22 -->
<g id="edge30_Node000018_Node000022" class="edge">
<title>Node18&#45;&gt;Node22</title>
<g id="a_edge30_Node000018_Node000022"><a xlink:title=" ">
<path fill="none" stroke="#63b8ff" d="M925.68,-290.33C916.1,-265.78 897.77,-218.86 886.25,-189.38"/>
<polygon fill="#63b8ff" stroke="#63b8ff" points="889.66,-188.47 882.76,-180.43 883.14,-191.01 889.66,-188.47"/>
</a>
</g>
</g>
<!-- Node19&#45;&gt;Node3 -->
<g id="edge24_Node000019_Node000003" class="edge">
<title>Node19&#45;&gt;Node3</title>
<g id="a_edge24_Node000019_Node000003"><a xlink:title=" ">
<path fill="none" stroke="#63b8ff" d="M768.04,-221.06C767.61,-200.15 769.8,-163.26 788,-139 828.49,-85.01 859.54,-92.45 923,-69.5 927.22,-67.97 1032.56,-44.79 1100.14,-29.97"/>
<polygon fill="#63b8ff" stroke="#63b8ff" points="1100.56,-33.46 1109.58,-27.9 1099.06,-26.63 1100.56,-33.46"/>
</a>
</g>
</g>
<!-- Node19&#45;&gt;Node8 -->
<g id="edge23_Node000019_Node000008" class="edge">
<title>Node19&#45;&gt;Node8</title>
<g id="a_edge23_Node000019_Node000008"><a xlink:title=" ">
<path fill="none" stroke="#63b8ff" d="M694.78,-232.97C618.2,-227.39 495.88,-214.44 394,-185.25 258.45,-146.42 108.83,-66.37 49.41,-32.94"/>
<polygon fill="#63b8ff" stroke="#63b8ff" points="51.45,-30.07 41.03,-28.19 48,-36.16 51.45,-30.07"/>
</a>
</g>
</g>
<!-- Node20 -->
<g id="Node000020" class="node">
<title>Node20</title>
<g id="a_Node000020"><a xlink:href="observer-base_8hpp.html" target="_top" xlink:title="Defines the base class of a state observer. The observer is destinated to any dynamical system with a...">
<polygon fill="white" stroke="#666666" points="551,-178.88 403,-178.88 403,-145.38 551,-145.38 551,-178.88"/>
<text text-anchor="start" x="411" y="-165.38" font-family="Helvetica,sans-Serif" font-size="10.00">state&#45;observation/observer</text>
<text text-anchor="middle" x="477" y="-152.62" font-family="Helvetica,sans-Serif" font-size="10.00">/observer&#45;base.hpp</text>
</a>
</g>
</g>
<!-- Node19&#45;&gt;Node20 -->
<g id="edge25_Node000019_Node000020" class="edge">
<title>Node19&#45;&gt;Node20</title>
<g id="a_edge25_Node000019_Node000020"><a xlink:title=" ">
<path fill="none" stroke="#63b8ff" d="M702.1,-220.75C661.04,-210.71 607.43,-197.44 560,-185.25 556.2,-184.27 552.31,-183.26 548.38,-182.24"/>
<polygon fill="#63b8ff" stroke="#63b8ff" points="549.28,-178.86 538.72,-179.71 547.51,-185.63 549.28,-178.86"/>
</a>
</g>
</g>
<!-- Node20&#45;&gt;Node3 -->
<g id="edge28_Node000020_Node000003" class="edge">
<title>Node20&#45;&gt;Node3</title>
<g id="a_edge28_Node000020_Node000003"><a xlink:title=" ">
<path fill="none" stroke="#63b8ff" d="M537.17,-144.92C590.54,-130.29 661.89,-110.02 674,-103 692.63,-92.2 689.43,-78.47 709,-69.5 860.81,0.07 917.99,-59.15 1083,-33.5 1089.57,-32.48 1096.43,-31.24 1103.21,-29.9"/>
<polygon fill="#63b8ff" stroke="#63b8ff" points="1103.89,-33.33 1112.98,-27.89 1102.48,-26.48 1103.89,-33.33"/>
</a>
</g>
</g>
<!-- Node20&#45;&gt;Node6 -->
<g id="edge29_Node000020_Node000006" class="edge">
<title>Node20&#45;&gt;Node6</title>
<g id="a_edge29_Node000020_Node000006"><a xlink:title=" ">
<path fill="none" stroke="#63b8ff" d="M503.99,-144.91C521.38,-134.47 544.2,-120.76 563.23,-109.33"/>
<polygon fill="#63b8ff" stroke="#63b8ff" points="565,-112.35 571.77,-104.2 561.4,-106.35 565,-112.35"/>
</a>
</g>
</g>
<!-- Node20&#45;&gt;Node11 -->
<g id="edge26_Node000020_Node000011" class="edge">
<title>Node20&#45;&gt;Node11</title>
<g id="a_edge26_Node000020_Node000011"><a xlink:title=" ">
<path fill="none" stroke="#63b8ff" d="M435.95,-144.96C363.92,-116.58 215.98,-58.31 148.26,-31.64"/>
<polygon fill="#63b8ff" stroke="#63b8ff" points="149.71,-28.45 139.13,-28.04 147.15,-34.96 149.71,-28.45"/>
</a>
</g>
</g>
<!-- Node21 -->
<g id="Node000021" class="node">
<title>Node21</title>
<g id="a_Node000021"><a xlink:title=" ">
<polygon fill="#e0e0e0" stroke="#999999" points="517.62,-96.62 388.38,-96.62 388.38,-75.88 517.62,-75.88 517.62,-96.62"/>
<text text-anchor="middle" x="453" y="-83.12" font-family="Helvetica,sans-Serif" font-size="10.00">boost/static_assert.hpp</text>
</a>
</g>
</g>
<!-- Node20&#45;&gt;Node21 -->
<g id="edge27_Node000020_Node000021" class="edge">
<title>Node20&#45;&gt;Node21</title>
<g id="a_edge27_Node000020_Node000021"><a xlink:title=" ">
<path fill="none" stroke="#63b8ff" d="M471.79,-145.1C468.19,-134.02 463.38,-119.2 459.53,-107.34"/>
<polygon fill="#63b8ff" stroke="#63b8ff" points="462.96,-106.58 456.54,-98.15 456.3,-108.74 462.96,-106.58"/>
</a>
</g>
</g>
<!-- Node22&#45;&gt;Node3 -->
<g id="edge31_Node000022_Node000003" class="edge">
<title>Node22&#45;&gt;Node3</title>
<g id="a_edge31_Node000022_Node000003"><a xlink:title=" ">
<path fill="none" stroke="#63b8ff" d="M888,-145.02C904.16,-124.47 934.85,-89.23 969,-69.5 991.16,-56.69 1052.91,-40.86 1099.44,-30.1"/>
<polygon fill="#63b8ff" stroke="#63b8ff" points="1100.16,-33.52 1109.13,-27.88 1098.6,-26.7 1100.16,-33.52"/>
</a>
</g>
</g>
<!-- Node22&#45;&gt;Node6 -->
<g id="edge32_Node000022_Node000006" class="edge">
<title>Node22&#45;&gt;Node6</title>
<g id="a_edge32_Node000022_Node000006"><a xlink:title=" ">
<path fill="none" stroke="#63b8ff" d="M815.43,-144.91C773.01,-133.56 716.15,-118.34 671.5,-106.39"/>
<polygon fill="#63b8ff" stroke="#63b8ff" points="672.46,-103.02 661.89,-103.82 670.65,-109.78 672.46,-103.02"/>
</a>
</g>
</g>
<!-- Node23&#45;&gt;Node3 -->
<g id="edge34_Node000023_Node000003" class="edge">
<title>Node23&#45;&gt;Node3</title>
<g id="a_edge34_Node000023_Node000003"><a xlink:title=" ">
<path fill="none" stroke="#63b8ff" d="M676.36,-138.55C699.99,-114.13 737.09,-77.62 755,-69.5 888.58,-8.96 938.24,-57 1083,-33.5 1089.48,-32.45 1096.25,-31.2 1102.94,-29.87"/>
<polygon fill="#63b8ff" stroke="#63b8ff" points="1103.49,-33.33 1112.58,-27.88 1102.08,-26.47 1103.49,-33.33"/>
</a>
</g>
</g>
<!-- Node23&#45;&gt;Node6 -->
<g id="edge35_Node000023_Node000006" class="edge">
<title>Node23&#45;&gt;Node6</title>
<g id="a_edge35_Node000023_Node000006"><a xlink:title=" ">
<path fill="none" stroke="#63b8ff" d="M638.2,-138.56C632.05,-130.3 625.05,-120.9 618.74,-112.42"/>
<polygon fill="#63b8ff" stroke="#63b8ff" points="621.67,-110.5 612.89,-104.57 616.06,-114.68 621.67,-110.5"/>
</a>
</g>
</g>
</g>
</svg>
