<?xml version="1.0" encoding="UTF-8" standalone="no"?>
<!DOCTYPE svg PUBLIC "-//W3C//DTD SVG 1.1//EN"
 "http://www.w3.org/Graphics/SVG/1.1/DTD/svg11.dtd">
<!-- Generated by graphviz version 12.2.1 (0)
 -->
<!-- Title: /build/source/include/state&#45;observation/tools/hrp2.hpp Pages: 1 -->
<svg width="581pt" height="111pt"
 viewBox="0.00 0.00 580.62 111.00" xmlns="http://www.w3.org/2000/svg" xmlns:xlink="http://www.w3.org/1999/xlink">
<g id="graph0" class="graph" transform="scale(1 1) rotate(0) translate(4 107)">
<title>/build/source/include/state&#45;observation/tools/hrp2.hpp</title>
<!-- Node1 -->
<g id="Node000001" class="node">
<title>Node1</title>
<g id="a_Node000001"><a xlink:title="Definitions of Hrp2 constants.">
<polygon fill="#999999" stroke="#666666" points="293.12,-103 160.88,-103 160.88,-56.75 293.12,-56.75 293.12,-103"/>
<text text-anchor="start" x="168.88" y="-89.5" font-family="Helvetica,sans-Serif" font-size="10.00">/build/source/include</text>
<text text-anchor="start" x="168.88" y="-76.75" font-family="Helvetica,sans-Serif" font-size="10.00">/state&#45;observation/tools</text>
<text text-anchor="middle" x="227" y="-64" font-family="Helvetica,sans-Serif" font-size="10.00">/hrp2.hpp</text>
</a>
</g>
</g>
<!-- Node2 -->
<g id="Node000002" class="node">
<title>Node2</title>
<g id="a_Node000002"><a xlink:title=" ">
<polygon fill="#e0e0e0" stroke="#999999" points="46,-20.75 0,-20.75 0,0 46,0 46,-20.75"/>
<text text-anchor="middle" x="23" y="-7.25" font-family="Helvetica,sans-Serif" font-size="10.00">deque</text>
</a>
</g>
</g>
<!-- Node1&#45;&gt;Node2 -->
<g id="edge1_Node000001_Node000002" class="edge">
<title>Node1&#45;&gt;Node2</title>
<g id="a_edge1_Node000001_Node000002"><a xlink:title=" ">
<path fill="none" stroke="#63b8ff" d="M160.49,-56.87C125.94,-45.44 85.2,-31.96 57.08,-22.65"/>
<polygon fill="#63b8ff" stroke="#63b8ff" points="58.26,-19.35 47.66,-19.54 56.06,-26 58.26,-19.35"/>
</a>
</g>
</g>
<!-- Node3 -->
<g id="Node000003" class="node">
<title>Node3</title>
<g id="a_Node000003"><a xlink:title=" ">
<polygon fill="#e0e0e0" stroke="#999999" points="110.38,-20.75 63.62,-20.75 63.62,0 110.38,0 110.38,-20.75"/>
<text text-anchor="middle" x="87" y="-7.25" font-family="Helvetica,sans-Serif" font-size="10.00">vector</text>
</a>
</g>
</g>
<!-- Node1&#45;&gt;Node3 -->
<g id="edge2_Node000001_Node000003" class="edge">
<title>Node1&#45;&gt;Node3</title>
<g id="a_edge2_Node000001_Node000003"><a xlink:title=" ">
<path fill="none" stroke="#63b8ff" d="M180.38,-56.4C159.64,-46.4 135.79,-34.9 117.39,-26.03"/>
<polygon fill="#63b8ff" stroke="#63b8ff" points="119.15,-22.99 108.62,-21.8 116.11,-29.29 119.15,-22.99"/>
</a>
</g>
</g>
<!-- Node4 -->
<g id="Node000004" class="node">
<title>Node4</title>
<g id="a_Node000004"><a xlink:title=" ">
<polygon fill="#e0e0e0" stroke="#999999" points="225.5,-20.75 128.5,-20.75 128.5,0 225.5,0 225.5,-20.75"/>
<text text-anchor="middle" x="177" y="-7.25" font-family="Helvetica,sans-Serif" font-size="10.00">boost/assert.hpp</text>
</a>
</g>
</g>
<!-- Node1&#45;&gt;Node4 -->
<g id="edge3_Node000001_Node000004" class="edge">
<title>Node1&#45;&gt;Node4</title>
<g id="a_edge3_Node000001_Node000004"><a xlink:title=" ">
<path fill="none" stroke="#63b8ff" d="M210.35,-56.4C204.05,-47.89 196.95,-38.31 190.92,-30.17"/>
<polygon fill="#63b8ff" stroke="#63b8ff" points="193.9,-28.31 185.13,-22.36 188.27,-32.48 193.9,-28.31"/>
</a>
</g>
</g>
<!-- Node5 -->
<g id="Node000005" class="node">
<title>Node5</title>
<g id="a_Node000005"><a xlink:title=" ">
<polygon fill="#e0e0e0" stroke="#999999" points="312.25,-20.75 243.75,-20.75 243.75,0 312.25,0 312.25,-20.75"/>
<text text-anchor="middle" x="278" y="-7.25" font-family="Helvetica,sans-Serif" font-size="10.00">Eigen/Core</text>
</a>
</g>
</g>
<!-- Node1&#45;&gt;Node5 -->
<g id="edge4_Node000001_Node000005" class="edge">
<title>Node1&#45;&gt;Node5</title>
<g id="a_edge4_Node000001_Node000005"><a xlink:title=" ">
<path fill="none" stroke="#63b8ff" d="M243.98,-56.4C250.41,-47.89 257.65,-38.31 263.8,-30.17"/>
<polygon fill="#63b8ff" stroke="#63b8ff" points="266.47,-32.44 269.71,-22.35 260.89,-28.22 266.47,-32.44"/>
</a>
</g>
</g>
<!-- Node6 -->
<g id="Node000006" class="node">
<title>Node6</title>
<g id="a_Node000006"><a xlink:title=" ">
<polygon fill="#e0e0e0" stroke="#999999" points="425.38,-20.75 330.62,-20.75 330.62,0 425.38,0 425.38,-20.75"/>
<text text-anchor="middle" x="378" y="-7.25" font-family="Helvetica,sans-Serif" font-size="10.00">Eigen/Geometry</text>
</a>
</g>
</g>
<!-- Node1&#45;&gt;Node6 -->
<g id="edge5_Node000001_Node000006" class="edge">
<title>Node1&#45;&gt;Node6</title>
<g id="a_edge5_Node000001_Node000006"><a xlink:title=" ">
<path fill="none" stroke="#63b8ff" d="M277.28,-56.4C299.87,-46.3 325.85,-34.69 345.77,-25.78"/>
<polygon fill="#63b8ff" stroke="#63b8ff" points="347.07,-29.03 354.77,-21.76 344.21,-22.64 347.07,-29.03"/>
</a>
</g>
</g>
<!-- Node7 -->
<g id="Node000007" class="node">
<title>Node7</title>
<g id="a_Node000007"><a xlink:title=" ">
<polygon fill="#e0e0e0" stroke="#999999" points="572.62,-20.75 443.38,-20.75 443.38,0 572.62,0 572.62,-20.75"/>
<text text-anchor="middle" x="508" y="-7.25" font-family="Helvetica,sans-Serif" font-size="10.00">state&#45;observation/api.h</text>
</a>
</g>
</g>
<!-- Node1&#45;&gt;Node7 -->
<g id="edge6_Node000001_Node000007" class="edge">
<title>Node1&#45;&gt;Node7</title>
<g id="a_edge6_Node000001_Node000007"><a xlink:title=" ">
<path fill="none" stroke="#63b8ff" d="M293.59,-62.88C343.27,-50.95 410.17,-34.88 455.95,-23.88"/>
<polygon fill="#63b8ff" stroke="#63b8ff" points="456.73,-27.29 465.64,-21.55 455.1,-20.48 456.73,-27.29"/>
</a>
</g>
</g>
</g>
</svg>
