<?xml version="1.0" encoding="UTF-8" standalone="no"?>
<!DOCTYPE svg PUBLIC "-//W3C//DTD SVG 1.1//EN"
 "http://www.w3.org/Graphics/SVG/1.1/DTD/svg11.dtd">
<!-- Generated by graphviz version 12.2.1 (0)
 -->
<!-- Title: /build/source/include/state&#45;observation/dynamical&#45;system/imu&#45;dynamical&#45;system.hpp Pages: 1 -->
<svg width="1816pt" height="497pt"
 viewBox="0.00 0.00 1816.42 496.75" xmlns="http://www.w3.org/2000/svg" xmlns:xlink="http://www.w3.org/1999/xlink">
<g id="graph0" class="graph" transform="scale(1 1) rotate(0) translate(4 492.75)">
<title>/build/source/include/state&#45;observation/dynamical&#45;system/imu&#45;dynamical&#45;system.hpp</title>
<!-- Node1 -->
<g id="Node000001" class="node">
<title>Node1</title>
<g id="a_Node000001"><a xlink:title="The file describes the dynamical system defined by an inertial measurement unit (IMU) fixed on a rigi...">
<polygon fill="#999999" stroke="#666666" points="1030,-488.75 837,-488.75 837,-442.5 1030,-442.5 1030,-488.75"/>
<text text-anchor="start" x="845" y="-475.25" font-family="Helvetica,sans-Serif" font-size="10.00">/build/source/include</text>
<text text-anchor="start" x="845" y="-462.5" font-family="Helvetica,sans-Serif" font-size="10.00">/state&#45;observation/dynamical</text>
<text text-anchor="middle" x="933.5" y="-449.75" font-family="Helvetica,sans-Serif" font-size="10.00">&#45;system/imu&#45;dynamical&#45;system.hpp</text>
</a>
</g>
</g>
<!-- Node2 -->
<g id="Node000002" class="node">
<title>Node2</title>
<g id="a_Node000002"><a xlink:title=" ">
<polygon fill="#e0e0e0" stroke="#999999" points="1221.12,-27.12 1091.88,-27.12 1091.88,-6.38 1221.12,-6.38 1221.12,-27.12"/>
<text text-anchor="middle" x="1156.5" y="-13.62" font-family="Helvetica,sans-Serif" font-size="10.00">state&#45;observation/api.h</text>
</a>
</g>
</g>
<!-- Node1&#45;&gt;Node2 -->
<g id="edge1_Node000001_Node000002" class="edge">
<title>Node1&#45;&gt;Node2</title>
<g id="a_edge1_Node000001_Node000002"><a xlink:title=" ">
<path fill="none" stroke="#63b8ff" d="M1009.18,-442.01C1068.65,-419.03 1141.5,-376.91 1141.5,-308.5 1141.5,-308.5 1141.5,-308.5 1141.5,-161.12 1141.5,-117.28 1148.52,-66.31 1152.96,-38.49"/>
<polygon fill="#63b8ff" stroke="#63b8ff" points="1156.36,-39.38 1154.53,-28.94 1149.45,-38.24 1156.36,-39.38"/>
</a>
</g>
</g>
<!-- Node3 -->
<g id="Node000003" class="node">
<title>Node3</title>
<g id="a_Node000003"><a xlink:href="dynamical-system-functor-base_8hpp_source.html" target="_top" xlink:title=" ">
<polygon fill="white" stroke="#666666" points="460.62,-185.25 304.38,-185.25 304.38,-139 460.62,-139 460.62,-185.25"/>
<text text-anchor="start" x="312.38" y="-171.75" font-family="Helvetica,sans-Serif" font-size="10.00">state&#45;observation/dynamical</text>
<text text-anchor="start" x="312.38" y="-159" font-family="Helvetica,sans-Serif" font-size="10.00">&#45;system/dynamical&#45;system</text>
<text text-anchor="middle" x="382.5" y="-146.25" font-family="Helvetica,sans-Serif" font-size="10.00">&#45;functor&#45;base.hpp</text>
</a>
</g>
</g>
<!-- Node1&#45;&gt;Node3 -->
<g id="edge2_Node000001_Node000003" class="edge">
<title>Node1&#45;&gt;Node3</title>
<g id="a_edge2_Node000001_Node000003"><a xlink:title=" ">
<path fill="none" stroke="#63b8ff" d="M836.6,-451.31C701.42,-430.71 466.38,-386.85 409.5,-324.25 378.14,-289.74 375.93,-233.09 378.35,-196.98"/>
<polygon fill="#63b8ff" stroke="#63b8ff" points="381.83,-197.35 379.19,-187.1 374.86,-196.76 381.83,-197.35"/>
</a>
</g>
</g>
<!-- Node16 -->
<g id="Node000016" class="node">
<title>Node16</title>
<g id="a_Node000016"><a xlink:href="noise-base_8hpp.html" target="_top" xlink:title=" ">
<polygon fill="white" stroke="#666666" points="999.25,-178.88 867.75,-178.88 867.75,-145.38 999.25,-145.38 999.25,-178.88"/>
<text text-anchor="start" x="875.75" y="-165.38" font-family="Helvetica,sans-Serif" font-size="10.00">state&#45;observation/noise</text>
<text text-anchor="middle" x="933.5" y="-152.62" font-family="Helvetica,sans-Serif" font-size="10.00">/noise&#45;base.hpp</text>
</a>
</g>
</g>
<!-- Node1&#45;&gt;Node16 -->
<g id="edge17_Node000001_Node000016" class="edge">
<title>Node1&#45;&gt;Node16</title>
<g id="a_edge17_Node000001_Node000016"><a xlink:title=" ">
<path fill="none" stroke="#63b8ff" d="M933.5,-442.45C933.5,-388.37 933.5,-249.77 933.5,-190.58"/>
<polygon fill="#63b8ff" stroke="#63b8ff" points="937,-190.73 933.5,-180.73 930,-190.73 937,-190.73"/>
</a>
</g>
</g>
<!-- Node17 -->
<g id="Node000017" class="node">
<title>Node17</title>
<g id="a_Node000017"><a xlink:href="accelerometer-gyrometer_8hpp.html" target="_top" xlink:title="Implements the accelerometer&#45;gyrometer inertial measuremen.">
<polygon fill="white" stroke="#666666" points="890,-406.5 745,-406.5 745,-360.25 890,-360.25 890,-406.5"/>
<text text-anchor="start" x="753" y="-393" font-family="Helvetica,sans-Serif" font-size="10.00">state&#45;observation/sensors</text>
<text text-anchor="start" x="753" y="-380.25" font-family="Helvetica,sans-Serif" font-size="10.00">&#45;simulation/accelerometer</text>
<text text-anchor="middle" x="817.5" y="-367.5" font-family="Helvetica,sans-Serif" font-size="10.00">&#45;gyrometer.hpp</text>
</a>
</g>
</g>
<!-- Node1&#45;&gt;Node17 -->
<g id="edge20_Node000001_Node000017" class="edge">
<title>Node1&#45;&gt;Node17</title>
<g id="a_edge20_Node000001_Node000017"><a xlink:title=" ">
<path fill="none" stroke="#63b8ff" d="M900.88,-442.06C887.92,-433.09 872.86,-422.67 859.13,-413.17"/>
<polygon fill="#63b8ff" stroke="#63b8ff" points="861.34,-410.45 851.12,-407.63 857.35,-416.2 861.34,-410.45"/>
</a>
</g>
</g>
<!-- Node22 -->
<g id="Node000022" class="node">
<title>Node22</title>
<g id="a_Node000022"><a xlink:href="rigid-body-kinematics_8hpp.html" target="_top" xlink:title="Implements integrators for the kinematics, in terms or rotations and translations.">
<polygon fill="white" stroke="#666666" points="1411.12,-254.75 1263.88,-254.75 1263.88,-221.25 1411.12,-221.25 1411.12,-254.75"/>
<text text-anchor="start" x="1271.88" y="-241.25" font-family="Helvetica,sans-Serif" font-size="10.00">state&#45;observation/tools</text>
<text text-anchor="middle" x="1337.5" y="-228.5" font-family="Helvetica,sans-Serif" font-size="10.00">/rigid&#45;body&#45;kinematics.hpp</text>
</a>
</g>
</g>
<!-- Node1&#45;&gt;Node22 -->
<g id="edge39_Node000001_Node000022" class="edge">
<title>Node1&#45;&gt;Node22</title>
<g id="a_edge39_Node000001_Node000022"><a xlink:title=" ">
<path fill="none" stroke="#63b8ff" d="M1030.23,-449.97C1070.64,-441.2 1117.04,-427.51 1155.5,-406.5 1223.94,-369.11 1286.87,-300.47 1317.66,-263.74"/>
<polygon fill="#63b8ff" stroke="#63b8ff" points="1320.15,-266.23 1323.82,-256.29 1314.75,-261.77 1320.15,-266.23"/>
</a>
</g>
</g>
<!-- Node3&#45;&gt;Node2 -->
<g id="edge3_Node000003_Node000002" class="edge">
<title>Node3&#45;&gt;Node2</title>
<g id="a_edge3_Node000003_Node000002"><a xlink:title=" ">
<path fill="none" stroke="#63b8ff" d="M460.69,-140.93C463.66,-140.26 466.6,-139.61 469.5,-139 562.56,-119.26 596.16,-147.01 680.5,-103 699.03,-93.33 694.64,-78.5 713.5,-69.5 787.86,-34.03 1001.08,-46.1 1082.5,-33.5 1089.23,-32.46 1096.28,-31.19 1103.23,-29.84"/>
<polygon fill="#63b8ff" stroke="#63b8ff" points="1103.8,-33.29 1112.9,-27.87 1102.41,-26.43 1103.8,-33.29"/>
</a>
</g>
</g>
<!-- Node4 -->
<g id="Node000004" class="node">
<title>Node4</title>
<g id="a_Node000004"><a xlink:href="definitions_8hpp.html" target="_top" xlink:title="Definitions of types and some structures.">
<polygon fill="white" stroke="#666666" points="671.12,-103 541.88,-103 541.88,-69.5 671.12,-69.5 671.12,-103"/>
<text text-anchor="start" x="549.88" y="-89.5" font-family="Helvetica,sans-Serif" font-size="10.00">state&#45;observation/tools</text>
<text text-anchor="middle" x="606.5" y="-76.75" font-family="Helvetica,sans-Serif" font-size="10.00">/definitions.hpp</text>
</a>
</g>
</g>
<!-- Node3&#45;&gt;Node4 -->
<g id="edge4_Node000003_Node000004" class="edge">
<title>Node3&#45;&gt;Node4</title>
<g id="a_edge4_Node000003_Node000004"><a xlink:title=" ">
<path fill="none" stroke="#63b8ff" d="M450.92,-138.56C481.52,-128.47 517.25,-116.68 546.76,-106.95"/>
<polygon fill="#63b8ff" stroke="#63b8ff" points="547.48,-110.4 555.88,-103.94 545.29,-103.75 547.48,-110.4"/>
</a>
</g>
</g>
<!-- Node4&#45;&gt;Node2 -->
<g id="edge14_Node000004_Node000002" class="edge">
<title>Node4&#45;&gt;Node2</title>
<g id="a_edge14_Node000004_Node000002"><a xlink:title=" ">
<path fill="none" stroke="#63b8ff" d="M671.5,-71.72C676.23,-70.91 680.93,-70.16 685.5,-69.5 860.84,-44.14 907.32,-59.99 1082.5,-33.5 1089.24,-32.48 1096.28,-31.23 1103.23,-29.88"/>
<polygon fill="#63b8ff" stroke="#63b8ff" points="1103.81,-33.33 1112.91,-27.92 1102.42,-26.47 1103.81,-33.33"/>
</a>
</g>
</g>
<!-- Node5 -->
<g id="Node000005" class="node">
<title>Node5</title>
<g id="a_Node000005"><a xlink:title=" ">
<polygon fill="#e0e0e0" stroke="#999999" points="927,-27.12 878,-27.12 878,-6.38 927,-6.38 927,-27.12"/>
<text text-anchor="middle" x="902.5" y="-13.62" font-family="Helvetica,sans-Serif" font-size="10.00">chrono</text>
</a>
</g>
</g>
<!-- Node4&#45;&gt;Node5 -->
<g id="edge5_Node000004_Node000005" class="edge">
<title>Node4&#45;&gt;Node5</title>
<g id="a_edge5_Node000004_Node000005"><a xlink:title=" ">
<path fill="none" stroke="#63b8ff" d="M671.59,-72.25C676.3,-71.32 680.97,-70.39 685.5,-69.5 767.25,-53.35 790.38,-59.65 869.5,-33.5 870.86,-33.05 872.23,-32.56 873.6,-32.04"/>
<polygon fill="#63b8ff" stroke="#63b8ff" points="874.79,-35.34 882.6,-28.18 872.03,-28.9 874.79,-35.34"/>
</a>
</g>
</g>
<!-- Node6 -->
<g id="Node000006" class="node">
<title>Node6</title>
<g id="a_Node000006"><a xlink:title=" ">
<polygon fill="#e0e0e0" stroke="#999999" points="991.5,-27.12 945.5,-27.12 945.5,-6.38 991.5,-6.38 991.5,-27.12"/>
<text text-anchor="middle" x="968.5" y="-13.62" font-family="Helvetica,sans-Serif" font-size="10.00">deque</text>
</a>
</g>
</g>
<!-- Node4&#45;&gt;Node6 -->
<g id="edge6_Node000004_Node000006" class="edge">
<title>Node4&#45;&gt;Node6</title>
<g id="a_edge6_Node000004_Node000006"><a xlink:title=" ">
<path fill="none" stroke="#63b8ff" d="M671.55,-71.99C676.26,-71.12 680.95,-70.28 685.5,-69.5 796.58,-50.48 828.83,-66.8 936.5,-33.5 937.86,-33.08 939.24,-32.6 940.62,-32.09"/>
<polygon fill="#63b8ff" stroke="#63b8ff" points="941.8,-35.4 949.58,-28.21 939.01,-28.97 941.8,-35.4"/>
</a>
</g>
</g>
<!-- Node7 -->
<g id="Node000007" class="node">
<title>Node7</title>
<g id="a_Node000007"><a xlink:title=" ">
<polygon fill="#e0e0e0" stroke="#999999" points="1073.5,-27.12 1009.5,-27.12 1009.5,-6.38 1073.5,-6.38 1073.5,-27.12"/>
<text text-anchor="middle" x="1041.5" y="-13.62" font-family="Helvetica,sans-Serif" font-size="10.00">stdexcept</text>
</a>
</g>
</g>
<!-- Node4&#45;&gt;Node7 -->
<g id="edge7_Node000004_Node000007" class="edge">
<title>Node4&#45;&gt;Node7</title>
<g id="a_edge7_Node000004_Node000007"><a xlink:title=" ">
<path fill="none" stroke="#63b8ff" d="M671.52,-71.84C676.24,-71.01 680.94,-70.21 685.5,-69.5 824.72,-47.71 863.64,-67.03 1000.5,-33.5 1003.12,-32.86 1005.81,-32.09 1008.48,-31.25"/>
<polygon fill="#63b8ff" stroke="#63b8ff" points="1009.57,-34.58 1017.84,-27.96 1007.25,-27.97 1009.57,-34.58"/>
</a>
</g>
</g>
<!-- Node8 -->
<g id="Node000008" class="node">
<title>Node8</title>
<g id="a_Node000008"><a xlink:title=" ">
<polygon fill="#e0e0e0" stroke="#999999" points="248.88,-27.12 202.12,-27.12 202.12,-6.38 248.88,-6.38 248.88,-27.12"/>
<text text-anchor="middle" x="225.5" y="-13.62" font-family="Helvetica,sans-Serif" font-size="10.00">vector</text>
</a>
</g>
</g>
<!-- Node4&#45;&gt;Node8 -->
<g id="edge8_Node000004_Node000008" class="edge">
<title>Node4&#45;&gt;Node8</title>
<g id="a_edge8_Node000004_Node000008"><a xlink:title=" ">
<path fill="none" stroke="#63b8ff" d="M541.48,-81.64C470.37,-76.31 353.69,-63.5 257.5,-33.5 256.14,-33.07 254.76,-32.6 253.38,-32.08"/>
<polygon fill="#63b8ff" stroke="#63b8ff" points="254.99,-28.97 244.42,-28.2 252.2,-35.39 254.99,-28.97"/>
</a>
</g>
</g>
<!-- Node9 -->
<g id="Node000009" class="node">
<title>Node9</title>
<g id="a_Node000009"><a xlink:title=" ">
<polygon fill="#e0e0e0" stroke="#999999" points="97,-27.12 0,-27.12 0,-6.38 97,-6.38 97,-27.12"/>
<text text-anchor="middle" x="48.5" y="-13.62" font-family="Helvetica,sans-Serif" font-size="10.00">boost/assert.hpp</text>
</a>
</g>
</g>
<!-- Node4&#45;&gt;Node9 -->
<g id="edge9_Node000004_Node000009" class="edge">
<title>Node4&#45;&gt;Node9</title>
<g id="a_edge9_Node000004_Node000009"><a xlink:title=" ">
<path fill="none" stroke="#63b8ff" d="M541.69,-81.9C445.9,-76.2 261.14,-62.3 106.5,-33.5 101.83,-32.63 96.98,-31.57 92.17,-30.42"/>
<polygon fill="#63b8ff" stroke="#63b8ff" points="93.13,-27.05 82.57,-27.97 91.4,-33.83 93.13,-27.05"/>
</a>
</g>
</g>
<!-- Node10 -->
<g id="Node000010" class="node">
<title>Node10</title>
<g id="a_Node000010"><a xlink:title=" ">
<polygon fill="#e0e0e0" stroke="#999999" points="388.38,-27.12 266.62,-27.12 266.62,-6.38 388.38,-6.38 388.38,-27.12"/>
<text text-anchor="middle" x="327.5" y="-13.62" font-family="Helvetica,sans-Serif" font-size="10.00">boost/timer/timer.hpp</text>
</a>
</g>
</g>
<!-- Node4&#45;&gt;Node10 -->
<g id="edge10_Node000004_Node000010" class="edge">
<title>Node4&#45;&gt;Node10</title>
<g id="a_edge10_Node000004_Node000010"><a xlink:title=" ">
<path fill="none" stroke="#63b8ff" d="M541.44,-69.51C492.01,-57.55 424.94,-41.32 379.16,-30.25"/>
<polygon fill="#63b8ff" stroke="#63b8ff" points="380.02,-26.85 369.47,-27.9 378.37,-33.66 380.02,-26.85"/>
</a>
</g>
</g>
<!-- Node11 -->
<g id="Node000011" class="node">
<title>Node11</title>
<g id="a_Node000011"><a xlink:title=" ">
<polygon fill="#e0e0e0" stroke="#999999" points="183.75,-27.12 115.25,-27.12 115.25,-6.38 183.75,-6.38 183.75,-27.12"/>
<text text-anchor="middle" x="149.5" y="-13.62" font-family="Helvetica,sans-Serif" font-size="10.00">Eigen/Core</text>
</a>
</g>
</g>
<!-- Node4&#45;&gt;Node11 -->
<g id="edge11_Node000004_Node000011" class="edge">
<title>Node4&#45;&gt;Node11</title>
<g id="a_edge11_Node000004_Node000011"><a xlink:title=" ">
<path fill="none" stroke="#63b8ff" d="M541.69,-81.53C459.7,-75.83 314.57,-62.39 193.5,-33.5 190.57,-32.8 187.56,-31.97 184.56,-31.07"/>
<polygon fill="#63b8ff" stroke="#63b8ff" points="185.91,-27.83 175.32,-28.02 183.72,-34.48 185.91,-27.83"/>
</a>
</g>
</g>
<!-- Node12 -->
<g id="Node000012" class="node">
<title>Node12</title>
<g id="a_Node000012"><a xlink:title=" ">
<polygon fill="#e0e0e0" stroke="#999999" points="500.88,-27.12 406.12,-27.12 406.12,-6.38 500.88,-6.38 500.88,-27.12"/>
<text text-anchor="middle" x="453.5" y="-13.62" font-family="Helvetica,sans-Serif" font-size="10.00">Eigen/Geometry</text>
</a>
</g>
</g>
<!-- Node4&#45;&gt;Node12 -->
<g id="edge12_Node000004_Node000012" class="edge">
<title>Node4&#45;&gt;Node12</title>
<g id="a_edge12_Node000004_Node000012"><a xlink:title=" ">
<path fill="none" stroke="#63b8ff" d="M569.85,-69.08C544.29,-57.8 510.48,-42.89 485.9,-32.04"/>
<polygon fill="#63b8ff" stroke="#63b8ff" points="487.59,-28.97 477.03,-28.13 484.77,-35.37 487.59,-28.97"/>
</a>
</g>
</g>
<!-- Node13 -->
<g id="Node000013" class="node">
<title>Node13</title>
<g id="a_Node000013"><a xlink:title=" ">
<polygon fill="#e0e0e0" stroke="#999999" points="640.38,-33.5 518.62,-33.5 518.62,0 640.38,0 640.38,-33.5"/>
<text text-anchor="start" x="526.62" y="-20" font-family="Helvetica,sans-Serif" font-size="10.00">boost/math/constants</text>
<text text-anchor="middle" x="579.5" y="-7.25" font-family="Helvetica,sans-Serif" font-size="10.00">/constants.hpp</text>
</a>
</g>
</g>
<!-- Node4&#45;&gt;Node13 -->
<g id="edge13_Node000004_Node000013" class="edge">
<title>Node4&#45;&gt;Node13</title>
<g id="a_edge13_Node000004_Node000013"><a xlink:title=" ">
<path fill="none" stroke="#63b8ff" d="M600.1,-69.25C597.11,-61.77 593.47,-52.66 590.08,-44.2"/>
<polygon fill="#63b8ff" stroke="#63b8ff" points="593.38,-43.02 586.41,-35.04 586.88,-45.62 593.38,-43.02"/>
</a>
</g>
</g>
<!-- Node14 -->
<g id="Node000014" class="node">
<title>Node14</title>
<g id="a_Node000014"><a xlink:title=" ">
<polygon fill="#e0e0e0" stroke="#999999" points="712.62,-27.12 658.38,-27.12 658.38,-6.38 712.62,-6.38 712.62,-27.12"/>
<text text-anchor="middle" x="685.5" y="-13.62" font-family="Helvetica,sans-Serif" font-size="10.00">fstream</text>
</a>
</g>
</g>
<!-- Node4&#45;&gt;Node14 -->
<g id="edge15_Node000004_Node000014" class="edge">
<title>Node4&#45;&gt;Node14</title>
<g id="a_edge15_Node000004_Node000014"><a xlink:title=" ">
<path fill="none" stroke="#63b8ff" d="M625.22,-69.25C637.29,-58.94 652.98,-45.53 665.33,-34.98"/>
<polygon fill="#63b8ff" stroke="#63b8ff" points="667.52,-37.71 672.85,-28.56 662.98,-32.39 667.52,-37.71"/>
</a>
</g>
</g>
<!-- Node15 -->
<g id="Node000015" class="node">
<title>Node15</title>
<g id="a_Node000015"><a xlink:title=" ">
<polygon fill="#e0e0e0" stroke="#999999" points="860.12,-33.5 730.88,-33.5 730.88,0 860.12,0 860.12,-33.5"/>
<text text-anchor="start" x="738.88" y="-20" font-family="Helvetica,sans-Serif" font-size="10.00">state&#45;observation/tools</text>
<text text-anchor="middle" x="795.5" y="-7.25" font-family="Helvetica,sans-Serif" font-size="10.00">/definitions.hxx</text>
</a>
</g>
</g>
<!-- Node4&#45;&gt;Node15 -->
<g id="edge16_Node000004_Node000015" class="edge">
<title>Node4&#45;&gt;Node15</title>
<g id="a_edge16_Node000004_Node000015"><a xlink:title=" ">
<path fill="none" stroke="#63b8ff" d="M651.77,-69.08C678.09,-59.68 711.48,-47.76 739.45,-37.77"/>
<polygon fill="#63b8ff" stroke="#63b8ff" points="740.61,-41.07 748.85,-34.41 738.25,-34.48 740.61,-41.07"/>
</a>
</g>
</g>
<!-- Node16&#45;&gt;Node2 -->
<g id="edge18_Node000016_Node000002" class="edge">
<title>Node16&#45;&gt;Node2</title>
<g id="a_edge18_Node000016_Node000002"><a xlink:title=" ">
<path fill="none" stroke="#63b8ff" d="M943.77,-144.98C957.42,-124.72 983.35,-90.13 1013.5,-69.5 1039.95,-51.4 1073.47,-38.83 1101.4,-30.62"/>
<polygon fill="#63b8ff" stroke="#63b8ff" points="1102.07,-34.06 1110.75,-27.98 1100.17,-27.33 1102.07,-34.06"/>
</a>
</g>
</g>
<!-- Node16&#45;&gt;Node4 -->
<g id="edge19_Node000016_Node000004" class="edge">
<title>Node16&#45;&gt;Node4</title>
<g id="a_edge19_Node000016_Node000004"><a xlink:title=" ">
<path fill="none" stroke="#63b8ff" d="M881.51,-144.95C874.15,-142.84 866.65,-140.8 859.5,-139 800.58,-124.2 733.15,-110.57 682.73,-101.01"/>
<polygon fill="#63b8ff" stroke="#63b8ff" points="683.56,-97.61 673.08,-99.2 682.26,-104.49 683.56,-97.61"/>
</a>
</g>
</g>
<!-- Node17&#45;&gt;Node2 -->
<g id="edge23_Node000017_Node000002" class="edge">
<title>Node17&#45;&gt;Node2</title>
<g id="a_edge23_Node000017_Node000002"><a xlink:title=" ">
<path fill="none" stroke="#63b8ff" d="M890.41,-376.96C975.14,-366.23 1103.5,-334.26 1103.5,-239 1103.5,-239 1103.5,-239 1103.5,-161.12 1103.5,-114.24 1128.74,-63.79 1144.38,-37.02"/>
<polygon fill="#63b8ff" stroke="#63b8ff" points="1147.25,-39.04 1149.43,-28.67 1141.26,-35.42 1147.25,-39.04"/>
</a>
</g>
</g>
<!-- Node17&#45;&gt;Node9 -->
<g id="edge21_Node000017_Node000009" class="edge">
<title>Node17&#45;&gt;Node9</title>
<g id="a_edge21_Node000017_Node000009"><a xlink:title=" ">
<path fill="none" stroke="#63b8ff" d="M744.7,-381.87C612.72,-379.81 340.04,-369.97 258.5,-324.25 140.84,-258.27 75.28,-95.56 55.21,-38.18"/>
<polygon fill="#63b8ff" stroke="#63b8ff" points="58.64,-37.38 52.1,-29.04 52.01,-39.63 58.64,-37.38"/>
</a>
</g>
</g>
<!-- Node17&#45;&gt;Node11 -->
<g id="edge22_Node000017_Node000011" class="edge">
<title>Node17&#45;&gt;Node11</title>
<g id="a_edge22_Node000017_Node000011"><a xlink:title=" ">
<path fill="none" stroke="#63b8ff" d="M744.84,-379.05C662.03,-373.65 523.41,-359.73 409.5,-324.25 328.42,-298.99 238.5,-323.92 238.5,-239 238.5,-239 238.5,-239 238.5,-161.12 238.5,-117.37 226.69,-105.96 202.5,-69.5 193.92,-56.57 181.66,-44.33 171.08,-35.01"/>
<polygon fill="#63b8ff" stroke="#63b8ff" points="173.41,-32.39 163.52,-28.6 168.89,-37.73 173.41,-32.39"/>
</a>
</g>
</g>
<!-- Node18 -->
<g id="Node000018" class="node">
<title>Node18</title>
<g id="a_Node000018"><a xlink:href="algebraic-sensor_8hpp.html" target="_top" xlink:title="Gives a base class for algebraic sensors.">
<polygon fill="white" stroke="#666666" points="594.38,-324.25 418.62,-324.25 418.62,-290.75 594.38,-290.75 594.38,-324.25"/>
<text text-anchor="start" x="426.62" y="-310.75" font-family="Helvetica,sans-Serif" font-size="10.00">state&#45;observation/sensors</text>
<text text-anchor="middle" x="506.5" y="-298" font-family="Helvetica,sans-Serif" font-size="10.00">&#45;simulation/algebraic&#45;sensor.hpp</text>
</a>
</g>
</g>
<!-- Node17&#45;&gt;Node18 -->
<g id="edge24_Node000017_Node000018" class="edge">
<title>Node17&#45;&gt;Node18</title>
<g id="a_edge24_Node000017_Node000018"><a xlink:title=" ">
<path fill="none" stroke="#63b8ff" d="M744.58,-365.05C696.95,-353.74 634.74,-338.96 585.87,-327.35"/>
<polygon fill="#63b8ff" stroke="#63b8ff" points="586.71,-323.96 576.17,-325.05 585.09,-330.77 586.71,-323.96"/>
</a>
</g>
</g>
<!-- Node20 -->
<g id="Node000020" class="node">
<title>Node20</title>
<g id="a_Node000020"><a xlink:href="linear-acceleration_8hpp.html" target="_top" xlink:title="Implements the accelerometer algorithm.">
<polygon fill="white" stroke="#666666" points="630.75,-185.25 478.25,-185.25 478.25,-139 630.75,-139 630.75,-185.25"/>
<text text-anchor="start" x="486.25" y="-171.75" font-family="Helvetica,sans-Serif" font-size="10.00">state&#45;observation/sensors</text>
<text text-anchor="start" x="486.25" y="-159" font-family="Helvetica,sans-Serif" font-size="10.00">&#45;simulation/algorithm/linear</text>
<text text-anchor="middle" x="554.5" y="-146.25" font-family="Helvetica,sans-Serif" font-size="10.00">&#45;acceleration.hpp</text>
</a>
</g>
</g>
<!-- Node17&#45;&gt;Node20 -->
<g id="edge33_Node000017_Node000020" class="edge">
<title>Node17&#45;&gt;Node20</title>
<g id="a_edge33_Node000017_Node000020"><a xlink:title=" ">
<path fill="none" stroke="#63b8ff" d="M790.83,-360.15C743.31,-320.52 643.93,-237.68 590.43,-193.08"/>
<polygon fill="#63b8ff" stroke="#63b8ff" points="592.71,-190.43 582.79,-186.71 588.23,-195.8 592.71,-190.43"/>
</a>
</g>
</g>
<!-- Node21 -->
<g id="Node000021" class="node">
<title>Node21</title>
<g id="a_Node000021"><a xlink:href="rotation-velocity_8hpp.html" target="_top" xlink:title="The implementation of the algorithm of a rotation velocity sensor.">
<polygon fill="white" stroke="#666666" points="850,-185.25 687,-185.25 687,-139 850,-139 850,-185.25"/>
<text text-anchor="start" x="695" y="-171.75" font-family="Helvetica,sans-Serif" font-size="10.00">state&#45;observation/sensors</text>
<text text-anchor="start" x="695" y="-159" font-family="Helvetica,sans-Serif" font-size="10.00">&#45;simulation/algorithm/rotation</text>
<text text-anchor="middle" x="768.5" y="-146.25" font-family="Helvetica,sans-Serif" font-size="10.00">&#45;velocity.hpp</text>
</a>
</g>
</g>
<!-- Node17&#45;&gt;Node21 -->
<g id="edge36_Node000017_Node000021" class="edge">
<title>Node17&#45;&gt;Node21</title>
<g id="a_edge36_Node000017_Node000021"><a xlink:title=" ">
<path fill="none" stroke="#63b8ff" d="M826.01,-359.91C836.79,-327.72 851.66,-267.29 831.5,-221.25 826.89,-210.72 819.32,-201.25 811.01,-193.16"/>
<polygon fill="#63b8ff" stroke="#63b8ff" points="813.43,-190.63 803.65,-186.56 808.75,-195.84 813.43,-190.63"/>
</a>
</g>
</g>
<!-- Node18&#45;&gt;Node2 -->
<g id="edge27_Node000018_Node000002" class="edge">
<title>Node18&#45;&gt;Node2</title>
<g id="a_edge27_Node000018_Node000002"><a xlink:title=" ">
<path fill="none" stroke="#63b8ff" d="M594.82,-303.79C701.47,-296.57 882.21,-271.39 1008.5,-185.25 1060.37,-149.87 1046.16,-114.93 1089.5,-69.5 1102.32,-56.06 1118.8,-43.29 1132.21,-33.79"/>
<polygon fill="#63b8ff" stroke="#63b8ff" points="1133.85,-36.91 1140.09,-28.35 1129.87,-31.15 1133.85,-36.91"/>
</a>
</g>
</g>
<!-- Node18&#45;&gt;Node9 -->
<g id="edge25_Node000018_Node000009" class="edge">
<title>Node18&#45;&gt;Node9</title>
<g id="a_edge25_Node000018_Node000009"><a xlink:title=" ">
<path fill="none" stroke="#63b8ff" d="M421.8,-290.27C388.33,-282.09 350.13,-270.49 317.5,-254.75 203.12,-199.58 100.19,-81.81 63.12,-36.27"/>
<polygon fill="#63b8ff" stroke="#63b8ff" points="65.98,-34.24 56.99,-28.64 60.52,-38.63 65.98,-34.24"/>
</a>
</g>
</g>
<!-- Node18&#45;&gt;Node11 -->
<g id="edge26_Node000018_Node000011" class="edge">
<title>Node18&#45;&gt;Node11</title>
<g id="a_edge26_Node000018_Node000011"><a xlink:title=" ">
<path fill="none" stroke="#63b8ff" d="M459.85,-290.29C409.03,-271 327.28,-235.02 269.5,-185.25 218.36,-141.2 177.42,-71.1 159.42,-37.27"/>
<polygon fill="#63b8ff" stroke="#63b8ff" points="162.64,-35.88 154.92,-28.62 156.43,-39.11 162.64,-35.88"/>
</a>
</g>
</g>
<!-- Node19 -->
<g id="Node000019" class="node">
<title>Node19</title>
<g id="a_Node000019"><a xlink:href="sensor-base_8hpp.html" target="_top" xlink:title="Implements the base class of all sensors.">
<polygon fill="white" stroke="#666666" points="583.88,-254.75 429.12,-254.75 429.12,-221.25 583.88,-221.25 583.88,-254.75"/>
<text text-anchor="start" x="437.12" y="-241.25" font-family="Helvetica,sans-Serif" font-size="10.00">state&#45;observation/sensors</text>
<text text-anchor="middle" x="506.5" y="-228.5" font-family="Helvetica,sans-Serif" font-size="10.00">&#45;simulation/sensor&#45;base.hpp</text>
</a>
</g>
</g>
<!-- Node18&#45;&gt;Node19 -->
<g id="edge28_Node000018_Node000019" class="edge">
<title>Node18&#45;&gt;Node19</title>
<g id="a_edge28_Node000018_Node000019"><a xlink:title=" ">
<path fill="none" stroke="#63b8ff" d="M506.5,-290.5C506.5,-283.27 506.5,-274.53 506.5,-266.31"/>
<polygon fill="#63b8ff" stroke="#63b8ff" points="510,-266.4 506.5,-256.4 503,-266.4 510,-266.4"/>
</a>
</g>
</g>
<!-- Node19&#45;&gt;Node2 -->
<g id="edge31_Node000019_Node000002" class="edge">
<title>Node19&#45;&gt;Node2</title>
<g id="a_edge31_Node000019_Node000002"><a xlink:title=" ">
<path fill="none" stroke="#63b8ff" d="M566.3,-220.83C590.41,-212.56 617.63,-200.88 639.5,-185.25 661.37,-169.61 656.23,-154.07 678.5,-139 719.21,-111.45 840.89,-81.73 888.5,-69.5 973.43,-47.67 996.5,-50.63 1082.5,-33.5 1088.15,-32.37 1094.04,-31.17 1099.92,-29.95"/>
<polygon fill="#63b8ff" stroke="#63b8ff" points="1100.59,-33.39 1109.66,-27.91 1099.16,-26.54 1100.59,-33.39"/>
</a>
</g>
</g>
<!-- Node19&#45;&gt;Node9 -->
<g id="edge29_Node000019_Node000009" class="edge">
<title>Node19&#45;&gt;Node9</title>
<g id="a_edge29_Node000019_Node000009"><a xlink:title=" ">
<path fill="none" stroke="#63b8ff" d="M428.72,-230.07C380.78,-223.42 319.18,-210.44 269.5,-185.25 200.21,-150.11 201.61,-114.82 138.5,-69.5 119.29,-55.7 96.12,-42.45 78.1,-32.81"/>
<polygon fill="#63b8ff" stroke="#63b8ff" points="79.97,-29.84 69.5,-28.28 76.71,-36.04 79.97,-29.84"/>
</a>
</g>
</g>
<!-- Node19&#45;&gt;Node11 -->
<g id="edge30_Node000019_Node000011" class="edge">
<title>Node19&#45;&gt;Node11</title>
<g id="a_edge30_Node000019_Node000011"><a xlink:title=" ">
<path fill="none" stroke="#63b8ff" d="M428.8,-235.3C384.92,-230.46 331.76,-217.55 295.5,-185.25 254.53,-148.74 289.12,-110.38 252.5,-69.5 242.64,-58.49 209.89,-42.97 183.93,-31.8"/>
<polygon fill="#63b8ff" stroke="#63b8ff" points="185.64,-28.72 175.06,-28.04 182.91,-35.16 185.64,-28.72"/>
</a>
</g>
</g>
<!-- Node19&#45;&gt;Node16 -->
<g id="edge32_Node000019_Node000016" class="edge">
<title>Node19&#45;&gt;Node16</title>
<g id="a_edge32_Node000019_Node000016"><a xlink:title=" ">
<path fill="none" stroke="#63b8ff" d="M584.21,-228.89C656.13,-220.61 765.77,-206.02 859.5,-185.25 863.53,-184.36 867.67,-183.36 871.82,-182.29"/>
<polygon fill="#63b8ff" stroke="#63b8ff" points="872.59,-185.71 881.34,-179.73 870.77,-178.95 872.59,-185.71"/>
</a>
</g>
</g>
<!-- Node20&#45;&gt;Node2 -->
<g id="edge34_Node000020_Node000002" class="edge">
<title>Node20&#45;&gt;Node2</title>
<g id="a_edge34_Node000020_Node000002"><a xlink:title=" ">
<path fill="none" stroke="#63b8ff" d="M628.22,-138.63C655.66,-129.12 686.65,-116.98 713.5,-103 736.58,-90.99 737.16,-78.68 761.5,-69.5 895.83,-18.86 940.79,-56.47 1082.5,-33.5 1089.06,-32.44 1095.92,-31.18 1102.7,-29.84"/>
<polygon fill="#63b8ff" stroke="#63b8ff" points="1103.4,-33.27 1112.5,-27.85 1102,-26.41 1103.4,-33.27"/>
</a>
</g>
</g>
<!-- Node20&#45;&gt;Node4 -->
<g id="edge35_Node000020_Node000004" class="edge">
<title>Node20&#45;&gt;Node4</title>
<g id="a_edge35_Node000020_Node000004"><a xlink:title=" ">
<path fill="none" stroke="#63b8ff" d="M570.38,-138.56C576.14,-130.39 582.67,-121.1 588.59,-112.7"/>
<polygon fill="#63b8ff" stroke="#63b8ff" points="591.4,-114.78 594.29,-104.59 585.68,-110.75 591.4,-114.78"/>
</a>
</g>
</g>
<!-- Node21&#45;&gt;Node2 -->
<g id="edge37_Node000021_Node000002" class="edge">
<title>Node21&#45;&gt;Node2</title>
<g id="a_edge37_Node000021_Node000002"><a xlink:title=" ">
<path fill="none" stroke="#63b8ff" d="M813.48,-138.6C854.3,-118.72 916.48,-89.83 972.5,-69.5 1016.03,-53.7 1066.79,-39.75 1103.95,-30.32"/>
<polygon fill="#63b8ff" stroke="#63b8ff" points="1104.71,-33.74 1113.56,-27.91 1103,-26.95 1104.71,-33.74"/>
</a>
</g>
</g>
<!-- Node21&#45;&gt;Node4 -->
<g id="edge38_Node000021_Node000004" class="edge">
<title>Node21&#45;&gt;Node4</title>
<g id="a_edge38_Node000021_Node000004"><a xlink:title=" ">
<path fill="none" stroke="#63b8ff" d="M719.01,-138.56C697.86,-128.91 673.3,-117.71 652.54,-108.25"/>
<polygon fill="#63b8ff" stroke="#63b8ff" points="654,-105.06 643.44,-104.1 651.09,-111.43 654,-105.06"/>
</a>
</g>
</g>
<!-- Node22&#45;&gt;Node2 -->
<g id="edge41_Node000022_Node000002" class="edge">
<title>Node22&#45;&gt;Node2</title>
<g id="a_edge41_Node000022_Node000002"><a xlink:title=" ">
<path fill="none" stroke="#63b8ff" d="M1411.31,-233.69C1531.41,-227.54 1758.29,-212.44 1782.5,-185.25 1816.71,-146.83 1817.35,-107.35 1782.5,-69.5 1745.91,-29.76 1391.03,-20.54 1232.42,-18.4"/>
<polygon fill="#63b8ff" stroke="#63b8ff" points="1232.9,-14.9 1222.86,-18.27 1232.81,-21.9 1232.9,-14.9"/>
</a>
</g>
</g>
<!-- Node22&#45;&gt;Node4 -->
<g id="edge42_Node000022_Node000004" class="edge">
<title>Node22&#45;&gt;Node4</title>
<g id="a_edge42_Node000022_Node000004"><a xlink:title=" ">
<path fill="none" stroke="#63b8ff" d="M1281.65,-220.84C1246.79,-210.71 1201,-197.33 1160.5,-185.25 1092.83,-165.06 1077.54,-153.84 1008.5,-139 896.31,-114.89 763.92,-100.5 682.6,-93.22"/>
<polygon fill="#63b8ff" stroke="#63b8ff" points="683.24,-89.77 672.98,-92.38 682.63,-96.74 683.24,-89.77"/>
</a>
</g>
</g>
<!-- Node23 -->
<g id="Node000023" class="node">
<title>Node23</title>
<g id="a_Node000023"><a xlink:title=" ">
<polygon fill="#e0e0e0" stroke="#999999" points="1235.62,-172.5 1169.38,-172.5 1169.38,-151.75 1235.62,-151.75 1235.62,-172.5"/>
<text text-anchor="middle" x="1202.5" y="-159" font-family="Helvetica,sans-Serif" font-size="10.00">Eigen/SVD</text>
</a>
</g>
</g>
<!-- Node22&#45;&gt;Node23 -->
<g id="edge40_Node000022_Node000023" class="edge">
<title>Node22&#45;&gt;Node23</title>
<g id="a_edge40_Node000022_Node000023"><a xlink:title=" ">
<path fill="none" stroke="#63b8ff" d="M1307.87,-220.79C1284.82,-208.17 1253.06,-190.79 1230.45,-178.42"/>
<polygon fill="#63b8ff" stroke="#63b8ff" points="1232.25,-175.41 1221.79,-173.68 1228.89,-181.55 1232.25,-175.41"/>
</a>
</g>
</g>
<!-- Node24 -->
<g id="Node000024" class="node">
<title>Node24</title>
<g id="a_Node000024"><a xlink:href="miscellaneous-algorithms_8hpp.html" target="_top" xlink:title="Gathers many kinds of algorithms.">
<polygon fill="white" stroke="#666666" points="1420.88,-178.88 1254.12,-178.88 1254.12,-145.38 1420.88,-145.38 1420.88,-178.88"/>
<text text-anchor="start" x="1262.12" y="-165.38" font-family="Helvetica,sans-Serif" font-size="10.00">state&#45;observation/tools</text>
<text text-anchor="middle" x="1337.5" y="-152.62" font-family="Helvetica,sans-Serif" font-size="10.00">/miscellaneous&#45;algorithms.hpp</text>
</a>
</g>
</g>
<!-- Node22&#45;&gt;Node24 -->
<g id="edge43_Node000022_Node000024" class="edge">
<title>Node22&#45;&gt;Node24</title>
<g id="a_edge43_Node000022_Node000024"><a xlink:title=" ">
<path fill="none" stroke="#63b8ff" d="M1337.5,-220.97C1337.5,-212.06 1337.5,-200.74 1337.5,-190.48"/>
<polygon fill="#63b8ff" stroke="#63b8ff" points="1341,-190.64 1337.5,-180.64 1334,-190.64 1341,-190.64"/>
</a>
</g>
</g>
<!-- Node27 -->
<g id="Node000027" class="node">
<title>Node27</title>
<g id="a_Node000027"><a xlink:href="probability-law-simulation_8hpp.html" target="_top" xlink:title=" ">
<polygon fill="white" stroke="#666666" points="1773,-178.88 1604,-178.88 1604,-145.38 1773,-145.38 1773,-178.88"/>
<text text-anchor="start" x="1612" y="-165.38" font-family="Helvetica,sans-Serif" font-size="10.00">state&#45;observation/tools</text>
<text text-anchor="middle" x="1688.5" y="-152.62" font-family="Helvetica,sans-Serif" font-size="10.00">/probability&#45;law&#45;simulation.hpp</text>
</a>
</g>
</g>
<!-- Node22&#45;&gt;Node27 -->
<g id="edge48_Node000022_Node000027" class="edge">
<title>Node22&#45;&gt;Node27</title>
<g id="a_edge48_Node000022_Node000027"><a xlink:title=" ">
<path fill="none" stroke="#63b8ff" d="M1411.6,-222.86C1463.25,-212.83 1533.69,-198.8 1595.5,-185.25 1600.37,-184.18 1605.39,-183.06 1610.43,-181.91"/>
<polygon fill="#63b8ff" stroke="#63b8ff" points="1611.08,-185.35 1620.04,-179.7 1609.51,-178.53 1611.08,-185.35"/>
</a>
</g>
</g>
<!-- Node30 -->
<g id="Node000030" class="node">
<title>Node30</title>
<g id="a_Node000030"><a xlink:title=" ">
<polygon fill="#e0e0e0" stroke="#999999" points="1586.12,-178.88 1438.88,-178.88 1438.88,-145.38 1586.12,-145.38 1586.12,-178.88"/>
<text text-anchor="start" x="1446.88" y="-165.38" font-family="Helvetica,sans-Serif" font-size="10.00">state&#45;observation/tools</text>
<text text-anchor="middle" x="1512.5" y="-152.62" font-family="Helvetica,sans-Serif" font-size="10.00">/rigid&#45;body&#45;kinematics.hxx</text>
</a>
</g>
</g>
<!-- Node22&#45;&gt;Node30 -->
<g id="edge53_Node000022_Node000030" class="edge">
<title>Node22&#45;&gt;Node30</title>
<g id="a_edge53_Node000022_Node000030"><a xlink:title=" ">
<path fill="none" stroke="#63b8ff" d="M1375.9,-220.79C1401.78,-209.87 1436.12,-195.37 1463.89,-183.64"/>
<polygon fill="#63b8ff" stroke="#63b8ff" points="1464.94,-187 1472.79,-179.89 1462.22,-180.55 1464.94,-187"/>
</a>
</g>
</g>
<!-- Node24&#45;&gt;Node2 -->
<g id="edge46_Node000024_Node000002" class="edge">
<title>Node24&#45;&gt;Node2</title>
<g id="a_edge46_Node000024_Node000002"><a xlink:title=" ">
<path fill="none" stroke="#63b8ff" d="M1315.75,-145.07C1300.23,-133.52 1278.93,-117.5 1260.5,-103 1231.06,-79.84 1197.68,-52.23 1176.85,-34.84"/>
<polygon fill="#63b8ff" stroke="#63b8ff" points="1179.3,-32.33 1169.39,-28.59 1174.81,-37.7 1179.3,-32.33"/>
</a>
</g>
</g>
<!-- Node24&#45;&gt;Node4 -->
<g id="edge47_Node000024_Node000004" class="edge">
<title>Node24&#45;&gt;Node4</title>
<g id="a_edge47_Node000024_Node000004"><a xlink:title=" ">
<path fill="none" stroke="#63b8ff" d="M1275.23,-144.93C1265.01,-142.67 1254.5,-140.59 1244.5,-139 1043.01,-107.05 802.42,-94.31 682.41,-89.66"/>
<polygon fill="#63b8ff" stroke="#63b8ff" points="682.82,-86.17 672.7,-89.29 682.56,-93.17 682.82,-86.17"/>
</a>
</g>
</g>
<!-- Node25 -->
<g id="Node000025" class="node">
<title>Node25</title>
<g id="a_Node000025"><a xlink:title=" ">
<polygon fill="#e0e0e0" stroke="#999999" points="1363.5,-96.62 1269.5,-96.62 1269.5,-75.88 1363.5,-75.88 1363.5,-96.62"/>
<text text-anchor="middle" x="1316.5" y="-83.12" font-family="Helvetica,sans-Serif" font-size="10.00">boost/utility.hpp</text>
</a>
</g>
</g>
<!-- Node24&#45;&gt;Node25 -->
<g id="edge44_Node000024_Node000025" class="edge">
<title>Node24&#45;&gt;Node25</title>
<g id="a_edge44_Node000024_Node000025"><a xlink:title=" ">
<path fill="none" stroke="#63b8ff" d="M1332.94,-145.1C1329.83,-134.13 1325.67,-119.51 1322.32,-107.71"/>
<polygon fill="#63b8ff" stroke="#63b8ff" points="1325.7,-106.82 1319.6,-98.16 1318.97,-108.74 1325.7,-106.82"/>
</a>
</g>
</g>
<!-- Node26 -->
<g id="Node000026" class="node">
<title>Node26</title>
<g id="a_Node000026"><a xlink:title=" ">
<polygon fill="#e0e0e0" stroke="#999999" points="1427.88,-96.62 1381.12,-96.62 1381.12,-75.88 1427.88,-75.88 1427.88,-96.62"/>
<text text-anchor="middle" x="1404.5" y="-83.12" font-family="Helvetica,sans-Serif" font-size="10.00">cmath</text>
</a>
</g>
</g>
<!-- Node24&#45;&gt;Node26 -->
<g id="edge45_Node000024_Node000026" class="edge">
<title>Node24&#45;&gt;Node26</title>
<g id="a_edge45_Node000024_Node000026"><a xlink:title=" ">
<path fill="none" stroke="#63b8ff" d="M1352.04,-145.1C1362.71,-133.33 1377.21,-117.34 1388.26,-105.15"/>
<polygon fill="#63b8ff" stroke="#63b8ff" points="1390.78,-107.59 1394.91,-97.83 1385.6,-102.88 1390.78,-107.59"/>
</a>
</g>
</g>
<!-- Node27&#45;&gt;Node2 -->
<g id="edge50_Node000027_Node000002" class="edge">
<title>Node27&#45;&gt;Node2</title>
<g id="a_edge50_Node000027_Node000002"><a xlink:title=" ">
<path fill="none" stroke="#63b8ff" d="M1641.43,-144.95C1608.35,-133.48 1563.11,-117.6 1523.5,-103 1484.62,-88.67 1476.38,-80.76 1436.5,-69.5 1368.59,-50.33 1289.37,-36.45 1232.55,-27.92"/>
<polygon fill="#63b8ff" stroke="#63b8ff" points="1233.4,-24.51 1223,-26.51 1232.38,-31.43 1233.4,-24.51"/>
</a>
</g>
</g>
<!-- Node27&#45;&gt;Node4 -->
<g id="edge51_Node000027_Node000004" class="edge">
<title>Node27&#45;&gt;Node4</title>
<g id="a_edge51_Node000027_Node000004"><a xlink:title=" ">
<path fill="none" stroke="#63b8ff" d="M1627.27,-144.9C1616.74,-142.59 1605.85,-140.49 1595.5,-139 1257.58,-90.37 848.87,-86.05 682.48,-86.55"/>
<polygon fill="#63b8ff" stroke="#63b8ff" points="682.9,-83.05 672.92,-86.59 682.93,-90.05 682.9,-83.05"/>
</a>
</g>
</g>
<!-- Node28 -->
<g id="Node000028" class="node">
<title>Node28</title>
<g id="a_Node000028"><a xlink:title=" ">
<polygon fill="#e0e0e0" stroke="#999999" points="1586.25,-96.62 1532.75,-96.62 1532.75,-75.88 1586.25,-75.88 1586.25,-96.62"/>
<text text-anchor="middle" x="1559.5" y="-83.12" font-family="Helvetica,sans-Serif" font-size="10.00">random</text>
</a>
</g>
</g>
<!-- Node27&#45;&gt;Node28 -->
<g id="edge49_Node000027_Node000028" class="edge">
<title>Node27&#45;&gt;Node28</title>
<g id="a_edge49_Node000027_Node000028"><a xlink:title=" ">
<path fill="none" stroke="#63b8ff" d="M1660.19,-144.91C1638.26,-132.36 1608.09,-115.08 1586.5,-102.71"/>
<polygon fill="#63b8ff" stroke="#63b8ff" points="1588.4,-99.77 1577.98,-97.83 1584.92,-105.84 1588.4,-99.77"/>
</a>
</g>
</g>
<!-- Node29 -->
<g id="Node000029" class="node">
<title>Node29</title>
<g id="a_Node000029"><a xlink:title=" ">
<polygon fill="#e0e0e0" stroke="#999999" points="1773,-103 1604,-103 1604,-69.5 1773,-69.5 1773,-103"/>
<text text-anchor="start" x="1612" y="-89.5" font-family="Helvetica,sans-Serif" font-size="10.00">state&#45;observation/tools</text>
<text text-anchor="middle" x="1688.5" y="-76.75" font-family="Helvetica,sans-Serif" font-size="10.00">/probability&#45;law&#45;simulation.hxx</text>
</a>
</g>
</g>
<!-- Node27&#45;&gt;Node29 -->
<g id="edge52_Node000027_Node000029" class="edge">
<title>Node27&#45;&gt;Node29</title>
<g id="a_edge52_Node000027_Node000029"><a xlink:title=" ">
<path fill="none" stroke="#63b8ff" d="M1688.5,-145.1C1688.5,-136.19 1688.5,-124.86 1688.5,-114.6"/>
<polygon fill="#63b8ff" stroke="#63b8ff" points="1692,-114.76 1688.5,-104.76 1685,-114.76 1692,-114.76"/>
</a>
</g>
</g>
</g>
</svg>
