<?xml version="1.0" encoding="UTF-8" standalone="no"?>
<!DOCTYPE svg PUBLIC "-//W3C//DTD SVG 1.1//EN"
 "http://www.w3.org/Graphics/SVG/1.1/DTD/svg11.dtd">
<!-- Generated by graphviz version 12.2.1 (0)
 -->
<!-- Title: /build/source/include/state&#45;observation/dynamical&#45;system/imu&#45;magnetometer&#45;dynamical&#45;system.hpp Pages: 1 -->
<svg width="2017pt" height="510pt"
 viewBox="0.00 0.00 2017.38 509.50" xmlns="http://www.w3.org/2000/svg" xmlns:xlink="http://www.w3.org/1999/xlink">
<g id="graph0" class="graph" transform="scale(1 1) rotate(0) translate(4 505.5)">
<title>/build/source/include/state&#45;observation/dynamical&#45;system/imu&#45;magnetometer&#45;dynamical&#45;system.hpp</title>
<!-- Node1 -->
<g id="Node000001" class="node">
<title>Node1</title>
<g id="a_Node000001"><a xlink:title="The file describes the dynamical system defined by an inertial measurement unit (IMU) fixed on a rigi...">
<polygon fill="#999999" stroke="#666666" points="1400.75,-501.5 1192,-501.5 1192,-442.5 1400.75,-442.5 1400.75,-501.5"/>
<text text-anchor="start" x="1200" y="-488" font-family="Helvetica,sans-Serif" font-size="10.00">/build/source/include</text>
<text text-anchor="start" x="1200" y="-475.25" font-family="Helvetica,sans-Serif" font-size="10.00">/state&#45;observation/dynamical</text>
<text text-anchor="start" x="1200" y="-462.5" font-family="Helvetica,sans-Serif" font-size="10.00">&#45;system/imu&#45;magnetometer&#45;dynamical</text>
<text text-anchor="middle" x="1296.38" y="-449.75" font-family="Helvetica,sans-Serif" font-size="10.00">&#45;system.hpp</text>
</a>
</g>
</g>
<!-- Node2 -->
<g id="Node000002" class="node">
<title>Node2</title>
<g id="a_Node000002"><a xlink:title=" ">
<polygon fill="#e0e0e0" stroke="#999999" points="1362,-27.12 1232.75,-27.12 1232.75,-6.38 1362,-6.38 1362,-27.12"/>
<text text-anchor="middle" x="1297.38" y="-13.62" font-family="Helvetica,sans-Serif" font-size="10.00">state&#45;observation/api.h</text>
</a>
</g>
</g>
<!-- Node1&#45;&gt;Node2 -->
<g id="edge1_Node000001_Node000002" class="edge">
<title>Node1&#45;&gt;Node2</title>
<g id="a_edge1_Node000001_Node000002"><a xlink:title=" ">
<path fill="none" stroke="#63b8ff" d="M1401.24,-456.9C1468.07,-446 1546.75,-428.96 1572.38,-406.5 1607.39,-375.81 1609.38,-355.06 1609.38,-308.5 1609.38,-308.5 1609.38,-308.5 1609.38,-161.12 1609.38,-57.69 1466.04,-28.6 1373.68,-20.6"/>
<polygon fill="#63b8ff" stroke="#63b8ff" points="1374.16,-17.12 1363.91,-19.82 1373.6,-24.1 1374.16,-17.12"/>
</a>
</g>
</g>
<!-- Node3 -->
<g id="Node000003" class="node">
<title>Node3</title>
<g id="a_Node000003"><a xlink:href="dynamical-system-functor-base_8hpp_source.html" target="_top" xlink:title=" ">
<polygon fill="white" stroke="#666666" points="815.5,-185.25 659.25,-185.25 659.25,-139 815.5,-139 815.5,-185.25"/>
<text text-anchor="start" x="667.25" y="-171.75" font-family="Helvetica,sans-Serif" font-size="10.00">state&#45;observation/dynamical</text>
<text text-anchor="start" x="667.25" y="-159" font-family="Helvetica,sans-Serif" font-size="10.00">&#45;system/dynamical&#45;system</text>
<text text-anchor="middle" x="737.38" y="-146.25" font-family="Helvetica,sans-Serif" font-size="10.00">&#45;functor&#45;base.hpp</text>
</a>
</g>
</g>
<!-- Node1&#45;&gt;Node3 -->
<g id="edge2_Node000001_Node000003" class="edge">
<title>Node1&#45;&gt;Node3</title>
<g id="a_edge2_Node000001_Node000003"><a xlink:title=" ">
<path fill="none" stroke="#63b8ff" d="M1243.79,-442.04C1136.49,-382.94 893.6,-249.17 787.99,-191"/>
<polygon fill="#63b8ff" stroke="#63b8ff" points="789.98,-188.1 779.54,-186.35 786.61,-194.24 789.98,-188.1"/>
</a>
</g>
</g>
<!-- Node16 -->
<g id="Node000016" class="node">
<title>Node16</title>
<g id="a_Node000016"><a xlink:href="noise-base_8hpp.html" target="_top" xlink:title=" ">
<polygon fill="white" stroke="#666666" points="1362.12,-178.88 1230.62,-178.88 1230.62,-145.38 1362.12,-145.38 1362.12,-178.88"/>
<text text-anchor="start" x="1238.62" y="-165.38" font-family="Helvetica,sans-Serif" font-size="10.00">state&#45;observation/noise</text>
<text text-anchor="middle" x="1296.38" y="-152.62" font-family="Helvetica,sans-Serif" font-size="10.00">/noise&#45;base.hpp</text>
</a>
</g>
</g>
<!-- Node1&#45;&gt;Node16 -->
<g id="edge17_Node000001_Node000016" class="edge">
<title>Node1&#45;&gt;Node16</title>
<g id="a_edge17_Node000001_Node000016"><a xlink:title=" ">
<path fill="none" stroke="#63b8ff" d="M1296.38,-442.04C1296.38,-382.77 1296.38,-248.37 1296.38,-190.48"/>
<polygon fill="#63b8ff" stroke="#63b8ff" points="1299.88,-190.55 1296.38,-180.55 1292.88,-190.55 1299.88,-190.55"/>
</a>
</g>
</g>
<!-- Node17 -->
<g id="Node000017" class="node">
<title>Node17</title>
<g id="a_Node000017"><a xlink:href="accelerometer-gyrometer-magnetometer_8hpp.html" target="_top" xlink:title="Implements the accelerometer&#45;gyrometer&#45;magnetometer inertial measurement unit.">
<polygon fill="white" stroke="#666666" points="1563.12,-406.5 1395.62,-406.5 1395.62,-360.25 1563.12,-360.25 1563.12,-406.5"/>
<text text-anchor="start" x="1403.62" y="-393" font-family="Helvetica,sans-Serif" font-size="10.00">state&#45;observation/sensors</text>
<text text-anchor="start" x="1403.62" y="-380.25" font-family="Helvetica,sans-Serif" font-size="10.00">&#45;simulation/accelerometer</text>
<text text-anchor="middle" x="1479.38" y="-367.5" font-family="Helvetica,sans-Serif" font-size="10.00">&#45;gyrometer&#45;magnetometer.hpp</text>
</a>
</g>
</g>
<!-- Node1&#45;&gt;Node17 -->
<g id="edge20_Node000001_Node000017" class="edge">
<title>Node1&#45;&gt;Node17</title>
<g id="a_edge20_Node000001_Node000017"><a xlink:title=" ">
<path fill="none" stroke="#63b8ff" d="M1357.57,-442.03C1378.18,-432.28 1401.11,-421.42 1421.47,-411.79"/>
<polygon fill="#63b8ff" stroke="#63b8ff" points="1422.94,-414.96 1430.48,-407.52 1419.95,-408.63 1422.94,-414.96"/>
</a>
</g>
</g>
<!-- Node23 -->
<g id="Node000023" class="node">
<title>Node23</title>
<g id="a_Node000023"><a xlink:href="rigid-body-kinematics_8hpp.html" target="_top" xlink:title="Implements integrators for the kinematics, in terms or rotations and translations.">
<polygon fill="white" stroke="#666666" points="454,-254.75 306.75,-254.75 306.75,-221.25 454,-221.25 454,-254.75"/>
<text text-anchor="start" x="314.75" y="-241.25" font-family="Helvetica,sans-Serif" font-size="10.00">state&#45;observation/tools</text>
<text text-anchor="middle" x="380.38" y="-228.5" font-family="Helvetica,sans-Serif" font-size="10.00">/rigid&#45;body&#45;kinematics.hpp</text>
</a>
</g>
</g>
<!-- Node1&#45;&gt;Node23 -->
<g id="edge42_Node000001_Node000023" class="edge">
<title>Node1&#45;&gt;Node23</title>
<g id="a_edge42_Node000001_Node000023"><a xlink:title=" ">
<path fill="none" stroke="#63b8ff" d="M1191.78,-466.33C1086.2,-459.68 919.21,-443.82 779.38,-406.5 642.74,-370.04 491.31,-296.63 420.72,-260.33"/>
<polygon fill="#63b8ff" stroke="#63b8ff" points="422.74,-257.43 412.25,-255.94 419.52,-263.65 422.74,-257.43"/>
</a>
</g>
</g>
<!-- Node3&#45;&gt;Node2 -->
<g id="edge3_Node000003_Node000002" class="edge">
<title>Node3&#45;&gt;Node2</title>
<g id="a_edge3_Node000003_Node000002"><a xlink:title=" ">
<path fill="none" stroke="#63b8ff" d="M815.56,-140.91C818.53,-140.25 821.48,-139.61 824.38,-139 919.62,-118.99 949.91,-138.89 1040.38,-103 1065.24,-93.13 1065.93,-80.35 1090.38,-69.5 1104.42,-63.27 1187.23,-43.37 1243.76,-30.14"/>
<polygon fill="#63b8ff" stroke="#63b8ff" points="1244.27,-33.62 1253.21,-27.94 1242.68,-26.8 1244.27,-33.62"/>
</a>
</g>
</g>
<!-- Node4 -->
<g id="Node000004" class="node">
<title>Node4</title>
<g id="a_Node000004"><a xlink:href="definitions_8hpp.html" target="_top" xlink:title="Definitions of types and some structures.">
<polygon fill="white" stroke="#666666" points="974,-103 844.75,-103 844.75,-69.5 974,-69.5 974,-103"/>
<text text-anchor="start" x="852.75" y="-89.5" font-family="Helvetica,sans-Serif" font-size="10.00">state&#45;observation/tools</text>
<text text-anchor="middle" x="909.38" y="-76.75" font-family="Helvetica,sans-Serif" font-size="10.00">/definitions.hpp</text>
</a>
</g>
</g>
<!-- Node3&#45;&gt;Node4 -->
<g id="edge4_Node000003_Node000004" class="edge">
<title>Node3&#45;&gt;Node4</title>
<g id="a_edge4_Node000003_Node000004"><a xlink:title=" ">
<path fill="none" stroke="#63b8ff" d="M789.92,-138.56C812.58,-128.82 838.93,-117.51 861.1,-107.99"/>
<polygon fill="#63b8ff" stroke="#63b8ff" points="862.41,-111.23 870.22,-104.07 859.65,-104.8 862.41,-111.23"/>
</a>
</g>
</g>
<!-- Node4&#45;&gt;Node2 -->
<g id="edge14_Node000004_Node000002" class="edge">
<title>Node4&#45;&gt;Node2</title>
<g id="a_edge14_Node000004_Node000002"><a xlink:title=" ">
<path fill="none" stroke="#63b8ff" d="M974.21,-74.93C1051.72,-62.53 1176.82,-42.29 1223.38,-33.5 1229.34,-32.37 1235.57,-31.14 1241.77,-29.87"/>
<polygon fill="#63b8ff" stroke="#63b8ff" points="1242.27,-33.35 1251.35,-27.89 1240.85,-26.49 1242.27,-33.35"/>
</a>
</g>
</g>
<!-- Node5 -->
<g id="Node000005" class="node">
<title>Node5</title>
<g id="a_Node000005"><a xlink:title=" ">
<polygon fill="#e0e0e0" stroke="#999999" points="1149.88,-27.12 1100.88,-27.12 1100.88,-6.38 1149.88,-6.38 1149.88,-27.12"/>
<text text-anchor="middle" x="1125.38" y="-13.62" font-family="Helvetica,sans-Serif" font-size="10.00">chrono</text>
</a>
</g>
</g>
<!-- Node4&#45;&gt;Node5 -->
<g id="edge5_Node000004_Node000005" class="edge">
<title>Node4&#45;&gt;Node5</title>
<g id="a_edge5_Node000004_Node000005"><a xlink:title=" ">
<path fill="none" stroke="#63b8ff" d="M974.18,-69.79C1009.58,-60.63 1053.91,-48 1092.38,-33.5 1093.68,-33.01 1095,-32.49 1096.33,-31.94"/>
<polygon fill="#63b8ff" stroke="#63b8ff" points="1097.31,-35.33 1105.04,-28.08 1094.47,-28.93 1097.31,-35.33"/>
</a>
</g>
</g>
<!-- Node6 -->
<g id="Node000006" class="node">
<title>Node6</title>
<g id="a_Node000006"><a xlink:title=" ">
<polygon fill="#e0e0e0" stroke="#999999" points="1214.38,-27.12 1168.38,-27.12 1168.38,-6.38 1214.38,-6.38 1214.38,-27.12"/>
<text text-anchor="middle" x="1191.38" y="-13.62" font-family="Helvetica,sans-Serif" font-size="10.00">deque</text>
</a>
</g>
</g>
<!-- Node4&#45;&gt;Node6 -->
<g id="edge6_Node000004_Node000006" class="edge">
<title>Node4&#45;&gt;Node6</title>
<g id="a_edge6_Node000004_Node000006"><a xlink:title=" ">
<path fill="none" stroke="#63b8ff" d="M974.33,-73.73C1036.57,-62.35 1125.84,-45.02 1159.38,-33.5 1160.55,-33.1 1161.73,-32.66 1162.92,-32.2"/>
<polygon fill="#63b8ff" stroke="#63b8ff" points="1164.31,-35.41 1172.06,-28.18 1161.49,-29 1164.31,-35.41"/>
</a>
</g>
</g>
<!-- Node7 -->
<g id="Node000007" class="node">
<title>Node7</title>
<g id="a_Node000007"><a xlink:title=" ">
<polygon fill="#e0e0e0" stroke="#999999" points="407.38,-27.12 343.38,-27.12 343.38,-6.38 407.38,-6.38 407.38,-27.12"/>
<text text-anchor="middle" x="375.38" y="-13.62" font-family="Helvetica,sans-Serif" font-size="10.00">stdexcept</text>
</a>
</g>
</g>
<!-- Node4&#45;&gt;Node7 -->
<g id="edge7_Node000004_Node000007" class="edge">
<title>Node4&#45;&gt;Node7</title>
<g id="a_edge7_Node000004_Node000007"><a xlink:title=" ">
<path fill="none" stroke="#63b8ff" d="M844.25,-79.37C719.83,-68 457.01,-43.26 416.38,-33.5 413.75,-32.87 411.06,-32.11 408.38,-31.27"/>
<polygon fill="#63b8ff" stroke="#63b8ff" points="409.62,-28 399.02,-28 407.31,-34.6 409.62,-28"/>
</a>
</g>
</g>
<!-- Node8 -->
<g id="Node000008" class="node">
<title>Node8</title>
<g id="a_Node000008"><a xlink:title=" ">
<polygon fill="#e0e0e0" stroke="#999999" points="471.75,-27.12 425,-27.12 425,-6.38 471.75,-6.38 471.75,-27.12"/>
<text text-anchor="middle" x="448.38" y="-13.62" font-family="Helvetica,sans-Serif" font-size="10.00">vector</text>
</a>
</g>
</g>
<!-- Node4&#45;&gt;Node8 -->
<g id="edge8_Node000004_Node000008" class="edge">
<title>Node4&#45;&gt;Node8</title>
<g id="a_edge8_Node000004_Node000008"><a xlink:title=" ">
<path fill="none" stroke="#63b8ff" d="M844.45,-80.11C741.84,-71.53 546.99,-53.28 480.38,-33.5 478.82,-33.04 477.24,-32.5 475.67,-31.92"/>
<polygon fill="#63b8ff" stroke="#63b8ff" points="477.5,-28.9 466.94,-28.12 474.71,-35.32 477.5,-28.9"/>
</a>
</g>
</g>
<!-- Node9 -->
<g id="Node000009" class="node">
<title>Node9</title>
<g id="a_Node000009"><a xlink:title=" ">
<polygon fill="#e0e0e0" stroke="#999999" points="1890.88,-27.12 1793.88,-27.12 1793.88,-6.38 1890.88,-6.38 1890.88,-27.12"/>
<text text-anchor="middle" x="1842.38" y="-13.62" font-family="Helvetica,sans-Serif" font-size="10.00">boost/assert.hpp</text>
</a>
</g>
</g>
<!-- Node4&#45;&gt;Node9 -->
<g id="edge9_Node000004_Node000009" class="edge">
<title>Node4&#45;&gt;Node9</title>
<g id="a_edge9_Node000004_Node000009"><a xlink:title=" ">
<path fill="none" stroke="#63b8ff" d="M974.24,-80.56C1146.84,-68.07 1615.52,-34.16 1782.39,-22.09"/>
<polygon fill="#63b8ff" stroke="#63b8ff" points="1782.17,-25.61 1791.89,-21.4 1781.67,-18.63 1782.17,-25.61"/>
</a>
</g>
</g>
<!-- Node10 -->
<g id="Node000010" class="node">
<title>Node10</title>
<g id="a_Node000010"><a xlink:title=" ">
<polygon fill="#e0e0e0" stroke="#999999" points="611.25,-27.12 489.5,-27.12 489.5,-6.38 611.25,-6.38 611.25,-27.12"/>
<text text-anchor="middle" x="550.38" y="-13.62" font-family="Helvetica,sans-Serif" font-size="10.00">boost/timer/timer.hpp</text>
</a>
</g>
</g>
<!-- Node4&#45;&gt;Node10 -->
<g id="edge10_Node000004_Node000010" class="edge">
<title>Node4&#45;&gt;Node10</title>
<g id="a_edge10_Node000004_Node000010"><a xlink:title=" ">
<path fill="none" stroke="#63b8ff" d="M844.37,-74.45C785.69,-64.51 697.07,-48.99 620.38,-33.5 614.87,-32.39 609.13,-31.18 603.41,-29.94"/>
<polygon fill="#63b8ff" stroke="#63b8ff" points="604.51,-26.6 593.99,-27.87 603,-33.44 604.51,-26.6"/>
</a>
</g>
</g>
<!-- Node11 -->
<g id="Node000011" class="node">
<title>Node11</title>
<g id="a_Node000011"><a xlink:title=" ">
<polygon fill="#e0e0e0" stroke="#999999" points="1983.62,-27.12 1915.12,-27.12 1915.12,-6.38 1983.62,-6.38 1983.62,-27.12"/>
<text text-anchor="middle" x="1949.38" y="-13.62" font-family="Helvetica,sans-Serif" font-size="10.00">Eigen/Core</text>
</a>
</g>
</g>
<!-- Node4&#45;&gt;Node11 -->
<g id="edge11_Node000004_Node000011" class="edge">
<title>Node4&#45;&gt;Node11</title>
<g id="a_edge11_Node000004_Node000011"><a xlink:title=" ">
<path fill="none" stroke="#63b8ff" d="M974.24,-84.05C1164.96,-80.18 1721.71,-66.3 1900.38,-33.5 1904.23,-32.79 1908.2,-31.87 1912.13,-30.82"/>
<polygon fill="#63b8ff" stroke="#63b8ff" points="1912.94,-34.23 1921.54,-28.04 1910.96,-27.51 1912.94,-34.23"/>
</a>
</g>
</g>
<!-- Node12 -->
<g id="Node000012" class="node">
<title>Node12</title>
<g id="a_Node000012"><a xlink:title=" ">
<polygon fill="#e0e0e0" stroke="#999999" points="723.75,-27.12 629,-27.12 629,-6.38 723.75,-6.38 723.75,-27.12"/>
<text text-anchor="middle" x="676.38" y="-13.62" font-family="Helvetica,sans-Serif" font-size="10.00">Eigen/Geometry</text>
</a>
</g>
</g>
<!-- Node4&#45;&gt;Node12 -->
<g id="edge12_Node000004_Node000012" class="edge">
<title>Node4&#45;&gt;Node12</title>
<g id="a_edge12_Node000004_Node000012"><a xlink:title=" ">
<path fill="none" stroke="#63b8ff" d="M853.57,-69.08C813.01,-57.33 758.83,-41.64 721.11,-30.71"/>
<polygon fill="#63b8ff" stroke="#63b8ff" points="722.48,-27.46 711.9,-28.04 720.53,-34.19 722.48,-27.46"/>
</a>
</g>
</g>
<!-- Node13 -->
<g id="Node000013" class="node">
<title>Node13</title>
<g id="a_Node000013"><a xlink:title=" ">
<polygon fill="#e0e0e0" stroke="#999999" points="863.25,-33.5 741.5,-33.5 741.5,0 863.25,0 863.25,-33.5"/>
<text text-anchor="start" x="749.5" y="-20" font-family="Helvetica,sans-Serif" font-size="10.00">boost/math/constants</text>
<text text-anchor="middle" x="802.38" y="-7.25" font-family="Helvetica,sans-Serif" font-size="10.00">/constants.hpp</text>
</a>
</g>
</g>
<!-- Node4&#45;&gt;Node13 -->
<g id="edge13_Node000004_Node000013" class="edge">
<title>Node4&#45;&gt;Node13</title>
<g id="a_edge13_Node000004_Node000013"><a xlink:title=" ">
<path fill="none" stroke="#63b8ff" d="M883.75,-69.08C869.85,-60.32 852.47,-49.35 837.35,-39.81"/>
<polygon fill="#63b8ff" stroke="#63b8ff" points="839.4,-36.97 829.08,-34.59 835.67,-42.89 839.4,-36.97"/>
</a>
</g>
</g>
<!-- Node14 -->
<g id="Node000014" class="node">
<title>Node14</title>
<g id="a_Node000014"><a xlink:title=" ">
<polygon fill="#e0e0e0" stroke="#999999" points="935.5,-27.12 881.25,-27.12 881.25,-6.38 935.5,-6.38 935.5,-27.12"/>
<text text-anchor="middle" x="908.38" y="-13.62" font-family="Helvetica,sans-Serif" font-size="10.00">fstream</text>
</a>
</g>
</g>
<!-- Node4&#45;&gt;Node14 -->
<g id="edge15_Node000004_Node000014" class="edge">
<title>Node4&#45;&gt;Node14</title>
<g id="a_edge15_Node000004_Node000014"><a xlink:title=" ">
<path fill="none" stroke="#63b8ff" d="M909.14,-69.25C909,-60.15 908.83,-48.64 908.69,-38.82"/>
<polygon fill="#63b8ff" stroke="#63b8ff" points="912.19,-39.03 908.54,-29.09 905.19,-39.14 912.19,-39.03"/>
</a>
</g>
</g>
<!-- Node15 -->
<g id="Node000015" class="node">
<title>Node15</title>
<g id="a_Node000015"><a xlink:title=" ">
<polygon fill="#e0e0e0" stroke="#999999" points="1083,-33.5 953.75,-33.5 953.75,0 1083,0 1083,-33.5"/>
<text text-anchor="start" x="961.75" y="-20" font-family="Helvetica,sans-Serif" font-size="10.00">state&#45;observation/tools</text>
<text text-anchor="middle" x="1018.38" y="-7.25" font-family="Helvetica,sans-Serif" font-size="10.00">/definitions.hxx</text>
</a>
</g>
</g>
<!-- Node4&#45;&gt;Node15 -->
<g id="edge16_Node000004_Node000015" class="edge">
<title>Node4&#45;&gt;Node15</title>
<g id="a_edge16_Node000004_Node000015"><a xlink:title=" ">
<path fill="none" stroke="#63b8ff" d="M935.48,-69.08C949.64,-60.32 967.34,-49.35 982.75,-39.81"/>
<polygon fill="#63b8ff" stroke="#63b8ff" points="984.53,-42.82 991.19,-34.58 980.85,-36.87 984.53,-42.82"/>
</a>
</g>
</g>
<!-- Node16&#45;&gt;Node2 -->
<g id="edge18_Node000016_Node000002" class="edge">
<title>Node16&#45;&gt;Node2</title>
<g id="a_edge18_Node000016_Node000002"><a xlink:title=" ">
<path fill="none" stroke="#63b8ff" d="M1296.49,-144.96C1296.67,-118.8 1297.03,-67.24 1297.23,-38.44"/>
<polygon fill="#63b8ff" stroke="#63b8ff" points="1300.73,-38.85 1297.3,-28.82 1293.73,-38.8 1300.73,-38.85"/>
</a>
</g>
</g>
<!-- Node16&#45;&gt;Node4 -->
<g id="edge19_Node000016_Node000004" class="edge">
<title>Node16&#45;&gt;Node4</title>
<g id="a_edge19_Node000016_Node000004"><a xlink:title=" ">
<path fill="none" stroke="#63b8ff" d="M1230.36,-148.12C1214.95,-145.11 1198.59,-141.93 1183.38,-139 1116.55,-126.15 1040.5,-111.81 985.5,-101.49"/>
<polygon fill="#63b8ff" stroke="#63b8ff" points="986.41,-98.1 975.94,-99.69 985.12,-104.98 986.41,-98.1"/>
</a>
</g>
</g>
<!-- Node17&#45;&gt;Node2 -->
<g id="edge23_Node000017_Node000002" class="edge">
<title>Node17&#45;&gt;Node2</title>
<g id="a_edge23_Node000017_Node000002"><a xlink:title=" ">
<path fill="none" stroke="#63b8ff" d="M1505.49,-359.88C1532.69,-333.8 1571.38,-288.09 1571.38,-239 1571.38,-239 1571.38,-239 1571.38,-161.12 1571.38,-71.39 1454.58,-37.71 1373.5,-25.15"/>
<polygon fill="#63b8ff" stroke="#63b8ff" points="1374.21,-21.71 1363.81,-23.73 1373.19,-28.64 1374.21,-21.71"/>
</a>
</g>
</g>
<!-- Node17&#45;&gt;Node9 -->
<g id="edge21_Node000017_Node000009" class="edge">
<title>Node17&#45;&gt;Node9</title>
<g id="a_edge21_Node000017_Node000009"><a xlink:title=" ">
<path fill="none" stroke="#63b8ff" d="M1563.41,-377.77C1658.08,-371.11 1804.59,-355.94 1849.38,-324.25 1884.52,-299.38 1895.38,-282.05 1895.38,-239 1895.38,-239 1895.38,-239 1895.38,-161.12 1895.38,-114.24 1870.14,-63.79 1854.49,-37.02"/>
<polygon fill="#63b8ff" stroke="#63b8ff" points="1857.61,-35.42 1849.45,-28.67 1851.62,-39.04 1857.61,-35.42"/>
</a>
</g>
</g>
<!-- Node17&#45;&gt;Node11 -->
<g id="edge22_Node000017_Node000011" class="edge">
<title>Node17&#45;&gt;Node11</title>
<g id="a_edge22_Node000017_Node000011"><a xlink:title=" ">
<path fill="none" stroke="#63b8ff" d="M1563.36,-377.04C1712.8,-365.22 2009.38,-330.27 2009.38,-239 2009.38,-239 2009.38,-239 2009.38,-161.12 2009.38,-113.48 1980.83,-63.36 1963.12,-36.84"/>
<polygon fill="#63b8ff" stroke="#63b8ff" points="1966.15,-35.07 1957.59,-28.83 1960.39,-39.05 1966.15,-35.07"/>
</a>
</g>
</g>
<!-- Node18 -->
<g id="Node000018" class="node">
<title>Node18</title>
<g id="a_Node000018"><a xlink:href="algebraic-sensor_8hpp.html" target="_top" xlink:title="Gives a base class for algebraic sensors.">
<polygon fill="white" stroke="#666666" points="1840.25,-324.25 1664.5,-324.25 1664.5,-290.75 1840.25,-290.75 1840.25,-324.25"/>
<text text-anchor="start" x="1672.5" y="-310.75" font-family="Helvetica,sans-Serif" font-size="10.00">state&#45;observation/sensors</text>
<text text-anchor="middle" x="1752.38" y="-298" font-family="Helvetica,sans-Serif" font-size="10.00">&#45;simulation/algebraic&#45;sensor.hpp</text>
</a>
</g>
</g>
<!-- Node17&#45;&gt;Node18 -->
<g id="edge24_Node000017_Node000018" class="edge">
<title>Node17&#45;&gt;Node18</title>
<g id="a_edge24_Node000017_Node000018"><a xlink:title=" ">
<path fill="none" stroke="#63b8ff" d="M1562.77,-359.81C1600.71,-349.54 1645.14,-337.52 1681.45,-327.69"/>
<polygon fill="#63b8ff" stroke="#63b8ff" points="1682.24,-331.11 1690.98,-325.11 1680.41,-324.35 1682.24,-331.11"/>
</a>
</g>
</g>
<!-- Node20 -->
<g id="Node000020" class="node">
<title>Node20</title>
<g id="a_Node000020"><a xlink:href="linear-acceleration_8hpp.html" target="_top" xlink:title="Implements the accelerometer algorithm.">
<polygon fill="white" stroke="#666666" points="985.62,-185.25 833.12,-185.25 833.12,-139 985.62,-139 985.62,-185.25"/>
<text text-anchor="start" x="841.12" y="-171.75" font-family="Helvetica,sans-Serif" font-size="10.00">state&#45;observation/sensors</text>
<text text-anchor="start" x="841.12" y="-159" font-family="Helvetica,sans-Serif" font-size="10.00">&#45;simulation/algorithm/linear</text>
<text text-anchor="middle" x="909.38" y="-146.25" font-family="Helvetica,sans-Serif" font-size="10.00">&#45;acceleration.hpp</text>
</a>
</g>
</g>
<!-- Node17&#45;&gt;Node20 -->
<g id="edge33_Node000017_Node000020" class="edge">
<title>Node17&#45;&gt;Node20</title>
<g id="a_edge33_Node000017_Node000020"><a xlink:title=" ">
<path fill="none" stroke="#63b8ff" d="M1412.9,-359.83C1382.46,-349.31 1345.98,-336.45 1313.38,-324.25 1192.73,-279.09 1053.48,-222.57 973.99,-189.88"/>
<polygon fill="#63b8ff" stroke="#63b8ff" points="975.63,-186.77 965.05,-186.2 972.97,-193.25 975.63,-186.77"/>
</a>
</g>
</g>
<!-- Node21 -->
<g id="Node000021" class="node">
<title>Node21</title>
<g id="a_Node000021"><a xlink:href="magnetic-field_8hpp.html" target="_top" xlink:title="Implements the magnetic field algorithm.">
<polygon fill="white" stroke="#666666" points="1174.62,-185.25 1004.12,-185.25 1004.12,-139 1174.62,-139 1174.62,-185.25"/>
<text text-anchor="start" x="1012.12" y="-171.75" font-family="Helvetica,sans-Serif" font-size="10.00">state&#45;observation/sensors</text>
<text text-anchor="start" x="1012.12" y="-159" font-family="Helvetica,sans-Serif" font-size="10.00">&#45;simulation/algorithm/magnetic</text>
<text text-anchor="middle" x="1089.38" y="-146.25" font-family="Helvetica,sans-Serif" font-size="10.00">&#45;field.hpp</text>
</a>
</g>
</g>
<!-- Node17&#45;&gt;Node21 -->
<g id="edge36_Node000017_Node000021" class="edge">
<title>Node17&#45;&gt;Node21</title>
<g id="a_edge36_Node000017_Node000021"><a xlink:title=" ">
<path fill="none" stroke="#63b8ff" d="M1439.47,-359.94C1367.79,-319.65 1217.44,-235.12 1139.15,-191.11"/>
<polygon fill="#63b8ff" stroke="#63b8ff" points="1141.27,-188.28 1130.83,-186.43 1137.84,-194.38 1141.27,-188.28"/>
</a>
</g>
</g>
<!-- Node22 -->
<g id="Node000022" class="node">
<title>Node22</title>
<g id="a_Node000022"><a xlink:href="rotation-velocity_8hpp.html" target="_top" xlink:title="The implementation of the algorithm of a rotation velocity sensor.">
<polygon fill="white" stroke="#666666" points="1542.88,-185.25 1379.88,-185.25 1379.88,-139 1542.88,-139 1542.88,-185.25"/>
<text text-anchor="start" x="1387.88" y="-171.75" font-family="Helvetica,sans-Serif" font-size="10.00">state&#45;observation/sensors</text>
<text text-anchor="start" x="1387.88" y="-159" font-family="Helvetica,sans-Serif" font-size="10.00">&#45;simulation/algorithm/rotation</text>
<text text-anchor="middle" x="1461.38" y="-146.25" font-family="Helvetica,sans-Serif" font-size="10.00">&#45;velocity.hpp</text>
</a>
</g>
</g>
<!-- Node17&#45;&gt;Node22 -->
<g id="edge39_Node000017_Node000022" class="edge">
<title>Node17&#45;&gt;Node22</title>
<g id="a_edge39_Node000017_Node000022"><a xlink:title=" ">
<path fill="none" stroke="#63b8ff" d="M1477.55,-360.15C1474.39,-321.67 1467.89,-242.44 1464.16,-197.05"/>
<polygon fill="#63b8ff" stroke="#63b8ff" points="1467.66,-196.93 1463.36,-187.25 1460.69,-197.5 1467.66,-196.93"/>
</a>
</g>
</g>
<!-- Node18&#45;&gt;Node2 -->
<g id="edge27_Node000018_Node000002" class="edge">
<title>Node18&#45;&gt;Node2</title>
<g id="a_edge27_Node000018_Node000002"><a xlink:title=" ">
<path fill="none" stroke="#63b8ff" d="M1711.36,-290.33C1695.11,-281.99 1677.65,-270.25 1666.38,-254.75 1616.68,-186.38 1685.21,-127.12 1623.38,-69.5 1588.1,-36.63 1458.36,-24.62 1373.57,-20.24"/>
<polygon fill="#63b8ff" stroke="#63b8ff" points="1373.85,-16.75 1363.69,-19.75 1373.51,-23.74 1373.85,-16.75"/>
</a>
</g>
</g>
<!-- Node18&#45;&gt;Node9 -->
<g id="edge25_Node000018_Node000009" class="edge">
<title>Node18&#45;&gt;Node9</title>
<g id="a_edge25_Node000018_Node000009"><a xlink:title=" ">
<path fill="none" stroke="#63b8ff" d="M1797.3,-290.27C1813.13,-282.15 1829.24,-270.6 1838.38,-254.75 1878.97,-184.34 1859.31,-81.51 1848.2,-38.19"/>
<polygon fill="#63b8ff" stroke="#63b8ff" points="1851.61,-37.39 1845.63,-28.65 1844.85,-39.22 1851.61,-37.39"/>
</a>
</g>
</g>
<!-- Node18&#45;&gt;Node11 -->
<g id="edge26_Node000018_Node000011" class="edge">
<title>Node18&#45;&gt;Node11</title>
<g id="a_edge26_Node000018_Node000011"><a xlink:title=" ">
<path fill="none" stroke="#63b8ff" d="M1805.14,-290.29C1824.31,-282.19 1844.81,-270.65 1859.38,-254.75 1918.36,-190.36 1939.98,-83.41 1946.72,-38.56"/>
<polygon fill="#63b8ff" stroke="#63b8ff" points="1950.18,-39.08 1948.09,-28.69 1943.24,-38.11 1950.18,-39.08"/>
</a>
</g>
</g>
<!-- Node19 -->
<g id="Node000019" class="node">
<title>Node19</title>
<g id="a_Node000019"><a xlink:href="sensor-base_8hpp.html" target="_top" xlink:title="Implements the base class of all sensors.">
<polygon fill="white" stroke="#666666" points="1829.75,-254.75 1675,-254.75 1675,-221.25 1829.75,-221.25 1829.75,-254.75"/>
<text text-anchor="start" x="1683" y="-241.25" font-family="Helvetica,sans-Serif" font-size="10.00">state&#45;observation/sensors</text>
<text text-anchor="middle" x="1752.38" y="-228.5" font-family="Helvetica,sans-Serif" font-size="10.00">&#45;simulation/sensor&#45;base.hpp</text>
</a>
</g>
</g>
<!-- Node18&#45;&gt;Node19 -->
<g id="edge28_Node000018_Node000019" class="edge">
<title>Node18&#45;&gt;Node19</title>
<g id="a_edge28_Node000018_Node000019"><a xlink:title=" ">
<path fill="none" stroke="#63b8ff" d="M1752.38,-290.5C1752.38,-283.27 1752.38,-274.53 1752.38,-266.31"/>
<polygon fill="#63b8ff" stroke="#63b8ff" points="1755.88,-266.4 1752.38,-256.4 1748.88,-266.4 1755.88,-266.4"/>
</a>
</g>
</g>
<!-- Node19&#45;&gt;Node2 -->
<g id="edge31_Node000019_Node000002" class="edge">
<title>Node19&#45;&gt;Node2</title>
<g id="a_edge31_Node000019_Node000002"><a xlink:title=" ">
<path fill="none" stroke="#63b8ff" d="M1748.77,-220.86C1740.2,-186.64 1715.19,-106.89 1661.38,-69.5 1616.15,-38.08 1466.52,-25.5 1373.77,-20.65"/>
<polygon fill="#63b8ff" stroke="#63b8ff" points="1374.15,-17.16 1363.99,-20.15 1373.8,-24.15 1374.15,-17.16"/>
</a>
</g>
</g>
<!-- Node19&#45;&gt;Node9 -->
<g id="edge29_Node000019_Node000009" class="edge">
<title>Node19&#45;&gt;Node9</title>
<g id="a_edge29_Node000019_Node000009"><a xlink:title=" ">
<path fill="none" stroke="#63b8ff" d="M1758.99,-220.88C1775.1,-181.65 1816.3,-81.26 1834.04,-38.04"/>
<polygon fill="#63b8ff" stroke="#63b8ff" points="1837.25,-39.45 1837.81,-28.87 1830.78,-36.79 1837.25,-39.45"/>
</a>
</g>
</g>
<!-- Node19&#45;&gt;Node11 -->
<g id="edge30_Node000019_Node000011" class="edge">
<title>Node19&#45;&gt;Node11</title>
<g id="a_edge30_Node000019_Node000011"><a xlink:title=" ">
<path fill="none" stroke="#63b8ff" d="M1766.86,-220.88C1802.71,-180.98 1895.41,-77.82 1933.09,-35.88"/>
<polygon fill="#63b8ff" stroke="#63b8ff" points="1935.55,-38.37 1939.63,-28.59 1930.34,-33.69 1935.55,-38.37"/>
</a>
</g>
</g>
<!-- Node19&#45;&gt;Node16 -->
<g id="edge32_Node000019_Node000016" class="edge">
<title>Node19&#45;&gt;Node16</title>
<g id="a_edge32_Node000019_Node000016"><a xlink:title=" ">
<path fill="none" stroke="#63b8ff" d="M1674.79,-229.95C1597.38,-222.1 1475.32,-207.51 1371.38,-185.25 1367.09,-184.33 1362.7,-183.3 1358.29,-182.18"/>
<polygon fill="#63b8ff" stroke="#63b8ff" points="1359.37,-178.85 1348.81,-179.67 1357.58,-185.62 1359.37,-178.85"/>
</a>
</g>
</g>
<!-- Node20&#45;&gt;Node2 -->
<g id="edge34_Node000020_Node000002" class="edge">
<title>Node20&#45;&gt;Node2</title>
<g id="a_edge34_Node000020_Node000002"><a xlink:title=" ">
<path fill="none" stroke="#63b8ff" d="M985.86,-141.24C1018.75,-131.5 1057.19,-118.51 1090.38,-103 1115.62,-91.2 1118.21,-81.47 1143.38,-69.5 1177.52,-53.26 1218.12,-39.84 1249.07,-30.74"/>
<polygon fill="#63b8ff" stroke="#63b8ff" points="1249.91,-34.14 1258.55,-28 1247.97,-27.41 1249.91,-34.14"/>
</a>
</g>
</g>
<!-- Node20&#45;&gt;Node4 -->
<g id="edge35_Node000020_Node000004" class="edge">
<title>Node20&#45;&gt;Node4</title>
<g id="a_edge35_Node000020_Node000004"><a xlink:title=" ">
<path fill="none" stroke="#63b8ff" d="M909.38,-138.56C909.38,-131.01 909.38,-122.51 909.38,-114.63"/>
<polygon fill="#63b8ff" stroke="#63b8ff" points="912.88,-114.87 909.38,-104.87 905.88,-114.87 912.88,-114.87"/>
</a>
</g>
</g>
<!-- Node21&#45;&gt;Node2 -->
<g id="edge37_Node000021_Node000002" class="edge">
<title>Node21&#45;&gt;Node2</title>
<g id="a_edge37_Node000021_Node000002"><a xlink:title=" ">
<path fill="none" stroke="#63b8ff" d="M1109.78,-138.71C1128.75,-118.77 1158.51,-89.71 1188.38,-69.5 1210.93,-54.23 1238.7,-41.12 1260.56,-31.92"/>
<polygon fill="#63b8ff" stroke="#63b8ff" points="1261.76,-35.21 1269.68,-28.17 1259.1,-28.73 1261.76,-35.21"/>
</a>
</g>
</g>
<!-- Node21&#45;&gt;Node4 -->
<g id="edge38_Node000021_Node000004" class="edge">
<title>Node21&#45;&gt;Node4</title>
<g id="a_edge38_Node000021_Node000004"><a xlink:title=" ">
<path fill="none" stroke="#63b8ff" d="M1034.39,-138.56C1010.45,-128.73 982.6,-117.3 959.27,-107.73"/>
<polygon fill="#63b8ff" stroke="#63b8ff" points="960.87,-104.6 950.29,-104.04 958.22,-111.08 960.87,-104.6"/>
</a>
</g>
</g>
<!-- Node22&#45;&gt;Node2 -->
<g id="edge40_Node000022_Node000002" class="edge">
<title>Node22&#45;&gt;Node2</title>
<g id="a_edge40_Node000022_Node000002"><a xlink:title=" ">
<path fill="none" stroke="#63b8ff" d="M1435.75,-138.72C1402.91,-110.01 1346.68,-60.86 1317.02,-34.93"/>
<polygon fill="#63b8ff" stroke="#63b8ff" points="1319.36,-32.32 1309.53,-28.38 1314.75,-37.59 1319.36,-32.32"/>
</a>
</g>
</g>
<!-- Node22&#45;&gt;Node4 -->
<g id="edge41_Node000022_Node000004" class="edge">
<title>Node22&#45;&gt;Node4</title>
<g id="a_edge41_Node000022_Node000004"><a xlink:title=" ">
<path fill="none" stroke="#63b8ff" d="M1379.55,-140.53C1376.8,-139.99 1374.07,-139.48 1371.38,-139 1236.69,-115.01 1077.82,-100.1 985.84,-92.76"/>
<polygon fill="#63b8ff" stroke="#63b8ff" points="986.16,-89.28 975.92,-91.98 985.61,-96.26 986.16,-89.28"/>
</a>
</g>
</g>
<!-- Node23&#45;&gt;Node2 -->
<g id="edge44_Node000023_Node000002" class="edge">
<title>Node23&#45;&gt;Node2</title>
<g id="a_edge44_Node000023_Node000002"><a xlink:title=" ">
<path fill="none" stroke="#63b8ff" d="M454.17,-235.91C640.76,-232.65 1121.01,-220.86 1183.38,-185.25 1198.62,-176.55 1259.41,-79.57 1285.44,-37.28"/>
<polygon fill="#63b8ff" stroke="#63b8ff" points="1288.36,-39.21 1290.61,-28.86 1282.39,-35.55 1288.36,-39.21"/>
</a>
</g>
</g>
<!-- Node23&#45;&gt;Node4 -->
<g id="edge45_Node000023_Node000004" class="edge">
<title>Node23&#45;&gt;Node4</title>
<g id="a_edge45_Node000023_Node000004"><a xlink:title=" ">
<path fill="none" stroke="#63b8ff" d="M306.5,-233.38C272.4,-227.55 234.81,-214.33 213.38,-185.25 201.18,-168.7 199.37,-154.05 213.38,-139 251.32,-98.22 657.84,-107.23 713.38,-103 753.01,-99.98 797.15,-96.45 833.49,-93.5"/>
<polygon fill="#63b8ff" stroke="#63b8ff" points="833.31,-97.02 842.99,-92.72 832.74,-90.05 833.31,-97.02"/>
</a>
</g>
</g>
<!-- Node24 -->
<g id="Node000024" class="node">
<title>Node24</title>
<g id="a_Node000024"><a xlink:title=" ">
<polygon fill="#e0e0e0" stroke="#999999" points="288.5,-172.5 222.25,-172.5 222.25,-151.75 288.5,-151.75 288.5,-172.5"/>
<text text-anchor="middle" x="255.38" y="-159" font-family="Helvetica,sans-Serif" font-size="10.00">Eigen/SVD</text>
</a>
</g>
</g>
<!-- Node23&#45;&gt;Node24 -->
<g id="edge43_Node000023_Node000024" class="edge">
<title>Node23&#45;&gt;Node24</title>
<g id="a_edge43_Node000023_Node000024"><a xlink:title=" ">
<path fill="none" stroke="#63b8ff" d="M352.94,-220.79C331.79,-208.29 302.72,-191.11 281.83,-178.76"/>
<polygon fill="#63b8ff" stroke="#63b8ff" points="283.7,-175.8 273.31,-173.73 280.14,-181.83 283.7,-175.8"/>
</a>
</g>
</g>
<!-- Node25 -->
<g id="Node000025" class="node">
<title>Node25</title>
<g id="a_Node000025"><a xlink:href="miscellaneous-algorithms_8hpp.html" target="_top" xlink:title="Gathers many kinds of algorithms.">
<polygon fill="white" stroke="#666666" points="166.75,-178.88 0,-178.88 0,-145.38 166.75,-145.38 166.75,-178.88"/>
<text text-anchor="start" x="8" y="-165.38" font-family="Helvetica,sans-Serif" font-size="10.00">state&#45;observation/tools</text>
<text text-anchor="middle" x="83.38" y="-152.62" font-family="Helvetica,sans-Serif" font-size="10.00">/miscellaneous&#45;algorithms.hpp</text>
</a>
</g>
</g>
<!-- Node23&#45;&gt;Node25 -->
<g id="edge46_Node000023_Node000025" class="edge">
<title>Node23&#45;&gt;Node25</title>
<g id="a_edge46_Node000023_Node000025"><a xlink:title=" ">
<path fill="none" stroke="#63b8ff" d="M315.2,-220.79C269.34,-209.38 207.8,-194.07 159.65,-182.1"/>
<polygon fill="#63b8ff" stroke="#63b8ff" points="160.67,-178.75 150.13,-179.73 158.99,-185.54 160.67,-178.75"/>
</a>
</g>
</g>
<!-- Node28 -->
<g id="Node000028" class="node">
<title>Node28</title>
<g id="a_Node000028"><a xlink:href="probability-law-simulation_8hpp.html" target="_top" xlink:title=" ">
<polygon fill="white" stroke="#666666" points="640.88,-178.88 471.88,-178.88 471.88,-145.38 640.88,-145.38 640.88,-178.88"/>
<text text-anchor="start" x="479.88" y="-165.38" font-family="Helvetica,sans-Serif" font-size="10.00">state&#45;observation/tools</text>
<text text-anchor="middle" x="556.38" y="-152.62" font-family="Helvetica,sans-Serif" font-size="10.00">/probability&#45;law&#45;simulation.hpp</text>
</a>
</g>
</g>
<!-- Node23&#45;&gt;Node28 -->
<g id="edge51_Node000023_Node000028" class="edge">
<title>Node23&#45;&gt;Node28</title>
<g id="a_edge51_Node000023_Node000028"><a xlink:title=" ">
<path fill="none" stroke="#63b8ff" d="M419,-220.79C445.02,-209.87 479.56,-195.37 507.49,-183.64"/>
<polygon fill="#63b8ff" stroke="#63b8ff" points="508.58,-186.98 516.45,-179.89 505.87,-180.53 508.58,-186.98"/>
</a>
</g>
</g>
<!-- Node31 -->
<g id="Node000031" class="node">
<title>Node31</title>
<g id="a_Node000031"><a xlink:title=" ">
<polygon fill="#e0e0e0" stroke="#999999" points="454,-178.88 306.75,-178.88 306.75,-145.38 454,-145.38 454,-178.88"/>
<text text-anchor="start" x="314.75" y="-165.38" font-family="Helvetica,sans-Serif" font-size="10.00">state&#45;observation/tools</text>
<text text-anchor="middle" x="380.38" y="-152.62" font-family="Helvetica,sans-Serif" font-size="10.00">/rigid&#45;body&#45;kinematics.hxx</text>
</a>
</g>
</g>
<!-- Node23&#45;&gt;Node31 -->
<g id="edge56_Node000023_Node000031" class="edge">
<title>Node23&#45;&gt;Node31</title>
<g id="a_edge56_Node000023_Node000031"><a xlink:title=" ">
<path fill="none" stroke="#63b8ff" d="M380.38,-220.97C380.38,-212.06 380.38,-200.74 380.38,-190.48"/>
<polygon fill="#63b8ff" stroke="#63b8ff" points="383.88,-190.64 380.38,-180.64 376.88,-190.64 383.88,-190.64"/>
</a>
</g>
</g>
<!-- Node25&#45;&gt;Node2 -->
<g id="edge49_Node000025_Node000002" class="edge">
<title>Node25&#45;&gt;Node2</title>
<g id="a_edge49_Node000025_Node000002"><a xlink:title=" ">
<path fill="none" stroke="#63b8ff" d="M135.41,-144.89C206.76,-123.42 339.36,-86.34 455.38,-69.5 793.54,-20.41 884.47,-77.21 1223.38,-33.5 1230.64,-32.56 1238.25,-31.29 1245.72,-29.86"/>
<polygon fill="#63b8ff" stroke="#63b8ff" points="1246.27,-33.32 1255.38,-27.91 1244.89,-26.46 1246.27,-33.32"/>
</a>
</g>
</g>
<!-- Node25&#45;&gt;Node4 -->
<g id="edge50_Node000025_Node000004" class="edge">
<title>Node25&#45;&gt;Node4</title>
<g id="a_edge50_Node000025_Node000004"><a xlink:title=" ">
<path fill="none" stroke="#63b8ff" d="M148.07,-144.89C158.81,-142.62 169.87,-140.54 180.38,-139 415.28,-104.49 476.59,-120.51 713.38,-103 753.02,-100.07 797.16,-96.54 833.49,-93.57"/>
<polygon fill="#63b8ff" stroke="#63b8ff" points="833.31,-97.1 843,-92.8 832.74,-90.12 833.31,-97.1"/>
</a>
</g>
</g>
<!-- Node26 -->
<g id="Node000026" class="node">
<title>Node26</title>
<g id="a_Node000026"><a xlink:title=" ">
<polygon fill="#e0e0e0" stroke="#999999" points="174.38,-96.62 80.38,-96.62 80.38,-75.88 174.38,-75.88 174.38,-96.62"/>
<text text-anchor="middle" x="127.38" y="-83.12" font-family="Helvetica,sans-Serif" font-size="10.00">boost/utility.hpp</text>
</a>
</g>
</g>
<!-- Node25&#45;&gt;Node26 -->
<g id="edge47_Node000025_Node000026" class="edge">
<title>Node25&#45;&gt;Node26</title>
<g id="a_edge47_Node000025_Node000026"><a xlink:title=" ">
<path fill="none" stroke="#63b8ff" d="M92.92,-145.1C99.73,-133.67 108.9,-118.27 116.07,-106.24"/>
<polygon fill="#63b8ff" stroke="#63b8ff" points="118.86,-108.39 120.97,-98.01 112.84,-104.81 118.86,-108.39"/>
</a>
</g>
</g>
<!-- Node27 -->
<g id="Node000027" class="node">
<title>Node27</title>
<g id="a_Node000027"><a xlink:title=" ">
<polygon fill="#e0e0e0" stroke="#999999" points="62.75,-96.62 16,-96.62 16,-75.88 62.75,-75.88 62.75,-96.62"/>
<text text-anchor="middle" x="39.38" y="-83.12" font-family="Helvetica,sans-Serif" font-size="10.00">cmath</text>
</a>
</g>
</g>
<!-- Node25&#45;&gt;Node27 -->
<g id="edge48_Node000025_Node000027" class="edge">
<title>Node25&#45;&gt;Node27</title>
<g id="a_edge48_Node000025_Node000027"><a xlink:title=" ">
<path fill="none" stroke="#63b8ff" d="M73.83,-145.1C67.02,-133.67 57.85,-118.27 50.68,-106.24"/>
<polygon fill="#63b8ff" stroke="#63b8ff" points="53.91,-104.81 45.78,-98.01 47.89,-108.39 53.91,-104.81"/>
</a>
</g>
</g>
<!-- Node28&#45;&gt;Node2 -->
<g id="edge53_Node000028_Node000002" class="edge">
<title>Node28&#45;&gt;Node2</title>
<g id="a_edge53_Node000028_Node000002"><a xlink:title=" ">
<path fill="none" stroke="#63b8ff" d="M620.63,-144.89C630.55,-142.71 640.71,-140.65 650.38,-139 797.11,-113.9 842.05,-149.76 983.38,-103 1011.27,-93.77 1012.9,-79.93 1040.38,-69.5 1117.87,-40.08 1142.17,-50.13 1223.38,-33.5 1228.94,-32.36 1234.74,-31.16 1240.54,-29.94"/>
<polygon fill="#63b8ff" stroke="#63b8ff" points="1241.06,-33.41 1250.13,-27.92 1239.62,-26.56 1241.06,-33.41"/>
</a>
</g>
</g>
<!-- Node28&#45;&gt;Node4 -->
<g id="edge54_Node000028_Node000004" class="edge">
<title>Node28&#45;&gt;Node4</title>
<g id="a_edge54_Node000028_Node000004"><a xlink:title=" ">
<path fill="none" stroke="#63b8ff" d="M624.09,-144.9C632.92,-142.87 641.86,-140.85 650.38,-139 711.74,-125.65 781.57,-111.78 833.25,-101.76"/>
<polygon fill="#63b8ff" stroke="#63b8ff" points="833.68,-105.24 842.83,-99.9 832.35,-98.36 833.68,-105.24"/>
</a>
</g>
</g>
<!-- Node29 -->
<g id="Node000029" class="node">
<title>Node29</title>
<g id="a_Node000029"><a xlink:title=" ">
<polygon fill="#e0e0e0" stroke="#999999" points="518.12,-96.62 464.62,-96.62 464.62,-75.88 518.12,-75.88 518.12,-96.62"/>
<text text-anchor="middle" x="491.38" y="-83.12" font-family="Helvetica,sans-Serif" font-size="10.00">random</text>
</a>
</g>
</g>
<!-- Node28&#45;&gt;Node29 -->
<g id="edge52_Node000028_Node000029" class="edge">
<title>Node28&#45;&gt;Node29</title>
<g id="a_edge52_Node000028_Node000029"><a xlink:title=" ">
<path fill="none" stroke="#63b8ff" d="M542.27,-145.1C531.92,-133.33 517.85,-117.34 507.13,-105.15"/>
<polygon fill="#63b8ff" stroke="#63b8ff" points="509.93,-103.04 500.7,-97.84 504.67,-107.66 509.93,-103.04"/>
</a>
</g>
</g>
<!-- Node30 -->
<g id="Node000030" class="node">
<title>Node30</title>
<g id="a_Node000030"><a xlink:title=" ">
<polygon fill="#e0e0e0" stroke="#999999" points="704.88,-103 535.88,-103 535.88,-69.5 704.88,-69.5 704.88,-103"/>
<text text-anchor="start" x="543.88" y="-89.5" font-family="Helvetica,sans-Serif" font-size="10.00">state&#45;observation/tools</text>
<text text-anchor="middle" x="620.38" y="-76.75" font-family="Helvetica,sans-Serif" font-size="10.00">/probability&#45;law&#45;simulation.hxx</text>
</a>
</g>
</g>
<!-- Node28&#45;&gt;Node30 -->
<g id="edge55_Node000028_Node000030" class="edge">
<title>Node28&#45;&gt;Node30</title>
<g id="a_edge55_Node000028_Node000030"><a xlink:title=" ">
<path fill="none" stroke="#63b8ff" d="M570.26,-145.1C578.65,-135.41 589.51,-122.88 598.98,-111.95"/>
<polygon fill="#63b8ff" stroke="#63b8ff" points="601.62,-114.24 605.52,-104.39 596.33,-109.66 601.62,-114.24"/>
</a>
</g>
</g>
</g>
</svg>
