<?xml version="1.0" encoding="UTF-8" standalone="no"?>
<!DOCTYPE svg PUBLIC "-//W3C//DTD SVG 1.1//EN"
 "http://www.w3.org/Graphics/SVG/1.1/DTD/svg11.dtd">
<!-- Generated by graphviz version 12.2.1 (0)
 -->
<!-- Title: /build/source/include/state&#45;observation/flexibility&#45;estimation/imu&#45;fixed&#45;contact&#45;dynamical&#45;system.hpp Pages: 1 -->
<svg width="1843pt" height="510pt"
 viewBox="0.00 0.00 1843.00 509.50" xmlns="http://www.w3.org/2000/svg" xmlns:xlink="http://www.w3.org/1999/xlink">
<g id="graph0" class="graph" transform="scale(1 1) rotate(0) translate(4 505.5)">
<title>/build/source/include/state&#45;observation/flexibility&#45;estimation/imu&#45;fixed&#45;contact&#45;dynamical&#45;system.hpp</title>
<!-- Node1 -->
<g id="Node000001" class="node">
<title>Node1</title>
<g id="a_Node000001"><a xlink:title="Definitions of the dynamical system of a robot flexibility with an IMU sensor.">
<polygon fill="#999999" stroke="#666666" points="961.38,-501.5 800.62,-501.5 800.62,-442.5 961.38,-442.5 961.38,-501.5"/>
<text text-anchor="start" x="808.62" y="-488" font-family="Helvetica,sans-Serif" font-size="10.00">/build/source/include</text>
<text text-anchor="start" x="808.62" y="-475.25" font-family="Helvetica,sans-Serif" font-size="10.00">/state&#45;observation/flexibility</text>
<text text-anchor="start" x="808.62" y="-462.5" font-family="Helvetica,sans-Serif" font-size="10.00">&#45;estimation/imu&#45;fixed&#45;contact</text>
<text text-anchor="middle" x="881" y="-449.75" font-family="Helvetica,sans-Serif" font-size="10.00">&#45;dynamical&#45;system.hpp</text>
</a>
</g>
</g>
<!-- Node2 -->
<g id="Node000002" class="node">
<title>Node2</title>
<g id="a_Node000002"><a xlink:title=" ">
<polygon fill="#e0e0e0" stroke="#999999" points="64.38,-27.12 17.62,-27.12 17.62,-6.38 64.38,-6.38 64.38,-27.12"/>
<text text-anchor="middle" x="41" y="-13.62" font-family="Helvetica,sans-Serif" font-size="10.00">vector</text>
</a>
</g>
</g>
<!-- Node1&#45;&gt;Node2 -->
<g id="edge1_Node000001_Node000002" class="edge">
<title>Node1&#45;&gt;Node2</title>
<g id="a_edge1_Node000001_Node000002"><a xlink:title=" ">
<path fill="none" stroke="#63b8ff" d="M800.48,-464.6C583,-446.24 0,-389.47 0,-308.5 0,-308.5 0,-308.5 0,-161.12 0,-115.59 19.35,-64.95 31.46,-37.71"/>
<polygon fill="#63b8ff" stroke="#63b8ff" points="34.51,-39.48 35.5,-28.93 28.15,-36.55 34.51,-39.48"/>
</a>
</g>
</g>
<!-- Node3 -->
<g id="Node000003" class="node">
<title>Node3</title>
<g id="a_Node000003"><a xlink:title=" ">
<polygon fill="#e0e0e0" stroke="#999999" points="1064.62,-27.12 935.38,-27.12 935.38,-6.38 1064.62,-6.38 1064.62,-27.12"/>
<text text-anchor="middle" x="1000" y="-13.62" font-family="Helvetica,sans-Serif" font-size="10.00">state&#45;observation/api.h</text>
</a>
</g>
</g>
<!-- Node1&#45;&gt;Node3 -->
<g id="edge2_Node000001_Node000003" class="edge">
<title>Node1&#45;&gt;Node3</title>
<g id="a_edge2_Node000001_Node000003"><a xlink:title=" ">
<path fill="none" stroke="#63b8ff" d="M896.47,-442.27C912.12,-410.49 934,-357.31 934,-308.5 934,-308.5 934,-308.5 934,-161.12 934,-112.53 965.67,-62.46 985.14,-36.27"/>
<polygon fill="#63b8ff" stroke="#63b8ff" points="987.67,-38.73 990.98,-28.66 982.12,-34.46 987.67,-38.73"/>
</a>
</g>
</g>
<!-- Node4 -->
<g id="Node000004" class="node">
<title>Node4</title>
<g id="a_Node000004"><a xlink:href="dynamical-system-functor-base_8hpp_source.html" target="_top" xlink:title=" ">
<polygon fill="white" stroke="#666666" points="906.12,-185.25 749.88,-185.25 749.88,-139 906.12,-139 906.12,-185.25"/>
<text text-anchor="start" x="757.88" y="-171.75" font-family="Helvetica,sans-Serif" font-size="10.00">state&#45;observation/dynamical</text>
<text text-anchor="start" x="757.88" y="-159" font-family="Helvetica,sans-Serif" font-size="10.00">&#45;system/dynamical&#45;system</text>
<text text-anchor="middle" x="828" y="-146.25" font-family="Helvetica,sans-Serif" font-size="10.00">&#45;functor&#45;base.hpp</text>
</a>
</g>
</g>
<!-- Node1&#45;&gt;Node4 -->
<g id="edge3_Node000001_Node000004" class="edge">
<title>Node1&#45;&gt;Node4</title>
<g id="a_edge3_Node000001_Node000004"><a xlink:title=" ">
<path fill="none" stroke="#63b8ff" d="M876.01,-442.04C866.16,-384.78 844.23,-257.41 833.77,-196.64"/>
<polygon fill="#63b8ff" stroke="#63b8ff" points="837.24,-196.17 832.09,-186.91 830.34,-197.35 837.24,-196.17"/>
</a>
</g>
</g>
<!-- Node16 -->
<g id="Node000016" class="node">
<title>Node16</title>
<g id="a_Node000016"><a xlink:href="noise-base_8hpp.html" target="_top" xlink:title=" ">
<polygon fill="white" stroke="#666666" points="1444.75,-178.88 1313.25,-178.88 1313.25,-145.38 1444.75,-145.38 1444.75,-178.88"/>
<text text-anchor="start" x="1321.25" y="-165.38" font-family="Helvetica,sans-Serif" font-size="10.00">state&#45;observation/noise</text>
<text text-anchor="middle" x="1379" y="-152.62" font-family="Helvetica,sans-Serif" font-size="10.00">/noise&#45;base.hpp</text>
</a>
</g>
</g>
<!-- Node1&#45;&gt;Node16 -->
<g id="edge18_Node000001_Node000016" class="edge">
<title>Node1&#45;&gt;Node16</title>
<g id="a_edge18_Node000001_Node000016"><a xlink:title=" ">
<path fill="none" stroke="#63b8ff" d="M927.85,-442.04C1026.82,-380.85 1255.3,-239.6 1343.43,-185.11"/>
<polygon fill="#63b8ff" stroke="#63b8ff" points="1345.03,-188.24 1351.69,-180.01 1341.35,-182.29 1345.03,-188.24"/>
</a>
</g>
</g>
<!-- Node17 -->
<g id="Node000017" class="node">
<title>Node17</title>
<g id="a_Node000017"><a xlink:href="accelerometer-gyrometer_8hpp.html" target="_top" xlink:title="Implements the accelerometer&#45;gyrometer inertial measuremen.">
<polygon fill="white" stroke="#666666" points="1545.5,-406.5 1400.5,-406.5 1400.5,-360.25 1545.5,-360.25 1545.5,-406.5"/>
<text text-anchor="start" x="1408.5" y="-393" font-family="Helvetica,sans-Serif" font-size="10.00">state&#45;observation/sensors</text>
<text text-anchor="start" x="1408.5" y="-380.25" font-family="Helvetica,sans-Serif" font-size="10.00">&#45;simulation/accelerometer</text>
<text text-anchor="middle" x="1473" y="-367.5" font-family="Helvetica,sans-Serif" font-size="10.00">&#45;gyrometer.hpp</text>
</a>
</g>
</g>
<!-- Node1&#45;&gt;Node17 -->
<g id="edge21_Node000001_Node000017" class="edge">
<title>Node1&#45;&gt;Node17</title>
<g id="a_edge21_Node000001_Node000017"><a xlink:title=" ">
<path fill="none" stroke="#63b8ff" d="M961.76,-459.18C1073.84,-442.78 1275.52,-413.27 1389.19,-396.64"/>
<polygon fill="#63b8ff" stroke="#63b8ff" points="1389.36,-400.15 1398.75,-395.24 1388.35,-393.22 1389.36,-400.15"/>
</a>
</g>
</g>
<!-- Node22 -->
<g id="Node000022" class="node">
<title>Node22</title>
<g id="a_Node000022"><a xlink:href="rigid-body-kinematics_8hpp.html" target="_top" xlink:title="Implements integrators for the kinematics, in terms or rotations and translations.">
<polygon fill="white" stroke="#666666" points="609.62,-254.75 462.38,-254.75 462.38,-221.25 609.62,-221.25 609.62,-254.75"/>
<text text-anchor="start" x="470.38" y="-241.25" font-family="Helvetica,sans-Serif" font-size="10.00">state&#45;observation/tools</text>
<text text-anchor="middle" x="536" y="-228.5" font-family="Helvetica,sans-Serif" font-size="10.00">/rigid&#45;body&#45;kinematics.hpp</text>
</a>
</g>
</g>
<!-- Node1&#45;&gt;Node22 -->
<g id="edge40_Node000001_Node000022" class="edge">
<title>Node1&#45;&gt;Node22</title>
<g id="a_edge40_Node000001_Node000022"><a xlink:title=" ">
<path fill="none" stroke="#63b8ff" d="M838,-442.09C768.39,-395.27 632.47,-303.87 569.5,-261.53"/>
<polygon fill="#63b8ff" stroke="#63b8ff" points="571.55,-258.69 561.3,-256.01 567.64,-264.5 571.55,-258.69"/>
</a>
</g>
</g>
<!-- Node4&#45;&gt;Node3 -->
<g id="edge4_Node000004_Node000003" class="edge">
<title>Node4&#45;&gt;Node3</title>
<g id="a_edge4_Node000004_Node000003"><a xlink:title=" ">
<path fill="none" stroke="#63b8ff" d="M848.01,-138.7C865.9,-119.28 893.33,-91.01 920,-69.5 936.69,-56.04 956.98,-42.94 972.96,-33.29"/>
<polygon fill="#63b8ff" stroke="#63b8ff" points="974.63,-36.37 981.45,-28.25 971.06,-30.35 974.63,-36.37"/>
</a>
</g>
</g>
<!-- Node5 -->
<g id="Node000005" class="node">
<title>Node5</title>
<g id="a_Node000005"><a xlink:href="definitions_8hpp.html" target="_top" xlink:title="Definitions of types and some structures.">
<polygon fill="white" stroke="#666666" points="674.62,-103 545.38,-103 545.38,-69.5 674.62,-69.5 674.62,-103"/>
<text text-anchor="start" x="553.38" y="-89.5" font-family="Helvetica,sans-Serif" font-size="10.00">state&#45;observation/tools</text>
<text text-anchor="middle" x="610" y="-76.75" font-family="Helvetica,sans-Serif" font-size="10.00">/definitions.hpp</text>
</a>
</g>
</g>
<!-- Node4&#45;&gt;Node5 -->
<g id="edge5_Node000004_Node000005" class="edge">
<title>Node4&#45;&gt;Node5</title>
<g id="a_edge5_Node000004_Node000005"><a xlink:title=" ">
<path fill="none" stroke="#63b8ff" d="M761.41,-138.56C731.76,-128.51 697.16,-116.79 668.52,-107.08"/>
<polygon fill="#63b8ff" stroke="#63b8ff" points="669.89,-103.85 659.3,-103.96 667.64,-110.48 669.89,-103.85"/>
</a>
</g>
</g>
<!-- Node5&#45;&gt;Node2 -->
<g id="edge9_Node000005_Node000002" class="edge">
<title>Node5&#45;&gt;Node2</title>
<g id="a_edge9_Node000005_Node000002"><a xlink:title=" ">
<path fill="none" stroke="#63b8ff" d="M545.14,-76.08C527.89,-73.78 509.25,-71.43 492,-69.5 314.16,-49.66 266.47,-68.58 91,-33.5 85.94,-32.49 80.68,-31.15 75.54,-29.69"/>
<polygon fill="#63b8ff" stroke="#63b8ff" points="76.67,-26.37 66.08,-26.79 74.62,-33.07 76.67,-26.37"/>
</a>
</g>
</g>
<!-- Node5&#45;&gt;Node3 -->
<g id="edge15_Node000005_Node000003" class="edge">
<title>Node5&#45;&gt;Node3</title>
<g id="a_edge15_Node000005_Node000003"><a xlink:title=" ">
<path fill="none" stroke="#63b8ff" d="M675.06,-72.07C679.77,-71.18 684.46,-70.31 689,-69.5 789.55,-51.51 815.35,-50.91 916,-33.5 923.09,-32.27 930.5,-30.95 937.87,-29.6"/>
<polygon fill="#63b8ff" stroke="#63b8ff" points="938.27,-33.09 947.47,-27.83 937,-26.2 938.27,-33.09"/>
</a>
</g>
</g>
<!-- Node6 -->
<g id="Node000006" class="node">
<title>Node6</title>
<g id="a_Node000006"><a xlink:title=" ">
<polygon fill="#e0e0e0" stroke="#999999" points="760.5,-27.12 711.5,-27.12 711.5,-6.38 760.5,-6.38 760.5,-27.12"/>
<text text-anchor="middle" x="736" y="-13.62" font-family="Helvetica,sans-Serif" font-size="10.00">chrono</text>
</a>
</g>
</g>
<!-- Node5&#45;&gt;Node6 -->
<g id="edge6_Node000005_Node000006" class="edge">
<title>Node5&#45;&gt;Node6</title>
<g id="a_edge6_Node000005_Node000006"><a xlink:title=" ">
<path fill="none" stroke="#63b8ff" d="M640.18,-69.08C660.67,-58.11 687.58,-43.69 707.67,-32.93"/>
<polygon fill="#63b8ff" stroke="#63b8ff" points="709.26,-36.04 716.43,-28.24 705.96,-29.87 709.26,-36.04"/>
</a>
</g>
</g>
<!-- Node7 -->
<g id="Node000007" class="node">
<title>Node7</title>
<g id="a_Node000007"><a xlink:title=" ">
<polygon fill="#e0e0e0" stroke="#999999" points="825,-27.12 779,-27.12 779,-6.38 825,-6.38 825,-27.12"/>
<text text-anchor="middle" x="802" y="-13.62" font-family="Helvetica,sans-Serif" font-size="10.00">deque</text>
</a>
</g>
</g>
<!-- Node5&#45;&gt;Node7 -->
<g id="edge7_Node000005_Node000007" class="edge">
<title>Node5&#45;&gt;Node7</title>
<g id="a_edge7_Node000005_Node000007"><a xlink:title=" ">
<path fill="none" stroke="#63b8ff" d="M666.99,-69.01C697.86,-59.67 736.45,-47.1 770,-33.5 770.95,-33.11 771.92,-32.71 772.89,-32.3"/>
<polygon fill="#63b8ff" stroke="#63b8ff" points="774.25,-35.52 781.88,-28.17 771.33,-29.16 774.25,-35.52"/>
</a>
</g>
</g>
<!-- Node8 -->
<g id="Node000008" class="node">
<title>Node8</title>
<g id="a_Node000008"><a xlink:title=" ">
<polygon fill="#e0e0e0" stroke="#999999" points="907,-27.12 843,-27.12 843,-6.38 907,-6.38 907,-27.12"/>
<text text-anchor="middle" x="875" y="-13.62" font-family="Helvetica,sans-Serif" font-size="10.00">stdexcept</text>
</a>
</g>
</g>
<!-- Node5&#45;&gt;Node8 -->
<g id="edge8_Node000005_Node000008" class="edge">
<title>Node5&#45;&gt;Node8</title>
<g id="a_edge8_Node000005_Node000008"><a xlink:title=" ">
<path fill="none" stroke="#63b8ff" d="M674.89,-71.32C730.01,-59.28 804.71,-42.46 834,-33.5 836.22,-32.82 838.5,-32.08 840.78,-31.3"/>
<polygon fill="#63b8ff" stroke="#63b8ff" points="841.71,-34.69 849.92,-28 839.33,-28.1 841.71,-34.69"/>
</a>
</g>
</g>
<!-- Node9 -->
<g id="Node000009" class="node">
<title>Node9</title>
<g id="a_Node000009"><a xlink:title=" ">
<polygon fill="#e0e0e0" stroke="#999999" points="1793.5,-27.12 1696.5,-27.12 1696.5,-6.38 1793.5,-6.38 1793.5,-27.12"/>
<text text-anchor="middle" x="1745" y="-13.62" font-family="Helvetica,sans-Serif" font-size="10.00">boost/assert.hpp</text>
</a>
</g>
</g>
<!-- Node5&#45;&gt;Node9 -->
<g id="edge10_Node000005_Node000009" class="edge">
<title>Node5&#45;&gt;Node9</title>
<g id="a_edge10_Node000005_Node000009"><a xlink:title=" ">
<path fill="none" stroke="#63b8ff" d="M674.91,-85.71C841.26,-86.1 1296.09,-82.22 1671,-33.5 1678.27,-32.56 1685.88,-31.28 1693.34,-29.85"/>
<polygon fill="#63b8ff" stroke="#63b8ff" points="1693.9,-33.31 1703.01,-27.9 1692.51,-26.45 1693.9,-33.31"/>
</a>
</g>
</g>
<!-- Node10 -->
<g id="Node000010" class="node">
<title>Node10</title>
<g id="a_Node000010"><a xlink:title=" ">
<polygon fill="#e0e0e0" stroke="#999999" points="221.88,-27.12 100.12,-27.12 100.12,-6.38 221.88,-6.38 221.88,-27.12"/>
<text text-anchor="middle" x="161" y="-13.62" font-family="Helvetica,sans-Serif" font-size="10.00">boost/timer/timer.hpp</text>
</a>
</g>
</g>
<!-- Node5&#45;&gt;Node10 -->
<g id="edge11_Node000005_Node000010" class="edge">
<title>Node5&#45;&gt;Node10</title>
<g id="a_edge11_Node000005_Node000010"><a xlink:title=" ">
<path fill="none" stroke="#63b8ff" d="M545.15,-76.54C440.94,-62.53 246.26,-36.25 231,-33.5 225.1,-32.44 218.95,-31.21 212.84,-29.93"/>
<polygon fill="#63b8ff" stroke="#63b8ff" points="213.96,-26.6 203.45,-27.9 212.48,-33.44 213.96,-26.6"/>
</a>
</g>
</g>
<!-- Node11 -->
<g id="Node000011" class="node">
<title>Node11</title>
<g id="a_Node000011"><a xlink:title=" ">
<polygon fill="#e0e0e0" stroke="#999999" points="1662.25,-27.12 1593.75,-27.12 1593.75,-6.38 1662.25,-6.38 1662.25,-27.12"/>
<text text-anchor="middle" x="1628" y="-13.62" font-family="Helvetica,sans-Serif" font-size="10.00">Eigen/Core</text>
</a>
</g>
</g>
<!-- Node5&#45;&gt;Node11 -->
<g id="edge12_Node000005_Node000011" class="edge">
<title>Node5&#45;&gt;Node11</title>
<g id="a_edge12_Node000005_Node000011"><a xlink:title=" ">
<path fill="none" stroke="#63b8ff" d="M674.84,-80.95C865.16,-68.33 1419.07,-31.6 1582.25,-20.78"/>
<polygon fill="#63b8ff" stroke="#63b8ff" points="1582.06,-24.3 1591.81,-20.15 1581.6,-17.32 1582.06,-24.3"/>
</a>
</g>
</g>
<!-- Node12 -->
<g id="Node000012" class="node">
<title>Node12</title>
<g id="a_Node000012"><a xlink:title=" ">
<polygon fill="#e0e0e0" stroke="#999999" points="334.38,-27.12 239.62,-27.12 239.62,-6.38 334.38,-6.38 334.38,-27.12"/>
<text text-anchor="middle" x="287" y="-13.62" font-family="Helvetica,sans-Serif" font-size="10.00">Eigen/Geometry</text>
</a>
</g>
</g>
<!-- Node5&#45;&gt;Node12 -->
<g id="edge13_Node000005_Node000012" class="edge">
<title>Node5&#45;&gt;Node12</title>
<g id="a_edge13_Node000005_Node000012"><a xlink:title=" ">
<path fill="none" stroke="#63b8ff" d="M544.94,-74.19C490.67,-64.6 411.46,-49.73 343,-33.5 339.2,-32.6 335.27,-31.61 331.34,-30.58"/>
<polygon fill="#63b8ff" stroke="#63b8ff" points="332.37,-27.24 321.81,-28.01 330.55,-33.99 332.37,-27.24"/>
</a>
</g>
</g>
<!-- Node13 -->
<g id="Node000013" class="node">
<title>Node13</title>
<g id="a_Node000013"><a xlink:title=" ">
<polygon fill="#e0e0e0" stroke="#999999" points="473.88,-33.5 352.12,-33.5 352.12,0 473.88,0 473.88,-33.5"/>
<text text-anchor="start" x="360.12" y="-20" font-family="Helvetica,sans-Serif" font-size="10.00">boost/math/constants</text>
<text text-anchor="middle" x="413" y="-7.25" font-family="Helvetica,sans-Serif" font-size="10.00">/constants.hpp</text>
</a>
</g>
</g>
<!-- Node5&#45;&gt;Node13 -->
<g id="edge14_Node000005_Node000013" class="edge">
<title>Node5&#45;&gt;Node13</title>
<g id="a_edge14_Node000005_Node000013"><a xlink:title=" ">
<path fill="none" stroke="#63b8ff" d="M562.81,-69.08C535.14,-59.6 499.96,-47.55 470.65,-37.5"/>
<polygon fill="#63b8ff" stroke="#63b8ff" points="472.17,-34.32 461.57,-34.39 469.9,-40.95 472.17,-34.32"/>
</a>
</g>
</g>
<!-- Node14 -->
<g id="Node000014" class="node">
<title>Node14</title>
<g id="a_Node000014"><a xlink:title=" ">
<polygon fill="#e0e0e0" stroke="#999999" points="546.12,-27.12 491.88,-27.12 491.88,-6.38 546.12,-6.38 546.12,-27.12"/>
<text text-anchor="middle" x="519" y="-13.62" font-family="Helvetica,sans-Serif" font-size="10.00">fstream</text>
</a>
</g>
</g>
<!-- Node5&#45;&gt;Node14 -->
<g id="edge16_Node000005_Node000014" class="edge">
<title>Node5&#45;&gt;Node14</title>
<g id="a_edge16_Node000005_Node000014"><a xlink:title=" ">
<path fill="none" stroke="#63b8ff" d="M588.43,-69.25C574.26,-58.74 555.74,-45.01 541.4,-34.37"/>
<polygon fill="#63b8ff" stroke="#63b8ff" points="543.57,-31.62 533.46,-28.47 539.4,-37.24 543.57,-31.62"/>
</a>
</g>
</g>
<!-- Node15 -->
<g id="Node000015" class="node">
<title>Node15</title>
<g id="a_Node000015"><a xlink:title=" ">
<polygon fill="#e0e0e0" stroke="#999999" points="693.62,-33.5 564.38,-33.5 564.38,0 693.62,0 693.62,-33.5"/>
<text text-anchor="start" x="572.38" y="-20" font-family="Helvetica,sans-Serif" font-size="10.00">state&#45;observation/tools</text>
<text text-anchor="middle" x="629" y="-7.25" font-family="Helvetica,sans-Serif" font-size="10.00">/definitions.hxx</text>
</a>
</g>
</g>
<!-- Node5&#45;&gt;Node15 -->
<g id="edge17_Node000005_Node000015" class="edge">
<title>Node5&#45;&gt;Node15</title>
<g id="a_edge17_Node000005_Node000015"><a xlink:title=" ">
<path fill="none" stroke="#63b8ff" d="M614.5,-69.25C616.59,-61.86 619.12,-52.87 621.47,-44.48"/>
<polygon fill="#63b8ff" stroke="#63b8ff" points="624.78,-45.66 624.12,-35.09 618.04,-43.77 624.78,-45.66"/>
</a>
</g>
</g>
<!-- Node16&#45;&gt;Node3 -->
<g id="edge19_Node000016_Node000003" class="edge">
<title>Node16&#45;&gt;Node3</title>
<g id="a_edge19_Node000016_Node000003"><a xlink:title=" ">
<path fill="none" stroke="#63b8ff" d="M1336.26,-144.96C1261.1,-116.52 1106.59,-58.07 1036.27,-31.47"/>
<polygon fill="#63b8ff" stroke="#63b8ff" points="1037.74,-28.29 1027.15,-28.02 1035.27,-34.83 1037.74,-28.29"/>
</a>
</g>
</g>
<!-- Node16&#45;&gt;Node5 -->
<g id="edge20_Node000016_Node000005" class="edge">
<title>Node16&#45;&gt;Node5</title>
<g id="a_edge20_Node000016_Node000005"><a xlink:title=" ">
<path fill="none" stroke="#63b8ff" d="M1330.4,-144.97C1322.01,-142.65 1313.31,-140.53 1305,-139 1082.66,-97.98 814.62,-89.27 686.05,-87.56"/>
<polygon fill="#63b8ff" stroke="#63b8ff" points="686.35,-84.06 676.31,-87.44 686.26,-91.06 686.35,-84.06"/>
</a>
</g>
</g>
<!-- Node17&#45;&gt;Node3 -->
<g id="edge24_Node000017_Node000003" class="edge">
<title>Node17&#45;&gt;Node3</title>
<g id="a_edge24_Node000017_Node000003"><a xlink:title=" ">
<path fill="none" stroke="#63b8ff" d="M1473,-360.02C1473,-331.82 1473,-281.81 1473,-239 1473,-239 1473,-239 1473,-161.12 1473,-79.21 1209.88,-39.73 1076.13,-24.95"/>
<polygon fill="#63b8ff" stroke="#63b8ff" points="1076.6,-21.48 1066.28,-23.89 1075.85,-28.44 1076.6,-21.48"/>
</a>
</g>
</g>
<!-- Node17&#45;&gt;Node9 -->
<g id="edge22_Node000017_Node000009" class="edge">
<title>Node17&#45;&gt;Node9</title>
<g id="a_edge22_Node000017_Node000009"><a xlink:title=" ">
<path fill="none" stroke="#63b8ff" d="M1545.75,-376.35C1600.93,-369.49 1677.38,-354.93 1738,-324.25 1789.21,-298.34 1835,-296.39 1835,-239 1835,-239 1835,-239 1835,-161.12 1835,-108.84 1791.54,-59.99 1765.02,-35.05"/>
<polygon fill="#63b8ff" stroke="#63b8ff" points="1767.64,-32.69 1757.89,-28.55 1762.93,-37.87 1767.64,-32.69"/>
</a>
</g>
</g>
<!-- Node17&#45;&gt;Node11 -->
<g id="edge23_Node000017_Node000011" class="edge">
<title>Node17&#45;&gt;Node11</title>
<g id="a_edge23_Node000017_Node000011"><a xlink:title=" ">
<path fill="none" stroke="#63b8ff" d="M1545.87,-374.17C1608.35,-365.52 1691.57,-349.57 1713,-324.25 1787.01,-236.83 1736.11,-165.74 1674,-69.5 1666.1,-57.25 1655.36,-45 1646.25,-35.49"/>
<polygon fill="#63b8ff" stroke="#63b8ff" points="1648.74,-33.03 1639.22,-28.38 1643.76,-37.95 1648.74,-33.03"/>
</a>
</g>
</g>
<!-- Node18 -->
<g id="Node000018" class="node">
<title>Node18</title>
<g id="a_Node000018"><a xlink:href="algebraic-sensor_8hpp.html" target="_top" xlink:title="Gives a base class for algebraic sensors.">
<polygon fill="white" stroke="#666666" points="1703.88,-324.25 1528.12,-324.25 1528.12,-290.75 1703.88,-290.75 1703.88,-324.25"/>
<text text-anchor="start" x="1536.12" y="-310.75" font-family="Helvetica,sans-Serif" font-size="10.00">state&#45;observation/sensors</text>
<text text-anchor="middle" x="1616" y="-298" font-family="Helvetica,sans-Serif" font-size="10.00">&#45;simulation/algebraic&#45;sensor.hpp</text>
</a>
</g>
</g>
<!-- Node17&#45;&gt;Node18 -->
<g id="edge25_Node000017_Node000018" class="edge">
<title>Node17&#45;&gt;Node18</title>
<g id="a_edge25_Node000017_Node000018"><a xlink:title=" ">
<path fill="none" stroke="#63b8ff" d="M1516.68,-359.81C1535.17,-350.26 1556.6,-339.19 1574.8,-329.78"/>
<polygon fill="#63b8ff" stroke="#63b8ff" points="1576.21,-333 1583.48,-325.3 1572.99,-326.78 1576.21,-333"/>
</a>
</g>
</g>
<!-- Node20 -->
<g id="Node000020" class="node">
<title>Node20</title>
<g id="a_Node000020"><a xlink:href="linear-acceleration_8hpp.html" target="_top" xlink:title="Implements the accelerometer algorithm.">
<polygon fill="white" stroke="#666666" points="1114.25,-185.25 961.75,-185.25 961.75,-139 1114.25,-139 1114.25,-185.25"/>
<text text-anchor="start" x="969.75" y="-171.75" font-family="Helvetica,sans-Serif" font-size="10.00">state&#45;observation/sensors</text>
<text text-anchor="start" x="969.75" y="-159" font-family="Helvetica,sans-Serif" font-size="10.00">&#45;simulation/algorithm/linear</text>
<text text-anchor="middle" x="1038" y="-146.25" font-family="Helvetica,sans-Serif" font-size="10.00">&#45;acceleration.hpp</text>
</a>
</g>
</g>
<!-- Node17&#45;&gt;Node20 -->
<g id="edge34_Node000017_Node000020" class="edge">
<title>Node17&#45;&gt;Node20</title>
<g id="a_edge34_Node000017_Node000020"><a xlink:title=" ">
<path fill="none" stroke="#63b8ff" d="M1428.49,-359.94C1348.38,-319.56 1180.16,-234.78 1092.99,-190.84"/>
<polygon fill="#63b8ff" stroke="#63b8ff" points="1094.63,-187.75 1084.12,-186.37 1091.48,-194 1094.63,-187.75"/>
</a>
</g>
</g>
<!-- Node21 -->
<g id="Node000021" class="node">
<title>Node21</title>
<g id="a_Node000021"><a xlink:href="rotation-velocity_8hpp.html" target="_top" xlink:title="The implementation of the algorithm of a rotation velocity sensor.">
<polygon fill="white" stroke="#666666" points="1295.5,-185.25 1132.5,-185.25 1132.5,-139 1295.5,-139 1295.5,-185.25"/>
<text text-anchor="start" x="1140.5" y="-171.75" font-family="Helvetica,sans-Serif" font-size="10.00">state&#45;observation/sensors</text>
<text text-anchor="start" x="1140.5" y="-159" font-family="Helvetica,sans-Serif" font-size="10.00">&#45;simulation/algorithm/rotation</text>
<text text-anchor="middle" x="1214" y="-146.25" font-family="Helvetica,sans-Serif" font-size="10.00">&#45;velocity.hpp</text>
</a>
</g>
</g>
<!-- Node17&#45;&gt;Node21 -->
<g id="edge37_Node000017_Node000021" class="edge">
<title>Node17&#45;&gt;Node21</title>
<g id="a_edge37_Node000017_Node000021"><a xlink:title=" ">
<path fill="none" stroke="#63b8ff" d="M1446.74,-360.15C1399.94,-320.52 1302.07,-237.68 1249.39,-193.08"/>
<polygon fill="#63b8ff" stroke="#63b8ff" points="1251.77,-190.51 1241.87,-186.72 1247.24,-195.85 1251.77,-190.51"/>
</a>
</g>
</g>
<!-- Node18&#45;&gt;Node3 -->
<g id="edge28_Node000018_Node000003" class="edge">
<title>Node18&#45;&gt;Node3</title>
<g id="a_edge28_Node000018_Node000003"><a xlink:title=" ">
<path fill="none" stroke="#63b8ff" d="M1574.99,-290.33C1558.73,-281.99 1541.27,-270.25 1530,-254.75 1480.3,-186.38 1550.3,-125.5 1487,-69.5 1456.9,-42.87 1205.69,-27.35 1076.34,-21.05"/>
<polygon fill="#63b8ff" stroke="#63b8ff" points="1076.64,-17.56 1066.48,-20.58 1076.3,-24.56 1076.64,-17.56"/>
</a>
</g>
</g>
<!-- Node18&#45;&gt;Node9 -->
<g id="edge26_Node000018_Node000009" class="edge">
<title>Node18&#45;&gt;Node9</title>
<g id="a_edge26_Node000018_Node000009"><a xlink:title=" ">
<path fill="none" stroke="#63b8ff" d="M1671.11,-290.32C1688.8,-282.4 1706.72,-270.97 1718,-254.75 1764.68,-187.59 1755.4,-82.99 1748.73,-38.7"/>
<polygon fill="#63b8ff" stroke="#63b8ff" points="1752.2,-38.23 1747.13,-28.93 1745.29,-39.37 1752.2,-38.23"/>
</a>
</g>
</g>
<!-- Node18&#45;&gt;Node11 -->
<g id="edge27_Node000018_Node000011" class="edge">
<title>Node18&#45;&gt;Node11</title>
<g id="a_edge27_Node000018_Node000011"><a xlink:title=" ">
<path fill="none" stroke="#63b8ff" d="M1661.07,-290.35C1676.91,-282.25 1693,-270.68 1702,-254.75 1723.75,-216.28 1663.19,-87.41 1638.22,-37.62"/>
<polygon fill="#63b8ff" stroke="#63b8ff" points="1641.42,-36.19 1633.77,-28.85 1635.17,-39.35 1641.42,-36.19"/>
</a>
</g>
</g>
<!-- Node19 -->
<g id="Node000019" class="node">
<title>Node19</title>
<g id="a_Node000019"><a xlink:href="sensor-base_8hpp.html" target="_top" xlink:title="Implements the base class of all sensors.">
<polygon fill="white" stroke="#666666" points="1693.38,-254.75 1538.62,-254.75 1538.62,-221.25 1693.38,-221.25 1693.38,-254.75"/>
<text text-anchor="start" x="1546.62" y="-241.25" font-family="Helvetica,sans-Serif" font-size="10.00">state&#45;observation/sensors</text>
<text text-anchor="middle" x="1616" y="-228.5" font-family="Helvetica,sans-Serif" font-size="10.00">&#45;simulation/sensor&#45;base.hpp</text>
</a>
</g>
</g>
<!-- Node18&#45;&gt;Node19 -->
<g id="edge29_Node000018_Node000019" class="edge">
<title>Node18&#45;&gt;Node19</title>
<g id="a_edge29_Node000018_Node000019"><a xlink:title=" ">
<path fill="none" stroke="#63b8ff" d="M1616,-290.5C1616,-283.27 1616,-274.53 1616,-266.31"/>
<polygon fill="#63b8ff" stroke="#63b8ff" points="1619.5,-266.4 1616,-256.4 1612.5,-266.4 1619.5,-266.4"/>
</a>
</g>
</g>
<!-- Node19&#45;&gt;Node3 -->
<g id="edge32_Node000019_Node000003" class="edge">
<title>Node19&#45;&gt;Node3</title>
<g id="a_edge32_Node000019_Node000003"><a xlink:title=" ">
<path fill="none" stroke="#63b8ff" d="M1612.57,-220.94C1604.3,-186.52 1579.74,-105.81 1525,-69.5 1488.46,-45.26 1212.83,-28.33 1076.25,-21.33"/>
<polygon fill="#63b8ff" stroke="#63b8ff" points="1076.74,-17.86 1066.58,-20.85 1076.39,-24.85 1076.74,-17.86"/>
</a>
</g>
</g>
<!-- Node19&#45;&gt;Node9 -->
<g id="edge30_Node000019_Node000009" class="edge">
<title>Node19&#45;&gt;Node9</title>
<g id="a_edge30_Node000019_Node000009"><a xlink:title=" ">
<path fill="none" stroke="#63b8ff" d="M1625.49,-220.88C1648.72,-181.4 1708.39,-79.98 1733.54,-37.22"/>
<polygon fill="#63b8ff" stroke="#63b8ff" points="1736.46,-39.17 1738.51,-28.77 1730.43,-35.62 1736.46,-39.17"/>
</a>
</g>
</g>
<!-- Node19&#45;&gt;Node11 -->
<g id="edge31_Node000019_Node000011" class="edge">
<title>Node19&#45;&gt;Node11</title>
<g id="a_edge31_Node000019_Node000011"><a xlink:title=" ">
<path fill="none" stroke="#63b8ff" d="M1616.88,-220.88C1619.02,-181.9 1624.45,-82.55 1626.84,-38.88"/>
<polygon fill="#63b8ff" stroke="#63b8ff" points="1630.33,-39.16 1627.39,-28.98 1623.34,-38.77 1630.33,-39.16"/>
</a>
</g>
</g>
<!-- Node19&#45;&gt;Node16 -->
<g id="edge33_Node000019_Node000016" class="edge">
<title>Node19&#45;&gt;Node16</title>
<g id="a_edge33_Node000019_Node000016"><a xlink:title=" ">
<path fill="none" stroke="#63b8ff" d="M1563.99,-220.79C1528.02,-209.58 1479.98,-194.6 1441.86,-182.72"/>
<polygon fill="#63b8ff" stroke="#63b8ff" points="1442.92,-179.38 1432.33,-179.75 1440.84,-186.07 1442.92,-179.38"/>
</a>
</g>
</g>
<!-- Node20&#45;&gt;Node3 -->
<g id="edge35_Node000020_Node000003" class="edge">
<title>Node20&#45;&gt;Node3</title>
<g id="a_edge35_Node000020_Node000003"><a xlink:title=" ">
<path fill="none" stroke="#63b8ff" d="M1032.06,-138.72C1024.78,-111.25 1012.54,-65.08 1005.48,-38.42"/>
<polygon fill="#63b8ff" stroke="#63b8ff" points="1008.89,-37.61 1002.94,-28.84 1002.12,-39.41 1008.89,-37.61"/>
</a>
</g>
</g>
<!-- Node20&#45;&gt;Node5 -->
<g id="edge36_Node000020_Node000005" class="edge">
<title>Node20&#45;&gt;Node5</title>
<g id="a_edge36_Node000020_Node000005"><a xlink:title=" ">
<path fill="none" stroke="#63b8ff" d="M961.25,-147.2C945.94,-144.45 929.96,-141.61 915,-139 837.05,-125.38 747.81,-110.29 686.08,-99.94"/>
<polygon fill="#63b8ff" stroke="#63b8ff" points="686.82,-96.52 676.38,-98.32 685.66,-103.42 686.82,-96.52"/>
</a>
</g>
</g>
<!-- Node21&#45;&gt;Node3 -->
<g id="edge38_Node000021_Node000003" class="edge">
<title>Node21&#45;&gt;Node3</title>
<g id="a_edge38_Node000021_Node000003"><a xlink:title=" ">
<path fill="none" stroke="#63b8ff" d="M1180.56,-138.72C1137.07,-109.59 1062.16,-59.4 1023.94,-33.79"/>
<polygon fill="#63b8ff" stroke="#63b8ff" points="1026.14,-31.05 1015.88,-28.39 1022.24,-36.86 1026.14,-31.05"/>
</a>
</g>
</g>
<!-- Node21&#45;&gt;Node5 -->
<g id="edge39_Node000021_Node000005" class="edge">
<title>Node21&#45;&gt;Node5</title>
<g id="a_edge39_Node000021_Node000005"><a xlink:title=" ">
<path fill="none" stroke="#63b8ff" d="M1132.26,-140.69C1129.14,-140.09 1126.04,-139.52 1123,-139 969.02,-112.64 786.56,-98.17 686.02,-91.63"/>
<polygon fill="#63b8ff" stroke="#63b8ff" points="686.48,-88.15 676.28,-91.01 686.03,-95.14 686.48,-88.15"/>
</a>
</g>
</g>
<!-- Node22&#45;&gt;Node3 -->
<g id="edge42_Node000022_Node000003" class="edge">
<title>Node22&#45;&gt;Node3</title>
<g id="a_edge42_Node000022_Node000003"><a xlink:title=" ">
<path fill="none" stroke="#63b8ff" d="M609.96,-223.88C640.56,-216.05 675.29,-203.87 703,-185.25 725.08,-170.41 720.23,-155.62 741,-139 794.62,-96.1 816.73,-98.46 879,-69.5 907.74,-56.13 940.87,-42.05 965.19,-31.96"/>
<polygon fill="#63b8ff" stroke="#63b8ff" points="966.39,-35.25 974.3,-28.2 963.72,-28.78 966.39,-35.25"/>
</a>
</g>
</g>
<!-- Node22&#45;&gt;Node5 -->
<g id="edge43_Node000022_Node000005" class="edge">
<title>Node22&#45;&gt;Node5</title>
<g id="a_edge43_Node000022_Node000005"><a xlink:title=" ">
<path fill="none" stroke="#63b8ff" d="M493.34,-220.96C477.76,-212.78 461.82,-201.14 453,-185.25 443.03,-167.28 440.95,-155.66 453,-139 471.73,-113.11 503.86,-99.95 534.19,-93.35"/>
<polygon fill="#63b8ff" stroke="#63b8ff" points="534.62,-96.83 543.77,-91.49 533.29,-89.96 534.62,-96.83"/>
</a>
</g>
</g>
<!-- Node23 -->
<g id="Node000023" class="node">
<title>Node23</title>
<g id="a_Node000023"><a xlink:title=" ">
<polygon fill="#e0e0e0" stroke="#999999" points="694.12,-172.5 627.88,-172.5 627.88,-151.75 694.12,-151.75 694.12,-172.5"/>
<text text-anchor="middle" x="661" y="-159" font-family="Helvetica,sans-Serif" font-size="10.00">Eigen/SVD</text>
</a>
</g>
</g>
<!-- Node22&#45;&gt;Node23 -->
<g id="edge41_Node000022_Node000023" class="edge">
<title>Node22&#45;&gt;Node23</title>
<g id="a_edge41_Node000022_Node000023"><a xlink:title=" ">
<path fill="none" stroke="#63b8ff" d="M563.43,-220.79C584.58,-208.29 613.65,-191.11 634.55,-178.76"/>
<polygon fill="#63b8ff" stroke="#63b8ff" points="636.23,-181.83 643.06,-173.73 632.67,-175.8 636.23,-181.83"/>
</a>
</g>
</g>
<!-- Node24 -->
<g id="Node000024" class="node">
<title>Node24</title>
<g id="a_Node000024"><a xlink:href="miscellaneous-algorithms_8hpp.html" target="_top" xlink:title="Gathers many kinds of algorithms.">
<polygon fill="white" stroke="#666666" points="406.38,-178.88 239.62,-178.88 239.62,-145.38 406.38,-145.38 406.38,-178.88"/>
<text text-anchor="start" x="247.62" y="-165.38" font-family="Helvetica,sans-Serif" font-size="10.00">state&#45;observation/tools</text>
<text text-anchor="middle" x="323" y="-152.62" font-family="Helvetica,sans-Serif" font-size="10.00">/miscellaneous&#45;algorithms.hpp</text>
</a>
</g>
</g>
<!-- Node22&#45;&gt;Node24 -->
<g id="edge44_Node000022_Node000024" class="edge">
<title>Node22&#45;&gt;Node24</title>
<g id="a_edge44_Node000022_Node000024"><a xlink:title=" ">
<path fill="none" stroke="#63b8ff" d="M489.26,-220.79C457.21,-209.67 414.49,-194.86 380.38,-183.03"/>
<polygon fill="#63b8ff" stroke="#63b8ff" points="381.66,-179.77 371.06,-179.8 379.37,-186.38 381.66,-179.77"/>
</a>
</g>
</g>
<!-- Node27 -->
<g id="Node000027" class="node">
<title>Node27</title>
<g id="a_Node000027"><a xlink:href="probability-law-simulation_8hpp.html" target="_top" xlink:title=" ">
<polygon fill="white" stroke="#666666" points="221.5,-178.88 52.5,-178.88 52.5,-145.38 221.5,-145.38 221.5,-178.88"/>
<text text-anchor="start" x="60.5" y="-165.38" font-family="Helvetica,sans-Serif" font-size="10.00">state&#45;observation/tools</text>
<text text-anchor="middle" x="137" y="-152.62" font-family="Helvetica,sans-Serif" font-size="10.00">/probability&#45;law&#45;simulation.hpp</text>
</a>
</g>
</g>
<!-- Node22&#45;&gt;Node27 -->
<g id="edge49_Node000022_Node000027" class="edge">
<title>Node22&#45;&gt;Node27</title>
<g id="a_edge49_Node000022_Node000027"><a xlink:title=" ">
<path fill="none" stroke="#63b8ff" d="M462.11,-225.8C400.19,-216.1 309.57,-201.15 231,-185.25 225.73,-184.18 220.31,-183.04 214.85,-181.85"/>
<polygon fill="#63b8ff" stroke="#63b8ff" points="215.64,-178.44 205.12,-179.69 214.12,-185.27 215.64,-178.44"/>
</a>
</g>
</g>
<!-- Node30 -->
<g id="Node000030" class="node">
<title>Node30</title>
<g id="a_Node000030"><a xlink:title=" ">
<polygon fill="#e0e0e0" stroke="#999999" points="609.62,-178.88 462.38,-178.88 462.38,-145.38 609.62,-145.38 609.62,-178.88"/>
<text text-anchor="start" x="470.38" y="-165.38" font-family="Helvetica,sans-Serif" font-size="10.00">state&#45;observation/tools</text>
<text text-anchor="middle" x="536" y="-152.62" font-family="Helvetica,sans-Serif" font-size="10.00">/rigid&#45;body&#45;kinematics.hxx</text>
</a>
</g>
</g>
<!-- Node22&#45;&gt;Node30 -->
<g id="edge54_Node000022_Node000030" class="edge">
<title>Node22&#45;&gt;Node30</title>
<g id="a_edge54_Node000022_Node000030"><a xlink:title=" ">
<path fill="none" stroke="#63b8ff" d="M536,-220.97C536,-212.06 536,-200.74 536,-190.48"/>
<polygon fill="#63b8ff" stroke="#63b8ff" points="539.5,-190.64 536,-180.64 532.5,-190.64 539.5,-190.64"/>
</a>
</g>
</g>
<!-- Node24&#45;&gt;Node3 -->
<g id="edge47_Node000024_Node000003" class="edge">
<title>Node24&#45;&gt;Node3</title>
<g id="a_edge47_Node000024_Node000003"><a xlink:title=" ">
<path fill="none" stroke="#63b8ff" d="M406.54,-146.73C421.98,-144.12 437.97,-141.45 453,-139 555.55,-122.28 588.63,-144.25 684,-103 706.24,-93.38 704.92,-79.48 727,-69.5 728.21,-68.95 856.4,-44.77 936.67,-29.66"/>
<polygon fill="#63b8ff" stroke="#63b8ff" points="937,-33.16 946.18,-27.87 935.7,-26.28 937,-33.16"/>
</a>
</g>
</g>
<!-- Node24&#45;&gt;Node5 -->
<g id="edge48_Node000024_Node000005" class="edge">
<title>Node24&#45;&gt;Node5</title>
<g id="a_edge48_Node000024_Node000005"><a xlink:title=" ">
<path fill="none" stroke="#63b8ff" d="M385.98,-144.91C430.28,-133.51 489.72,-118.21 536.24,-106.24"/>
<polygon fill="#63b8ff" stroke="#63b8ff" points="536.89,-109.68 545.7,-103.8 535.14,-102.91 536.89,-109.68"/>
</a>
</g>
</g>
<!-- Node25 -->
<g id="Node000025" class="node">
<title>Node25</title>
<g id="a_Node000025"><a xlink:title=" ">
<polygon fill="#e0e0e0" stroke="#999999" points="483,-96.62 389,-96.62 389,-75.88 483,-75.88 483,-96.62"/>
<text text-anchor="middle" x="436" y="-83.12" font-family="Helvetica,sans-Serif" font-size="10.00">boost/utility.hpp</text>
</a>
</g>
</g>
<!-- Node24&#45;&gt;Node25 -->
<g id="edge45_Node000024_Node000025" class="edge">
<title>Node24&#45;&gt;Node25</title>
<g id="a_edge45_Node000024_Node000025"><a xlink:title=" ">
<path fill="none" stroke="#63b8ff" d="M347.8,-144.91C366.74,-132.53 392.72,-115.55 411.57,-103.22"/>
<polygon fill="#63b8ff" stroke="#63b8ff" points="413.24,-106.31 419.69,-97.91 409.41,-100.45 413.24,-106.31"/>
</a>
</g>
</g>
<!-- Node26 -->
<g id="Node000026" class="node">
<title>Node26</title>
<g id="a_Node000026"><a xlink:title=" ">
<polygon fill="#e0e0e0" stroke="#999999" points="371.38,-96.62 324.62,-96.62 324.62,-75.88 371.38,-75.88 371.38,-96.62"/>
<text text-anchor="middle" x="348" y="-83.12" font-family="Helvetica,sans-Serif" font-size="10.00">cmath</text>
</a>
</g>
</g>
<!-- Node24&#45;&gt;Node26 -->
<g id="edge46_Node000024_Node000026" class="edge">
<title>Node24&#45;&gt;Node26</title>
<g id="a_edge46_Node000024_Node000026"><a xlink:title=" ">
<path fill="none" stroke="#63b8ff" d="M328.42,-145.1C332.17,-134.02 337.19,-119.2 341.2,-107.34"/>
<polygon fill="#63b8ff" stroke="#63b8ff" points="344.42,-108.74 344.31,-98.14 337.79,-106.49 344.42,-108.74"/>
</a>
</g>
</g>
<!-- Node27&#45;&gt;Node3 -->
<g id="edge51_Node000027_Node000003" class="edge">
<title>Node27&#45;&gt;Node3</title>
<g id="a_edge51_Node000027_Node000003"><a xlink:title=" ">
<path fill="none" stroke="#63b8ff" d="M187.57,-144.9C215.35,-134.87 249.79,-120.56 278,-103 297.11,-91.1 295.19,-78.09 316,-69.5 439.48,-18.56 783.43,-49.84 916,-33.5 924.4,-32.47 933.22,-31.11 941.86,-29.63"/>
<polygon fill="#63b8ff" stroke="#63b8ff" points="942.35,-33.1 951.58,-27.89 941.12,-26.21 942.35,-33.1"/>
</a>
</g>
</g>
<!-- Node27&#45;&gt;Node5 -->
<g id="edge52_Node000027_Node000005" class="edge">
<title>Node27&#45;&gt;Node5</title>
<g id="a_edge52_Node000027_Node000005"><a xlink:title=" ">
<path fill="none" stroke="#63b8ff" d="M202.32,-144.91C211.91,-142.77 221.69,-140.73 231,-139 245.71,-136.27 427.47,-111.75 533.84,-97.46"/>
<polygon fill="#63b8ff" stroke="#63b8ff" points="534.21,-100.94 543.65,-96.14 533.27,-94 534.21,-100.94"/>
</a>
</g>
</g>
<!-- Node28 -->
<g id="Node000028" class="node">
<title>Node28</title>
<g id="a_Node000028"><a xlink:title=" ">
<polygon fill="#e0e0e0" stroke="#999999" points="268.75,-96.62 215.25,-96.62 215.25,-75.88 268.75,-75.88 268.75,-96.62"/>
<text text-anchor="middle" x="242" y="-83.12" font-family="Helvetica,sans-Serif" font-size="10.00">random</text>
</a>
</g>
</g>
<!-- Node27&#45;&gt;Node28 -->
<g id="edge50_Node000027_Node000028" class="edge">
<title>Node27&#45;&gt;Node28</title>
<g id="a_edge50_Node000027_Node000028"><a xlink:title=" ">
<path fill="none" stroke="#63b8ff" d="M160.04,-144.91C177.56,-132.58 201.56,-115.7 219.06,-103.39"/>
<polygon fill="#63b8ff" stroke="#63b8ff" points="220.62,-106.57 226.79,-97.95 216.6,-100.84 220.62,-106.57"/>
</a>
</g>
</g>
<!-- Node29 -->
<g id="Node000029" class="node">
<title>Node29</title>
<g id="a_Node000029"><a xlink:title=" ">
<polygon fill="#e0e0e0" stroke="#999999" points="197.5,-103 28.5,-103 28.5,-69.5 197.5,-69.5 197.5,-103"/>
<text text-anchor="start" x="36.5" y="-89.5" font-family="Helvetica,sans-Serif" font-size="10.00">state&#45;observation/tools</text>
<text text-anchor="middle" x="113" y="-76.75" font-family="Helvetica,sans-Serif" font-size="10.00">/probability&#45;law&#45;simulation.hxx</text>
</a>
</g>
</g>
<!-- Node27&#45;&gt;Node29 -->
<g id="edge53_Node000027_Node000029" class="edge">
<title>Node27&#45;&gt;Node29</title>
<g id="a_edge53_Node000027_Node000029"><a xlink:title=" ">
<path fill="none" stroke="#63b8ff" d="M131.79,-145.1C128.84,-136 125.06,-124.37 121.67,-113.93"/>
<polygon fill="#63b8ff" stroke="#63b8ff" points="125.08,-113.12 118.67,-104.69 118.43,-115.28 125.08,-113.12"/>
</a>
</g>
</g>
</g>
</svg>
