<?xml version="1.0" encoding="UTF-8" standalone="no"?>
<!DOCTYPE svg PUBLIC "-//W3C//DTD SVG 1.1//EN"
 "http://www.w3.org/Graphics/SVG/1.1/DTD/svg11.dtd">
<!-- Generated by graphviz version 12.2.1 (0)
 -->
<!-- Title: Graphical Class Hierarchy Pages: 1 -->
<svg width="354pt" height="198pt"
 viewBox="0.00 0.00 354.25 197.50" xmlns="http://www.w3.org/2000/svg" xmlns:xlink="http://www.w3.org/1999/xlink">
<g id="graph0" class="graph" transform="scale(1 1) rotate(0) translate(4 193.5)">
<title>Graphical Class Hierarchy</title>
<!-- Node0 -->
<g id="Node000000" class="node">
<title>Node0</title>
<g id="a_Node000000"><a xlink:href="structstateObservation_1_1KineticsObserver_1_1Sensor.html" target="_top" xlink:title=" ">
<polygon fill="white" stroke="#666666" points="145,-111.5 0,-111.5 0,-78 145,-78 145,-111.5"/>
<text text-anchor="start" x="8" y="-98" font-family="Helvetica,sans-Serif" font-size="10.00">stateObservation::Kinetics</text>
<text text-anchor="middle" x="72.5" y="-85.25" font-family="Helvetica,sans-Serif" font-size="10.00">Observer::Sensor</text>
</a>
</g>
</g>
<!-- Node1 -->
<g id="Node000001" class="node">
<title>Node1</title>
<g id="a_Node000001"><a xlink:href="structstateObservation_1_1KineticsObserver_1_1AbsoluteOriSensor.html" target="_top" xlink:title=" ">
<polygon fill="white" stroke="#666666" points="341.75,-189.5 185.5,-189.5 185.5,-156 341.75,-156 341.75,-189.5"/>
<text text-anchor="start" x="193.5" y="-176" font-family="Helvetica,sans-Serif" font-size="10.00">stateObservation::Kinetics</text>
<text text-anchor="middle" x="263.62" y="-163.25" font-family="Helvetica,sans-Serif" font-size="10.00">Observer::AbsoluteOriSensor</text>
</a>
</g>
</g>
<!-- Node0&#45;&gt;Node1 -->
<g id="edge40_Node000000_Node000001" class="edge">
<title>Node0&#45;&gt;Node1</title>
<g id="a_edge40_Node000000_Node000001"><a xlink:title=" ">
<path fill="none" stroke="#63b8ff" d="M115.98,-117.02C135.5,-126.81 159.13,-138.03 181,-146.75 188.74,-149.84 196.99,-152.81 205.17,-155.59"/>
<polygon fill="#63b8ff" stroke="#63b8ff" points="117.74,-113.99 107.24,-112.6 114.58,-120.24 117.74,-113.99"/>
</a>
</g>
</g>
<!-- Node2 -->
<g id="Node000002" class="node">
<title>Node2</title>
<g id="a_Node000002"><a xlink:href="structstateObservation_1_1KineticsObserver_1_1AbsolutePoseSensor.html" target="_top" xlink:title=" ">
<polygon fill="white" stroke="#666666" points="346.25,-137.5 181,-137.5 181,-104 346.25,-104 346.25,-137.5"/>
<text text-anchor="start" x="189" y="-124" font-family="Helvetica,sans-Serif" font-size="10.00">stateObservation::Kinetics</text>
<text text-anchor="middle" x="263.62" y="-111.25" font-family="Helvetica,sans-Serif" font-size="10.00">Observer::AbsolutePoseSensor</text>
</a>
</g>
</g>
<!-- Node0&#45;&gt;Node2 -->
<g id="edge41_Node000000_Node000002" class="edge">
<title>Node0&#45;&gt;Node2</title>
<g id="a_edge41_Node000000_Node000002"><a xlink:title=" ">
<path fill="none" stroke="#63b8ff" d="M156.54,-106.17C164.58,-107.27 172.74,-108.39 180.77,-109.5"/>
<polygon fill="#63b8ff" stroke="#63b8ff" points="157.15,-102.72 146.77,-104.82 156.2,-109.65 157.15,-102.72"/>
</a>
</g>
</g>
<!-- Node3 -->
<g id="Node000003" class="node">
<title>Node3</title>
<g id="a_Node000003"><a xlink:href="structstateObservation_1_1KineticsObserver_1_1Contact.html" target="_top" xlink:title=" ">
<polygon fill="white" stroke="#666666" points="336.12,-85.5 191.12,-85.5 191.12,-52 336.12,-52 336.12,-85.5"/>
<text text-anchor="start" x="199.12" y="-72" font-family="Helvetica,sans-Serif" font-size="10.00">stateObservation::Kinetics</text>
<text text-anchor="middle" x="263.62" y="-59.25" font-family="Helvetica,sans-Serif" font-size="10.00">Observer::Contact</text>
</a>
</g>
</g>
<!-- Node0&#45;&gt;Node3 -->
<g id="edge42_Node000000_Node000003" class="edge">
<title>Node0&#45;&gt;Node3</title>
<g id="a_edge42_Node000000_Node000003"><a xlink:title=" ">
<path fill="none" stroke="#63b8ff" d="M156.6,-83.33C168.04,-81.75 179.7,-80.15 190.9,-78.61"/>
<polygon fill="#63b8ff" stroke="#63b8ff" points="156.2,-79.85 146.77,-84.68 157.15,-86.78 156.2,-79.85"/>
</a>
</g>
</g>
<!-- Node4 -->
<g id="Node000004" class="node">
<title>Node4</title>
<g id="a_Node000004"><a xlink:href="structstateObservation_1_1KineticsObserver_1_1IMU.html" target="_top" xlink:title=" ">
<polygon fill="white" stroke="#666666" points="336.12,-33.5 191.12,-33.5 191.12,0 336.12,0 336.12,-33.5"/>
<text text-anchor="start" x="199.12" y="-20" font-family="Helvetica,sans-Serif" font-size="10.00">stateObservation::Kinetics</text>
<text text-anchor="middle" x="263.62" y="-7.25" font-family="Helvetica,sans-Serif" font-size="10.00">Observer::IMU</text>
</a>
</g>
</g>
<!-- Node0&#45;&gt;Node4 -->
<g id="edge43_Node000000_Node000004" class="edge">
<title>Node0&#45;&gt;Node4</title>
<g id="a_edge43_Node000000_Node000004"><a xlink:title=" ">
<path fill="none" stroke="#63b8ff" d="M115.98,-72.48C135.5,-62.69 159.13,-51.47 181,-42.75 188.74,-39.66 196.99,-36.69 205.17,-33.91"/>
<polygon fill="#63b8ff" stroke="#63b8ff" points="114.58,-69.26 107.24,-76.9 117.74,-75.51 114.58,-69.26"/>
</a>
</g>
</g>
</g>
</svg>
