<?xml version="1.0" encoding="UTF-8" standalone="no"?>
<!DOCTYPE svg PUBLIC "-//W3C//DTD SVG 1.1//EN"
 "http://www.w3.org/Graphics/SVG/1.1/DTD/svg11.dtd">
<!-- Generated by graphviz version 12.2.1 (0)
 -->
<!-- Title: Graphical Class Hierarchy Pages: 1 -->
<svg width="831pt" height="546pt"
 viewBox="0.00 0.00 831.00 545.50" xmlns="http://www.w3.org/2000/svg" xmlns:xlink="http://www.w3.org/1999/xlink">
<g id="graph0" class="graph" transform="scale(1 1) rotate(0) translate(4 541.5)">
<title>Graphical Class Hierarchy</title>
<!-- Node0 -->
<g id="Node000000" class="node">
<title>Node0</title>
<g id="a_Node000000"><a xlink:href="classstateObservation_1_1DynamicalSystemFunctorBase.html" target="_top" xlink:title="This is the base class of any functor that describes the dynamics of the state and the measurement....">
<polygon fill="white" stroke="#666666" points="370.62,-343.5 212.12,-343.5 212.12,-310 370.62,-310 370.62,-343.5"/>
<text text-anchor="start" x="220.12" y="-330" font-family="Helvetica,sans-Serif" font-size="10.00">stateObservation::Dynamical</text>
<text text-anchor="middle" x="291.38" y="-317.25" font-family="Helvetica,sans-Serif" font-size="10.00">SystemFunctorBase</text>
</a>
</g>
</g>
<!-- Node1 -->
<g id="Node000001" class="node">
<title>Node1</title>
<g id="a_Node000001"><a xlink:href="classstateObservation_1_1BidimElasticInvPendulum.html" target="_top" xlink:title="The class is an implementation of the dynamical system defined by a 2D inverted pendulum with an elas...">
<polygon fill="white" stroke="#666666" points="596.62,-537.5 429.88,-537.5 429.88,-504 596.62,-504 596.62,-537.5"/>
<text text-anchor="start" x="437.88" y="-524" font-family="Helvetica,sans-Serif" font-size="10.00">stateObservation::BidimElastic</text>
<text text-anchor="middle" x="513.25" y="-511.25" font-family="Helvetica,sans-Serif" font-size="10.00">InvPendulum</text>
</a>
</g>
</g>
<!-- Node0&#45;&gt;Node1 -->
<g id="edge14_Node000000_Node000001" class="edge">
<title>Node0&#45;&gt;Node1</title>
<g id="a_edge14_Node000000_Node000001"><a xlink:title=" ">
<path fill="none" stroke="#63b8ff" d="M303.72,-354.07C320.77,-391.68 356.64,-458.83 408.5,-494.75 414.91,-499.19 422.01,-502.87 429.4,-505.93"/>
<polygon fill="#63b8ff" stroke="#63b8ff" points="307.06,-352.98 299.83,-345.24 300.65,-355.8 307.06,-352.98"/>
</a>
</g>
</g>
<!-- Node2 -->
<g id="Node000002" class="node">
<title>Node2</title>
<g id="a_Node000002"><a xlink:href="classstateObservation_1_1IMUDynamicalSystem.html" target="_top" xlink:title="The class is an implementation of the dynamical system defined by an inertial measurement unit (IMU) ...">
<polygon fill="white" stroke="#666666" points="602.25,-485.5 424.25,-485.5 424.25,-452 602.25,-452 602.25,-485.5"/>
<text text-anchor="start" x="432.25" y="-472" font-family="Helvetica,sans-Serif" font-size="10.00">stateObservation::IMUDynamical</text>
<text text-anchor="middle" x="513.25" y="-459.25" font-family="Helvetica,sans-Serif" font-size="10.00">System</text>
</a>
</g>
</g>
<!-- Node0&#45;&gt;Node2 -->
<g id="edge15_Node000000_Node000002" class="edge">
<title>Node0&#45;&gt;Node2</title>
<g id="a_edge15_Node000000_Node000002"><a xlink:title=" ">
<path fill="none" stroke="#63b8ff" d="M311.56,-352.94C332.46,-379.55 368.31,-419.99 408.5,-442.75 414.4,-446.09 420.72,-449.01 427.23,-451.55"/>
<polygon fill="#63b8ff" stroke="#63b8ff" points="314.35,-350.82 305.48,-345.02 308.8,-355.08 314.35,-350.82"/>
</a>
</g>
</g>
<!-- Node3 -->
<g id="Node000003" class="node">
<title>Node3</title>
<g id="a_Node000003"><a xlink:href="classstateObservation_1_1IMUMagnetometerDynamicalSystem.html" target="_top" xlink:title="The class is an implementation of the dynamical system defined by an inertial measurement unit (IMU) ...">
<polygon fill="white" stroke="#666666" points="612,-433.5 414.5,-433.5 414.5,-400 612,-400 612,-433.5"/>
<text text-anchor="start" x="422.5" y="-420" font-family="Helvetica,sans-Serif" font-size="10.00">stateObservation::IMUMagnetometer</text>
<text text-anchor="middle" x="513.25" y="-407.25" font-family="Helvetica,sans-Serif" font-size="10.00">DynamicalSystem</text>
</a>
</g>
</g>
<!-- Node0&#45;&gt;Node3 -->
<g id="edge16_Node000000_Node000003" class="edge">
<title>Node0&#45;&gt;Node3</title>
<g id="a_edge16_Node000000_Node000003"><a xlink:title=" ">
<path fill="none" stroke="#63b8ff" d="M328.35,-349.75C350.71,-363.23 380.45,-379.72 408.5,-390.75 416.71,-393.98 425.44,-396.9 434.23,-399.53"/>
<polygon fill="#63b8ff" stroke="#63b8ff" points="330.28,-346.82 319.92,-344.59 326.62,-352.79 330.28,-346.82"/>
</a>
</g>
</g>
<!-- Node4 -->
<g id="Node000004" class="node">
<title>Node4</title>
<g id="a_Node000004"><a xlink:href="classstateObservation_1_1IMUMltpctiveDynamicalSystem.html" target="_top" xlink:title="The class is an implementation of the dynamical system defined by an inertial measurement unit (IMU) ...">
<polygon fill="white" stroke="#666666" points="598.88,-189.5 427.62,-189.5 427.62,-156 598.88,-156 598.88,-189.5"/>
<text text-anchor="start" x="435.62" y="-176" font-family="Helvetica,sans-Serif" font-size="10.00">stateObservation::IMUMltpctive</text>
<text text-anchor="middle" x="513.25" y="-163.25" font-family="Helvetica,sans-Serif" font-size="10.00">DynamicalSystem</text>
</a>
</g>
</g>
<!-- Node0&#45;&gt;Node4 -->
<g id="edge17_Node000000_Node000004" class="edge">
<title>Node0&#45;&gt;Node4</title>
<g id="a_edge17_Node000000_Node000004"><a xlink:title=" ">
<path fill="none" stroke="#63b8ff" d="M309.1,-300.49C329.15,-271.19 365.49,-224.52 408.5,-198.75 414.39,-195.22 420.75,-192.17 427.31,-189.53"/>
<polygon fill="#63b8ff" stroke="#63b8ff" points="306.43,-298.19 303.78,-308.45 312.24,-302.08 306.43,-298.19"/>
</a>
</g>
</g>
<!-- Node13 -->
<g id="Node000013" class="node">
<title>Node13</title>
<g id="a_Node000013"><a xlink:href="classstateObservation_1_1KineticsObserver.html" target="_top" xlink:title="This observer estimates the kinematics, the external forces, the bias on the gyrometers measurements,...">
<polygon fill="white" stroke="#666666" points="585.75,-137.5 440.75,-137.5 440.75,-104 585.75,-104 585.75,-137.5"/>
<text text-anchor="start" x="448.75" y="-124" font-family="Helvetica,sans-Serif" font-size="10.00">stateObservation::Kinetics</text>
<text text-anchor="middle" x="513.25" y="-111.25" font-family="Helvetica,sans-Serif" font-size="10.00">Observer</text>
</a>
</g>
</g>
<!-- Node0&#45;&gt;Node13 -->
<g id="edge18_Node000000_Node000013" class="edge">
<title>Node0&#45;&gt;Node13</title>
<g id="a_edge18_Node000000_Node000013"><a xlink:title=" ">
<path fill="none" stroke="darkgreen" d="M302.58,-298.98C318.73,-259 354.04,-185.77 408.5,-146.75 418.01,-139.94 429.12,-134.9 440.47,-131.18"/>
<polygon fill="darkgreen" stroke="darkgreen" points="299.38,-297.55 298.99,-308.14 305.9,-300.1 299.38,-297.55"/>
</a>
</g>
</g>
<!-- Node14 -->
<g id="Node000014" class="node">
<title>Node14</title>
<g id="a_Node000014"><a xlink:href="classstateObservation_1_1flexibilityEstimation_1_1IMUElasticLocalFrameDynamicalSystem.html" target="_top" xlink:title="This class describes the dynamics of a robot&#39;s flexibility this dynamics with elastic forces to bring...">
<polygon fill="white" stroke="#666666" points="604.5,-381.88 422,-381.88 422,-335.62 604.5,-335.62 604.5,-381.88"/>
<text text-anchor="start" x="430" y="-368.38" font-family="Helvetica,sans-Serif" font-size="10.00">stateObservation::flexibility</text>
<text text-anchor="start" x="430" y="-355.62" font-family="Helvetica,sans-Serif" font-size="10.00">Estimation::IMUElasticLocalFrame</text>
<text text-anchor="middle" x="513.25" y="-342.88" font-family="Helvetica,sans-Serif" font-size="10.00">DynamicalSystem</text>
</a>
</g>
</g>
<!-- Node0&#45;&gt;Node14 -->
<g id="edge19_Node000000_Node000014" class="edge">
<title>Node0&#45;&gt;Node14</title>
<g id="a_edge19_Node000000_Node000014"><a xlink:title=" ">
<path fill="none" stroke="#63b8ff" d="M382.2,-339.82C395.28,-341.73 408.75,-343.69 421.84,-345.59"/>
<polygon fill="#63b8ff" stroke="#63b8ff" points="382.72,-336.36 372.32,-338.39 381.71,-343.29 382.72,-336.36"/>
</a>
</g>
</g>
<!-- Node15 -->
<g id="Node000015" class="node">
<title>Node15</title>
<g id="a_Node000015"><a xlink:href="classstateObservation_1_1flexibilityEstimation_1_1IMUFixedContactDynamicalSystem.html" target="_top" xlink:title="This class describes the dynamics of a robot&#39;s flexibility this dynamics is the simplest possible sys...">
<polygon fill="white" stroke="#666666" points="618,-317.88 408.5,-317.88 408.5,-271.62 618,-271.62 618,-317.88"/>
<text text-anchor="start" x="416.5" y="-304.38" font-family="Helvetica,sans-Serif" font-size="10.00">stateObservation::flexibility</text>
<text text-anchor="start" x="416.5" y="-291.62" font-family="Helvetica,sans-Serif" font-size="10.00">Estimation::IMUFixedContactDynamical</text>
<text text-anchor="middle" x="513.25" y="-278.88" font-family="Helvetica,sans-Serif" font-size="10.00">System</text>
</a>
</g>
</g>
<!-- Node0&#45;&gt;Node15 -->
<g id="edge20_Node000000_Node000015" class="edge">
<title>Node0&#45;&gt;Node15</title>
<g id="a_edge20_Node000000_Node000015"><a xlink:title=" ">
<path fill="none" stroke="#63b8ff" d="M382.01,-313.71C390.6,-312.45 399.37,-311.18 408.09,-309.91"/>
<polygon fill="#63b8ff" stroke="#63b8ff" points="381.71,-310.21 372.32,-315.11 382.72,-317.14 381.71,-310.21"/>
</a>
</g>
</g>
<!-- Node16 -->
<g id="Node000016" class="node">
<title>Node16</title>
<g id="a_Node000016"><a xlink:href="classstateObservation_1_1flexibilityEstimation_1_1StableIMUFixedContactDynamicalSystem.html" target="_top" xlink:title="This class describes the dynamics of a robot&#39;s flexibility this dynamics is the simplest possible sys...">
<polygon fill="white" stroke="#666666" points="607.12,-253.88 419.38,-253.88 419.38,-207.62 607.12,-207.62 607.12,-253.88"/>
<text text-anchor="start" x="427.38" y="-240.38" font-family="Helvetica,sans-Serif" font-size="10.00">stateObservation::flexibility</text>
<text text-anchor="start" x="427.38" y="-227.62" font-family="Helvetica,sans-Serif" font-size="10.00">Estimation::StableIMUFixedContact</text>
<text text-anchor="middle" x="513.25" y="-214.88" font-family="Helvetica,sans-Serif" font-size="10.00">DynamicalSystem</text>
</a>
</g>
</g>
<!-- Node0&#45;&gt;Node16 -->
<g id="edge21_Node000000_Node000016" class="edge">
<title>Node0&#45;&gt;Node16</title>
<g id="a_edge21_Node000000_Node000016"><a xlink:title=" ">
<path fill="none" stroke="#63b8ff" d="M329.47,-303.76C351.8,-290.57 381.12,-274.37 408.5,-262.75 415.44,-259.8 422.74,-257 430.13,-254.36"/>
<polygon fill="#63b8ff" stroke="#63b8ff" points="327.82,-300.67 321.03,-308.8 331.41,-306.67 327.82,-300.67"/>
</a>
</g>
</g>
<!-- Node12 -->
<g id="Node000012" class="node">
<title>Node12</title>
<g id="a_Node000012"><a xlink:href="classstateObservation_1_1ObserverBase.html" target="_top" xlink:title="The base class for observers. The observer is destinated to any dynamical system with a vector state ...">
<polygon fill="white" stroke="#666666" points="174.25,-57.12 0,-57.12 0,-36.38 174.25,-36.38 174.25,-57.12"/>
<text text-anchor="middle" x="87.12" y="-43.62" font-family="Helvetica,sans-Serif" font-size="10.00">stateObservation::ObserverBase</text>
</a>
</g>
</g>
<!-- Node9 -->
<g id="Node000009" class="node">
<title>Node9</title>
<g id="a_Node000009"><a xlink:href="classstateObservation_1_1ZeroDelayObserver.html" target="_top" xlink:title="Defines the base class of online zero delay observers. Zero delay observers are the classical state o...">
<polygon fill="white" stroke="#666666" points="369.88,-63.5 212.88,-63.5 212.88,-30 369.88,-30 369.88,-63.5"/>
<text text-anchor="start" x="220.88" y="-50" font-family="Helvetica,sans-Serif" font-size="10.00">stateObservation::ZeroDelay</text>
<text text-anchor="middle" x="291.38" y="-37.25" font-family="Helvetica,sans-Serif" font-size="10.00">Observer</text>
</a>
</g>
</g>
<!-- Node12&#45;&gt;Node9 -->
<g id="edge22_Node000012_Node000009" class="edge">
<title>Node12&#45;&gt;Node9</title>
<g id="a_edge22_Node000012_Node000009"><a xlink:title=" ">
<path fill="none" stroke="#63b8ff" d="M185.83,-46.75C194.82,-46.75 203.84,-46.75 212.62,-46.75"/>
<polygon fill="#63b8ff" stroke="#63b8ff" points="186,-43.25 176,-46.75 186,-50.25 186,-43.25"/>
</a>
</g>
</g>
<!-- Node6 -->
<g id="Node000006" class="node">
<title>Node6</title>
<g id="a_Node000006"><a xlink:href="classstateObservation_1_1KalmanFilterBase.html" target="_top" xlink:title="It mostly implements the equations of Kalman filtering It is suitablle by derivation to be used incas...">
<polygon fill="white" stroke="#666666" points="585,-85.5 441.5,-85.5 441.5,-52 585,-52 585,-85.5"/>
<text text-anchor="start" x="449.5" y="-72" font-family="Helvetica,sans-Serif" font-size="10.00">stateObservation::Kalman</text>
<text text-anchor="middle" x="513.25" y="-59.25" font-family="Helvetica,sans-Serif" font-size="10.00">FilterBase</text>
</a>
</g>
</g>
<!-- Node9&#45;&gt;Node6 -->
<g id="edge23_Node000009_Node000006" class="edge">
<title>Node9&#45;&gt;Node6</title>
<g id="a_edge23_Node000009_Node000006"><a xlink:title=" ">
<path fill="none" stroke="#63b8ff" d="M381.44,-55.66C401.3,-57.65 422.11,-59.73 441.13,-61.63"/>
<polygon fill="#63b8ff" stroke="#63b8ff" points="382.01,-52.2 371.71,-54.69 381.31,-59.17 382.01,-52.2"/>
</a>
</g>
</g>
<!-- Node10 -->
<g id="Node000010" class="node">
<title>Node10</title>
<g id="a_Node000010"><a xlink:href="classstateObservation_1_1TiltEstimator.html" target="_top" xlink:title="Description is pending.">
<polygon fill="white" stroke="#666666" points="597.75,-31.12 428.75,-31.12 428.75,-10.38 597.75,-10.38 597.75,-31.12"/>
<text text-anchor="middle" x="513.25" y="-17.62" font-family="Helvetica,sans-Serif" font-size="10.00">stateObservation::TiltEstimator</text>
</a>
</g>
</g>
<!-- Node9&#45;&gt;Node10 -->
<g id="edge26_Node000009_Node000010" class="edge">
<title>Node9&#45;&gt;Node10</title>
<g id="a_edge26_Node000009_Node000010"><a xlink:title=" ">
<path fill="none" stroke="#63b8ff" d="M381.42,-36.22C396.99,-34.38 413.14,-32.47 428.55,-30.65"/>
<polygon fill="#63b8ff" stroke="#63b8ff" points="381.23,-32.72 371.71,-37.37 382.05,-39.67 381.23,-32.72"/>
</a>
</g>
</g>
<!-- Node7 -->
<g id="Node000007" class="node">
<title>Node7</title>
<g id="a_Node000007"><a xlink:href="classstateObservation_1_1ExtendedKalmanFilter.html" target="_top" xlink:title=" ">
<polygon fill="white" stroke="#666666" points="814.38,-85.5 662.62,-85.5 662.62,-52 814.38,-52 814.38,-85.5"/>
<text text-anchor="start" x="670.62" y="-72" font-family="Helvetica,sans-Serif" font-size="10.00">stateObservation::Extended</text>
<text text-anchor="middle" x="738.5" y="-59.25" font-family="Helvetica,sans-Serif" font-size="10.00">KalmanFilter</text>
</a>
</g>
</g>
<!-- Node6&#45;&gt;Node7 -->
<g id="edge24_Node000006_Node000007" class="edge">
<title>Node6&#45;&gt;Node7</title>
<g id="a_edge24_Node000006_Node000007"><a xlink:title=" ">
<path fill="none" stroke="#63b8ff" d="M596.65,-68.75C618.21,-68.75 641.34,-68.75 662.5,-68.75"/>
<polygon fill="#63b8ff" stroke="#63b8ff" points="596.71,-65.25 586.71,-68.75 596.71,-72.25 596.71,-65.25"/>
</a>
</g>
</g>
<!-- Node8 -->
<g id="Node000008" class="node">
<title>Node8</title>
<g id="a_Node000008"><a xlink:href="classstateObservation_1_1LinearKalmanFilter.html" target="_top" xlink:title="The class of a Linear Kalman filter.">
<polygon fill="white" stroke="#666666" points="806.5,-137.5 670.5,-137.5 670.5,-104 806.5,-104 806.5,-137.5"/>
<text text-anchor="start" x="678.5" y="-124" font-family="Helvetica,sans-Serif" font-size="10.00">stateObservation::Linear</text>
<text text-anchor="middle" x="738.5" y="-111.25" font-family="Helvetica,sans-Serif" font-size="10.00">KalmanFilter</text>
</a>
</g>
</g>
<!-- Node6&#45;&gt;Node8 -->
<g id="edge25_Node000006_Node000008" class="edge">
<title>Node6&#45;&gt;Node8</title>
<g id="a_edge25_Node000006_Node000008"><a xlink:title=" ">
<path fill="none" stroke="#63b8ff" d="M596.21,-87.84C620.53,-93.51 646.88,-99.64 670.16,-105.07"/>
<polygon fill="#63b8ff" stroke="#63b8ff" points="597.2,-84.48 586.67,-85.62 595.61,-91.3 597.2,-84.48"/>
</a>
</g>
</g>
<!-- Node11 -->
<g id="Node000011" class="node">
<title>Node11</title>
<g id="a_Node000011"><a xlink:href="classstateObservation_1_1TiltEstimatorHumanoid.html" target="_top" xlink:title="Version of the Tilt Estimator for humanoid robots.">
<polygon fill="white" stroke="#666666" points="823,-33.5 654,-33.5 654,0 823,0 823,-33.5"/>
<text text-anchor="start" x="662" y="-20" font-family="Helvetica,sans-Serif" font-size="10.00">stateObservation::TiltEstimator</text>
<text text-anchor="middle" x="738.5" y="-7.25" font-family="Helvetica,sans-Serif" font-size="10.00">Humanoid</text>
</a>
</g>
</g>
<!-- Node10&#45;&gt;Node11 -->
<g id="edge27_Node000010_Node000011" class="edge">
<title>Node10&#45;&gt;Node11</title>
<g id="a_edge27_Node000010_Node000011"><a xlink:title=" ">
<path fill="none" stroke="#63b8ff" d="M609.21,-19.05C623.98,-18.78 639.14,-18.51 653.64,-18.25"/>
<polygon fill="#63b8ff" stroke="#63b8ff" points="609.46,-15.54 599.53,-19.22 609.59,-22.54 609.46,-15.54"/>
</a>
</g>
</g>
<!-- Node5 -->
<g id="Node000005" class="node">
<title>Node5</title>
<g id="a_Node000005"><a xlink:href="classstateObservation_1_1StateVectorArithmetics.html" target="_top" xlink:title="This class is used to customize the way the difference between measurements, the state update functio...">
<polygon fill="white" stroke="#666666" points="372.5,-137.5 210.25,-137.5 210.25,-104 372.5,-104 372.5,-137.5"/>
<text text-anchor="start" x="218.25" y="-124" font-family="Helvetica,sans-Serif" font-size="10.00">stateObservation::StateVector</text>
<text text-anchor="middle" x="291.38" y="-111.25" font-family="Helvetica,sans-Serif" font-size="10.00">Arithmetics</text>
</a>
</g>
</g>
<!-- Node5&#45;&gt;Node4 -->
<g id="edge28_Node000005_Node000004" class="edge">
<title>Node5&#45;&gt;Node4</title>
<g id="a_edge28_Node000005_Node000004"><a xlink:title=" ">
<path fill="none" stroke="#63b8ff" d="M376.36,-140.61C397.18,-145.54 419.31,-150.77 439.54,-155.55"/>
<polygon fill="#63b8ff" stroke="#63b8ff" points="377.29,-137.24 366.76,-138.34 375.68,-144.05 377.29,-137.24"/>
</a>
</g>
</g>
<!-- Node5&#45;&gt;Node13 -->
<g id="edge30_Node000005_Node000013" class="edge">
<title>Node5&#45;&gt;Node13</title>
<g id="a_edge30_Node000005_Node000013"><a xlink:title=" ">
<path fill="none" stroke="darkgreen" d="M384.51,-120.75C403.16,-120.75 422.52,-120.75 440.36,-120.75"/>
<polygon fill="darkgreen" stroke="darkgreen" points="384.51,-117.25 374.51,-120.75 384.51,-124.25 384.51,-117.25"/>
</a>
</g>
</g>
<!-- Node5&#45;&gt;Node6 -->
<g id="edge29_Node000005_Node000006" class="edge">
<title>Node5&#45;&gt;Node6</title>
<g id="a_edge29_Node000005_Node000006"><a xlink:title=" ">
<path fill="none" stroke="darkgreen" d="M376.3,-100.9C397.65,-95.85 420.39,-90.48 441.03,-85.59"/>
<polygon fill="darkgreen" stroke="darkgreen" points="375.68,-97.45 366.76,-103.16 377.29,-104.26 375.68,-97.45"/>
</a>
</g>
</g>
</g>
</svg>
