<?xml version="1.0" encoding="UTF-8" standalone="no"?>
<!DOCTYPE svg PUBLIC "-//W3C//DTD SVG 1.1//EN"
 "http://www.w3.org/Graphics/SVG/1.1/DTD/svg11.dtd">
<!-- Generated by graphviz version 12.2.1 (0)
 -->
<!-- Title: Graphical Class Hierarchy Pages: 1 -->
<svg width="310pt" height="80pt"
 viewBox="0.00 0.00 310.00 80.12" xmlns="http://www.w3.org/2000/svg" xmlns:xlink="http://www.w3.org/1999/xlink">
<g id="graph0" class="graph" transform="scale(1 1) rotate(0) translate(4 76.12)">
<title>Graphical Class Hierarchy</title>
<!-- Node0 -->
<g id="Node000000" class="node">
<title>Node0</title>
<g id="a_Node000000"><a xlink:title=" ">
<polygon fill="#e0e0e0" stroke="#999999" points="82,-49.12 0,-49.12 0,-28.38 82,-28.38 82,-49.12"/>
<text text-anchor="middle" x="41" y="-35.62" font-family="Helvetica,sans-Serif" font-size="10.00">std::enable_if</text>
</a>
</g>
</g>
<!-- Node1 -->
<g id="Node000001" class="node">
<title>Node1</title>
<g id="a_Node000001"><a xlink:href="structstateObservation_1_1EigenType.html" target="_top" xlink:title=" ">
<polygon fill="white" stroke="#666666" points="302,-72.12 118,-72.12 118,-51.38 302,-51.38 302,-72.12"/>
<text text-anchor="middle" x="210" y="-58.62" font-family="Helvetica,sans-Serif" font-size="10.00">stateObservation::EigenType&lt; T &gt;</text>
</a>
</g>
</g>
<!-- Node0&#45;&gt;Node1 -->
<g id="edge45_Node000000_Node000001" class="edge">
<title>Node0&#45;&gt;Node1</title>
<g id="a_edge45_Node000000_Node000001"><a xlink:title=" ">
<path fill="none" stroke="#63b8ff" d="M93.69,-45.87C105.32,-47.47 117.92,-49.21 130.37,-50.92"/>
<polygon fill="#63b8ff" stroke="#63b8ff" points="94.31,-42.42 83.93,-44.52 93.35,-49.36 94.31,-42.42"/>
</a>
</g>
</g>
<!-- Node2 -->
<g id="Node000002" class="node">
<title>Node2</title>
<g id="a_Node000002"><a xlink:href="structstateObservation_1_1MatrixType.html" target="_top" xlink:title=" ">
<polygon fill="white" stroke="#666666" points="278.75,-33.5 141.25,-33.5 141.25,0 278.75,0 278.75,-33.5"/>
<text text-anchor="start" x="149.25" y="-20" font-family="Helvetica,sans-Serif" font-size="10.00">stateObservation::Matrix</text>
<text text-anchor="middle" x="210" y="-7.25" font-family="Helvetica,sans-Serif" font-size="10.00">Type&lt; T &gt;</text>
</a>
</g>
</g>
<!-- Node0&#45;&gt;Node2 -->
<g id="edge46_Node000000_Node000002" class="edge">
<title>Node0&#45;&gt;Node2</title>
<g id="a_edge46_Node000000_Node000002"><a xlink:title=" ">
<path fill="none" stroke="#63b8ff" d="M93.53,-31.96C108.51,-29.99 125.1,-27.8 140.93,-25.72"/>
<polygon fill="#63b8ff" stroke="#63b8ff" points="93.38,-28.45 83.93,-33.23 94.3,-35.39 93.38,-28.45"/>
</a>
</g>
</g>
</g>
</svg>
