<?xml version="1.0" encoding="UTF-8" standalone="no"?>
<!DOCTYPE svg PUBLIC "-//W3C//DTD SVG 1.1//EN"
 "http://www.w3.org/Graphics/SVG/1.1/DTD/svg11.dtd">
<!-- Generated by graphviz version 12.2.1 (0)
 -->
<!-- Title: Graphical Class Hierarchy Pages: 1 -->
<svg width="360pt" height="250pt"
 viewBox="0.00 0.00 360.25 249.50" xmlns="http://www.w3.org/2000/svg" xmlns:xlink="http://www.w3.org/1999/xlink">
<g id="graph0" class="graph" transform="scale(1 1) rotate(0) translate(4 245.5)">
<title>Graphical Class Hierarchy</title>
<!-- Node0 -->
<g id="Node000000" class="node">
<title>Node0</title>
<g id="a_Node000000"><a xlink:href="classstateObservation_1_1DebugItem.html" target="_top" xlink:title=" ">
<polygon fill="white" stroke="#666666" points="160,-143.88 0,-143.88 0,-97.62 160,-97.62 160,-143.88"/>
<text text-anchor="start" x="8" y="-130.38" font-family="Helvetica,sans-Serif" font-size="10.00">stateObservation::DebugItem</text>
<text text-anchor="start" x="8" y="-117.62" font-family="Helvetica,sans-Serif" font-size="10.00">&lt; bool, detail::defaultTrue,</text>
<text text-anchor="middle" x="80" y="-104.88" font-family="Helvetica,sans-Serif" font-size="10.00"> !false||isDebug &gt;</text>
</a>
</g>
</g>
<!-- Node1 -->
<g id="Node000001" class="node">
<title>Node1</title>
<g id="a_Node000001"><a xlink:href="classstateObservation_1_1IndexedMatrixT.html" target="_top" xlink:title=" ">
<polygon fill="white" stroke="#666666" points="346.25,-241.5 202,-241.5 202,-208 346.25,-208 346.25,-241.5"/>
<text text-anchor="start" x="210" y="-228" font-family="Helvetica,sans-Serif" font-size="10.00">stateObservation::Indexed</text>
<text text-anchor="middle" x="274.12" y="-215.25" font-family="Helvetica,sans-Serif" font-size="10.00">MatrixT&lt; Matrix &gt;</text>
</a>
</g>
</g>
<!-- Node0&#45;&gt;Node1 -->
<g id="edge9_Node000000_Node000001" class="edge">
<title>Node0&#45;&gt;Node1</title>
<g id="a_edge9_Node000000_Node000001"><a xlink:title=" ">
<path fill="none" stroke="darkgreen" d="M119.98,-151.09C141.52,-166.83 169.27,-185.49 196,-198.75 202.46,-201.95 209.4,-204.91 216.38,-207.6"/>
<polygon fill="darkgreen" stroke="darkgreen" points="122.18,-148.36 112.06,-145.22 118.01,-153.99 122.18,-148.36"/>
</a>
</g>
</g>
<!-- Node2 -->
<g id="Node000002" class="node">
<title>Node2</title>
<g id="a_Node000002"><a xlink:href="classstateObservation_1_1IndexedMatrixT.html" target="_top" xlink:title=" ">
<polygon fill="white" stroke="#666666" points="346.25,-189.5 202,-189.5 202,-156 346.25,-156 346.25,-189.5"/>
<text text-anchor="start" x="210" y="-176" font-family="Helvetica,sans-Serif" font-size="10.00">stateObservation::Indexed</text>
<text text-anchor="middle" x="274.12" y="-163.25" font-family="Helvetica,sans-Serif" font-size="10.00">MatrixT&lt; Vector &gt;</text>
</a>
</g>
</g>
<!-- Node0&#45;&gt;Node2 -->
<g id="edge10_Node000000_Node000002" class="edge">
<title>Node0&#45;&gt;Node2</title>
<g id="a_edge10_Node000000_Node000002"><a xlink:title=" ">
<path fill="none" stroke="darkgreen" d="M171.12,-145.14C184.11,-148.66 197.25,-152.22 209.59,-155.55"/>
<polygon fill="darkgreen" stroke="darkgreen" points="172.28,-141.83 161.71,-142.6 170.45,-148.59 172.28,-141.83"/>
</a>
</g>
</g>
<!-- Node3 -->
<g id="Node000003" class="node">
<title>Node3</title>
<g id="a_Node000003"><a xlink:href="classstateObservation_1_1IndexedMatrixT.html" target="_top" xlink:title=" ">
<polygon fill="white" stroke="#666666" points="346.25,-137.5 202,-137.5 202,-104 346.25,-104 346.25,-137.5"/>
<text text-anchor="start" x="210" y="-124" font-family="Helvetica,sans-Serif" font-size="10.00">stateObservation::Indexed</text>
<text text-anchor="middle" x="274.12" y="-111.25" font-family="Helvetica,sans-Serif" font-size="10.00">MatrixT&lt; Vector3 &gt;</text>
</a>
</g>
</g>
<!-- Node0&#45;&gt;Node3 -->
<g id="edge11_Node000000_Node000003" class="edge">
<title>Node0&#45;&gt;Node3</title>
<g id="a_edge11_Node000000_Node000003"><a xlink:title=" ">
<path fill="none" stroke="darkgreen" d="M171.61,-120.75C181.73,-120.75 191.92,-120.75 201.74,-120.75"/>
<polygon fill="darkgreen" stroke="darkgreen" points="171.77,-117.25 161.77,-120.75 171.77,-124.25 171.77,-117.25"/>
</a>
</g>
</g>
<!-- Node4 -->
<g id="Node000004" class="node">
<title>Node4</title>
<g id="a_Node000004"><a xlink:href="classstateObservation_1_1IndexedMatrixT.html" target="_top" xlink:title=" ">
<polygon fill="white" stroke="#666666" points="346.25,-85.5 202,-85.5 202,-52 346.25,-52 346.25,-85.5"/>
<text text-anchor="start" x="210" y="-72" font-family="Helvetica,sans-Serif" font-size="10.00">stateObservation::Indexed</text>
<text text-anchor="middle" x="274.12" y="-59.25" font-family="Helvetica,sans-Serif" font-size="10.00">MatrixT&lt; Matrix3 &gt;</text>
</a>
</g>
</g>
<!-- Node0&#45;&gt;Node4 -->
<g id="edge12_Node000000_Node000004" class="edge">
<title>Node0&#45;&gt;Node4</title>
<g id="a_edge12_Node000000_Node000004"><a xlink:title=" ">
<path fill="none" stroke="darkgreen" d="M171.12,-96.36C184.11,-92.84 197.25,-89.28 209.59,-85.95"/>
<polygon fill="darkgreen" stroke="darkgreen" points="170.45,-92.91 161.71,-98.9 172.28,-99.67 170.45,-92.91"/>
</a>
</g>
</g>
<!-- Node5 -->
<g id="Node000005" class="node">
<title>Node5</title>
<g id="a_Node000005"><a xlink:href="classstateObservation_1_1IndexedMatrixT.html" target="_top" xlink:title="This class describes a structure composed by a matrix of a given size and a time&#45;index parameter....">
<polygon fill="white" stroke="#666666" points="352.25,-33.5 196,-33.5 196,0 352.25,0 352.25,-33.5"/>
<text text-anchor="start" x="204" y="-20" font-family="Helvetica,sans-Serif" font-size="10.00">stateObservation::Indexed</text>
<text text-anchor="middle" x="274.12" y="-7.25" font-family="Helvetica,sans-Serif" font-size="10.00">MatrixT&lt; MatrixType, lazy &gt;</text>
</a>
</g>
</g>
<!-- Node0&#45;&gt;Node5 -->
<g id="edge13_Node000000_Node000005" class="edge">
<title>Node0&#45;&gt;Node5</title>
<g id="a_edge13_Node000000_Node000005"><a xlink:title=" ">
<path fill="none" stroke="darkgreen" d="M119.98,-90.41C141.52,-74.67 169.27,-56.01 196,-42.75 202.46,-39.55 209.4,-36.59 216.38,-33.9"/>
<polygon fill="darkgreen" stroke="darkgreen" points="118.01,-87.51 112.06,-96.28 122.18,-93.14 118.01,-87.51"/>
</a>
</g>
</g>
</g>
</svg>
