<?xml version="1.0" encoding="UTF-8" standalone="no"?>
<!DOCTYPE svg PUBLIC "-//W3C//DTD SVG 1.1//EN"
 "http://www.w3.org/Graphics/SVG/1.1/DTD/svg11.dtd">
<!-- Generated by graphviz version 12.2.1 (0)
 -->
<!-- Title: Graphical Class Hierarchy Pages: 1 -->
<svg width="306pt" height="106pt"
 viewBox="0.00 0.00 306.25 105.88" xmlns="http://www.w3.org/2000/svg" xmlns:xlink="http://www.w3.org/1999/xlink">
<g id="graph0" class="graph" transform="scale(1 1) rotate(0) translate(4 101.88)">
<title>Graphical Class Hierarchy</title>
<!-- Node0 -->
<g id="Node000000" class="node">
<title>Node0</title>
<g id="a_Node000000"><a xlink:title=" ">
<polygon fill="#e0e0e0" stroke="#999999" points="88,-30.75 0,-30.75 0,-10 88,-10 88,-30.75"/>
<text text-anchor="middle" x="44" y="-17.25" font-family="Helvetica,sans-Serif" font-size="10.00">std::false_type</text>
</a>
</g>
</g>
<!-- Node1 -->
<g id="Node000001" class="node">
<title>Node1</title>
<g id="a_Node000001"><a xlink:href="structstateObservation_1_1isMatrix_3_01Eigen_1_1Matrix_3_01__Scalar_00_01__Rows_00_01__Cols_00_0ef6b73255092c89cac8fa5ea734359d2.html" target="_top" xlink:title=" ">
<polygon fill="white" stroke="#666666" points="284.75,-97.88 137.5,-97.88 137.5,-38.88 284.75,-38.88 284.75,-97.88"/>
<text text-anchor="start" x="145.5" y="-84.38" font-family="Helvetica,sans-Serif" font-size="10.00">stateObservation::isMatrix</text>
<text text-anchor="start" x="145.5" y="-71.62" font-family="Helvetica,sans-Serif" font-size="10.00">&lt; Eigen::Matrix&lt; _Scalar,</text>
<text text-anchor="start" x="145.5" y="-58.88" font-family="Helvetica,sans-Serif" font-size="10.00"> _Rows, _Cols, _Options,</text>
<text text-anchor="middle" x="211.12" y="-46.12" font-family="Helvetica,sans-Serif" font-size="10.00"> _MaxRows, _MaxCols &gt; &gt;</text>
</a>
</g>
</g>
<!-- Node0&#45;&gt;Node1 -->
<g id="edge47_Node000000_Node000001" class="edge">
<title>Node0&#45;&gt;Node1</title>
<g id="a_edge47_Node000000_Node000001"><a xlink:title=" ">
<path fill="none" stroke="#63b8ff" d="M92.77,-34.26C106.59,-38.28 122.01,-42.76 137.01,-47.12"/>
<polygon fill="#63b8ff" stroke="#63b8ff" points="94.09,-31 83.51,-31.57 92.14,-37.72 94.09,-31"/>
</a>
</g>
</g>
<!-- Node3 -->
<g id="Node000003" class="node">
<title>Node3</title>
<g id="a_Node000003"><a xlink:href="structstateObservation_1_1isMatrix.html" target="_top" xlink:title="Checks if a class is a specialization of Eigen::Matrix.">
<polygon fill="white" stroke="#666666" points="298.25,-20.75 124,-20.75 124,0 298.25,0 298.25,-20.75"/>
<text text-anchor="middle" x="211.12" y="-7.25" font-family="Helvetica,sans-Serif" font-size="10.00">stateObservation::isMatrix&lt; T &gt;</text>
</a>
</g>
</g>
<!-- Node0&#45;&gt;Node3 -->
<g id="edge48_Node000000_Node000003" class="edge">
<title>Node0&#45;&gt;Node3</title>
<g id="a_edge48_Node000000_Node000003"><a xlink:title=" ">
<path fill="none" stroke="#63b8ff" d="M99.72,-17.06C107.41,-16.6 115.45,-16.11 123.55,-15.62"/>
<polygon fill="#63b8ff" stroke="#63b8ff" points="99.67,-13.56 89.9,-17.66 100.09,-20.55 99.67,-13.56"/>
</a>
</g>
</g>
<!-- Node2 -->
<g id="Node000002" class="node">
<title>Node2</title>
<g id="a_Node000002"><a xlink:title=" ">
<polygon fill="#e0e0e0" stroke="#999999" points="85.75,-78.75 2.25,-78.75 2.25,-58 85.75,-58 85.75,-78.75"/>
<text text-anchor="middle" x="44" y="-65.25" font-family="Helvetica,sans-Serif" font-size="10.00">std::true_type</text>
</a>
</g>
</g>
<!-- Node2&#45;&gt;Node1 -->
<g id="edge49_Node000002_Node000001" class="edge">
<title>Node2&#45;&gt;Node1</title>
<g id="a_edge49_Node000002_Node000001"><a xlink:title=" ">
<path fill="none" stroke="#63b8ff" d="M97.51,-68.38C110.16,-68.38 123.9,-68.38 137.3,-68.38"/>
<polygon fill="#63b8ff" stroke="#63b8ff" points="97.76,-64.88 87.76,-68.38 97.76,-71.88 97.76,-64.88"/>
</a>
</g>
</g>
</g>
</svg>
