<?xml version="1.0" encoding="UTF-8" standalone="no"?>
<!DOCTYPE svg PUBLIC "-//W3C//DTD SVG 1.1//EN"
 "http://www.w3.org/Graphics/SVG/1.1/DTD/svg11.dtd">
<!-- Generated by graphviz version 12.2.1 (0)
 -->
<!-- Title: Graphical Class Hierarchy Pages: 1 -->
<svg width="732pt" height="94pt"
 viewBox="0.00 0.00 731.75 93.50" xmlns="http://www.w3.org/2000/svg" xmlns:xlink="http://www.w3.org/1999/xlink">
<g id="graph0" class="graph" transform="scale(1 1) rotate(0) translate(4 89.5)">
<title>Graphical Class Hierarchy</title>
<!-- Node0 -->
<g id="Node000000" class="node">
<title>Node0</title>
<g id="a_Node000000"><a xlink:href="classstateObservation_1_1flexibilityEstimation_1_1FlexibilityEstimatorBase.html" target="_top" xlink:title="This class is the base class of the flexibility estimators.">
<polygon fill="white" stroke="#666666" points="194.5,-83.5 0,-83.5 0,-50 194.5,-50 194.5,-83.5"/>
<text text-anchor="start" x="8" y="-70" font-family="Helvetica,sans-Serif" font-size="10.00">stateObservation::flexibility</text>
<text text-anchor="middle" x="97.25" y="-57.25" font-family="Helvetica,sans-Serif" font-size="10.00">Estimation::FlexibilityEstimatorBase</text>
</a>
</g>
</g>
<!-- Node1 -->
<g id="Node000001" class="node">
<title>Node1</title>
<g id="a_Node000001"><a xlink:href="classstateObservation_1_1flexibilityEstimation_1_1EKFFlexibilityEstimatorBase.html" target="_top" xlink:title="This class is the base class of the flexibility estimators that use an extended Kalman Filter....">
<polygon fill="white" stroke="#666666" points="443.75,-83.5 230.5,-83.5 230.5,-50 443.75,-50 443.75,-83.5"/>
<text text-anchor="start" x="238.5" y="-70" font-family="Helvetica,sans-Serif" font-size="10.00">stateObservation::flexibility</text>
<text text-anchor="middle" x="337.12" y="-57.25" font-family="Helvetica,sans-Serif" font-size="10.00">Estimation::EKFFlexibilityEstimatorBase</text>
</a>
</g>
</g>
<!-- Node0&#45;&gt;Node1 -->
<g id="edge32_Node000000_Node000001" class="edge">
<title>Node0&#45;&gt;Node1</title>
<g id="a_edge32_Node000000_Node000001"><a xlink:title=" ">
<path fill="none" stroke="#63b8ff" d="M206,-66.75C214.06,-66.75 222.2,-66.75 230.25,-66.75"/>
<polygon fill="#63b8ff" stroke="#63b8ff" points="206.17,-63.25 196.17,-66.75 206.17,-70.25 206.17,-63.25"/>
</a>
</g>
</g>
<!-- Node2 -->
<g id="Node000002" class="node">
<title>Node2</title>
<g id="a_Node000002"><a xlink:href="classstateObservation_1_1flexibilityEstimation_1_1FixedContactEKFFlexEstimatorIMU.html" target="_top" xlink:title="This class implements the flexibility estimation of a robot with the hypothesis that the contact posi...">
<polygon fill="white" stroke="#666666" points="723.75,-85.5 479.75,-85.5 479.75,-52 723.75,-52 723.75,-85.5"/>
<text text-anchor="start" x="487.75" y="-72" font-family="Helvetica,sans-Serif" font-size="10.00">stateObservation::flexibility</text>
<text text-anchor="middle" x="601.75" y="-59.25" font-family="Helvetica,sans-Serif" font-size="10.00">Estimation::FixedContactEKFFlexEstimatorIMU</text>
</a>
</g>
</g>
<!-- Node1&#45;&gt;Node2 -->
<g id="edge33_Node000001_Node000002" class="edge">
<title>Node1&#45;&gt;Node2</title>
<g id="a_edge33_Node000001_Node000002"><a xlink:title=" ">
<path fill="none" stroke="#63b8ff" d="M455.48,-67.64C463.51,-67.7 471.6,-67.77 479.65,-67.83"/>
<polygon fill="#63b8ff" stroke="#63b8ff" points="455.73,-64.15 445.7,-67.57 455.67,-71.15 455.73,-64.15"/>
</a>
</g>
</g>
<!-- Node4 -->
<g id="Node000004" class="node">
<title>Node4</title>
<g id="a_Node000004"><a xlink:href="classstateObservation_1_1flexibilityEstimation_1_1ModelBaseEKFFlexEstimatorIMU.html" target="_top" xlink:title="This class implements the flexibility estimation of a robot with the hypothesis that the contact posi...">
<polygon fill="white" stroke="#666666" points="719.25,-33.5 484.25,-33.5 484.25,0 719.25,0 719.25,-33.5"/>
<text text-anchor="start" x="492.25" y="-20" font-family="Helvetica,sans-Serif" font-size="10.00">stateObservation::flexibility</text>
<text text-anchor="middle" x="601.75" y="-7.25" font-family="Helvetica,sans-Serif" font-size="10.00">Estimation::ModelBaseEKFFlexEstimatorIMU</text>
</a>
</g>
</g>
<!-- Node1&#45;&gt;Node4 -->
<g id="edge34_Node000001_Node000004" class="edge">
<title>Node1&#45;&gt;Node4</title>
<g id="a_edge34_Node000001_Node000004"><a xlink:title=" ">
<path fill="none" stroke="#63b8ff" d="M439.78,-47.4C462.99,-42.98 487.5,-38.31 510.2,-33.99"/>
<polygon fill="#63b8ff" stroke="#63b8ff" points="439.16,-43.95 429.99,-49.26 440.47,-50.83 439.16,-43.95"/>
</a>
</g>
</g>
<!-- Node3 -->
<g id="Node000003" class="node">
<title>Node3</title>
<g id="a_Node000003"><a xlink:title=" ">
<polygon fill="#e0e0e0" stroke="#999999" points="392.75,-30.12 281.5,-30.12 281.5,-9.38 392.75,-9.38 392.75,-30.12"/>
<text text-anchor="middle" x="337.12" y="-16.62" font-family="Helvetica,sans-Serif" font-size="10.00">boost::noncopyable</text>
</a>
</g>
</g>
<!-- Node3&#45;&gt;Node2 -->
<g id="edge35_Node000003_Node000002" class="edge">
<title>Node3&#45;&gt;Node2</title>
<g id="a_edge35_Node000003_Node000002"><a xlink:title=" ">
<path fill="none" stroke="#8b1a1a" d="M404.48,-32.13C436.02,-38.01 474.24,-45.15 508.55,-51.55"/>
<polygon fill="#8b1a1a" stroke="#8b1a1a" points="405.14,-28.69 394.67,-30.3 403.86,-35.57 405.14,-28.69"/>
</a>
</g>
</g>
<!-- Node3&#45;&gt;Node4 -->
<g id="edge36_Node000003_Node000004" class="edge">
<title>Node3&#45;&gt;Node4</title>
<g id="a_edge36_Node000003_Node000004"><a xlink:title=" ">
<path fill="none" stroke="#8b1a1a" d="M404.67,-18.99C428.75,-18.71 456.7,-18.4 483.83,-18.09"/>
<polygon fill="#8b1a1a" stroke="#8b1a1a" points="404.65,-15.49 394.69,-19.1 404.73,-22.49 404.65,-15.49"/>
</a>
</g>
</g>
</g>
</svg>
