<?xml version="1.0" encoding="UTF-8" standalone="no"?>
<!DOCTYPE svg PUBLIC "-//W3C//DTD SVG 1.1//EN"
 "http://www.w3.org/Graphics/SVG/1.1/DTD/svg11.dtd">
<!-- Generated by graphviz version 12.2.1 (0)
 -->
<!-- Title: /build/source/include/state&#45;observation/observer/kalman&#45;filter&#45;base.hpp Pages: 1 -->
<svg width="1228pt" height="332pt"
 viewBox="0.00 0.00 1227.62 332.25" xmlns="http://www.w3.org/2000/svg" xmlns:xlink="http://www.w3.org/1999/xlink">
<g id="graph0" class="graph" transform="scale(1 1) rotate(0) translate(4 328.25)">
<title>/build/source/include/state&#45;observation/observer/kalman&#45;filter&#45;base.hpp</title>
<!-- Node1 -->
<g id="Node000001" class="node">
<title>Node1</title>
<g id="a_Node000001"><a xlink:title="Defines the base class of a Kalman filter.">
<polygon fill="#999999" stroke="#666666" points="1025.5,-324.25 874.5,-324.25 874.5,-278 1025.5,-278 1025.5,-324.25"/>
<text text-anchor="start" x="882.5" y="-310.75" font-family="Helvetica,sans-Serif" font-size="10.00">/build/source/include</text>
<text text-anchor="start" x="882.5" y="-298" font-family="Helvetica,sans-Serif" font-size="10.00">/state&#45;observation/observer</text>
<text text-anchor="middle" x="950" y="-285.25" font-family="Helvetica,sans-Serif" font-size="10.00">/kalman&#45;filter&#45;base.hpp</text>
</a>
</g>
</g>
<!-- Node2 -->
<g id="Node000002" class="node">
<title>Node2</title>
<g id="a_Node000002"><a xlink:title=" ">
<polygon fill="#e0e0e0" stroke="#999999" points="1219.62,-27.12 1090.38,-27.12 1090.38,-6.38 1219.62,-6.38 1219.62,-27.12"/>
<text text-anchor="middle" x="1155" y="-13.62" font-family="Helvetica,sans-Serif" font-size="10.00">state&#45;observation/api.h</text>
</a>
</g>
</g>
<!-- Node1&#45;&gt;Node2 -->
<g id="edge1_Node000001_Node000002" class="edge">
<title>Node1&#45;&gt;Node2</title>
<g id="a_edge1_Node000001_Node000002"><a xlink:title=" ">
<path fill="none" stroke="#63b8ff" d="M986.93,-277.71C1002,-267.72 1019.11,-255.22 1033,-242 1089.67,-188.07 1109.7,-174.7 1141,-103 1150.03,-82.32 1153.28,-56.49 1154.43,-38.72"/>
<polygon fill="#63b8ff" stroke="#63b8ff" points="1157.92,-39.05 1154.87,-28.9 1150.92,-38.73 1157.92,-39.05"/>
</a>
</g>
</g>
<!-- Node3 -->
<g id="Node000003" class="node">
<title>Node3</title>
<g id="a_Node000003"><a xlink:href="zero-delay-observer_8hpp.html" target="_top" xlink:title="Defines the base class of online zero delay observers. Zero delay observers are the classical state o...">
<polygon fill="white" stroke="#666666" points="1024,-242 876,-242 876,-208.5 1024,-208.5 1024,-242"/>
<text text-anchor="start" x="884" y="-228.5" font-family="Helvetica,sans-Serif" font-size="10.00">state&#45;observation/observer</text>
<text text-anchor="middle" x="950" y="-215.75" font-family="Helvetica,sans-Serif" font-size="10.00">/zero&#45;delay&#45;observer.hpp</text>
</a>
</g>
</g>
<!-- Node1&#45;&gt;Node3 -->
<g id="edge2_Node000001_Node000003" class="edge">
<title>Node1&#45;&gt;Node3</title>
<g id="a_edge2_Node000001_Node000003"><a xlink:title=" ">
<path fill="none" stroke="#63b8ff" d="M950,-277.56C950,-270.01 950,-261.51 950,-253.63"/>
<polygon fill="#63b8ff" stroke="#63b8ff" points="953.5,-253.87 950,-243.87 946.5,-253.87 953.5,-253.87"/>
</a>
</g>
</g>
<!-- Node18 -->
<g id="Node000018" class="node">
<title>Node18</title>
<g id="a_Node000018"><a xlink:href="state-vector-arithmetics_8hpp_source.html" target="_top" xlink:title=" ">
<polygon fill="white" stroke="#666666" points="857.88,-172.5 700.12,-172.5 700.12,-139 857.88,-139 857.88,-172.5"/>
<text text-anchor="start" x="708.12" y="-159" font-family="Helvetica,sans-Serif" font-size="10.00">state&#45;observation/tools</text>
<text text-anchor="middle" x="779" y="-146.25" font-family="Helvetica,sans-Serif" font-size="10.00">/state&#45;vector&#45;arithmetics.hpp</text>
</a>
</g>
</g>
<!-- Node1&#45;&gt;Node18 -->
<g id="edge22_Node000001_Node000018" class="edge">
<title>Node1&#45;&gt;Node18</title>
<g id="a_edge22_Node000001_Node000018"><a xlink:title=" ">
<path fill="none" stroke="#63b8ff" d="M915.18,-277.55C899.98,-267.24 882.19,-254.55 867,-242 843.74,-222.8 819.25,-198.71 802.03,-181.04"/>
<polygon fill="#63b8ff" stroke="#63b8ff" points="804.71,-178.78 795.25,-174.03 799.68,-183.65 804.71,-178.78"/>
</a>
</g>
</g>
<!-- Node3&#45;&gt;Node2 -->
<g id="edge4_Node000003_Node000002" class="edge">
<title>Node3&#45;&gt;Node2</title>
<g id="a_edge4_Node000003_Node000002"><a xlink:title=" ">
<path fill="none" stroke="#63b8ff" d="M982.73,-208.11C1020.05,-188.18 1080.6,-150.94 1117,-103 1132.04,-83.19 1142.71,-56.49 1148.84,-38.28"/>
<polygon fill="#63b8ff" stroke="#63b8ff" points="1152.12,-39.5 1151.82,-28.91 1145.45,-37.37 1152.12,-39.5"/>
</a>
</g>
</g>
<!-- Node4 -->
<g id="Node000004" class="node">
<title>Node4</title>
<g id="a_Node000004"><a xlink:title=" ">
<polygon fill="#e0e0e0" stroke="#999999" points="46,-27.12 0,-27.12 0,-6.38 46,-6.38 46,-27.12"/>
<text text-anchor="middle" x="23" y="-13.62" font-family="Helvetica,sans-Serif" font-size="10.00">deque</text>
</a>
</g>
</g>
<!-- Node3&#45;&gt;Node4 -->
<g id="edge3_Node000003_Node000004" class="edge">
<title>Node3&#45;&gt;Node4</title>
<g id="a_edge3_Node000003_Node000004"><a xlink:title=" ">
<path fill="none" stroke="#63b8ff" d="M875.69,-209.77C823.87,-199.58 753.16,-185.5 691,-172.5 407.79,-113.26 328.13,-128.97 55,-33.5 53.83,-33.09 52.65,-32.65 51.46,-32.18"/>
<polygon fill="#63b8ff" stroke="#63b8ff" points="52.89,-28.99 42.33,-28.14 50.06,-35.39 52.89,-28.99"/>
</a>
</g>
</g>
<!-- Node5 -->
<g id="Node000005" class="node">
<title>Node5</title>
<g id="a_Node000005"><a xlink:href="observer-base_8hpp.html" target="_top" xlink:title="Defines the base class of a state observer. The observer is destinated to any dynamical system with a...">
<polygon fill="white" stroke="#666666" points="1024,-172.5 876,-172.5 876,-139 1024,-139 1024,-172.5"/>
<text text-anchor="start" x="884" y="-159" font-family="Helvetica,sans-Serif" font-size="10.00">state&#45;observation/observer</text>
<text text-anchor="middle" x="950" y="-146.25" font-family="Helvetica,sans-Serif" font-size="10.00">/observer&#45;base.hpp</text>
</a>
</g>
</g>
<!-- Node3&#45;&gt;Node5 -->
<g id="edge5_Node000003_Node000005" class="edge">
<title>Node3&#45;&gt;Node5</title>
<g id="a_edge5_Node000003_Node000005"><a xlink:title=" ">
<path fill="none" stroke="#63b8ff" d="M950,-208.25C950,-201.02 950,-192.28 950,-184.06"/>
<polygon fill="#63b8ff" stroke="#63b8ff" points="953.5,-184.15 950,-174.15 946.5,-184.15 953.5,-184.15"/>
</a>
</g>
</g>
<!-- Node5&#45;&gt;Node2 -->
<g id="edge8_Node000005_Node000002" class="edge">
<title>Node5&#45;&gt;Node2</title>
<g id="a_edge8_Node000005_Node000002"><a xlink:title=" ">
<path fill="none" stroke="#63b8ff" d="M948.98,-138.68C948.7,-119.65 951.25,-88.2 969,-69.5 978.22,-59.79 1048.38,-42.04 1099.83,-30.07"/>
<polygon fill="#63b8ff" stroke="#63b8ff" points="1100.39,-33.54 1109.34,-27.88 1098.81,-26.71 1100.39,-33.54"/>
</a>
</g>
</g>
<!-- Node6 -->
<g id="Node000006" class="node">
<title>Node6</title>
<g id="a_Node000006"><a xlink:title=" ">
<polygon fill="#e0e0e0" stroke="#999999" points="1072.5,-27.12 975.5,-27.12 975.5,-6.38 1072.5,-6.38 1072.5,-27.12"/>
<text text-anchor="middle" x="1024" y="-13.62" font-family="Helvetica,sans-Serif" font-size="10.00">boost/assert.hpp</text>
</a>
</g>
</g>
<!-- Node5&#45;&gt;Node6 -->
<g id="edge6_Node000005_Node000006" class="edge">
<title>Node5&#45;&gt;Node6</title>
<g id="a_edge6_Node000005_Node000006"><a xlink:title=" ">
<path fill="none" stroke="#63b8ff" d="M941.44,-138.56C933.19,-120.54 923.64,-91.11 936,-69.5 945.84,-52.3 963.87,-40.25 981.06,-32.14"/>
<polygon fill="#63b8ff" stroke="#63b8ff" points="982.4,-35.37 990.18,-28.19 979.61,-28.95 982.4,-35.37"/>
</a>
</g>
</g>
<!-- Node7 -->
<g id="Node000007" class="node">
<title>Node7</title>
<g id="a_Node000007"><a xlink:title=" ">
<polygon fill="#e0e0e0" stroke="#999999" points="1107.62,-96.62 978.38,-96.62 978.38,-75.88 1107.62,-75.88 1107.62,-96.62"/>
<text text-anchor="middle" x="1043" y="-83.12" font-family="Helvetica,sans-Serif" font-size="10.00">boost/static_assert.hpp</text>
</a>
</g>
</g>
<!-- Node5&#45;&gt;Node7 -->
<g id="edge7_Node000005_Node000007" class="edge">
<title>Node5&#45;&gt;Node7</title>
<g id="a_edge7_Node000005_Node000007"><a xlink:title=" ">
<path fill="none" stroke="#63b8ff" d="M972.04,-138.75C986.67,-128.14 1005.81,-114.24 1020.53,-103.56"/>
<polygon fill="#63b8ff" stroke="#63b8ff" points="1022.21,-106.67 1028.24,-97.96 1018.09,-101 1022.21,-106.67"/>
</a>
</g>
</g>
<!-- Node8 -->
<g id="Node000008" class="node">
<title>Node8</title>
<g id="a_Node000008"><a xlink:href="definitions_8hpp.html" target="_top" xlink:title="Definitions of types and some structures.">
<polygon fill="white" stroke="#666666" points="748.62,-103 619.38,-103 619.38,-69.5 748.62,-69.5 748.62,-103"/>
<text text-anchor="start" x="627.38" y="-89.5" font-family="Helvetica,sans-Serif" font-size="10.00">state&#45;observation/tools</text>
<text text-anchor="middle" x="684" y="-76.75" font-family="Helvetica,sans-Serif" font-size="10.00">/definitions.hpp</text>
</a>
</g>
</g>
<!-- Node5&#45;&gt;Node8 -->
<g id="edge9_Node000005_Node000008" class="edge">
<title>Node5&#45;&gt;Node8</title>
<g id="a_edge9_Node000005_Node000008"><a xlink:title=" ">
<path fill="none" stroke="#63b8ff" d="M886.29,-138.58C847.93,-128.85 798.91,-116.41 758.74,-106.21"/>
<polygon fill="#63b8ff" stroke="#63b8ff" points="759.67,-102.84 749.12,-103.78 757.95,-109.63 759.67,-102.84"/>
</a>
</g>
</g>
<!-- Node8&#45;&gt;Node2 -->
<g id="edge19_Node000008_Node000002" class="edge">
<title>Node8&#45;&gt;Node2</title>
<g id="a_edge19_Node000008_Node000002"><a xlink:title=" ">
<path fill="none" stroke="#63b8ff" d="M749,-77.1C853.38,-63.97 1049.99,-39.03 1082,-33.5 1088.3,-32.41 1094.89,-31.16 1101.41,-29.84"/>
<polygon fill="#63b8ff" stroke="#63b8ff" points="1101.71,-33.36 1110.79,-27.9 1100.28,-26.5 1101.71,-33.36"/>
</a>
</g>
</g>
<!-- Node8&#45;&gt;Node4 -->
<g id="edge11_Node000008_Node000004" class="edge">
<title>Node8&#45;&gt;Node4</title>
<g id="a_edge11_Node000008_Node000004"><a xlink:title=" ">
<path fill="none" stroke="#63b8ff" d="M618.92,-82.98C480.26,-77.63 159.82,-62.48 55,-33.5 53.4,-33.06 51.78,-32.53 50.16,-31.95"/>
<polygon fill="#63b8ff" stroke="#63b8ff" points="51.76,-28.83 41.19,-28.08 48.99,-35.26 51.76,-28.83"/>
</a>
</g>
</g>
<!-- Node8&#45;&gt;Node6 -->
<g id="edge14_Node000008_Node000006" class="edge">
<title>Node8&#45;&gt;Node6</title>
<g id="a_edge14_Node000008_Node000006"><a xlink:title=" ">
<path fill="none" stroke="#63b8ff" d="M748.96,-75.05C806.54,-65.62 892.76,-50.51 967,-33.5 971.04,-32.57 975.22,-31.55 979.41,-30.48"/>
<polygon fill="#63b8ff" stroke="#63b8ff" points="980.13,-33.91 988.91,-27.96 978.34,-27.14 980.13,-33.91"/>
</a>
</g>
</g>
<!-- Node9 -->
<g id="Node000009" class="node">
<title>Node9</title>
<g id="a_Node000009"><a xlink:title=" ">
<polygon fill="#e0e0e0" stroke="#999999" points="671.5,-27.12 622.5,-27.12 622.5,-6.38 671.5,-6.38 671.5,-27.12"/>
<text text-anchor="middle" x="647" y="-13.62" font-family="Helvetica,sans-Serif" font-size="10.00">chrono</text>
</a>
</g>
</g>
<!-- Node8&#45;&gt;Node9 -->
<g id="edge10_Node000008_Node000009" class="edge">
<title>Node8&#45;&gt;Node9</title>
<g id="a_edge10_Node000008_Node000009"><a xlink:title=" ">
<path fill="none" stroke="#63b8ff" d="M675.23,-69.25C670.02,-59.75 663.37,-47.62 657.83,-37.52"/>
<polygon fill="#63b8ff" stroke="#63b8ff" points="660.99,-35.99 653.11,-28.9 654.85,-39.35 660.99,-35.99"/>
</a>
</g>
</g>
<!-- Node10 -->
<g id="Node000010" class="node">
<title>Node10</title>
<g id="a_Node000010"><a xlink:title=" ">
<polygon fill="#e0e0e0" stroke="#999999" points="754,-27.12 690,-27.12 690,-6.38 754,-6.38 754,-27.12"/>
<text text-anchor="middle" x="722" y="-13.62" font-family="Helvetica,sans-Serif" font-size="10.00">stdexcept</text>
</a>
</g>
</g>
<!-- Node8&#45;&gt;Node10 -->
<g id="edge12_Node000008_Node000010" class="edge">
<title>Node8&#45;&gt;Node10</title>
<g id="a_edge12_Node000008_Node000010"><a xlink:title=" ">
<path fill="none" stroke="#63b8ff" d="M693.01,-69.25C698.36,-59.75 705.19,-47.62 710.87,-37.52"/>
<polygon fill="#63b8ff" stroke="#63b8ff" points="713.87,-39.32 715.73,-28.89 707.77,-35.89 713.87,-39.32"/>
</a>
</g>
</g>
<!-- Node11 -->
<g id="Node000011" class="node">
<title>Node11</title>
<g id="a_Node000011"><a xlink:title=" ">
<polygon fill="#e0e0e0" stroke="#999999" points="818.38,-27.12 771.62,-27.12 771.62,-6.38 818.38,-6.38 818.38,-27.12"/>
<text text-anchor="middle" x="795" y="-13.62" font-family="Helvetica,sans-Serif" font-size="10.00">vector</text>
</a>
</g>
</g>
<!-- Node8&#45;&gt;Node11 -->
<g id="edge13_Node000008_Node000011" class="edge">
<title>Node8&#45;&gt;Node11</title>
<g id="a_edge13_Node000008_Node000011"><a xlink:title=" ">
<path fill="none" stroke="#63b8ff" d="M710.59,-69.08C728.39,-58.26 751.69,-44.09 769.3,-33.38"/>
<polygon fill="#63b8ff" stroke="#63b8ff" points="770.91,-36.49 777.64,-28.31 767.28,-30.51 770.91,-36.49"/>
</a>
</g>
</g>
<!-- Node12 -->
<g id="Node000012" class="node">
<title>Node12</title>
<g id="a_Node000012"><a xlink:title=" ">
<polygon fill="#e0e0e0" stroke="#999999" points="957.88,-27.12 836.12,-27.12 836.12,-6.38 957.88,-6.38 957.88,-27.12"/>
<text text-anchor="middle" x="897" y="-13.62" font-family="Helvetica,sans-Serif" font-size="10.00">boost/timer/timer.hpp</text>
</a>
</g>
</g>
<!-- Node8&#45;&gt;Node12 -->
<g id="edge15_Node000008_Node000012" class="edge">
<title>Node8&#45;&gt;Node12</title>
<g id="a_edge15_Node000008_Node000012"><a xlink:title=" ">
<path fill="none" stroke="#63b8ff" d="M735.02,-69.08C771.78,-57.43 820.77,-41.91 855.22,-30.99"/>
<polygon fill="#63b8ff" stroke="#63b8ff" points="855.94,-34.43 864.41,-28.08 853.82,-27.76 855.94,-34.43"/>
</a>
</g>
</g>
<!-- Node13 -->
<g id="Node000013" class="node">
<title>Node13</title>
<g id="a_Node000013"><a xlink:title=" ">
<polygon fill="#e0e0e0" stroke="#999999" points="132.25,-27.12 63.75,-27.12 63.75,-6.38 132.25,-6.38 132.25,-27.12"/>
<text text-anchor="middle" x="98" y="-13.62" font-family="Helvetica,sans-Serif" font-size="10.00">Eigen/Core</text>
</a>
</g>
</g>
<!-- Node8&#45;&gt;Node13 -->
<g id="edge16_Node000008_Node000013" class="edge">
<title>Node8&#45;&gt;Node13</title>
<g id="a_edge16_Node000008_Node000013"><a xlink:title=" ">
<path fill="none" stroke="#63b8ff" d="M618.94,-84.24C516.37,-81.48 311.29,-71.26 142,-33.5 138.99,-32.83 135.9,-32.01 132.82,-31.1"/>
<polygon fill="#63b8ff" stroke="#63b8ff" points="133.92,-27.78 123.33,-27.99 131.74,-34.43 133.92,-27.78"/>
</a>
</g>
</g>
<!-- Node14 -->
<g id="Node000014" class="node">
<title>Node14</title>
<g id="a_Node000014"><a xlink:title=" ">
<polygon fill="#e0e0e0" stroke="#999999" points="245.38,-27.12 150.62,-27.12 150.62,-6.38 245.38,-6.38 245.38,-27.12"/>
<text text-anchor="middle" x="198" y="-13.62" font-family="Helvetica,sans-Serif" font-size="10.00">Eigen/Geometry</text>
</a>
</g>
</g>
<!-- Node8&#45;&gt;Node14 -->
<g id="edge17_Node000008_Node000014" class="edge">
<title>Node8&#45;&gt;Node14</title>
<g id="a_edge17_Node000008_Node000014"><a xlink:title=" ">
<path fill="none" stroke="#63b8ff" d="M619.04,-80.57C534.41,-73.77 382.12,-59.07 254,-33.5 249.67,-32.64 245.18,-31.61 240.72,-30.49"/>
<polygon fill="#63b8ff" stroke="#63b8ff" points="241.8,-27.16 231.24,-27.99 240.01,-33.93 241.8,-27.16"/>
</a>
</g>
</g>
<!-- Node15 -->
<g id="Node000015" class="node">
<title>Node15</title>
<g id="a_Node000015"><a xlink:title=" ">
<polygon fill="#e0e0e0" stroke="#999999" points="384.88,-33.5 263.12,-33.5 263.12,0 384.88,0 384.88,-33.5"/>
<text text-anchor="start" x="271.12" y="-20" font-family="Helvetica,sans-Serif" font-size="10.00">boost/math/constants</text>
<text text-anchor="middle" x="324" y="-7.25" font-family="Helvetica,sans-Serif" font-size="10.00">/constants.hpp</text>
</a>
</g>
</g>
<!-- Node8&#45;&gt;Node15 -->
<g id="edge18_Node000008_Node000015" class="edge">
<title>Node8&#45;&gt;Node15</title>
<g id="a_edge18_Node000008_Node000015"><a xlink:title=" ">
<path fill="none" stroke="#63b8ff" d="M619.06,-74.52C562.71,-65.01 478.68,-50.37 396.15,-33.89"/>
<polygon fill="#63b8ff" stroke="#63b8ff" points="397.03,-30.49 386.53,-31.95 395.65,-37.35 397.03,-30.49"/>
</a>
</g>
</g>
<!-- Node16 -->
<g id="Node000016" class="node">
<title>Node16</title>
<g id="a_Node000016"><a xlink:title=" ">
<polygon fill="#e0e0e0" stroke="#999999" points="457.12,-27.12 402.88,-27.12 402.88,-6.38 457.12,-6.38 457.12,-27.12"/>
<text text-anchor="middle" x="430" y="-13.62" font-family="Helvetica,sans-Serif" font-size="10.00">fstream</text>
</a>
</g>
</g>
<!-- Node8&#45;&gt;Node16 -->
<g id="edge20_Node000008_Node000016" class="edge">
<title>Node8&#45;&gt;Node16</title>
<g id="a_edge20_Node000008_Node000016"><a xlink:title=" ">
<path fill="none" stroke="#63b8ff" d="M619.24,-73.06C575.42,-64.03 516.54,-50.4 466,-33.5 464.42,-32.97 462.82,-32.4 461.21,-31.8"/>
<polygon fill="#63b8ff" stroke="#63b8ff" points="462.68,-28.62 452.09,-28.12 460.06,-35.11 462.68,-28.62"/>
</a>
</g>
</g>
<!-- Node17 -->
<g id="Node000017" class="node">
<title>Node17</title>
<g id="a_Node000017"><a xlink:title=" ">
<polygon fill="#e0e0e0" stroke="#999999" points="604.62,-33.5 475.38,-33.5 475.38,0 604.62,0 604.62,-33.5"/>
<text text-anchor="start" x="483.38" y="-20" font-family="Helvetica,sans-Serif" font-size="10.00">state&#45;observation/tools</text>
<text text-anchor="middle" x="540" y="-7.25" font-family="Helvetica,sans-Serif" font-size="10.00">/definitions.hxx</text>
</a>
</g>
</g>
<!-- Node8&#45;&gt;Node17 -->
<g id="edge21_Node000008_Node000017" class="edge">
<title>Node8&#45;&gt;Node17</title>
<g id="a_edge21_Node000008_Node000017"><a xlink:title=" ">
<path fill="none" stroke="#63b8ff" d="M649.51,-69.08C630.01,-59.94 605.41,-48.41 584.47,-38.59"/>
<polygon fill="#63b8ff" stroke="#63b8ff" points="586.12,-35.5 575.58,-34.43 583.15,-41.84 586.12,-35.5"/>
</a>
</g>
</g>
<!-- Node18&#45;&gt;Node2 -->
<g id="edge23_Node000018_Node000002" class="edge">
<title>Node18&#45;&gt;Node2</title>
<g id="a_edge23_Node000018_Node000002"><a xlink:title=" ">
<path fill="none" stroke="#63b8ff" d="M806.43,-138.63C839.36,-119.85 896.69,-88.92 949,-69.5 976.46,-59.31 1049.15,-41.84 1100.37,-30.05"/>
<polygon fill="#63b8ff" stroke="#63b8ff" points="1100.83,-33.53 1109.8,-27.89 1099.27,-26.71 1100.83,-33.53"/>
</a>
</g>
</g>
<!-- Node18&#45;&gt;Node8 -->
<g id="edge24_Node000018_Node000008" class="edge">
<title>Node18&#45;&gt;Node8</title>
<g id="a_edge24_Node000018_Node000008"><a xlink:title=" ">
<path fill="none" stroke="#63b8ff" d="M756.49,-138.75C744.39,-130.16 729.27,-119.41 715.97,-109.97"/>
<polygon fill="#63b8ff" stroke="#63b8ff" points="718.09,-107.18 707.92,-104.24 714.04,-112.89 718.09,-107.18"/>
</a>
</g>
</g>
</g>
</svg>
