<?xml version="1.0" encoding="UTF-8" standalone="no"?>
<!DOCTYPE svg PUBLIC "-//W3C//DTD SVG 1.1//EN"
 "http://www.w3.org/Graphics/SVG/1.1/DTD/svg11.dtd">
<!-- Generated by graphviz version 12.2.1 (0)
 -->
<!-- Title: /build/source/include/state&#45;observation/observer/linear&#45;kalman&#45;filter.hpp Pages: 1 -->
<svg width="1229pt" height="402pt"
 viewBox="0.00 0.00 1229.25 401.75" xmlns="http://www.w3.org/2000/svg" xmlns:xlink="http://www.w3.org/1999/xlink">
<g id="graph0" class="graph" transform="scale(1 1) rotate(0) translate(4 397.75)">
<title>/build/source/include/state&#45;observation/observer/linear&#45;kalman&#45;filter.hpp</title>
<!-- Node1 -->
<g id="Node000001" class="node">
<title>Node1</title>
<g id="a_Node000001"><a xlink:title="Defines the class of a Linear Kalman filter.">
<polygon fill="#999999" stroke="#666666" points="154.12,-393.75 3.12,-393.75 3.12,-347.5 154.12,-347.5 154.12,-393.75"/>
<text text-anchor="start" x="11.12" y="-380.25" font-family="Helvetica,sans-Serif" font-size="10.00">/build/source/include</text>
<text text-anchor="start" x="11.12" y="-367.5" font-family="Helvetica,sans-Serif" font-size="10.00">/state&#45;observation/observer</text>
<text text-anchor="middle" x="78.62" y="-354.75" font-family="Helvetica,sans-Serif" font-size="10.00">/linear&#45;kalman&#45;filter.hpp</text>
</a>
</g>
</g>
<!-- Node2 -->
<g id="Node000002" class="node">
<title>Node2</title>
<g id="a_Node000002"><a xlink:title=" ">
<polygon fill="#e0e0e0" stroke="#999999" points="129.25,-27.12 0,-27.12 0,-6.38 129.25,-6.38 129.25,-27.12"/>
<text text-anchor="middle" x="64.62" y="-13.62" font-family="Helvetica,sans-Serif" font-size="10.00">state&#45;observation/api.h</text>
</a>
</g>
</g>
<!-- Node1&#45;&gt;Node2 -->
<g id="edge1_Node000001_Node000002" class="edge">
<title>Node1&#45;&gt;Node2</title>
<g id="a_edge1_Node000001_Node000002"><a xlink:title=" ">
<path fill="none" stroke="#63b8ff" d="M65.23,-347.16C50.11,-319.65 27.62,-271.16 27.62,-226.25 27.62,-226.25 27.62,-226.25 27.62,-154.75 27.62,-112.02 44.61,-64.31 55.56,-37.97"/>
<polygon fill="#63b8ff" stroke="#63b8ff" points="58.74,-39.43 59.49,-28.87 52.32,-36.66 58.74,-39.43"/>
</a>
</g>
</g>
<!-- Node3 -->
<g id="Node000003" class="node">
<title>Node3</title>
<g id="a_Node000003"><a xlink:href="kalman-filter-base_8hpp.html" target="_top" xlink:title="Defines the base class of a Kalman filter.">
<polygon fill="white" stroke="#666666" points="222.62,-311.5 74.62,-311.5 74.62,-278 222.62,-278 222.62,-311.5"/>
<text text-anchor="start" x="82.62" y="-298" font-family="Helvetica,sans-Serif" font-size="10.00">state&#45;observation/observer</text>
<text text-anchor="middle" x="148.62" y="-285.25" font-family="Helvetica,sans-Serif" font-size="10.00">/kalman&#45;filter&#45;base.hpp</text>
</a>
</g>
</g>
<!-- Node1&#45;&gt;Node3 -->
<g id="edge2_Node000001_Node000003" class="edge">
<title>Node1&#45;&gt;Node3</title>
<g id="a_edge2_Node000001_Node000003"><a xlink:title=" ">
<path fill="none" stroke="#63b8ff" d="M100.01,-347.06C108.09,-338.53 117.32,-328.79 125.55,-320.1"/>
<polygon fill="#63b8ff" stroke="#63b8ff" points="127.99,-322.62 132.32,-312.95 122.91,-317.8 127.99,-322.62"/>
</a>
</g>
</g>
<!-- Node3&#45;&gt;Node2 -->
<g id="edge3_Node000003_Node000002" class="edge">
<title>Node3&#45;&gt;Node2</title>
<g id="a_edge3_Node000003_Node000002"><a xlink:title=" ">
<path fill="none" stroke="#63b8ff" d="M119.47,-277.59C106.54,-268.83 92.49,-256.75 84.62,-242 48.87,-174.94 55.89,-80.4 61.33,-38.79"/>
<polygon fill="#63b8ff" stroke="#63b8ff" points="64.79,-39.35 62.74,-28.96 57.86,-38.36 64.79,-39.35"/>
</a>
</g>
</g>
<!-- Node4 -->
<g id="Node000004" class="node">
<title>Node4</title>
<g id="a_Node000004"><a xlink:href="zero-delay-observer_8hpp.html" target="_top" xlink:title="Defines the base class of online zero delay observers. Zero delay observers are the classical state o...">
<polygon fill="white" stroke="#666666" points="241.62,-242 93.62,-242 93.62,-208.5 241.62,-208.5 241.62,-242"/>
<text text-anchor="start" x="101.62" y="-228.5" font-family="Helvetica,sans-Serif" font-size="10.00">state&#45;observation/observer</text>
<text text-anchor="middle" x="167.62" y="-215.75" font-family="Helvetica,sans-Serif" font-size="10.00">/zero&#45;delay&#45;observer.hpp</text>
</a>
</g>
</g>
<!-- Node3&#45;&gt;Node4 -->
<g id="edge4_Node000003_Node000004" class="edge">
<title>Node3&#45;&gt;Node4</title>
<g id="a_edge4_Node000003_Node000004"><a xlink:title=" ">
<path fill="none" stroke="#63b8ff" d="M153.13,-277.75C155.21,-270.36 157.74,-261.37 160.1,-252.98"/>
<polygon fill="#63b8ff" stroke="#63b8ff" points="163.4,-254.16 162.74,-243.59 156.67,-252.27 163.4,-254.16"/>
</a>
</g>
</g>
<!-- Node19 -->
<g id="Node000019" class="node">
<title>Node19</title>
<g id="a_Node000019"><a xlink:href="state-vector-arithmetics_8hpp_source.html" target="_top" xlink:title=" ">
<polygon fill="white" stroke="#666666" points="496.5,-172.5 338.75,-172.5 338.75,-139 496.5,-139 496.5,-172.5"/>
<text text-anchor="start" x="346.75" y="-159" font-family="Helvetica,sans-Serif" font-size="10.00">state&#45;observation/tools</text>
<text text-anchor="middle" x="417.62" y="-146.25" font-family="Helvetica,sans-Serif" font-size="10.00">/state&#45;vector&#45;arithmetics.hpp</text>
</a>
</g>
</g>
<!-- Node3&#45;&gt;Node19 -->
<g id="edge24_Node000003_Node000019" class="edge">
<title>Node3&#45;&gt;Node19</title>
<g id="a_edge24_Node000003_Node000019"><a xlink:title=" ">
<path fill="none" stroke="#63b8ff" d="M180.34,-277.69C200.48,-267.48 227.09,-253.98 250.62,-242 293.35,-220.26 342.18,-195.32 375.96,-178.06"/>
<polygon fill="#63b8ff" stroke="#63b8ff" points="377.27,-181.31 384.58,-173.65 374.09,-175.08 377.27,-181.31"/>
</a>
</g>
</g>
<!-- Node4&#45;&gt;Node2 -->
<g id="edge6_Node000004_Node000002" class="edge">
<title>Node4&#45;&gt;Node2</title>
<g id="a_edge6_Node000004_Node000002"><a xlink:title=" ">
<path fill="none" stroke="#63b8ff" d="M159.54,-208.05C140.86,-170.58 94.71,-78.08 74.44,-37.44"/>
<polygon fill="#63b8ff" stroke="#63b8ff" points="77.62,-35.97 70.03,-28.58 71.36,-39.09 77.62,-35.97"/>
</a>
</g>
</g>
<!-- Node5 -->
<g id="Node000005" class="node">
<title>Node5</title>
<g id="a_Node000005"><a xlink:title=" ">
<polygon fill="#e0e0e0" stroke="#999999" points="193.62,-27.12 147.62,-27.12 147.62,-6.38 193.62,-6.38 193.62,-27.12"/>
<text text-anchor="middle" x="170.62" y="-13.62" font-family="Helvetica,sans-Serif" font-size="10.00">deque</text>
</a>
</g>
</g>
<!-- Node4&#45;&gt;Node5 -->
<g id="edge5_Node000004_Node000005" class="edge">
<title>Node4&#45;&gt;Node5</title>
<g id="a_edge5_Node000004_Node000005"><a xlink:title=" ">
<path fill="none" stroke="#63b8ff" d="M166.08,-208.41C165.16,-198.18 164.09,-184.57 163.62,-172.5 161.78,-124.74 165.87,-68.72 168.54,-38.92"/>
<polygon fill="#63b8ff" stroke="#63b8ff" points="172.02,-39.32 169.47,-29.03 165.05,-38.66 172.02,-39.32"/>
</a>
</g>
</g>
<!-- Node6 -->
<g id="Node000006" class="node">
<title>Node6</title>
<g id="a_Node000006"><a xlink:href="observer-base_8hpp.html" target="_top" xlink:title="Defines the base class of a state observer. The observer is destinated to any dynamical system with a...">
<polygon fill="white" stroke="#666666" points="320.62,-172.5 172.62,-172.5 172.62,-139 320.62,-139 320.62,-172.5"/>
<text text-anchor="start" x="180.62" y="-159" font-family="Helvetica,sans-Serif" font-size="10.00">state&#45;observation/observer</text>
<text text-anchor="middle" x="246.62" y="-146.25" font-family="Helvetica,sans-Serif" font-size="10.00">/observer&#45;base.hpp</text>
</a>
</g>
</g>
<!-- Node4&#45;&gt;Node6 -->
<g id="edge7_Node000004_Node000006" class="edge">
<title>Node4&#45;&gt;Node6</title>
<g id="a_edge7_Node000004_Node000006"><a xlink:title=" ">
<path fill="none" stroke="#63b8ff" d="M186.35,-208.25C196.11,-199.91 208.25,-189.54 219.07,-180.3"/>
<polygon fill="#63b8ff" stroke="#63b8ff" points="221.28,-183.01 226.61,-173.85 216.74,-177.68 221.28,-183.01"/>
</a>
</g>
</g>
<!-- Node6&#45;&gt;Node2 -->
<g id="edge10_Node000006_Node000002" class="edge">
<title>Node6&#45;&gt;Node2</title>
<g id="a_edge10_Node000006_Node000002"><a xlink:title=" ">
<path fill="none" stroke="#63b8ff" d="M225.39,-138.77C190.59,-112.57 121.78,-60.77 86.54,-34.25"/>
<polygon fill="#63b8ff" stroke="#63b8ff" points="88.85,-31.61 78.76,-28.39 84.64,-37.2 88.85,-31.61"/>
</a>
</g>
</g>
<!-- Node7 -->
<g id="Node000007" class="node">
<title>Node7</title>
<g id="a_Node000007"><a xlink:title=" ">
<polygon fill="#e0e0e0" stroke="#999999" points="309.12,-27.12 212.12,-27.12 212.12,-6.38 309.12,-6.38 309.12,-27.12"/>
<text text-anchor="middle" x="260.62" y="-13.62" font-family="Helvetica,sans-Serif" font-size="10.00">boost/assert.hpp</text>
</a>
</g>
</g>
<!-- Node6&#45;&gt;Node7 -->
<g id="edge8_Node000006_Node000007" class="edge">
<title>Node6&#45;&gt;Node7</title>
<g id="a_edge8_Node000006_Node000007"><a xlink:title=" ">
<path fill="none" stroke="#63b8ff" d="M242.69,-138.58C239.09,-121.32 234.99,-93.26 239.62,-69.5 241.76,-58.54 246.23,-46.97 250.49,-37.55"/>
<polygon fill="#63b8ff" stroke="#63b8ff" points="253.58,-39.21 254.77,-28.69 247.27,-36.17 253.58,-39.21"/>
</a>
</g>
</g>
<!-- Node8 -->
<g id="Node000008" class="node">
<title>Node8</title>
<g id="a_Node000008"><a xlink:title=" ">
<polygon fill="#e0e0e0" stroke="#999999" points="378.25,-96.62 249,-96.62 249,-75.88 378.25,-75.88 378.25,-96.62"/>
<text text-anchor="middle" x="313.62" y="-83.12" font-family="Helvetica,sans-Serif" font-size="10.00">boost/static_assert.hpp</text>
</a>
</g>
</g>
<!-- Node6&#45;&gt;Node8 -->
<g id="edge9_Node000006_Node000008" class="edge">
<title>Node6&#45;&gt;Node8</title>
<g id="a_edge9_Node000006_Node000008"><a xlink:title=" ">
<path fill="none" stroke="#63b8ff" d="M262.5,-138.75C272.54,-128.64 285.53,-115.56 295.9,-105.11"/>
<polygon fill="#63b8ff" stroke="#63b8ff" points="298.25,-107.71 302.81,-98.15 293.28,-102.78 298.25,-107.71"/>
</a>
</g>
</g>
<!-- Node9 -->
<g id="Node000009" class="node">
<title>Node9</title>
<g id="a_Node000009"><a xlink:href="definitions_8hpp.html" target="_top" xlink:title="Definitions of types and some structures.">
<polygon fill="white" stroke="#666666" points="564.25,-103 435,-103 435,-69.5 564.25,-69.5 564.25,-103"/>
<text text-anchor="start" x="443" y="-89.5" font-family="Helvetica,sans-Serif" font-size="10.00">state&#45;observation/tools</text>
<text text-anchor="middle" x="499.62" y="-76.75" font-family="Helvetica,sans-Serif" font-size="10.00">/definitions.hpp</text>
</a>
</g>
</g>
<!-- Node6&#45;&gt;Node9 -->
<g id="edge11_Node000006_Node000009" class="edge">
<title>Node6&#45;&gt;Node9</title>
<g id="a_edge11_Node000006_Node000009"><a xlink:title=" ">
<path fill="none" stroke="#63b8ff" d="M307.22,-138.58C343.55,-128.89 389.93,-116.52 428.05,-106.35"/>
<polygon fill="#63b8ff" stroke="#63b8ff" points="428.86,-109.75 437.62,-103.79 427.06,-102.99 428.86,-109.75"/>
</a>
</g>
</g>
<!-- Node9&#45;&gt;Node2 -->
<g id="edge21_Node000009_Node000002" class="edge">
<title>Node9&#45;&gt;Node2</title>
<g id="a_edge21_Node000009_Node000002"><a xlink:title=" ">
<path fill="none" stroke="#63b8ff" d="M434.59,-71.91C429.87,-71.06 425.18,-70.24 420.62,-69.5 295.93,-49.14 263.19,-54.67 138.62,-33.5 132.24,-32.41 125.56,-31.16 118.95,-29.85"/>
<polygon fill="#63b8ff" stroke="#63b8ff" points="119.92,-26.48 109.43,-27.9 118.52,-33.33 119.92,-26.48"/>
</a>
</g>
</g>
<!-- Node9&#45;&gt;Node5 -->
<g id="edge13_Node000009_Node000005" class="edge">
<title>Node9&#45;&gt;Node5</title>
<g id="a_edge13_Node000009_Node000005"><a xlink:title=" ">
<path fill="none" stroke="#63b8ff" d="M434.56,-72.1C429.85,-71.21 425.17,-70.33 420.62,-69.5 324.45,-51.94 296.88,-62.84 203.62,-33.5 202.07,-33.01 200.5,-32.46 198.93,-31.87"/>
<polygon fill="#63b8ff" stroke="#63b8ff" points="200.72,-28.83 190.15,-28.12 197.97,-35.27 200.72,-28.83"/>
</a>
</g>
</g>
<!-- Node9&#45;&gt;Node7 -->
<g id="edge16_Node000009_Node000007" class="edge">
<title>Node9&#45;&gt;Node7</title>
<g id="a_edge16_Node000009_Node000007"><a xlink:title=" ">
<path fill="none" stroke="#63b8ff" d="M442.38,-69.08C400.77,-57.33 345.2,-41.64 306.51,-30.71"/>
<polygon fill="#63b8ff" stroke="#63b8ff" points="307.6,-27.38 297.03,-28.03 305.7,-34.12 307.6,-27.38"/>
</a>
</g>
</g>
<!-- Node10 -->
<g id="Node000010" class="node">
<title>Node10</title>
<g id="a_Node000010"><a xlink:title=" ">
<polygon fill="#e0e0e0" stroke="#999999" points="376.12,-27.12 327.12,-27.12 327.12,-6.38 376.12,-6.38 376.12,-27.12"/>
<text text-anchor="middle" x="351.62" y="-13.62" font-family="Helvetica,sans-Serif" font-size="10.00">chrono</text>
</a>
</g>
</g>
<!-- Node9&#45;&gt;Node10 -->
<g id="edge12_Node000009_Node000010" class="edge">
<title>Node9&#45;&gt;Node10</title>
<g id="a_edge12_Node000009_Node000010"><a xlink:title=" ">
<path fill="none" stroke="#63b8ff" d="M463.65,-69.01C441.2,-58.84 411.7,-45.46 385.62,-33.5 384.85,-33.14 384.06,-32.78 383.27,-32.42"/>
<polygon fill="#63b8ff" stroke="#63b8ff" points="384.75,-29.25 374.21,-28.24 381.82,-35.61 384.75,-29.25"/>
</a>
</g>
</g>
<!-- Node11 -->
<g id="Node000011" class="node">
<title>Node11</title>
<g id="a_Node000011"><a xlink:title=" ">
<polygon fill="#e0e0e0" stroke="#999999" points="458.62,-27.12 394.62,-27.12 394.62,-6.38 458.62,-6.38 458.62,-27.12"/>
<text text-anchor="middle" x="426.62" y="-13.62" font-family="Helvetica,sans-Serif" font-size="10.00">stdexcept</text>
</a>
</g>
</g>
<!-- Node9&#45;&gt;Node11 -->
<g id="edge14_Node000009_Node000011" class="edge">
<title>Node9&#45;&gt;Node11</title>
<g id="a_edge14_Node000009_Node000011"><a xlink:title=" ">
<path fill="none" stroke="#63b8ff" d="M482.33,-69.25C471.28,-59.04 456.96,-45.8 445.6,-35.29"/>
<polygon fill="#63b8ff" stroke="#63b8ff" points="448.08,-32.82 438.36,-28.6 443.32,-37.96 448.08,-32.82"/>
</a>
</g>
</g>
<!-- Node12 -->
<g id="Node000012" class="node">
<title>Node12</title>
<g id="a_Node000012"><a xlink:title=" ">
<polygon fill="#e0e0e0" stroke="#999999" points="523,-27.12 476.25,-27.12 476.25,-6.38 523,-6.38 523,-27.12"/>
<text text-anchor="middle" x="499.62" y="-13.62" font-family="Helvetica,sans-Serif" font-size="10.00">vector</text>
</a>
</g>
</g>
<!-- Node9&#45;&gt;Node12 -->
<g id="edge15_Node000009_Node000012" class="edge">
<title>Node9&#45;&gt;Node12</title>
<g id="a_edge15_Node000009_Node000012"><a xlink:title=" ">
<path fill="none" stroke="#63b8ff" d="M499.62,-69.25C499.62,-60.15 499.62,-48.64 499.62,-38.82"/>
<polygon fill="#63b8ff" stroke="#63b8ff" points="503.13,-39.09 499.63,-29.09 496.13,-39.09 503.13,-39.09"/>
</a>
</g>
</g>
<!-- Node13 -->
<g id="Node000013" class="node">
<title>Node13</title>
<g id="a_Node000013"><a xlink:title=" ">
<polygon fill="#e0e0e0" stroke="#999999" points="662.5,-27.12 540.75,-27.12 540.75,-6.38 662.5,-6.38 662.5,-27.12"/>
<text text-anchor="middle" x="601.62" y="-13.62" font-family="Helvetica,sans-Serif" font-size="10.00">boost/timer/timer.hpp</text>
</a>
</g>
</g>
<!-- Node9&#45;&gt;Node13 -->
<g id="edge17_Node000009_Node000013" class="edge">
<title>Node9&#45;&gt;Node13</title>
<g id="a_edge17_Node000009_Node000013"><a xlink:title=" ">
<path fill="none" stroke="#63b8ff" d="M524.06,-69.08C540.26,-58.36 561.43,-44.35 577.56,-33.68"/>
<polygon fill="#63b8ff" stroke="#63b8ff" points="579.19,-36.79 585.6,-28.36 575.33,-30.96 579.19,-36.79"/>
</a>
</g>
</g>
<!-- Node14 -->
<g id="Node000014" class="node">
<title>Node14</title>
<g id="a_Node000014"><a xlink:title=" ">
<polygon fill="#e0e0e0" stroke="#999999" points="748.88,-27.12 680.38,-27.12 680.38,-6.38 748.88,-6.38 748.88,-27.12"/>
<text text-anchor="middle" x="714.62" y="-13.62" font-family="Helvetica,sans-Serif" font-size="10.00">Eigen/Core</text>
</a>
</g>
</g>
<!-- Node9&#45;&gt;Node14 -->
<g id="edge18_Node000009_Node000014" class="edge">
<title>Node9&#45;&gt;Node14</title>
<g id="a_edge18_Node000009_Node000014"><a xlink:title=" ">
<path fill="none" stroke="#63b8ff" d="M556.44,-69.07C590.09,-59.26 633.46,-46.22 671.62,-33.5 673.72,-32.8 675.86,-32.07 678.02,-31.32"/>
<polygon fill="#63b8ff" stroke="#63b8ff" points="679.11,-34.65 687.36,-28 676.77,-28.05 679.11,-34.65"/>
</a>
</g>
</g>
<!-- Node15 -->
<g id="Node000015" class="node">
<title>Node15</title>
<g id="a_Node000015"><a xlink:title=" ">
<polygon fill="#e0e0e0" stroke="#999999" points="862,-27.12 767.25,-27.12 767.25,-6.38 862,-6.38 862,-27.12"/>
<text text-anchor="middle" x="814.62" y="-13.62" font-family="Helvetica,sans-Serif" font-size="10.00">Eigen/Geometry</text>
</a>
</g>
</g>
<!-- Node9&#45;&gt;Node15 -->
<g id="edge19_Node000009_Node000015" class="edge">
<title>Node9&#45;&gt;Node15</title>
<g id="a_edge19_Node000009_Node000015"><a xlink:title=" ">
<path fill="none" stroke="#63b8ff" d="M564.58,-73.55C616.92,-63.81 692.3,-49.06 757.62,-33.5 761.6,-32.55 765.73,-31.52 769.85,-30.45"/>
<polygon fill="#63b8ff" stroke="#63b8ff" points="770.45,-33.91 779.21,-27.95 768.64,-27.15 770.45,-33.91"/>
</a>
</g>
</g>
<!-- Node16 -->
<g id="Node000016" class="node">
<title>Node16</title>
<g id="a_Node000016"><a xlink:title=" ">
<polygon fill="#e0e0e0" stroke="#999999" points="1001.5,-33.5 879.75,-33.5 879.75,0 1001.5,0 1001.5,-33.5"/>
<text text-anchor="start" x="887.75" y="-20" font-family="Helvetica,sans-Serif" font-size="10.00">boost/math/constants</text>
<text text-anchor="middle" x="940.62" y="-7.25" font-family="Helvetica,sans-Serif" font-size="10.00">/constants.hpp</text>
</a>
</g>
</g>
<!-- Node9&#45;&gt;Node16 -->
<g id="edge20_Node000009_Node000016" class="edge">
<title>Node9&#45;&gt;Node16</title>
<g id="a_edge20_Node000009_Node000016"><a xlink:title=" ">
<path fill="none" stroke="#63b8ff" d="M564.56,-77.84C636.43,-69.28 755.92,-53.94 868.39,-33.82"/>
<polygon fill="#63b8ff" stroke="#63b8ff" points="868.89,-37.28 878.11,-32.06 867.65,-30.4 868.89,-37.28"/>
</a>
</g>
</g>
<!-- Node17 -->
<g id="Node000017" class="node">
<title>Node17</title>
<g id="a_Node000017"><a xlink:title=" ">
<polygon fill="#e0e0e0" stroke="#999999" points="1073.75,-27.12 1019.5,-27.12 1019.5,-6.38 1073.75,-6.38 1073.75,-27.12"/>
<text text-anchor="middle" x="1046.62" y="-13.62" font-family="Helvetica,sans-Serif" font-size="10.00">fstream</text>
</a>
</g>
</g>
<!-- Node9&#45;&gt;Node17 -->
<g id="edge22_Node000009_Node000017" class="edge">
<title>Node9&#45;&gt;Node17</title>
<g id="a_edge22_Node000009_Node000017"><a xlink:title=" ">
<path fill="none" stroke="#63b8ff" d="M564.49,-85.09C662.66,-83.43 854.08,-74.59 1010.62,-33.5 1012.62,-32.98 1014.64,-32.36 1016.66,-31.67"/>
<polygon fill="#63b8ff" stroke="#63b8ff" points="1017.76,-35 1025.81,-28.11 1015.22,-28.48 1017.76,-35"/>
</a>
</g>
</g>
<!-- Node18 -->
<g id="Node000018" class="node">
<title>Node18</title>
<g id="a_Node000018"><a xlink:title=" ">
<polygon fill="#e0e0e0" stroke="#999999" points="1221.25,-33.5 1092,-33.5 1092,0 1221.25,0 1221.25,-33.5"/>
<text text-anchor="start" x="1100" y="-20" font-family="Helvetica,sans-Serif" font-size="10.00">state&#45;observation/tools</text>
<text text-anchor="middle" x="1156.62" y="-7.25" font-family="Helvetica,sans-Serif" font-size="10.00">/definitions.hxx</text>
</a>
</g>
</g>
<!-- Node9&#45;&gt;Node18 -->
<g id="edge23_Node000009_Node000018" class="edge">
<title>Node9&#45;&gt;Node18</title>
<g id="a_edge23_Node000009_Node000018"><a xlink:title=" ">
<path fill="none" stroke="#63b8ff" d="M564.63,-82.06C670.59,-76.29 887.27,-62.13 1080.51,-33.7"/>
<polygon fill="#63b8ff" stroke="#63b8ff" points="1080.86,-37.18 1090.24,-32.25 1079.83,-30.26 1080.86,-37.18"/>
</a>
</g>
</g>
<!-- Node19&#45;&gt;Node2 -->
<g id="edge25_Node000019_Node000002" class="edge">
<title>Node19&#45;&gt;Node2</title>
<g id="a_edge25_Node000019_Node000002"><a xlink:title=" ">
<path fill="none" stroke="#63b8ff" d="M416.79,-138.77C414.85,-119.23 408.47,-86.64 387.62,-69.5 344.43,-34 193.66,-43.32 138.62,-33.5 132.33,-32.38 125.75,-31.11 119.23,-29.8"/>
<polygon fill="#63b8ff" stroke="#63b8ff" points="120.34,-26.45 109.84,-27.86 118.93,-33.31 120.34,-26.45"/>
</a>
</g>
</g>
<!-- Node19&#45;&gt;Node9 -->
<g id="edge26_Node000019_Node000009" class="edge">
<title>Node19&#45;&gt;Node9</title>
<g id="a_edge26_Node000019_Node000009"><a xlink:title=" ">
<path fill="none" stroke="#63b8ff" d="M437.06,-138.75C447.3,-130.32 460.05,-119.83 471.36,-110.52"/>
<polygon fill="#63b8ff" stroke="#63b8ff" points="473.38,-113.39 478.88,-104.33 468.93,-107.98 473.38,-113.39"/>
</a>
</g>
</g>
</g>
</svg>
