<?xml version="1.0" encoding="UTF-8" standalone="no"?>
<!DOCTYPE svg PUBLIC "-//W3C//DTD SVG 1.1//EN"
 "http://www.w3.org/Graphics/SVG/1.1/DTD/svg11.dtd">
<!-- Generated by graphviz version 12.2.1 (0)
 -->
<!-- Title: /build/source/include/state&#45;observation/observer/linear&#45;kalman&#45;filter.hpp Pages: 1 -->
<svg width="551pt" height="149pt"
 viewBox="0.00 0.00 551.25 149.25" xmlns="http://www.w3.org/2000/svg" xmlns:xlink="http://www.w3.org/1999/xlink">
<g id="graph0" class="graph" transform="scale(1 1) rotate(0) translate(4 145.25)">
<title>/build/source/include/state&#45;observation/observer/linear&#45;kalman&#45;filter.hpp</title>
<!-- Node1 -->
<g id="Node000001" class="node">
<title>Node1</title>
<g id="a_Node000001"><a xlink:title="Defines the class of a Linear Kalman filter.">
<polygon fill="#999999" stroke="#666666" points="366,-141.25 215,-141.25 215,-95 366,-95 366,-141.25"/>
<text text-anchor="start" x="223" y="-127.75" font-family="Helvetica,sans-Serif" font-size="10.00">/build/source/include</text>
<text text-anchor="start" x="223" y="-115" font-family="Helvetica,sans-Serif" font-size="10.00">/state&#45;observation/observer</text>
<text text-anchor="middle" x="290.5" y="-102.25" font-family="Helvetica,sans-Serif" font-size="10.00">/linear&#45;kalman&#45;filter.hpp</text>
</a>
</g>
</g>
<!-- Node2 -->
<g id="Node000002" class="node">
<title>Node2</title>
<g id="a_Node000002"><a xlink:href="lipm-dcm-estimator_8hpp.html" target="_top" xlink:title=" ">
<polygon fill="white" stroke="#666666" points="193,-52.62 0,-52.62 0,-6.38 193,-6.38 193,-52.62"/>
<text text-anchor="start" x="8" y="-39.12" font-family="Helvetica,sans-Serif" font-size="10.00">/build/source/include</text>
<text text-anchor="start" x="8" y="-26.38" font-family="Helvetica,sans-Serif" font-size="10.00">/state&#45;observation/dynamics</text>
<text text-anchor="middle" x="96.5" y="-13.62" font-family="Helvetica,sans-Serif" font-size="10.00">&#45;estimators/lipm&#45;dcm&#45;estimator.hpp</text>
</a>
</g>
</g>
<!-- Node1&#45;&gt;Node2 -->
<g id="edge1_Node000001_Node000002" class="edge">
<title>Node1&#45;&gt;Node2</title>
<g id="a_edge1_Node000001_Node000002"><a xlink:title=" ">
<path fill="none" stroke="#63b8ff" d="M229.7,-89.98C203.13,-78.11 172.33,-64.36 147.05,-53.07"/>
<polygon fill="#63b8ff" stroke="#63b8ff" points="228.1,-93.09 238.65,-93.97 230.95,-86.7 228.1,-93.09"/>
</a>
</g>
</g>
<!-- Node3 -->
<g id="Node000003" class="node">
<title>Node3</title>
<g id="a_Node000003"><a xlink:href="unidim-lipm-dcm-estimator_8hpp.html" target="_top" xlink:title=" ">
<polygon fill="white" stroke="#666666" points="370.12,-59 210.88,-59 210.88,0 370.12,0 370.12,-59"/>
<text text-anchor="start" x="218.88" y="-45.5" font-family="Helvetica,sans-Serif" font-size="10.00">/build/source/include</text>
<text text-anchor="start" x="218.88" y="-32.75" font-family="Helvetica,sans-Serif" font-size="10.00">/state&#45;observation/dynamics</text>
<text text-anchor="start" x="218.88" y="-20" font-family="Helvetica,sans-Serif" font-size="10.00">&#45;estimators/unidim&#45;lipm&#45;dcm</text>
<text text-anchor="middle" x="290.5" y="-7.25" font-family="Helvetica,sans-Serif" font-size="10.00">&#45;estimator.hpp</text>
</a>
</g>
</g>
<!-- Node1&#45;&gt;Node3 -->
<g id="edge2_Node000001_Node000003" class="edge">
<title>Node1&#45;&gt;Node3</title>
<g id="a_edge2_Node000001_Node000003"><a xlink:title=" ">
<path fill="none" stroke="#63b8ff" d="M290.5,-83.55C290.5,-75.54 290.5,-67.05 290.5,-59.28"/>
<polygon fill="#63b8ff" stroke="#63b8ff" points="287,-83.3 290.5,-93.3 294,-83.3 287,-83.3"/>
</a>
</g>
</g>
<!-- Node4 -->
<g id="Node000004" class="node">
<title>Node4</title>
<g id="a_Node000004"><a xlink:href="zmp-tracking-gain-estimator_8hpp_source.html" target="_top" xlink:title=" ">
<polygon fill="white" stroke="#666666" points="543.25,-59 387.75,-59 387.75,0 543.25,0 543.25,-59"/>
<text text-anchor="start" x="395.75" y="-45.5" font-family="Helvetica,sans-Serif" font-size="10.00">/build/source/include</text>
<text text-anchor="start" x="395.75" y="-32.75" font-family="Helvetica,sans-Serif" font-size="10.00">/state&#45;observation/dynamics</text>
<text text-anchor="start" x="395.75" y="-20" font-family="Helvetica,sans-Serif" font-size="10.00">&#45;estimators/zmp&#45;tracking</text>
<text text-anchor="middle" x="465.5" y="-7.25" font-family="Helvetica,sans-Serif" font-size="10.00">&#45;gain&#45;estimator.hpp</text>
</a>
</g>
</g>
<!-- Node1&#45;&gt;Node4 -->
<g id="edge3_Node000001_Node000004" class="edge">
<title>Node1&#45;&gt;Node4</title>
<g id="a_edge3_Node000001_Node000004"><a xlink:title=" ">
<path fill="none" stroke="#63b8ff" d="M346.21,-89.55C365.6,-79.95 387.39,-69.16 407,-59.46"/>
<polygon fill="#63b8ff" stroke="#63b8ff" points="344.79,-86.35 337.38,-93.92 347.89,-92.62 344.79,-86.35"/>
</a>
</g>
</g>
</g>
</svg>
