<?xml version="1.0" encoding="UTF-8" standalone="no"?>
<!DOCTYPE svg PUBLIC "-//W3C//DTD SVG 1.1//EN"
 "http://www.w3.org/Graphics/SVG/1.1/DTD/svg11.dtd">
<!-- Generated by graphviz version 12.2.1 (0)
 -->
<!-- Title: /build/source/include/state&#45;observation/dynamics&#45;estimators/lipm&#45;dcm&#45;estimator.hpp Pages: 1 -->
<svg width="1420pt" height="471pt"
 viewBox="0.00 0.00 1420.38 471.25" xmlns="http://www.w3.org/2000/svg" xmlns:xlink="http://www.w3.org/1999/xlink">
<g id="graph0" class="graph" transform="scale(1 1) rotate(0) translate(4 467.25)">
<title>/build/source/include/state&#45;observation/dynamics&#45;estimators/lipm&#45;dcm&#45;estimator.hpp</title>
<!-- Node1 -->
<g id="Node000001" class="node">
<title>Node1</title>
<g id="a_Node000001"><a xlink:title=" ">
<polygon fill="#999999" stroke="#666666" points="443.5,-463.25 250.5,-463.25 250.5,-417 443.5,-417 443.5,-463.25"/>
<text text-anchor="start" x="258.5" y="-449.75" font-family="Helvetica,sans-Serif" font-size="10.00">/build/source/include</text>
<text text-anchor="start" x="258.5" y="-437" font-family="Helvetica,sans-Serif" font-size="10.00">/state&#45;observation/dynamics</text>
<text text-anchor="middle" x="347" y="-424.25" font-family="Helvetica,sans-Serif" font-size="10.00">&#45;estimators/lipm&#45;dcm&#45;estimator.hpp</text>
</a>
</g>
</g>
<!-- Node2 -->
<g id="Node000002" class="node">
<title>Node2</title>
<g id="a_Node000002"><a xlink:title=" ">
<polygon fill="#e0e0e0" stroke="#999999" points="320.62,-27.12 191.38,-27.12 191.38,-6.38 320.62,-6.38 320.62,-27.12"/>
<text text-anchor="middle" x="256" y="-13.62" font-family="Helvetica,sans-Serif" font-size="10.00">state&#45;observation/api.h</text>
</a>
</g>
</g>
<!-- Node1&#45;&gt;Node2 -->
<g id="edge1_Node000001_Node000002" class="edge">
<title>Node1&#45;&gt;Node2</title>
<g id="a_edge1_Node000001_Node000002"><a xlink:title=" ">
<path fill="none" stroke="#63b8ff" d="M342.21,-416.89C336.58,-388.81 328,-338.94 328,-295.75 328,-295.75 328,-295.75 328,-224.25 328,-151.65 287.83,-72.29 267.5,-36.78"/>
<polygon fill="#63b8ff" stroke="#63b8ff" points="270.74,-35.38 262.66,-28.53 264.7,-38.92 270.74,-35.38"/>
</a>
</g>
</g>
<!-- Node3 -->
<g id="Node000003" class="node">
<title>Node3</title>
<g id="a_Node000003"><a xlink:href="linear-kalman-filter_8hpp.html" target="_top" xlink:title="Defines the class of a Linear Kalman filter.">
<polygon fill="white" stroke="#666666" points="198,-381 50,-381 50,-347.5 198,-347.5 198,-381"/>
<text text-anchor="start" x="58" y="-367.5" font-family="Helvetica,sans-Serif" font-size="10.00">state&#45;observation/observer</text>
<text text-anchor="middle" x="124" y="-354.75" font-family="Helvetica,sans-Serif" font-size="10.00">/linear&#45;kalman&#45;filter.hpp</text>
</a>
</g>
</g>
<!-- Node1&#45;&gt;Node3 -->
<g id="edge2_Node000001_Node000003" class="edge">
<title>Node1&#45;&gt;Node3</title>
<g id="a_edge2_Node000001_Node000003"><a xlink:title=" ">
<path fill="none" stroke="#63b8ff" d="M278.88,-416.56C248.56,-406.51 213.16,-394.79 183.86,-385.08"/>
<polygon fill="#63b8ff" stroke="#63b8ff" points="184.99,-381.77 174.4,-381.95 182.79,-388.41 184.99,-381.77"/>
</a>
</g>
</g>
<!-- Node21 -->
<g id="Node000021" class="node">
<title>Node21</title>
<g id="a_Node000021"><a xlink:href="miscellaneous-algorithms_8hpp.html" target="_top" xlink:title="Gathers many kinds of algorithms.">
<polygon fill="white" stroke="#666666" points="726.38,-172.5 559.62,-172.5 559.62,-139 726.38,-139 726.38,-172.5"/>
<text text-anchor="start" x="567.62" y="-159" font-family="Helvetica,sans-Serif" font-size="10.00">state&#45;observation/tools</text>
<text text-anchor="middle" x="643" y="-146.25" font-family="Helvetica,sans-Serif" font-size="10.00">/miscellaneous&#45;algorithms.hpp</text>
</a>
</g>
</g>
<!-- Node1&#45;&gt;Node21 -->
<g id="edge29_Node000001_Node000021" class="edge">
<title>Node1&#45;&gt;Node21</title>
<g id="a_edge29_Node000001_Node000021"><a xlink:title=" ">
<path fill="none" stroke="#63b8ff" d="M370.47,-416.73C425.36,-364.37 561.69,-234.32 618.02,-180.58"/>
<polygon fill="#63b8ff" stroke="#63b8ff" points="620.13,-183.4 624.95,-173.97 615.3,-178.34 620.13,-183.4"/>
</a>
</g>
</g>
<!-- Node24 -->
<g id="Node000024" class="node">
<title>Node24</title>
<g id="a_Node000024"><a xlink:href="rigid-body-kinematics_8hpp.html" target="_top" xlink:title="Implements integrators for the kinematics, in terms or rotations and translations.">
<polygon fill="white" stroke="#666666" points="891.62,-242 744.38,-242 744.38,-208.5 891.62,-208.5 891.62,-242"/>
<text text-anchor="start" x="752.38" y="-228.5" font-family="Helvetica,sans-Serif" font-size="10.00">state&#45;observation/tools</text>
<text text-anchor="middle" x="818" y="-215.75" font-family="Helvetica,sans-Serif" font-size="10.00">/rigid&#45;body&#45;kinematics.hpp</text>
</a>
</g>
</g>
<!-- Node1&#45;&gt;Node24 -->
<g id="edge34_Node000001_Node000024" class="edge">
<title>Node1&#45;&gt;Node24</title>
<g id="a_edge34_Node000001_Node000024"><a xlink:title=" ">
<path fill="none" stroke="#63b8ff" d="M400.77,-416.57C425.83,-405.94 456.02,-393 483,-381 587.81,-334.41 709.87,-277.3 773.79,-247.17"/>
<polygon fill="#63b8ff" stroke="#63b8ff" points="774.99,-250.47 782.54,-243.04 772,-244.14 774.99,-250.47"/>
</a>
</g>
</g>
<!-- Node3&#45;&gt;Node2 -->
<g id="edge3_Node000003_Node000002" class="edge">
<title>Node3&#45;&gt;Node2</title>
<g id="a_edge3_Node000003_Node000002"><a xlink:title=" ">
<path fill="none" stroke="#63b8ff" d="M88.89,-347.13C72.74,-338.38 54.26,-326.29 41,-311.5 12.94,-280.19 0,-268.29 0,-226.25 0,-226.25 0,-226.25 0,-154.75 0,-72.23 104.68,-39.23 180.16,-26.15"/>
<polygon fill="#63b8ff" stroke="#63b8ff" points="180.27,-29.68 189.58,-24.61 179.14,-22.78 180.27,-29.68"/>
</a>
</g>
</g>
<!-- Node4 -->
<g id="Node000004" class="node">
<title>Node4</title>
<g id="a_Node000004"><a xlink:href="kalman-filter-base_8hpp.html" target="_top" xlink:title="Defines the base class of a Kalman filter.">
<polygon fill="white" stroke="#666666" points="198,-311.5 50,-311.5 50,-278 198,-278 198,-311.5"/>
<text text-anchor="start" x="58" y="-298" font-family="Helvetica,sans-Serif" font-size="10.00">state&#45;observation/observer</text>
<text text-anchor="middle" x="124" y="-285.25" font-family="Helvetica,sans-Serif" font-size="10.00">/kalman&#45;filter&#45;base.hpp</text>
</a>
</g>
</g>
<!-- Node3&#45;&gt;Node4 -->
<g id="edge4_Node000003_Node000004" class="edge">
<title>Node3&#45;&gt;Node4</title>
<g id="a_edge4_Node000003_Node000004"><a xlink:title=" ">
<path fill="none" stroke="#63b8ff" d="M124,-347.25C124,-340.02 124,-331.28 124,-323.06"/>
<polygon fill="#63b8ff" stroke="#63b8ff" points="127.5,-323.15 124,-313.15 120.5,-323.15 127.5,-323.15"/>
</a>
</g>
</g>
<!-- Node4&#45;&gt;Node2 -->
<g id="edge5_Node000004_Node000002" class="edge">
<title>Node4&#45;&gt;Node2</title>
<g id="a_edge5_Node000004_Node000002"><a xlink:title=" ">
<path fill="none" stroke="#63b8ff" d="M117.04,-277.67C107.57,-254.81 91.1,-211.38 85,-172.5 77.55,-125.01 82.6,-102.02 118,-69.5 138.43,-50.72 166.32,-38.57 191.68,-30.8"/>
<polygon fill="#63b8ff" stroke="#63b8ff" points="192.64,-34.16 201.28,-28.04 190.71,-27.43 192.64,-34.16"/>
</a>
</g>
</g>
<!-- Node5 -->
<g id="Node000005" class="node">
<title>Node5</title>
<g id="a_Node000005"><a xlink:href="zero-delay-observer_8hpp.html" target="_top" xlink:title="Defines the base class of online zero delay observers. Zero delay observers are the classical state o...">
<polygon fill="white" stroke="#666666" points="300,-242 152,-242 152,-208.5 300,-208.5 300,-242"/>
<text text-anchor="start" x="160" y="-228.5" font-family="Helvetica,sans-Serif" font-size="10.00">state&#45;observation/observer</text>
<text text-anchor="middle" x="226" y="-215.75" font-family="Helvetica,sans-Serif" font-size="10.00">/zero&#45;delay&#45;observer.hpp</text>
</a>
</g>
</g>
<!-- Node4&#45;&gt;Node5 -->
<g id="edge6_Node000004_Node000005" class="edge">
<title>Node4&#45;&gt;Node5</title>
<g id="a_edge6_Node000004_Node000005"><a xlink:title=" ">
<path fill="none" stroke="#63b8ff" d="M148.43,-277.58C161.55,-268.9 177.93,-258.06 192.25,-248.59"/>
<polygon fill="#63b8ff" stroke="#63b8ff" points="194.1,-251.56 200.51,-243.12 190.23,-245.72 194.1,-251.56"/>
</a>
</g>
</g>
<!-- Node20 -->
<g id="Node000020" class="node">
<title>Node20</title>
<g id="a_Node000020"><a xlink:href="state-vector-arithmetics_8hpp_source.html" target="_top" xlink:title=" ">
<polygon fill="white" stroke="#666666" points="261.88,-172.5 104.12,-172.5 104.12,-139 261.88,-139 261.88,-172.5"/>
<text text-anchor="start" x="112.12" y="-159" font-family="Helvetica,sans-Serif" font-size="10.00">state&#45;observation/tools</text>
<text text-anchor="middle" x="183" y="-146.25" font-family="Helvetica,sans-Serif" font-size="10.00">/state&#45;vector&#45;arithmetics.hpp</text>
</a>
</g>
</g>
<!-- Node4&#45;&gt;Node20 -->
<g id="edge26_Node000004_Node000020" class="edge">
<title>Node4&#45;&gt;Node20</title>
<g id="a_edge26_Node000004_Node000020"><a xlink:title=" ">
<path fill="none" stroke="#63b8ff" d="M125.47,-277.68C127.55,-260.02 132.37,-231.15 143,-208.5 147.49,-198.94 153.99,-189.5 160.46,-181.35"/>
<polygon fill="#63b8ff" stroke="#63b8ff" points="162.94,-183.84 166.66,-173.92 157.56,-179.35 162.94,-183.84"/>
</a>
</g>
</g>
<!-- Node5&#45;&gt;Node2 -->
<g id="edge8_Node000005_Node000002" class="edge">
<title>Node5&#45;&gt;Node2</title>
<g id="a_edge8_Node000005_Node000002"><a xlink:title=" ">
<path fill="none" stroke="#63b8ff" d="M151.58,-211.5C129.7,-203.91 108.13,-191.81 95,-172.5 86.63,-160.19 88.35,-152.32 95,-139 121.2,-86.48 182.18,-50.73 221.12,-32.32"/>
<polygon fill="#63b8ff" stroke="#63b8ff" points="222.45,-35.56 230.09,-28.22 219.54,-29.19 222.45,-35.56"/>
</a>
</g>
</g>
<!-- Node6 -->
<g id="Node000006" class="node">
<title>Node6</title>
<g id="a_Node000006"><a xlink:title=" ">
<polygon fill="#e0e0e0" stroke="#999999" points="385,-27.12 339,-27.12 339,-6.38 385,-6.38 385,-27.12"/>
<text text-anchor="middle" x="362" y="-13.62" font-family="Helvetica,sans-Serif" font-size="10.00">deque</text>
</a>
</g>
</g>
<!-- Node5&#45;&gt;Node6 -->
<g id="edge7_Node000005_Node000006" class="edge">
<title>Node5&#45;&gt;Node6</title>
<g id="a_edge7_Node000005_Node000006"><a xlink:title=" ">
<path fill="none" stroke="#63b8ff" d="M241.4,-208.11C250.5,-198.21 261.96,-185.06 271,-172.5 304.09,-126.51 336.07,-67.81 351.83,-37.63"/>
<polygon fill="#63b8ff" stroke="#63b8ff" points="354.86,-39.39 356.35,-28.9 348.65,-36.17 354.86,-39.39"/>
</a>
</g>
</g>
<!-- Node7 -->
<g id="Node000007" class="node">
<title>Node7</title>
<g id="a_Node000007"><a xlink:href="observer-base_8hpp.html" target="_top" xlink:title="Defines the base class of a state observer. The observer is destinated to any dynamical system with a...">
<polygon fill="white" stroke="#666666" points="504,-172.5 356,-172.5 356,-139 504,-139 504,-172.5"/>
<text text-anchor="start" x="364" y="-159" font-family="Helvetica,sans-Serif" font-size="10.00">state&#45;observation/observer</text>
<text text-anchor="middle" x="430" y="-146.25" font-family="Helvetica,sans-Serif" font-size="10.00">/observer&#45;base.hpp</text>
</a>
</g>
</g>
<!-- Node5&#45;&gt;Node7 -->
<g id="edge9_Node000005_Node000007" class="edge">
<title>Node5&#45;&gt;Node7</title>
<g id="a_edge9_Node000005_Node000007"><a xlink:title=" ">
<path fill="none" stroke="#63b8ff" d="M274.86,-208.08C303.52,-198.6 339.95,-186.55 370.3,-176.5"/>
<polygon fill="#63b8ff" stroke="#63b8ff" points="371.35,-179.84 379.75,-173.38 369.15,-173.2 371.35,-179.84"/>
</a>
</g>
</g>
<!-- Node7&#45;&gt;Node2 -->
<g id="edge12_Node000007_Node000002" class="edge">
<title>Node7&#45;&gt;Node2</title>
<g id="a_edge12_Node000007_Node000002"><a xlink:title=" ">
<path fill="none" stroke="#63b8ff" d="M403.34,-138.7C387.69,-128.93 367.77,-115.89 351,-103 322.77,-81.29 292.55,-53.24 273.96,-35.37"/>
<polygon fill="#63b8ff" stroke="#63b8ff" points="276.53,-32.99 266.91,-28.54 271.66,-38.01 276.53,-32.99"/>
</a>
</g>
</g>
<!-- Node8 -->
<g id="Node000008" class="node">
<title>Node8</title>
<g id="a_Node000008"><a xlink:title=" ">
<polygon fill="#e0e0e0" stroke="#999999" points="500.5,-27.12 403.5,-27.12 403.5,-6.38 500.5,-6.38 500.5,-27.12"/>
<text text-anchor="middle" x="452" y="-13.62" font-family="Helvetica,sans-Serif" font-size="10.00">boost/assert.hpp</text>
</a>
</g>
</g>
<!-- Node7&#45;&gt;Node8 -->
<g id="edge10_Node000007_Node000008" class="edge">
<title>Node7&#45;&gt;Node8</title>
<g id="a_edge10_Node000007_Node000008"><a xlink:title=" ">
<path fill="none" stroke="#63b8ff" d="M463.45,-138.51C477.1,-129.99 491.43,-118.13 499,-103 505.66,-89.68 504.37,-83.39 499,-69.5 493.84,-56.15 483.47,-44.12 473.77,-35.03"/>
<polygon fill="#63b8ff" stroke="#63b8ff" points="476.2,-32.5 466.37,-28.54 471.59,-37.76 476.2,-32.5"/>
</a>
</g>
</g>
<!-- Node9 -->
<g id="Node000009" class="node">
<title>Node9</title>
<g id="a_Node000009"><a xlink:title=" ">
<polygon fill="#e0e0e0" stroke="#999999" points="489.62,-96.62 360.38,-96.62 360.38,-75.88 489.62,-75.88 489.62,-96.62"/>
<text text-anchor="middle" x="425" y="-83.12" font-family="Helvetica,sans-Serif" font-size="10.00">boost/static_assert.hpp</text>
</a>
</g>
</g>
<!-- Node7&#45;&gt;Node9 -->
<g id="edge11_Node000007_Node000009" class="edge">
<title>Node7&#45;&gt;Node9</title>
<g id="a_edge11_Node000007_Node000009"><a xlink:title=" ">
<path fill="none" stroke="#63b8ff" d="M428.82,-138.75C428.14,-129.65 427.29,-118.14 426.56,-108.32"/>
<polygon fill="#63b8ff" stroke="#63b8ff" points="430.07,-108.3 425.84,-98.58 423.09,-108.81 430.07,-108.3"/>
</a>
</g>
</g>
<!-- Node10 -->
<g id="Node000010" class="node">
<title>Node10</title>
<g id="a_Node000010"><a xlink:href="definitions_8hpp.html" target="_top" xlink:title="Definitions of types and some structures.">
<polygon fill="white" stroke="#666666" points="965.62,-103 836.38,-103 836.38,-69.5 965.62,-69.5 965.62,-103"/>
<text text-anchor="start" x="844.38" y="-89.5" font-family="Helvetica,sans-Serif" font-size="10.00">state&#45;observation/tools</text>
<text text-anchor="middle" x="901" y="-76.75" font-family="Helvetica,sans-Serif" font-size="10.00">/definitions.hpp</text>
</a>
</g>
</g>
<!-- Node7&#45;&gt;Node10 -->
<g id="edge13_Node000007_Node000010" class="edge">
<title>Node7&#45;&gt;Node10</title>
<g id="a_edge13_Node000007_Node000010"><a xlink:title=" ">
<path fill="none" stroke="#63b8ff" d="M504.37,-144.09C591.91,-131.55 736.52,-110.82 824.83,-98.17"/>
<polygon fill="#63b8ff" stroke="#63b8ff" points="825.21,-101.65 834.61,-96.76 824.22,-94.72 825.21,-101.65"/>
</a>
</g>
</g>
<!-- Node10&#45;&gt;Node2 -->
<g id="edge23_Node000010_Node000002" class="edge">
<title>Node10&#45;&gt;Node2</title>
<g id="a_edge23_Node000010_Node000002"><a xlink:title=" ">
<path fill="none" stroke="#63b8ff" d="M836.01,-71.63C831.28,-70.84 826.57,-70.12 822,-69.5 604.74,-40.01 547.06,-64.39 330,-33.5 323,-32.5 315.68,-31.23 308.47,-29.84"/>
<polygon fill="#63b8ff" stroke="#63b8ff" points="309.29,-26.44 298.79,-27.88 307.9,-33.3 309.29,-26.44"/>
</a>
</g>
</g>
<!-- Node10&#45;&gt;Node6 -->
<g id="edge15_Node000010_Node000006" class="edge">
<title>Node10&#45;&gt;Node6</title>
<g id="a_edge15_Node000010_Node000006"><a xlink:title=" ">
<path fill="none" stroke="#63b8ff" d="M836,-71.69C831.27,-70.89 826.57,-70.15 822,-69.5 632.98,-42.8 577.95,-84.54 394,-33.5 392.4,-33.06 390.78,-32.53 389.16,-31.95"/>
<polygon fill="#63b8ff" stroke="#63b8ff" points="390.76,-28.82 380.19,-28.08 387.99,-35.25 390.76,-28.82"/>
</a>
</g>
</g>
<!-- Node10&#45;&gt;Node8 -->
<g id="edge18_Node000010_Node000008" class="edge">
<title>Node10&#45;&gt;Node8</title>
<g id="a_edge18_Node000010_Node000008"><a xlink:title=" ">
<path fill="none" stroke="#63b8ff" d="M835.98,-71.85C831.26,-71.01 826.56,-70.22 822,-69.5 683.66,-47.79 646.45,-60.23 509,-33.5 504.59,-32.64 500.02,-31.62 495.48,-30.51"/>
<polygon fill="#63b8ff" stroke="#63b8ff" points="496.37,-27.12 485.81,-28 494.62,-33.9 496.37,-27.12"/>
</a>
</g>
</g>
<!-- Node11 -->
<g id="Node000011" class="node">
<title>Node11</title>
<g id="a_Node000011"><a xlink:title=" ">
<polygon fill="#e0e0e0" stroke="#999999" points="1265.5,-27.12 1216.5,-27.12 1216.5,-6.38 1265.5,-6.38 1265.5,-27.12"/>
<text text-anchor="middle" x="1241" y="-13.62" font-family="Helvetica,sans-Serif" font-size="10.00">chrono</text>
</a>
</g>
</g>
<!-- Node10&#45;&gt;Node11 -->
<g id="edge14_Node000010_Node000011" class="edge">
<title>Node10&#45;&gt;Node11</title>
<g id="a_edge14_Node000010_Node000011"><a xlink:title=" ">
<path fill="none" stroke="#63b8ff" d="M965.78,-73.25C972.94,-71.96 980.12,-70.69 987,-69.5 1085.06,-52.54 1113.03,-63.23 1208,-33.5 1209.55,-33.01 1211.12,-32.47 1212.7,-31.88"/>
<polygon fill="#63b8ff" stroke="#63b8ff" points="1213.66,-35.27 1221.48,-28.13 1210.91,-28.83 1213.66,-35.27"/>
</a>
</g>
</g>
<!-- Node12 -->
<g id="Node000012" class="node">
<title>Node12</title>
<g id="a_Node000012"><a xlink:title=" ">
<polygon fill="#e0e0e0" stroke="#999999" points="1348,-27.12 1284,-27.12 1284,-6.38 1348,-6.38 1348,-27.12"/>
<text text-anchor="middle" x="1316" y="-13.62" font-family="Helvetica,sans-Serif" font-size="10.00">stdexcept</text>
</a>
</g>
</g>
<!-- Node10&#45;&gt;Node12 -->
<g id="edge16_Node000010_Node000012" class="edge">
<title>Node10&#45;&gt;Node12</title>
<g id="a_edge16_Node000010_Node000012"><a xlink:title=" ">
<path fill="none" stroke="#63b8ff" d="M965.74,-72.99C972.9,-71.75 980.1,-70.56 987,-69.5 1114.49,-49.87 1149.87,-64.86 1275,-33.5 1277.46,-32.88 1279.98,-32.16 1282.5,-31.37"/>
<polygon fill="#63b8ff" stroke="#63b8ff" points="1283.62,-34.68 1291.9,-28.08 1281.31,-28.08 1283.62,-34.68"/>
</a>
</g>
</g>
<!-- Node13 -->
<g id="Node000013" class="node">
<title>Node13</title>
<g id="a_Node000013"><a xlink:title=" ">
<polygon fill="#e0e0e0" stroke="#999999" points="1412.38,-27.12 1365.62,-27.12 1365.62,-6.38 1412.38,-6.38 1412.38,-27.12"/>
<text text-anchor="middle" x="1389" y="-13.62" font-family="Helvetica,sans-Serif" font-size="10.00">vector</text>
</a>
</g>
</g>
<!-- Node10&#45;&gt;Node13 -->
<g id="edge17_Node000010_Node000013" class="edge">
<title>Node10&#45;&gt;Node13</title>
<g id="a_edge17_Node000010_Node000013"><a xlink:title=" ">
<path fill="none" stroke="#63b8ff" d="M965.71,-72.8C972.88,-71.6 980.09,-70.47 987,-69.5 1150.63,-46.6 1198.09,-78.71 1357,-33.5 1358.56,-33.06 1360.14,-32.54 1361.72,-31.96"/>
<polygon fill="#63b8ff" stroke="#63b8ff" points="1362.66,-35.37 1370.46,-28.2 1359.89,-28.94 1362.66,-35.37"/>
</a>
</g>
</g>
<!-- Node14 -->
<g id="Node000014" class="node">
<title>Node14</title>
<g id="a_Node000014"><a xlink:title=" ">
<polygon fill="#e0e0e0" stroke="#999999" points="639.88,-27.12 518.12,-27.12 518.12,-6.38 639.88,-6.38 639.88,-27.12"/>
<text text-anchor="middle" x="579" y="-13.62" font-family="Helvetica,sans-Serif" font-size="10.00">boost/timer/timer.hpp</text>
</a>
</g>
</g>
<!-- Node10&#45;&gt;Node14 -->
<g id="edge19_Node000010_Node000014" class="edge">
<title>Node10&#45;&gt;Node14</title>
<g id="a_edge19_Node000010_Node000014"><a xlink:title=" ">
<path fill="none" stroke="#63b8ff" d="M835.93,-72.24C785,-61.97 712.42,-47.15 649,-33.5 643.87,-32.4 638.53,-31.23 633.18,-30.05"/>
<polygon fill="#63b8ff" stroke="#63b8ff" points="634.29,-26.71 623.76,-27.95 632.77,-33.54 634.29,-26.71"/>
</a>
</g>
</g>
<!-- Node15 -->
<g id="Node000015" class="node">
<title>Node15</title>
<g id="a_Node000015"><a xlink:title=" ">
<polygon fill="#e0e0e0" stroke="#999999" points="726.25,-27.12 657.75,-27.12 657.75,-6.38 726.25,-6.38 726.25,-27.12"/>
<text text-anchor="middle" x="692" y="-13.62" font-family="Helvetica,sans-Serif" font-size="10.00">Eigen/Core</text>
</a>
</g>
</g>
<!-- Node10&#45;&gt;Node15 -->
<g id="edge20_Node000010_Node000015" class="edge">
<title>Node10&#45;&gt;Node15</title>
<g id="a_edge20_Node000010_Node000015"><a xlink:title=" ">
<path fill="none" stroke="#63b8ff" d="M847.32,-69.01C814.97,-59.07 773,-45.92 736,-33.5 733.92,-32.8 731.8,-32.08 729.65,-31.34"/>
<polygon fill="#63b8ff" stroke="#63b8ff" points="730.96,-28.09 720.36,-28.08 728.64,-34.69 730.96,-28.09"/>
</a>
</g>
</g>
<!-- Node16 -->
<g id="Node000016" class="node">
<title>Node16</title>
<g id="a_Node000016"><a xlink:title=" ">
<polygon fill="#e0e0e0" stroke="#999999" points="839.38,-27.12 744.62,-27.12 744.62,-6.38 839.38,-6.38 839.38,-27.12"/>
<text text-anchor="middle" x="792" y="-13.62" font-family="Helvetica,sans-Serif" font-size="10.00">Eigen/Geometry</text>
</a>
</g>
</g>
<!-- Node10&#45;&gt;Node16 -->
<g id="edge21_Node000010_Node000016" class="edge">
<title>Node10&#45;&gt;Node16</title>
<g id="a_edge21_Node000010_Node000016"><a xlink:title=" ">
<path fill="none" stroke="#63b8ff" d="M874.89,-69.08C857.41,-58.26 834.53,-44.09 817.23,-33.38"/>
<polygon fill="#63b8ff" stroke="#63b8ff" points="819.41,-30.61 809.07,-28.32 815.72,-36.56 819.41,-30.61"/>
</a>
</g>
</g>
<!-- Node17 -->
<g id="Node000017" class="node">
<title>Node17</title>
<g id="a_Node000017"><a xlink:title=" ">
<polygon fill="#e0e0e0" stroke="#999999" points="978.88,-33.5 857.12,-33.5 857.12,0 978.88,0 978.88,-33.5"/>
<text text-anchor="start" x="865.12" y="-20" font-family="Helvetica,sans-Serif" font-size="10.00">boost/math/constants</text>
<text text-anchor="middle" x="918" y="-7.25" font-family="Helvetica,sans-Serif" font-size="10.00">/constants.hpp</text>
</a>
</g>
</g>
<!-- Node10&#45;&gt;Node17 -->
<g id="edge22_Node000010_Node000017" class="edge">
<title>Node10&#45;&gt;Node17</title>
<g id="a_edge22_Node000010_Node000017"><a xlink:title=" ">
<path fill="none" stroke="#63b8ff" d="M905.03,-69.25C906.87,-61.94 909.1,-53.07 911.2,-44.77"/>
<polygon fill="#63b8ff" stroke="#63b8ff" points="914.58,-45.65 913.63,-35.1 907.79,-43.94 914.58,-45.65"/>
</a>
</g>
</g>
<!-- Node18 -->
<g id="Node000018" class="node">
<title>Node18</title>
<g id="a_Node000018"><a xlink:title=" ">
<polygon fill="#e0e0e0" stroke="#999999" points="1051.12,-27.12 996.88,-27.12 996.88,-6.38 1051.12,-6.38 1051.12,-27.12"/>
<text text-anchor="middle" x="1024" y="-13.62" font-family="Helvetica,sans-Serif" font-size="10.00">fstream</text>
</a>
</g>
</g>
<!-- Node10&#45;&gt;Node18 -->
<g id="edge24_Node000010_Node000018" class="edge">
<title>Node10&#45;&gt;Node18</title>
<g id="a_edge24_Node000010_Node000018"><a xlink:title=" ">
<path fill="none" stroke="#63b8ff" d="M930.46,-69.08C950.46,-58.11 976.74,-43.69 996.34,-32.93"/>
<polygon fill="#63b8ff" stroke="#63b8ff" points="997.79,-36.13 1004.87,-28.25 994.42,-29.99 997.79,-36.13"/>
</a>
</g>
</g>
<!-- Node19 -->
<g id="Node000019" class="node">
<title>Node19</title>
<g id="a_Node000019"><a xlink:title=" ">
<polygon fill="#e0e0e0" stroke="#999999" points="1198.62,-33.5 1069.38,-33.5 1069.38,0 1198.62,0 1198.62,-33.5"/>
<text text-anchor="start" x="1077.38" y="-20" font-family="Helvetica,sans-Serif" font-size="10.00">state&#45;observation/tools</text>
<text text-anchor="middle" x="1134" y="-7.25" font-family="Helvetica,sans-Serif" font-size="10.00">/definitions.hxx</text>
</a>
</g>
</g>
<!-- Node10&#45;&gt;Node19 -->
<g id="edge25_Node000010_Node000019" class="edge">
<title>Node10&#45;&gt;Node19</title>
<g id="a_edge25_Node000010_Node000019"><a xlink:title=" ">
<path fill="none" stroke="#63b8ff" d="M956.81,-69.08C990.12,-59.43 1032.61,-47.12 1067.63,-36.98"/>
<polygon fill="#63b8ff" stroke="#63b8ff" points="1068.16,-40.47 1076.79,-34.32 1066.21,-33.74 1068.16,-40.47"/>
</a>
</g>
</g>
<!-- Node20&#45;&gt;Node2 -->
<g id="edge27_Node000020_Node000002" class="edge">
<title>Node20&#45;&gt;Node2</title>
<g id="a_edge27_Node000020_Node000002"><a xlink:title=" ">
<path fill="none" stroke="#63b8ff" d="M191.52,-138.77C204.94,-113.58 230.97,-64.72 245.52,-37.42"/>
<polygon fill="#63b8ff" stroke="#63b8ff" points="248.49,-39.29 250.1,-28.81 242.31,-35.99 248.49,-39.29"/>
</a>
</g>
</g>
<!-- Node20&#45;&gt;Node10 -->
<g id="edge28_Node000020_Node000010" class="edge">
<title>Node20&#45;&gt;Node10</title>
<g id="a_edge28_Node000020_Node000010"><a xlink:title=" ">
<path fill="none" stroke="#63b8ff" d="M262.22,-146.91C289.12,-144.31 319.36,-141.45 347,-139 543.32,-121.58 593.11,-124.73 789,-103 800.54,-101.72 812.72,-100.19 824.63,-98.6"/>
<polygon fill="#63b8ff" stroke="#63b8ff" points="825,-102.08 834.44,-97.26 824.05,-95.14 825,-102.08"/>
</a>
</g>
</g>
<!-- Node21&#45;&gt;Node2 -->
<g id="edge32_Node000021_Node000002" class="edge">
<title>Node21&#45;&gt;Node2</title>
<g id="a_edge32_Node000021_Node000002"><a xlink:title=" ">
<path fill="none" stroke="#63b8ff" d="M627.34,-138.69C607.2,-119.06 570.23,-86.38 532,-69.5 448.57,-32.68 419.5,-50.99 330,-33.5 324.12,-32.35 317.98,-31.11 311.87,-29.85"/>
<polygon fill="#63b8ff" stroke="#63b8ff" points="312.94,-26.5 302.44,-27.88 311.51,-33.35 312.94,-26.5"/>
</a>
</g>
</g>
<!-- Node21&#45;&gt;Node10 -->
<g id="edge33_Node000021_Node000010" class="edge">
<title>Node21&#45;&gt;Node10</title>
<g id="a_edge33_Node000021_Node000010"><a xlink:title=" ">
<path fill="none" stroke="#63b8ff" d="M704.8,-138.58C741.92,-128.87 789.34,-116.46 828.26,-106.28"/>
<polygon fill="#63b8ff" stroke="#63b8ff" points="829.01,-109.7 837.8,-103.79 827.24,-102.93 829.01,-109.7"/>
</a>
</g>
</g>
<!-- Node22 -->
<g id="Node000022" class="node">
<title>Node22</title>
<g id="a_Node000022"><a xlink:title=" ">
<polygon fill="#e0e0e0" stroke="#999999" points="716,-96.62 622,-96.62 622,-75.88 716,-75.88 716,-96.62"/>
<text text-anchor="middle" x="669" y="-83.12" font-family="Helvetica,sans-Serif" font-size="10.00">boost/utility.hpp</text>
</a>
</g>
</g>
<!-- Node21&#45;&gt;Node22 -->
<g id="edge30_Node000021_Node000022" class="edge">
<title>Node21&#45;&gt;Node22</title>
<g id="a_edge30_Node000021_Node000022"><a xlink:title=" ">
<path fill="none" stroke="#63b8ff" d="M649.16,-138.75C652.74,-129.45 657.3,-117.63 661.14,-107.66"/>
<polygon fill="#63b8ff" stroke="#63b8ff" points="664.34,-109.07 664.67,-98.48 657.81,-106.56 664.34,-109.07"/>
</a>
</g>
</g>
<!-- Node23 -->
<g id="Node000023" class="node">
<title>Node23</title>
<g id="a_Node000023"><a xlink:title=" ">
<polygon fill="#e0e0e0" stroke="#999999" points="780.38,-96.62 733.62,-96.62 733.62,-75.88 780.38,-75.88 780.38,-96.62"/>
<text text-anchor="middle" x="757" y="-83.12" font-family="Helvetica,sans-Serif" font-size="10.00">cmath</text>
</a>
</g>
</g>
<!-- Node21&#45;&gt;Node23 -->
<g id="edge31_Node000021_Node000023" class="edge">
<title>Node21&#45;&gt;Node23</title>
<g id="a_edge31_Node000021_Node000023"><a xlink:title=" ">
<path fill="none" stroke="#63b8ff" d="M670.31,-138.58C688.59,-127.76 712.52,-113.59 730.61,-102.88"/>
<polygon fill="#63b8ff" stroke="#63b8ff" points="732.37,-105.9 739.2,-97.79 728.81,-99.88 732.37,-105.9"/>
</a>
</g>
</g>
<!-- Node24&#45;&gt;Node2 -->
<g id="edge36_Node000024_Node000002" class="edge">
<title>Node24&#45;&gt;Node2</title>
<g id="a_edge36_Node000024_Node000002"><a xlink:title=" ">
<path fill="none" stroke="#63b8ff" d="M743.98,-217.23C675.79,-209.48 580.8,-195.03 551,-172.5 510.09,-141.57 539.62,-100.8 499,-69.5 499,-69.5 385.28,-45.28 313.43,-29.98"/>
<polygon fill="#63b8ff" stroke="#63b8ff" points="314.27,-26.58 303.76,-27.92 312.81,-33.43 314.27,-26.58"/>
</a>
</g>
</g>
<!-- Node24&#45;&gt;Node10 -->
<g id="edge37_Node000024_Node000010" class="edge">
<title>Node24&#45;&gt;Node10</title>
<g id="a_edge37_Node000024_Node000010"><a xlink:title=" ">
<path fill="none" stroke="#63b8ff" d="M860.66,-208.21C876.24,-200.03 892.18,-188.39 901,-172.5 910.69,-155.05 910.17,-132.32 907.51,-114.72"/>
<polygon fill="#63b8ff" stroke="#63b8ff" points="910.96,-114.17 905.7,-104.97 904.08,-115.44 910.96,-114.17"/>
</a>
</g>
</g>
<!-- Node24&#45;&gt;Node21 -->
<g id="edge38_Node000024_Node000021" class="edge">
<title>Node24&#45;&gt;Node21</title>
<g id="a_edge38_Node000024_Node000021"><a xlink:title=" ">
<path fill="none" stroke="#63b8ff" d="M776.08,-208.08C751.93,-198.77 721.34,-186.97 695.59,-177.03"/>
<polygon fill="#63b8ff" stroke="#63b8ff" points="696.88,-173.78 686.29,-173.45 694.36,-180.31 696.88,-173.78"/>
</a>
</g>
</g>
<!-- Node25 -->
<g id="Node000025" class="node">
<title>Node25</title>
<g id="a_Node000025"><a xlink:title=" ">
<polygon fill="#e0e0e0" stroke="#999999" points="1202.12,-166.12 1135.88,-166.12 1135.88,-145.38 1202.12,-145.38 1202.12,-166.12"/>
<text text-anchor="middle" x="1169" y="-152.62" font-family="Helvetica,sans-Serif" font-size="10.00">Eigen/SVD</text>
</a>
</g>
</g>
<!-- Node24&#45;&gt;Node25 -->
<g id="edge35_Node000024_Node000025" class="edge">
<title>Node24&#45;&gt;Node25</title>
<g id="a_edge35_Node000024_Node000025"><a xlink:title=" ">
<path fill="none" stroke="#63b8ff" d="M891.9,-215.94C955.04,-207.88 1047.94,-193.73 1127,-172.5 1129.44,-171.84 1131.94,-171.1 1134.45,-170.3"/>
<polygon fill="#63b8ff" stroke="#63b8ff" points="1135.54,-173.63 1143.84,-167.05 1133.25,-167.01 1135.54,-173.63"/>
</a>
</g>
</g>
<!-- Node26 -->
<g id="Node000026" class="node">
<title>Node26</title>
<g id="a_Node000026"><a xlink:href="probability-law-simulation_8hpp.html" target="_top" xlink:title=" ">
<polygon fill="white" stroke="#666666" points="1117.5,-172.5 948.5,-172.5 948.5,-139 1117.5,-139 1117.5,-172.5"/>
<text text-anchor="start" x="956.5" y="-159" font-family="Helvetica,sans-Serif" font-size="10.00">state&#45;observation/tools</text>
<text text-anchor="middle" x="1033" y="-146.25" font-family="Helvetica,sans-Serif" font-size="10.00">/probability&#45;law&#45;simulation.hpp</text>
</a>
</g>
</g>
<!-- Node24&#45;&gt;Node26 -->
<g id="edge39_Node000024_Node000026" class="edge">
<title>Node24&#45;&gt;Node26</title>
<g id="a_edge39_Node000024_Node000026"><a xlink:title=" ">
<path fill="none" stroke="#63b8ff" d="M869.5,-208.08C899.97,-198.52 938.77,-186.33 970.92,-176.24"/>
<polygon fill="#63b8ff" stroke="#63b8ff" points="971.61,-179.69 980.11,-173.36 969.52,-173.01 971.61,-179.69"/>
</a>
</g>
</g>
<!-- Node29 -->
<g id="Node000029" class="node">
<title>Node29</title>
<g id="a_Node000029"><a xlink:title=" ">
<polygon fill="#e0e0e0" stroke="#999999" points="891.62,-172.5 744.38,-172.5 744.38,-139 891.62,-139 891.62,-172.5"/>
<text text-anchor="start" x="752.38" y="-159" font-family="Helvetica,sans-Serif" font-size="10.00">state&#45;observation/tools</text>
<text text-anchor="middle" x="818" y="-146.25" font-family="Helvetica,sans-Serif" font-size="10.00">/rigid&#45;body&#45;kinematics.hxx</text>
</a>
</g>
</g>
<!-- Node24&#45;&gt;Node29 -->
<g id="edge44_Node000024_Node000029" class="edge">
<title>Node24&#45;&gt;Node29</title>
<g id="a_edge44_Node000024_Node000029"><a xlink:title=" ">
<path fill="none" stroke="#63b8ff" d="M818,-208.25C818,-201.02 818,-192.28 818,-184.06"/>
<polygon fill="#63b8ff" stroke="#63b8ff" points="821.5,-184.15 818,-174.15 814.5,-184.15 821.5,-184.15"/>
</a>
</g>
</g>
<!-- Node26&#45;&gt;Node2 -->
<g id="edge41_Node000026_Node000002" class="edge">
<title>Node26&#45;&gt;Node2</title>
<g id="a_edge41_Node000026_Node000002"><a xlink:title=" ">
<path fill="none" stroke="#63b8ff" d="M948.01,-142.82C909.52,-135.09 864.37,-122.66 827,-103 807.07,-92.52 809.73,-78.28 789,-69.5 694.78,-29.62 431.25,-48.18 330,-33.5 323,-32.49 315.68,-31.2 308.48,-29.81"/>
<polygon fill="#63b8ff" stroke="#63b8ff" points="309.29,-26.4 298.8,-27.85 307.9,-33.26 309.29,-26.4"/>
</a>
</g>
</g>
<!-- Node26&#45;&gt;Node10 -->
<g id="edge42_Node000026_Node000010" class="edge">
<title>Node26&#45;&gt;Node10</title>
<g id="a_edge42_Node000026_Node000010"><a xlink:title=" ">
<path fill="none" stroke="#63b8ff" d="M1001.38,-138.58C983.75,-129.57 961.57,-118.23 942.55,-108.5"/>
<polygon fill="#63b8ff" stroke="#63b8ff" points="944.2,-105.41 933.71,-103.98 941.02,-111.64 944.2,-105.41"/>
</a>
</g>
</g>
<!-- Node27 -->
<g id="Node000027" class="node">
<title>Node27</title>
<g id="a_Node000027"><a xlink:title=" ">
<polygon fill="#e0e0e0" stroke="#999999" points="1049.75,-96.62 996.25,-96.62 996.25,-75.88 1049.75,-75.88 1049.75,-96.62"/>
<text text-anchor="middle" x="1023" y="-83.12" font-family="Helvetica,sans-Serif" font-size="10.00">random</text>
</a>
</g>
</g>
<!-- Node26&#45;&gt;Node27 -->
<g id="edge40_Node000026_Node000027" class="edge">
<title>Node26&#45;&gt;Node27</title>
<g id="a_edge40_Node000026_Node000027"><a xlink:title=" ">
<path fill="none" stroke="#63b8ff" d="M1030.63,-138.75C1029.28,-129.65 1027.58,-118.14 1026.12,-108.32"/>
<polygon fill="#63b8ff" stroke="#63b8ff" points="1029.6,-107.95 1024.68,-98.57 1022.68,-108.97 1029.6,-107.95"/>
</a>
</g>
</g>
<!-- Node28 -->
<g id="Node000028" class="node">
<title>Node28</title>
<g id="a_Node000028"><a xlink:title=" ">
<polygon fill="#e0e0e0" stroke="#999999" points="1236.5,-103 1067.5,-103 1067.5,-69.5 1236.5,-69.5 1236.5,-103"/>
<text text-anchor="start" x="1075.5" y="-89.5" font-family="Helvetica,sans-Serif" font-size="10.00">state&#45;observation/tools</text>
<text text-anchor="middle" x="1152" y="-76.75" font-family="Helvetica,sans-Serif" font-size="10.00">/probability&#45;law&#45;simulation.hxx</text>
</a>
</g>
</g>
<!-- Node26&#45;&gt;Node28 -->
<g id="edge43_Node000026_Node000028" class="edge">
<title>Node26&#45;&gt;Node28</title>
<g id="a_edge43_Node000026_Node000028"><a xlink:title=" ">
<path fill="none" stroke="#63b8ff" d="M1061.5,-138.58C1077.25,-129.65 1097.02,-118.44 1114.06,-108.77"/>
<polygon fill="#63b8ff" stroke="#63b8ff" points="1115.44,-112.01 1122.41,-104.03 1111.99,-105.92 1115.44,-112.01"/>
</a>
</g>
</g>
</g>
</svg>
