<?xml version="1.0" encoding="UTF-8" standalone="no"?>
<!DOCTYPE svg PUBLIC "-//W3C//DTD SVG 1.1//EN"
 "http://www.w3.org/Graphics/SVG/1.1/DTD/svg11.dtd">
<!-- Generated by graphviz version 12.2.1 (0)
 -->
<!-- Title: /build/source/include/state&#45;observation/tools/miscellaneous&#45;algorithms.hpp Pages: 1 -->
<svg width="1228pt" height="193pt"
 viewBox="0.00 0.00 1228.25 193.25" xmlns="http://www.w3.org/2000/svg" xmlns:xlink="http://www.w3.org/1999/xlink">
<g id="graph0" class="graph" transform="scale(1 1) rotate(0) translate(4 189.25)">
<title>/build/source/include/state&#45;observation/tools/miscellaneous&#45;algorithms.hpp</title>
<!-- Node1 -->
<g id="Node000001" class="node">
<title>Node1</title>
<g id="a_Node000001"><a xlink:title="Gathers many kinds of algorithms.">
<polygon fill="#999999" stroke="#666666" points="280,-185.25 113.25,-185.25 113.25,-139 280,-139 280,-185.25"/>
<text text-anchor="start" x="121.25" y="-171.75" font-family="Helvetica,sans-Serif" font-size="10.00">/build/source/include</text>
<text text-anchor="start" x="121.25" y="-159" font-family="Helvetica,sans-Serif" font-size="10.00">/state&#45;observation/tools</text>
<text text-anchor="middle" x="196.62" y="-146.25" font-family="Helvetica,sans-Serif" font-size="10.00">/miscellaneous&#45;algorithms.hpp</text>
</a>
</g>
</g>
<!-- Node2 -->
<g id="Node000002" class="node">
<title>Node2</title>
<g id="a_Node000002"><a xlink:title=" ">
<polygon fill="#e0e0e0" stroke="#999999" points="130.62,-96.62 36.62,-96.62 36.62,-75.88 130.62,-75.88 130.62,-96.62"/>
<text text-anchor="middle" x="83.62" y="-83.12" font-family="Helvetica,sans-Serif" font-size="10.00">boost/utility.hpp</text>
</a>
</g>
</g>
<!-- Node1&#45;&gt;Node2 -->
<g id="edge1_Node000001_Node000002" class="edge">
<title>Node1&#45;&gt;Node2</title>
<g id="a_edge1_Node000001_Node000002"><a xlink:title=" ">
<path fill="none" stroke="#63b8ff" d="M162.11,-138.56C144.64,-127.14 123.86,-113.55 108.07,-103.23"/>
<polygon fill="#63b8ff" stroke="#63b8ff" points="110.05,-100.35 99.77,-97.8 106.22,-106.2 110.05,-100.35"/>
</a>
</g>
</g>
<!-- Node3 -->
<g id="Node000003" class="node">
<title>Node3</title>
<g id="a_Node000003"><a xlink:title=" ">
<polygon fill="#e0e0e0" stroke="#999999" points="195,-96.62 148.25,-96.62 148.25,-75.88 195,-75.88 195,-96.62"/>
<text text-anchor="middle" x="171.62" y="-83.12" font-family="Helvetica,sans-Serif" font-size="10.00">cmath</text>
</a>
</g>
</g>
<!-- Node1&#45;&gt;Node3 -->
<g id="edge2_Node000001_Node000003" class="edge">
<title>Node1&#45;&gt;Node3</title>
<g id="a_edge2_Node000001_Node000003"><a xlink:title=" ">
<path fill="none" stroke="#63b8ff" d="M188.99,-138.56C185.68,-128.77 181.83,-117.39 178.59,-107.84"/>
<polygon fill="#63b8ff" stroke="#63b8ff" points="181.92,-106.76 175.4,-98.41 175.29,-109 181.92,-106.76"/>
</a>
</g>
</g>
<!-- Node4 -->
<g id="Node000004" class="node">
<title>Node4</title>
<g id="a_Node000004"><a xlink:title=" ">
<polygon fill="#e0e0e0" stroke="#999999" points="129.25,-27.12 0,-27.12 0,-6.38 129.25,-6.38 129.25,-27.12"/>
<text text-anchor="middle" x="64.62" y="-13.62" font-family="Helvetica,sans-Serif" font-size="10.00">state&#45;observation/api.h</text>
</a>
</g>
</g>
<!-- Node1&#45;&gt;Node4 -->
<g id="edge3_Node000001_Node000004" class="edge">
<title>Node1&#45;&gt;Node4</title>
<g id="a_edge3_Node000001_Node000004"><a xlink:title=" ">
<path fill="none" stroke="#63b8ff" d="M205.75,-138.69C212.26,-118.74 217.64,-89.68 203.62,-69.5 193.22,-54.52 151.76,-40.27 116.81,-30.53"/>
<polygon fill="#63b8ff" stroke="#63b8ff" points="117.76,-27.17 107.2,-27.93 115.93,-33.92 117.76,-27.17"/>
</a>
</g>
</g>
<!-- Node5 -->
<g id="Node000005" class="node">
<title>Node5</title>
<g id="a_Node000005"><a xlink:href="definitions_8hpp.html" target="_top" xlink:title="Definitions of types and some structures.">
<polygon fill="white" stroke="#666666" points="538.25,-103 409,-103 409,-69.5 538.25,-69.5 538.25,-103"/>
<text text-anchor="start" x="417" y="-89.5" font-family="Helvetica,sans-Serif" font-size="10.00">state&#45;observation/tools</text>
<text text-anchor="middle" x="473.62" y="-76.75" font-family="Helvetica,sans-Serif" font-size="10.00">/definitions.hpp</text>
</a>
</g>
</g>
<!-- Node1&#45;&gt;Node5 -->
<g id="edge4_Node000001_Node000005" class="edge">
<title>Node1&#45;&gt;Node5</title>
<g id="a_edge4_Node000001_Node000005"><a xlink:title=" ">
<path fill="none" stroke="#63b8ff" d="M280.49,-138.76C319.33,-128.4 365,-116.22 402.17,-106.31"/>
<polygon fill="#63b8ff" stroke="#63b8ff" points="402.69,-109.79 411.45,-103.83 400.89,-103.03 402.69,-109.79"/>
</a>
</g>
</g>
<!-- Node5&#45;&gt;Node4 -->
<g id="edge14_Node000005_Node000004" class="edge">
<title>Node5&#45;&gt;Node4</title>
<g id="a_edge14_Node000005_Node000004"><a xlink:title=" ">
<path fill="none" stroke="#63b8ff" d="M408.7,-76.42C340.89,-66.93 231.5,-50.84 137.62,-33.5 131.65,-32.4 125.41,-31.17 119.21,-29.9"/>
<polygon fill="#63b8ff" stroke="#63b8ff" points="120.15,-26.52 109.64,-27.9 118.71,-33.37 120.15,-26.52"/>
</a>
</g>
</g>
<!-- Node6 -->
<g id="Node000006" class="node">
<title>Node6</title>
<g id="a_Node000006"><a xlink:title=" ">
<polygon fill="#e0e0e0" stroke="#999999" points="196.12,-27.12 147.12,-27.12 147.12,-6.38 196.12,-6.38 196.12,-27.12"/>
<text text-anchor="middle" x="171.62" y="-13.62" font-family="Helvetica,sans-Serif" font-size="10.00">chrono</text>
</a>
</g>
</g>
<!-- Node5&#45;&gt;Node6 -->
<g id="edge5_Node000005_Node000006" class="edge">
<title>Node5&#45;&gt;Node6</title>
<g id="a_edge5_Node000005_Node000006"><a xlink:title=" ">
<path fill="none" stroke="#63b8ff" d="M408.62,-77.21C353.65,-69.35 273.27,-55.34 205.62,-33.5 204.08,-33 202.51,-32.45 200.94,-31.86"/>
<polygon fill="#63b8ff" stroke="#63b8ff" points="202.69,-28.8 192.11,-28.16 199.99,-35.25 202.69,-28.8"/>
</a>
</g>
</g>
<!-- Node7 -->
<g id="Node000007" class="node">
<title>Node7</title>
<g id="a_Node000007"><a xlink:title=" ">
<polygon fill="#e0e0e0" stroke="#999999" points="260.62,-27.12 214.62,-27.12 214.62,-6.38 260.62,-6.38 260.62,-27.12"/>
<text text-anchor="middle" x="237.62" y="-13.62" font-family="Helvetica,sans-Serif" font-size="10.00">deque</text>
</a>
</g>
</g>
<!-- Node5&#45;&gt;Node7 -->
<g id="edge6_Node000005_Node000007" class="edge">
<title>Node5&#45;&gt;Node7</title>
<g id="a_edge6_Node000005_Node000007"><a xlink:title=" ">
<path fill="none" stroke="#63b8ff" d="M408.72,-72.42C368.11,-63.51 315.05,-50.23 269.62,-33.5 268.49,-33.08 267.35,-32.64 266.2,-32.17"/>
<polygon fill="#63b8ff" stroke="#63b8ff" points="267.89,-29.09 257.33,-28.2 265.03,-35.48 267.89,-29.09"/>
</a>
</g>
</g>
<!-- Node8 -->
<g id="Node000008" class="node">
<title>Node8</title>
<g id="a_Node000008"><a xlink:title=" ">
<polygon fill="#e0e0e0" stroke="#999999" points="342.62,-27.12 278.62,-27.12 278.62,-6.38 342.62,-6.38 342.62,-27.12"/>
<text text-anchor="middle" x="310.62" y="-13.62" font-family="Helvetica,sans-Serif" font-size="10.00">stdexcept</text>
</a>
</g>
</g>
<!-- Node5&#45;&gt;Node8 -->
<g id="edge7_Node000005_Node000008" class="edge">
<title>Node5&#45;&gt;Node8</title>
<g id="a_edge7_Node000005_Node000008"><a xlink:title=" ">
<path fill="none" stroke="#63b8ff" d="M434.58,-69.08C407.22,-57.75 371,-42.75 344.79,-31.9"/>
<polygon fill="#63b8ff" stroke="#63b8ff" points="346.2,-28.69 335.62,-28.1 343.52,-35.16 346.2,-28.69"/>
</a>
</g>
</g>
<!-- Node9 -->
<g id="Node000009" class="node">
<title>Node9</title>
<g id="a_Node000009"><a xlink:title=" ">
<polygon fill="#e0e0e0" stroke="#999999" points="407,-27.12 360.25,-27.12 360.25,-6.38 407,-6.38 407,-27.12"/>
<text text-anchor="middle" x="383.62" y="-13.62" font-family="Helvetica,sans-Serif" font-size="10.00">vector</text>
</a>
</g>
</g>
<!-- Node5&#45;&gt;Node9 -->
<g id="edge8_Node000005_Node000009" class="edge">
<title>Node5&#45;&gt;Node9</title>
<g id="a_edge8_Node000005_Node000009"><a xlink:title=" ">
<path fill="none" stroke="#63b8ff" d="M452.3,-69.25C438.27,-58.74 419.97,-45.01 405.78,-34.37"/>
<polygon fill="#63b8ff" stroke="#63b8ff" points="408.03,-31.68 397.93,-28.48 403.83,-37.28 408.03,-31.68"/>
</a>
</g>
</g>
<!-- Node10 -->
<g id="Node000010" class="node">
<title>Node10</title>
<g id="a_Node000010"><a xlink:title=" ">
<polygon fill="#e0e0e0" stroke="#999999" points="522.12,-27.12 425.12,-27.12 425.12,-6.38 522.12,-6.38 522.12,-27.12"/>
<text text-anchor="middle" x="473.62" y="-13.62" font-family="Helvetica,sans-Serif" font-size="10.00">boost/assert.hpp</text>
</a>
</g>
</g>
<!-- Node5&#45;&gt;Node10 -->
<g id="edge9_Node000005_Node000010" class="edge">
<title>Node5&#45;&gt;Node10</title>
<g id="a_edge9_Node000005_Node000010"><a xlink:title=" ">
<path fill="none" stroke="#63b8ff" d="M473.62,-69.25C473.62,-60.15 473.62,-48.64 473.62,-38.82"/>
<polygon fill="#63b8ff" stroke="#63b8ff" points="477.13,-39.09 473.63,-29.09 470.13,-39.09 477.13,-39.09"/>
</a>
</g>
</g>
<!-- Node11 -->
<g id="Node000011" class="node">
<title>Node11</title>
<g id="a_Node000011"><a xlink:title=" ">
<polygon fill="#e0e0e0" stroke="#999999" points="661.5,-27.12 539.75,-27.12 539.75,-6.38 661.5,-6.38 661.5,-27.12"/>
<text text-anchor="middle" x="600.62" y="-13.62" font-family="Helvetica,sans-Serif" font-size="10.00">boost/timer/timer.hpp</text>
</a>
</g>
</g>
<!-- Node5&#45;&gt;Node11 -->
<g id="edge10_Node000005_Node000011" class="edge">
<title>Node5&#45;&gt;Node11</title>
<g id="a_edge10_Node000005_Node000011"><a xlink:title=" ">
<path fill="none" stroke="#63b8ff" d="M504.04,-69.08C524.79,-58.06 552.07,-43.55 572.35,-32.78"/>
<polygon fill="#63b8ff" stroke="#63b8ff" points="573.72,-36.02 580.9,-28.23 570.43,-29.83 573.72,-36.02"/>
</a>
</g>
</g>
<!-- Node12 -->
<g id="Node000012" class="node">
<title>Node12</title>
<g id="a_Node000012"><a xlink:title=" ">
<polygon fill="#e0e0e0" stroke="#999999" points="747.88,-27.12 679.38,-27.12 679.38,-6.38 747.88,-6.38 747.88,-27.12"/>
<text text-anchor="middle" x="713.62" y="-13.62" font-family="Helvetica,sans-Serif" font-size="10.00">Eigen/Core</text>
</a>
</g>
</g>
<!-- Node5&#45;&gt;Node12 -->
<g id="edge11_Node000005_Node000012" class="edge">
<title>Node5&#45;&gt;Node12</title>
<g id="a_edge11_Node000005_Node000012"><a xlink:title=" ">
<path fill="none" stroke="#63b8ff" d="M538.39,-69.87C577.03,-60.29 626.93,-47.21 670.62,-33.5 672.88,-32.79 675.19,-32.04 677.51,-31.26"/>
<polygon fill="#63b8ff" stroke="#63b8ff" points="678.59,-34.59 686.87,-27.98 676.27,-27.98 678.59,-34.59"/>
</a>
</g>
</g>
<!-- Node13 -->
<g id="Node000013" class="node">
<title>Node13</title>
<g id="a_Node000013"><a xlink:title=" ">
<polygon fill="#e0e0e0" stroke="#999999" points="861,-27.12 766.25,-27.12 766.25,-6.38 861,-6.38 861,-27.12"/>
<text text-anchor="middle" x="813.62" y="-13.62" font-family="Helvetica,sans-Serif" font-size="10.00">Eigen/Geometry</text>
</a>
</g>
</g>
<!-- Node5&#45;&gt;Node13 -->
<g id="edge12_Node000005_Node000013" class="edge">
<title>Node5&#45;&gt;Node13</title>
<g id="a_edge12_Node000005_Node000013"><a xlink:title=" ">
<path fill="none" stroke="#63b8ff" d="M538.59,-75.05C596.17,-65.62 682.38,-50.51 756.62,-33.5 760.67,-32.57 764.85,-31.55 769.03,-30.48"/>
<polygon fill="#63b8ff" stroke="#63b8ff" points="769.76,-33.91 778.53,-27.96 767.97,-27.14 769.76,-33.91"/>
</a>
</g>
</g>
<!-- Node14 -->
<g id="Node000014" class="node">
<title>Node14</title>
<g id="a_Node000014"><a xlink:title=" ">
<polygon fill="#e0e0e0" stroke="#999999" points="1000.5,-33.5 878.75,-33.5 878.75,0 1000.5,0 1000.5,-33.5"/>
<text text-anchor="start" x="886.75" y="-20" font-family="Helvetica,sans-Serif" font-size="10.00">boost/math/constants</text>
<text text-anchor="middle" x="939.62" y="-7.25" font-family="Helvetica,sans-Serif" font-size="10.00">/constants.hpp</text>
</a>
</g>
</g>
<!-- Node5&#45;&gt;Node14 -->
<g id="edge13_Node000005_Node000014" class="edge">
<title>Node5&#45;&gt;Node14</title>
<g id="a_edge13_Node000005_Node000014"><a xlink:title=" ">
<path fill="none" stroke="#63b8ff" d="M538.72,-78.59C615.12,-70.36 745.8,-55 867.61,-33.76"/>
<polygon fill="#63b8ff" stroke="#63b8ff" points="867.88,-37.27 877.12,-32.09 866.66,-30.37 867.88,-37.27"/>
</a>
</g>
</g>
<!-- Node15 -->
<g id="Node000015" class="node">
<title>Node15</title>
<g id="a_Node000015"><a xlink:title=" ">
<polygon fill="#e0e0e0" stroke="#999999" points="1072.75,-27.12 1018.5,-27.12 1018.5,-6.38 1072.75,-6.38 1072.75,-27.12"/>
<text text-anchor="middle" x="1045.62" y="-13.62" font-family="Helvetica,sans-Serif" font-size="10.00">fstream</text>
</a>
</g>
</g>
<!-- Node5&#45;&gt;Node15 -->
<g id="edge15_Node000005_Node000015" class="edge">
<title>Node5&#45;&gt;Node15</title>
<g id="a_edge15_Node000005_Node000015"><a xlink:title=" ">
<path fill="none" stroke="#63b8ff" d="M538.71,-85.53C640.74,-84.51 843.82,-76.6 1009.62,-33.5 1011.62,-32.98 1013.64,-32.37 1015.66,-31.69"/>
<polygon fill="#63b8ff" stroke="#63b8ff" points="1016.76,-35.01 1024.81,-28.12 1014.22,-28.49 1016.76,-35.01"/>
</a>
</g>
</g>
<!-- Node16 -->
<g id="Node000016" class="node">
<title>Node16</title>
<g id="a_Node000016"><a xlink:title=" ">
<polygon fill="#e0e0e0" stroke="#999999" points="1220.25,-33.5 1091,-33.5 1091,0 1220.25,0 1220.25,-33.5"/>
<text text-anchor="start" x="1099" y="-20" font-family="Helvetica,sans-Serif" font-size="10.00">state&#45;observation/tools</text>
<text text-anchor="middle" x="1155.62" y="-7.25" font-family="Helvetica,sans-Serif" font-size="10.00">/definitions.hxx</text>
</a>
</g>
</g>
<!-- Node5&#45;&gt;Node16 -->
<g id="edge16_Node000005_Node000016" class="edge">
<title>Node5&#45;&gt;Node16</title>
<g id="a_edge16_Node000005_Node000016"><a xlink:title=" ">
<path fill="none" stroke="#63b8ff" d="M538.72,-82.38C648.3,-76.96 876.7,-63.17 1079.57,-33.68"/>
<polygon fill="#63b8ff" stroke="#63b8ff" points="1079.85,-37.18 1089.24,-32.26 1078.84,-30.25 1079.85,-37.18"/>
</a>
</g>
</g>
</g>
</svg>
