<?xml version="1.0" encoding="UTF-8" standalone="no"?>
<!DOCTYPE svg PUBLIC "-//W3C//DTD SVG 1.1//EN"
 "http://www.w3.org/Graphics/SVG/1.1/DTD/svg11.dtd">
<!-- Generated by graphviz version 12.2.1 (0)
 -->
<!-- Title: /build/source/include/state&#45;observation/tools/miscellaneous&#45;algorithms.hpp Pages: 1 -->
<svg width="1998pt" height="434pt"
 viewBox="0.00 0.00 1998.31 434.25" xmlns="http://www.w3.org/2000/svg" xmlns:xlink="http://www.w3.org/1999/xlink">
<g id="graph0" class="graph" transform="scale(1 1) rotate(0) translate(4 430.25)">
<title>/build/source/include/state&#45;observation/tools/miscellaneous&#45;algorithms.hpp</title>
<!-- Node1 -->
<g id="Node000001" class="node">
<title>Node1</title>
<g id="a_Node000001"><a xlink:title="Gathers many kinds of algorithms.">
<polygon fill="#999999" stroke="#666666" points="754.06,-426.25 587.31,-426.25 587.31,-380 754.06,-380 754.06,-426.25"/>
<text text-anchor="start" x="595.31" y="-412.75" font-family="Helvetica,sans-Serif" font-size="10.00">/build/source/include</text>
<text text-anchor="start" x="595.31" y="-400" font-family="Helvetica,sans-Serif" font-size="10.00">/state&#45;observation/tools</text>
<text text-anchor="middle" x="670.68" y="-387.25" font-family="Helvetica,sans-Serif" font-size="10.00">/miscellaneous&#45;algorithms.hpp</text>
</a>
</g>
</g>
<!-- Node2 -->
<g id="Node000002" class="node">
<title>Node2</title>
<g id="a_Node000002"><a xlink:href="lipm-dcm-estimator_8hpp.html" target="_top" xlink:title=" ">
<polygon fill="white" stroke="#666666" points="214.18,-242.62 21.18,-242.62 21.18,-196.38 214.18,-196.38 214.18,-242.62"/>
<text text-anchor="start" x="29.18" y="-229.12" font-family="Helvetica,sans-Serif" font-size="10.00">/build/source/include</text>
<text text-anchor="start" x="29.18" y="-216.38" font-family="Helvetica,sans-Serif" font-size="10.00">/state&#45;observation/dynamics</text>
<text text-anchor="middle" x="117.68" y="-203.62" font-family="Helvetica,sans-Serif" font-size="10.00">&#45;estimators/lipm&#45;dcm&#45;estimator.hpp</text>
</a>
</g>
</g>
<!-- Node1&#45;&gt;Node2 -->
<g id="edge1_Node000001_Node000002" class="edge">
<title>Node1&#45;&gt;Node2</title>
<g id="a_edge1_Node000001_Node000002"><a xlink:title=" ">
<path fill="none" stroke="#63b8ff" d="M575.96,-380.37C534.99,-370.32 486.67,-357.6 443.68,-344 346.31,-313.19 235.65,-269.34 171.54,-243.02"/>
<polygon fill="#63b8ff" stroke="#63b8ff" points="575.02,-383.74 585.56,-382.71 576.68,-376.94 575.02,-383.74"/>
</a>
</g>
</g>
<!-- Node3 -->
<g id="Node000003" class="node">
<title>Node3</title>
<g id="a_Node000003"><a xlink:href="unidim-lipm-dcm-estimator_8hpp.html" target="_top" xlink:title=" ">
<polygon fill="white" stroke="#666666" points="1990.31,-344 1831.06,-344 1831.06,-285 1990.31,-285 1990.31,-344"/>
<text text-anchor="start" x="1839.06" y="-330.5" font-family="Helvetica,sans-Serif" font-size="10.00">/build/source/include</text>
<text text-anchor="start" x="1839.06" y="-317.75" font-family="Helvetica,sans-Serif" font-size="10.00">/state&#45;observation/dynamics</text>
<text text-anchor="start" x="1839.06" y="-305" font-family="Helvetica,sans-Serif" font-size="10.00">&#45;estimators/unidim&#45;lipm&#45;dcm</text>
<text text-anchor="middle" x="1910.68" y="-292.25" font-family="Helvetica,sans-Serif" font-size="10.00">&#45;estimator.hpp</text>
</a>
</g>
</g>
<!-- Node1&#45;&gt;Node3 -->
<g id="edge2_Node000001_Node000003" class="edge">
<title>Node1&#45;&gt;Node3</title>
<g id="a_edge2_Node000001_Node000003"><a xlink:title=" ">
<path fill="none" stroke="#63b8ff" d="M765.85,-400.28C1003.03,-395.2 1615.74,-379.02 1816.68,-344 1821.3,-343.19 1826.01,-342.23 1830.74,-341.16"/>
<polygon fill="#63b8ff" stroke="#63b8ff" points="765.94,-396.78 756.01,-400.49 766.09,-403.78 765.94,-396.78"/>
</a>
</g>
</g>
<!-- Node4 -->
<g id="Node000004" class="node">
<title>Node4</title>
<g id="a_Node000004"><a xlink:href="zmp-tracking-gain-estimator_8hpp_source.html" target="_top" xlink:title=" ">
<polygon fill="white" stroke="#666666" points="387.43,-249 231.93,-249 231.93,-190 387.43,-190 387.43,-249"/>
<text text-anchor="start" x="239.93" y="-235.5" font-family="Helvetica,sans-Serif" font-size="10.00">/build/source/include</text>
<text text-anchor="start" x="239.93" y="-222.75" font-family="Helvetica,sans-Serif" font-size="10.00">/state&#45;observation/dynamics</text>
<text text-anchor="start" x="239.93" y="-210" font-family="Helvetica,sans-Serif" font-size="10.00">&#45;estimators/zmp&#45;tracking</text>
<text text-anchor="middle" x="309.68" y="-197.25" font-family="Helvetica,sans-Serif" font-size="10.00">&#45;gain&#45;estimator.hpp</text>
</a>
</g>
</g>
<!-- Node1&#45;&gt;Node4 -->
<g id="edge3_Node000001_Node000004" class="edge">
<title>Node1&#45;&gt;Node4</title>
<g id="a_edge3_Node000001_Node000004"><a xlink:title=" ">
<path fill="none" stroke="#63b8ff" d="M616.1,-374.67C549.03,-340.92 435.74,-283.92 367.3,-249.49"/>
<polygon fill="#63b8ff" stroke="#63b8ff" points="614.2,-377.62 624.7,-378.99 617.34,-371.37 614.2,-377.62"/>
</a>
</g>
</g>
<!-- Node5 -->
<g id="Node000005" class="node">
<title>Node5</title>
<g id="a_Node000005"><a xlink:href="imu-attitude-trajectory-reconstruction_8hpp.html" target="_top" xlink:title="Gives an implementation of attitude estimation for IMU reconstruction with or without given input....">
<polygon fill="white" stroke="#666666" points="325.81,-154 169.56,-154 169.56,-95 325.81,-95 325.81,-154"/>
<text text-anchor="start" x="177.56" y="-140.5" font-family="Helvetica,sans-Serif" font-size="10.00">/build/source/include</text>
<text text-anchor="start" x="177.56" y="-127.75" font-family="Helvetica,sans-Serif" font-size="10.00">/state&#45;observation/examples</text>
<text text-anchor="start" x="177.56" y="-115" font-family="Helvetica,sans-Serif" font-size="10.00">/imu&#45;attitude&#45;trajectory</text>
<text text-anchor="middle" x="247.68" y="-102.25" font-family="Helvetica,sans-Serif" font-size="10.00">&#45;reconstruction.hpp</text>
</a>
</g>
</g>
<!-- Node1&#45;&gt;Node5 -->
<g id="edge4_Node000001_Node000005" class="edge">
<title>Node1&#45;&gt;Node5</title>
<g id="a_edge4_Node000001_Node000005"><a xlink:title=" ">
<path fill="none" stroke="#63b8ff" d="M575.67,-395.11C409.14,-380.54 76.09,-340.39 11.68,-249 -3.42,-227.57 -4.23,-210.84 11.68,-190 30.95,-164.76 108.2,-147.01 169.14,-136.6"/>
<polygon fill="#63b8ff" stroke="#63b8ff" points="575.1,-398.58 585.37,-395.95 575.7,-391.6 575.1,-398.58"/>
</a>
</g>
</g>
<!-- Node6 -->
<g id="Node000006" class="node">
<title>Node6</title>
<g id="a_Node000006"><a xlink:href="imu-multiplicative-attitude-reconstruction_8hpp_source.html" target="_top" xlink:title=" ">
<polygon fill="white" stroke="#666666" points="1820.81,-154 1664.56,-154 1664.56,-95 1820.81,-95 1820.81,-154"/>
<text text-anchor="start" x="1672.56" y="-140.5" font-family="Helvetica,sans-Serif" font-size="10.00">/build/source/include</text>
<text text-anchor="start" x="1672.56" y="-127.75" font-family="Helvetica,sans-Serif" font-size="10.00">/state&#45;observation/examples</text>
<text text-anchor="start" x="1672.56" y="-115" font-family="Helvetica,sans-Serif" font-size="10.00">/imu&#45;multiplicative&#45;attitude</text>
<text text-anchor="middle" x="1742.68" y="-102.25" font-family="Helvetica,sans-Serif" font-size="10.00">&#45;reconstruction.hpp</text>
</a>
</g>
</g>
<!-- Node1&#45;&gt;Node6 -->
<g id="edge5_Node000001_Node000006" class="edge">
<title>Node1&#45;&gt;Node6</title>
<g id="a_edge5_Node000001_Node000006"><a xlink:title=" ">
<path fill="none" stroke="#63b8ff" d="M765.33,-396.13C1022.07,-378.9 1716.94,-325.55 1783.68,-249 1807.06,-222.18 1786.16,-181.61 1766.61,-154.37"/>
<polygon fill="#63b8ff" stroke="#63b8ff" points="765.43,-392.61 755.69,-396.77 765.9,-399.6 765.43,-392.61"/>
</a>
</g>
</g>
<!-- Node7 -->
<g id="Node000007" class="node">
<title>Node7</title>
<g id="a_Node000007"><a xlink:href="rigid-body-kinematics_8hpp.html" target="_top" xlink:title="Implements integrators for the kinematics, in terms or rotations and translations.">
<polygon fill="white" stroke="#666666" points="900.31,-337.62 753.06,-337.62 753.06,-291.38 900.31,-291.38 900.31,-337.62"/>
<text text-anchor="start" x="761.06" y="-324.12" font-family="Helvetica,sans-Serif" font-size="10.00">/build/source/include</text>
<text text-anchor="start" x="761.06" y="-311.38" font-family="Helvetica,sans-Serif" font-size="10.00">/state&#45;observation/tools</text>
<text text-anchor="middle" x="826.68" y="-298.62" font-family="Helvetica,sans-Serif" font-size="10.00">/rigid&#45;body&#45;kinematics.hpp</text>
</a>
</g>
</g>
<!-- Node1&#45;&gt;Node7 -->
<g id="edge6_Node000001_Node000007" class="edge">
<title>Node1&#45;&gt;Node7</title>
<g id="a_edge6_Node000001_Node000007"><a xlink:title=" ">
<path fill="none" stroke="#63b8ff" d="M721.28,-374.03C742.25,-362.39 766.24,-349.06 786.03,-338.07"/>
<polygon fill="#63b8ff" stroke="#63b8ff" points="719.63,-370.94 712.58,-378.86 723.03,-377.06 719.63,-370.94"/>
</a>
</g>
</g>
<!-- Node7&#45;&gt;Node2 -->
<g id="edge13_Node000007_Node000002" class="edge">
<title>Node7&#45;&gt;Node2</title>
<g id="a_edge13_Node000007_Node000002"><a xlink:title=" ">
<path fill="none" stroke="#63b8ff" d="M741.27,-308.66C623.7,-301.03 405.74,-283.39 222.68,-249 213.86,-247.34 204.7,-245.32 195.63,-243.12"/>
<polygon fill="#63b8ff" stroke="#63b8ff" points="740.97,-312.15 751.17,-309.29 741.41,-305.16 740.97,-312.15"/>
</a>
</g>
</g>
<!-- Node7&#45;&gt;Node4 -->
<g id="edge14_Node000007_Node000004" class="edge">
<title>Node7&#45;&gt;Node4</title>
<g id="a_edge14_Node000007_Node000004"><a xlink:title=" ">
<path fill="none" stroke="#63b8ff" d="M741.53,-305.12C653.99,-295.49 514.13,-277.27 395.68,-249 393.08,-248.38 390.45,-247.72 387.79,-247.02"/>
<polygon fill="#63b8ff" stroke="#63b8ff" points="740.91,-308.57 751.23,-306.17 741.67,-301.61 740.91,-308.57"/>
</a>
</g>
</g>
<!-- Node8 -->
<g id="Node000008" class="node">
<title>Node8</title>
<g id="a_Node000008"><a xlink:href="imu-dynamical-system_8hpp.html" target="_top" xlink:title="The file describes the dynamical system defined by an inertial measurement unit (IMU) fixed on a rigi...">
<polygon fill="white" stroke="#666666" points="598.18,-242.62 405.18,-242.62 405.18,-196.38 598.18,-196.38 598.18,-242.62"/>
<text text-anchor="start" x="413.18" y="-229.12" font-family="Helvetica,sans-Serif" font-size="10.00">/build/source/include</text>
<text text-anchor="start" x="413.18" y="-216.38" font-family="Helvetica,sans-Serif" font-size="10.00">/state&#45;observation/dynamical</text>
<text text-anchor="middle" x="501.68" y="-203.62" font-family="Helvetica,sans-Serif" font-size="10.00">&#45;system/imu&#45;dynamical&#45;system.hpp</text>
</a>
</g>
</g>
<!-- Node7&#45;&gt;Node8 -->
<g id="edge7_Node000007_Node000008" class="edge">
<title>Node7&#45;&gt;Node8</title>
<g id="a_edge7_Node000007_Node000008"><a xlink:title=" ">
<path fill="none" stroke="#63b8ff" d="M742.16,-289.31C692.23,-275.03 629.43,-257.06 580.53,-243.06"/>
<polygon fill="#63b8ff" stroke="#63b8ff" points="740.9,-292.59 751.48,-291.98 742.83,-285.86 740.9,-292.59"/>
</a>
</g>
</g>
<!-- Node9 -->
<g id="Node000009" class="node">
<title>Node9</title>
<g id="a_Node000009"><a xlink:href="imu-magnetometer-dynamical-system_8hpp.html" target="_top" xlink:title="The file describes the dynamical system defined by an inertial measurement unit (IMU) fixed on a rigi...">
<polygon fill="white" stroke="#666666" points="825.06,-249 616.31,-249 616.31,-190 825.06,-190 825.06,-249"/>
<text text-anchor="start" x="624.31" y="-235.5" font-family="Helvetica,sans-Serif" font-size="10.00">/build/source/include</text>
<text text-anchor="start" x="624.31" y="-222.75" font-family="Helvetica,sans-Serif" font-size="10.00">/state&#45;observation/dynamical</text>
<text text-anchor="start" x="624.31" y="-210" font-family="Helvetica,sans-Serif" font-size="10.00">&#45;system/imu&#45;magnetometer&#45;dynamical</text>
<text text-anchor="middle" x="720.68" y="-197.25" font-family="Helvetica,sans-Serif" font-size="10.00">&#45;system.hpp</text>
</a>
</g>
</g>
<!-- Node7&#45;&gt;Node9 -->
<g id="edge9_Node000007_Node000009" class="edge">
<title>Node7&#45;&gt;Node9</title>
<g id="a_edge9_Node000007_Node000009"><a xlink:title=" ">
<path fill="none" stroke="#63b8ff" d="M792.69,-283.67C780.21,-272.73 766.12,-260.37 753.73,-249.5"/>
<polygon fill="#63b8ff" stroke="#63b8ff" points="790.06,-286.02 799.88,-289.99 794.68,-280.76 790.06,-286.02"/>
</a>
</g>
</g>
<!-- Node10 -->
<g id="Node000010" class="node">
<title>Node10</title>
<g id="a_Node000010"><a xlink:href="imu-mltpctive-dynamical-system_8hpp_source.html" target="_top" xlink:title=" ">
<polygon fill="white" stroke="#666666" points="1774.93,-249 1592.43,-249 1592.43,-190 1774.93,-190 1774.93,-249"/>
<text text-anchor="start" x="1600.43" y="-235.5" font-family="Helvetica,sans-Serif" font-size="10.00">/build/source/include</text>
<text text-anchor="start" x="1600.43" y="-222.75" font-family="Helvetica,sans-Serif" font-size="10.00">/state&#45;observation/dynamical</text>
<text text-anchor="start" x="1600.43" y="-210" font-family="Helvetica,sans-Serif" font-size="10.00">&#45;system/imu&#45;mltpctive&#45;dynamical</text>
<text text-anchor="middle" x="1683.68" y="-197.25" font-family="Helvetica,sans-Serif" font-size="10.00">&#45;system.hpp</text>
</a>
</g>
</g>
<!-- Node7&#45;&gt;Node10 -->
<g id="edge10_Node000007_Node000010" class="edge">
<title>Node7&#45;&gt;Node10</title>
<g id="a_edge10_Node000007_Node000010"><a xlink:title=" ">
<path fill="none" stroke="#63b8ff" d="M911.76,-311.58C1052.59,-307.22 1342.57,-293.2 1583.68,-249 1586.43,-248.5 1589.22,-247.95 1592.02,-247.36"/>
<polygon fill="#63b8ff" stroke="#63b8ff" points="912.05,-308.07 902.16,-311.87 912.26,-315.07 912.05,-308.07"/>
</a>
</g>
</g>
<!-- Node11 -->
<g id="Node000011" class="node">
<title>Node11</title>
<g id="a_Node000011"><a xlink:href="kinetics-observer_8hpp.html" target="_top" xlink:title="Unified Kinetics estimator.">
<polygon fill="white" stroke="#666666" points="1023.81,-242.62 843.56,-242.62 843.56,-196.38 1023.81,-196.38 1023.81,-242.62"/>
<text text-anchor="start" x="851.56" y="-229.12" font-family="Helvetica,sans-Serif" font-size="10.00">/build/source/include</text>
<text text-anchor="start" x="851.56" y="-216.38" font-family="Helvetica,sans-Serif" font-size="10.00">/state&#45;observation/dynamics</text>
<text text-anchor="middle" x="933.68" y="-203.62" font-family="Helvetica,sans-Serif" font-size="10.00">&#45;estimators/kinetics&#45;observer.hpp</text>
</a>
</g>
</g>
<!-- Node7&#45;&gt;Node11 -->
<g id="edge12_Node000007_Node000011" class="edge">
<title>Node7&#45;&gt;Node11</title>
<g id="a_edge12_Node000007_Node000011"><a xlink:title=" ">
<path fill="none" stroke="#63b8ff" d="M861.22,-283.48C876.44,-270.26 894,-254.99 908.02,-242.81"/>
<polygon fill="#63b8ff" stroke="#63b8ff" points="858.98,-280.79 853.73,-289.99 863.57,-286.08 858.98,-280.79"/>
</a>
</g>
</g>
<!-- Node12 -->
<g id="Node000012" class="node">
<title>Node12</title>
<g id="a_Node000012"><a xlink:href="imu-elastic-local-frame-dynamical-system_8hpp_source.html" target="_top" xlink:title=" ">
<polygon fill="white" stroke="#666666" points="1205.93,-249 1041.43,-249 1041.43,-190 1205.93,-190 1205.93,-249"/>
<text text-anchor="start" x="1049.43" y="-235.5" font-family="Helvetica,sans-Serif" font-size="10.00">/build/source/include</text>
<text text-anchor="start" x="1049.43" y="-222.75" font-family="Helvetica,sans-Serif" font-size="10.00">/state&#45;observation/flexibility</text>
<text text-anchor="start" x="1049.43" y="-210" font-family="Helvetica,sans-Serif" font-size="10.00">&#45;estimation/imu&#45;elastic&#45;local</text>
<text text-anchor="middle" x="1123.68" y="-197.25" font-family="Helvetica,sans-Serif" font-size="10.00">&#45;frame&#45;dynamical&#45;system.hpp</text>
</a>
</g>
</g>
<!-- Node7&#45;&gt;Node12 -->
<g id="edge15_Node000007_Node000012" class="edge">
<title>Node7&#45;&gt;Node12</title>
<g id="a_edge15_Node000007_Node000012"><a xlink:title=" ">
<path fill="none" stroke="#63b8ff" d="M909.39,-287.6C950.51,-274.73 1000.06,-259.21 1041.16,-246.34"/>
<polygon fill="#63b8ff" stroke="#63b8ff" points="908.52,-284.21 900.02,-290.54 910.61,-290.89 908.52,-284.21"/>
</a>
</g>
</g>
<!-- Node15 -->
<g id="Node000015" class="node">
<title>Node15</title>
<g id="a_Node000015"><a xlink:href="imu-fixed-contact-dynamical-system_8hpp.html" target="_top" xlink:title="Definitions of the dynamical system of a robot flexibility with an IMU sensor.">
<polygon fill="white" stroke="#666666" points="1385.06,-249 1224.31,-249 1224.31,-190 1385.06,-190 1385.06,-249"/>
<text text-anchor="start" x="1232.31" y="-235.5" font-family="Helvetica,sans-Serif" font-size="10.00">/build/source/include</text>
<text text-anchor="start" x="1232.31" y="-222.75" font-family="Helvetica,sans-Serif" font-size="10.00">/state&#45;observation/flexibility</text>
<text text-anchor="start" x="1232.31" y="-210" font-family="Helvetica,sans-Serif" font-size="10.00">&#45;estimation/imu&#45;fixed&#45;contact</text>
<text text-anchor="middle" x="1304.68" y="-197.25" font-family="Helvetica,sans-Serif" font-size="10.00">&#45;dynamical&#45;system.hpp</text>
</a>
</g>
</g>
<!-- Node7&#45;&gt;Node15 -->
<g id="edge18_Node000007_Node000015" class="edge">
<title>Node7&#45;&gt;Node15</title>
<g id="a_edge18_Node000007_Node000015"><a xlink:title=" ">
<path fill="none" stroke="#63b8ff" d="M911.97,-302.87C991.05,-292.18 1111.69,-273.74 1214.68,-249 1217.71,-248.27 1220.78,-247.5 1223.88,-246.68"/>
<polygon fill="#63b8ff" stroke="#63b8ff" points="911.55,-299.39 902.11,-304.19 912.48,-306.33 911.55,-299.39"/>
</a>
</g>
</g>
<!-- Node18 -->
<g id="Node000018" class="node">
<title>Node18</title>
<g id="a_Node000018"><a xlink:href="stable-imu-fixed-contact-dynamical-system_8hpp_source.html" target="_top" xlink:title=" ">
<polygon fill="white" stroke="#666666" points="1574.31,-249 1403.06,-249 1403.06,-190 1574.31,-190 1574.31,-249"/>
<text text-anchor="start" x="1411.06" y="-235.5" font-family="Helvetica,sans-Serif" font-size="10.00">/build/source/include</text>
<text text-anchor="start" x="1411.06" y="-222.75" font-family="Helvetica,sans-Serif" font-size="10.00">/state&#45;observation/flexibility</text>
<text text-anchor="start" x="1411.06" y="-210" font-family="Helvetica,sans-Serif" font-size="10.00">&#45;estimation/stable&#45;imu&#45;fixed</text>
<text text-anchor="middle" x="1488.68" y="-197.25" font-family="Helvetica,sans-Serif" font-size="10.00">&#45;contact&#45;dynamical&#45;system.hpp</text>
</a>
</g>
</g>
<!-- Node7&#45;&gt;Node18 -->
<g id="edge21_Node000007_Node000018" class="edge">
<title>Node7&#45;&gt;Node18</title>
<g id="a_edge21_Node000007_Node000018"><a xlink:title=" ">
<path fill="none" stroke="#63b8ff" d="M911.91,-308.55C1023.51,-301 1224.79,-283.65 1393.68,-249 1396.63,-248.39 1399.63,-247.74 1402.64,-247.04"/>
<polygon fill="#63b8ff" stroke="#63b8ff" points="911.99,-305.04 902.25,-309.2 912.46,-312.03 911.99,-305.04"/>
</a>
</g>
</g>
<!-- Node8&#45;&gt;Node5 -->
<g id="edge8_Node000008_Node000005" class="edge">
<title>Node8&#45;&gt;Node5</title>
<g id="a_edge8_Node000008_Node000005"><a xlink:title=" ">
<path fill="none" stroke="#63b8ff" d="M429.47,-192.06C397.14,-180.22 358.94,-166.24 325.93,-154.15"/>
<polygon fill="#63b8ff" stroke="#63b8ff" points="428.18,-195.32 438.77,-195.47 430.59,-188.74 428.18,-195.32"/>
</a>
</g>
</g>
<!-- Node10&#45;&gt;Node6 -->
<g id="edge11_Node000010_Node000006" class="edge">
<title>Node10&#45;&gt;Node6</title>
<g id="a_edge11_Node000010_Node000006"><a xlink:title=" ">
<path fill="none" stroke="#63b8ff" d="M1708.04,-180.11C1713.49,-171.51 1719.19,-162.53 1724.35,-154.4"/>
<polygon fill="#63b8ff" stroke="#63b8ff" points="1705.24,-177.99 1702.84,-188.31 1711.15,-181.74 1705.24,-177.99"/>
</a>
</g>
</g>
<!-- Node13 -->
<g id="Node000013" class="node">
<title>Node13</title>
<g id="a_Node000013"><a xlink:href="model-base-ekf-flex-estimator-imu_8hpp.html" target="_top" xlink:title="Declares the class of the estimation of the flexibility using an extended Kalman filter and a fixed c...">
<polygon fill="white" stroke="#666666" points="1200.68,-154 1046.68,-154 1046.68,-95 1200.68,-95 1200.68,-154"/>
<text text-anchor="start" x="1054.68" y="-140.5" font-family="Helvetica,sans-Serif" font-size="10.00">/build/source/include</text>
<text text-anchor="start" x="1054.68" y="-127.75" font-family="Helvetica,sans-Serif" font-size="10.00">/state&#45;observation/flexibility</text>
<text text-anchor="start" x="1054.68" y="-115" font-family="Helvetica,sans-Serif" font-size="10.00">&#45;estimation/model&#45;base&#45;ekf</text>
<text text-anchor="middle" x="1123.68" y="-102.25" font-family="Helvetica,sans-Serif" font-size="10.00">&#45;flex&#45;estimator&#45;imu.hpp</text>
</a>
</g>
</g>
<!-- Node12&#45;&gt;Node13 -->
<g id="edge16_Node000012_Node000013" class="edge">
<title>Node12&#45;&gt;Node13</title>
<g id="a_edge16_Node000012_Node000013"><a xlink:title=" ">
<path fill="none" stroke="#63b8ff" d="M1123.68,-178.16C1123.68,-170.16 1123.68,-161.92 1123.68,-154.4"/>
<polygon fill="#63b8ff" stroke="#63b8ff" points="1120.18,-178.07 1123.68,-188.07 1127.18,-178.07 1120.18,-178.07"/>
</a>
</g>
</g>
<!-- Node14 -->
<g id="Node000014" class="node">
<title>Node14</title>
<g id="a_Node000014"><a xlink:href="offline-model-base-flex-estimation_8hpp_source.html" target="_top" xlink:title=" ">
<polygon fill="white" stroke="#666666" points="1201.81,-59 1045.56,-59 1045.56,0 1201.81,0 1201.81,-59"/>
<text text-anchor="start" x="1053.56" y="-45.5" font-family="Helvetica,sans-Serif" font-size="10.00">/build/source/include</text>
<text text-anchor="start" x="1053.56" y="-32.75" font-family="Helvetica,sans-Serif" font-size="10.00">/state&#45;observation/examples</text>
<text text-anchor="start" x="1053.56" y="-20" font-family="Helvetica,sans-Serif" font-size="10.00">/offline&#45;model&#45;base&#45;flex</text>
<text text-anchor="middle" x="1123.68" y="-7.25" font-family="Helvetica,sans-Serif" font-size="10.00">&#45;estimation.hpp</text>
</a>
</g>
</g>
<!-- Node13&#45;&gt;Node14 -->
<g id="edge17_Node000013_Node000014" class="edge">
<title>Node13&#45;&gt;Node14</title>
<g id="a_edge17_Node000013_Node000014"><a xlink:title=" ">
<path fill="none" stroke="#63b8ff" d="M1123.68,-83.16C1123.68,-75.16 1123.68,-66.92 1123.68,-59.4"/>
<polygon fill="#63b8ff" stroke="#63b8ff" points="1120.18,-83.07 1123.68,-93.07 1127.18,-83.07 1120.18,-83.07"/>
</a>
</g>
</g>
<!-- Node16 -->
<g id="Node000016" class="node">
<title>Node16</title>
<g id="a_Node000016"><a xlink:href="fixed-contact-ekf-flex-estimator-imu_8hpp.html" target="_top" xlink:title="Declares the class of the estimation of the flexibility using an extended Kalman filter and a fixed c...">
<polygon fill="white" stroke="#666666" points="1383.56,-154 1225.81,-154 1225.81,-95 1383.56,-95 1383.56,-154"/>
<text text-anchor="start" x="1233.81" y="-140.5" font-family="Helvetica,sans-Serif" font-size="10.00">/build/source/include</text>
<text text-anchor="start" x="1233.81" y="-127.75" font-family="Helvetica,sans-Serif" font-size="10.00">/state&#45;observation/flexibility</text>
<text text-anchor="start" x="1233.81" y="-115" font-family="Helvetica,sans-Serif" font-size="10.00">&#45;estimation/fixed&#45;contact&#45;ekf</text>
<text text-anchor="middle" x="1304.68" y="-102.25" font-family="Helvetica,sans-Serif" font-size="10.00">&#45;flex&#45;estimator&#45;imu.hpp</text>
</a>
</g>
</g>
<!-- Node15&#45;&gt;Node16 -->
<g id="edge19_Node000015_Node000016" class="edge">
<title>Node15&#45;&gt;Node16</title>
<g id="a_edge19_Node000015_Node000016"><a xlink:title=" ">
<path fill="none" stroke="#63b8ff" d="M1304.68,-178.16C1304.68,-170.16 1304.68,-161.92 1304.68,-154.4"/>
<polygon fill="#63b8ff" stroke="#63b8ff" points="1301.18,-178.07 1304.68,-188.07 1308.18,-178.07 1301.18,-178.07"/>
</a>
</g>
</g>
<!-- Node17 -->
<g id="Node000017" class="node">
<title>Node17</title>
<g id="a_Node000017"><a xlink:href="offline-ekf-flexibility-estimation_8hpp.html" target="_top" xlink:title="Gives an implementation of flexibility estimation for IMU reconstruction with or without given input ...">
<polygon fill="white" stroke="#666666" points="1382.81,-59 1226.56,-59 1226.56,0 1382.81,0 1382.81,-59"/>
<text text-anchor="start" x="1234.56" y="-45.5" font-family="Helvetica,sans-Serif" font-size="10.00">/build/source/include</text>
<text text-anchor="start" x="1234.56" y="-32.75" font-family="Helvetica,sans-Serif" font-size="10.00">/state&#45;observation/examples</text>
<text text-anchor="start" x="1234.56" y="-20" font-family="Helvetica,sans-Serif" font-size="10.00">/offline&#45;ekf&#45;flexibility</text>
<text text-anchor="middle" x="1304.68" y="-7.25" font-family="Helvetica,sans-Serif" font-size="10.00">&#45;estimation.hpp</text>
</a>
</g>
</g>
<!-- Node16&#45;&gt;Node17 -->
<g id="edge20_Node000016_Node000017" class="edge">
<title>Node16&#45;&gt;Node17</title>
<g id="a_edge20_Node000016_Node000017"><a xlink:title=" ">
<path fill="none" stroke="#63b8ff" d="M1304.68,-83.16C1304.68,-75.16 1304.68,-66.92 1304.68,-59.4"/>
<polygon fill="#63b8ff" stroke="#63b8ff" points="1301.18,-83.07 1304.68,-93.07 1308.18,-83.07 1301.18,-83.07"/>
</a>
</g>
</g>
</g>
</svg>
