<?xml version="1.0" encoding="UTF-8" standalone="no"?>
<!DOCTYPE svg PUBLIC "-//W3C//DTD SVG 1.1//EN"
 "http://www.w3.org/Graphics/SVG/1.1/DTD/svg11.dtd">
<!-- Generated by graphviz version 12.2.1 (0)
 -->
<!-- Title: /build/source/include/state&#45;observation/noise/noise&#45;base.hpp Pages: 1 -->
<svg width="1377pt" height="612pt"
 viewBox="0.00 0.00 1376.88 611.50" xmlns="http://www.w3.org/2000/svg" xmlns:xlink="http://www.w3.org/1999/xlink">
<g id="graph0" class="graph" transform="scale(1 1) rotate(0) translate(4 607.5)">
<title>/build/source/include/state&#45;observation/noise/noise&#45;base.hpp</title>
<!-- Node1 -->
<g id="Node000001" class="node">
<title>Node1</title>
<g id="a_Node000001"><a xlink:title=" ">
<polygon fill="#999999" stroke="#666666" points="774.75,-603.5 640.25,-603.5 640.25,-557.25 774.75,-557.25 774.75,-603.5"/>
<text text-anchor="start" x="648.25" y="-590" font-family="Helvetica,sans-Serif" font-size="10.00">/build/source/include</text>
<text text-anchor="start" x="648.25" y="-577.25" font-family="Helvetica,sans-Serif" font-size="10.00">/state&#45;observation/noise</text>
<text text-anchor="middle" x="707.5" y="-564.5" font-family="Helvetica,sans-Serif" font-size="10.00">/noise&#45;base.hpp</text>
</a>
</g>
</g>
<!-- Node2 -->
<g id="Node000002" class="node">
<title>Node2</title>
<g id="a_Node000002"><a xlink:href="bidim-elastic-inv-pendulum-dyn-sys_8hpp_source.html" target="_top" xlink:title=" ">
<polygon fill="white" stroke="#666666" points="464.12,-521.25 304.88,-521.25 304.88,-462.25 464.12,-462.25 464.12,-521.25"/>
<text text-anchor="start" x="312.88" y="-507.75" font-family="Helvetica,sans-Serif" font-size="10.00">/build/source/include</text>
<text text-anchor="start" x="312.88" y="-495" font-family="Helvetica,sans-Serif" font-size="10.00">/state&#45;observation/dynamical</text>
<text text-anchor="start" x="312.88" y="-482.25" font-family="Helvetica,sans-Serif" font-size="10.00">&#45;system/bidim&#45;elastic&#45;inv</text>
<text text-anchor="middle" x="384.5" y="-469.5" font-family="Helvetica,sans-Serif" font-size="10.00">&#45;pendulum&#45;dyn&#45;sys.hpp</text>
</a>
</g>
</g>
<!-- Node1&#45;&gt;Node2 -->
<g id="edge1_Node000001_Node000002" class="edge">
<title>Node1&#45;&gt;Node2</title>
<g id="a_edge1_Node000001_Node000002"><a xlink:title=" ">
<path fill="none" stroke="#63b8ff" d="M628.9,-560.37C584.6,-549.42 528.32,-535.12 478.5,-521.25 473.9,-519.97 469.18,-518.63 464.43,-517.25"/>
<polygon fill="#63b8ff" stroke="#63b8ff" points="627.88,-563.72 638.43,-562.72 629.56,-556.93 627.88,-563.72"/>
</a>
</g>
</g>
<!-- Node3 -->
<g id="Node000003" class="node">
<title>Node3</title>
<g id="a_Node000003"><a xlink:href="imu-dynamical-system_8hpp.html" target="_top" xlink:title="The file describes the dynamical system defined by an inertial measurement unit (IMU) fixed on a rigi...">
<polygon fill="white" stroke="#666666" points="193,-242.62 0,-242.62 0,-196.38 193,-196.38 193,-242.62"/>
<text text-anchor="start" x="8" y="-229.12" font-family="Helvetica,sans-Serif" font-size="10.00">/build/source/include</text>
<text text-anchor="start" x="8" y="-216.38" font-family="Helvetica,sans-Serif" font-size="10.00">/state&#45;observation/dynamical</text>
<text text-anchor="middle" x="96.5" y="-203.62" font-family="Helvetica,sans-Serif" font-size="10.00">&#45;system/imu&#45;dynamical&#45;system.hpp</text>
</a>
</g>
</g>
<!-- Node1&#45;&gt;Node3 -->
<g id="edge2_Node000001_Node000003" class="edge">
<title>Node1&#45;&gt;Node3</title>
<g id="a_edge2_Node000001_Node000003"><a xlink:title=" ">
<path fill="none" stroke="#63b8ff" d="M645.6,-552.06C625.54,-542.76 603.36,-531.99 583.5,-521.25 407.81,-426.23 207.79,-295.02 129.95,-243.02"/>
<polygon fill="#63b8ff" stroke="#63b8ff" points="643.94,-555.15 654.49,-556.15 646.87,-548.79 643.94,-555.15"/>
</a>
</g>
</g>
<!-- Node5 -->
<g id="Node000005" class="node">
<title>Node5</title>
<g id="a_Node000005"><a xlink:href="imu-magnetometer-dynamical-system_8hpp.html" target="_top" xlink:title="The file describes the dynamical system defined by an inertial measurement unit (IMU) fixed on a rigi...">
<polygon fill="white" stroke="#666666" points="1368.88,-249 1160.12,-249 1160.12,-190 1368.88,-190 1368.88,-249"/>
<text text-anchor="start" x="1168.12" y="-235.5" font-family="Helvetica,sans-Serif" font-size="10.00">/build/source/include</text>
<text text-anchor="start" x="1168.12" y="-222.75" font-family="Helvetica,sans-Serif" font-size="10.00">/state&#45;observation/dynamical</text>
<text text-anchor="start" x="1168.12" y="-210" font-family="Helvetica,sans-Serif" font-size="10.00">&#45;system/imu&#45;magnetometer&#45;dynamical</text>
<text text-anchor="middle" x="1264.5" y="-197.25" font-family="Helvetica,sans-Serif" font-size="10.00">&#45;system.hpp</text>
</a>
</g>
</g>
<!-- Node1&#45;&gt;Node5 -->
<g id="edge4_Node000001_Node000005" class="edge">
<title>Node1&#45;&gt;Node5</title>
<g id="a_edge4_Node000001_Node000005"><a xlink:title=" ">
<path fill="none" stroke="#63b8ff" d="M786.55,-571.82C869.12,-562.78 992.13,-545.74 1032.5,-521.25 1089.72,-486.53 1202.08,-317.76 1246.14,-249.37"/>
<polygon fill="#63b8ff" stroke="#63b8ff" points="786.26,-568.33 776.69,-572.88 787,-575.29 786.26,-568.33"/>
</a>
</g>
</g>
<!-- Node6 -->
<g id="Node000006" class="node">
<title>Node6</title>
<g id="a_Node000006"><a xlink:href="imu-mltpctive-dynamical-system_8hpp_source.html" target="_top" xlink:title=" ">
<polygon fill="white" stroke="#666666" points="393.75,-249 211.25,-249 211.25,-190 393.75,-190 393.75,-249"/>
<text text-anchor="start" x="219.25" y="-235.5" font-family="Helvetica,sans-Serif" font-size="10.00">/build/source/include</text>
<text text-anchor="start" x="219.25" y="-222.75" font-family="Helvetica,sans-Serif" font-size="10.00">/state&#45;observation/dynamical</text>
<text text-anchor="start" x="219.25" y="-210" font-family="Helvetica,sans-Serif" font-size="10.00">&#45;system/imu&#45;mltpctive&#45;dynamical</text>
<text text-anchor="middle" x="302.5" y="-197.25" font-family="Helvetica,sans-Serif" font-size="10.00">&#45;system.hpp</text>
</a>
</g>
</g>
<!-- Node1&#45;&gt;Node6 -->
<g id="edge5_Node000001_Node000006" class="edge">
<title>Node1&#45;&gt;Node6</title>
<g id="a_edge5_Node000001_Node000006"><a xlink:title=" ">
<path fill="none" stroke="#63b8ff" d="M652.49,-550.77C639.91,-542.45 627.35,-532.52 617.5,-521.25 579.33,-477.58 550.15,-323.2 506.5,-285 501.82,-280.9 446.14,-263.42 394.14,-247.69"/>
<polygon fill="#63b8ff" stroke="#63b8ff" points="650.46,-553.63 660.79,-556 654.2,-547.71 650.46,-553.63"/>
</a>
</g>
</g>
<!-- Node8 -->
<g id="Node000008" class="node">
<title>Node8</title>
<g id="a_Node000008"><a xlink:href="kinetics-observer_8hpp.html" target="_top" xlink:title="Unified Kinetics estimator.">
<polygon fill="white" stroke="#666666" points="591.62,-242.62 411.38,-242.62 411.38,-196.38 591.62,-196.38 591.62,-242.62"/>
<text text-anchor="start" x="419.38" y="-229.12" font-family="Helvetica,sans-Serif" font-size="10.00">/build/source/include</text>
<text text-anchor="start" x="419.38" y="-216.38" font-family="Helvetica,sans-Serif" font-size="10.00">/state&#45;observation/dynamics</text>
<text text-anchor="middle" x="501.5" y="-203.62" font-family="Helvetica,sans-Serif" font-size="10.00">&#45;estimators/kinetics&#45;observer.hpp</text>
</a>
</g>
</g>
<!-- Node1&#45;&gt;Node8 -->
<g id="edge7_Node000001_Node000008" class="edge">
<title>Node1&#45;&gt;Node8</title>
<g id="a_edge7_Node000001_Node000008"><a xlink:title=" ">
<path fill="none" stroke="#63b8ff" d="M676.24,-548.58C668.59,-540.14 660.79,-530.7 654.5,-521.25 590.3,-424.85 601.23,-385.98 544.5,-285 536.39,-270.57 526.15,-255.11 517.69,-242.95"/>
<polygon fill="#63b8ff" stroke="#63b8ff" points="673.68,-550.96 683.07,-555.87 678.79,-546.18 673.68,-550.96"/>
</a>
</g>
</g>
<!-- Node9 -->
<g id="Node000009" class="node">
<title>Node9</title>
<g id="a_Node000009"><a xlink:href="imu-elastic-local-frame-dynamical-system_8hpp_source.html" target="_top" xlink:title=" ">
<polygon fill="white" stroke="#666666" points="773.75,-249 609.25,-249 609.25,-190 773.75,-190 773.75,-249"/>
<text text-anchor="start" x="617.25" y="-235.5" font-family="Helvetica,sans-Serif" font-size="10.00">/build/source/include</text>
<text text-anchor="start" x="617.25" y="-222.75" font-family="Helvetica,sans-Serif" font-size="10.00">/state&#45;observation/flexibility</text>
<text text-anchor="start" x="617.25" y="-210" font-family="Helvetica,sans-Serif" font-size="10.00">&#45;estimation/imu&#45;elastic&#45;local</text>
<text text-anchor="middle" x="691.5" y="-197.25" font-family="Helvetica,sans-Serif" font-size="10.00">&#45;frame&#45;dynamical&#45;system.hpp</text>
</a>
</g>
</g>
<!-- Node1&#45;&gt;Node9 -->
<g id="edge8_Node000001_Node000009" class="edge">
<title>Node1&#45;&gt;Node9</title>
<g id="a_edge8_Node000001_Node000009"><a xlink:title=" ">
<path fill="none" stroke="#63b8ff" d="M692.2,-546.78C672.19,-502.17 638.21,-419.09 625.5,-344 621.13,-318.15 615.33,-309.17 625.5,-285 631.22,-271.41 641.35,-259.26 651.99,-249.27"/>
<polygon fill="#63b8ff" stroke="#63b8ff" points="688.89,-547.96 696.22,-555.62 695.27,-545.07 688.89,-547.96"/>
</a>
</g>
</g>
<!-- Node12 -->
<g id="Node000012" class="node">
<title>Node12</title>
<g id="a_Node000012"><a xlink:href="imu-fixed-contact-dynamical-system_8hpp.html" target="_top" xlink:title="Definitions of the dynamical system of a robot flexibility with an IMU sensor.">
<polygon fill="white" stroke="#666666" points="952.88,-249 792.12,-249 792.12,-190 952.88,-190 952.88,-249"/>
<text text-anchor="start" x="800.12" y="-235.5" font-family="Helvetica,sans-Serif" font-size="10.00">/build/source/include</text>
<text text-anchor="start" x="800.12" y="-222.75" font-family="Helvetica,sans-Serif" font-size="10.00">/state&#45;observation/flexibility</text>
<text text-anchor="start" x="800.12" y="-210" font-family="Helvetica,sans-Serif" font-size="10.00">&#45;estimation/imu&#45;fixed&#45;contact</text>
<text text-anchor="middle" x="872.5" y="-197.25" font-family="Helvetica,sans-Serif" font-size="10.00">&#45;dynamical&#45;system.hpp</text>
</a>
</g>
</g>
<!-- Node1&#45;&gt;Node12 -->
<g id="edge11_Node000001_Node000012" class="edge">
<title>Node1&#45;&gt;Node12</title>
<g id="a_edge11_Node000001_Node000012"><a xlink:title=" ">
<path fill="none" stroke="#63b8ff" d="M719.8,-546.59C740.86,-491.49 786.13,-377.31 833.5,-285 839.65,-273.01 847.17,-260.23 853.95,-249.23"/>
<polygon fill="#63b8ff" stroke="#63b8ff" points="716.62,-545.1 716.34,-555.69 723.17,-547.59 716.62,-545.1"/>
</a>
</g>
</g>
<!-- Node15 -->
<g id="Node000015" class="node">
<title>Node15</title>
<g id="a_Node000015"><a xlink:href="stable-imu-fixed-contact-dynamical-system_8hpp_source.html" target="_top" xlink:title=" ">
<polygon fill="white" stroke="#666666" points="1142.12,-249 970.88,-249 970.88,-190 1142.12,-190 1142.12,-249"/>
<text text-anchor="start" x="978.88" y="-235.5" font-family="Helvetica,sans-Serif" font-size="10.00">/build/source/include</text>
<text text-anchor="start" x="978.88" y="-222.75" font-family="Helvetica,sans-Serif" font-size="10.00">/state&#45;observation/flexibility</text>
<text text-anchor="start" x="978.88" y="-210" font-family="Helvetica,sans-Serif" font-size="10.00">&#45;estimation/stable&#45;imu&#45;fixed</text>
<text text-anchor="middle" x="1056.5" y="-197.25" font-family="Helvetica,sans-Serif" font-size="10.00">&#45;contact&#45;dynamical&#45;system.hpp</text>
</a>
</g>
</g>
<!-- Node1&#45;&gt;Node15 -->
<g id="edge14_Node000001_Node000015" class="edge">
<title>Node1&#45;&gt;Node15</title>
<g id="a_edge14_Node000001_Node000015"><a xlink:title=" ">
<path fill="none" stroke="#63b8ff" d="M786.42,-573.98C864.23,-566.97 975.68,-551.82 1005.5,-521.25 1042.95,-482.87 1053.06,-317.03 1055.66,-249.39"/>
<polygon fill="#63b8ff" stroke="#63b8ff" points="786.37,-570.48 776.71,-574.83 786.98,-577.45 786.37,-570.48"/>
</a>
</g>
</g>
<!-- Node16 -->
<g id="Node000016" class="node">
<title>Node16</title>
<g id="a_Node000016"><a xlink:href="gaussian-white-noise_8hpp.html" target="_top" xlink:title="Defines the class that implements a gaussian white noise.">
<polygon fill="white" stroke="#666666" points="1250.62,-514.88 1106.38,-514.88 1106.38,-468.62 1250.62,-468.62 1250.62,-514.88"/>
<text text-anchor="start" x="1114.38" y="-501.38" font-family="Helvetica,sans-Serif" font-size="10.00">/build/source/include</text>
<text text-anchor="start" x="1114.38" y="-488.62" font-family="Helvetica,sans-Serif" font-size="10.00">/state&#45;observation/noise</text>
<text text-anchor="middle" x="1178.5" y="-475.88" font-family="Helvetica,sans-Serif" font-size="10.00">/gaussian&#45;white&#45;noise.hpp</text>
</a>
</g>
</g>
<!-- Node1&#45;&gt;Node16 -->
<g id="edge15_Node000001_Node000016" class="edge">
<title>Node1&#45;&gt;Node16</title>
<g id="a_edge15_Node000001_Node000016"><a xlink:title=" ">
<path fill="none" stroke="#63b8ff" d="M786.16,-571.47C864.5,-562.67 987.86,-546.3 1092.5,-521.25 1099.69,-519.53 1107.14,-517.48 1114.51,-515.28"/>
<polygon fill="#63b8ff" stroke="#63b8ff" points="785.99,-567.96 776.44,-572.55 786.76,-574.92 785.99,-567.96"/>
</a>
</g>
</g>
<!-- Node17 -->
<g id="Node000017" class="node">
<title>Node17</title>
<g id="a_Node000017"><a xlink:href="sensor-base_8hpp.html" target="_top" xlink:title="Implements the base class of all sensors.">
<polygon fill="white" stroke="#666666" points="996.88,-514.88 842.12,-514.88 842.12,-468.62 996.88,-468.62 996.88,-514.88"/>
<text text-anchor="start" x="850.12" y="-501.38" font-family="Helvetica,sans-Serif" font-size="10.00">/build/source/include</text>
<text text-anchor="start" x="850.12" y="-488.62" font-family="Helvetica,sans-Serif" font-size="10.00">/state&#45;observation/sensors</text>
<text text-anchor="middle" x="919.5" y="-475.88" font-family="Helvetica,sans-Serif" font-size="10.00">&#45;simulation/sensor&#45;base.hpp</text>
</a>
</g>
</g>
<!-- Node1&#45;&gt;Node17 -->
<g id="edge16_Node000001_Node000017" class="edge">
<title>Node1&#45;&gt;Node17</title>
<g id="a_edge16_Node000001_Node000017"><a xlink:title=" ">
<path fill="none" stroke="#63b8ff" d="M773.17,-552.54C802.38,-540.61 836.38,-526.71 864.26,-515.32"/>
<polygon fill="#63b8ff" stroke="#63b8ff" points="771.98,-549.25 764.05,-556.27 774.63,-555.73 771.98,-549.25"/>
</a>
</g>
</g>
<!-- Node4 -->
<g id="Node000004" class="node">
<title>Node4</title>
<g id="a_Node000004"><a xlink:href="imu-attitude-trajectory-reconstruction_8hpp.html" target="_top" xlink:title="Gives an implementation of attitude estimation for IMU reconstruction with or without given input....">
<polygon fill="white" stroke="#666666" points="174.62,-154 18.38,-154 18.38,-95 174.62,-95 174.62,-154"/>
<text text-anchor="start" x="26.38" y="-140.5" font-family="Helvetica,sans-Serif" font-size="10.00">/build/source/include</text>
<text text-anchor="start" x="26.38" y="-127.75" font-family="Helvetica,sans-Serif" font-size="10.00">/state&#45;observation/examples</text>
<text text-anchor="start" x="26.38" y="-115" font-family="Helvetica,sans-Serif" font-size="10.00">/imu&#45;attitude&#45;trajectory</text>
<text text-anchor="middle" x="96.5" y="-102.25" font-family="Helvetica,sans-Serif" font-size="10.00">&#45;reconstruction.hpp</text>
</a>
</g>
</g>
<!-- Node3&#45;&gt;Node4 -->
<g id="edge3_Node000003_Node000004" class="edge">
<title>Node3&#45;&gt;Node4</title>
<g id="a_edge3_Node000003_Node000004"><a xlink:title=" ">
<path fill="none" stroke="#63b8ff" d="M96.5,-184.51C96.5,-174.66 96.5,-164.01 96.5,-154.5"/>
<polygon fill="#63b8ff" stroke="#63b8ff" points="93,-184.47 96.5,-194.47 100,-184.47 93,-184.47"/>
</a>
</g>
</g>
<!-- Node7 -->
<g id="Node000007" class="node">
<title>Node7</title>
<g id="a_Node000007"><a xlink:href="imu-multiplicative-attitude-reconstruction_8hpp_source.html" target="_top" xlink:title=" ">
<polygon fill="white" stroke="#666666" points="380.62,-154 224.38,-154 224.38,-95 380.62,-95 380.62,-154"/>
<text text-anchor="start" x="232.38" y="-140.5" font-family="Helvetica,sans-Serif" font-size="10.00">/build/source/include</text>
<text text-anchor="start" x="232.38" y="-127.75" font-family="Helvetica,sans-Serif" font-size="10.00">/state&#45;observation/examples</text>
<text text-anchor="start" x="232.38" y="-115" font-family="Helvetica,sans-Serif" font-size="10.00">/imu&#45;multiplicative&#45;attitude</text>
<text text-anchor="middle" x="302.5" y="-102.25" font-family="Helvetica,sans-Serif" font-size="10.00">&#45;reconstruction.hpp</text>
</a>
</g>
</g>
<!-- Node6&#45;&gt;Node7 -->
<g id="edge6_Node000006_Node000007" class="edge">
<title>Node6&#45;&gt;Node7</title>
<g id="a_edge6_Node000006_Node000007"><a xlink:title=" ">
<path fill="none" stroke="#63b8ff" d="M302.5,-178.16C302.5,-170.16 302.5,-161.92 302.5,-154.4"/>
<polygon fill="#63b8ff" stroke="#63b8ff" points="299,-178.07 302.5,-188.07 306,-178.07 299,-178.07"/>
</a>
</g>
</g>
<!-- Node10 -->
<g id="Node000010" class="node">
<title>Node10</title>
<g id="a_Node000010"><a xlink:href="model-base-ekf-flex-estimator-imu_8hpp.html" target="_top" xlink:title="Declares the class of the estimation of the flexibility using an extended Kalman filter and a fixed c...">
<polygon fill="white" stroke="#666666" points="768.5,-154 614.5,-154 614.5,-95 768.5,-95 768.5,-154"/>
<text text-anchor="start" x="622.5" y="-140.5" font-family="Helvetica,sans-Serif" font-size="10.00">/build/source/include</text>
<text text-anchor="start" x="622.5" y="-127.75" font-family="Helvetica,sans-Serif" font-size="10.00">/state&#45;observation/flexibility</text>
<text text-anchor="start" x="622.5" y="-115" font-family="Helvetica,sans-Serif" font-size="10.00">&#45;estimation/model&#45;base&#45;ekf</text>
<text text-anchor="middle" x="691.5" y="-102.25" font-family="Helvetica,sans-Serif" font-size="10.00">&#45;flex&#45;estimator&#45;imu.hpp</text>
</a>
</g>
</g>
<!-- Node9&#45;&gt;Node10 -->
<g id="edge9_Node000009_Node000010" class="edge">
<title>Node9&#45;&gt;Node10</title>
<g id="a_edge9_Node000009_Node000010"><a xlink:title=" ">
<path fill="none" stroke="#63b8ff" d="M691.5,-178.16C691.5,-170.16 691.5,-161.92 691.5,-154.4"/>
<polygon fill="#63b8ff" stroke="#63b8ff" points="688,-178.07 691.5,-188.07 695,-178.07 688,-178.07"/>
</a>
</g>
</g>
<!-- Node11 -->
<g id="Node000011" class="node">
<title>Node11</title>
<g id="a_Node000011"><a xlink:href="offline-model-base-flex-estimation_8hpp_source.html" target="_top" xlink:title=" ">
<polygon fill="white" stroke="#666666" points="769.62,-59 613.38,-59 613.38,0 769.62,0 769.62,-59"/>
<text text-anchor="start" x="621.38" y="-45.5" font-family="Helvetica,sans-Serif" font-size="10.00">/build/source/include</text>
<text text-anchor="start" x="621.38" y="-32.75" font-family="Helvetica,sans-Serif" font-size="10.00">/state&#45;observation/examples</text>
<text text-anchor="start" x="621.38" y="-20" font-family="Helvetica,sans-Serif" font-size="10.00">/offline&#45;model&#45;base&#45;flex</text>
<text text-anchor="middle" x="691.5" y="-7.25" font-family="Helvetica,sans-Serif" font-size="10.00">&#45;estimation.hpp</text>
</a>
</g>
</g>
<!-- Node10&#45;&gt;Node11 -->
<g id="edge10_Node000010_Node000011" class="edge">
<title>Node10&#45;&gt;Node11</title>
<g id="a_edge10_Node000010_Node000011"><a xlink:title=" ">
<path fill="none" stroke="#63b8ff" d="M691.5,-83.16C691.5,-75.16 691.5,-66.92 691.5,-59.4"/>
<polygon fill="#63b8ff" stroke="#63b8ff" points="688,-83.07 691.5,-93.07 695,-83.07 688,-83.07"/>
</a>
</g>
</g>
<!-- Node13 -->
<g id="Node000013" class="node">
<title>Node13</title>
<g id="a_Node000013"><a xlink:href="fixed-contact-ekf-flex-estimator-imu_8hpp.html" target="_top" xlink:title="Declares the class of the estimation of the flexibility using an extended Kalman filter and a fixed c...">
<polygon fill="white" stroke="#666666" points="951.38,-154 793.62,-154 793.62,-95 951.38,-95 951.38,-154"/>
<text text-anchor="start" x="801.62" y="-140.5" font-family="Helvetica,sans-Serif" font-size="10.00">/build/source/include</text>
<text text-anchor="start" x="801.62" y="-127.75" font-family="Helvetica,sans-Serif" font-size="10.00">/state&#45;observation/flexibility</text>
<text text-anchor="start" x="801.62" y="-115" font-family="Helvetica,sans-Serif" font-size="10.00">&#45;estimation/fixed&#45;contact&#45;ekf</text>
<text text-anchor="middle" x="872.5" y="-102.25" font-family="Helvetica,sans-Serif" font-size="10.00">&#45;flex&#45;estimator&#45;imu.hpp</text>
</a>
</g>
</g>
<!-- Node12&#45;&gt;Node13 -->
<g id="edge12_Node000012_Node000013" class="edge">
<title>Node12&#45;&gt;Node13</title>
<g id="a_edge12_Node000012_Node000013"><a xlink:title=" ">
<path fill="none" stroke="#63b8ff" d="M872.5,-178.16C872.5,-170.16 872.5,-161.92 872.5,-154.4"/>
<polygon fill="#63b8ff" stroke="#63b8ff" points="869,-178.07 872.5,-188.07 876,-178.07 869,-178.07"/>
</a>
</g>
</g>
<!-- Node14 -->
<g id="Node000014" class="node">
<title>Node14</title>
<g id="a_Node000014"><a xlink:href="offline-ekf-flexibility-estimation_8hpp.html" target="_top" xlink:title="Gives an implementation of flexibility estimation for IMU reconstruction with or without given input ...">
<polygon fill="white" stroke="#666666" points="950.62,-59 794.38,-59 794.38,0 950.62,0 950.62,-59"/>
<text text-anchor="start" x="802.38" y="-45.5" font-family="Helvetica,sans-Serif" font-size="10.00">/build/source/include</text>
<text text-anchor="start" x="802.38" y="-32.75" font-family="Helvetica,sans-Serif" font-size="10.00">/state&#45;observation/examples</text>
<text text-anchor="start" x="802.38" y="-20" font-family="Helvetica,sans-Serif" font-size="10.00">/offline&#45;ekf&#45;flexibility</text>
<text text-anchor="middle" x="872.5" y="-7.25" font-family="Helvetica,sans-Serif" font-size="10.00">&#45;estimation.hpp</text>
</a>
</g>
</g>
<!-- Node13&#45;&gt;Node14 -->
<g id="edge13_Node000013_Node000014" class="edge">
<title>Node13&#45;&gt;Node14</title>
<g id="a_edge13_Node000013_Node000014"><a xlink:title=" ">
<path fill="none" stroke="#63b8ff" d="M872.5,-83.16C872.5,-75.16 872.5,-66.92 872.5,-59.4"/>
<polygon fill="#63b8ff" stroke="#63b8ff" points="869,-83.07 872.5,-93.07 876,-83.07 869,-83.07"/>
</a>
</g>
</g>
<!-- Node18 -->
<g id="Node000018" class="node">
<title>Node18</title>
<g id="a_Node000018"><a xlink:href="algebraic-sensor_8hpp.html" target="_top" xlink:title="Gives a base class for algebraic sensors.">
<polygon fill="white" stroke="#666666" points="1012.38,-426.25 836.62,-426.25 836.62,-380 1012.38,-380 1012.38,-426.25"/>
<text text-anchor="start" x="844.62" y="-412.75" font-family="Helvetica,sans-Serif" font-size="10.00">/build/source/include</text>
<text text-anchor="start" x="844.62" y="-400" font-family="Helvetica,sans-Serif" font-size="10.00">/state&#45;observation/sensors</text>
<text text-anchor="middle" x="924.5" y="-387.25" font-family="Helvetica,sans-Serif" font-size="10.00">&#45;simulation/algebraic&#45;sensor.hpp</text>
</a>
</g>
</g>
<!-- Node17&#45;&gt;Node18 -->
<g id="edge17_Node000017_Node000018" class="edge">
<title>Node17&#45;&gt;Node18</title>
<g id="a_edge17_Node000017_Node000018"><a xlink:title=" ">
<path fill="none" stroke="#63b8ff" d="M921.45,-456.99C922.04,-446.82 922.67,-435.91 923.2,-426.66"/>
<polygon fill="#63b8ff" stroke="#63b8ff" points="917.96,-456.75 920.87,-466.93 924.95,-457.15 917.96,-456.75"/>
</a>
</g>
</g>
<!-- Node19 -->
<g id="Node000019" class="node">
<title>Node19</title>
<g id="a_Node000019"><a xlink:href="accelerometer-gyrometer-magnetometer_8hpp.html" target="_top" xlink:title="Implements the accelerometer&#45;gyrometer&#45;magnetometer inertial measurement unit.">
<polygon fill="white" stroke="#666666" points="1010.25,-344 842.75,-344 842.75,-285 1010.25,-285 1010.25,-344"/>
<text text-anchor="start" x="850.75" y="-330.5" font-family="Helvetica,sans-Serif" font-size="10.00">/build/source/include</text>
<text text-anchor="start" x="850.75" y="-317.75" font-family="Helvetica,sans-Serif" font-size="10.00">/state&#45;observation/sensors</text>
<text text-anchor="start" x="850.75" y="-305" font-family="Helvetica,sans-Serif" font-size="10.00">&#45;simulation/accelerometer</text>
<text text-anchor="middle" x="926.5" y="-292.25" font-family="Helvetica,sans-Serif" font-size="10.00">&#45;gyrometer&#45;magnetometer.hpp</text>
</a>
</g>
</g>
<!-- Node18&#45;&gt;Node19 -->
<g id="edge18_Node000018_Node000019" class="edge">
<title>Node18&#45;&gt;Node19</title>
<g id="a_edge18_Node000018_Node000019"><a xlink:title=" ">
<path fill="none" stroke="#63b8ff" d="M925.28,-368.55C925.46,-360.54 925.66,-352.05 925.84,-344.28"/>
<polygon fill="#63b8ff" stroke="#63b8ff" points="921.78,-368.23 925.05,-378.3 928.78,-368.39 921.78,-368.23"/>
</a>
</g>
</g>
<!-- Node20 -->
<g id="Node000020" class="node">
<title>Node20</title>
<g id="a_Node000020"><a xlink:href="accelerometer-gyrometer_8hpp.html" target="_top" xlink:title="Implements the accelerometer&#45;gyrometer inertial measuremen.">
<polygon fill="white" stroke="#666666" points="780.38,-344 634.62,-344 634.62,-285 780.38,-285 780.38,-344"/>
<text text-anchor="start" x="642.62" y="-330.5" font-family="Helvetica,sans-Serif" font-size="10.00">/build/source/include</text>
<text text-anchor="start" x="642.62" y="-317.75" font-family="Helvetica,sans-Serif" font-size="10.00">/state&#45;observation/sensors</text>
<text text-anchor="start" x="642.62" y="-305" font-family="Helvetica,sans-Serif" font-size="10.00">&#45;simulation/accelerometer</text>
<text text-anchor="middle" x="707.5" y="-292.25" font-family="Helvetica,sans-Serif" font-size="10.00">&#45;gyrometer.hpp</text>
</a>
</g>
</g>
<!-- Node18&#45;&gt;Node20 -->
<g id="edge20_Node000018_Node000020" class="edge">
<title>Node18&#45;&gt;Node20</title>
<g id="a_edge20_Node000018_Node000020"><a xlink:title=" ">
<path fill="none" stroke="#63b8ff" d="M857.4,-375.34C832.87,-365.55 805.02,-354.43 780.04,-344.46"/>
<polygon fill="#63b8ff" stroke="#63b8ff" points="856.06,-378.57 866.65,-379.03 858.66,-372.07 856.06,-378.57"/>
</a>
</g>
</g>
<!-- Node19&#45;&gt;Node5 -->
<g id="edge19_Node000019_Node000005" class="edge">
<title>Node19&#45;&gt;Node5</title>
<g id="a_edge19_Node000019_Node000005"><a xlink:title=" ">
<path fill="none" stroke="#63b8ff" d="M1021.54,-287.35C1064.58,-275.51 1115.61,-261.47 1159.76,-249.32"/>
<polygon fill="#63b8ff" stroke="#63b8ff" points="1020.66,-283.96 1011.94,-289.99 1022.51,-290.71 1020.66,-283.96"/>
</a>
</g>
</g>
<!-- Node20&#45;&gt;Node3 -->
<g id="edge21_Node000020_Node000003" class="edge">
<title>Node20&#45;&gt;Node3</title>
<g id="a_edge21_Node000020_Node000003"><a xlink:title=" ">
<path fill="none" stroke="#63b8ff" d="M623.56,-301.16C587.55,-295.98 544.98,-290.01 506.5,-285 371.58,-267.45 336.1,-274.73 202.5,-249 193.71,-247.31 184.57,-245.27 175.51,-243.08"/>
<polygon fill="#63b8ff" stroke="#63b8ff" points="622.62,-304.56 633.02,-302.52 623.62,-297.63 622.62,-304.56"/>
</a>
</g>
</g>
<!-- Node20&#45;&gt;Node6 -->
<g id="edge22_Node000020_Node000006" class="edge">
<title>Node20&#45;&gt;Node6</title>
<g id="a_edge22_Node000020_Node000006"><a xlink:title=" ">
<path fill="none" stroke="#63b8ff" d="M622.96,-297.26C561.54,-285.06 476.56,-267.36 402.5,-249 399.7,-248.3 396.85,-247.59 393.98,-246.85"/>
<polygon fill="#63b8ff" stroke="#63b8ff" points="622.17,-300.67 632.66,-299.18 623.53,-293.8 622.17,-300.67"/>
</a>
</g>
</g>
<!-- Node20&#45;&gt;Node8 -->
<g id="edge23_Node000020_Node000008" class="edge">
<title>Node20&#45;&gt;Node8</title>
<g id="a_edge23_Node000020_Node000008"><a xlink:title=" ">
<path fill="none" stroke="#63b8ff" d="M633.2,-279.96C606.03,-267.69 575.98,-254.12 551.44,-243.05"/>
<polygon fill="#63b8ff" stroke="#63b8ff" points="631.52,-283.04 642.07,-283.96 634.4,-276.66 631.52,-283.04"/>
</a>
</g>
</g>
<!-- Node20&#45;&gt;Node9 -->
<g id="edge24_Node000020_Node000009" class="edge">
<title>Node20&#45;&gt;Node9</title>
<g id="a_edge24_Node000020_Node000009"><a xlink:title=" ">
<path fill="none" stroke="#63b8ff" d="M700.61,-273.44C699.22,-265.36 697.78,-257.01 696.47,-249.4"/>
<polygon fill="#63b8ff" stroke="#63b8ff" points="697.12,-273.83 702.27,-283.09 704.02,-272.64 697.12,-273.83"/>
</a>
</g>
</g>
<!-- Node20&#45;&gt;Node12 -->
<g id="edge25_Node000020_Node000012" class="edge">
<title>Node20&#45;&gt;Node12</title>
<g id="a_edge25_Node000020_Node000012"><a xlink:title=" ">
<path fill="none" stroke="#63b8ff" d="M768.78,-278.96C786.04,-269.23 804.62,-258.76 821.23,-249.4"/>
<polygon fill="#63b8ff" stroke="#63b8ff" points="767.11,-275.88 760.12,-283.84 770.55,-281.98 767.11,-275.88"/>
</a>
</g>
</g>
<!-- Node20&#45;&gt;Node15 -->
<g id="edge26_Node000020_Node000015" class="edge">
<title>Node20&#45;&gt;Node15</title>
<g id="a_edge26_Node000020_Node000015"><a xlink:title=" ">
<path fill="none" stroke="#63b8ff" d="M791.79,-293.05C841.35,-280.8 905.14,-264.6 961.5,-249 964.49,-248.17 967.52,-247.32 970.59,-246.45"/>
<polygon fill="#63b8ff" stroke="#63b8ff" points="791.14,-289.61 782.27,-295.4 792.82,-296.41 791.14,-289.61"/>
</a>
</g>
</g>
</g>
</svg>
