<?xml version="1.0" encoding="UTF-8" standalone="no"?>
<!DOCTYPE svg PUBLIC "-//W3C//DTD SVG 1.1//EN"
 "http://www.w3.org/Graphics/SVG/1.1/DTD/svg11.dtd">
<!-- Generated by graphviz version 12.2.1 (0)
 -->
<!-- Title: /build/source/include/state&#45;observation/observer/observer&#45;base.hpp Pages: 1 -->
<svg width="1228pt" height="193pt"
 viewBox="0.00 0.00 1227.75 193.25" xmlns="http://www.w3.org/2000/svg" xmlns:xlink="http://www.w3.org/1999/xlink">
<g id="graph0" class="graph" transform="scale(1 1) rotate(0) translate(4 189.25)">
<title>/build/source/include/state&#45;observation/observer/observer&#45;base.hpp</title>
<!-- Node1 -->
<g id="Node000001" class="node">
<title>Node1</title>
<g id="a_Node000001"><a xlink:title="Defines the base class of a state observer. The observer is destinated to any dynamical system with a...">
<polygon fill="#999999" stroke="#666666" points="526,-185.25 375,-185.25 375,-139 526,-139 526,-185.25"/>
<text text-anchor="start" x="383" y="-171.75" font-family="Helvetica,sans-Serif" font-size="10.00">/build/source/include</text>
<text text-anchor="start" x="383" y="-159" font-family="Helvetica,sans-Serif" font-size="10.00">/state&#45;observation/observer</text>
<text text-anchor="middle" x="450.5" y="-146.25" font-family="Helvetica,sans-Serif" font-size="10.00">/observer&#45;base.hpp</text>
</a>
</g>
</g>
<!-- Node2 -->
<g id="Node000002" class="node">
<title>Node2</title>
<g id="a_Node000002"><a xlink:title=" ">
<polygon fill="#e0e0e0" stroke="#999999" points="97,-27.12 0,-27.12 0,-6.38 97,-6.38 97,-27.12"/>
<text text-anchor="middle" x="48.5" y="-13.62" font-family="Helvetica,sans-Serif" font-size="10.00">boost/assert.hpp</text>
</a>
</g>
</g>
<!-- Node1&#45;&gt;Node2 -->
<g id="edge1_Node000001_Node000002" class="edge">
<title>Node1&#45;&gt;Node2</title>
<g id="a_edge1_Node000001_Node000002"><a xlink:title=" ">
<path fill="none" stroke="#63b8ff" d="M382.13,-138.53C350.52,-127.95 312.52,-115.05 278.5,-103 209.86,-78.69 130.29,-48.81 85.02,-31.66"/>
<polygon fill="#63b8ff" stroke="#63b8ff" points="86.29,-28.4 75.7,-28.12 83.8,-34.94 86.29,-28.4"/>
</a>
</g>
</g>
<!-- Node3 -->
<g id="Node000003" class="node">
<title>Node3</title>
<g id="a_Node000003"><a xlink:title=" ">
<polygon fill="#e0e0e0" stroke="#999999" points="808.12,-96.62 678.88,-96.62 678.88,-75.88 808.12,-75.88 808.12,-96.62"/>
<text text-anchor="middle" x="743.5" y="-83.12" font-family="Helvetica,sans-Serif" font-size="10.00">boost/static_assert.hpp</text>
</a>
</g>
</g>
<!-- Node1&#45;&gt;Node3 -->
<g id="edge2_Node000001_Node000003" class="edge">
<title>Node1&#45;&gt;Node3</title>
<g id="a_edge2_Node000001_Node000003"><a xlink:title=" ">
<path fill="none" stroke="#63b8ff" d="M526.34,-142C578.86,-128.76 647.31,-111.5 693.2,-99.93"/>
<polygon fill="#63b8ff" stroke="#63b8ff" points="694.05,-103.33 702.89,-97.49 692.34,-96.54 694.05,-103.33"/>
</a>
</g>
</g>
<!-- Node4 -->
<g id="Node000004" class="node">
<title>Node4</title>
<g id="a_Node000004"><a xlink:title=" ">
<polygon fill="#e0e0e0" stroke="#999999" points="244.12,-27.12 114.88,-27.12 114.88,-6.38 244.12,-6.38 244.12,-27.12"/>
<text text-anchor="middle" x="179.5" y="-13.62" font-family="Helvetica,sans-Serif" font-size="10.00">state&#45;observation/api.h</text>
</a>
</g>
</g>
<!-- Node1&#45;&gt;Node4 -->
<g id="edge3_Node000001_Node000004" class="edge">
<title>Node1&#45;&gt;Node4</title>
<g id="a_edge3_Node000001_Node000004"><a xlink:title=" ">
<path fill="none" stroke="#63b8ff" d="M407.86,-138.56C352.01,-109.02 255.62,-58.02 207.92,-32.79"/>
<polygon fill="#63b8ff" stroke="#63b8ff" points="209.79,-29.81 199.31,-28.23 206.52,-36 209.79,-29.81"/>
</a>
</g>
</g>
<!-- Node5 -->
<g id="Node000005" class="node">
<title>Node5</title>
<g id="a_Node000005"><a xlink:href="definitions_8hpp.html" target="_top" xlink:title="Definitions of types and some structures.">
<polygon fill="white" stroke="#666666" points="661.12,-103 531.88,-103 531.88,-69.5 661.12,-69.5 661.12,-103"/>
<text text-anchor="start" x="539.88" y="-89.5" font-family="Helvetica,sans-Serif" font-size="10.00">state&#45;observation/tools</text>
<text text-anchor="middle" x="596.5" y="-76.75" font-family="Helvetica,sans-Serif" font-size="10.00">/definitions.hpp</text>
</a>
</g>
</g>
<!-- Node1&#45;&gt;Node5 -->
<g id="edge4_Node000001_Node000005" class="edge">
<title>Node1&#45;&gt;Node5</title>
<g id="a_edge4_Node000001_Node000005"><a xlink:title=" ">
<path fill="none" stroke="#63b8ff" d="M495.1,-138.56C513.97,-129.01 535.85,-117.94 554.44,-108.53"/>
<polygon fill="#63b8ff" stroke="#63b8ff" points="555.98,-111.68 563.32,-104.04 552.82,-105.43 555.98,-111.68"/>
</a>
</g>
</g>
<!-- Node5&#45;&gt;Node2 -->
<g id="edge9_Node000005_Node000002" class="edge">
<title>Node5&#45;&gt;Node2</title>
<g id="a_edge9_Node000005_Node000002"><a xlink:title=" ">
<path fill="none" stroke="#63b8ff" d="M531.67,-81.82C437.24,-76.06 256.67,-62.15 105.5,-33.5 100.9,-32.63 96.14,-31.57 91.41,-30.42"/>
<polygon fill="#63b8ff" stroke="#63b8ff" points="92.56,-27.1 82,-27.98 90.8,-33.87 92.56,-27.1"/>
</a>
</g>
</g>
<!-- Node5&#45;&gt;Node4 -->
<g id="edge14_Node000005_Node000004" class="edge">
<title>Node5&#45;&gt;Node4</title>
<g id="a_edge14_Node000005_Node000004"><a xlink:title=" ">
<path fill="none" stroke="#63b8ff" d="M531.51,-76.63C462.38,-67.18 349.93,-51.02 253.5,-33.5 247.44,-32.4 241.12,-31.17 234.84,-29.91"/>
<polygon fill="#63b8ff" stroke="#63b8ff" points="235.61,-26.49 225.11,-27.9 234.2,-33.35 235.61,-26.49"/>
</a>
</g>
</g>
<!-- Node6 -->
<g id="Node000006" class="node">
<title>Node6</title>
<g id="a_Node000006"><a xlink:title=" ">
<polygon fill="#e0e0e0" stroke="#999999" points="783,-27.12 734,-27.12 734,-6.38 783,-6.38 783,-27.12"/>
<text text-anchor="middle" x="758.5" y="-13.62" font-family="Helvetica,sans-Serif" font-size="10.00">chrono</text>
</a>
</g>
</g>
<!-- Node5&#45;&gt;Node6 -->
<g id="edge5_Node000005_Node000006" class="edge">
<title>Node5&#45;&gt;Node6</title>
<g id="a_edge5_Node000005_Node000006"><a xlink:title=" ">
<path fill="none" stroke="#63b8ff" d="M638.9,-69.03C664.21,-59.15 696.88,-46.05 725.5,-33.5 726.42,-33.1 727.34,-32.69 728.28,-32.27"/>
<polygon fill="#63b8ff" stroke="#63b8ff" points="729.36,-35.62 736.98,-28.25 726.43,-29.27 729.36,-35.62"/>
</a>
</g>
</g>
<!-- Node7 -->
<g id="Node000007" class="node">
<title>Node7</title>
<g id="a_Node000007"><a xlink:title=" ">
<polygon fill="#e0e0e0" stroke="#999999" points="847.5,-27.12 801.5,-27.12 801.5,-6.38 847.5,-6.38 847.5,-27.12"/>
<text text-anchor="middle" x="824.5" y="-13.62" font-family="Helvetica,sans-Serif" font-size="10.00">deque</text>
</a>
</g>
</g>
<!-- Node5&#45;&gt;Node7 -->
<g id="edge6_Node000005_Node000007" class="edge">
<title>Node5&#45;&gt;Node7</title>
<g id="a_edge6_Node000005_Node000007"><a xlink:title=" ">
<path fill="none" stroke="#63b8ff" d="M661.61,-69.54C708.89,-57.85 768.6,-42.43 792.5,-33.5 793.63,-33.08 794.78,-32.63 795.92,-32.16"/>
<polygon fill="#63b8ff" stroke="#63b8ff" points="797.1,-35.47 804.78,-28.17 794.23,-29.08 797.1,-35.47"/>
</a>
</g>
</g>
<!-- Node8 -->
<g id="Node000008" class="node">
<title>Node8</title>
<g id="a_Node000008"><a xlink:title=" ">
<polygon fill="#e0e0e0" stroke="#999999" points="929.5,-27.12 865.5,-27.12 865.5,-6.38 929.5,-6.38 929.5,-27.12"/>
<text text-anchor="middle" x="897.5" y="-13.62" font-family="Helvetica,sans-Serif" font-size="10.00">stdexcept</text>
</a>
</g>
</g>
<!-- Node5&#45;&gt;Node8 -->
<g id="edge7_Node000005_Node000008" class="edge">
<title>Node5&#45;&gt;Node8</title>
<g id="a_edge7_Node000005_Node000008"><a xlink:title=" ">
<path fill="none" stroke="#63b8ff" d="M661.36,-71.18C664.11,-70.61 666.83,-70.04 669.5,-69.5 752.43,-52.57 775.12,-56.77 856.5,-33.5 858.88,-32.82 861.32,-32.06 863.76,-31.25"/>
<polygon fill="#63b8ff" stroke="#63b8ff" points="864.66,-34.64 872.9,-27.98 862.31,-28.05 864.66,-34.64"/>
</a>
</g>
</g>
<!-- Node9 -->
<g id="Node000009" class="node">
<title>Node9</title>
<g id="a_Node000009"><a xlink:title=" ">
<polygon fill="#e0e0e0" stroke="#999999" points="993.88,-27.12 947.12,-27.12 947.12,-6.38 993.88,-6.38 993.88,-27.12"/>
<text text-anchor="middle" x="970.5" y="-13.62" font-family="Helvetica,sans-Serif" font-size="10.00">vector</text>
</a>
</g>
</g>
<!-- Node5&#45;&gt;Node9 -->
<g id="edge8_Node000005_Node000009" class="edge">
<title>Node5&#45;&gt;Node9</title>
<g id="a_edge8_Node000005_Node000009"><a xlink:title=" ">
<path fill="none" stroke="#63b8ff" d="M661.33,-70.98C664.08,-70.47 666.82,-69.97 669.5,-69.5 788.33,-48.76 823.1,-68.59 938.5,-33.5 940.06,-33.03 941.63,-32.49 943.2,-31.89"/>
<polygon fill="#63b8ff" stroke="#63b8ff" points="944.16,-35.29 951.93,-28.08 941.36,-28.88 944.16,-35.29"/>
</a>
</g>
</g>
<!-- Node10 -->
<g id="Node000010" class="node">
<title>Node10</title>
<g id="a_Node000010"><a xlink:title=" ">
<polygon fill="#e0e0e0" stroke="#999999" points="1133.38,-27.12 1011.62,-27.12 1011.62,-6.38 1133.38,-6.38 1133.38,-27.12"/>
<text text-anchor="middle" x="1072.5" y="-13.62" font-family="Helvetica,sans-Serif" font-size="10.00">boost/timer/timer.hpp</text>
</a>
</g>
</g>
<!-- Node5&#45;&gt;Node10 -->
<g id="edge10_Node000005_Node000010" class="edge">
<title>Node5&#45;&gt;Node10</title>
<g id="a_edge10_Node000005_Node000010"><a xlink:title=" ">
<path fill="none" stroke="#63b8ff" d="M661.31,-70.9C664.07,-70.4 666.81,-69.93 669.5,-69.5 816.46,-45.77 855.65,-57.88 1002.5,-33.5 1008.57,-32.49 1014.9,-31.29 1021.17,-30"/>
<polygon fill="#63b8ff" stroke="#63b8ff" points="1021.78,-33.45 1030.83,-27.93 1020.32,-26.6 1021.78,-33.45"/>
</a>
</g>
</g>
<!-- Node11 -->
<g id="Node000011" class="node">
<title>Node11</title>
<g id="a_Node000011"><a xlink:title=" ">
<polygon fill="#e0e0e0" stroke="#999999" points="1219.75,-27.12 1151.25,-27.12 1151.25,-6.38 1219.75,-6.38 1219.75,-27.12"/>
<text text-anchor="middle" x="1185.5" y="-13.62" font-family="Helvetica,sans-Serif" font-size="10.00">Eigen/Core</text>
</a>
</g>
</g>
<!-- Node5&#45;&gt;Node11 -->
<g id="edge11_Node000005_Node000011" class="edge">
<title>Node5&#45;&gt;Node11</title>
<g id="a_edge11_Node000005_Node000011"><a xlink:title=" ">
<path fill="none" stroke="#63b8ff" d="M661.3,-70.79C664.06,-70.32 666.81,-69.89 669.5,-69.5 878.14,-39.2 936.46,-78.18 1142.5,-33.5 1145.46,-32.86 1148.49,-32.06 1151.5,-31.16"/>
<polygon fill="#63b8ff" stroke="#63b8ff" points="1152.37,-34.56 1160.75,-28.09 1150.16,-27.92 1152.37,-34.56"/>
</a>
</g>
</g>
<!-- Node12 -->
<g id="Node000012" class="node">
<title>Node12</title>
<g id="a_Node000012"><a xlink:title=" ">
<polygon fill="#e0e0e0" stroke="#999999" points="356.88,-27.12 262.12,-27.12 262.12,-6.38 356.88,-6.38 356.88,-27.12"/>
<text text-anchor="middle" x="309.5" y="-13.62" font-family="Helvetica,sans-Serif" font-size="10.00">Eigen/Geometry</text>
</a>
</g>
</g>
<!-- Node5&#45;&gt;Node12 -->
<g id="edge12_Node000005_Node000012" class="edge">
<title>Node5&#45;&gt;Node12</title>
<g id="a_edge12_Node000005_Node000012"><a xlink:title=" ">
<path fill="none" stroke="#63b8ff" d="M531.56,-71.68C485.14,-61.74 421.29,-47.58 365.5,-33.5 361.93,-32.6 358.23,-31.63 354.53,-30.64"/>
<polygon fill="#63b8ff" stroke="#63b8ff" points="355.51,-27.28 344.94,-28.02 353.66,-34.03 355.51,-27.28"/>
</a>
</g>
</g>
<!-- Node13 -->
<g id="Node000013" class="node">
<title>Node13</title>
<g id="a_Node000013"><a xlink:title=" ">
<polygon fill="#e0e0e0" stroke="#999999" points="496.38,-33.5 374.62,-33.5 374.62,0 496.38,0 496.38,-33.5"/>
<text text-anchor="start" x="382.62" y="-20" font-family="Helvetica,sans-Serif" font-size="10.00">boost/math/constants</text>
<text text-anchor="middle" x="435.5" y="-7.25" font-family="Helvetica,sans-Serif" font-size="10.00">/constants.hpp</text>
</a>
</g>
</g>
<!-- Node5&#45;&gt;Node13 -->
<g id="edge13_Node000005_Node000013" class="edge">
<title>Node5&#45;&gt;Node13</title>
<g id="a_edge13_Node000005_Node000013"><a xlink:title=" ">
<path fill="none" stroke="#63b8ff" d="M557.94,-69.08C535.91,-59.85 508.08,-48.18 484.52,-38.3"/>
<polygon fill="#63b8ff" stroke="#63b8ff" points="486,-35.13 475.42,-34.49 483.29,-41.58 486,-35.13"/>
</a>
</g>
</g>
<!-- Node14 -->
<g id="Node000014" class="node">
<title>Node14</title>
<g id="a_Node000014"><a xlink:title=" ">
<polygon fill="#e0e0e0" stroke="#999999" points="568.62,-27.12 514.38,-27.12 514.38,-6.38 568.62,-6.38 568.62,-27.12"/>
<text text-anchor="middle" x="541.5" y="-13.62" font-family="Helvetica,sans-Serif" font-size="10.00">fstream</text>
</a>
</g>
</g>
<!-- Node5&#45;&gt;Node14 -->
<g id="edge15_Node000005_Node000014" class="edge">
<title>Node5&#45;&gt;Node14</title>
<g id="a_edge15_Node000005_Node000014"><a xlink:title=" ">
<path fill="none" stroke="#63b8ff" d="M583.47,-69.25C575.39,-59.34 564.99,-46.58 556.56,-36.24"/>
<polygon fill="#63b8ff" stroke="#63b8ff" points="559.49,-34.29 550.46,-28.75 554.06,-38.71 559.49,-34.29"/>
</a>
</g>
</g>
<!-- Node15 -->
<g id="Node000015" class="node">
<title>Node15</title>
<g id="a_Node000015"><a xlink:title=" ">
<polygon fill="#e0e0e0" stroke="#999999" points="716.12,-33.5 586.88,-33.5 586.88,0 716.12,0 716.12,-33.5"/>
<text text-anchor="start" x="594.88" y="-20" font-family="Helvetica,sans-Serif" font-size="10.00">state&#45;observation/tools</text>
<text text-anchor="middle" x="651.5" y="-7.25" font-family="Helvetica,sans-Serif" font-size="10.00">/definitions.hxx</text>
</a>
</g>
</g>
<!-- Node5&#45;&gt;Node15 -->
<g id="edge16_Node000005_Node000015" class="edge">
<title>Node5&#45;&gt;Node15</title>
<g id="a_edge16_Node000005_Node000015"><a xlink:title=" ">
<path fill="none" stroke="#63b8ff" d="M609.53,-69.25C616.04,-61.27 624.06,-51.43 631.34,-42.5"/>
<polygon fill="#63b8ff" stroke="#63b8ff" points="634,-44.77 637.6,-34.81 628.57,-40.35 634,-44.77"/>
</a>
</g>
</g>
</g>
</svg>
