<?xml version="1.0" encoding="UTF-8" standalone="no"?>
<!DOCTYPE svg PUBLIC "-//W3C//DTD SVG 1.1//EN"
 "http://www.w3.org/Graphics/SVG/1.1/DTD/svg11.dtd">
<!-- Generated by graphviz version 12.2.1 (0)
 -->
<!-- Title: /build/source/include/state&#45;observation/observer/observer&#45;base.hpp Pages: 1 -->
<svg width="1270pt" height="586pt"
 viewBox="0.00 0.00 1269.88 586.00" xmlns="http://www.w3.org/2000/svg" xmlns:xlink="http://www.w3.org/1999/xlink">
<g id="graph0" class="graph" transform="scale(1 1) rotate(0) translate(4 582)">
<title>/build/source/include/state&#45;observation/observer/observer&#45;base.hpp</title>
<!-- Node1 -->
<g id="Node000001" class="node">
<title>Node1</title>
<g id="a_Node000001"><a xlink:title="Defines the base class of a state observer. The observer is destinated to any dynamical system with a...">
<polygon fill="#999999" stroke="#666666" points="1082.62,-578 931.62,-578 931.62,-531.75 1082.62,-531.75 1082.62,-578"/>
<text text-anchor="start" x="939.62" y="-564.5" font-family="Helvetica,sans-Serif" font-size="10.00">/build/source/include</text>
<text text-anchor="start" x="939.62" y="-551.75" font-family="Helvetica,sans-Serif" font-size="10.00">/state&#45;observation/observer</text>
<text text-anchor="middle" x="1007.12" y="-539" font-family="Helvetica,sans-Serif" font-size="10.00">/observer&#45;base.hpp</text>
</a>
</g>
</g>
<!-- Node2 -->
<g id="Node000002" class="node">
<title>Node2</title>
<g id="a_Node000002"><a xlink:href="zero-delay-observer_8hpp.html" target="_top" xlink:title="Defines the base class of online zero delay observers. Zero delay observers are the classical state o...">
<polygon fill="white" stroke="#666666" points="1082.62,-495.75 931.62,-495.75 931.62,-449.5 1082.62,-449.5 1082.62,-495.75"/>
<text text-anchor="start" x="939.62" y="-482.25" font-family="Helvetica,sans-Serif" font-size="10.00">/build/source/include</text>
<text text-anchor="start" x="939.62" y="-469.5" font-family="Helvetica,sans-Serif" font-size="10.00">/state&#45;observation/observer</text>
<text text-anchor="middle" x="1007.12" y="-456.75" font-family="Helvetica,sans-Serif" font-size="10.00">/zero&#45;delay&#45;observer.hpp</text>
</a>
</g>
</g>
<!-- Node1&#45;&gt;Node2 -->
<g id="edge1_Node000001_Node000002" class="edge">
<title>Node1&#45;&gt;Node2</title>
<g id="a_edge1_Node000001_Node000002"><a xlink:title=" ">
<path fill="none" stroke="#63b8ff" d="M1007.12,-520.09C1007.12,-512 1007.12,-503.57 1007.12,-496.14"/>
<polygon fill="#63b8ff" stroke="#63b8ff" points="1003.63,-520.01 1007.13,-530.01 1010.63,-520.01 1003.63,-520.01"/>
</a>
</g>
</g>
<!-- Node3 -->
<g id="Node000003" class="node">
<title>Node3</title>
<g id="a_Node000003"><a xlink:href="kalman-filter-base_8hpp.html" target="_top" xlink:title="Defines the base class of a Kalman filter.">
<polygon fill="white" stroke="#666666" points="978.62,-413.5 827.62,-413.5 827.62,-367.25 978.62,-367.25 978.62,-413.5"/>
<text text-anchor="start" x="835.62" y="-400" font-family="Helvetica,sans-Serif" font-size="10.00">/build/source/include</text>
<text text-anchor="start" x="835.62" y="-387.25" font-family="Helvetica,sans-Serif" font-size="10.00">/state&#45;observation/observer</text>
<text text-anchor="middle" x="903.12" y="-374.5" font-family="Helvetica,sans-Serif" font-size="10.00">/kalman&#45;filter&#45;base.hpp</text>
</a>
</g>
</g>
<!-- Node2&#45;&gt;Node3 -->
<g id="edge2_Node000002_Node000003" class="edge">
<title>Node2&#45;&gt;Node3</title>
<g id="a_edge2_Node000002_Node000003"><a xlink:title=" ">
<path fill="none" stroke="#63b8ff" d="M968.86,-442.1C956.73,-432.74 943.52,-422.55 932.15,-413.77"/>
<polygon fill="#63b8ff" stroke="#63b8ff" points="966.62,-444.79 976.68,-448.13 970.9,-439.25 966.62,-444.79"/>
</a>
</g>
</g>
<!-- Node17 -->
<g id="Node000017" class="node">
<title>Node17</title>
<g id="a_Node000017"><a xlink:href="tilt-estimator-humanoid_8hpp_source.html" target="_top" xlink:title=" ">
<polygon fill="white" stroke="#666666" points="1180.62,-331.25 1023.62,-331.25 1023.62,-285 1180.62,-285 1180.62,-331.25"/>
<text text-anchor="start" x="1031.62" y="-317.75" font-family="Helvetica,sans-Serif" font-size="10.00">/build/source/include</text>
<text text-anchor="start" x="1031.62" y="-305" font-family="Helvetica,sans-Serif" font-size="10.00">/state&#45;observation/observer</text>
<text text-anchor="middle" x="1102.12" y="-292.25" font-family="Helvetica,sans-Serif" font-size="10.00">/tilt&#45;estimator&#45;humanoid.hpp</text>
</a>
</g>
</g>
<!-- Node2&#45;&gt;Node17 -->
<g id="edge16_Node000002_Node000017" class="edge">
<title>Node2&#45;&gt;Node17</title>
<g id="a_edge16_Node000002_Node000017"><a xlink:title=" ">
<path fill="none" stroke="#63b8ff" d="M1007.57,-437.94C1009.25,-416.34 1014.1,-388.48 1027.12,-367.25 1035.83,-353.07 1049.34,-341.03 1062.51,-331.65"/>
<polygon fill="#63b8ff" stroke="#63b8ff" points="1004.09,-437.52 1007.02,-447.7 1011.08,-437.92 1004.09,-437.52"/>
</a>
</g>
</g>
<!-- Node18 -->
<g id="Node000018" class="node">
<title>Node18</title>
<g id="a_Node000018"><a xlink:href="tilt-estimator_8hpp.html" target="_top" xlink:title="Version of the Tilt Estimator that implements all the necessary functions to perform the estimation f...">
<polygon fill="white" stroke="#666666" points="1186.62,-413.5 1035.62,-413.5 1035.62,-367.25 1186.62,-367.25 1186.62,-413.5"/>
<text text-anchor="start" x="1043.62" y="-400" font-family="Helvetica,sans-Serif" font-size="10.00">/build/source/include</text>
<text text-anchor="start" x="1043.62" y="-387.25" font-family="Helvetica,sans-Serif" font-size="10.00">/state&#45;observation/observer</text>
<text text-anchor="middle" x="1111.12" y="-374.5" font-family="Helvetica,sans-Serif" font-size="10.00">/tilt&#45;estimator.hpp</text>
</a>
</g>
</g>
<!-- Node2&#45;&gt;Node18 -->
<g id="edge17_Node000002_Node000018" class="edge">
<title>Node2&#45;&gt;Node18</title>
<g id="a_edge17_Node000002_Node000018"><a xlink:title=" ">
<path fill="none" stroke="#63b8ff" d="M1045.39,-442.1C1057.52,-432.74 1070.73,-422.55 1082.1,-413.77"/>
<polygon fill="#63b8ff" stroke="#63b8ff" points="1043.35,-439.25 1037.57,-448.13 1047.63,-444.79 1043.35,-439.25"/>
</a>
</g>
</g>
<!-- Node4 -->
<g id="Node000004" class="node">
<title>Node4</title>
<g id="a_Node000004"><a xlink:href="extended-kalman-filter_8hpp_source.html" target="_top" xlink:title=" ">
<polygon fill="white" stroke="#666666" points="525.62,-331.25 374.62,-331.25 374.62,-285 525.62,-285 525.62,-331.25"/>
<text text-anchor="start" x="382.62" y="-317.75" font-family="Helvetica,sans-Serif" font-size="10.00">/build/source/include</text>
<text text-anchor="start" x="382.62" y="-305" font-family="Helvetica,sans-Serif" font-size="10.00">/state&#45;observation/observer</text>
<text text-anchor="middle" x="450.12" y="-292.25" font-family="Helvetica,sans-Serif" font-size="10.00">/extended&#45;kalman&#45;filter.hpp</text>
</a>
</g>
</g>
<!-- Node3&#45;&gt;Node4 -->
<g id="edge3_Node000003_Node000004" class="edge">
<title>Node3&#45;&gt;Node4</title>
<g id="a_edge3_Node000003_Node000004"><a xlink:title=" ">
<path fill="none" stroke="#63b8ff" d="M815.98,-373.94C731.87,-359.04 605.83,-336.71 525.82,-322.53"/>
<polygon fill="#63b8ff" stroke="#63b8ff" points="815.36,-377.38 825.81,-375.68 816.58,-370.49 815.36,-377.38"/>
</a>
</g>
</g>
<!-- Node13 -->
<g id="Node000013" class="node">
<title>Node13</title>
<g id="a_Node000013"><a xlink:href="linear-kalman-filter_8hpp.html" target="_top" xlink:title="Defines the class of a Linear Kalman filter.">
<polygon fill="white" stroke="#666666" points="987.62,-331.25 836.62,-331.25 836.62,-285 987.62,-285 987.62,-331.25"/>
<text text-anchor="start" x="844.62" y="-317.75" font-family="Helvetica,sans-Serif" font-size="10.00">/build/source/include</text>
<text text-anchor="start" x="844.62" y="-305" font-family="Helvetica,sans-Serif" font-size="10.00">/state&#45;observation/observer</text>
<text text-anchor="middle" x="912.12" y="-292.25" font-family="Helvetica,sans-Serif" font-size="10.00">/linear&#45;kalman&#45;filter.hpp</text>
</a>
</g>
</g>
<!-- Node3&#45;&gt;Node13 -->
<g id="edge12_Node000003_Node000013" class="edge">
<title>Node3&#45;&gt;Node13</title>
<g id="a_edge12_Node000003_Node000013"><a xlink:title=" ">
<path fill="none" stroke="#63b8ff" d="M906.91,-355.59C907.82,-347.5 908.77,-339.07 909.6,-331.64"/>
<polygon fill="#63b8ff" stroke="#63b8ff" points="903.44,-355.19 905.8,-365.52 910.39,-355.97 903.44,-355.19"/>
</a>
</g>
</g>
<!-- Node5 -->
<g id="Node000005" class="node">
<title>Node5</title>
<g id="a_Node000005"><a xlink:href="kinetics-observer_8hpp.html" target="_top" xlink:title="Unified Kinetics estimator.">
<polygon fill="white" stroke="#666666" points="180.25,-242.62 0,-242.62 0,-196.38 180.25,-196.38 180.25,-242.62"/>
<text text-anchor="start" x="8" y="-229.12" font-family="Helvetica,sans-Serif" font-size="10.00">/build/source/include</text>
<text text-anchor="start" x="8" y="-216.38" font-family="Helvetica,sans-Serif" font-size="10.00">/state&#45;observation/dynamics</text>
<text text-anchor="middle" x="90.12" y="-203.62" font-family="Helvetica,sans-Serif" font-size="10.00">&#45;estimators/kinetics&#45;observer.hpp</text>
</a>
</g>
</g>
<!-- Node4&#45;&gt;Node5 -->
<g id="edge4_Node000004_Node000005" class="edge">
<title>Node4&#45;&gt;Node5</title>
<g id="a_edge4_Node000004_Node000005"><a xlink:title=" ">
<path fill="none" stroke="#63b8ff" d="M363.21,-289.16C312.29,-278.29 246.85,-263.72 189.12,-249 181.85,-247.14 174.29,-245.13 166.75,-243.06"/>
<polygon fill="#63b8ff" stroke="#63b8ff" points="362.18,-292.52 372.69,-291.18 363.64,-285.67 362.18,-292.52"/>
</a>
</g>
</g>
<!-- Node6 -->
<g id="Node000006" class="node">
<title>Node6</title>
<g id="a_Node000006"><a xlink:href="imu-attitude-trajectory-reconstruction_8hpp.html" target="_top" xlink:title="Gives an implementation of attitude estimation for IMU reconstruction with or without given input....">
<polygon fill="white" stroke="#666666" points="354.25,-249 198,-249 198,-190 354.25,-190 354.25,-249"/>
<text text-anchor="start" x="206" y="-235.5" font-family="Helvetica,sans-Serif" font-size="10.00">/build/source/include</text>
<text text-anchor="start" x="206" y="-222.75" font-family="Helvetica,sans-Serif" font-size="10.00">/state&#45;observation/examples</text>
<text text-anchor="start" x="206" y="-210" font-family="Helvetica,sans-Serif" font-size="10.00">/imu&#45;attitude&#45;trajectory</text>
<text text-anchor="middle" x="276.12" y="-197.25" font-family="Helvetica,sans-Serif" font-size="10.00">&#45;reconstruction.hpp</text>
</a>
</g>
</g>
<!-- Node4&#45;&gt;Node6 -->
<g id="edge5_Node000004_Node000006" class="edge">
<title>Node4&#45;&gt;Node6</title>
<g id="a_edge5_Node000004_Node000006"><a xlink:title=" ">
<path fill="none" stroke="#63b8ff" d="M394.73,-279.55C375.45,-269.95 353.79,-259.16 334.29,-249.46"/>
<polygon fill="#63b8ff" stroke="#63b8ff" points="393,-282.59 403.51,-283.92 396.12,-276.33 393,-282.59"/>
</a>
</g>
</g>
<!-- Node7 -->
<g id="Node000007" class="node">
<title>Node7</title>
<g id="a_Node000007"><a xlink:href="imu-multiplicative-attitude-reconstruction_8hpp_source.html" target="_top" xlink:title=" ">
<polygon fill="white" stroke="#666666" points="528.25,-249 372,-249 372,-190 528.25,-190 528.25,-249"/>
<text text-anchor="start" x="380" y="-235.5" font-family="Helvetica,sans-Serif" font-size="10.00">/build/source/include</text>
<text text-anchor="start" x="380" y="-222.75" font-family="Helvetica,sans-Serif" font-size="10.00">/state&#45;observation/examples</text>
<text text-anchor="start" x="380" y="-210" font-family="Helvetica,sans-Serif" font-size="10.00">/imu&#45;multiplicative&#45;attitude</text>
<text text-anchor="middle" x="450.12" y="-197.25" font-family="Helvetica,sans-Serif" font-size="10.00">&#45;reconstruction.hpp</text>
</a>
</g>
</g>
<!-- Node4&#45;&gt;Node7 -->
<g id="edge6_Node000004_Node000007" class="edge">
<title>Node4&#45;&gt;Node7</title>
<g id="a_edge6_Node000004_Node000007"><a xlink:title=" ">
<path fill="none" stroke="#63b8ff" d="M450.12,-273.55C450.12,-265.54 450.12,-257.05 450.12,-249.28"/>
<polygon fill="#63b8ff" stroke="#63b8ff" points="446.63,-273.3 450.13,-283.3 453.63,-273.3 446.63,-273.3"/>
</a>
</g>
</g>
<!-- Node8 -->
<g id="Node000008" class="node">
<title>Node8</title>
<g id="a_Node000008"><a xlink:href="ekf-flexibility-estimator-base_8hpp.html" target="_top" xlink:title="Declare the class of the flexibility estimation using the extended Kalman Filter.">
<polygon fill="white" stroke="#666666" points="700.12,-249 546.12,-249 546.12,-190 700.12,-190 700.12,-249"/>
<text text-anchor="start" x="554.12" y="-235.5" font-family="Helvetica,sans-Serif" font-size="10.00">/build/source/include</text>
<text text-anchor="start" x="554.12" y="-222.75" font-family="Helvetica,sans-Serif" font-size="10.00">/state&#45;observation/flexibility</text>
<text text-anchor="start" x="554.12" y="-210" font-family="Helvetica,sans-Serif" font-size="10.00">&#45;estimation/ekf&#45;flexibility</text>
<text text-anchor="middle" x="623.12" y="-197.25" font-family="Helvetica,sans-Serif" font-size="10.00">&#45;estimator&#45;base.hpp</text>
</a>
</g>
</g>
<!-- Node4&#45;&gt;Node8 -->
<g id="edge7_Node000004_Node000008" class="edge">
<title>Node4&#45;&gt;Node8</title>
<g id="a_edge7_Node000004_Node000008"><a xlink:title=" ">
<path fill="none" stroke="#63b8ff" d="M505.2,-279.55C524.37,-269.95 545.91,-259.16 565.29,-249.46"/>
<polygon fill="#63b8ff" stroke="#63b8ff" points="503.86,-276.31 496.48,-283.91 506.99,-282.57 503.86,-276.31"/>
</a>
</g>
</g>
<!-- Node9 -->
<g id="Node000009" class="node">
<title>Node9</title>
<g id="a_Node000009"><a xlink:href="fixed-contact-ekf-flex-estimator-imu_8hpp.html" target="_top" xlink:title="Declares the class of the estimation of the flexibility using an extended Kalman filter and a fixed c...">
<polygon fill="white" stroke="#666666" points="615,-154 457.25,-154 457.25,-95 615,-95 615,-154"/>
<text text-anchor="start" x="465.25" y="-140.5" font-family="Helvetica,sans-Serif" font-size="10.00">/build/source/include</text>
<text text-anchor="start" x="465.25" y="-127.75" font-family="Helvetica,sans-Serif" font-size="10.00">/state&#45;observation/flexibility</text>
<text text-anchor="start" x="465.25" y="-115" font-family="Helvetica,sans-Serif" font-size="10.00">&#45;estimation/fixed&#45;contact&#45;ekf</text>
<text text-anchor="middle" x="536.12" y="-102.25" font-family="Helvetica,sans-Serif" font-size="10.00">&#45;flex&#45;estimator&#45;imu.hpp</text>
</a>
</g>
</g>
<!-- Node8&#45;&gt;Node9 -->
<g id="edge8_Node000008_Node000009" class="edge">
<title>Node8&#45;&gt;Node9</title>
<g id="a_edge8_Node000008_Node000009"><a xlink:title=" ">
<path fill="none" stroke="#63b8ff" d="M588.24,-181.21C579.89,-172.28 571.1,-162.88 563.16,-154.4"/>
<polygon fill="#63b8ff" stroke="#63b8ff" points="585.65,-183.57 595.04,-188.48 590.76,-178.78 585.65,-183.57"/>
</a>
</g>
</g>
<!-- Node11 -->
<g id="Node000011" class="node">
<title>Node11</title>
<g id="a_Node000011"><a xlink:href="model-base-ekf-flex-estimator-imu_8hpp.html" target="_top" xlink:title="Declares the class of the estimation of the flexibility using an extended Kalman filter and a fixed c...">
<polygon fill="white" stroke="#666666" points="787.12,-154 633.12,-154 633.12,-95 787.12,-95 787.12,-154"/>
<text text-anchor="start" x="641.12" y="-140.5" font-family="Helvetica,sans-Serif" font-size="10.00">/build/source/include</text>
<text text-anchor="start" x="641.12" y="-127.75" font-family="Helvetica,sans-Serif" font-size="10.00">/state&#45;observation/flexibility</text>
<text text-anchor="start" x="641.12" y="-115" font-family="Helvetica,sans-Serif" font-size="10.00">&#45;estimation/model&#45;base&#45;ekf</text>
<text text-anchor="middle" x="710.12" y="-102.25" font-family="Helvetica,sans-Serif" font-size="10.00">&#45;flex&#45;estimator&#45;imu.hpp</text>
</a>
</g>
</g>
<!-- Node8&#45;&gt;Node11 -->
<g id="edge10_Node000008_Node000011" class="edge">
<title>Node8&#45;&gt;Node11</title>
<g id="a_edge10_Node000008_Node000011"><a xlink:title=" ">
<path fill="none" stroke="#63b8ff" d="M658.01,-181.21C666.36,-172.28 675.15,-162.88 683.09,-154.4"/>
<polygon fill="#63b8ff" stroke="#63b8ff" points="655.49,-178.78 651.21,-188.48 660.6,-183.57 655.49,-178.78"/>
</a>
</g>
</g>
<!-- Node10 -->
<g id="Node000010" class="node">
<title>Node10</title>
<g id="a_Node000010"><a xlink:href="offline-ekf-flexibility-estimation_8hpp.html" target="_top" xlink:title="Gives an implementation of flexibility estimation for IMU reconstruction with or without given input ...">
<polygon fill="white" stroke="#666666" points="614.25,-59 458,-59 458,0 614.25,0 614.25,-59"/>
<text text-anchor="start" x="466" y="-45.5" font-family="Helvetica,sans-Serif" font-size="10.00">/build/source/include</text>
<text text-anchor="start" x="466" y="-32.75" font-family="Helvetica,sans-Serif" font-size="10.00">/state&#45;observation/examples</text>
<text text-anchor="start" x="466" y="-20" font-family="Helvetica,sans-Serif" font-size="10.00">/offline&#45;ekf&#45;flexibility</text>
<text text-anchor="middle" x="536.12" y="-7.25" font-family="Helvetica,sans-Serif" font-size="10.00">&#45;estimation.hpp</text>
</a>
</g>
</g>
<!-- Node9&#45;&gt;Node10 -->
<g id="edge9_Node000009_Node000010" class="edge">
<title>Node9&#45;&gt;Node10</title>
<g id="a_edge9_Node000009_Node000010"><a xlink:title=" ">
<path fill="none" stroke="#63b8ff" d="M536.12,-83.16C536.12,-75.16 536.12,-66.92 536.12,-59.4"/>
<polygon fill="#63b8ff" stroke="#63b8ff" points="532.63,-83.07 536.13,-93.07 539.63,-83.07 532.63,-83.07"/>
</a>
</g>
</g>
<!-- Node12 -->
<g id="Node000012" class="node">
<title>Node12</title>
<g id="a_Node000012"><a xlink:href="offline-model-base-flex-estimation_8hpp_source.html" target="_top" xlink:title=" ">
<polygon fill="white" stroke="#666666" points="788.25,-59 632,-59 632,0 788.25,0 788.25,-59"/>
<text text-anchor="start" x="640" y="-45.5" font-family="Helvetica,sans-Serif" font-size="10.00">/build/source/include</text>
<text text-anchor="start" x="640" y="-32.75" font-family="Helvetica,sans-Serif" font-size="10.00">/state&#45;observation/examples</text>
<text text-anchor="start" x="640" y="-20" font-family="Helvetica,sans-Serif" font-size="10.00">/offline&#45;model&#45;base&#45;flex</text>
<text text-anchor="middle" x="710.12" y="-7.25" font-family="Helvetica,sans-Serif" font-size="10.00">&#45;estimation.hpp</text>
</a>
</g>
</g>
<!-- Node11&#45;&gt;Node12 -->
<g id="edge11_Node000011_Node000012" class="edge">
<title>Node11&#45;&gt;Node12</title>
<g id="a_edge11_Node000011_Node000012"><a xlink:title=" ">
<path fill="none" stroke="#63b8ff" d="M710.12,-83.16C710.12,-75.16 710.12,-66.92 710.12,-59.4"/>
<polygon fill="#63b8ff" stroke="#63b8ff" points="706.63,-83.07 710.13,-93.07 713.63,-83.07 706.63,-83.07"/>
</a>
</g>
</g>
<!-- Node14 -->
<g id="Node000014" class="node">
<title>Node14</title>
<g id="a_Node000014"><a xlink:href="lipm-dcm-estimator_8hpp.html" target="_top" xlink:title=" ">
<polygon fill="white" stroke="#666666" points="911.62,-242.62 718.62,-242.62 718.62,-196.38 911.62,-196.38 911.62,-242.62"/>
<text text-anchor="start" x="726.62" y="-229.12" font-family="Helvetica,sans-Serif" font-size="10.00">/build/source/include</text>
<text text-anchor="start" x="726.62" y="-216.38" font-family="Helvetica,sans-Serif" font-size="10.00">/state&#45;observation/dynamics</text>
<text text-anchor="middle" x="815.12" y="-203.62" font-family="Helvetica,sans-Serif" font-size="10.00">&#45;estimators/lipm&#45;dcm&#45;estimator.hpp</text>
</a>
</g>
</g>
<!-- Node13&#45;&gt;Node14 -->
<g id="edge13_Node000013_Node000014" class="edge">
<title>Node13&#45;&gt;Node14</title>
<g id="a_edge13_Node000013_Node000014"><a xlink:title=" ">
<path fill="none" stroke="#63b8ff" d="M878.48,-277.08C865.92,-265.86 851.89,-253.33 840.23,-242.92"/>
<polygon fill="#63b8ff" stroke="#63b8ff" points="875.97,-279.53 885.76,-283.58 880.64,-274.31 875.97,-279.53"/>
</a>
</g>
</g>
<!-- Node15 -->
<g id="Node000015" class="node">
<title>Node15</title>
<g id="a_Node000015"><a xlink:href="unidim-lipm-dcm-estimator_8hpp.html" target="_top" xlink:title=" ">
<polygon fill="white" stroke="#666666" points="1088.75,-249 929.5,-249 929.5,-190 1088.75,-190 1088.75,-249"/>
<text text-anchor="start" x="937.5" y="-235.5" font-family="Helvetica,sans-Serif" font-size="10.00">/build/source/include</text>
<text text-anchor="start" x="937.5" y="-222.75" font-family="Helvetica,sans-Serif" font-size="10.00">/state&#45;observation/dynamics</text>
<text text-anchor="start" x="937.5" y="-210" font-family="Helvetica,sans-Serif" font-size="10.00">&#45;estimators/unidim&#45;lipm&#45;dcm</text>
<text text-anchor="middle" x="1009.12" y="-197.25" font-family="Helvetica,sans-Serif" font-size="10.00">&#45;estimator.hpp</text>
</a>
</g>
</g>
<!-- Node13&#45;&gt;Node15 -->
<g id="edge14_Node000013_Node000015" class="edge">
<title>Node13&#45;&gt;Node15</title>
<g id="a_edge14_Node000013_Node000015"><a xlink:title=" ">
<path fill="none" stroke="#63b8ff" d="M945.86,-277C955.86,-268.07 966.78,-258.31 976.7,-249.46"/>
<polygon fill="#63b8ff" stroke="#63b8ff" points="943.61,-274.31 938.49,-283.58 948.28,-279.53 943.61,-274.31"/>
</a>
</g>
</g>
<!-- Node16 -->
<g id="Node000016" class="node">
<title>Node16</title>
<g id="a_Node000016"><a xlink:href="zmp-tracking-gain-estimator_8hpp_source.html" target="_top" xlink:title=" ">
<polygon fill="white" stroke="#666666" points="1261.88,-249 1106.38,-249 1106.38,-190 1261.88,-190 1261.88,-249"/>
<text text-anchor="start" x="1114.38" y="-235.5" font-family="Helvetica,sans-Serif" font-size="10.00">/build/source/include</text>
<text text-anchor="start" x="1114.38" y="-222.75" font-family="Helvetica,sans-Serif" font-size="10.00">/state&#45;observation/dynamics</text>
<text text-anchor="start" x="1114.38" y="-210" font-family="Helvetica,sans-Serif" font-size="10.00">&#45;estimators/zmp&#45;tracking</text>
<text text-anchor="middle" x="1184.12" y="-197.25" font-family="Helvetica,sans-Serif" font-size="10.00">&#45;gain&#45;estimator.hpp</text>
</a>
</g>
</g>
<!-- Node13&#45;&gt;Node16 -->
<g id="edge15_Node000013_Node000016" class="edge">
<title>Node13&#45;&gt;Node16</title>
<g id="a_edge15_Node000013_Node000016"><a xlink:title=" ">
<path fill="none" stroke="#63b8ff" d="M996.18,-281.19C1028.14,-271.24 1064.85,-259.71 1098.12,-249 1100.82,-248.13 1103.56,-247.25 1106.33,-246.35"/>
<polygon fill="#63b8ff" stroke="#63b8ff" points="995.5,-277.74 986.99,-284.05 997.57,-284.42 995.5,-277.74"/>
</a>
</g>
</g>
<!-- Node18&#45;&gt;Node17 -->
<g id="edge18_Node000018_Node000017" class="edge">
<title>Node18&#45;&gt;Node17</title>
<g id="a_edge18_Node000018_Node000017"><a xlink:title=" ">
<path fill="none" stroke="#63b8ff" d="M1107.34,-355.59C1106.43,-347.5 1105.48,-339.07 1104.65,-331.64"/>
<polygon fill="#63b8ff" stroke="#63b8ff" points="1103.86,-355.97 1108.45,-365.52 1110.81,-355.19 1103.86,-355.97"/>
</a>
</g>
</g>
</g>
</svg>
