<?xml version="1.0" encoding="UTF-8" standalone="no"?>
<!DOCTYPE svg PUBLIC "-//W3C//DTD SVG 1.1//EN"
 "http://www.w3.org/Graphics/SVG/1.1/DTD/svg11.dtd">
<!-- Generated by graphviz version 12.2.1 (0)
 -->
<!-- Title: /build/source/include/state&#45;observation/tools/probability&#45;law&#45;simulation.hpp Pages: 1 -->
<svg width="1762pt" height="422pt"
 viewBox="0.00 0.00 1762.12 421.50" xmlns="http://www.w3.org/2000/svg" xmlns:xlink="http://www.w3.org/1999/xlink">
<g id="graph0" class="graph" transform="scale(1 1) rotate(0) translate(4 417.5)">
<title>/build/source/include/state&#45;observation/tools/probability&#45;law&#45;simulation.hpp</title>
<!-- Node1 -->
<g id="Node000001" class="node">
<title>Node1</title>
<g id="a_Node000001"><a xlink:title=" ">
<polygon fill="#999999" stroke="#666666" points="1018,-413.5 849,-413.5 849,-367.25 1018,-367.25 1018,-413.5"/>
<text text-anchor="start" x="857" y="-400" font-family="Helvetica,sans-Serif" font-size="10.00">/build/source/include</text>
<text text-anchor="start" x="857" y="-387.25" font-family="Helvetica,sans-Serif" font-size="10.00">/state&#45;observation/tools</text>
<text text-anchor="middle" x="933.5" y="-374.5" font-family="Helvetica,sans-Serif" font-size="10.00">/probability&#45;law&#45;simulation.hpp</text>
</a>
</g>
</g>
<!-- Node2 -->
<g id="Node000002" class="node">
<title>Node2</title>
<g id="a_Node000002"><a xlink:href="rigid-body-kinematics_8hpp.html" target="_top" xlink:title="Implements integrators for the kinematics, in terms or rotations and translations.">
<polygon fill="white" stroke="#666666" points="1007.12,-331.25 859.88,-331.25 859.88,-285 1007.12,-285 1007.12,-331.25"/>
<text text-anchor="start" x="867.88" y="-317.75" font-family="Helvetica,sans-Serif" font-size="10.00">/build/source/include</text>
<text text-anchor="start" x="867.88" y="-305" font-family="Helvetica,sans-Serif" font-size="10.00">/state&#45;observation/tools</text>
<text text-anchor="middle" x="933.5" y="-292.25" font-family="Helvetica,sans-Serif" font-size="10.00">/rigid&#45;body&#45;kinematics.hpp</text>
</a>
</g>
</g>
<!-- Node1&#45;&gt;Node2 -->
<g id="edge1_Node000001_Node000002" class="edge">
<title>Node1&#45;&gt;Node2</title>
<g id="a_edge1_Node000001_Node000002"><a xlink:title=" ">
<path fill="none" stroke="#63b8ff" d="M933.5,-355.59C933.5,-347.5 933.5,-339.07 933.5,-331.64"/>
<polygon fill="#63b8ff" stroke="#63b8ff" points="930,-355.51 933.5,-365.51 937,-355.51 930,-355.51"/>
</a>
</g>
</g>
<!-- Node3 -->
<g id="Node000003" class="node">
<title>Node3</title>
<g id="a_Node000003"><a xlink:href="imu-dynamical-system_8hpp.html" target="_top" xlink:title="The file describes the dynamical system defined by an inertial measurement unit (IMU) fixed on a rigi...">
<polygon fill="white" stroke="#666666" points="193,-242.62 0,-242.62 0,-196.38 193,-196.38 193,-242.62"/>
<text text-anchor="start" x="8" y="-229.12" font-family="Helvetica,sans-Serif" font-size="10.00">/build/source/include</text>
<text text-anchor="start" x="8" y="-216.38" font-family="Helvetica,sans-Serif" font-size="10.00">/state&#45;observation/dynamical</text>
<text text-anchor="middle" x="96.5" y="-203.62" font-family="Helvetica,sans-Serif" font-size="10.00">&#45;system/imu&#45;dynamical&#45;system.hpp</text>
</a>
</g>
</g>
<!-- Node2&#45;&gt;Node3 -->
<g id="edge2_Node000002_Node000003" class="edge">
<title>Node2&#45;&gt;Node3</title>
<g id="a_edge2_Node000002_Node000003"><a xlink:title=" ">
<path fill="none" stroke="#63b8ff" d="M848.32,-305.41C711.3,-301.51 433.89,-288.96 202.5,-249 193.2,-247.39 183.54,-245.34 174,-243.08"/>
<polygon fill="#63b8ff" stroke="#63b8ff" points="847.93,-308.9 858.02,-305.67 848.12,-301.9 847.93,-308.9"/>
</a>
</g>
</g>
<!-- Node5 -->
<g id="Node000005" class="node">
<title>Node5</title>
<g id="a_Node000005"><a xlink:href="imu-magnetometer-dynamical-system_8hpp.html" target="_top" xlink:title="The file describes the dynamical system defined by an inertial measurement unit (IMU) fixed on a rigi...">
<polygon fill="white" stroke="#666666" points="419.88,-249 211.12,-249 211.12,-190 419.88,-190 419.88,-249"/>
<text text-anchor="start" x="219.12" y="-235.5" font-family="Helvetica,sans-Serif" font-size="10.00">/build/source/include</text>
<text text-anchor="start" x="219.12" y="-222.75" font-family="Helvetica,sans-Serif" font-size="10.00">/state&#45;observation/dynamical</text>
<text text-anchor="start" x="219.12" y="-210" font-family="Helvetica,sans-Serif" font-size="10.00">&#45;system/imu&#45;magnetometer&#45;dynamical</text>
<text text-anchor="middle" x="315.5" y="-197.25" font-family="Helvetica,sans-Serif" font-size="10.00">&#45;system.hpp</text>
</a>
</g>
</g>
<!-- Node2&#45;&gt;Node5 -->
<g id="edge4_Node000002_Node000005" class="edge">
<title>Node2&#45;&gt;Node5</title>
<g id="a_edge4_Node000002_Node000005"><a xlink:title=" ">
<path fill="none" stroke="#63b8ff" d="M848.3,-300.7C747.68,-292.34 575.52,-275.56 429.5,-249 426.49,-248.45 423.44,-247.87 420.37,-247.26"/>
<polygon fill="#63b8ff" stroke="#63b8ff" points="847.84,-304.18 858.1,-301.51 848.42,-297.2 847.84,-304.18"/>
</a>
</g>
</g>
<!-- Node6 -->
<g id="Node000006" class="node">
<title>Node6</title>
<g id="a_Node000006"><a xlink:href="imu-mltpctive-dynamical-system_8hpp_source.html" target="_top" xlink:title=" ">
<polygon fill="white" stroke="#666666" points="620.75,-249 438.25,-249 438.25,-190 620.75,-190 620.75,-249"/>
<text text-anchor="start" x="446.25" y="-235.5" font-family="Helvetica,sans-Serif" font-size="10.00">/build/source/include</text>
<text text-anchor="start" x="446.25" y="-222.75" font-family="Helvetica,sans-Serif" font-size="10.00">/state&#45;observation/dynamical</text>
<text text-anchor="start" x="446.25" y="-210" font-family="Helvetica,sans-Serif" font-size="10.00">&#45;system/imu&#45;mltpctive&#45;dynamical</text>
<text text-anchor="middle" x="529.5" y="-197.25" font-family="Helvetica,sans-Serif" font-size="10.00">&#45;system.hpp</text>
</a>
</g>
</g>
<!-- Node2&#45;&gt;Node6 -->
<g id="edge5_Node000002_Node000006" class="edge">
<title>Node2&#45;&gt;Node6</title>
<g id="a_edge5_Node000002_Node000006"><a xlink:title=" ">
<path fill="none" stroke="#63b8ff" d="M848.25,-292.91C787.07,-282.2 702.83,-266.42 629.5,-249 626.78,-248.35 624.02,-247.68 621.24,-246.99"/>
<polygon fill="#63b8ff" stroke="#63b8ff" points="847.45,-296.33 857.9,-294.59 848.65,-289.43 847.45,-296.33"/>
</a>
</g>
</g>
<!-- Node8 -->
<g id="Node000008" class="node">
<title>Node8</title>
<g id="a_Node000008"><a xlink:href="kinetics-observer_8hpp.html" target="_top" xlink:title="Unified Kinetics estimator.">
<polygon fill="white" stroke="#666666" points="818.62,-242.62 638.38,-242.62 638.38,-196.38 818.62,-196.38 818.62,-242.62"/>
<text text-anchor="start" x="646.38" y="-229.12" font-family="Helvetica,sans-Serif" font-size="10.00">/build/source/include</text>
<text text-anchor="start" x="646.38" y="-216.38" font-family="Helvetica,sans-Serif" font-size="10.00">/state&#45;observation/dynamics</text>
<text text-anchor="middle" x="728.5" y="-203.62" font-family="Helvetica,sans-Serif" font-size="10.00">&#45;estimators/kinetics&#45;observer.hpp</text>
</a>
</g>
</g>
<!-- Node2&#45;&gt;Node8 -->
<g id="edge7_Node000002_Node000008" class="edge">
<title>Node2&#45;&gt;Node8</title>
<g id="a_edge7_Node000002_Node000008"><a xlink:title=" ">
<path fill="none" stroke="#63b8ff" d="M869.63,-280.13C841.47,-268.24 808.75,-254.41 781.91,-243.07"/>
<polygon fill="#63b8ff" stroke="#63b8ff" points="868.21,-283.33 878.78,-284 870.93,-276.89 868.21,-283.33"/>
</a>
</g>
</g>
<!-- Node9 -->
<g id="Node000009" class="node">
<title>Node9</title>
<g id="a_Node000009"><a xlink:href="lipm-dcm-estimator_8hpp.html" target="_top" xlink:title=" ">
<polygon fill="white" stroke="#666666" points="1030,-242.62 837,-242.62 837,-196.38 1030,-196.38 1030,-242.62"/>
<text text-anchor="start" x="845" y="-229.12" font-family="Helvetica,sans-Serif" font-size="10.00">/build/source/include</text>
<text text-anchor="start" x="845" y="-216.38" font-family="Helvetica,sans-Serif" font-size="10.00">/state&#45;observation/dynamics</text>
<text text-anchor="middle" x="933.5" y="-203.62" font-family="Helvetica,sans-Serif" font-size="10.00">&#45;estimators/lipm&#45;dcm&#45;estimator.hpp</text>
</a>
</g>
</g>
<!-- Node2&#45;&gt;Node9 -->
<g id="edge8_Node000002_Node000009" class="edge">
<title>Node2&#45;&gt;Node9</title>
<g id="a_edge8_Node000002_Node000009"><a xlink:title=" ">
<path fill="none" stroke="#63b8ff" d="M933.5,-273.36C933.5,-263.19 933.5,-252.28 933.5,-243.03"/>
<polygon fill="#63b8ff" stroke="#63b8ff" points="930,-273.3 933.5,-283.3 937,-273.3 930,-273.3"/>
</a>
</g>
</g>
<!-- Node10 -->
<g id="Node000010" class="node">
<title>Node10</title>
<g id="a_Node000010"><a xlink:href="zmp-tracking-gain-estimator_8hpp_source.html" target="_top" xlink:title=" ">
<polygon fill="white" stroke="#666666" points="1203.25,-249 1047.75,-249 1047.75,-190 1203.25,-190 1203.25,-249"/>
<text text-anchor="start" x="1055.75" y="-235.5" font-family="Helvetica,sans-Serif" font-size="10.00">/build/source/include</text>
<text text-anchor="start" x="1055.75" y="-222.75" font-family="Helvetica,sans-Serif" font-size="10.00">/state&#45;observation/dynamics</text>
<text text-anchor="start" x="1055.75" y="-210" font-family="Helvetica,sans-Serif" font-size="10.00">&#45;estimators/zmp&#45;tracking</text>
<text text-anchor="middle" x="1125.5" y="-197.25" font-family="Helvetica,sans-Serif" font-size="10.00">&#45;gain&#45;estimator.hpp</text>
</a>
</g>
</g>
<!-- Node2&#45;&gt;Node10 -->
<g id="edge9_Node000002_Node000010" class="edge">
<title>Node2&#45;&gt;Node10</title>
<g id="a_edge9_Node000002_Node000010"><a xlink:title=" ">
<path fill="none" stroke="#63b8ff" d="M993.75,-279.94C1015.23,-270.25 1039.51,-259.3 1061.31,-249.46"/>
<polygon fill="#63b8ff" stroke="#63b8ff" points="992.5,-276.67 984.82,-283.97 995.38,-283.05 992.5,-276.67"/>
</a>
</g>
</g>
<!-- Node11 -->
<g id="Node000011" class="node">
<title>Node11</title>
<g id="a_Node000011"><a xlink:href="imu-elastic-local-frame-dynamical-system_8hpp_source.html" target="_top" xlink:title=" ">
<polygon fill="white" stroke="#666666" points="1385.75,-249 1221.25,-249 1221.25,-190 1385.75,-190 1385.75,-249"/>
<text text-anchor="start" x="1229.25" y="-235.5" font-family="Helvetica,sans-Serif" font-size="10.00">/build/source/include</text>
<text text-anchor="start" x="1229.25" y="-222.75" font-family="Helvetica,sans-Serif" font-size="10.00">/state&#45;observation/flexibility</text>
<text text-anchor="start" x="1229.25" y="-210" font-family="Helvetica,sans-Serif" font-size="10.00">&#45;estimation/imu&#45;elastic&#45;local</text>
<text text-anchor="middle" x="1303.5" y="-197.25" font-family="Helvetica,sans-Serif" font-size="10.00">&#45;frame&#45;dynamical&#45;system.hpp</text>
</a>
</g>
</g>
<!-- Node2&#45;&gt;Node11 -->
<g id="edge10_Node000002_Node000011" class="edge">
<title>Node2&#45;&gt;Node11</title>
<g id="a_edge10_Node000002_Node000011"><a xlink:title=" ">
<path fill="none" stroke="#63b8ff" d="M1018.59,-291.65C1074.11,-280.99 1147.99,-265.78 1212.5,-249 1215.22,-248.29 1217.99,-247.55 1220.77,-246.79"/>
<polygon fill="#63b8ff" stroke="#63b8ff" points="1018.04,-288.19 1008.87,-293.5 1019.35,-295.06 1018.04,-288.19"/>
</a>
</g>
</g>
<!-- Node14 -->
<g id="Node000014" class="node">
<title>Node14</title>
<g id="a_Node000014"><a xlink:href="imu-fixed-contact-dynamical-system_8hpp.html" target="_top" xlink:title="Definitions of the dynamical system of a robot flexibility with an IMU sensor.">
<polygon fill="white" stroke="#666666" points="1564.88,-249 1404.12,-249 1404.12,-190 1564.88,-190 1564.88,-249"/>
<text text-anchor="start" x="1412.12" y="-235.5" font-family="Helvetica,sans-Serif" font-size="10.00">/build/source/include</text>
<text text-anchor="start" x="1412.12" y="-222.75" font-family="Helvetica,sans-Serif" font-size="10.00">/state&#45;observation/flexibility</text>
<text text-anchor="start" x="1412.12" y="-210" font-family="Helvetica,sans-Serif" font-size="10.00">&#45;estimation/imu&#45;fixed&#45;contact</text>
<text text-anchor="middle" x="1484.5" y="-197.25" font-family="Helvetica,sans-Serif" font-size="10.00">&#45;dynamical&#45;system.hpp</text>
</a>
</g>
</g>
<!-- Node2&#45;&gt;Node14 -->
<g id="edge13_Node000002_Node000014" class="edge">
<title>Node2&#45;&gt;Node14</title>
<g id="a_edge13_Node000002_Node000014"><a xlink:title=" ">
<path fill="none" stroke="#63b8ff" d="M1018.59,-301.04C1111.69,-293.31 1264.97,-277.43 1394.5,-249 1397.54,-248.33 1400.63,-247.61 1403.73,-246.84"/>
<polygon fill="#63b8ff" stroke="#63b8ff" points="1018.45,-297.54 1008.76,-301.85 1019.02,-304.52 1018.45,-297.54"/>
</a>
</g>
</g>
<!-- Node17 -->
<g id="Node000017" class="node">
<title>Node17</title>
<g id="a_Node000017"><a xlink:href="stable-imu-fixed-contact-dynamical-system_8hpp_source.html" target="_top" xlink:title=" ">
<polygon fill="white" stroke="#666666" points="1754.12,-249 1582.88,-249 1582.88,-190 1754.12,-190 1754.12,-249"/>
<text text-anchor="start" x="1590.88" y="-235.5" font-family="Helvetica,sans-Serif" font-size="10.00">/build/source/include</text>
<text text-anchor="start" x="1590.88" y="-222.75" font-family="Helvetica,sans-Serif" font-size="10.00">/state&#45;observation/flexibility</text>
<text text-anchor="start" x="1590.88" y="-210" font-family="Helvetica,sans-Serif" font-size="10.00">&#45;estimation/stable&#45;imu&#45;fixed</text>
<text text-anchor="middle" x="1668.5" y="-197.25" font-family="Helvetica,sans-Serif" font-size="10.00">&#45;contact&#45;dynamical&#45;system.hpp</text>
</a>
</g>
</g>
<!-- Node2&#45;&gt;Node17 -->
<g id="edge16_Node000002_Node000017" class="edge">
<title>Node2&#45;&gt;Node17</title>
<g id="a_edge16_Node000002_Node000017"><a xlink:title=" ">
<path fill="none" stroke="#63b8ff" d="M1018.83,-304.82C1142.24,-300.25 1377.25,-286.95 1573.5,-249 1576.46,-248.43 1579.46,-247.8 1582.47,-247.13"/>
<polygon fill="#63b8ff" stroke="#63b8ff" points="1018.98,-301.31 1009.12,-305.16 1019.23,-308.3 1018.98,-301.31"/>
</a>
</g>
</g>
<!-- Node4 -->
<g id="Node000004" class="node">
<title>Node4</title>
<g id="a_Node000004"><a xlink:href="imu-attitude-trajectory-reconstruction_8hpp.html" target="_top" xlink:title="Gives an implementation of attitude estimation for IMU reconstruction with or without given input....">
<polygon fill="white" stroke="#666666" points="174.62,-154 18.38,-154 18.38,-95 174.62,-95 174.62,-154"/>
<text text-anchor="start" x="26.38" y="-140.5" font-family="Helvetica,sans-Serif" font-size="10.00">/build/source/include</text>
<text text-anchor="start" x="26.38" y="-127.75" font-family="Helvetica,sans-Serif" font-size="10.00">/state&#45;observation/examples</text>
<text text-anchor="start" x="26.38" y="-115" font-family="Helvetica,sans-Serif" font-size="10.00">/imu&#45;attitude&#45;trajectory</text>
<text text-anchor="middle" x="96.5" y="-102.25" font-family="Helvetica,sans-Serif" font-size="10.00">&#45;reconstruction.hpp</text>
</a>
</g>
</g>
<!-- Node3&#45;&gt;Node4 -->
<g id="edge3_Node000003_Node000004" class="edge">
<title>Node3&#45;&gt;Node4</title>
<g id="a_edge3_Node000003_Node000004"><a xlink:title=" ">
<path fill="none" stroke="#63b8ff" d="M96.5,-184.51C96.5,-174.66 96.5,-164.01 96.5,-154.5"/>
<polygon fill="#63b8ff" stroke="#63b8ff" points="93,-184.47 96.5,-194.47 100,-184.47 93,-184.47"/>
</a>
</g>
</g>
<!-- Node7 -->
<g id="Node000007" class="node">
<title>Node7</title>
<g id="a_Node000007"><a xlink:href="imu-multiplicative-attitude-reconstruction_8hpp_source.html" target="_top" xlink:title=" ">
<polygon fill="white" stroke="#666666" points="607.62,-154 451.38,-154 451.38,-95 607.62,-95 607.62,-154"/>
<text text-anchor="start" x="459.38" y="-140.5" font-family="Helvetica,sans-Serif" font-size="10.00">/build/source/include</text>
<text text-anchor="start" x="459.38" y="-127.75" font-family="Helvetica,sans-Serif" font-size="10.00">/state&#45;observation/examples</text>
<text text-anchor="start" x="459.38" y="-115" font-family="Helvetica,sans-Serif" font-size="10.00">/imu&#45;multiplicative&#45;attitude</text>
<text text-anchor="middle" x="529.5" y="-102.25" font-family="Helvetica,sans-Serif" font-size="10.00">&#45;reconstruction.hpp</text>
</a>
</g>
</g>
<!-- Node6&#45;&gt;Node7 -->
<g id="edge6_Node000006_Node000007" class="edge">
<title>Node6&#45;&gt;Node7</title>
<g id="a_edge6_Node000006_Node000007"><a xlink:title=" ">
<path fill="none" stroke="#63b8ff" d="M529.5,-178.16C529.5,-170.16 529.5,-161.92 529.5,-154.4"/>
<polygon fill="#63b8ff" stroke="#63b8ff" points="526,-178.07 529.5,-188.07 533,-178.07 526,-178.07"/>
</a>
</g>
</g>
<!-- Node12 -->
<g id="Node000012" class="node">
<title>Node12</title>
<g id="a_Node000012"><a xlink:href="model-base-ekf-flex-estimator-imu_8hpp.html" target="_top" xlink:title="Declares the class of the estimation of the flexibility using an extended Kalman filter and a fixed c...">
<polygon fill="white" stroke="#666666" points="1380.5,-154 1226.5,-154 1226.5,-95 1380.5,-95 1380.5,-154"/>
<text text-anchor="start" x="1234.5" y="-140.5" font-family="Helvetica,sans-Serif" font-size="10.00">/build/source/include</text>
<text text-anchor="start" x="1234.5" y="-127.75" font-family="Helvetica,sans-Serif" font-size="10.00">/state&#45;observation/flexibility</text>
<text text-anchor="start" x="1234.5" y="-115" font-family="Helvetica,sans-Serif" font-size="10.00">&#45;estimation/model&#45;base&#45;ekf</text>
<text text-anchor="middle" x="1303.5" y="-102.25" font-family="Helvetica,sans-Serif" font-size="10.00">&#45;flex&#45;estimator&#45;imu.hpp</text>
</a>
</g>
</g>
<!-- Node11&#45;&gt;Node12 -->
<g id="edge11_Node000011_Node000012" class="edge">
<title>Node11&#45;&gt;Node12</title>
<g id="a_edge11_Node000011_Node000012"><a xlink:title=" ">
<path fill="none" stroke="#63b8ff" d="M1303.5,-178.16C1303.5,-170.16 1303.5,-161.92 1303.5,-154.4"/>
<polygon fill="#63b8ff" stroke="#63b8ff" points="1300,-178.07 1303.5,-188.07 1307,-178.07 1300,-178.07"/>
</a>
</g>
</g>
<!-- Node13 -->
<g id="Node000013" class="node">
<title>Node13</title>
<g id="a_Node000013"><a xlink:href="offline-model-base-flex-estimation_8hpp_source.html" target="_top" xlink:title=" ">
<polygon fill="white" stroke="#666666" points="1381.62,-59 1225.38,-59 1225.38,0 1381.62,0 1381.62,-59"/>
<text text-anchor="start" x="1233.38" y="-45.5" font-family="Helvetica,sans-Serif" font-size="10.00">/build/source/include</text>
<text text-anchor="start" x="1233.38" y="-32.75" font-family="Helvetica,sans-Serif" font-size="10.00">/state&#45;observation/examples</text>
<text text-anchor="start" x="1233.38" y="-20" font-family="Helvetica,sans-Serif" font-size="10.00">/offline&#45;model&#45;base&#45;flex</text>
<text text-anchor="middle" x="1303.5" y="-7.25" font-family="Helvetica,sans-Serif" font-size="10.00">&#45;estimation.hpp</text>
</a>
</g>
</g>
<!-- Node12&#45;&gt;Node13 -->
<g id="edge12_Node000012_Node000013" class="edge">
<title>Node12&#45;&gt;Node13</title>
<g id="a_edge12_Node000012_Node000013"><a xlink:title=" ">
<path fill="none" stroke="#63b8ff" d="M1303.5,-83.16C1303.5,-75.16 1303.5,-66.92 1303.5,-59.4"/>
<polygon fill="#63b8ff" stroke="#63b8ff" points="1300,-83.07 1303.5,-93.07 1307,-83.07 1300,-83.07"/>
</a>
</g>
</g>
<!-- Node15 -->
<g id="Node000015" class="node">
<title>Node15</title>
<g id="a_Node000015"><a xlink:href="fixed-contact-ekf-flex-estimator-imu_8hpp.html" target="_top" xlink:title="Declares the class of the estimation of the flexibility using an extended Kalman filter and a fixed c...">
<polygon fill="white" stroke="#666666" points="1563.38,-154 1405.62,-154 1405.62,-95 1563.38,-95 1563.38,-154"/>
<text text-anchor="start" x="1413.62" y="-140.5" font-family="Helvetica,sans-Serif" font-size="10.00">/build/source/include</text>
<text text-anchor="start" x="1413.62" y="-127.75" font-family="Helvetica,sans-Serif" font-size="10.00">/state&#45;observation/flexibility</text>
<text text-anchor="start" x="1413.62" y="-115" font-family="Helvetica,sans-Serif" font-size="10.00">&#45;estimation/fixed&#45;contact&#45;ekf</text>
<text text-anchor="middle" x="1484.5" y="-102.25" font-family="Helvetica,sans-Serif" font-size="10.00">&#45;flex&#45;estimator&#45;imu.hpp</text>
</a>
</g>
</g>
<!-- Node14&#45;&gt;Node15 -->
<g id="edge14_Node000014_Node000015" class="edge">
<title>Node14&#45;&gt;Node15</title>
<g id="a_edge14_Node000014_Node000015"><a xlink:title=" ">
<path fill="none" stroke="#63b8ff" d="M1484.5,-178.16C1484.5,-170.16 1484.5,-161.92 1484.5,-154.4"/>
<polygon fill="#63b8ff" stroke="#63b8ff" points="1481,-178.07 1484.5,-188.07 1488,-178.07 1481,-178.07"/>
</a>
</g>
</g>
<!-- Node16 -->
<g id="Node000016" class="node">
<title>Node16</title>
<g id="a_Node000016"><a xlink:href="offline-ekf-flexibility-estimation_8hpp.html" target="_top" xlink:title="Gives an implementation of flexibility estimation for IMU reconstruction with or without given input ...">
<polygon fill="white" stroke="#666666" points="1562.62,-59 1406.38,-59 1406.38,0 1562.62,0 1562.62,-59"/>
<text text-anchor="start" x="1414.38" y="-45.5" font-family="Helvetica,sans-Serif" font-size="10.00">/build/source/include</text>
<text text-anchor="start" x="1414.38" y="-32.75" font-family="Helvetica,sans-Serif" font-size="10.00">/state&#45;observation/examples</text>
<text text-anchor="start" x="1414.38" y="-20" font-family="Helvetica,sans-Serif" font-size="10.00">/offline&#45;ekf&#45;flexibility</text>
<text text-anchor="middle" x="1484.5" y="-7.25" font-family="Helvetica,sans-Serif" font-size="10.00">&#45;estimation.hpp</text>
</a>
</g>
</g>
<!-- Node15&#45;&gt;Node16 -->
<g id="edge15_Node000015_Node000016" class="edge">
<title>Node15&#45;&gt;Node16</title>
<g id="a_edge15_Node000015_Node000016"><a xlink:title=" ">
<path fill="none" stroke="#63b8ff" d="M1484.5,-83.16C1484.5,-75.16 1484.5,-66.92 1484.5,-59.4"/>
<polygon fill="#63b8ff" stroke="#63b8ff" points="1481,-83.07 1484.5,-93.07 1488,-83.07 1481,-83.07"/>
</a>
</g>
</g>
</g>
</svg>
