<?xml version="1.0" encoding="UTF-8" standalone="no"?>
<!DOCTYPE svg PUBLIC "-//W3C//DTD SVG 1.1//EN"
 "http://www.w3.org/Graphics/SVG/1.1/DTD/svg11.dtd">
<!-- Generated by graphviz version 12.2.1 (0)
 -->
<!-- Title: /build/source/include/state&#45;observation/tools/probability&#45;law&#45;simulation.hpp Pages: 1 -->
<svg width="1228pt" height="193pt"
 viewBox="0.00 0.00 1228.25 193.25" xmlns="http://www.w3.org/2000/svg" xmlns:xlink="http://www.w3.org/1999/xlink">
<g id="graph0" class="graph" transform="scale(1 1) rotate(0) translate(4 189.25)">
<title>/build/source/include/state&#45;observation/tools/probability&#45;law&#45;simulation.hpp</title>
<!-- Node1 -->
<g id="Node000001" class="node">
<title>Node1</title>
<g id="a_Node000001"><a xlink:title=" ">
<polygon fill="#999999" stroke="#666666" points="511.12,-185.25 342.12,-185.25 342.12,-139 511.12,-139 511.12,-185.25"/>
<text text-anchor="start" x="350.12" y="-171.75" font-family="Helvetica,sans-Serif" font-size="10.00">/build/source/include</text>
<text text-anchor="start" x="350.12" y="-159" font-family="Helvetica,sans-Serif" font-size="10.00">/state&#45;observation/tools</text>
<text text-anchor="middle" x="426.62" y="-146.25" font-family="Helvetica,sans-Serif" font-size="10.00">/probability&#45;law&#45;simulation.hpp</text>
</a>
</g>
</g>
<!-- Node2 -->
<g id="Node000002" class="node">
<title>Node2</title>
<g id="a_Node000002"><a xlink:title=" ">
<polygon fill="#e0e0e0" stroke="#999999" points="352.38,-96.62 298.88,-96.62 298.88,-75.88 352.38,-75.88 352.38,-96.62"/>
<text text-anchor="middle" x="325.62" y="-83.12" font-family="Helvetica,sans-Serif" font-size="10.00">random</text>
</a>
</g>
</g>
<!-- Node1&#45;&gt;Node2 -->
<g id="edge1_Node000001_Node000002" class="edge">
<title>Node1&#45;&gt;Node2</title>
<g id="a_edge1_Node000001_Node000002"><a xlink:title=" ">
<path fill="none" stroke="#63b8ff" d="M395.77,-138.56C380.31,-127.25 361.94,-113.81 347.88,-103.53"/>
<polygon fill="#63b8ff" stroke="#63b8ff" points="350.28,-100.95 340.14,-97.87 346.15,-106.6 350.28,-100.95"/>
</a>
</g>
</g>
<!-- Node3 -->
<g id="Node000003" class="node">
<title>Node3</title>
<g id="a_Node000003"><a xlink:title=" ">
<polygon fill="#e0e0e0" stroke="#999999" points="129.25,-27.12 0,-27.12 0,-6.38 129.25,-6.38 129.25,-27.12"/>
<text text-anchor="middle" x="64.62" y="-13.62" font-family="Helvetica,sans-Serif" font-size="10.00">state&#45;observation/api.h</text>
</a>
</g>
</g>
<!-- Node1&#45;&gt;Node3 -->
<g id="edge2_Node000001_Node000003" class="edge">
<title>Node1&#45;&gt;Node3</title>
<g id="a_edge2_Node000001_Node000003"><a xlink:title=" ">
<path fill="none" stroke="#63b8ff" d="M417.04,-138.69C406.65,-117.26 387.96,-85.88 361.62,-69.5 276.01,-16.23 236.72,-52.14 137.62,-33.5 131.73,-32.39 125.59,-31.17 119.47,-29.91"/>
<polygon fill="#63b8ff" stroke="#63b8ff" points="120.54,-26.56 110.04,-27.93 119.11,-33.41 120.54,-26.56"/>
</a>
</g>
</g>
<!-- Node4 -->
<g id="Node000004" class="node">
<title>Node4</title>
<g id="a_Node000004"><a xlink:href="definitions_8hpp.html" target="_top" xlink:title="Definitions of types and some structures.">
<polygon fill="white" stroke="#666666" points="538.25,-103 409,-103 409,-69.5 538.25,-69.5 538.25,-103"/>
<text text-anchor="start" x="417" y="-89.5" font-family="Helvetica,sans-Serif" font-size="10.00">state&#45;observation/tools</text>
<text text-anchor="middle" x="473.62" y="-76.75" font-family="Helvetica,sans-Serif" font-size="10.00">/definitions.hpp</text>
</a>
</g>
</g>
<!-- Node1&#45;&gt;Node4 -->
<g id="edge3_Node000001_Node000004" class="edge">
<title>Node1&#45;&gt;Node4</title>
<g id="a_edge3_Node000001_Node000004"><a xlink:title=" ">
<path fill="none" stroke="#63b8ff" d="M440.98,-138.56C446.13,-130.47 451.96,-121.3 457.26,-112.97"/>
<polygon fill="#63b8ff" stroke="#63b8ff" points="460.15,-114.95 462.57,-104.63 454.25,-111.19 460.15,-114.95"/>
</a>
</g>
</g>
<!-- Node16 -->
<g id="Node000016" class="node">
<title>Node16</title>
<g id="a_Node000016"><a xlink:title=" ">
<polygon fill="#e0e0e0" stroke="#999999" points="725.12,-103 556.12,-103 556.12,-69.5 725.12,-69.5 725.12,-103"/>
<text text-anchor="start" x="564.12" y="-89.5" font-family="Helvetica,sans-Serif" font-size="10.00">state&#45;observation/tools</text>
<text text-anchor="middle" x="640.62" y="-76.75" font-family="Helvetica,sans-Serif" font-size="10.00">/probability&#45;law&#45;simulation.hxx</text>
</a>
</g>
</g>
<!-- Node1&#45;&gt;Node16 -->
<g id="edge16_Node000001_Node000016" class="edge">
<title>Node1&#45;&gt;Node16</title>
<g id="a_edge16_Node000001_Node000016"><a xlink:title=" ">
<path fill="none" stroke="#63b8ff" d="M491.99,-138.56C520.97,-128.56 554.77,-116.89 582.8,-107.21"/>
<polygon fill="#63b8ff" stroke="#63b8ff" points="583.9,-110.53 592.21,-103.96 581.62,-103.92 583.9,-110.53"/>
</a>
</g>
</g>
<!-- Node4&#45;&gt;Node3 -->
<g id="edge13_Node000004_Node000003" class="edge">
<title>Node4&#45;&gt;Node3</title>
<g id="a_edge13_Node000004_Node000003"><a xlink:title=" ">
<path fill="none" stroke="#63b8ff" d="M408.58,-71.97C403.86,-71.11 399.18,-70.27 394.62,-69.5 280.91,-50.22 251.18,-53.68 137.62,-33.5 131.56,-32.42 125.23,-31.2 118.95,-29.93"/>
<polygon fill="#63b8ff" stroke="#63b8ff" points="119.74,-26.52 109.24,-27.91 118.31,-33.37 119.74,-26.52"/>
</a>
</g>
</g>
<!-- Node5 -->
<g id="Node000005" class="node">
<title>Node5</title>
<g id="a_Node000005"><a xlink:title=" ">
<polygon fill="#e0e0e0" stroke="#999999" points="196.12,-27.12 147.12,-27.12 147.12,-6.38 196.12,-6.38 196.12,-27.12"/>
<text text-anchor="middle" x="171.62" y="-13.62" font-family="Helvetica,sans-Serif" font-size="10.00">chrono</text>
</a>
</g>
</g>
<!-- Node4&#45;&gt;Node5 -->
<g id="edge4_Node000004_Node000005" class="edge">
<title>Node4&#45;&gt;Node5</title>
<g id="a_edge4_Node000004_Node000005"><a xlink:title=" ">
<path fill="none" stroke="#63b8ff" d="M408.54,-72.23C403.83,-71.3 399.15,-70.38 394.62,-69.5 310.69,-53.14 287.03,-59.67 205.62,-33.5 204.08,-33 202.51,-32.45 200.93,-31.86"/>
<polygon fill="#63b8ff" stroke="#63b8ff" points="202.69,-28.8 192.11,-28.17 199.99,-35.26 202.69,-28.8"/>
</a>
</g>
</g>
<!-- Node6 -->
<g id="Node000006" class="node">
<title>Node6</title>
<g id="a_Node000006"><a xlink:title=" ">
<polygon fill="#e0e0e0" stroke="#999999" points="260.62,-27.12 214.62,-27.12 214.62,-6.38 260.62,-6.38 260.62,-27.12"/>
<text text-anchor="middle" x="237.62" y="-13.62" font-family="Helvetica,sans-Serif" font-size="10.00">deque</text>
</a>
</g>
</g>
<!-- Node4&#45;&gt;Node6 -->
<g id="edge5_Node000004_Node000006" class="edge">
<title>Node4&#45;&gt;Node6</title>
<g id="a_edge5_Node000004_Node000006"><a xlink:title=" ">
<path fill="none" stroke="#63b8ff" d="M408.72,-72.42C368.11,-63.51 315.05,-50.23 269.62,-33.5 268.49,-33.08 267.35,-32.64 266.2,-32.17"/>
<polygon fill="#63b8ff" stroke="#63b8ff" points="267.89,-29.09 257.33,-28.2 265.03,-35.48 267.89,-29.09"/>
</a>
</g>
</g>
<!-- Node7 -->
<g id="Node000007" class="node">
<title>Node7</title>
<g id="a_Node000007"><a xlink:title=" ">
<polygon fill="#e0e0e0" stroke="#999999" points="342.62,-27.12 278.62,-27.12 278.62,-6.38 342.62,-6.38 342.62,-27.12"/>
<text text-anchor="middle" x="310.62" y="-13.62" font-family="Helvetica,sans-Serif" font-size="10.00">stdexcept</text>
</a>
</g>
</g>
<!-- Node4&#45;&gt;Node7 -->
<g id="edge6_Node000004_Node000007" class="edge">
<title>Node4&#45;&gt;Node7</title>
<g id="a_edge6_Node000004_Node000007"><a xlink:title=" ">
<path fill="none" stroke="#63b8ff" d="M434.58,-69.08C407.22,-57.75 371,-42.75 344.79,-31.9"/>
<polygon fill="#63b8ff" stroke="#63b8ff" points="346.2,-28.69 335.62,-28.1 343.52,-35.16 346.2,-28.69"/>
</a>
</g>
</g>
<!-- Node8 -->
<g id="Node000008" class="node">
<title>Node8</title>
<g id="a_Node000008"><a xlink:title=" ">
<polygon fill="#e0e0e0" stroke="#999999" points="407,-27.12 360.25,-27.12 360.25,-6.38 407,-6.38 407,-27.12"/>
<text text-anchor="middle" x="383.62" y="-13.62" font-family="Helvetica,sans-Serif" font-size="10.00">vector</text>
</a>
</g>
</g>
<!-- Node4&#45;&gt;Node8 -->
<g id="edge7_Node000004_Node000008" class="edge">
<title>Node4&#45;&gt;Node8</title>
<g id="a_edge7_Node000004_Node000008"><a xlink:title=" ">
<path fill="none" stroke="#63b8ff" d="M452.3,-69.25C438.27,-58.74 419.97,-45.01 405.78,-34.37"/>
<polygon fill="#63b8ff" stroke="#63b8ff" points="408.03,-31.68 397.93,-28.48 403.83,-37.28 408.03,-31.68"/>
</a>
</g>
</g>
<!-- Node9 -->
<g id="Node000009" class="node">
<title>Node9</title>
<g id="a_Node000009"><a xlink:title=" ">
<polygon fill="#e0e0e0" stroke="#999999" points="522.12,-27.12 425.12,-27.12 425.12,-6.38 522.12,-6.38 522.12,-27.12"/>
<text text-anchor="middle" x="473.62" y="-13.62" font-family="Helvetica,sans-Serif" font-size="10.00">boost/assert.hpp</text>
</a>
</g>
</g>
<!-- Node4&#45;&gt;Node9 -->
<g id="edge8_Node000004_Node000009" class="edge">
<title>Node4&#45;&gt;Node9</title>
<g id="a_edge8_Node000004_Node000009"><a xlink:title=" ">
<path fill="none" stroke="#63b8ff" d="M473.62,-69.25C473.62,-60.15 473.62,-48.64 473.62,-38.82"/>
<polygon fill="#63b8ff" stroke="#63b8ff" points="477.13,-39.09 473.63,-29.09 470.13,-39.09 477.13,-39.09"/>
</a>
</g>
</g>
<!-- Node10 -->
<g id="Node000010" class="node">
<title>Node10</title>
<g id="a_Node000010"><a xlink:title=" ">
<polygon fill="#e0e0e0" stroke="#999999" points="661.5,-27.12 539.75,-27.12 539.75,-6.38 661.5,-6.38 661.5,-27.12"/>
<text text-anchor="middle" x="600.62" y="-13.62" font-family="Helvetica,sans-Serif" font-size="10.00">boost/timer/timer.hpp</text>
</a>
</g>
</g>
<!-- Node4&#45;&gt;Node10 -->
<g id="edge9_Node000004_Node000010" class="edge">
<title>Node4&#45;&gt;Node10</title>
<g id="a_edge9_Node000004_Node000010"><a xlink:title=" ">
<path fill="none" stroke="#63b8ff" d="M504.04,-69.08C524.79,-58.06 552.07,-43.55 572.35,-32.78"/>
<polygon fill="#63b8ff" stroke="#63b8ff" points="573.72,-36.02 580.9,-28.23 570.43,-29.83 573.72,-36.02"/>
</a>
</g>
</g>
<!-- Node11 -->
<g id="Node000011" class="node">
<title>Node11</title>
<g id="a_Node000011"><a xlink:title=" ">
<polygon fill="#e0e0e0" stroke="#999999" points="747.88,-27.12 679.38,-27.12 679.38,-6.38 747.88,-6.38 747.88,-27.12"/>
<text text-anchor="middle" x="713.62" y="-13.62" font-family="Helvetica,sans-Serif" font-size="10.00">Eigen/Core</text>
</a>
</g>
</g>
<!-- Node4&#45;&gt;Node11 -->
<g id="edge10_Node000004_Node000011" class="edge">
<title>Node4&#45;&gt;Node11</title>
<g id="a_edge10_Node000004_Node000011"><a xlink:title=" ">
<path fill="none" stroke="#63b8ff" d="M538.39,-69.87C577.03,-60.29 626.93,-47.21 670.62,-33.5 672.88,-32.79 675.19,-32.04 677.51,-31.26"/>
<polygon fill="#63b8ff" stroke="#63b8ff" points="678.59,-34.59 686.87,-27.98 676.27,-27.98 678.59,-34.59"/>
</a>
</g>
</g>
<!-- Node12 -->
<g id="Node000012" class="node">
<title>Node12</title>
<g id="a_Node000012"><a xlink:title=" ">
<polygon fill="#e0e0e0" stroke="#999999" points="861,-27.12 766.25,-27.12 766.25,-6.38 861,-6.38 861,-27.12"/>
<text text-anchor="middle" x="813.62" y="-13.62" font-family="Helvetica,sans-Serif" font-size="10.00">Eigen/Geometry</text>
</a>
</g>
</g>
<!-- Node4&#45;&gt;Node12 -->
<g id="edge11_Node000004_Node000012" class="edge">
<title>Node4&#45;&gt;Node12</title>
<g id="a_edge11_Node000004_Node000012"><a xlink:title=" ">
<path fill="none" stroke="#63b8ff" d="M538.57,-71.28C541.63,-70.67 544.66,-70.07 547.62,-69.5 640.18,-51.69 664.64,-54.08 756.62,-33.5 760.72,-32.58 764.97,-31.56 769.21,-30.48"/>
<polygon fill="#63b8ff" stroke="#63b8ff" points="770.07,-33.87 778.84,-27.94 768.28,-27.1 770.07,-33.87"/>
</a>
</g>
</g>
<!-- Node13 -->
<g id="Node000013" class="node">
<title>Node13</title>
<g id="a_Node000013"><a xlink:title=" ">
<polygon fill="#e0e0e0" stroke="#999999" points="1000.5,-33.5 878.75,-33.5 878.75,0 1000.5,0 1000.5,-33.5"/>
<text text-anchor="start" x="886.75" y="-20" font-family="Helvetica,sans-Serif" font-size="10.00">boost/math/constants</text>
<text text-anchor="middle" x="939.62" y="-7.25" font-family="Helvetica,sans-Serif" font-size="10.00">/constants.hpp</text>
</a>
</g>
</g>
<!-- Node4&#45;&gt;Node13 -->
<g id="edge12_Node000004_Node000013" class="edge">
<title>Node4&#45;&gt;Node13</title>
<g id="a_edge12_Node000004_Node000013"><a xlink:title=" ">
<path fill="none" stroke="#63b8ff" d="M538.53,-71.06C541.6,-70.51 544.64,-69.98 547.62,-69.5 686.17,-47.07 725.62,-56.81 867.33,-33.76"/>
<polygon fill="#63b8ff" stroke="#63b8ff" points="867.83,-37.23 877.13,-32.14 866.69,-30.32 867.83,-37.23"/>
</a>
</g>
</g>
<!-- Node14 -->
<g id="Node000014" class="node">
<title>Node14</title>
<g id="a_Node000014"><a xlink:title=" ">
<polygon fill="#e0e0e0" stroke="#999999" points="1072.75,-27.12 1018.5,-27.12 1018.5,-6.38 1072.75,-6.38 1072.75,-27.12"/>
<text text-anchor="middle" x="1045.62" y="-13.62" font-family="Helvetica,sans-Serif" font-size="10.00">fstream</text>
</a>
</g>
</g>
<!-- Node4&#45;&gt;Node14 -->
<g id="edge14_Node000004_Node000014" class="edge">
<title>Node4&#45;&gt;Node14</title>
<g id="a_edge14_Node000004_Node000014"><a xlink:title=" ">
<path fill="none" stroke="#63b8ff" d="M538.51,-70.93C541.59,-70.41 544.64,-69.93 547.62,-69.5 751.46,-40 809.82,-83.47 1009.62,-33.5 1011.76,-32.97 1013.93,-32.32 1016.09,-31.59"/>
<polygon fill="#63b8ff" stroke="#63b8ff" points="1017.16,-34.93 1025.2,-28.03 1014.62,-28.41 1017.16,-34.93"/>
</a>
</g>
</g>
<!-- Node15 -->
<g id="Node000015" class="node">
<title>Node15</title>
<g id="a_Node000015"><a xlink:title=" ">
<polygon fill="#e0e0e0" stroke="#999999" points="1220.25,-33.5 1091,-33.5 1091,0 1220.25,0 1220.25,-33.5"/>
<text text-anchor="start" x="1099" y="-20" font-family="Helvetica,sans-Serif" font-size="10.00">state&#45;observation/tools</text>
<text text-anchor="middle" x="1155.62" y="-7.25" font-family="Helvetica,sans-Serif" font-size="10.00">/definitions.hxx</text>
</a>
</g>
</g>
<!-- Node4&#45;&gt;Node15 -->
<g id="edge15_Node000004_Node000015" class="edge">
<title>Node4&#45;&gt;Node15</title>
<g id="a_edge15_Node000004_Node000015"><a xlink:title=" ">
<path fill="none" stroke="#63b8ff" d="M538.5,-70.9C541.58,-70.39 544.63,-69.92 547.62,-69.5 779.54,-37.17 844.03,-65.43 1079.41,-33.66"/>
<polygon fill="#63b8ff" stroke="#63b8ff" points="1079.82,-37.14 1089.25,-32.31 1078.86,-30.21 1079.82,-37.14"/>
</a>
</g>
</g>
</g>
</svg>
