<?xml version="1.0" encoding="UTF-8" standalone="no"?>
<!DOCTYPE svg PUBLIC "-//W3C//DTD SVG 1.1//EN"
 "http://www.w3.org/Graphics/SVG/1.1/DTD/svg11.dtd">
<!-- Generated by graphviz version 12.2.1 (0)
 -->
<!-- Title: /build/source/include/state&#45;observation/tools/rigid&#45;body&#45;kinematics.hpp Pages: 1 -->
<svg width="1229pt" height="263pt"
 viewBox="0.00 0.00 1228.62 262.75" xmlns="http://www.w3.org/2000/svg" xmlns:xlink="http://www.w3.org/1999/xlink">
<g id="graph0" class="graph" transform="scale(1 1) rotate(0) translate(4 258.75)">
<title>/build/source/include/state&#45;observation/tools/rigid&#45;body&#45;kinematics.hpp</title>
<!-- Node1 -->
<g id="Node000001" class="node">
<title>Node1</title>
<g id="a_Node000001"><a xlink:title="Implements integrators for the kinematics, in terms or rotations and translations.">
<polygon fill="#999999" stroke="#666666" points="410.25,-254.75 263,-254.75 263,-208.5 410.25,-208.5 410.25,-254.75"/>
<text text-anchor="start" x="271" y="-241.25" font-family="Helvetica,sans-Serif" font-size="10.00">/build/source/include</text>
<text text-anchor="start" x="271" y="-228.5" font-family="Helvetica,sans-Serif" font-size="10.00">/state&#45;observation/tools</text>
<text text-anchor="middle" x="336.62" y="-215.75" font-family="Helvetica,sans-Serif" font-size="10.00">/rigid&#45;body&#45;kinematics.hpp</text>
</a>
</g>
</g>
<!-- Node2 -->
<g id="Node000002" class="node">
<title>Node2</title>
<g id="a_Node000002"><a xlink:title=" ">
<polygon fill="#e0e0e0" stroke="#999999" points="114.75,-166.12 48.5,-166.12 48.5,-145.38 114.75,-145.38 114.75,-166.12"/>
<text text-anchor="middle" x="81.62" y="-152.62" font-family="Helvetica,sans-Serif" font-size="10.00">Eigen/SVD</text>
</a>
</g>
</g>
<!-- Node1&#45;&gt;Node2 -->
<g id="edge1_Node000001_Node000002" class="edge">
<title>Node1&#45;&gt;Node2</title>
<g id="a_edge1_Node000001_Node000002"><a xlink:title=" ">
<path fill="none" stroke="#63b8ff" d="M262.72,-210.95C222.86,-200.1 172.89,-186.09 128.62,-172.5 126.06,-171.71 123.42,-170.88 120.76,-170.03"/>
<polygon fill="#63b8ff" stroke="#63b8ff" points="121.91,-166.73 111.32,-166.95 119.74,-173.38 121.91,-166.73"/>
</a>
</g>
</g>
<!-- Node3 -->
<g id="Node000003" class="node">
<title>Node3</title>
<g id="a_Node000003"><a xlink:title=" ">
<polygon fill="#e0e0e0" stroke="#999999" points="129.25,-27.12 0,-27.12 0,-6.38 129.25,-6.38 129.25,-27.12"/>
<text text-anchor="middle" x="64.62" y="-13.62" font-family="Helvetica,sans-Serif" font-size="10.00">state&#45;observation/api.h</text>
</a>
</g>
</g>
<!-- Node1&#45;&gt;Node3 -->
<g id="edge2_Node000001_Node000003" class="edge">
<title>Node1&#45;&gt;Node3</title>
<g id="a_edge2_Node000001_Node000003"><a xlink:title=" ">
<path fill="none" stroke="#63b8ff" d="M262.52,-209.74C237.91,-200.68 211.29,-188.43 189.62,-172.5 137.63,-134.27 94.93,-69.39 75.67,-37.14"/>
<polygon fill="#63b8ff" stroke="#63b8ff" points="78.89,-35.72 70.82,-28.85 72.85,-39.25 78.89,-35.72"/>
</a>
</g>
</g>
<!-- Node4 -->
<g id="Node000004" class="node">
<title>Node4</title>
<g id="a_Node000004"><a xlink:href="definitions_8hpp.html" target="_top" xlink:title="Definitions of types and some structures.">
<polygon fill="white" stroke="#666666" points="565.25,-103 436,-103 436,-69.5 565.25,-69.5 565.25,-103"/>
<text text-anchor="start" x="444" y="-89.5" font-family="Helvetica,sans-Serif" font-size="10.00">state&#45;observation/tools</text>
<text text-anchor="middle" x="500.62" y="-76.75" font-family="Helvetica,sans-Serif" font-size="10.00">/definitions.hpp</text>
</a>
</g>
</g>
<!-- Node1&#45;&gt;Node4 -->
<g id="edge3_Node000001_Node000004" class="edge">
<title>Node1&#45;&gt;Node4</title>
<g id="a_edge3_Node000001_Node000004"><a xlink:title=" ">
<path fill="none" stroke="#63b8ff" d="M351.94,-208.01C366.1,-188.22 388.54,-159.49 412.62,-139 426.01,-127.62 442.22,-117.29 457.06,-108.91"/>
<polygon fill="#63b8ff" stroke="#63b8ff" points="458.65,-112.03 465.74,-104.15 455.29,-105.89 458.65,-112.03"/>
</a>
</g>
</g>
<!-- Node16 -->
<g id="Node000016" class="node">
<title>Node16</title>
<g id="a_Node000016"><a xlink:href="miscellaneous-algorithms_8hpp.html" target="_top" xlink:title="Gathers many kinds of algorithms.">
<polygon fill="white" stroke="#666666" points="365,-172.5 198.25,-172.5 198.25,-139 365,-139 365,-172.5"/>
<text text-anchor="start" x="206.25" y="-159" font-family="Helvetica,sans-Serif" font-size="10.00">state&#45;observation/tools</text>
<text text-anchor="middle" x="281.62" y="-146.25" font-family="Helvetica,sans-Serif" font-size="10.00">/miscellaneous&#45;algorithms.hpp</text>
</a>
</g>
</g>
<!-- Node1&#45;&gt;Node16 -->
<g id="edge16_Node000001_Node000016" class="edge">
<title>Node1&#45;&gt;Node16</title>
<g id="a_edge16_Node000001_Node000016"><a xlink:title=" ">
<path fill="none" stroke="#63b8ff" d="M319.82,-208.06C313.67,-199.8 306.68,-190.4 300.37,-181.92"/>
<polygon fill="#63b8ff" stroke="#63b8ff" points="303.3,-180 294.52,-174.07 297.68,-184.18 303.3,-180"/>
</a>
</g>
</g>
<!-- Node19 -->
<g id="Node000019" class="node">
<title>Node19</title>
<g id="a_Node000019"><a xlink:href="probability-law-simulation_8hpp.html" target="_top" xlink:title=" ">
<polygon fill="white" stroke="#666666" points="590.12,-172.5 421.12,-172.5 421.12,-139 590.12,-139 590.12,-172.5"/>
<text text-anchor="start" x="429.12" y="-159" font-family="Helvetica,sans-Serif" font-size="10.00">state&#45;observation/tools</text>
<text text-anchor="middle" x="505.62" y="-146.25" font-family="Helvetica,sans-Serif" font-size="10.00">/probability&#45;law&#45;simulation.hpp</text>
</a>
</g>
</g>
<!-- Node1&#45;&gt;Node19 -->
<g id="edge21_Node000001_Node000019" class="edge">
<title>Node1&#45;&gt;Node19</title>
<g id="a_edge21_Node000001_Node000019"><a xlink:title=" ">
<path fill="none" stroke="#63b8ff" d="M388.25,-208.06C410.52,-198.32 436.41,-187.01 458.19,-177.49"/>
<polygon fill="#63b8ff" stroke="#63b8ff" points="459.37,-180.79 467.13,-173.58 456.57,-174.37 459.37,-180.79"/>
</a>
</g>
</g>
<!-- Node22 -->
<g id="Node000022" class="node">
<title>Node22</title>
<g id="a_Node000022"><a xlink:title=" ">
<polygon fill="#e0e0e0" stroke="#999999" points="755.25,-172.5 608,-172.5 608,-139 755.25,-139 755.25,-172.5"/>
<text text-anchor="start" x="616" y="-159" font-family="Helvetica,sans-Serif" font-size="10.00">state&#45;observation/tools</text>
<text text-anchor="middle" x="681.62" y="-146.25" font-family="Helvetica,sans-Serif" font-size="10.00">/rigid&#45;body&#45;kinematics.hxx</text>
</a>
</g>
</g>
<!-- Node1&#45;&gt;Node22 -->
<g id="edge26_Node000001_Node000022" class="edge">
<title>Node1&#45;&gt;Node22</title>
<g id="a_edge26_Node000001_Node000022"><a xlink:title=" ">
<path fill="none" stroke="#63b8ff" d="M410.64,-214.78C465.21,-203.09 539.56,-187.17 596.57,-174.96"/>
<polygon fill="#63b8ff" stroke="#63b8ff" points="597.21,-178.41 606.26,-172.89 595.75,-171.56 597.21,-178.41"/>
</a>
</g>
</g>
<!-- Node4&#45;&gt;Node3 -->
<g id="edge13_Node000004_Node000003" class="edge">
<title>Node4&#45;&gt;Node3</title>
<g id="a_edge13_Node000004_Node000003"><a xlink:title=" ">
<path fill="none" stroke="#63b8ff" d="M435.9,-72.58C429.73,-71.49 423.56,-70.45 417.62,-69.5 294.15,-49.84 261.87,-54.53 138.62,-33.5 132.24,-32.41 125.57,-31.16 118.95,-29.84"/>
<polygon fill="#63b8ff" stroke="#63b8ff" points="119.93,-26.47 109.43,-27.89 118.52,-33.32 119.93,-26.47"/>
</a>
</g>
</g>
<!-- Node5 -->
<g id="Node000005" class="node">
<title>Node5</title>
<g id="a_Node000005"><a xlink:title=" ">
<polygon fill="#e0e0e0" stroke="#999999" points="1074.12,-27.12 1025.12,-27.12 1025.12,-6.38 1074.12,-6.38 1074.12,-27.12"/>
<text text-anchor="middle" x="1049.62" y="-13.62" font-family="Helvetica,sans-Serif" font-size="10.00">chrono</text>
</a>
</g>
</g>
<!-- Node4&#45;&gt;Node5 -->
<g id="edge4_Node000004_Node000005" class="edge">
<title>Node4&#45;&gt;Node5</title>
<g id="a_edge4_Node000004_Node000005"><a xlink:title=" ">
<path fill="none" stroke="#63b8ff" d="M565.51,-70.95C568.59,-70.42 571.64,-69.94 574.62,-69.5 769.64,-40.93 826.32,-84.79 1016.62,-33.5 1018.44,-33.01 1020.27,-32.43 1022.1,-31.77"/>
<polygon fill="#63b8ff" stroke="#63b8ff" points="1023.02,-35.18 1030.87,-28.07 1020.3,-28.73 1023.02,-35.18"/>
</a>
</g>
</g>
<!-- Node6 -->
<g id="Node000006" class="node">
<title>Node6</title>
<g id="a_Node000006"><a xlink:title=" ">
<polygon fill="#e0e0e0" stroke="#999999" points="1138.62,-27.12 1092.62,-27.12 1092.62,-6.38 1138.62,-6.38 1138.62,-27.12"/>
<text text-anchor="middle" x="1115.62" y="-13.62" font-family="Helvetica,sans-Serif" font-size="10.00">deque</text>
</a>
</g>
</g>
<!-- Node4&#45;&gt;Node6 -->
<g id="edge5_Node000004_Node000006" class="edge">
<title>Node4&#45;&gt;Node6</title>
<g id="a_edge5_Node000004_Node000006"><a xlink:title=" ">
<path fill="none" stroke="#63b8ff" d="M565.51,-70.91C568.58,-70.4 571.63,-69.92 574.62,-69.5 799.19,-37.82 864.69,-92.68 1083.62,-33.5 1085.23,-33.07 1086.85,-32.55 1088.47,-31.97"/>
<polygon fill="#63b8ff" stroke="#63b8ff" points="1089.63,-35.28 1097.44,-28.12 1086.87,-28.85 1089.63,-35.28"/>
</a>
</g>
</g>
<!-- Node7 -->
<g id="Node000007" class="node">
<title>Node7</title>
<g id="a_Node000007"><a xlink:title=" ">
<polygon fill="#e0e0e0" stroke="#999999" points="1220.62,-27.12 1156.62,-27.12 1156.62,-6.38 1220.62,-6.38 1220.62,-27.12"/>
<text text-anchor="middle" x="1188.62" y="-13.62" font-family="Helvetica,sans-Serif" font-size="10.00">stdexcept</text>
</a>
</g>
</g>
<!-- Node4&#45;&gt;Node7 -->
<g id="edge6_Node000004_Node000007" class="edge">
<title>Node4&#45;&gt;Node7</title>
<g id="a_edge6_Node000004_Node000007"><a xlink:title=" ">
<path fill="none" stroke="#63b8ff" d="M565.5,-70.88C568.58,-70.37 571.63,-69.91 574.62,-69.5 827.43,-34.85 898.32,-87.88 1147.62,-33.5 1150.43,-32.89 1153.29,-32.12 1156.14,-31.24"/>
<polygon fill="#63b8ff" stroke="#63b8ff" points="1157.15,-34.6 1165.44,-28.01 1154.85,-27.99 1157.15,-34.6"/>
</a>
</g>
</g>
<!-- Node8 -->
<g id="Node000008" class="node">
<title>Node8</title>
<g id="a_Node000008"><a xlink:title=" ">
<polygon fill="#e0e0e0" stroke="#999999" points="194,-27.12 147.25,-27.12 147.25,-6.38 194,-6.38 194,-27.12"/>
<text text-anchor="middle" x="170.62" y="-13.62" font-family="Helvetica,sans-Serif" font-size="10.00">vector</text>
</a>
</g>
</g>
<!-- Node4&#45;&gt;Node8 -->
<g id="edge7_Node000004_Node000008" class="edge">
<title>Node4&#45;&gt;Node8</title>
<g id="a_edge7_Node000004_Node000008"><a xlink:title=" ">
<path fill="none" stroke="#63b8ff" d="M435.86,-72.82C429.7,-71.68 423.54,-70.56 417.62,-69.5 322.69,-52.51 295.59,-62.55 203.62,-33.5 202.07,-33.01 200.5,-32.46 198.93,-31.87"/>
<polygon fill="#63b8ff" stroke="#63b8ff" points="200.72,-28.83 190.15,-28.11 197.97,-35.26 200.72,-28.83"/>
</a>
</g>
</g>
<!-- Node9 -->
<g id="Node000009" class="node">
<title>Node9</title>
<g id="a_Node000009"><a xlink:title=" ">
<polygon fill="#e0e0e0" stroke="#999999" points="309.12,-27.12 212.12,-27.12 212.12,-6.38 309.12,-6.38 309.12,-27.12"/>
<text text-anchor="middle" x="260.62" y="-13.62" font-family="Helvetica,sans-Serif" font-size="10.00">boost/assert.hpp</text>
</a>
</g>
</g>
<!-- Node4&#45;&gt;Node9 -->
<g id="edge8_Node000004_Node000009" class="edge">
<title>Node4&#45;&gt;Node9</title>
<g id="a_edge8_Node000004_Node000009"><a xlink:title=" ">
<path fill="none" stroke="#63b8ff" d="M443.14,-69.08C401.36,-57.33 345.56,-41.64 306.7,-30.71"/>
<polygon fill="#63b8ff" stroke="#63b8ff" points="307.75,-27.37 297.17,-28.03 305.85,-34.11 307.75,-27.37"/>
</a>
</g>
</g>
<!-- Node10 -->
<g id="Node000010" class="node">
<title>Node10</title>
<g id="a_Node000010"><a xlink:title=" ">
<polygon fill="#e0e0e0" stroke="#999999" points="448.5,-27.12 326.75,-27.12 326.75,-6.38 448.5,-6.38 448.5,-27.12"/>
<text text-anchor="middle" x="387.62" y="-13.62" font-family="Helvetica,sans-Serif" font-size="10.00">boost/timer/timer.hpp</text>
</a>
</g>
</g>
<!-- Node4&#45;&gt;Node10 -->
<g id="edge9_Node000004_Node000010" class="edge">
<title>Node4&#45;&gt;Node10</title>
<g id="a_edge9_Node000004_Node000010"><a xlink:title=" ">
<path fill="none" stroke="#63b8ff" d="M473.56,-69.08C455.44,-58.26 431.71,-44.09 413.78,-33.38"/>
<polygon fill="#63b8ff" stroke="#63b8ff" points="415.66,-30.42 405.28,-28.3 412.07,-36.43 415.66,-30.42"/>
</a>
</g>
</g>
<!-- Node11 -->
<g id="Node000011" class="node">
<title>Node11</title>
<g id="a_Node000011"><a xlink:title=" ">
<polygon fill="#e0e0e0" stroke="#999999" points="534.88,-27.12 466.38,-27.12 466.38,-6.38 534.88,-6.38 534.88,-27.12"/>
<text text-anchor="middle" x="500.62" y="-13.62" font-family="Helvetica,sans-Serif" font-size="10.00">Eigen/Core</text>
</a>
</g>
</g>
<!-- Node4&#45;&gt;Node11 -->
<g id="edge10_Node000004_Node000011" class="edge">
<title>Node4&#45;&gt;Node11</title>
<g id="a_edge10_Node000004_Node000011"><a xlink:title=" ">
<path fill="none" stroke="#63b8ff" d="M500.62,-69.25C500.62,-60.15 500.62,-48.64 500.62,-38.82"/>
<polygon fill="#63b8ff" stroke="#63b8ff" points="504.13,-39.09 500.63,-29.09 497.13,-39.09 504.13,-39.09"/>
</a>
</g>
</g>
<!-- Node12 -->
<g id="Node000012" class="node">
<title>Node12</title>
<g id="a_Node000012"><a xlink:title=" ">
<polygon fill="#e0e0e0" stroke="#999999" points="648,-27.12 553.25,-27.12 553.25,-6.38 648,-6.38 648,-27.12"/>
<text text-anchor="middle" x="600.62" y="-13.62" font-family="Helvetica,sans-Serif" font-size="10.00">Eigen/Geometry</text>
</a>
</g>
</g>
<!-- Node4&#45;&gt;Node12 -->
<g id="edge11_Node000004_Node000012" class="edge">
<title>Node4&#45;&gt;Node12</title>
<g id="a_edge11_Node000004_Node000012"><a xlink:title=" ">
<path fill="none" stroke="#63b8ff" d="M524.58,-69.08C540.46,-58.36 561.22,-44.35 577.03,-33.68"/>
<polygon fill="#63b8ff" stroke="#63b8ff" points="578.56,-36.86 584.89,-28.37 574.65,-31.06 578.56,-36.86"/>
</a>
</g>
</g>
<!-- Node13 -->
<g id="Node000013" class="node">
<title>Node13</title>
<g id="a_Node000013"><a xlink:title=" ">
<polygon fill="#e0e0e0" stroke="#999999" points="787.5,-33.5 665.75,-33.5 665.75,0 787.5,0 787.5,-33.5"/>
<text text-anchor="start" x="673.75" y="-20" font-family="Helvetica,sans-Serif" font-size="10.00">boost/math/constants</text>
<text text-anchor="middle" x="726.62" y="-7.25" font-family="Helvetica,sans-Serif" font-size="10.00">/constants.hpp</text>
</a>
</g>
</g>
<!-- Node4&#45;&gt;Node13 -->
<g id="edge12_Node000004_Node000013" class="edge">
<title>Node4&#45;&gt;Node13</title>
<g id="a_edge12_Node000004_Node000013"><a xlink:title=" ">
<path fill="none" stroke="#63b8ff" d="M554.76,-69.08C586.93,-59.47 627.93,-47.23 661.81,-37.11"/>
<polygon fill="#63b8ff" stroke="#63b8ff" points="662.51,-40.55 671.09,-34.34 660.51,-33.84 662.51,-40.55"/>
</a>
</g>
</g>
<!-- Node14 -->
<g id="Node000014" class="node">
<title>Node14</title>
<g id="a_Node000014"><a xlink:title=" ">
<polygon fill="#e0e0e0" stroke="#999999" points="859.75,-27.12 805.5,-27.12 805.5,-6.38 859.75,-6.38 859.75,-27.12"/>
<text text-anchor="middle" x="832.62" y="-13.62" font-family="Helvetica,sans-Serif" font-size="10.00">fstream</text>
</a>
</g>
</g>
<!-- Node4&#45;&gt;Node14 -->
<g id="edge14_Node000004_Node000014" class="edge">
<title>Node4&#45;&gt;Node14</title>
<g id="a_edge14_Node000004_Node000014"><a xlink:title=" ">
<path fill="none" stroke="#63b8ff" d="M565.56,-71.24C568.62,-70.64 571.66,-70.06 574.62,-69.5 672.87,-51.09 700.75,-61.76 796.62,-33.5 798.47,-32.96 800.34,-32.34 802.22,-31.68"/>
<polygon fill="#63b8ff" stroke="#63b8ff" points="803.36,-34.99 811.37,-28.05 800.78,-28.48 803.36,-34.99"/>
</a>
</g>
</g>
<!-- Node15 -->
<g id="Node000015" class="node">
<title>Node15</title>
<g id="a_Node000015"><a xlink:title=" ">
<polygon fill="#e0e0e0" stroke="#999999" points="1007.25,-33.5 878,-33.5 878,0 1007.25,0 1007.25,-33.5"/>
<text text-anchor="start" x="886" y="-20" font-family="Helvetica,sans-Serif" font-size="10.00">state&#45;observation/tools</text>
<text text-anchor="middle" x="942.62" y="-7.25" font-family="Helvetica,sans-Serif" font-size="10.00">/definitions.hxx</text>
</a>
</g>
</g>
<!-- Node4&#45;&gt;Node15 -->
<g id="edge15_Node000004_Node000015" class="edge">
<title>Node4&#45;&gt;Node15</title>
<g id="a_edge15_Node000004_Node000015"><a xlink:title=" ">
<path fill="none" stroke="#63b8ff" d="M565.54,-71.1C568.6,-70.53 571.65,-70 574.62,-69.5 700.91,-48.37 736.84,-54.84 866.55,-33.75"/>
<polygon fill="#63b8ff" stroke="#63b8ff" points="866.93,-37.23 876.22,-32.15 865.78,-30.33 866.93,-37.23"/>
</a>
</g>
</g>
<!-- Node16&#45;&gt;Node3 -->
<g id="edge19_Node000016_Node000003" class="edge">
<title>Node16&#45;&gt;Node3</title>
<g id="a_edge19_Node000016_Node000003"><a xlink:title=" ">
<path fill="none" stroke="#63b8ff" d="M304.92,-138.59C327.68,-120.86 356.36,-91.92 337.62,-69.5 308.81,-35.01 182.72,-42.18 138.62,-33.5 132.74,-32.34 126.61,-31.1 120.5,-29.83"/>
<polygon fill="#63b8ff" stroke="#63b8ff" points="121.57,-26.48 111.06,-27.86 120.14,-33.33 121.57,-26.48"/>
</a>
</g>
</g>
<!-- Node16&#45;&gt;Node4 -->
<g id="edge20_Node000016_Node000004" class="edge">
<title>Node16&#45;&gt;Node4</title>
<g id="a_edge20_Node000016_Node000004"><a xlink:title=" ">
<path fill="none" stroke="#63b8ff" d="M334.08,-138.58C365.12,-129.02 404.64,-116.83 437.39,-106.74"/>
<polygon fill="#63b8ff" stroke="#63b8ff" points="438.25,-110.14 446.77,-103.85 436.18,-103.45 438.25,-110.14"/>
</a>
</g>
</g>
<!-- Node17 -->
<g id="Node000017" class="node">
<title>Node17</title>
<g id="a_Node000017"><a xlink:title=" ">
<polygon fill="#e0e0e0" stroke="#999999" points="328.62,-96.62 234.62,-96.62 234.62,-75.88 328.62,-75.88 328.62,-96.62"/>
<text text-anchor="middle" x="281.62" y="-83.12" font-family="Helvetica,sans-Serif" font-size="10.00">boost/utility.hpp</text>
</a>
</g>
</g>
<!-- Node16&#45;&gt;Node17 -->
<g id="edge17_Node000016_Node000017" class="edge">
<title>Node16&#45;&gt;Node17</title>
<g id="a_edge17_Node000016_Node000017"><a xlink:title=" ">
<path fill="none" stroke="#63b8ff" d="M281.62,-138.75C281.62,-129.65 281.62,-118.14 281.62,-108.32"/>
<polygon fill="#63b8ff" stroke="#63b8ff" points="285.13,-108.59 281.63,-98.59 278.13,-108.59 285.13,-108.59"/>
</a>
</g>
</g>
<!-- Node18 -->
<g id="Node000018" class="node">
<title>Node18</title>
<g id="a_Node000018"><a xlink:title=" ">
<polygon fill="#e0e0e0" stroke="#999999" points="217,-96.62 170.25,-96.62 170.25,-75.88 217,-75.88 217,-96.62"/>
<text text-anchor="middle" x="193.62" y="-83.12" font-family="Helvetica,sans-Serif" font-size="10.00">cmath</text>
</a>
</g>
</g>
<!-- Node16&#45;&gt;Node18 -->
<g id="edge18_Node000016_Node000018" class="edge">
<title>Node16&#45;&gt;Node18</title>
<g id="a_edge18_Node000016_Node000018"><a xlink:title=" ">
<path fill="none" stroke="#63b8ff" d="M260.77,-138.75C247.06,-128.24 229.16,-114.51 215.29,-103.87"/>
<polygon fill="#63b8ff" stroke="#63b8ff" points="217.7,-101.3 207.63,-97.99 213.44,-106.86 217.7,-101.3"/>
</a>
</g>
</g>
<!-- Node19&#45;&gt;Node3 -->
<g id="edge23_Node000019_Node000003" class="edge">
<title>Node19&#45;&gt;Node3</title>
<g id="a_edge23_Node000019_Node000003"><a xlink:title=" ">
<path fill="none" stroke="#63b8ff" d="M483.04,-138.64C454.53,-119.11 403.31,-86.7 354.62,-69.5 262.86,-37.08 234.24,-51.63 138.62,-33.5 132.66,-32.37 126.43,-31.13 120.23,-29.86"/>
<polygon fill="#63b8ff" stroke="#63b8ff" points="121.15,-26.48 110.65,-27.87 119.73,-33.33 121.15,-26.48"/>
</a>
</g>
</g>
<!-- Node19&#45;&gt;Node4 -->
<g id="edge24_Node000019_Node000004" class="edge">
<title>Node19&#45;&gt;Node4</title>
<g id="a_edge24_Node000019_Node000004"><a xlink:title=" ">
<path fill="none" stroke="#63b8ff" d="M504.44,-138.75C503.9,-131.52 503.26,-122.78 502.65,-114.56"/>
<polygon fill="#63b8ff" stroke="#63b8ff" points="506.14,-114.36 501.91,-104.64 499.16,-114.87 506.14,-114.36"/>
</a>
</g>
</g>
<!-- Node20 -->
<g id="Node000020" class="node">
<title>Node20</title>
<g id="a_Node000020"><a xlink:title=" ">
<polygon fill="#e0e0e0" stroke="#999999" points="823.38,-96.62 769.88,-96.62 769.88,-75.88 823.38,-75.88 823.38,-96.62"/>
<text text-anchor="middle" x="796.62" y="-83.12" font-family="Helvetica,sans-Serif" font-size="10.00">random</text>
</a>
</g>
</g>
<!-- Node19&#45;&gt;Node20 -->
<g id="edge22_Node000019_Node000020" class="edge">
<title>Node19&#45;&gt;Node20</title>
<g id="a_edge22_Node000019_Node000020"><a xlink:title=" ">
<path fill="none" stroke="#63b8ff" d="M590.62,-139.68C652.36,-128.33 730.33,-113.06 761.62,-103 763.21,-102.49 764.82,-101.93 766.43,-101.33"/>
<polygon fill="#63b8ff" stroke="#63b8ff" points="767.61,-104.63 775.54,-97.61 764.96,-98.16 767.61,-104.63"/>
</a>
</g>
</g>
<!-- Node21 -->
<g id="Node000021" class="node">
<title>Node21</title>
<g id="a_Node000021"><a xlink:title=" ">
<polygon fill="#e0e0e0" stroke="#999999" points="752.12,-103 583.12,-103 583.12,-69.5 752.12,-69.5 752.12,-103"/>
<text text-anchor="start" x="591.12" y="-89.5" font-family="Helvetica,sans-Serif" font-size="10.00">state&#45;observation/tools</text>
<text text-anchor="middle" x="667.62" y="-76.75" font-family="Helvetica,sans-Serif" font-size="10.00">/probability&#45;law&#45;simulation.hxx</text>
</a>
</g>
</g>
<!-- Node19&#45;&gt;Node21 -->
<g id="edge25_Node000019_Node000021" class="edge">
<title>Node19&#45;&gt;Node21</title>
<g id="a_edge25_Node000019_Node000021"><a xlink:title=" ">
<path fill="none" stroke="#63b8ff" d="M544.43,-138.58C566.59,-129.35 594.6,-117.68 618.3,-107.8"/>
<polygon fill="#63b8ff" stroke="#63b8ff" points="619.58,-111.06 627.46,-103.98 616.88,-104.6 619.58,-111.06"/>
</a>
</g>
</g>
</g>
</svg>
