<?xml version="1.0" encoding="UTF-8" standalone="no"?>
<!DOCTYPE svg PUBLIC "-//W3C//DTD SVG 1.1//EN"
 "http://www.w3.org/Graphics/SVG/1.1/DTD/svg11.dtd">
<!-- Generated by graphviz version 12.2.1 (0)
 -->
<!-- Title: /build/source/include/state&#45;observation/sensors&#45;simulation/algorithm/rotation&#45;velocity.hpp Pages: 1 -->
<svg width="1377pt" height="447pt"
 viewBox="0.00 0.00 1377.00 447.00" xmlns="http://www.w3.org/2000/svg" xmlns:xlink="http://www.w3.org/1999/xlink">
<g id="graph0" class="graph" transform="scale(1 1) rotate(0) translate(4 443)">
<title>/build/source/include/state&#45;observation/sensors&#45;simulation/algorithm/rotation&#45;velocity.hpp</title>
<!-- Node1 -->
<g id="Node000001" class="node">
<title>Node1</title>
<g id="a_Node000001"><a xlink:title="The implementation of the algorithm of a rotation velocity sensor.">
<polygon fill="#999999" stroke="#666666" points="497.88,-439 334.88,-439 334.88,-380 497.88,-380 497.88,-439"/>
<text text-anchor="start" x="342.88" y="-425.5" font-family="Helvetica,sans-Serif" font-size="10.00">/build/source/include</text>
<text text-anchor="start" x="342.88" y="-412.75" font-family="Helvetica,sans-Serif" font-size="10.00">/state&#45;observation/sensors</text>
<text text-anchor="start" x="342.88" y="-400" font-family="Helvetica,sans-Serif" font-size="10.00">&#45;simulation/algorithm/rotation</text>
<text text-anchor="middle" x="416.38" y="-387.25" font-family="Helvetica,sans-Serif" font-size="10.00">&#45;velocity.hpp</text>
</a>
</g>
</g>
<!-- Node2 -->
<g id="Node000002" class="node">
<title>Node2</title>
<g id="a_Node000002"><a xlink:href="accelerometer-gyrometer-magnetometer_8hpp.html" target="_top" xlink:title="Implements the accelerometer&#45;gyrometer&#45;magnetometer inertial measurement unit.">
<polygon fill="white" stroke="#666666" points="413.12,-344 245.62,-344 245.62,-285 413.12,-285 413.12,-344"/>
<text text-anchor="start" x="253.62" y="-330.5" font-family="Helvetica,sans-Serif" font-size="10.00">/build/source/include</text>
<text text-anchor="start" x="253.62" y="-317.75" font-family="Helvetica,sans-Serif" font-size="10.00">/state&#45;observation/sensors</text>
<text text-anchor="start" x="253.62" y="-305" font-family="Helvetica,sans-Serif" font-size="10.00">&#45;simulation/accelerometer</text>
<text text-anchor="middle" x="329.38" y="-292.25" font-family="Helvetica,sans-Serif" font-size="10.00">&#45;gyrometer&#45;magnetometer.hpp</text>
</a>
</g>
</g>
<!-- Node1&#45;&gt;Node2 -->
<g id="edge1_Node000001_Node000002" class="edge">
<title>Node1&#45;&gt;Node2</title>
<g id="a_edge1_Node000001_Node000002"><a xlink:title=" ">
<path fill="none" stroke="#63b8ff" d="M381.49,-371.21C373.14,-362.28 364.35,-352.88 356.41,-344.4"/>
<polygon fill="#63b8ff" stroke="#63b8ff" points="378.9,-373.57 388.29,-378.48 384.01,-368.78 378.9,-373.57"/>
</a>
</g>
</g>
<!-- Node4 -->
<g id="Node000004" class="node">
<title>Node4</title>
<g id="a_Node000004"><a xlink:href="accelerometer-gyrometer_8hpp.html" target="_top" xlink:title="Implements the accelerometer&#45;gyrometer inertial measuremen.">
<polygon fill="white" stroke="#666666" points="801.25,-344 655.5,-344 655.5,-285 801.25,-285 801.25,-344"/>
<text text-anchor="start" x="663.5" y="-330.5" font-family="Helvetica,sans-Serif" font-size="10.00">/build/source/include</text>
<text text-anchor="start" x="663.5" y="-317.75" font-family="Helvetica,sans-Serif" font-size="10.00">/state&#45;observation/sensors</text>
<text text-anchor="start" x="663.5" y="-305" font-family="Helvetica,sans-Serif" font-size="10.00">&#45;simulation/accelerometer</text>
<text text-anchor="middle" x="728.38" y="-292.25" font-family="Helvetica,sans-Serif" font-size="10.00">&#45;gyrometer.hpp</text>
</a>
</g>
</g>
<!-- Node1&#45;&gt;Node4 -->
<g id="edge3_Node000001_Node000004" class="edge">
<title>Node1&#45;&gt;Node4</title>
<g id="a_edge3_Node000001_Node000004"><a xlink:title=" ">
<path fill="none" stroke="#63b8ff" d="M509.38,-380.78C556.01,-366.88 611.66,-350.29 655.2,-337.31"/>
<polygon fill="#63b8ff" stroke="#63b8ff" points="508.38,-377.42 499.8,-383.63 510.38,-384.13 508.38,-377.42"/>
</a>
</g>
</g>
<!-- Node3 -->
<g id="Node000003" class="node">
<title>Node3</title>
<g id="a_Node000003"><a xlink:href="imu-magnetometer-dynamical-system_8hpp.html" target="_top" xlink:title="The file describes the dynamical system defined by an inertial measurement unit (IMU) fixed on a rigi...">
<polygon fill="white" stroke="#666666" points="208.75,-249 0,-249 0,-190 208.75,-190 208.75,-249"/>
<text text-anchor="start" x="8" y="-235.5" font-family="Helvetica,sans-Serif" font-size="10.00">/build/source/include</text>
<text text-anchor="start" x="8" y="-222.75" font-family="Helvetica,sans-Serif" font-size="10.00">/state&#45;observation/dynamical</text>
<text text-anchor="start" x="8" y="-210" font-family="Helvetica,sans-Serif" font-size="10.00">&#45;system/imu&#45;magnetometer&#45;dynamical</text>
<text text-anchor="middle" x="104.38" y="-197.25" font-family="Helvetica,sans-Serif" font-size="10.00">&#45;system.hpp</text>
</a>
</g>
</g>
<!-- Node2&#45;&gt;Node3 -->
<g id="edge2_Node000002_Node000003" class="edge">
<title>Node2&#45;&gt;Node3</title>
<g id="a_edge2_Node000002_Node000003"><a xlink:title=" ">
<path fill="none" stroke="#63b8ff" d="M249.09,-280.32C224.65,-270.21 197.99,-259.19 174.29,-249.4"/>
<polygon fill="#63b8ff" stroke="#63b8ff" points="247.44,-283.42 258.02,-284.01 250.11,-276.95 247.44,-283.42"/>
</a>
</g>
</g>
<!-- Node5 -->
<g id="Node000005" class="node">
<title>Node5</title>
<g id="a_Node000005"><a xlink:href="imu-dynamical-system_8hpp.html" target="_top" xlink:title="The file describes the dynamical system defined by an inertial measurement unit (IMU) fixed on a rigi...">
<polygon fill="white" stroke="#666666" points="419.88,-242.62 226.88,-242.62 226.88,-196.38 419.88,-196.38 419.88,-242.62"/>
<text text-anchor="start" x="234.88" y="-229.12" font-family="Helvetica,sans-Serif" font-size="10.00">/build/source/include</text>
<text text-anchor="start" x="234.88" y="-216.38" font-family="Helvetica,sans-Serif" font-size="10.00">/state&#45;observation/dynamical</text>
<text text-anchor="middle" x="323.38" y="-203.62" font-family="Helvetica,sans-Serif" font-size="10.00">&#45;system/imu&#45;dynamical&#45;system.hpp</text>
</a>
</g>
</g>
<!-- Node4&#45;&gt;Node5 -->
<g id="edge4_Node000004_Node000005" class="edge">
<title>Node4&#45;&gt;Node5</title>
<g id="a_edge4_Node000004_Node000005"><a xlink:title=" ">
<path fill="none" stroke="#63b8ff" d="M644.09,-296.5C584.04,-284.1 501.53,-266.47 429.38,-249 421.69,-247.14 413.71,-245.13 405.73,-243.08"/>
<polygon fill="#63b8ff" stroke="#63b8ff" points="643.05,-299.85 653.55,-298.44 644.46,-293 643.05,-299.85"/>
</a>
</g>
</g>
<!-- Node7 -->
<g id="Node000007" class="node">
<title>Node7</title>
<g id="a_Node000007"><a xlink:href="imu-mltpctive-dynamical-system_8hpp_source.html" target="_top" xlink:title=" ">
<polygon fill="white" stroke="#666666" points="620.62,-249 438.12,-249 438.12,-190 620.62,-190 620.62,-249"/>
<text text-anchor="start" x="446.12" y="-235.5" font-family="Helvetica,sans-Serif" font-size="10.00">/build/source/include</text>
<text text-anchor="start" x="446.12" y="-222.75" font-family="Helvetica,sans-Serif" font-size="10.00">/state&#45;observation/dynamical</text>
<text text-anchor="start" x="446.12" y="-210" font-family="Helvetica,sans-Serif" font-size="10.00">&#45;system/imu&#45;mltpctive&#45;dynamical</text>
<text text-anchor="middle" x="529.38" y="-197.25" font-family="Helvetica,sans-Serif" font-size="10.00">&#45;system.hpp</text>
</a>
</g>
</g>
<!-- Node4&#45;&gt;Node7 -->
<g id="edge6_Node000004_Node000007" class="edge">
<title>Node4&#45;&gt;Node7</title>
<g id="a_edge6_Node000004_Node000007"><a xlink:title=" ">
<path fill="none" stroke="#63b8ff" d="M656.21,-279.77C634.91,-269.82 611.8,-259.02 591.21,-249.4"/>
<polygon fill="#63b8ff" stroke="#63b8ff" points="654.59,-282.88 665.13,-283.94 657.55,-276.54 654.59,-282.88"/>
</a>
</g>
</g>
<!-- Node9 -->
<g id="Node000009" class="node">
<title>Node9</title>
<g id="a_Node000009"><a xlink:href="kinetics-observer_8hpp.html" target="_top" xlink:title="Unified Kinetics estimator.">
<polygon fill="white" stroke="#666666" points="818.5,-242.62 638.25,-242.62 638.25,-196.38 818.5,-196.38 818.5,-242.62"/>
<text text-anchor="start" x="646.25" y="-229.12" font-family="Helvetica,sans-Serif" font-size="10.00">/build/source/include</text>
<text text-anchor="start" x="646.25" y="-216.38" font-family="Helvetica,sans-Serif" font-size="10.00">/state&#45;observation/dynamics</text>
<text text-anchor="middle" x="728.38" y="-203.62" font-family="Helvetica,sans-Serif" font-size="10.00">&#45;estimators/kinetics&#45;observer.hpp</text>
</a>
</g>
</g>
<!-- Node4&#45;&gt;Node9 -->
<g id="edge8_Node000004_Node000009" class="edge">
<title>Node4&#45;&gt;Node9</title>
<g id="a_edge8_Node000004_Node000009"><a xlink:title=" ">
<path fill="none" stroke="#63b8ff" d="M728.38,-273.16C728.38,-262.78 728.38,-251.99 728.38,-242.9"/>
<polygon fill="#63b8ff" stroke="#63b8ff" points="724.88,-273.07 728.38,-283.07 731.88,-273.07 724.88,-273.07"/>
</a>
</g>
</g>
<!-- Node10 -->
<g id="Node000010" class="node">
<title>Node10</title>
<g id="a_Node000010"><a xlink:href="imu-elastic-local-frame-dynamical-system_8hpp_source.html" target="_top" xlink:title=" ">
<polygon fill="white" stroke="#666666" points="1000.62,-249 836.12,-249 836.12,-190 1000.62,-190 1000.62,-249"/>
<text text-anchor="start" x="844.12" y="-235.5" font-family="Helvetica,sans-Serif" font-size="10.00">/build/source/include</text>
<text text-anchor="start" x="844.12" y="-222.75" font-family="Helvetica,sans-Serif" font-size="10.00">/state&#45;observation/flexibility</text>
<text text-anchor="start" x="844.12" y="-210" font-family="Helvetica,sans-Serif" font-size="10.00">&#45;estimation/imu&#45;elastic&#45;local</text>
<text text-anchor="middle" x="918.38" y="-197.25" font-family="Helvetica,sans-Serif" font-size="10.00">&#45;frame&#45;dynamical&#45;system.hpp</text>
</a>
</g>
</g>
<!-- Node4&#45;&gt;Node10 -->
<g id="edge9_Node000004_Node000010" class="edge">
<title>Node4&#45;&gt;Node10</title>
<g id="a_edge9_Node000004_Node000010"><a xlink:title=" ">
<path fill="none" stroke="#63b8ff" d="M797.55,-279.64C817.81,-269.72 839.77,-258.98 859.34,-249.4"/>
<polygon fill="#63b8ff" stroke="#63b8ff" points="796.25,-276.38 788.81,-283.92 799.33,-282.67 796.25,-276.38"/>
</a>
</g>
</g>
<!-- Node13 -->
<g id="Node000013" class="node">
<title>Node13</title>
<g id="a_Node000013"><a xlink:href="imu-fixed-contact-dynamical-system_8hpp.html" target="_top" xlink:title="Definitions of the dynamical system of a robot flexibility with an IMU sensor.">
<polygon fill="white" stroke="#666666" points="1179.75,-249 1019,-249 1019,-190 1179.75,-190 1179.75,-249"/>
<text text-anchor="start" x="1027" y="-235.5" font-family="Helvetica,sans-Serif" font-size="10.00">/build/source/include</text>
<text text-anchor="start" x="1027" y="-222.75" font-family="Helvetica,sans-Serif" font-size="10.00">/state&#45;observation/flexibility</text>
<text text-anchor="start" x="1027" y="-210" font-family="Helvetica,sans-Serif" font-size="10.00">&#45;estimation/imu&#45;fixed&#45;contact</text>
<text text-anchor="middle" x="1099.38" y="-197.25" font-family="Helvetica,sans-Serif" font-size="10.00">&#45;dynamical&#45;system.hpp</text>
</a>
</g>
</g>
<!-- Node4&#45;&gt;Node13 -->
<g id="edge12_Node000004_Node000013" class="edge">
<title>Node4&#45;&gt;Node13</title>
<g id="a_edge12_Node000004_Node000013"><a xlink:title=" ">
<path fill="none" stroke="#63b8ff" d="M812.51,-296.06C868.57,-283.97 943.73,-266.9 1009.38,-249 1012.38,-248.18 1015.43,-247.33 1018.51,-246.45"/>
<polygon fill="#63b8ff" stroke="#63b8ff" points="812.08,-292.57 803.04,-298.09 813.55,-299.41 812.08,-292.57"/>
</a>
</g>
</g>
<!-- Node16 -->
<g id="Node000016" class="node">
<title>Node16</title>
<g id="a_Node000016"><a xlink:href="stable-imu-fixed-contact-dynamical-system_8hpp_source.html" target="_top" xlink:title=" ">
<polygon fill="white" stroke="#666666" points="1369,-249 1197.75,-249 1197.75,-190 1369,-190 1369,-249"/>
<text text-anchor="start" x="1205.75" y="-235.5" font-family="Helvetica,sans-Serif" font-size="10.00">/build/source/include</text>
<text text-anchor="start" x="1205.75" y="-222.75" font-family="Helvetica,sans-Serif" font-size="10.00">/state&#45;observation/flexibility</text>
<text text-anchor="start" x="1205.75" y="-210" font-family="Helvetica,sans-Serif" font-size="10.00">&#45;estimation/stable&#45;imu&#45;fixed</text>
<text text-anchor="middle" x="1283.38" y="-197.25" font-family="Helvetica,sans-Serif" font-size="10.00">&#45;contact&#45;dynamical&#45;system.hpp</text>
</a>
</g>
</g>
<!-- Node4&#45;&gt;Node16 -->
<g id="edge15_Node000004_Node000016" class="edge">
<title>Node4&#45;&gt;Node16</title>
<g id="a_edge15_Node000004_Node000016"><a xlink:title=" ">
<path fill="none" stroke="#63b8ff" d="M812.77,-305.56C905.55,-295.93 1058.68,-277.37 1188.38,-249 1191.32,-248.36 1194.3,-247.67 1197.31,-246.94"/>
<polygon fill="#63b8ff" stroke="#63b8ff" points="812.58,-302.06 802.99,-306.56 813.29,-309.02 812.58,-302.06"/>
</a>
</g>
</g>
<!-- Node6 -->
<g id="Node000006" class="node">
<title>Node6</title>
<g id="a_Node000006"><a xlink:href="imu-attitude-trajectory-reconstruction_8hpp.html" target="_top" xlink:title="Gives an implementation of attitude estimation for IMU reconstruction with or without given input....">
<polygon fill="white" stroke="#666666" points="401.5,-154 245.25,-154 245.25,-95 401.5,-95 401.5,-154"/>
<text text-anchor="start" x="253.25" y="-140.5" font-family="Helvetica,sans-Serif" font-size="10.00">/build/source/include</text>
<text text-anchor="start" x="253.25" y="-127.75" font-family="Helvetica,sans-Serif" font-size="10.00">/state&#45;observation/examples</text>
<text text-anchor="start" x="253.25" y="-115" font-family="Helvetica,sans-Serif" font-size="10.00">/imu&#45;attitude&#45;trajectory</text>
<text text-anchor="middle" x="323.38" y="-102.25" font-family="Helvetica,sans-Serif" font-size="10.00">&#45;reconstruction.hpp</text>
</a>
</g>
</g>
<!-- Node5&#45;&gt;Node6 -->
<g id="edge5_Node000005_Node000006" class="edge">
<title>Node5&#45;&gt;Node6</title>
<g id="a_edge5_Node000005_Node000006"><a xlink:title=" ">
<path fill="none" stroke="#63b8ff" d="M323.38,-184.51C323.38,-174.66 323.38,-164.01 323.38,-154.5"/>
<polygon fill="#63b8ff" stroke="#63b8ff" points="319.88,-184.47 323.38,-194.47 326.88,-184.47 319.88,-184.47"/>
</a>
</g>
</g>
<!-- Node8 -->
<g id="Node000008" class="node">
<title>Node8</title>
<g id="a_Node000008"><a xlink:href="imu-multiplicative-attitude-reconstruction_8hpp_source.html" target="_top" xlink:title=" ">
<polygon fill="white" stroke="#666666" points="607.5,-154 451.25,-154 451.25,-95 607.5,-95 607.5,-154"/>
<text text-anchor="start" x="459.25" y="-140.5" font-family="Helvetica,sans-Serif" font-size="10.00">/build/source/include</text>
<text text-anchor="start" x="459.25" y="-127.75" font-family="Helvetica,sans-Serif" font-size="10.00">/state&#45;observation/examples</text>
<text text-anchor="start" x="459.25" y="-115" font-family="Helvetica,sans-Serif" font-size="10.00">/imu&#45;multiplicative&#45;attitude</text>
<text text-anchor="middle" x="529.38" y="-102.25" font-family="Helvetica,sans-Serif" font-size="10.00">&#45;reconstruction.hpp</text>
</a>
</g>
</g>
<!-- Node7&#45;&gt;Node8 -->
<g id="edge7_Node000007_Node000008" class="edge">
<title>Node7&#45;&gt;Node8</title>
<g id="a_edge7_Node000007_Node000008"><a xlink:title=" ">
<path fill="none" stroke="#63b8ff" d="M529.38,-178.16C529.38,-170.16 529.38,-161.92 529.38,-154.4"/>
<polygon fill="#63b8ff" stroke="#63b8ff" points="525.88,-178.07 529.38,-188.07 532.88,-178.07 525.88,-178.07"/>
</a>
</g>
</g>
<!-- Node11 -->
<g id="Node000011" class="node">
<title>Node11</title>
<g id="a_Node000011"><a xlink:href="model-base-ekf-flex-estimator-imu_8hpp.html" target="_top" xlink:title="Declares the class of the estimation of the flexibility using an extended Kalman filter and a fixed c...">
<polygon fill="white" stroke="#666666" points="995.38,-154 841.38,-154 841.38,-95 995.38,-95 995.38,-154"/>
<text text-anchor="start" x="849.38" y="-140.5" font-family="Helvetica,sans-Serif" font-size="10.00">/build/source/include</text>
<text text-anchor="start" x="849.38" y="-127.75" font-family="Helvetica,sans-Serif" font-size="10.00">/state&#45;observation/flexibility</text>
<text text-anchor="start" x="849.38" y="-115" font-family="Helvetica,sans-Serif" font-size="10.00">&#45;estimation/model&#45;base&#45;ekf</text>
<text text-anchor="middle" x="918.38" y="-102.25" font-family="Helvetica,sans-Serif" font-size="10.00">&#45;flex&#45;estimator&#45;imu.hpp</text>
</a>
</g>
</g>
<!-- Node10&#45;&gt;Node11 -->
<g id="edge10_Node000010_Node000011" class="edge">
<title>Node10&#45;&gt;Node11</title>
<g id="a_edge10_Node000010_Node000011"><a xlink:title=" ">
<path fill="none" stroke="#63b8ff" d="M918.38,-178.16C918.38,-170.16 918.38,-161.92 918.38,-154.4"/>
<polygon fill="#63b8ff" stroke="#63b8ff" points="914.88,-178.07 918.38,-188.07 921.88,-178.07 914.88,-178.07"/>
</a>
</g>
</g>
<!-- Node12 -->
<g id="Node000012" class="node">
<title>Node12</title>
<g id="a_Node000012"><a xlink:href="offline-model-base-flex-estimation_8hpp_source.html" target="_top" xlink:title=" ">
<polygon fill="white" stroke="#666666" points="996.5,-59 840.25,-59 840.25,0 996.5,0 996.5,-59"/>
<text text-anchor="start" x="848.25" y="-45.5" font-family="Helvetica,sans-Serif" font-size="10.00">/build/source/include</text>
<text text-anchor="start" x="848.25" y="-32.75" font-family="Helvetica,sans-Serif" font-size="10.00">/state&#45;observation/examples</text>
<text text-anchor="start" x="848.25" y="-20" font-family="Helvetica,sans-Serif" font-size="10.00">/offline&#45;model&#45;base&#45;flex</text>
<text text-anchor="middle" x="918.38" y="-7.25" font-family="Helvetica,sans-Serif" font-size="10.00">&#45;estimation.hpp</text>
</a>
</g>
</g>
<!-- Node11&#45;&gt;Node12 -->
<g id="edge11_Node000011_Node000012" class="edge">
<title>Node11&#45;&gt;Node12</title>
<g id="a_edge11_Node000011_Node000012"><a xlink:title=" ">
<path fill="none" stroke="#63b8ff" d="M918.38,-83.16C918.38,-75.16 918.38,-66.92 918.38,-59.4"/>
<polygon fill="#63b8ff" stroke="#63b8ff" points="914.88,-83.07 918.38,-93.07 921.88,-83.07 914.88,-83.07"/>
</a>
</g>
</g>
<!-- Node14 -->
<g id="Node000014" class="node">
<title>Node14</title>
<g id="a_Node000014"><a xlink:href="fixed-contact-ekf-flex-estimator-imu_8hpp.html" target="_top" xlink:title="Declares the class of the estimation of the flexibility using an extended Kalman filter and a fixed c...">
<polygon fill="white" stroke="#666666" points="1178.25,-154 1020.5,-154 1020.5,-95 1178.25,-95 1178.25,-154"/>
<text text-anchor="start" x="1028.5" y="-140.5" font-family="Helvetica,sans-Serif" font-size="10.00">/build/source/include</text>
<text text-anchor="start" x="1028.5" y="-127.75" font-family="Helvetica,sans-Serif" font-size="10.00">/state&#45;observation/flexibility</text>
<text text-anchor="start" x="1028.5" y="-115" font-family="Helvetica,sans-Serif" font-size="10.00">&#45;estimation/fixed&#45;contact&#45;ekf</text>
<text text-anchor="middle" x="1099.38" y="-102.25" font-family="Helvetica,sans-Serif" font-size="10.00">&#45;flex&#45;estimator&#45;imu.hpp</text>
</a>
</g>
</g>
<!-- Node13&#45;&gt;Node14 -->
<g id="edge13_Node000013_Node000014" class="edge">
<title>Node13&#45;&gt;Node14</title>
<g id="a_edge13_Node000013_Node000014"><a xlink:title=" ">
<path fill="none" stroke="#63b8ff" d="M1099.38,-178.16C1099.38,-170.16 1099.38,-161.92 1099.38,-154.4"/>
<polygon fill="#63b8ff" stroke="#63b8ff" points="1095.88,-178.07 1099.38,-188.07 1102.88,-178.07 1095.88,-178.07"/>
</a>
</g>
</g>
<!-- Node15 -->
<g id="Node000015" class="node">
<title>Node15</title>
<g id="a_Node000015"><a xlink:href="offline-ekf-flexibility-estimation_8hpp.html" target="_top" xlink:title="Gives an implementation of flexibility estimation for IMU reconstruction with or without given input ...">
<polygon fill="white" stroke="#666666" points="1177.5,-59 1021.25,-59 1021.25,0 1177.5,0 1177.5,-59"/>
<text text-anchor="start" x="1029.25" y="-45.5" font-family="Helvetica,sans-Serif" font-size="10.00">/build/source/include</text>
<text text-anchor="start" x="1029.25" y="-32.75" font-family="Helvetica,sans-Serif" font-size="10.00">/state&#45;observation/examples</text>
<text text-anchor="start" x="1029.25" y="-20" font-family="Helvetica,sans-Serif" font-size="10.00">/offline&#45;ekf&#45;flexibility</text>
<text text-anchor="middle" x="1099.38" y="-7.25" font-family="Helvetica,sans-Serif" font-size="10.00">&#45;estimation.hpp</text>
</a>
</g>
</g>
<!-- Node14&#45;&gt;Node15 -->
<g id="edge14_Node000014_Node000015" class="edge">
<title>Node14&#45;&gt;Node15</title>
<g id="a_edge14_Node000014_Node000015"><a xlink:title=" ">
<path fill="none" stroke="#63b8ff" d="M1099.38,-83.16C1099.38,-75.16 1099.38,-66.92 1099.38,-59.4"/>
<polygon fill="#63b8ff" stroke="#63b8ff" points="1095.88,-83.07 1099.38,-93.07 1102.88,-83.07 1095.88,-83.07"/>
</a>
</g>
</g>
</g>
</svg>
