<?xml version="1.0" encoding="UTF-8" standalone="no"?>
<!DOCTYPE svg PUBLIC "-//W3C//DTD SVG 1.1//EN"
 "http://www.w3.org/Graphics/SVG/1.1/DTD/svg11.dtd">
<!-- Generated by graphviz version 12.2.1 (0)
 -->
<!-- Title: /build/source/include/state&#45;observation/sensors&#45;simulation/sensor&#45;base.hpp Pages: 1 -->
<svg width="1229pt" height="263pt"
 viewBox="0.00 0.00 1229.12 262.75" xmlns="http://www.w3.org/2000/svg" xmlns:xlink="http://www.w3.org/1999/xlink">
<g id="graph0" class="graph" transform="scale(1 1) rotate(0) translate(4 258.75)">
<title>/build/source/include/state&#45;observation/sensors&#45;simulation/sensor&#45;base.hpp</title>
<!-- Node1 -->
<g id="Node000001" class="node">
<title>Node1</title>
<g id="a_Node000001"><a xlink:title="Implements the base class of all sensors.">
<polygon fill="#999999" stroke="#666666" points="500.88,-254.75 346.12,-254.75 346.12,-208.5 500.88,-208.5 500.88,-254.75"/>
<text text-anchor="start" x="354.12" y="-241.25" font-family="Helvetica,sans-Serif" font-size="10.00">/build/source/include</text>
<text text-anchor="start" x="354.12" y="-228.5" font-family="Helvetica,sans-Serif" font-size="10.00">/state&#45;observation/sensors</text>
<text text-anchor="middle" x="423.5" y="-215.75" font-family="Helvetica,sans-Serif" font-size="10.00">&#45;simulation/sensor&#45;base.hpp</text>
</a>
</g>
</g>
<!-- Node2 -->
<g id="Node000002" class="node">
<title>Node2</title>
<g id="a_Node000002"><a xlink:title=" ">
<polygon fill="#e0e0e0" stroke="#999999" points="97,-27.12 0,-27.12 0,-6.38 97,-6.38 97,-27.12"/>
<text text-anchor="middle" x="48.5" y="-13.62" font-family="Helvetica,sans-Serif" font-size="10.00">boost/assert.hpp</text>
</a>
</g>
</g>
<!-- Node1&#45;&gt;Node2 -->
<g id="edge1_Node000001_Node000002" class="edge">
<title>Node1&#45;&gt;Node2</title>
<g id="a_edge1_Node000001_Node000002"><a xlink:title=" ">
<path fill="none" stroke="#63b8ff" d="M382.53,-208.13C363.09,-197.41 339.56,-184.36 318.5,-172.5 229.03,-122.1 123.59,-61.24 75.21,-33.23"/>
<polygon fill="#63b8ff" stroke="#63b8ff" points="77.23,-30.36 66.82,-28.37 73.72,-36.41 77.23,-30.36"/>
</a>
</g>
</g>
<!-- Node3 -->
<g id="Node000003" class="node">
<title>Node3</title>
<g id="a_Node000003"><a xlink:title=" ">
<polygon fill="#e0e0e0" stroke="#999999" points="183.75,-27.12 115.25,-27.12 115.25,-6.38 183.75,-6.38 183.75,-27.12"/>
<text text-anchor="middle" x="149.5" y="-13.62" font-family="Helvetica,sans-Serif" font-size="10.00">Eigen/Core</text>
</a>
</g>
</g>
<!-- Node1&#45;&gt;Node3 -->
<g id="edge2_Node000001_Node000003" class="edge">
<title>Node1&#45;&gt;Node3</title>
<g id="a_edge2_Node000001_Node000003"><a xlink:title=" ">
<path fill="none" stroke="#63b8ff" d="M399.75,-208.21C364.89,-175.83 297.2,-114.87 234.5,-69.5 216.07,-56.16 194.11,-42.86 177.13,-33.08"/>
<polygon fill="#63b8ff" stroke="#63b8ff" points="179.02,-30.12 168.59,-28.22 175.56,-36.21 179.02,-30.12"/>
</a>
</g>
</g>
<!-- Node4 -->
<g id="Node000004" class="node">
<title>Node4</title>
<g id="a_Node000004"><a xlink:title=" ">
<polygon fill="#e0e0e0" stroke="#999999" points="1221.12,-27.12 1091.88,-27.12 1091.88,-6.38 1221.12,-6.38 1221.12,-27.12"/>
<text text-anchor="middle" x="1156.5" y="-13.62" font-family="Helvetica,sans-Serif" font-size="10.00">state&#45;observation/api.h</text>
</a>
</g>
</g>
<!-- Node1&#45;&gt;Node4 -->
<g id="edge3_Node000001_Node000004" class="edge">
<title>Node1&#45;&gt;Node4</title>
<g id="a_edge3_Node000001_Node000004"><a xlink:title=" ">
<path fill="none" stroke="#63b8ff" d="M501.19,-218.57C561.32,-208.47 646.38,-192.51 719.5,-172.5 872.72,-130.57 1049.43,-61.31 1122.34,-31.79"/>
<polygon fill="#63b8ff" stroke="#63b8ff" points="1123.39,-35.14 1131.33,-28.13 1120.75,-28.66 1123.39,-35.14"/>
</a>
</g>
</g>
<!-- Node5 -->
<g id="Node000005" class="node">
<title>Node5</title>
<g id="a_Node000005"><a xlink:href="noise-base_8hpp.html" target="_top" xlink:title=" ">
<polygon fill="white" stroke="#666666" points="710.25,-172.5 578.75,-172.5 578.75,-139 710.25,-139 710.25,-172.5"/>
<text text-anchor="start" x="586.75" y="-159" font-family="Helvetica,sans-Serif" font-size="10.00">state&#45;observation/noise</text>
<text text-anchor="middle" x="644.5" y="-146.25" font-family="Helvetica,sans-Serif" font-size="10.00">/noise&#45;base.hpp</text>
</a>
</g>
</g>
<!-- Node1&#45;&gt;Node5 -->
<g id="edge4_Node000001_Node000005" class="edge">
<title>Node1&#45;&gt;Node5</title>
<g id="a_edge4_Node000001_Node000005"><a xlink:title=" ">
<path fill="none" stroke="#63b8ff" d="M491.01,-208.06C521.06,-198.01 556.14,-186.29 585.17,-176.58"/>
<polygon fill="#63b8ff" stroke="#63b8ff" points="586.17,-179.94 594.54,-173.45 583.95,-173.3 586.17,-179.94"/>
</a>
</g>
</g>
<!-- Node5&#45;&gt;Node4 -->
<g id="edge5_Node000005_Node000004" class="edge">
<title>Node5&#45;&gt;Node4</title>
<g id="a_edge5_Node000005_Node000004"><a xlink:title=" ">
<path fill="none" stroke="#63b8ff" d="M704.99,-138.56C807.87,-111.04 1014.85,-55.65 1108.51,-30.59"/>
<polygon fill="#63b8ff" stroke="#63b8ff" points="1109.41,-33.97 1118.16,-28.01 1107.6,-27.21 1109.41,-33.97"/>
</a>
</g>
</g>
<!-- Node6 -->
<g id="Node000006" class="node">
<title>Node6</title>
<g id="a_Node000006"><a xlink:href="definitions_8hpp.html" target="_top" xlink:title="Definitions of types and some structures.">
<polygon fill="white" stroke="#666666" points="709.12,-103 579.88,-103 579.88,-69.5 709.12,-69.5 709.12,-103"/>
<text text-anchor="start" x="587.88" y="-89.5" font-family="Helvetica,sans-Serif" font-size="10.00">state&#45;observation/tools</text>
<text text-anchor="middle" x="644.5" y="-76.75" font-family="Helvetica,sans-Serif" font-size="10.00">/definitions.hpp</text>
</a>
</g>
</g>
<!-- Node5&#45;&gt;Node6 -->
<g id="edge6_Node000005_Node000006" class="edge">
<title>Node5&#45;&gt;Node6</title>
<g id="a_edge6_Node000005_Node000006"><a xlink:title=" ">
<path fill="none" stroke="#63b8ff" d="M644.5,-138.75C644.5,-131.52 644.5,-122.78 644.5,-114.56"/>
<polygon fill="#63b8ff" stroke="#63b8ff" points="648,-114.65 644.5,-104.65 641,-114.65 648,-114.65"/>
</a>
</g>
</g>
<!-- Node6&#45;&gt;Node2 -->
<g id="edge11_Node000006_Node000002" class="edge">
<title>Node6&#45;&gt;Node2</title>
<g id="a_edge11_Node000006_Node000002"><a xlink:title=" ">
<path fill="none" stroke="#63b8ff" d="M579.42,-82.55C477.76,-77.53 275.43,-64.33 106.5,-33.5 101.63,-32.61 96.58,-31.51 91.58,-30.31"/>
<polygon fill="#63b8ff" stroke="#63b8ff" points="92.82,-27.01 82.26,-27.93 91.08,-33.8 92.82,-27.01"/>
</a>
</g>
</g>
<!-- Node6&#45;&gt;Node3 -->
<g id="edge13_Node000006_Node000003" class="edge">
<title>Node6&#45;&gt;Node3</title>
<g id="a_edge13_Node000006_Node000003"><a xlink:title=" ">
<path fill="none" stroke="#63b8ff" d="M579.47,-82.47C491.1,-77.64 328.59,-64.99 193.5,-33.5 190.56,-32.82 187.55,-32 184.55,-31.1"/>
<polygon fill="#63b8ff" stroke="#63b8ff" points="185.9,-27.86 175.31,-28.07 183.72,-34.51 185.9,-27.86"/>
</a>
</g>
</g>
<!-- Node6&#45;&gt;Node4 -->
<g id="edge16_Node000006_Node000004" class="edge">
<title>Node6&#45;&gt;Node4</title>
<g id="a_edge16_Node000006_Node000004"><a xlink:title=" ">
<path fill="none" stroke="#63b8ff" d="M709.33,-79.47C795.05,-71.41 950.67,-55.27 1082.5,-33.5 1088.98,-32.43 1095.74,-31.18 1102.44,-29.86"/>
<polygon fill="#63b8ff" stroke="#63b8ff" points="1103,-33.31 1112.1,-27.89 1101.6,-26.45 1103,-33.31"/>
</a>
</g>
</g>
<!-- Node7 -->
<g id="Node000007" class="node">
<title>Node7</title>
<g id="a_Node000007"><a xlink:title=" ">
<polygon fill="#e0e0e0" stroke="#999999" points="723,-27.12 674,-27.12 674,-6.38 723,-6.38 723,-27.12"/>
<text text-anchor="middle" x="698.5" y="-13.62" font-family="Helvetica,sans-Serif" font-size="10.00">chrono</text>
</a>
</g>
</g>
<!-- Node6&#45;&gt;Node7 -->
<g id="edge7_Node000006_Node000007" class="edge">
<title>Node6&#45;&gt;Node7</title>
<g id="a_edge7_Node000006_Node000007"><a xlink:title=" ">
<path fill="none" stroke="#63b8ff" d="M657.3,-69.25C665.14,-59.44 675.23,-46.84 683.46,-36.55"/>
<polygon fill="#63b8ff" stroke="#63b8ff" points="686.18,-38.75 689.7,-28.75 680.72,-34.38 686.18,-38.75"/>
</a>
</g>
</g>
<!-- Node8 -->
<g id="Node000008" class="node">
<title>Node8</title>
<g id="a_Node000008"><a xlink:title=" ">
<polygon fill="#e0e0e0" stroke="#999999" points="787.5,-27.12 741.5,-27.12 741.5,-6.38 787.5,-6.38 787.5,-27.12"/>
<text text-anchor="middle" x="764.5" y="-13.62" font-family="Helvetica,sans-Serif" font-size="10.00">deque</text>
</a>
</g>
</g>
<!-- Node6&#45;&gt;Node8 -->
<g id="edge8_Node000006_Node000008" class="edge">
<title>Node6&#45;&gt;Node8</title>
<g id="a_edge8_Node000006_Node000008"><a xlink:title=" ">
<path fill="none" stroke="#63b8ff" d="M673.24,-69.08C692.67,-58.16 718.15,-43.82 737.25,-33.08"/>
<polygon fill="#63b8ff" stroke="#63b8ff" points="738.81,-36.22 745.81,-28.26 735.38,-30.12 738.81,-36.22"/>
</a>
</g>
</g>
<!-- Node9 -->
<g id="Node000009" class="node">
<title>Node9</title>
<g id="a_Node000009"><a xlink:title=" ">
<polygon fill="#e0e0e0" stroke="#999999" points="869.5,-27.12 805.5,-27.12 805.5,-6.38 869.5,-6.38 869.5,-27.12"/>
<text text-anchor="middle" x="837.5" y="-13.62" font-family="Helvetica,sans-Serif" font-size="10.00">stdexcept</text>
</a>
</g>
</g>
<!-- Node6&#45;&gt;Node9 -->
<g id="edge9_Node000006_Node000009" class="edge">
<title>Node6&#45;&gt;Node9</title>
<g id="a_edge9_Node000006_Node000009"><a xlink:title=" ">
<path fill="none" stroke="#63b8ff" d="M693.61,-69.06C723.46,-59.09 762.3,-45.89 796.5,-33.5 798.27,-32.86 800.09,-32.19 801.92,-31.51"/>
<polygon fill="#63b8ff" stroke="#63b8ff" points="802.86,-34.9 810.99,-28.1 800.4,-28.35 802.86,-34.9"/>
</a>
</g>
</g>
<!-- Node10 -->
<g id="Node000010" class="node">
<title>Node10</title>
<g id="a_Node000010"><a xlink:title=" ">
<polygon fill="#e0e0e0" stroke="#999999" points="933.88,-27.12 887.12,-27.12 887.12,-6.38 933.88,-6.38 933.88,-27.12"/>
<text text-anchor="middle" x="910.5" y="-13.62" font-family="Helvetica,sans-Serif" font-size="10.00">vector</text>
</a>
</g>
</g>
<!-- Node6&#45;&gt;Node10 -->
<g id="edge10_Node000006_Node000010" class="edge">
<title>Node6&#45;&gt;Node10</title>
<g id="a_edge10_Node000006_Node000010"><a xlink:title=" ">
<path fill="none" stroke="#63b8ff" d="M709.47,-75.2C757.08,-66.8 822.85,-53.03 878.5,-33.5 879.67,-33.09 880.85,-32.65 882.03,-32.18"/>
<polygon fill="#63b8ff" stroke="#63b8ff" points="883.44,-35.39 891.17,-28.13 880.61,-28.99 883.44,-35.39"/>
</a>
</g>
</g>
<!-- Node11 -->
<g id="Node000011" class="node">
<title>Node11</title>
<g id="a_Node000011"><a xlink:title=" ">
<polygon fill="#e0e0e0" stroke="#999999" points="1073.38,-27.12 951.62,-27.12 951.62,-6.38 1073.38,-6.38 1073.38,-27.12"/>
<text text-anchor="middle" x="1012.5" y="-13.62" font-family="Helvetica,sans-Serif" font-size="10.00">boost/timer/timer.hpp</text>
</a>
</g>
</g>
<!-- Node6&#45;&gt;Node11 -->
<g id="edge12_Node000006_Node000011" class="edge">
<title>Node6&#45;&gt;Node11</title>
<g id="a_edge12_Node000006_Node000011"><a xlink:title=" ">
<path fill="none" stroke="#63b8ff" d="M709.49,-74.91C769.97,-65.07 862.55,-49.43 942.5,-33.5 948.01,-32.4 953.75,-31.2 959.47,-29.97"/>
<polygon fill="#63b8ff" stroke="#63b8ff" points="959.88,-33.47 968.89,-27.91 958.38,-26.63 959.88,-33.47"/>
</a>
</g>
</g>
<!-- Node12 -->
<g id="Node000012" class="node">
<title>Node12</title>
<g id="a_Node000012"><a xlink:title=" ">
<polygon fill="#e0e0e0" stroke="#999999" points="296.88,-27.12 202.12,-27.12 202.12,-6.38 296.88,-6.38 296.88,-27.12"/>
<text text-anchor="middle" x="249.5" y="-13.62" font-family="Helvetica,sans-Serif" font-size="10.00">Eigen/Geometry</text>
</a>
</g>
</g>
<!-- Node6&#45;&gt;Node12 -->
<g id="edge14_Node000006_Node000012" class="edge">
<title>Node6&#45;&gt;Node12</title>
<g id="a_edge14_Node000006_Node000012"><a xlink:title=" ">
<path fill="none" stroke="#63b8ff" d="M579.4,-77.72C510.83,-69.23 399.92,-53.9 305.5,-33.5 301.41,-32.62 297.18,-31.61 292.95,-30.53"/>
<polygon fill="#63b8ff" stroke="#63b8ff" points="293.93,-27.17 283.37,-27.98 292.13,-33.94 293.93,-27.17"/>
</a>
</g>
</g>
<!-- Node13 -->
<g id="Node000013" class="node">
<title>Node13</title>
<g id="a_Node000013"><a xlink:title=" ">
<polygon fill="#e0e0e0" stroke="#999999" points="436.38,-33.5 314.62,-33.5 314.62,0 436.38,0 436.38,-33.5"/>
<text text-anchor="start" x="322.62" y="-20" font-family="Helvetica,sans-Serif" font-size="10.00">boost/math/constants</text>
<text text-anchor="middle" x="375.5" y="-7.25" font-family="Helvetica,sans-Serif" font-size="10.00">/constants.hpp</text>
</a>
</g>
</g>
<!-- Node6&#45;&gt;Node13 -->
<g id="edge15_Node000006_Node000013" class="edge">
<title>Node6&#45;&gt;Node13</title>
<g id="a_edge15_Node000006_Node000013"><a xlink:title=" ">
<path fill="none" stroke="#63b8ff" d="M580.07,-69.08C540.2,-59.08 488.94,-46.22 447.71,-35.87"/>
<polygon fill="#63b8ff" stroke="#63b8ff" points="448.65,-32.5 438.1,-33.46 446.95,-39.29 448.65,-32.5"/>
</a>
</g>
</g>
<!-- Node14 -->
<g id="Node000014" class="node">
<title>Node14</title>
<g id="a_Node000014"><a xlink:title=" ">
<polygon fill="#e0e0e0" stroke="#999999" points="508.62,-27.12 454.38,-27.12 454.38,-6.38 508.62,-6.38 508.62,-27.12"/>
<text text-anchor="middle" x="481.5" y="-13.62" font-family="Helvetica,sans-Serif" font-size="10.00">fstream</text>
</a>
</g>
</g>
<!-- Node6&#45;&gt;Node14 -->
<g id="edge17_Node000006_Node000014" class="edge">
<title>Node6&#45;&gt;Node14</title>
<g id="a_edge17_Node000006_Node000014"><a xlink:title=" ">
<path fill="none" stroke="#63b8ff" d="M604.07,-69.08C579.06,-59 546.34,-45.68 517.5,-33.5 516.37,-33.02 515.22,-32.53 514.06,-32.04"/>
<polygon fill="#63b8ff" stroke="#63b8ff" points="515.5,-28.85 504.94,-28.1 512.73,-35.28 515.5,-28.85"/>
</a>
</g>
</g>
<!-- Node15 -->
<g id="Node000015" class="node">
<title>Node15</title>
<g id="a_Node000015"><a xlink:title=" ">
<polygon fill="#e0e0e0" stroke="#999999" points="656.12,-33.5 526.88,-33.5 526.88,0 656.12,0 656.12,-33.5"/>
<text text-anchor="start" x="534.88" y="-20" font-family="Helvetica,sans-Serif" font-size="10.00">state&#45;observation/tools</text>
<text text-anchor="middle" x="591.5" y="-7.25" font-family="Helvetica,sans-Serif" font-size="10.00">/definitions.hxx</text>
</a>
</g>
</g>
<!-- Node6&#45;&gt;Node15 -->
<g id="edge18_Node000006_Node000015" class="edge">
<title>Node6&#45;&gt;Node15</title>
<g id="a_edge18_Node000006_Node000015"><a xlink:title=" ">
<path fill="none" stroke="#63b8ff" d="M631.94,-69.25C625.67,-61.27 617.94,-51.43 610.93,-42.5"/>
<polygon fill="#63b8ff" stroke="#63b8ff" points="613.83,-40.53 604.9,-34.82 608.33,-44.85 613.83,-40.53"/>
</a>
</g>
</g>
</g>
</svg>
