<?xml version="1.0" encoding="UTF-8" standalone="no"?>
<!DOCTYPE svg PUBLIC "-//W3C//DTD SVG 1.1//EN"
 "http://www.w3.org/Graphics/SVG/1.1/DTD/svg11.dtd">
<!-- Generated by graphviz version 12.2.1 (0)
 -->
<!-- Title: stateObservation::KineticsObserver::IMU Pages: 1 -->
<svg width="1100pt" height="299pt"
 viewBox="0.00 0.00 1100.00 299.03" xmlns="http://www.w3.org/2000/svg" xmlns:xlink="http://www.w3.org/1999/xlink">
<g id="graph0" class="graph" transform="scale(1 1) rotate(0) translate(4 295.03)">
<title>stateObservation::KineticsObserver::IMU</title>
<!-- Node1 -->
<g id="Node000001" class="node">
<title>Node1</title>
<g id="a_Node000001"><a xlink:title=" ">
<polygon fill="#999999" stroke="#666666" points="1092,-148.88 947,-148.88 947,-115.38 1092,-115.38 1092,-148.88"/>
<text text-anchor="start" x="955" y="-135.38" font-family="Helvetica,sans-Serif" font-size="10.00">stateObservation::Kinetics</text>
<text text-anchor="middle" x="1019.5" y="-122.62" font-family="Helvetica,sans-Serif" font-size="10.00">Observer::IMU</text>
</a>
</g>
</g>
<!-- Node2 -->
<g id="Node000002" class="node">
<title>Node2</title>
<g id="a_Node000002"><a xlink:href="structstateObservation_1_1KineticsObserver_1_1Sensor.html" target="_top" xlink:title=" ">
<polygon fill="white" stroke="#bfbfbf" points="791.75,-200.88 646.75,-200.88 646.75,-167.38 791.75,-167.38 791.75,-200.88"/>
<text text-anchor="start" x="654.75" y="-187.38" font-family="Helvetica,sans-Serif" font-size="10.00">stateObservation::Kinetics</text>
<text text-anchor="middle" x="719.25" y="-174.62" font-family="Helvetica,sans-Serif" font-size="10.00">Observer::Sensor</text>
</a>
</g>
</g>
<!-- Node2&#45;&gt;Node1 -->
<g id="edge1_Node000001_Node000002" class="edge">
<title>Node2&#45;&gt;Node1</title>
<g id="a_edge1_Node000001_Node000002"><a xlink:title=" ">
<path fill="none" stroke="#63b8ff" d="M803.22,-174.79C841.66,-169.91 887.83,-163.25 929,-155.12 937.5,-153.45 946.4,-151.46 955.14,-149.35"/>
<polygon fill="#63b8ff" stroke="#63b8ff" points="803.07,-171.29 793.58,-176 803.94,-178.23 803.07,-171.29"/>
</a>
</g>
</g>
<!-- Node3 -->
<g id="Node000003" class="node">
<title>Node3</title>
<g id="a_Node000003"><a xlink:href="structstateObservation_1_1kine_1_1Kinematics.html" target="_top" xlink:title="Class facilitating the manipulation of the kinematics of a frame within another and the associated op...">
<polygon fill="white" stroke="#666666" points="782.75,-148.88 655.75,-148.88 655.75,-115.38 782.75,-115.38 782.75,-148.88"/>
<text text-anchor="start" x="663.75" y="-135.38" font-family="Helvetica,sans-Serif" font-size="10.00">stateObservation::kine</text>
<text text-anchor="middle" x="719.25" y="-122.62" font-family="Helvetica,sans-Serif" font-size="10.00">::Kinematics</text>
</a>
</g>
</g>
<!-- Node3&#45;&gt;Node1 -->
<g id="edge2_Node000001_Node000003" class="edge">
<title>Node3&#45;&gt;Node1</title>
<g id="a_edge2_Node000001_Node000003"><a xlink:title=" ">
<path fill="none" stroke="#9a32cd" stroke-dasharray="5,2" d="M794.65,-132.12C841.08,-132.12 900.56,-132.12 946.53,-132.12"/>
<polygon fill="#9a32cd" stroke="#9a32cd" points="794.65,-128.63 784.65,-132.13 794.65,-135.63 794.65,-128.63"/>
</a>
</g>
<text text-anchor="start" x="822.12" y="-138.38" font-family="Helvetica,sans-Serif" font-size="10.00" fill="grey">userImuKinematics</text>
</g>
<!-- Node4 -->
<g id="Node000004" class="node">
<title>Node4</title>
<g id="a_Node000004"><a xlink:href="classstateObservation_1_1kine_1_1internal_1_1KinematicsInternal.html" target="_top" xlink:title=" ">
<polygon fill="white" stroke="#bfbfbf" points="609.75,-157.25 452,-157.25 452,-111 609.75,-111 609.75,-157.25"/>
<text text-anchor="start" x="460" y="-143.75" font-family="Helvetica,sans-Serif" font-size="10.00">stateObservation::kine</text>
<text text-anchor="start" x="460" y="-131" font-family="Helvetica,sans-Serif" font-size="10.00">::internal::KinematicsInternal</text>
<text text-anchor="middle" x="530.88" y="-118.25" font-family="Helvetica,sans-Serif" font-size="10.00">&lt; Kinematics &gt;</text>
</a>
</g>
</g>
<!-- Node4&#45;&gt;Node3 -->
<g id="edge3_Node000003_Node000004" class="edge">
<title>Node4&#45;&gt;Node3</title>
<g id="a_edge3_Node000003_Node000004"><a xlink:title=" ">
<path fill="none" stroke="#63b8ff" d="M621.54,-133.16C633.02,-133.04 644.57,-132.92 655.5,-132.8"/>
<polygon fill="#63b8ff" stroke="#63b8ff" points="621.58,-129.66 611.62,-133.27 621.66,-136.66 621.58,-129.66"/>
</a>
</g>
</g>
<!-- Node5 -->
<g id="Node000005" class="node">
<title>Node5</title>
<g id="a_Node000005"><a xlink:href="classstateObservation_1_1CheckedItem.html" target="_top" xlink:title=" ">
<polygon fill="white" stroke="#666666" points="356.75,-149.25 207.25,-149.25 207.25,-103 356.75,-103 356.75,-149.25"/>
<text text-anchor="start" x="215.25" y="-135.75" font-family="Helvetica,sans-Serif" font-size="10.00">stateObservation::Checked</text>
<text text-anchor="start" x="215.25" y="-123" font-family="Helvetica,sans-Serif" font-size="10.00">Item&lt; Vector3, false, false,</text>
<text text-anchor="middle" x="282" y="-110.25" font-family="Helvetica,sans-Serif" font-size="10.00"> true, true, CheckNaN &gt;</text>
</a>
</g>
</g>
<!-- Node5&#45;&gt;Node4 -->
<g id="edge4_Node000004_Node000005" class="edge">
<title>Node5&#45;&gt;Node4</title>
<g id="a_edge4_Node000004_Node000005"><a xlink:title=" ">
<path fill="none" stroke="#9a32cd" stroke-dasharray="5,2" d="M311.89,-157.57C328.53,-173.32 350.86,-190.78 374.75,-199.12 399.61,-207.81 408.83,-206.85 434,-199.12 460.53,-190.98 486.32,-172.73 504.45,-157.63"/>
<polygon fill="#9a32cd" stroke="#9a32cd" points="314.39,-155.12 304.8,-150.61 309.48,-160.11 314.39,-155.12"/>
</a>
</g>
<text text-anchor="start" x="384.88" y="-278.53" font-family="Helvetica,sans-Serif" font-size="10.00" fill="grey">angAcc</text>
<text text-anchor="start" x="384.88" y="-261.78" font-family="Helvetica,sans-Serif" font-size="10.00" fill="grey">angVel</text>
<text text-anchor="start" x="384.88" y="-245.03" font-family="Helvetica,sans-Serif" font-size="10.00" fill="grey">linAcc</text>
<text text-anchor="start" x="384.88" y="-228.28" font-family="Helvetica,sans-Serif" font-size="10.00" fill="grey">linVel</text>
<text text-anchor="start" x="384.88" y="-211.53" font-family="Helvetica,sans-Serif" font-size="10.00" fill="grey">position</text>
</g>
<!-- Node10 -->
<g id="Node000010" class="node">
<title>Node10</title>
<g id="a_Node000010"><a xlink:href="classstateObservation_1_1kine_1_1internal_1_1KinematicsInternal.html" target="_top" xlink:title=" ">
<polygon fill="white" stroke="#bfbfbf" points="609.75,-93.25 452,-93.25 452,-47 609.75,-47 609.75,-93.25"/>
<text text-anchor="start" x="460" y="-79.75" font-family="Helvetica,sans-Serif" font-size="10.00">stateObservation::kine</text>
<text text-anchor="start" x="460" y="-67" font-family="Helvetica,sans-Serif" font-size="10.00">::internal::KinematicsInternal</text>
<text text-anchor="middle" x="530.88" y="-54.25" font-family="Helvetica,sans-Serif" font-size="10.00">&lt; LocalKinematics &gt;</text>
</a>
</g>
</g>
<!-- Node5&#45;&gt;Node10 -->
<g id="edge10_Node000010_Node000005" class="edge">
<title>Node5&#45;&gt;Node10</title>
<g id="a_edge10_Node000010_Node000005"><a xlink:title=" ">
<path fill="none" stroke="#9a32cd" stroke-dasharray="5,2" d="M368.09,-106.82C395.17,-100.68 424.99,-93.92 451.57,-87.89"/>
<polygon fill="#9a32cd" stroke="#9a32cd" points="367.52,-103.36 358.55,-108.99 369.07,-110.19 367.52,-103.36"/>
</a>
</g>
<text text-anchor="start" x="384.88" y="-178.04" font-family="Helvetica,sans-Serif" font-size="10.00" fill="grey">angAcc</text>
<text text-anchor="start" x="384.88" y="-161.29" font-family="Helvetica,sans-Serif" font-size="10.00" fill="grey">angVel</text>
<text text-anchor="start" x="384.88" y="-144.54" font-family="Helvetica,sans-Serif" font-size="10.00" fill="grey">linAcc</text>
<text text-anchor="start" x="384.88" y="-127.79" font-family="Helvetica,sans-Serif" font-size="10.00" fill="grey">linVel</text>
<text text-anchor="start" x="384.88" y="-111.04" font-family="Helvetica,sans-Serif" font-size="10.00" fill="grey">position</text>
</g>
<!-- Node6 -->
<g id="Node000006" class="node">
<title>Node6</title>
<g id="a_Node000006"><a xlink:href="classstateObservation_1_1kine_1_1Orientation.html" target="_top" xlink:title=" ">
<polygon fill="white" stroke="#bfbfbf" points="345.5,-71.88 218.5,-71.88 218.5,-38.38 345.5,-38.38 345.5,-71.88"/>
<text text-anchor="start" x="226.5" y="-58.38" font-family="Helvetica,sans-Serif" font-size="10.00">stateObservation::kine</text>
<text text-anchor="middle" x="282" y="-45.62" font-family="Helvetica,sans-Serif" font-size="10.00">::Orientation</text>
</a>
</g>
</g>
<!-- Node6&#45;&gt;Node4 -->
<g id="edge5_Node000004_Node000006" class="edge">
<title>Node6&#45;&gt;Node4</title>
<g id="a_edge5_Node000004_Node000006"><a xlink:title=" ">
<path fill="none" stroke="#9a32cd" stroke-dasharray="5,2" d="M357.15,-49.12C383.23,-50.35 411.6,-55.77 434,-70.38 447.59,-79.24 439.83,-91.4 452,-102.12 455.51,-105.22 459.36,-108.04 463.41,-110.6"/>
<polygon fill="#9a32cd" stroke="#9a32cd" points="357.34,-45.63 347.26,-48.88 357.17,-52.62 357.34,-45.63"/>
</a>
</g>
<text text-anchor="start" x="377.75" y="-76.62" font-family="Helvetica,sans-Serif" font-size="10.00" fill="grey">orientation</text>
</g>
<!-- Node6&#45;&gt;Node10 -->
<g id="edge11_Node000010_Node000006" class="edge">
<title>Node6&#45;&gt;Node10</title>
<g id="a_edge11_Node000010_Node000006"><a xlink:title=" ">
<path fill="none" stroke="#9a32cd" stroke-dasharray="5,2" d="M341.58,-35.02C369.62,-27.97 403.63,-23.19 434,-29.38 451.19,-32.88 469.12,-39.58 484.76,-46.55"/>
<polygon fill="#9a32cd" stroke="#9a32cd" points="340.96,-31.56 332.21,-37.53 342.78,-38.32 340.96,-31.56"/>
</a>
</g>
<text text-anchor="start" x="377.75" y="-35.62" font-family="Helvetica,sans-Serif" font-size="10.00" fill="grey">orientation</text>
</g>
<!-- Node7 -->
<g id="Node000007" class="node">
<title>Node7</title>
<g id="a_Node000007"><a xlink:href="classstateObservation_1_1CheckedItem.html" target="_top" xlink:title=" ">
<polygon fill="white" stroke="#666666" points="148.75,-110.25 1.5,-110.25 1.5,-64 148.75,-64 148.75,-110.25"/>
<text text-anchor="start" x="9.5" y="-96.75" font-family="Helvetica,sans-Serif" font-size="10.00">stateObservation::Checked</text>
<text text-anchor="start" x="9.5" y="-84" font-family="Helvetica,sans-Serif" font-size="10.00">Item&lt; Quaternion, false,</text>
<text text-anchor="middle" x="75.12" y="-71.25" font-family="Helvetica,sans-Serif" font-size="10.00"> false, true, true &gt;</text>
</a>
</g>
</g>
<!-- Node7&#45;&gt;Node6 -->
<g id="edge6_Node000006_Node000007" class="edge">
<title>Node7&#45;&gt;Node6</title>
<g id="a_edge6_Node000006_Node000007"><a xlink:title=" ">
<path fill="none" stroke="#9a32cd" stroke-dasharray="5,2" d="M160.45,-73.95C179.74,-70.94 199.91,-67.79 218.11,-64.95"/>
<polygon fill="#9a32cd" stroke="#9a32cd" points="160.06,-70.47 150.72,-75.47 161.14,-77.39 160.06,-70.47"/>
</a>
</g>
<text text-anchor="start" x="173.12" y="-78.33" font-family="Helvetica,sans-Serif" font-size="10.00" fill="grey">q_</text>
</g>
<!-- Node8 -->
<g id="Node000008" class="node">
<title>Node8</title>
<g id="a_Node000008"><a xlink:href="classstateObservation_1_1CheckedItem.html" target="_top" xlink:title=" ">
<polygon fill="white" stroke="#666666" points="150.25,-46.25 0,-46.25 0,0 150.25,0 150.25,-46.25"/>
<text text-anchor="start" x="8" y="-32.75" font-family="Helvetica,sans-Serif" font-size="10.00">stateObservation::Checked</text>
<text text-anchor="start" x="8" y="-20" font-family="Helvetica,sans-Serif" font-size="10.00">Item&lt; Matrix3, false, false,</text>
<text text-anchor="middle" x="75.12" y="-7.25" font-family="Helvetica,sans-Serif" font-size="10.00"> true, true, CheckNaN &gt;</text>
</a>
</g>
</g>
<!-- Node8&#45;&gt;Node6 -->
<g id="edge7_Node000006_Node000008" class="edge">
<title>Node8&#45;&gt;Node6</title>
<g id="a_edge7_Node000006_Node000008"><a xlink:title=" ">
<path fill="none" stroke="#9a32cd" stroke-dasharray="5,2" d="M161.99,-36.54C180.88,-39.49 200.54,-42.56 218.31,-45.33"/>
<polygon fill="#9a32cd" stroke="#9a32cd" points="162.58,-33.09 152.16,-35 161.5,-40 162.58,-33.09"/>
</a>
</g>
<text text-anchor="start" x="171.25" y="-46.33" font-family="Helvetica,sans-Serif" font-size="10.00" fill="grey">m_</text>
</g>
<!-- Node9 -->
<g id="Node000009" class="node">
<title>Node9</title>
<g id="a_Node000009"><a xlink:href="structstateObservation_1_1kine_1_1LocalKinematics.html" target="_top" xlink:title="Class facilitating the manipulation of the local kinematics of a frame within another and the associa...">
<polygon fill="white" stroke="#666666" points="782.75,-95.88 655.75,-95.88 655.75,-62.38 782.75,-62.38 782.75,-95.88"/>
<text text-anchor="start" x="663.75" y="-82.38" font-family="Helvetica,sans-Serif" font-size="10.00">stateObservation::kine</text>
<text text-anchor="middle" x="719.25" y="-69.62" font-family="Helvetica,sans-Serif" font-size="10.00">::LocalKinematics</text>
</a>
</g>
</g>
<!-- Node9&#45;&gt;Node1 -->
<g id="edge8_Node000001_Node000009" class="edge">
<title>Node9&#45;&gt;Node1</title>
<g id="a_edge8_Node000001_Node000009"><a xlink:title=" ">
<path fill="none" stroke="#9a32cd" stroke-dasharray="5,2" d="M794.39,-87.94C834.43,-93.19 884.61,-100.54 929,-109.38 937.18,-111 945.72,-112.91 954.15,-114.91"/>
<polygon fill="#9a32cd" stroke="#9a32cd" points="794.98,-84.49 784.62,-86.68 794.08,-91.43 794.98,-84.49"/>
</a>
</g>
<text text-anchor="start" x="812.75" y="-115.62" font-family="Helvetica,sans-Serif" font-size="10.00" fill="grey">centroidImuKinematics</text>
</g>
<!-- Node10&#45;&gt;Node9 -->
<g id="edge9_Node000009_Node000010" class="edge">
<title>Node10&#45;&gt;Node9</title>
<g id="a_edge9_Node000009_Node000010"><a xlink:title=" ">
<path fill="none" stroke="#63b8ff" d="M621.54,-74.45C633.02,-75.01 644.57,-75.57 655.5,-76.09"/>
<polygon fill="#63b8ff" stroke="#63b8ff" points="621.77,-70.96 611.62,-73.98 621.44,-77.95 621.77,-70.96"/>
</a>
</g>
</g>
</g>
</svg>
