<?xml version="1.0" encoding="UTF-8" standalone="no"?>
<!DOCTYPE svg PUBLIC "-//W3C//DTD SVG 1.1//EN"
 "http://www.w3.org/Graphics/SVG/1.1/DTD/svg11.dtd">
<!-- Generated by graphviz version 12.2.1 (0)
 -->
<!-- Title: stateObservation::tools::Logger::log_s Pages: 1 -->
<svg width="255pt" height="200pt"
 viewBox="0.00 0.00 255.00 200.25" xmlns="http://www.w3.org/2000/svg" xmlns:xlink="http://www.w3.org/1999/xlink">
<g id="graph0" class="graph" transform="scale(1 1) rotate(0) translate(4 196.25)">
<title>stateObservation::tools::Logger::log_s</title>
<!-- Node1 -->
<g id="Node000001" class="node">
<title>Node1</title>
<g id="a_Node000001"><a xlink:title=" ">
<polygon fill="#999999" stroke="#666666" points="164.12,-33.5 34.12,-33.5 34.12,0 164.12,0 164.12,-33.5"/>
<text text-anchor="start" x="42.12" y="-20" font-family="Helvetica,sans-Serif" font-size="10.00">stateObservation::tools</text>
<text text-anchor="middle" x="99.12" y="-7.25" font-family="Helvetica,sans-Serif" font-size="10.00">::Logger::log_s</text>
</a>
</g>
</g>
<!-- Node2 -->
<g id="Node000002" class="node">
<title>Node2</title>
<g id="a_Node000002"><a xlink:href="classstateObservation_1_1IndexedMatrixArrayT.html" target="_top" xlink:title=" ">
<polygon fill="white" stroke="#666666" points="144.25,-121.75 0,-121.75 0,-88.25 144.25,-88.25 144.25,-121.75"/>
<text text-anchor="start" x="8" y="-108.25" font-family="Helvetica,sans-Serif" font-size="10.00">stateObservation::Indexed</text>
<text text-anchor="middle" x="72.12" y="-95.5" font-family="Helvetica,sans-Serif" font-size="10.00">MatrixArrayT&lt; Matrix &gt;</text>
</a>
</g>
</g>
<!-- Node2&#45;&gt;Node1 -->
<g id="edge1_Node000001_Node000002" class="edge">
<title>Node2&#45;&gt;Node1</title>
<g id="a_edge1_Node000001_Node000002"><a xlink:title=" ">
<path fill="none" stroke="#9a32cd" stroke-dasharray="5,2" d="M80.53,-77.14C84.97,-62.97 90.27,-46.05 94.07,-33.9"/>
<polygon fill="#9a32cd" stroke="#9a32cd" points="77.3,-75.74 77.66,-86.33 83.98,-77.83 77.3,-75.74"/>
</a>
</g>
<text text-anchor="start" x="91.04" y="-57.75" font-family="Helvetica,sans-Serif" font-size="10.00" fill="grey">array</text>
</g>
<!-- Node3 -->
<g id="Node000003" class="node">
<title>Node3</title>
<g id="a_Node000003"><a xlink:title=" ">
<polygon fill="white" stroke="#666666" points="227.5,-115.38 162.75,-115.38 162.75,-94.62 227.5,-94.62 227.5,-115.38"/>
<text text-anchor="middle" x="195.12" y="-101.88" font-family="Helvetica,sans-Serif" font-size="10.00">std::string</text>
</a>
</g>
</g>
<!-- Node3&#45;&gt;Node1 -->
<g id="edge2_Node000001_Node000003" class="edge">
<title>Node3&#45;&gt;Node1</title>
<g id="a_edge2_Node000001_Node000003"><a xlink:title=" ">
<path fill="none" stroke="#9a32cd" stroke-dasharray="5,2" d="M176.32,-87.1C159.12,-71.66 133.88,-48.97 116.99,-33.8"/>
<polygon fill="#9a32cd" stroke="#9a32cd" points="173.58,-89.35 183.36,-93.43 178.26,-84.14 173.58,-89.35"/>
</a>
</g>
<text text-anchor="start" x="158.72" y="-57.75" font-family="Helvetica,sans-Serif" font-size="10.00" fill="grey">filename</text>
</g>
<!-- Node4 -->
<g id="Node000004" class="node">
<title>Node4</title>
<g id="a_Node000004"><a xlink:title=" ">
<polygon fill="white" stroke="#666666" points="247,-192.25 143.25,-192.25 143.25,-158.75 247,-158.75 247,-192.25"/>
<text text-anchor="start" x="151.25" y="-178.75" font-family="Helvetica,sans-Serif" font-size="10.00">std::basic_string&lt;</text>
<text text-anchor="middle" x="195.12" y="-166" font-family="Helvetica,sans-Serif" font-size="10.00"> Char &gt;</text>
</a>
</g>
</g>
<!-- Node4&#45;&gt;Node3 -->
<g id="edge3_Node000003_Node000004" class="edge">
<title>Node4&#45;&gt;Node3</title>
<g id="a_edge3_Node000003_Node000004"><a xlink:title=" ">
<path fill="none" stroke="#63b8ff" d="M195.12,-146.83C195.12,-135.74 195.12,-123.68 195.12,-115.57"/>
<polygon fill="#63b8ff" stroke="#63b8ff" points="191.63,-146.75 195.13,-156.75 198.63,-146.75 191.63,-146.75"/>
</a>
</g>
</g>
</g>
</svg>
