<?xml version="1.0" encoding="UTF-8" standalone="no"?>
<!DOCTYPE svg PUBLIC "-//W3C//DTD SVG 1.1//EN"
 "http://www.w3.org/Graphics/SVG/1.1/DTD/svg11.dtd">
<!-- Generated by graphviz version 12.2.1 (0)
 -->
<!-- Title: stateObservation::KineticsObserver::AbsoluteOriSensor Pages: 1 -->
<svg width="571pt" height="148pt"
 viewBox="0.00 0.00 571.25 147.88" xmlns="http://www.w3.org/2000/svg" xmlns:xlink="http://www.w3.org/1999/xlink">
<g id="graph0" class="graph" transform="scale(1 1) rotate(0) translate(4 143.88)">
<title>stateObservation::KineticsObserver::AbsoluteOriSensor</title>
<!-- Node1 -->
<g id="Node000001" class="node">
<title>Node1</title>
<g id="a_Node000001"><a xlink:title=" ">
<polygon fill="#999999" stroke="#666666" points="563.25,-87.88 407,-87.88 407,-54.38 563.25,-54.38 563.25,-87.88"/>
<text text-anchor="start" x="415" y="-74.38" font-family="Helvetica,sans-Serif" font-size="10.00">stateObservation::Kinetics</text>
<text text-anchor="middle" x="485.12" y="-61.62" font-family="Helvetica,sans-Serif" font-size="10.00">Observer::AbsoluteOriSensor</text>
</a>
</g>
</g>
<!-- Node2 -->
<g id="Node000002" class="node">
<title>Node2</title>
<g id="a_Node000002"><a xlink:href="structstateObservation_1_1KineticsObserver_1_1Sensor.html" target="_top" xlink:title=" ">
<polygon fill="white" stroke="#bfbfbf" points="352.25,-139.88 207.25,-139.88 207.25,-106.38 352.25,-106.38 352.25,-139.88"/>
<text text-anchor="start" x="215.25" y="-126.38" font-family="Helvetica,sans-Serif" font-size="10.00">stateObservation::Kinetics</text>
<text text-anchor="middle" x="279.75" y="-113.62" font-family="Helvetica,sans-Serif" font-size="10.00">Observer::Sensor</text>
</a>
</g>
</g>
<!-- Node2&#45;&gt;Node1 -->
<g id="edge1_Node000001_Node000002" class="edge">
<title>Node2&#45;&gt;Node1</title>
<g id="a_edge1_Node000001_Node000002"><a xlink:title=" ">
<path fill="none" stroke="#63b8ff" d="M359.23,-103.06C378.25,-98.19 398.42,-93.04 416.87,-88.32"/>
<polygon fill="#63b8ff" stroke="#63b8ff" points="358.48,-99.64 349.65,-105.51 360.21,-106.42 358.48,-99.64"/>
</a>
</g>
</g>
<!-- Node3 -->
<g id="Node000003" class="node">
<title>Node3</title>
<g id="a_Node000003"><a xlink:href="classstateObservation_1_1kine_1_1Orientation.html" target="_top" xlink:title=" ">
<polygon fill="white" stroke="#bfbfbf" points="343.25,-87.88 216.25,-87.88 216.25,-54.38 343.25,-54.38 343.25,-87.88"/>
<text text-anchor="start" x="224.25" y="-74.38" font-family="Helvetica,sans-Serif" font-size="10.00">stateObservation::kine</text>
<text text-anchor="middle" x="279.75" y="-61.62" font-family="Helvetica,sans-Serif" font-size="10.00">::Orientation</text>
</a>
</g>
</g>
<!-- Node3&#45;&gt;Node1 -->
<g id="edge2_Node000001_Node000003" class="edge">
<title>Node3&#45;&gt;Node1</title>
<g id="a_edge2_Node000001_Node000003"><a xlink:title=" ">
<path fill="none" stroke="#9a32cd" stroke-dasharray="5,2" d="M355.15,-71.12C371.96,-71.12 389.85,-71.12 406.78,-71.12"/>
<polygon fill="#9a32cd" stroke="#9a32cd" points="355.22,-67.63 345.22,-71.13 355.22,-74.63 355.22,-67.63"/>
</a>
</g>
<text text-anchor="start" x="373.25" y="-77.38" font-family="Helvetica,sans-Serif" font-size="10.00" fill="grey">ori</text>
</g>
<!-- Node4 -->
<g id="Node000004" class="node">
<title>Node4</title>
<g id="a_Node000004"><a xlink:href="classstateObservation_1_1CheckedItem.html" target="_top" xlink:title=" ">
<polygon fill="white" stroke="#666666" points="148.75,-115.25 1.5,-115.25 1.5,-69 148.75,-69 148.75,-115.25"/>
<text text-anchor="start" x="9.5" y="-101.75" font-family="Helvetica,sans-Serif" font-size="10.00">stateObservation::Checked</text>
<text text-anchor="start" x="9.5" y="-89" font-family="Helvetica,sans-Serif" font-size="10.00">Item&lt; Quaternion, false,</text>
<text text-anchor="middle" x="75.12" y="-76.25" font-family="Helvetica,sans-Serif" font-size="10.00"> false, true, true &gt;</text>
</a>
</g>
</g>
<!-- Node4&#45;&gt;Node3 -->
<g id="edge3_Node000003_Node000004" class="edge">
<title>Node4&#45;&gt;Node3</title>
<g id="a_edge3_Node000003_Node000004"><a xlink:title=" ">
<path fill="none" stroke="#9a32cd" stroke-dasharray="5,2" d="M160.43,-83.39C179,-81.46 198.36,-79.46 215.91,-77.64"/>
<polygon fill="#9a32cd" stroke="#9a32cd" points="160.08,-79.9 150.5,-84.42 160.8,-86.87 160.08,-79.9"/>
</a>
</g>
<text text-anchor="start" x="173.12" y="-88.5" font-family="Helvetica,sans-Serif" font-size="10.00" fill="grey">q_</text>
</g>
<!-- Node5 -->
<g id="Node000005" class="node">
<title>Node5</title>
<g id="a_Node000005"><a xlink:href="classstateObservation_1_1CheckedItem.html" target="_top" xlink:title=" ">
<polygon fill="white" stroke="#666666" points="150.25,-46.25 0,-46.25 0,0 150.25,0 150.25,-46.25"/>
<text text-anchor="start" x="8" y="-32.75" font-family="Helvetica,sans-Serif" font-size="10.00">stateObservation::Checked</text>
<text text-anchor="start" x="8" y="-20" font-family="Helvetica,sans-Serif" font-size="10.00">Item&lt; Matrix3, false, false,</text>
<text text-anchor="middle" x="75.12" y="-7.25" font-family="Helvetica,sans-Serif" font-size="10.00"> true, true, CheckNaN &gt;</text>
</a>
</g>
</g>
<!-- Node5&#45;&gt;Node1 -->
<g id="edge5_Node000001_Node000005" class="edge">
<title>Node5&#45;&gt;Node1</title>
<g id="a_edge5_Node000001_Node000005"><a xlink:title=" ">
<path fill="none" stroke="#9a32cd" stroke-dasharray="5,2" d="M161.95,-17.23C216.78,-15.16 289.16,-15.58 352.25,-26.38 384.06,-31.82 418.56,-43.75 444.29,-53.93"/>
<polygon fill="#9a32cd" stroke="#9a32cd" points="161.89,-13.73 152.04,-17.64 162.18,-20.72 161.89,-13.73"/>
</a>
</g>
<text text-anchor="start" x="255.38" y="-32.62" font-family="Helvetica,sans-Serif" font-size="10.00" fill="grey">covMatrix</text>
</g>
<!-- Node5&#45;&gt;Node3 -->
<g id="edge4_Node000003_Node000005" class="edge">
<title>Node5&#45;&gt;Node3</title>
<g id="a_edge4_Node000003_Node000005"><a xlink:title=" ">
<path fill="none" stroke="#9a32cd" stroke-dasharray="5,2" d="M161.9,-43.44C180.04,-47.74 198.86,-52.2 215.96,-56.25"/>
<polygon fill="#9a32cd" stroke="#9a32cd" points="162.72,-40.04 152.18,-41.14 161.11,-46.85 162.72,-40.04"/>
</a>
</g>
<text text-anchor="start" x="171.25" y="-54.81" font-family="Helvetica,sans-Serif" font-size="10.00" fill="grey">m_</text>
</g>
</g>
</svg>
