<?xml version="1.0" encoding="UTF-8" standalone="no"?>
<!DOCTYPE svg PUBLIC "-//W3C//DTD SVG 1.1//EN"
 "http://www.w3.org/Graphics/SVG/1.1/DTD/svg11.dtd">
<!-- Generated by graphviz version 12.2.1 (0)
 -->
<!-- Title: stateObservation::KineticsObserver::Opt Pages: 1 -->
<svg width="1035pt" height="212pt"
 viewBox="0.00 0.00 1034.50 211.83" xmlns="http://www.w3.org/2000/svg" xmlns:xlink="http://www.w3.org/1999/xlink">
<g id="graph0" class="graph" transform="scale(1 1) rotate(0) translate(4 207.83)">
<title>stateObservation::KineticsObserver::Opt</title>
<!-- Node1 -->
<g id="Node000001" class="node">
<title>Node1</title>
<g id="a_Node000001"><a xlink:title="a structure to optimize computations">
<polygon fill="#999999" stroke="#666666" points="1026.5,-78.88 881.5,-78.88 881.5,-45.38 1026.5,-45.38 1026.5,-78.88"/>
<text text-anchor="start" x="889.5" y="-65.38" font-family="Helvetica,sans-Serif" font-size="10.00">stateObservation::Kinetics</text>
<text text-anchor="middle" x="954" y="-52.62" font-family="Helvetica,sans-Serif" font-size="10.00">Observer::Opt</text>
</a>
</g>
</g>
<!-- Node2 -->
<g id="Node000002" class="node">
<title>Node2</title>
<g id="a_Node000002"><a xlink:href="structstateObservation_1_1kine_1_1LocalKinematics.html" target="_top" xlink:title="Class facilitating the manipulation of the local kinematics of a frame within another and the associa...">
<polygon fill="white" stroke="#666666" points="797.5,-118.88 670.5,-118.88 670.5,-85.38 797.5,-85.38 797.5,-118.88"/>
<text text-anchor="start" x="678.5" y="-105.38" font-family="Helvetica,sans-Serif" font-size="10.00">stateObservation::kine</text>
<text text-anchor="middle" x="734" y="-92.62" font-family="Helvetica,sans-Serif" font-size="10.00">::LocalKinematics</text>
</a>
</g>
</g>
<!-- Node2&#45;&gt;Node1 -->
<g id="edge1_Node000001_Node000002" class="edge">
<title>Node2&#45;&gt;Node1</title>
<g id="a_edge1_Node000001_Node000002"><a xlink:title=" ">
<path fill="none" stroke="#9a32cd" stroke-dasharray="5,2" d="M808.98,-88.55C832.27,-84.28 857.94,-79.57 881.09,-75.32"/>
<polygon fill="#9a32cd" stroke="#9a32cd" points="808.45,-85.09 799.25,-90.34 809.72,-91.97 808.45,-85.09"/>
</a>
</g>
<text text-anchor="start" x="818.5" y="-126.63" font-family="Helvetica,sans-Serif" font-size="10.00" fill="grey">locKine</text>
<text text-anchor="start" x="818.5" y="-109.88" font-family="Helvetica,sans-Serif" font-size="10.00" fill="grey">locKine1</text>
<text text-anchor="start" x="818.5" y="-93.13" font-family="Helvetica,sans-Serif" font-size="10.00" fill="grey">locKine2</text>
</g>
<!-- Node3 -->
<g id="Node000003" class="node">
<title>Node3</title>
<g id="a_Node000003"><a xlink:href="classstateObservation_1_1kine_1_1internal_1_1KinematicsInternal.html" target="_top" xlink:title=" ">
<polygon fill="white" stroke="#bfbfbf" points="609.75,-136.25 452,-136.25 452,-90 609.75,-90 609.75,-136.25"/>
<text text-anchor="start" x="460" y="-122.75" font-family="Helvetica,sans-Serif" font-size="10.00">stateObservation::kine</text>
<text text-anchor="start" x="460" y="-110" font-family="Helvetica,sans-Serif" font-size="10.00">::internal::KinematicsInternal</text>
<text text-anchor="middle" x="530.88" y="-97.25" font-family="Helvetica,sans-Serif" font-size="10.00">&lt; LocalKinematics &gt;</text>
</a>
</g>
</g>
<!-- Node3&#45;&gt;Node2 -->
<g id="edge2_Node000002_Node000003" class="edge">
<title>Node3&#45;&gt;Node2</title>
<g id="a_edge2_Node000002_Node000003"><a xlink:title=" ">
<path fill="none" stroke="#63b8ff" d="M621.49,-108.22C637.89,-107.33 654.69,-106.41 670.11,-105.56"/>
<polygon fill="#63b8ff" stroke="#63b8ff" points="621.52,-104.72 611.72,-108.76 621.9,-111.71 621.52,-104.72"/>
</a>
</g>
</g>
<!-- Node4 -->
<g id="Node000004" class="node">
<title>Node4</title>
<g id="a_Node000004"><a xlink:href="classstateObservation_1_1CheckedItem.html" target="_top" xlink:title=" ">
<polygon fill="white" stroke="#666666" points="356.75,-144.25 207.25,-144.25 207.25,-98 356.75,-98 356.75,-144.25"/>
<text text-anchor="start" x="215.25" y="-130.75" font-family="Helvetica,sans-Serif" font-size="10.00">stateObservation::Checked</text>
<text text-anchor="start" x="215.25" y="-118" font-family="Helvetica,sans-Serif" font-size="10.00">Item&lt; Vector3, false, false,</text>
<text text-anchor="middle" x="282" y="-105.25" font-family="Helvetica,sans-Serif" font-size="10.00"> true, true, CheckNaN &gt;</text>
</a>
</g>
</g>
<!-- Node4&#45;&gt;Node3 -->
<g id="edge3_Node000003_Node000004" class="edge">
<title>Node4&#45;&gt;Node3</title>
<g id="a_edge3_Node000003_Node000004"><a xlink:title=" ">
<path fill="none" stroke="#9a32cd" stroke-dasharray="5,2" d="M368.45,-118.36C395.44,-117.48 425.11,-116.52 451.57,-115.66"/>
<polygon fill="#9a32cd" stroke="#9a32cd" points="368.46,-114.85 358.58,-118.68 368.69,-121.85 368.46,-114.85"/>
</a>
</g>
<text text-anchor="start" x="384.88" y="-191.33" font-family="Helvetica,sans-Serif" font-size="10.00" fill="grey">angAcc</text>
<text text-anchor="start" x="384.88" y="-174.58" font-family="Helvetica,sans-Serif" font-size="10.00" fill="grey">angVel</text>
<text text-anchor="start" x="384.88" y="-157.83" font-family="Helvetica,sans-Serif" font-size="10.00" fill="grey">linAcc</text>
<text text-anchor="start" x="384.88" y="-141.08" font-family="Helvetica,sans-Serif" font-size="10.00" fill="grey">linVel</text>
<text text-anchor="start" x="384.88" y="-124.33" font-family="Helvetica,sans-Serif" font-size="10.00" fill="grey">position</text>
</g>
<!-- Node5 -->
<g id="Node000005" class="node">
<title>Node5</title>
<g id="a_Node000005"><a xlink:href="classstateObservation_1_1kine_1_1Orientation.html" target="_top" xlink:title=" ">
<polygon fill="white" stroke="#bfbfbf" points="345.5,-71.88 218.5,-71.88 218.5,-38.38 345.5,-38.38 345.5,-71.88"/>
<text text-anchor="start" x="226.5" y="-58.38" font-family="Helvetica,sans-Serif" font-size="10.00">stateObservation::kine</text>
<text text-anchor="middle" x="282" y="-45.62" font-family="Helvetica,sans-Serif" font-size="10.00">::Orientation</text>
</a>
</g>
</g>
<!-- Node5&#45;&gt;Node1 -->
<g id="edge7_Node000001_Node000005" class="edge">
<title>Node5&#45;&gt;Node1</title>
<g id="a_edge7_Node000001_Node000005"><a xlink:title=" ">
<path fill="none" stroke="#9a32cd" stroke-dasharray="5,2" d="M356.9,-52.96C431.49,-51.09 550,-48.96 652.5,-50.88 730.67,-52.34 820.21,-55.94 881.07,-58.68"/>
<polygon fill="#9a32cd" stroke="#9a32cd" points="357.19,-49.45 347.28,-53.21 357.37,-56.45 357.19,-49.45"/>
</a>
</g>
<text text-anchor="start" x="630.75" y="-90.62" font-family="Helvetica,sans-Serif" font-size="10.00" fill="grey">ori</text>
<text text-anchor="start" x="630.75" y="-73.88" font-family="Helvetica,sans-Serif" font-size="10.00" fill="grey">ori1</text>
<text text-anchor="start" x="630.75" y="-57.12" font-family="Helvetica,sans-Serif" font-size="10.00" fill="grey">ori2</text>
</g>
<!-- Node5&#45;&gt;Node3 -->
<g id="edge4_Node000003_Node000005" class="edge">
<title>Node5&#45;&gt;Node3</title>
<g id="a_edge4_Node000003_Node000005"><a xlink:title=" ">
<path fill="none" stroke="#9a32cd" stroke-dasharray="5,2" d="M357.12,-72.54C386.94,-79.54 421.35,-87.63 451.58,-94.73"/>
<polygon fill="#9a32cd" stroke="#9a32cd" points="357.94,-69.14 347.41,-70.26 356.34,-75.95 357.94,-69.14"/>
</a>
</g>
<text text-anchor="start" x="377.75" y="-95.57" font-family="Helvetica,sans-Serif" font-size="10.00" fill="grey">orientation</text>
</g>
<!-- Node6 -->
<g id="Node000006" class="node">
<title>Node6</title>
<g id="a_Node000006"><a xlink:href="classstateObservation_1_1CheckedItem.html" target="_top" xlink:title=" ">
<polygon fill="white" stroke="#666666" points="148.75,-110.25 1.5,-110.25 1.5,-64 148.75,-64 148.75,-110.25"/>
<text text-anchor="start" x="9.5" y="-96.75" font-family="Helvetica,sans-Serif" font-size="10.00">stateObservation::Checked</text>
<text text-anchor="start" x="9.5" y="-84" font-family="Helvetica,sans-Serif" font-size="10.00">Item&lt; Quaternion, false,</text>
<text text-anchor="middle" x="75.12" y="-71.25" font-family="Helvetica,sans-Serif" font-size="10.00"> false, true, true &gt;</text>
</a>
</g>
</g>
<!-- Node6&#45;&gt;Node5 -->
<g id="edge5_Node000005_Node000006" class="edge">
<title>Node6&#45;&gt;Node5</title>
<g id="a_edge5_Node000005_Node000006"><a xlink:title=" ">
<path fill="none" stroke="#9a32cd" stroke-dasharray="5,2" d="M160.45,-73.95C179.74,-70.94 199.91,-67.79 218.11,-64.95"/>
<polygon fill="#9a32cd" stroke="#9a32cd" points="160.06,-70.47 150.72,-75.47 161.14,-77.39 160.06,-70.47"/>
</a>
</g>
<text text-anchor="start" x="173.12" y="-78.33" font-family="Helvetica,sans-Serif" font-size="10.00" fill="grey">q_</text>
</g>
<!-- Node7 -->
<g id="Node000007" class="node">
<title>Node7</title>
<g id="a_Node000007"><a xlink:href="classstateObservation_1_1CheckedItem.html" target="_top" xlink:title=" ">
<polygon fill="white" stroke="#666666" points="150.25,-46.25 0,-46.25 0,0 150.25,0 150.25,-46.25"/>
<text text-anchor="start" x="8" y="-32.75" font-family="Helvetica,sans-Serif" font-size="10.00">stateObservation::Checked</text>
<text text-anchor="start" x="8" y="-20" font-family="Helvetica,sans-Serif" font-size="10.00">Item&lt; Matrix3, false, false,</text>
<text text-anchor="middle" x="75.12" y="-7.25" font-family="Helvetica,sans-Serif" font-size="10.00"> true, true, CheckNaN &gt;</text>
</a>
</g>
</g>
<!-- Node7&#45;&gt;Node5 -->
<g id="edge6_Node000005_Node000007" class="edge">
<title>Node7&#45;&gt;Node5</title>
<g id="a_edge6_Node000005_Node000007"><a xlink:title=" ">
<path fill="none" stroke="#9a32cd" stroke-dasharray="5,2" d="M161.99,-36.54C180.88,-39.49 200.54,-42.56 218.31,-45.33"/>
<polygon fill="#9a32cd" stroke="#9a32cd" points="162.58,-33.09 152.16,-35 161.5,-40 162.58,-33.09"/>
</a>
</g>
<text text-anchor="start" x="171.25" y="-46.33" font-family="Helvetica,sans-Serif" font-size="10.00" fill="grey">m_</text>
</g>
</g>
</svg>
