<?xml version="1.0" encoding="UTF-8" standalone="no"?>
<!DOCTYPE svg PUBLIC "-//W3C//DTD SVG 1.1//EN"
 "http://www.w3.org/Graphics/SVG/1.1/DTD/svg11.dtd">
<!-- Generated by graphviz version 12.2.1 (0)
 -->
<!-- Title: /build/source/include/state&#45;observation/observer/tilt&#45;estimator.hpp Pages: 1 -->
<svg width="1228pt" height="332pt"
 viewBox="0.00 0.00 1227.62 332.25" xmlns="http://www.w3.org/2000/svg" xmlns:xlink="http://www.w3.org/1999/xlink">
<g id="graph0" class="graph" transform="scale(1 1) rotate(0) translate(4 328.25)">
<title>/build/source/include/state&#45;observation/observer/tilt&#45;estimator.hpp</title>
<!-- Node1 -->
<g id="Node000001" class="node">
<title>Node1</title>
<g id="a_Node000001"><a xlink:title="Version of the Tilt Estimator that implements all the necessary functions to perform the estimation f...">
<polygon fill="#999999" stroke="#666666" points="1165.5,-324.25 1014.5,-324.25 1014.5,-278 1165.5,-278 1165.5,-324.25"/>
<text text-anchor="start" x="1022.5" y="-310.75" font-family="Helvetica,sans-Serif" font-size="10.00">/build/source/include</text>
<text text-anchor="start" x="1022.5" y="-298" font-family="Helvetica,sans-Serif" font-size="10.00">/state&#45;observation/observer</text>
<text text-anchor="middle" x="1090" y="-285.25" font-family="Helvetica,sans-Serif" font-size="10.00">/tilt&#45;estimator.hpp</text>
</a>
</g>
</g>
<!-- Node2 -->
<g id="Node000002" class="node">
<title>Node2</title>
<g id="a_Node000002"><a xlink:title=" ">
<polygon fill="#e0e0e0" stroke="#999999" points="1219.62,-27.12 1090.38,-27.12 1090.38,-6.38 1219.62,-6.38 1219.62,-27.12"/>
<text text-anchor="middle" x="1155" y="-13.62" font-family="Helvetica,sans-Serif" font-size="10.00">state&#45;observation/api.h</text>
</a>
</g>
</g>
<!-- Node1&#45;&gt;Node2 -->
<g id="edge1_Node000001_Node000002" class="edge">
<title>Node1&#45;&gt;Node2</title>
<g id="a_edge1_Node000001_Node000002"><a xlink:title=" ">
<path fill="none" stroke="#63b8ff" d="M1104.65,-277.77C1110.88,-267.29 1117.7,-254.41 1122,-242 1146.88,-170.2 1153,-79.13 1154.51,-38.71"/>
<polygon fill="#63b8ff" stroke="#63b8ff" points="1158,-39.07 1154.81,-28.97 1151,-38.85 1158,-39.07"/>
</a>
</g>
</g>
<!-- Node3 -->
<g id="Node000003" class="node">
<title>Node3</title>
<g id="a_Node000003"><a xlink:href="zero-delay-observer_8hpp.html" target="_top" xlink:title="Defines the base class of online zero delay observers. Zero delay observers are the classical state o...">
<polygon fill="white" stroke="#666666" points="1113,-242 965,-242 965,-208.5 1113,-208.5 1113,-242"/>
<text text-anchor="start" x="973" y="-228.5" font-family="Helvetica,sans-Serif" font-size="10.00">state&#45;observation/observer</text>
<text text-anchor="middle" x="1039" y="-215.75" font-family="Helvetica,sans-Serif" font-size="10.00">/zero&#45;delay&#45;observer.hpp</text>
</a>
</g>
</g>
<!-- Node1&#45;&gt;Node3 -->
<g id="edge2_Node000001_Node000003" class="edge">
<title>Node1&#45;&gt;Node3</title>
<g id="a_edge2_Node000001_Node000003"><a xlink:title=" ">
<path fill="none" stroke="#63b8ff" d="M1074.42,-277.56C1068.78,-269.39 1062.37,-260.1 1056.57,-251.7"/>
<polygon fill="#63b8ff" stroke="#63b8ff" points="1059.54,-249.84 1050.98,-243.6 1053.78,-253.82 1059.54,-249.84"/>
</a>
</g>
</g>
<!-- Node3&#45;&gt;Node2 -->
<g id="edge4_Node000003_Node000002" class="edge">
<title>Node3&#45;&gt;Node2</title>
<g id="a_edge4_Node000003_Node000002"><a xlink:title=" ">
<path fill="none" stroke="#63b8ff" d="M1056.96,-208.29C1067.03,-198.66 1079.28,-185.72 1088,-172.5 1117.33,-128.06 1138.8,-68.67 1148.78,-37.99"/>
<polygon fill="#63b8ff" stroke="#63b8ff" points="1151.99,-39.43 1151.68,-28.84 1145.32,-37.31 1151.99,-39.43"/>
</a>
</g>
</g>
<!-- Node4 -->
<g id="Node000004" class="node">
<title>Node4</title>
<g id="a_Node000004"><a xlink:title=" ">
<polygon fill="#e0e0e0" stroke="#999999" points="46,-27.12 0,-27.12 0,-6.38 46,-6.38 46,-27.12"/>
<text text-anchor="middle" x="23" y="-13.62" font-family="Helvetica,sans-Serif" font-size="10.00">deque</text>
</a>
</g>
</g>
<!-- Node3&#45;&gt;Node4 -->
<g id="edge3_Node000003_Node000004" class="edge">
<title>Node3&#45;&gt;Node4</title>
<g id="a_edge3_Node000003_Node000004"><a xlink:title=" ">
<path fill="none" stroke="#63b8ff" d="M964.76,-216.68C798.35,-198.26 384.25,-144.23 55,-33.5 53.83,-33.11 52.64,-32.68 51.45,-32.22"/>
<polygon fill="#63b8ff" stroke="#63b8ff" points="52.87,-29.02 42.31,-28.22 50.06,-35.43 52.87,-29.02"/>
</a>
</g>
</g>
<!-- Node5 -->
<g id="Node000005" class="node">
<title>Node5</title>
<g id="a_Node000005"><a xlink:href="observer-base_8hpp.html" target="_top" xlink:title="Defines the base class of a state observer. The observer is destinated to any dynamical system with a...">
<polygon fill="white" stroke="#666666" points="1079,-172.5 931,-172.5 931,-139 1079,-139 1079,-172.5"/>
<text text-anchor="start" x="939" y="-159" font-family="Helvetica,sans-Serif" font-size="10.00">state&#45;observation/observer</text>
<text text-anchor="middle" x="1005" y="-146.25" font-family="Helvetica,sans-Serif" font-size="10.00">/observer&#45;base.hpp</text>
</a>
</g>
</g>
<!-- Node3&#45;&gt;Node5 -->
<g id="edge5_Node000003_Node000005" class="edge">
<title>Node3&#45;&gt;Node5</title>
<g id="a_edge5_Node000003_Node000005"><a xlink:title=" ">
<path fill="none" stroke="#63b8ff" d="M1030.94,-208.25C1027.13,-200.69 1022.48,-191.46 1018.18,-182.91"/>
<polygon fill="#63b8ff" stroke="#63b8ff" points="1021.31,-181.34 1013.68,-173.98 1015.05,-184.49 1021.31,-181.34"/>
</a>
</g>
</g>
<!-- Node5&#45;&gt;Node2 -->
<g id="edge8_Node000005_Node000002" class="edge">
<title>Node5&#45;&gt;Node2</title>
<g id="a_edge8_Node000005_Node000002"><a xlink:title=" ">
<path fill="none" stroke="#63b8ff" d="M1031.1,-138.65C1045.79,-129.06 1064.12,-116.23 1079,-103 1102.39,-82.22 1125.81,-54.67 1140.35,-36.59"/>
<polygon fill="#63b8ff" stroke="#63b8ff" points="1143.05,-38.82 1146.51,-28.81 1137.56,-34.48 1143.05,-38.82"/>
</a>
</g>
</g>
<!-- Node6 -->
<g id="Node000006" class="node">
<title>Node6</title>
<g id="a_Node000006"><a xlink:title=" ">
<polygon fill="#e0e0e0" stroke="#999999" points="1072.5,-27.12 975.5,-27.12 975.5,-6.38 1072.5,-6.38 1072.5,-27.12"/>
<text text-anchor="middle" x="1024" y="-13.62" font-family="Helvetica,sans-Serif" font-size="10.00">boost/assert.hpp</text>
</a>
</g>
</g>
<!-- Node5&#45;&gt;Node6 -->
<g id="edge6_Node000005_Node000006" class="edge">
<title>Node5&#45;&gt;Node6</title>
<g id="a_edge6_Node000005_Node000006"><a xlink:title=" ">
<path fill="none" stroke="#63b8ff" d="M968.41,-138.6C954.02,-130.21 939.04,-118.43 931,-103 924.12,-89.8 923.45,-82.33 931,-69.5 941.33,-51.92 960.04,-39.89 977.98,-31.88"/>
<polygon fill="#63b8ff" stroke="#63b8ff" points="979.05,-35.22 986.98,-28.19 976.4,-28.74 979.05,-35.22"/>
</a>
</g>
</g>
<!-- Node7 -->
<g id="Node000007" class="node">
<title>Node7</title>
<g id="a_Node000007"><a xlink:title=" ">
<polygon fill="#e0e0e0" stroke="#999999" points="1069.62,-96.62 940.38,-96.62 940.38,-75.88 1069.62,-75.88 1069.62,-96.62"/>
<text text-anchor="middle" x="1005" y="-83.12" font-family="Helvetica,sans-Serif" font-size="10.00">boost/static_assert.hpp</text>
</a>
</g>
</g>
<!-- Node5&#45;&gt;Node7 -->
<g id="edge7_Node000005_Node000007" class="edge">
<title>Node5&#45;&gt;Node7</title>
<g id="a_edge7_Node000005_Node000007"><a xlink:title=" ">
<path fill="none" stroke="#63b8ff" d="M1005,-138.75C1005,-129.65 1005,-118.14 1005,-108.32"/>
<polygon fill="#63b8ff" stroke="#63b8ff" points="1008.5,-108.59 1005,-98.59 1001.5,-108.59 1008.5,-108.59"/>
</a>
</g>
</g>
<!-- Node8 -->
<g id="Node000008" class="node">
<title>Node8</title>
<g id="a_Node000008"><a xlink:href="definitions_8hpp.html" target="_top" xlink:title="Definitions of types and some structures.">
<polygon fill="white" stroke="#666666" points="674.62,-103 545.38,-103 545.38,-69.5 674.62,-69.5 674.62,-103"/>
<text text-anchor="start" x="553.38" y="-89.5" font-family="Helvetica,sans-Serif" font-size="10.00">state&#45;observation/tools</text>
<text text-anchor="middle" x="610" y="-76.75" font-family="Helvetica,sans-Serif" font-size="10.00">/definitions.hpp</text>
</a>
</g>
</g>
<!-- Node5&#45;&gt;Node8 -->
<g id="edge9_Node000005_Node000008" class="edge">
<title>Node5&#45;&gt;Node8</title>
<g id="a_edge9_Node000005_Node000008"><a xlink:title=" ">
<path fill="none" stroke="#63b8ff" d="M930.7,-142.05C860.81,-130.11 756.63,-112.31 686.14,-100.26"/>
<polygon fill="#63b8ff" stroke="#63b8ff" points="687.06,-96.87 676.62,-98.63 685.88,-103.77 687.06,-96.87"/>
</a>
</g>
</g>
<!-- Node8&#45;&gt;Node2 -->
<g id="edge19_Node000008_Node000002" class="edge">
<title>Node8&#45;&gt;Node2</title>
<g id="a_edge19_Node000008_Node000002"><a xlink:title=" ">
<path fill="none" stroke="#63b8ff" d="M674.8,-80.28C766.03,-72.8 937.36,-56.97 1082,-33.5 1088.48,-32.45 1095.25,-31.2 1101.94,-29.87"/>
<polygon fill="#63b8ff" stroke="#63b8ff" points="1102.49,-33.33 1111.58,-27.88 1101.08,-26.47 1102.49,-33.33"/>
</a>
</g>
</g>
<!-- Node8&#45;&gt;Node4 -->
<g id="edge11_Node000008_Node000004" class="edge">
<title>Node8&#45;&gt;Node4</title>
<g id="a_edge11_Node000008_Node000004"><a xlink:title=" ">
<path fill="none" stroke="#63b8ff" d="M544.98,-82.15C418.89,-75.66 145.57,-59.07 55,-33.5 53.44,-33.06 51.86,-32.54 50.28,-31.97"/>
<polygon fill="#63b8ff" stroke="#63b8ff" points="52.11,-28.95 41.54,-28.21 49.34,-35.38 52.11,-28.95"/>
</a>
</g>
</g>
<!-- Node8&#45;&gt;Node6 -->
<g id="edge14_Node000008_Node000006" class="edge">
<title>Node8&#45;&gt;Node6</title>
<g id="a_edge14_Node000008_Node000006"><a xlink:title=" ">
<path fill="none" stroke="#63b8ff" d="M674.92,-78.32C746.8,-70.08 865.87,-54.71 967,-33.5 971.29,-32.6 975.73,-31.56 980.15,-30.46"/>
<polygon fill="#63b8ff" stroke="#63b8ff" points="980.76,-33.92 989.55,-28 978.99,-27.15 980.76,-33.92"/>
</a>
</g>
</g>
<!-- Node9 -->
<g id="Node000009" class="node">
<title>Node9</title>
<g id="a_Node000009"><a xlink:title=" ">
<polygon fill="#e0e0e0" stroke="#999999" points="957.5,-27.12 908.5,-27.12 908.5,-6.38 957.5,-6.38 957.5,-27.12"/>
<text text-anchor="middle" x="933" y="-13.62" font-family="Helvetica,sans-Serif" font-size="10.00">chrono</text>
</a>
</g>
</g>
<!-- Node8&#45;&gt;Node9 -->
<g id="edge10_Node000008_Node000009" class="edge">
<title>Node8&#45;&gt;Node9</title>
<g id="a_edge10_Node000008_Node000009"><a xlink:title=" ">
<path fill="none" stroke="#63b8ff" d="M674.85,-78.73C734.43,-71.56 824.65,-57.71 900,-33.5 901.55,-33 903.12,-32.45 904.69,-31.85"/>
<polygon fill="#63b8ff" stroke="#63b8ff" points="905.66,-35.24 913.47,-28.08 902.9,-28.81 905.66,-35.24"/>
</a>
</g>
</g>
<!-- Node10 -->
<g id="Node000010" class="node">
<title>Node10</title>
<g id="a_Node000010"><a xlink:title=" ">
<polygon fill="#e0e0e0" stroke="#999999" points="128,-27.12 64,-27.12 64,-6.38 128,-6.38 128,-27.12"/>
<text text-anchor="middle" x="96" y="-13.62" font-family="Helvetica,sans-Serif" font-size="10.00">stdexcept</text>
</a>
</g>
</g>
<!-- Node8&#45;&gt;Node10 -->
<g id="edge12_Node000008_Node000010" class="edge">
<title>Node8&#45;&gt;Node10</title>
<g id="a_edge12_Node000008_Node000010"><a xlink:title=" ">
<path fill="none" stroke="#63b8ff" d="M545.21,-83.43C453.24,-79.66 280.1,-68.2 137,-33.5 134.37,-32.86 131.69,-32.1 129.01,-31.26"/>
<polygon fill="#63b8ff" stroke="#63b8ff" points="130.25,-27.98 119.65,-27.98 127.93,-34.59 130.25,-27.98"/>
</a>
</g>
</g>
<!-- Node11 -->
<g id="Node000011" class="node">
<title>Node11</title>
<g id="a_Node000011"><a xlink:title=" ">
<polygon fill="#e0e0e0" stroke="#999999" points="192.38,-27.12 145.62,-27.12 145.62,-6.38 192.38,-6.38 192.38,-27.12"/>
<text text-anchor="middle" x="169" y="-13.62" font-family="Helvetica,sans-Serif" font-size="10.00">vector</text>
</a>
</g>
</g>
<!-- Node8&#45;&gt;Node11 -->
<g id="edge13_Node000008_Node000011" class="edge">
<title>Node8&#45;&gt;Node11</title>
<g id="a_edge13_Node000008_Node000011"><a xlink:title=" ">
<path fill="none" stroke="#63b8ff" d="M544.88,-83.62C463.01,-80.09 318.91,-68.89 201,-33.5 199.44,-33.03 197.87,-32.5 196.3,-31.91"/>
<polygon fill="#63b8ff" stroke="#63b8ff" points="198.13,-28.89 187.57,-28.1 195.34,-35.31 198.13,-28.89"/>
</a>
</g>
</g>
<!-- Node12 -->
<g id="Node000012" class="node">
<title>Node12</title>
<g id="a_Node000012"><a xlink:title=" ">
<polygon fill="#e0e0e0" stroke="#999999" points="331.88,-27.12 210.12,-27.12 210.12,-6.38 331.88,-6.38 331.88,-27.12"/>
<text text-anchor="middle" x="271" y="-13.62" font-family="Helvetica,sans-Serif" font-size="10.00">boost/timer/timer.hpp</text>
</a>
</g>
</g>
<!-- Node8&#45;&gt;Node12 -->
<g id="edge15_Node000008_Node000012" class="edge">
<title>Node8&#45;&gt;Node12</title>
<g id="a_edge15_Node000008_Node000012"><a xlink:title=" ">
<path fill="none" stroke="#63b8ff" d="M544.93,-73.32C490.38,-63.18 410.48,-48 341,-33.5 335.79,-32.41 330.36,-31.25 324.94,-30.06"/>
<polygon fill="#63b8ff" stroke="#63b8ff" points="325.89,-26.69 315.37,-27.95 324.38,-33.53 325.89,-26.69"/>
</a>
</g>
</g>
<!-- Node13 -->
<g id="Node000013" class="node">
<title>Node13</title>
<g id="a_Node000013"><a xlink:title=" ">
<polygon fill="#e0e0e0" stroke="#999999" points="418.25,-27.12 349.75,-27.12 349.75,-6.38 418.25,-6.38 418.25,-27.12"/>
<text text-anchor="middle" x="384" y="-13.62" font-family="Helvetica,sans-Serif" font-size="10.00">Eigen/Core</text>
</a>
</g>
</g>
<!-- Node8&#45;&gt;Node13 -->
<g id="edge16_Node000008_Node000013" class="edge">
<title>Node8&#45;&gt;Node13</title>
<g id="a_edge16_Node000008_Node000013"><a xlink:title=" ">
<path fill="none" stroke="#63b8ff" d="M549.03,-69.01C513.54,-59.28 468.04,-46.34 428,-33.5 425.77,-32.78 423.48,-32.03 421.17,-31.25"/>
<polygon fill="#63b8ff" stroke="#63b8ff" points="422.45,-27.99 411.86,-28.03 420.16,-34.61 422.45,-27.99"/>
</a>
</g>
</g>
<!-- Node14 -->
<g id="Node000014" class="node">
<title>Node14</title>
<g id="a_Node000014"><a xlink:title=" ">
<polygon fill="#e0e0e0" stroke="#999999" points="531.38,-27.12 436.62,-27.12 436.62,-6.38 531.38,-6.38 531.38,-27.12"/>
<text text-anchor="middle" x="484" y="-13.62" font-family="Helvetica,sans-Serif" font-size="10.00">Eigen/Geometry</text>
</a>
</g>
</g>
<!-- Node8&#45;&gt;Node14 -->
<g id="edge17_Node000008_Node000014" class="edge">
<title>Node8&#45;&gt;Node14</title>
<g id="a_edge17_Node000008_Node000014"><a xlink:title=" ">
<path fill="none" stroke="#63b8ff" d="M579.82,-69.08C559.33,-58.11 532.42,-43.69 512.33,-32.93"/>
<polygon fill="#63b8ff" stroke="#63b8ff" points="514.04,-29.87 503.57,-28.24 510.74,-36.04 514.04,-29.87"/>
</a>
</g>
</g>
<!-- Node15 -->
<g id="Node000015" class="node">
<title>Node15</title>
<g id="a_Node000015"><a xlink:title=" ">
<polygon fill="#e0e0e0" stroke="#999999" points="670.88,-33.5 549.12,-33.5 549.12,0 670.88,0 670.88,-33.5"/>
<text text-anchor="start" x="557.12" y="-20" font-family="Helvetica,sans-Serif" font-size="10.00">boost/math/constants</text>
<text text-anchor="middle" x="610" y="-7.25" font-family="Helvetica,sans-Serif" font-size="10.00">/constants.hpp</text>
</a>
</g>
</g>
<!-- Node8&#45;&gt;Node15 -->
<g id="edge18_Node000008_Node000015" class="edge">
<title>Node8&#45;&gt;Node15</title>
<g id="a_edge18_Node000008_Node000015"><a xlink:title=" ">
<path fill="none" stroke="#63b8ff" d="M610,-69.25C610,-62.02 610,-53.28 610,-45.06"/>
<polygon fill="#63b8ff" stroke="#63b8ff" points="613.5,-45.15 610,-35.15 606.5,-45.15 613.5,-45.15"/>
</a>
</g>
</g>
<!-- Node16 -->
<g id="Node000016" class="node">
<title>Node16</title>
<g id="a_Node000016"><a xlink:title=" ">
<polygon fill="#e0e0e0" stroke="#999999" points="743.12,-27.12 688.88,-27.12 688.88,-6.38 743.12,-6.38 743.12,-27.12"/>
<text text-anchor="middle" x="716" y="-13.62" font-family="Helvetica,sans-Serif" font-size="10.00">fstream</text>
</a>
</g>
</g>
<!-- Node8&#45;&gt;Node16 -->
<g id="edge20_Node000008_Node000016" class="edge">
<title>Node8&#45;&gt;Node16</title>
<g id="a_edge20_Node000008_Node000016"><a xlink:title=" ">
<path fill="none" stroke="#63b8ff" d="M635.39,-69.08C652.23,-58.36 674.23,-44.35 690.99,-33.68"/>
<polygon fill="#63b8ff" stroke="#63b8ff" points="692.82,-36.66 699.38,-28.33 689.06,-30.75 692.82,-36.66"/>
</a>
</g>
</g>
<!-- Node17 -->
<g id="Node000017" class="node">
<title>Node17</title>
<g id="a_Node000017"><a xlink:title=" ">
<polygon fill="#e0e0e0" stroke="#999999" points="890.62,-33.5 761.38,-33.5 761.38,0 890.62,0 890.62,-33.5"/>
<text text-anchor="start" x="769.38" y="-20" font-family="Helvetica,sans-Serif" font-size="10.00">state&#45;observation/tools</text>
<text text-anchor="middle" x="826" y="-7.25" font-family="Helvetica,sans-Serif" font-size="10.00">/definitions.hxx</text>
</a>
</g>
</g>
<!-- Node8&#45;&gt;Node17 -->
<g id="edge21_Node000008_Node000017" class="edge">
<title>Node8&#45;&gt;Node17</title>
<g id="a_edge21_Node000008_Node000017"><a xlink:title=" ">
<path fill="none" stroke="#63b8ff" d="M661.74,-69.08C692.35,-59.52 731.33,-47.33 763.63,-37.24"/>
<polygon fill="#63b8ff" stroke="#63b8ff" points="764.37,-40.68 772.87,-34.35 762.28,-34 764.37,-40.68"/>
</a>
</g>
</g>
</g>
</svg>
