<?xml version="1.0" encoding="UTF-8" standalone="no"?>
<!DOCTYPE svg PUBLIC "-//W3C//DTD SVG 1.1//EN"
 "http://www.w3.org/Graphics/SVG/1.1/DTD/svg11.dtd">
<!-- Generated by graphviz version 12.2.1 (0)
 -->
<!-- Title: /build/source/include/state&#45;observation/dynamics&#45;estimators/unidim&#45;lipm&#45;dcm&#45;estimator.hpp Pages: 1 -->
<svg width="1273pt" height="484pt"
 viewBox="0.00 0.00 1272.50 484.00" xmlns="http://www.w3.org/2000/svg" xmlns:xlink="http://www.w3.org/1999/xlink">
<g id="graph0" class="graph" transform="scale(1 1) rotate(0) translate(4 480)">
<title>/build/source/include/state&#45;observation/dynamics&#45;estimators/unidim&#45;lipm&#45;dcm&#45;estimator.hpp</title>
<!-- Node1 -->
<g id="Node000001" class="node">
<title>Node1</title>
<g id="a_Node000001"><a xlink:title=" ">
<polygon fill="#999999" stroke="#666666" points="221.62,-476 62.38,-476 62.38,-417 221.62,-417 221.62,-476"/>
<text text-anchor="start" x="70.38" y="-462.5" font-family="Helvetica,sans-Serif" font-size="10.00">/build/source/include</text>
<text text-anchor="start" x="70.38" y="-449.75" font-family="Helvetica,sans-Serif" font-size="10.00">/state&#45;observation/dynamics</text>
<text text-anchor="start" x="70.38" y="-437" font-family="Helvetica,sans-Serif" font-size="10.00">&#45;estimators/unidim&#45;lipm&#45;dcm</text>
<text text-anchor="middle" x="142" y="-424.25" font-family="Helvetica,sans-Serif" font-size="10.00">&#45;estimator.hpp</text>
</a>
</g>
</g>
<!-- Node2 -->
<g id="Node000002" class="node">
<title>Node2</title>
<g id="a_Node000002"><a xlink:title=" ">
<polygon fill="#e0e0e0" stroke="#999999" points="173.62,-27.12 44.38,-27.12 44.38,-6.38 173.62,-6.38 173.62,-27.12"/>
<text text-anchor="middle" x="109" y="-13.62" font-family="Helvetica,sans-Serif" font-size="10.00">state&#45;observation/api.h</text>
</a>
</g>
</g>
<!-- Node1&#45;&gt;Node2 -->
<g id="edge1_Node000001_Node000002" class="edge">
<title>Node1&#45;&gt;Node2</title>
<g id="a_edge1_Node000001_Node000002"><a xlink:title=" ">
<path fill="none" stroke="#63b8ff" d="M87.91,-416.6C47.78,-390.82 0,-348.96 0,-295.75 0,-295.75 0,-295.75 0,-154.75 0,-101.31 51.41,-56.66 83.62,-33.93"/>
<polygon fill="#63b8ff" stroke="#63b8ff" points="85.37,-36.96 91.67,-28.44 81.43,-31.18 85.37,-36.96"/>
</a>
</g>
</g>
<!-- Node3 -->
<g id="Node000003" class="node">
<title>Node3</title>
<g id="a_Node000003"><a xlink:href="linear-kalman-filter_8hpp.html" target="_top" xlink:title="Defines the class of a Linear Kalman filter.">
<polygon fill="white" stroke="#666666" points="216,-381 68,-381 68,-347.5 216,-347.5 216,-381"/>
<text text-anchor="start" x="76" y="-367.5" font-family="Helvetica,sans-Serif" font-size="10.00">state&#45;observation/observer</text>
<text text-anchor="middle" x="142" y="-354.75" font-family="Helvetica,sans-Serif" font-size="10.00">/linear&#45;kalman&#45;filter.hpp</text>
</a>
</g>
</g>
<!-- Node1&#45;&gt;Node3 -->
<g id="edge2_Node000001_Node000003" class="edge">
<title>Node1&#45;&gt;Node3</title>
<g id="a_edge2_Node000001_Node000003"><a xlink:title=" ">
<path fill="none" stroke="#63b8ff" d="M142,-416.53C142,-408.75 142,-400.36 142,-392.67"/>
<polygon fill="#63b8ff" stroke="#63b8ff" points="145.5,-392.86 142,-382.86 138.5,-392.86 145.5,-392.86"/>
</a>
</g>
</g>
<!-- Node21 -->
<g id="Node000021" class="node">
<title>Node21</title>
<g id="a_Node000021"><a xlink:href="miscellaneous-algorithms_8hpp.html" target="_top" xlink:title="Gathers many kinds of algorithms.">
<polygon fill="white" stroke="#666666" points="728.38,-172.5 561.62,-172.5 561.62,-139 728.38,-139 728.38,-172.5"/>
<text text-anchor="start" x="569.62" y="-159" font-family="Helvetica,sans-Serif" font-size="10.00">state&#45;observation/tools</text>
<text text-anchor="middle" x="645" y="-146.25" font-family="Helvetica,sans-Serif" font-size="10.00">/miscellaneous&#45;algorithms.hpp</text>
</a>
</g>
</g>
<!-- Node1&#45;&gt;Node21 -->
<g id="edge29_Node000001_Node000021" class="edge">
<title>Node1&#45;&gt;Node21</title>
<g id="a_edge29_Node000001_Node000021"><a xlink:title=" ">
<path fill="none" stroke="#63b8ff" d="M192.07,-416.76C292.68,-359 517.42,-229.99 607.04,-178.54"/>
<polygon fill="#63b8ff" stroke="#63b8ff" points="608.54,-181.71 615.47,-173.7 605.06,-175.64 608.54,-181.71"/>
</a>
</g>
</g>
<!-- Node3&#45;&gt;Node2 -->
<g id="edge3_Node000003_Node000002" class="edge">
<title>Node3&#45;&gt;Node2</title>
<g id="a_edge3_Node000003_Node000002"><a xlink:title=" ">
<path fill="none" stroke="#63b8ff" d="M111.78,-347.15C97.48,-338.25 81.13,-326.05 70,-311.5 45.4,-279.36 38,-266.72 38,-226.25 38,-226.25 38,-226.25 38,-154.75 38,-107.72 71.39,-60.76 92.38,-35.89"/>
<polygon fill="#63b8ff" stroke="#63b8ff" points="94.78,-38.47 98.72,-28.63 89.51,-33.86 94.78,-38.47"/>
</a>
</g>
</g>
<!-- Node4 -->
<g id="Node000004" class="node">
<title>Node4</title>
<g id="a_Node000004"><a xlink:href="kalman-filter-base_8hpp.html" target="_top" xlink:title="Defines the base class of a Kalman filter.">
<polygon fill="white" stroke="#666666" points="227,-311.5 79,-311.5 79,-278 227,-278 227,-311.5"/>
<text text-anchor="start" x="87" y="-298" font-family="Helvetica,sans-Serif" font-size="10.00">state&#45;observation/observer</text>
<text text-anchor="middle" x="153" y="-285.25" font-family="Helvetica,sans-Serif" font-size="10.00">/kalman&#45;filter&#45;base.hpp</text>
</a>
</g>
</g>
<!-- Node3&#45;&gt;Node4 -->
<g id="edge4_Node000003_Node000004" class="edge">
<title>Node3&#45;&gt;Node4</title>
<g id="a_edge4_Node000003_Node000004"><a xlink:title=" ">
<path fill="none" stroke="#63b8ff" d="M144.61,-347.25C145.8,-339.94 147.24,-331.07 148.6,-322.77"/>
<polygon fill="#63b8ff" stroke="#63b8ff" points="152.01,-323.56 150.17,-313.13 145.11,-322.43 152.01,-323.56"/>
</a>
</g>
</g>
<!-- Node4&#45;&gt;Node2 -->
<g id="edge5_Node000004_Node000002" class="edge">
<title>Node4&#45;&gt;Node2</title>
<g id="a_edge5_Node000004_Node000002"><a xlink:title=" ">
<path fill="none" stroke="#63b8ff" d="M142.45,-277.74C128.37,-255.32 104.14,-212.78 95,-172.5 84.29,-125.31 95.46,-68.28 103.11,-38.36"/>
<polygon fill="#63b8ff" stroke="#63b8ff" points="106.47,-39.33 105.7,-28.77 99.72,-37.51 106.47,-39.33"/>
</a>
</g>
</g>
<!-- Node5 -->
<g id="Node000005" class="node">
<title>Node5</title>
<g id="a_Node000005"><a xlink:href="zero-delay-observer_8hpp.html" target="_top" xlink:title="Defines the base class of online zero delay observers. Zero delay observers are the classical state o...">
<polygon fill="white" stroke="#666666" points="383,-242 235,-242 235,-208.5 383,-208.5 383,-242"/>
<text text-anchor="start" x="243" y="-228.5" font-family="Helvetica,sans-Serif" font-size="10.00">state&#45;observation/observer</text>
<text text-anchor="middle" x="309" y="-215.75" font-family="Helvetica,sans-Serif" font-size="10.00">/zero&#45;delay&#45;observer.hpp</text>
</a>
</g>
</g>
<!-- Node4&#45;&gt;Node5 -->
<g id="edge6_Node000004_Node000005" class="edge">
<title>Node4&#45;&gt;Node5</title>
<g id="a_edge6_Node000004_Node000005"><a xlink:title=" ">
<path fill="none" stroke="#63b8ff" d="M190.37,-277.58C211.61,-268.39 238.43,-256.78 261.2,-246.93"/>
<polygon fill="#63b8ff" stroke="#63b8ff" points="262.49,-250.19 270.28,-243 259.71,-243.76 262.49,-250.19"/>
</a>
</g>
</g>
<!-- Node20 -->
<g id="Node000020" class="node">
<title>Node20</title>
<g id="a_Node000020"><a xlink:href="state-vector-arithmetics_8hpp_source.html" target="_top" xlink:title=" ">
<polygon fill="white" stroke="#666666" points="261.88,-172.5 104.12,-172.5 104.12,-139 261.88,-139 261.88,-172.5"/>
<text text-anchor="start" x="112.12" y="-159" font-family="Helvetica,sans-Serif" font-size="10.00">state&#45;observation/tools</text>
<text text-anchor="middle" x="183" y="-146.25" font-family="Helvetica,sans-Serif" font-size="10.00">/state&#45;vector&#45;arithmetics.hpp</text>
</a>
</g>
</g>
<!-- Node4&#45;&gt;Node20 -->
<g id="edge26_Node000004_Node000020" class="edge">
<title>Node4&#45;&gt;Node20</title>
<g id="a_edge26_Node000004_Node000020"><a xlink:title=" ">
<path fill="none" stroke="#63b8ff" d="M156.5,-277.77C161.56,-254.67 170.98,-211.66 177.11,-183.63"/>
<polygon fill="#63b8ff" stroke="#63b8ff" points="180.48,-184.63 179.2,-174.11 173.64,-183.13 180.48,-184.63"/>
</a>
</g>
</g>
<!-- Node5&#45;&gt;Node2 -->
<g id="edge8_Node000005_Node000002" class="edge">
<title>Node5&#45;&gt;Node2</title>
<g id="a_edge8_Node000005_Node000002"><a xlink:title=" ">
<path fill="none" stroke="#63b8ff" d="M304.54,-208.17C298.91,-189.98 287.88,-160.15 271,-139 233.19,-91.65 172.8,-53.07 137.41,-32.93"/>
<polygon fill="#63b8ff" stroke="#63b8ff" points="139.47,-30.07 129.03,-28.25 136.05,-36.18 139.47,-30.07"/>
</a>
</g>
</g>
<!-- Node6 -->
<g id="Node000006" class="node">
<title>Node6</title>
<g id="a_Node000006"><a xlink:title=" ">
<polygon fill="#e0e0e0" stroke="#999999" points="238,-27.12 192,-27.12 192,-6.38 238,-6.38 238,-27.12"/>
<text text-anchor="middle" x="215" y="-13.62" font-family="Helvetica,sans-Serif" font-size="10.00">deque</text>
</a>
</g>
</g>
<!-- Node5&#45;&gt;Node6 -->
<g id="edge7_Node000005_Node000006" class="edge">
<title>Node5&#45;&gt;Node6</title>
<g id="a_edge7_Node000005_Node000006"><a xlink:title=" ">
<path fill="none" stroke="#63b8ff" d="M313.18,-208.38C320.04,-178.7 330.46,-113.81 304,-69.5 300.45,-63.56 268.62,-45.86 244.03,-32.81"/>
<polygon fill="#63b8ff" stroke="#63b8ff" points="245.86,-29.82 235.38,-28.26 242.59,-36.01 245.86,-29.82"/>
</a>
</g>
</g>
<!-- Node7 -->
<g id="Node000007" class="node">
<title>Node7</title>
<g id="a_Node000007"><a xlink:href="observer-base_8hpp.html" target="_top" xlink:title="Defines the base class of a state observer. The observer is destinated to any dynamical system with a...">
<polygon fill="white" stroke="#666666" points="533,-172.5 385,-172.5 385,-139 533,-139 533,-172.5"/>
<text text-anchor="start" x="393" y="-159" font-family="Helvetica,sans-Serif" font-size="10.00">state&#45;observation/observer</text>
<text text-anchor="middle" x="459" y="-146.25" font-family="Helvetica,sans-Serif" font-size="10.00">/observer&#45;base.hpp</text>
</a>
</g>
</g>
<!-- Node5&#45;&gt;Node7 -->
<g id="edge9_Node000005_Node000007" class="edge">
<title>Node5&#45;&gt;Node7</title>
<g id="a_edge9_Node000005_Node000007"><a xlink:title=" ">
<path fill="none" stroke="#63b8ff" d="M344.93,-208.08C365.26,-198.93 390.91,-187.39 412.74,-177.57"/>
<polygon fill="#63b8ff" stroke="#63b8ff" points="414.04,-180.82 421.72,-173.52 411.17,-174.44 414.04,-180.82"/>
</a>
</g>
</g>
<!-- Node7&#45;&gt;Node2 -->
<g id="edge12_Node000007_Node000002" class="edge">
<title>Node7&#45;&gt;Node2</title>
<g id="a_edge12_Node000007_Node000002"><a xlink:title=" ">
<path fill="none" stroke="#63b8ff" d="M434.16,-138.59C404.3,-119.77 352.18,-88.81 304,-69.5 278.36,-59.23 210.3,-41.97 161.82,-30.23"/>
<polygon fill="#63b8ff" stroke="#63b8ff" points="162.89,-26.89 152.35,-27.95 161.25,-33.7 162.89,-26.89"/>
</a>
</g>
</g>
<!-- Node8 -->
<g id="Node000008" class="node">
<title>Node8</title>
<g id="a_Node000008"><a xlink:title=" ">
<polygon fill="#e0e0e0" stroke="#999999" points="1264.5,-27.12 1167.5,-27.12 1167.5,-6.38 1264.5,-6.38 1264.5,-27.12"/>
<text text-anchor="middle" x="1216" y="-13.62" font-family="Helvetica,sans-Serif" font-size="10.00">boost/assert.hpp</text>
</a>
</g>
</g>
<!-- Node7&#45;&gt;Node8 -->
<g id="edge10_Node000007_Node000008" class="edge">
<title>Node7&#45;&gt;Node8</title>
<g id="a_edge10_Node000007_Node000008"><a xlink:title=" ">
<path fill="none" stroke="#63b8ff" d="M533.31,-142C604.15,-129.51 702.42,-111.2 719,-103 739.18,-93.01 736.32,-78.39 757,-69.5 921.39,1.18 981.87,-65.07 1158,-33.5 1162.87,-32.63 1167.92,-31.54 1172.93,-30.34"/>
<polygon fill="#63b8ff" stroke="#63b8ff" points="1173.42,-33.83 1182.25,-27.97 1171.69,-27.04 1173.42,-33.83"/>
</a>
</g>
</g>
<!-- Node9 -->
<g id="Node000009" class="node">
<title>Node9</title>
<g id="a_Node000009"><a xlink:title=" ">
<polygon fill="#e0e0e0" stroke="#999999" points="523.62,-96.62 394.38,-96.62 394.38,-75.88 523.62,-75.88 523.62,-96.62"/>
<text text-anchor="middle" x="459" y="-83.12" font-family="Helvetica,sans-Serif" font-size="10.00">boost/static_assert.hpp</text>
</a>
</g>
</g>
<!-- Node7&#45;&gt;Node9 -->
<g id="edge11_Node000007_Node000009" class="edge">
<title>Node7&#45;&gt;Node9</title>
<g id="a_edge11_Node000007_Node000009"><a xlink:title=" ">
<path fill="none" stroke="#63b8ff" d="M459,-138.75C459,-129.65 459,-118.14 459,-108.32"/>
<polygon fill="#63b8ff" stroke="#63b8ff" points="462.5,-108.59 459,-98.59 455.5,-108.59 462.5,-108.59"/>
</a>
</g>
</g>
<!-- Node10 -->
<g id="Node000010" class="node">
<title>Node10</title>
<g id="a_Node000010"><a xlink:href="definitions_8hpp.html" target="_top" xlink:title="Definitions of types and some structures.">
<polygon fill="white" stroke="#666666" points="709.62,-103 580.38,-103 580.38,-69.5 709.62,-69.5 709.62,-103"/>
<text text-anchor="start" x="588.38" y="-89.5" font-family="Helvetica,sans-Serif" font-size="10.00">state&#45;observation/tools</text>
<text text-anchor="middle" x="645" y="-76.75" font-family="Helvetica,sans-Serif" font-size="10.00">/definitions.hpp</text>
</a>
</g>
</g>
<!-- Node7&#45;&gt;Node10 -->
<g id="edge13_Node000007_Node000010" class="edge">
<title>Node7&#45;&gt;Node10</title>
<g id="a_edge13_Node000007_Node000010"><a xlink:title=" ">
<path fill="none" stroke="#63b8ff" d="M503.55,-138.58C529.45,-129.18 562.31,-117.26 589.84,-107.27"/>
<polygon fill="#63b8ff" stroke="#63b8ff" points="590.86,-110.62 599.07,-103.92 588.47,-104.04 590.86,-110.62"/>
</a>
</g>
</g>
<!-- Node10&#45;&gt;Node2 -->
<g id="edge23_Node000010_Node000002" class="edge">
<title>Node10&#45;&gt;Node2</title>
<g id="a_edge23_Node000010_Node000002"><a xlink:title=" ">
<path fill="none" stroke="#63b8ff" d="M580,-71.74C575.27,-70.93 570.57,-70.17 566,-69.5 396.83,-44.75 352.01,-59.34 183,-33.5 176.26,-32.47 169.22,-31.21 162.27,-29.86"/>
<polygon fill="#63b8ff" stroke="#63b8ff" points="163.09,-26.45 152.59,-27.9 161.7,-33.31 163.09,-26.45"/>
</a>
</g>
</g>
<!-- Node10&#45;&gt;Node6 -->
<g id="edge15_Node000010_Node000006" class="edge">
<title>Node10&#45;&gt;Node6</title>
<g id="a_edge15_Node000010_Node000006"><a xlink:title=" ">
<path fill="none" stroke="#63b8ff" d="M579.98,-71.84C575.26,-71 570.56,-70.21 566,-69.5 425.02,-47.53 383.93,-73.6 247,-33.5 245.44,-33.04 243.86,-32.51 242.29,-31.93"/>
<polygon fill="#63b8ff" stroke="#63b8ff" points="244.12,-28.91 233.55,-28.15 241.34,-35.34 244.12,-28.91"/>
</a>
</g>
</g>
<!-- Node10&#45;&gt;Node8 -->
<g id="edge18_Node000010_Node000008" class="edge">
<title>Node10&#45;&gt;Node8</title>
<g id="a_edge18_Node000010_Node000008"><a xlink:title=" ">
<path fill="none" stroke="#63b8ff" d="M710,-71.68C714.73,-70.88 719.43,-70.14 724,-69.5 915.66,-42.53 967.37,-67 1158,-33.5 1162.93,-32.63 1168.05,-31.54 1173.12,-30.33"/>
<polygon fill="#63b8ff" stroke="#63b8ff" points="1173.73,-33.79 1182.56,-27.93 1172,-27 1173.73,-33.79"/>
</a>
</g>
</g>
<!-- Node11 -->
<g id="Node000011" class="node">
<title>Node11</title>
<g id="a_Node000011"><a xlink:title=" ">
<polygon fill="#e0e0e0" stroke="#999999" points="776.5,-27.12 727.5,-27.12 727.5,-6.38 776.5,-6.38 776.5,-27.12"/>
<text text-anchor="middle" x="752" y="-13.62" font-family="Helvetica,sans-Serif" font-size="10.00">chrono</text>
</a>
</g>
</g>
<!-- Node10&#45;&gt;Node11 -->
<g id="edge14_Node000010_Node000011" class="edge">
<title>Node10&#45;&gt;Node11</title>
<g id="a_edge14_Node000010_Node000011"><a xlink:title=" ">
<path fill="none" stroke="#63b8ff" d="M670.63,-69.08C687.79,-58.26 710.25,-44.09 727.23,-33.38"/>
<polygon fill="#63b8ff" stroke="#63b8ff" points="728.64,-36.62 735.23,-28.33 724.91,-30.7 728.64,-36.62"/>
</a>
</g>
</g>
<!-- Node12 -->
<g id="Node000012" class="node">
<title>Node12</title>
<g id="a_Node000012"><a xlink:title=" ">
<polygon fill="#e0e0e0" stroke="#999999" points="859,-27.12 795,-27.12 795,-6.38 859,-6.38 859,-27.12"/>
<text text-anchor="middle" x="827" y="-13.62" font-family="Helvetica,sans-Serif" font-size="10.00">stdexcept</text>
</a>
</g>
</g>
<!-- Node10&#45;&gt;Node12 -->
<g id="edge16_Node000010_Node000012" class="edge">
<title>Node10&#45;&gt;Node12</title>
<g id="a_edge16_Node000010_Node000012"><a xlink:title=" ">
<path fill="none" stroke="#63b8ff" d="M689.52,-69.11C717.3,-58.98 753.78,-45.6 786,-33.5 787.77,-32.84 789.58,-32.15 791.4,-31.46"/>
<polygon fill="#63b8ff" stroke="#63b8ff" points="792.36,-34.84 800.46,-28.01 789.87,-28.3 792.36,-34.84"/>
</a>
</g>
</g>
<!-- Node13 -->
<g id="Node000013" class="node">
<title>Node13</title>
<g id="a_Node000013"><a xlink:title=" ">
<polygon fill="#e0e0e0" stroke="#999999" points="923.38,-27.12 876.62,-27.12 876.62,-6.38 923.38,-6.38 923.38,-27.12"/>
<text text-anchor="middle" x="900" y="-13.62" font-family="Helvetica,sans-Serif" font-size="10.00">vector</text>
</a>
</g>
</g>
<!-- Node10&#45;&gt;Node13 -->
<g id="edge17_Node000010_Node000013" class="edge">
<title>Node10&#45;&gt;Node13</title>
<g id="a_edge17_Node000010_Node000013"><a xlink:title=" ">
<path fill="none" stroke="#63b8ff" d="M710.07,-71.88C765.06,-60.26 839.32,-43.73 868,-33.5 869.17,-33.08 870.35,-32.64 871.53,-32.17"/>
<polygon fill="#63b8ff" stroke="#63b8ff" points="872.94,-35.37 880.65,-28.1 870.1,-28.97 872.94,-35.37"/>
</a>
</g>
</g>
<!-- Node14 -->
<g id="Node000014" class="node">
<title>Node14</title>
<g id="a_Node000014"><a xlink:title=" ">
<polygon fill="#e0e0e0" stroke="#999999" points="1062.88,-27.12 941.12,-27.12 941.12,-6.38 1062.88,-6.38 1062.88,-27.12"/>
<text text-anchor="middle" x="1002" y="-13.62" font-family="Helvetica,sans-Serif" font-size="10.00">boost/timer/timer.hpp</text>
</a>
</g>
</g>
<!-- Node10&#45;&gt;Node14 -->
<g id="edge19_Node000010_Node000014" class="edge">
<title>Node10&#45;&gt;Node14</title>
<g id="a_edge19_Node000010_Node000014"><a xlink:title=" ">
<path fill="none" stroke="#63b8ff" d="M710.07,-72.14C714.78,-71.23 719.46,-70.34 724,-69.5 816.23,-52.33 839.98,-51.8 932,-33.5 937.51,-32.4 943.25,-31.21 948.97,-29.97"/>
<polygon fill="#63b8ff" stroke="#63b8ff" points="949.38,-33.47 958.4,-27.91 947.88,-26.63 949.38,-33.47"/>
</a>
</g>
</g>
<!-- Node15 -->
<g id="Node000015" class="node">
<title>Node15</title>
<g id="a_Node000015"><a xlink:title=" ">
<polygon fill="#e0e0e0" stroke="#999999" points="1149.25,-27.12 1080.75,-27.12 1080.75,-6.38 1149.25,-6.38 1149.25,-27.12"/>
<text text-anchor="middle" x="1115" y="-13.62" font-family="Helvetica,sans-Serif" font-size="10.00">Eigen/Core</text>
</a>
</g>
</g>
<!-- Node10&#45;&gt;Node15 -->
<g id="edge20_Node000010_Node000015" class="edge">
<title>Node10&#45;&gt;Node15</title>
<g id="a_edge20_Node000010_Node000015"><a xlink:title=" ">
<path fill="none" stroke="#63b8ff" d="M710.01,-71.79C714.74,-70.96 719.44,-70.19 724,-69.5 877.75,-46.27 920.5,-68.51 1072,-33.5 1074.95,-32.82 1077.97,-31.99 1080.98,-31.08"/>
<polygon fill="#63b8ff" stroke="#63b8ff" points="1081.86,-34.47 1090.23,-27.97 1079.63,-27.84 1081.86,-34.47"/>
</a>
</g>
</g>
<!-- Node16 -->
<g id="Node000016" class="node">
<title>Node16</title>
<g id="a_Node000016"><a xlink:title=" ">
<polygon fill="#e0e0e0" stroke="#999999" points="350.38,-27.12 255.62,-27.12 255.62,-6.38 350.38,-6.38 350.38,-27.12"/>
<text text-anchor="middle" x="303" y="-13.62" font-family="Helvetica,sans-Serif" font-size="10.00">Eigen/Geometry</text>
</a>
</g>
</g>
<!-- Node10&#45;&gt;Node16 -->
<g id="edge21_Node000010_Node000016" class="edge">
<title>Node10&#45;&gt;Node16</title>
<g id="a_edge21_Node000010_Node000016"><a xlink:title=" ">
<path fill="none" stroke="#63b8ff" d="M579.93,-72.14C575.22,-71.24 570.54,-70.35 566,-69.5 474.2,-52.37 450.06,-54.17 359,-33.5 354.97,-32.59 350.8,-31.56 346.63,-30.49"/>
<polygon fill="#63b8ff" stroke="#63b8ff" points="347.75,-27.16 337.19,-27.95 345.94,-33.92 347.75,-27.16"/>
</a>
</g>
</g>
<!-- Node17 -->
<g id="Node000017" class="node">
<title>Node17</title>
<g id="a_Node000017"><a xlink:title=" ">
<polygon fill="#e0e0e0" stroke="#999999" points="489.88,-33.5 368.12,-33.5 368.12,0 489.88,0 489.88,-33.5"/>
<text text-anchor="start" x="376.12" y="-20" font-family="Helvetica,sans-Serif" font-size="10.00">boost/math/constants</text>
<text text-anchor="middle" x="429" y="-7.25" font-family="Helvetica,sans-Serif" font-size="10.00">/constants.hpp</text>
</a>
</g>
</g>
<!-- Node10&#45;&gt;Node17 -->
<g id="edge22_Node000010_Node000017" class="edge">
<title>Node10&#45;&gt;Node17</title>
<g id="a_edge22_Node000010_Node000017"><a xlink:title=" ">
<path fill="none" stroke="#63b8ff" d="M593.26,-69.08C562.65,-59.52 523.67,-47.33 491.37,-37.24"/>
<polygon fill="#63b8ff" stroke="#63b8ff" points="492.72,-34 482.13,-34.35 490.63,-40.68 492.72,-34"/>
</a>
</g>
</g>
<!-- Node18 -->
<g id="Node000018" class="node">
<title>Node18</title>
<g id="a_Node000018"><a xlink:title=" ">
<polygon fill="#e0e0e0" stroke="#999999" points="562.12,-27.12 507.88,-27.12 507.88,-6.38 562.12,-6.38 562.12,-27.12"/>
<text text-anchor="middle" x="535" y="-13.62" font-family="Helvetica,sans-Serif" font-size="10.00">fstream</text>
</a>
</g>
</g>
<!-- Node10&#45;&gt;Node18 -->
<g id="edge24_Node000010_Node000018" class="edge">
<title>Node10&#45;&gt;Node18</title>
<g id="a_edge24_Node000010_Node000018"><a xlink:title=" ">
<path fill="none" stroke="#63b8ff" d="M618.65,-69.08C601.01,-58.26 577.92,-44.09 560.46,-33.38"/>
<polygon fill="#63b8ff" stroke="#63b8ff" points="562.57,-30.56 552.21,-28.31 558.91,-36.53 562.57,-30.56"/>
</a>
</g>
</g>
<!-- Node19 -->
<g id="Node000019" class="node">
<title>Node19</title>
<g id="a_Node000019"><a xlink:title=" ">
<polygon fill="#e0e0e0" stroke="#999999" points="709.62,-33.5 580.38,-33.5 580.38,0 709.62,0 709.62,-33.5"/>
<text text-anchor="start" x="588.38" y="-20" font-family="Helvetica,sans-Serif" font-size="10.00">state&#45;observation/tools</text>
<text text-anchor="middle" x="645" y="-7.25" font-family="Helvetica,sans-Serif" font-size="10.00">/definitions.hxx</text>
</a>
</g>
</g>
<!-- Node10&#45;&gt;Node19 -->
<g id="edge25_Node000010_Node000019" class="edge">
<title>Node10&#45;&gt;Node19</title>
<g id="a_edge25_Node000010_Node000019"><a xlink:title=" ">
<path fill="none" stroke="#63b8ff" d="M645,-69.25C645,-62.02 645,-53.28 645,-45.06"/>
<polygon fill="#63b8ff" stroke="#63b8ff" points="648.5,-45.15 645,-35.15 641.5,-45.15 648.5,-45.15"/>
</a>
</g>
</g>
<!-- Node20&#45;&gt;Node2 -->
<g id="edge27_Node000020_Node000002" class="edge">
<title>Node20&#45;&gt;Node2</title>
<g id="a_edge27_Node000020_Node000002"><a xlink:title=" ">
<path fill="none" stroke="#63b8ff" d="M174.37,-138.77C160.76,-113.58 134.37,-64.72 119.62,-37.42"/>
<polygon fill="#63b8ff" stroke="#63b8ff" points="122.81,-35.95 114.97,-28.81 116.65,-39.27 122.81,-35.95"/>
</a>
</g>
</g>
<!-- Node20&#45;&gt;Node10 -->
<g id="edge28_Node000020_Node000010" class="edge">
<title>Node20&#45;&gt;Node10</title>
<g id="a_edge28_Node000020_Node000010"><a xlink:title=" ">
<path fill="none" stroke="#63b8ff" d="M262.16,-143.18C347.95,-130.65 483.9,-110.79 568.6,-98.41"/>
<polygon fill="#63b8ff" stroke="#63b8ff" points="569.06,-101.88 578.45,-96.97 568.05,-94.96 569.06,-101.88"/>
</a>
</g>
</g>
<!-- Node21&#45;&gt;Node2 -->
<g id="edge32_Node000021_Node000002" class="edge">
<title>Node21&#45;&gt;Node2</title>
<g id="a_edge32_Node000021_Node000002"><a xlink:title=" ">
<path fill="none" stroke="#63b8ff" d="M620.51,-138.64C605.85,-128.75 587.02,-115.6 571,-103 553.3,-89.08 553.63,-78.53 533,-69.5 389.74,-6.81 337.47,-57.81 183,-33.5 176.43,-32.47 169.57,-31.23 162.79,-29.9"/>
<polygon fill="#63b8ff" stroke="#63b8ff" points="163.49,-26.47 152.99,-27.91 162.1,-33.33 163.49,-26.47"/>
</a>
</g>
</g>
<!-- Node21&#45;&gt;Node10 -->
<g id="edge33_Node000021_Node000010" class="edge">
<title>Node21&#45;&gt;Node10</title>
<g id="a_edge33_Node000021_Node000010"><a xlink:title=" ">
<path fill="none" stroke="#63b8ff" d="M645,-138.75C645,-131.52 645,-122.78 645,-114.56"/>
<polygon fill="#63b8ff" stroke="#63b8ff" points="648.5,-114.65 645,-104.65 641.5,-114.65 648.5,-114.65"/>
</a>
</g>
</g>
<!-- Node22 -->
<g id="Node000022" class="node">
<title>Node22</title>
<g id="a_Node000022"><a xlink:title=" ">
<polygon fill="#e0e0e0" stroke="#999999" points="860,-96.62 766,-96.62 766,-75.88 860,-75.88 860,-96.62"/>
<text text-anchor="middle" x="813" y="-83.12" font-family="Helvetica,sans-Serif" font-size="10.00">boost/utility.hpp</text>
</a>
</g>
</g>
<!-- Node21&#45;&gt;Node22 -->
<g id="edge30_Node000021_Node000022" class="edge">
<title>Node21&#45;&gt;Node22</title>
<g id="a_edge30_Node000021_Node000022"><a xlink:title=" ">
<path fill="none" stroke="#63b8ff" d="M685.24,-138.58C713.57,-127.2 751.1,-112.12 778.15,-101.25"/>
<polygon fill="#63b8ff" stroke="#63b8ff" points="779.3,-104.56 787.28,-97.59 776.69,-98.07 779.3,-104.56"/>
</a>
</g>
</g>
<!-- Node23 -->
<g id="Node000023" class="node">
<title>Node23</title>
<g id="a_Node000023"><a xlink:title=" ">
<polygon fill="#e0e0e0" stroke="#999999" points="924.38,-96.62 877.62,-96.62 877.62,-75.88 924.38,-75.88 924.38,-96.62"/>
<text text-anchor="middle" x="901" y="-83.12" font-family="Helvetica,sans-Serif" font-size="10.00">cmath</text>
</a>
</g>
</g>
<!-- Node21&#45;&gt;Node23 -->
<g id="edge31_Node000021_Node000023" class="edge">
<title>Node21&#45;&gt;Node23</title>
<g id="a_edge31_Node000021_Node000023"><a xlink:title=" ">
<path fill="none" stroke="#63b8ff" d="M728.75,-140.17C771.41,-131.55 823.69,-119.14 869,-103 870.17,-102.58 871.35,-102.14 872.53,-101.67"/>
<polygon fill="#63b8ff" stroke="#63b8ff" points="873.94,-104.87 881.66,-97.61 871.1,-98.47 873.94,-104.87"/>
</a>
</g>
</g>
</g>
</svg>
