<?xml version="1.0" encoding="UTF-8" standalone="no"?>
<!DOCTYPE svg PUBLIC "-//W3C//DTD SVG 1.1//EN"
 "http://www.w3.org/Graphics/SVG/1.1/DTD/svg11.dtd">
<!-- Generated by graphviz version 12.2.1 (0)
 -->
<!-- Title: /build/source/include/state&#45;observation/observer/zero&#45;delay&#45;observer.hpp Pages: 1 -->
<svg width="1230pt" height="263pt"
 viewBox="0.00 0.00 1229.62 262.75" xmlns="http://www.w3.org/2000/svg" xmlns:xlink="http://www.w3.org/1999/xlink">
<g id="graph0" class="graph" transform="scale(1 1) rotate(0) translate(4 258.75)">
<title>/build/source/include/state&#45;observation/observer/zero&#45;delay&#45;observer.hpp</title>
<!-- Node1 -->
<g id="Node000001" class="node">
<title>Node1</title>
<g id="a_Node000001"><a xlink:title="Defines the base class of online zero delay observers. Zero delay observers are the classical state o...">
<polygon fill="#999999" stroke="#666666" points="602.5,-254.75 451.5,-254.75 451.5,-208.5 602.5,-208.5 602.5,-254.75"/>
<text text-anchor="start" x="459.5" y="-241.25" font-family="Helvetica,sans-Serif" font-size="10.00">/build/source/include</text>
<text text-anchor="start" x="459.5" y="-228.5" font-family="Helvetica,sans-Serif" font-size="10.00">/state&#45;observation/observer</text>
<text text-anchor="middle" x="527" y="-215.75" font-family="Helvetica,sans-Serif" font-size="10.00">/zero&#45;delay&#45;observer.hpp</text>
</a>
</g>
</g>
<!-- Node2 -->
<g id="Node000002" class="node">
<title>Node2</title>
<g id="a_Node000002"><a xlink:title=" ">
<polygon fill="#e0e0e0" stroke="#999999" points="46,-27.12 0,-27.12 0,-6.38 46,-6.38 46,-27.12"/>
<text text-anchor="middle" x="23" y="-13.62" font-family="Helvetica,sans-Serif" font-size="10.00">deque</text>
</a>
</g>
</g>
<!-- Node1&#45;&gt;Node2 -->
<g id="edge1_Node000001_Node000002" class="edge">
<title>Node1&#45;&gt;Node2</title>
<g id="a_edge1_Node000001_Node000002"><a xlink:title=" ">
<path fill="none" stroke="#63b8ff" d="M469.84,-208.08C380.57,-172.57 202.95,-100.73 55,-33.5 54.24,-33.15 53.47,-32.8 52.69,-32.44"/>
<polygon fill="#63b8ff" stroke="#63b8ff" points="54.44,-29.4 43.91,-28.26 51.43,-35.72 54.44,-29.4"/>
</a>
</g>
</g>
<!-- Node3 -->
<g id="Node000003" class="node">
<title>Node3</title>
<g id="a_Node000003"><a xlink:title=" ">
<polygon fill="#e0e0e0" stroke="#999999" points="1221.62,-27.12 1092.38,-27.12 1092.38,-6.38 1221.62,-6.38 1221.62,-27.12"/>
<text text-anchor="middle" x="1157" y="-13.62" font-family="Helvetica,sans-Serif" font-size="10.00">state&#45;observation/api.h</text>
</a>
</g>
</g>
<!-- Node1&#45;&gt;Node3 -->
<g id="edge2_Node000001_Node000003" class="edge">
<title>Node1&#45;&gt;Node3</title>
<g id="a_edge2_Node000001_Node000003"><a xlink:title=" ">
<path fill="none" stroke="#63b8ff" d="M593.82,-208.05C724.75,-163.81 1011.45,-66.93 1116.98,-31.27"/>
<polygon fill="#63b8ff" stroke="#63b8ff" points="1117.99,-34.63 1126.34,-28.11 1115.75,-27.99 1117.99,-34.63"/>
</a>
</g>
</g>
<!-- Node4 -->
<g id="Node000004" class="node">
<title>Node4</title>
<g id="a_Node000004"><a xlink:href="observer-base_8hpp.html" target="_top" xlink:title="Defines the base class of a state observer. The observer is destinated to any dynamical system with a...">
<polygon fill="white" stroke="#666666" points="601,-172.5 453,-172.5 453,-139 601,-139 601,-172.5"/>
<text text-anchor="start" x="461" y="-159" font-family="Helvetica,sans-Serif" font-size="10.00">state&#45;observation/observer</text>
<text text-anchor="middle" x="527" y="-146.25" font-family="Helvetica,sans-Serif" font-size="10.00">/observer&#45;base.hpp</text>
</a>
</g>
</g>
<!-- Node1&#45;&gt;Node4 -->
<g id="edge3_Node000001_Node000004" class="edge">
<title>Node1&#45;&gt;Node4</title>
<g id="a_edge3_Node000001_Node000004"><a xlink:title=" ">
<path fill="none" stroke="#63b8ff" d="M527,-208.06C527,-200.51 527,-192.01 527,-184.13"/>
<polygon fill="#63b8ff" stroke="#63b8ff" points="530.5,-184.37 527,-174.37 523.5,-184.37 530.5,-184.37"/>
</a>
</g>
</g>
<!-- Node4&#45;&gt;Node3 -->
<g id="edge6_Node000004_Node000003" class="edge">
<title>Node4&#45;&gt;Node3</title>
<g id="a_edge6_Node000004_Node000003"><a xlink:title=" ">
<path fill="none" stroke="#63b8ff" d="M601.43,-138.56C728.92,-110.84 986.34,-54.86 1100.39,-30.06"/>
<polygon fill="#63b8ff" stroke="#63b8ff" points="1101.12,-33.48 1110.15,-27.94 1099.63,-26.64 1101.12,-33.48"/>
</a>
</g>
</g>
<!-- Node5 -->
<g id="Node000005" class="node">
<title>Node5</title>
<g id="a_Node000005"><a xlink:title=" ">
<polygon fill="#e0e0e0" stroke="#999999" points="161.5,-27.12 64.5,-27.12 64.5,-6.38 161.5,-6.38 161.5,-27.12"/>
<text text-anchor="middle" x="113" y="-13.62" font-family="Helvetica,sans-Serif" font-size="10.00">boost/assert.hpp</text>
</a>
</g>
</g>
<!-- Node4&#45;&gt;Node5 -->
<g id="edge4_Node000004_Node000005" class="edge">
<title>Node4&#45;&gt;Node5</title>
<g id="a_edge4_Node000004_Node000005"><a xlink:title=" ">
<path fill="none" stroke="#63b8ff" d="M478.29,-138.63C395.68,-111.29 229.64,-56.35 153.2,-31.05"/>
<polygon fill="#63b8ff" stroke="#63b8ff" points="154.62,-27.84 144.03,-28.02 152.42,-34.48 154.62,-27.84"/>
</a>
</g>
</g>
<!-- Node6 -->
<g id="Node000006" class="node">
<title>Node6</title>
<g id="a_Node000006"><a xlink:title=" ">
<polygon fill="#e0e0e0" stroke="#999999" points="518.62,-96.62 389.38,-96.62 389.38,-75.88 518.62,-75.88 518.62,-96.62"/>
<text text-anchor="middle" x="454" y="-83.12" font-family="Helvetica,sans-Serif" font-size="10.00">boost/static_assert.hpp</text>
</a>
</g>
</g>
<!-- Node4&#45;&gt;Node6 -->
<g id="edge5_Node000004_Node000006" class="edge">
<title>Node4&#45;&gt;Node6</title>
<g id="a_edge5_Node000004_Node000006"><a xlink:title=" ">
<path fill="none" stroke="#63b8ff" d="M509.7,-138.75C498.65,-128.54 484.33,-115.3 472.97,-104.79"/>
<polygon fill="#63b8ff" stroke="#63b8ff" points="475.45,-102.32 465.73,-98.1 470.7,-107.46 475.45,-102.32"/>
</a>
</g>
</g>
<!-- Node7 -->
<g id="Node000007" class="node">
<title>Node7</title>
<g id="a_Node000007"><a xlink:href="definitions_8hpp.html" target="_top" xlink:title="Definitions of types and some structures.">
<polygon fill="white" stroke="#666666" points="665.62,-103 536.38,-103 536.38,-69.5 665.62,-69.5 665.62,-103"/>
<text text-anchor="start" x="544.38" y="-89.5" font-family="Helvetica,sans-Serif" font-size="10.00">state&#45;observation/tools</text>
<text text-anchor="middle" x="601" y="-76.75" font-family="Helvetica,sans-Serif" font-size="10.00">/definitions.hpp</text>
</a>
</g>
</g>
<!-- Node4&#45;&gt;Node7 -->
<g id="edge7_Node000004_Node000007" class="edge">
<title>Node4&#45;&gt;Node7</title>
<g id="a_edge7_Node000004_Node000007"><a xlink:title=" ">
<path fill="none" stroke="#63b8ff" d="M544.54,-138.75C553.59,-130.49 564.83,-120.25 574.88,-111.07"/>
<polygon fill="#63b8ff" stroke="#63b8ff" points="577.18,-113.71 582.21,-104.39 572.47,-108.54 577.18,-113.71"/>
</a>
</g>
</g>
<!-- Node7&#45;&gt;Node2 -->
<g id="edge9_Node000007_Node000002" class="edge">
<title>Node7&#45;&gt;Node2</title>
<g id="a_edge9_Node000007_Node000002"><a xlink:title=" ">
<path fill="none" stroke="#63b8ff" d="M536.2,-70.79C533.44,-70.32 530.69,-69.89 528,-69.5 319.36,-39.2 258.38,-89.06 55,-33.5 53.39,-33.06 51.77,-32.54 50.16,-31.96"/>
<polygon fill="#63b8ff" stroke="#63b8ff" points="51.76,-28.84 41.19,-28.1 48.99,-35.27 51.76,-28.84"/>
</a>
</g>
</g>
<!-- Node7&#45;&gt;Node3 -->
<g id="edge17_Node000007_Node000003" class="edge">
<title>Node7&#45;&gt;Node3</title>
<g id="a_edge17_Node000007_Node000003"><a xlink:title=" ">
<path fill="none" stroke="#63b8ff" d="M665.99,-80.41C758.84,-73 934.65,-57.19 1083,-33.5 1089.56,-32.45 1096.43,-31.2 1103.21,-29.87"/>
<polygon fill="#63b8ff" stroke="#63b8ff" points="1103.9,-33.3 1113,-27.88 1102.51,-26.44 1103.9,-33.3"/>
</a>
</g>
</g>
<!-- Node7&#45;&gt;Node5 -->
<g id="edge12_Node000007_Node000005" class="edge">
<title>Node7&#45;&gt;Node5</title>
<g id="a_edge12_Node000007_Node000005"><a xlink:title=" ">
<path fill="none" stroke="#63b8ff" d="M536.19,-70.87C533.43,-70.39 530.69,-69.92 528,-69.5 370.48,-44.64 327.81,-62.49 171,-33.5 166.33,-32.64 161.48,-31.58 156.67,-30.43"/>
<polygon fill="#63b8ff" stroke="#63b8ff" points="157.63,-27.06 147.07,-27.99 155.9,-33.85 157.63,-27.06"/>
</a>
</g>
</g>
<!-- Node8 -->
<g id="Node000008" class="node">
<title>Node8</title>
<g id="a_Node000008"><a xlink:title=" ">
<polygon fill="#e0e0e0" stroke="#999999" points="787.5,-27.12 738.5,-27.12 738.5,-6.38 787.5,-6.38 787.5,-27.12"/>
<text text-anchor="middle" x="763" y="-13.62" font-family="Helvetica,sans-Serif" font-size="10.00">chrono</text>
</a>
</g>
</g>
<!-- Node7&#45;&gt;Node8 -->
<g id="edge8_Node000007_Node000008" class="edge">
<title>Node7&#45;&gt;Node8</title>
<g id="a_edge8_Node000007_Node000008"><a xlink:title=" ">
<path fill="none" stroke="#63b8ff" d="M643.4,-69.03C668.71,-59.15 701.38,-46.05 730,-33.5 730.92,-33.1 731.84,-32.69 732.78,-32.27"/>
<polygon fill="#63b8ff" stroke="#63b8ff" points="733.86,-35.62 741.48,-28.25 730.93,-29.27 733.86,-35.62"/>
</a>
</g>
</g>
<!-- Node9 -->
<g id="Node000009" class="node">
<title>Node9</title>
<g id="a_Node000009"><a xlink:title=" ">
<polygon fill="#e0e0e0" stroke="#999999" points="870,-27.12 806,-27.12 806,-6.38 870,-6.38 870,-27.12"/>
<text text-anchor="middle" x="838" y="-13.62" font-family="Helvetica,sans-Serif" font-size="10.00">stdexcept</text>
</a>
</g>
</g>
<!-- Node7&#45;&gt;Node9 -->
<g id="edge10_Node000007_Node000009" class="edge">
<title>Node7&#45;&gt;Node9</title>
<g id="a_edge10_Node000007_Node000009"><a xlink:title=" ">
<path fill="none" stroke="#63b8ff" d="M665.95,-69.98C704.37,-60.49 753.8,-47.46 797,-33.5 799.07,-32.83 801.18,-32.12 803.31,-31.38"/>
<polygon fill="#63b8ff" stroke="#63b8ff" points="804.26,-34.75 812.45,-28.04 801.86,-28.18 804.26,-34.75"/>
</a>
</g>
</g>
<!-- Node10 -->
<g id="Node000010" class="node">
<title>Node10</title>
<g id="a_Node000010"><a xlink:title=" ">
<polygon fill="#e0e0e0" stroke="#999999" points="934.38,-27.12 887.62,-27.12 887.62,-6.38 934.38,-6.38 934.38,-27.12"/>
<text text-anchor="middle" x="911" y="-13.62" font-family="Helvetica,sans-Serif" font-size="10.00">vector</text>
</a>
</g>
</g>
<!-- Node7&#45;&gt;Node10 -->
<g id="edge11_Node000007_Node000010" class="edge">
<title>Node7&#45;&gt;Node10</title>
<g id="a_edge11_Node000007_Node000010"><a xlink:title=" ">
<path fill="none" stroke="#63b8ff" d="M666.02,-78.25C723.18,-70.9 808.07,-57.06 879,-33.5 880.36,-33.05 881.73,-32.55 883.1,-32.02"/>
<polygon fill="#63b8ff" stroke="#63b8ff" points="884.3,-35.32 892.04,-28.08 881.48,-28.91 884.3,-35.32"/>
</a>
</g>
</g>
<!-- Node11 -->
<g id="Node000011" class="node">
<title>Node11</title>
<g id="a_Node000011"><a xlink:title=" ">
<polygon fill="#e0e0e0" stroke="#999999" points="1073.88,-27.12 952.12,-27.12 952.12,-6.38 1073.88,-6.38 1073.88,-27.12"/>
<text text-anchor="middle" x="1013" y="-13.62" font-family="Helvetica,sans-Serif" font-size="10.00">boost/timer/timer.hpp</text>
</a>
</g>
</g>
<!-- Node7&#45;&gt;Node11 -->
<g id="edge13_Node000007_Node000011" class="edge">
<title>Node7&#45;&gt;Node11</title>
<g id="a_edge13_Node000007_Node000011"><a xlink:title=" ">
<path fill="none" stroke="#63b8ff" d="M665.84,-76.84C734.8,-67.56 846.95,-51.55 943,-33.5 948.67,-32.43 954.58,-31.24 960.46,-30"/>
<polygon fill="#63b8ff" stroke="#63b8ff" points="961.14,-33.43 970.17,-27.89 959.65,-26.59 961.14,-33.43"/>
</a>
</g>
</g>
<!-- Node12 -->
<g id="Node000012" class="node">
<title>Node12</title>
<g id="a_Node000012"><a xlink:title=" ">
<polygon fill="#e0e0e0" stroke="#999999" points="248.25,-27.12 179.75,-27.12 179.75,-6.38 248.25,-6.38 248.25,-27.12"/>
<text text-anchor="middle" x="214" y="-13.62" font-family="Helvetica,sans-Serif" font-size="10.00">Eigen/Core</text>
</a>
</g>
</g>
<!-- Node7&#45;&gt;Node12 -->
<g id="edge14_Node000007_Node000012" class="edge">
<title>Node7&#45;&gt;Node12</title>
<g id="a_edge14_Node000007_Node000012"><a xlink:title=" ">
<path fill="none" stroke="#63b8ff" d="M536.17,-70.98C533.42,-70.46 530.68,-69.97 528,-69.5 408.74,-48.72 375.65,-62.06 258,-33.5 255.07,-32.79 252.06,-31.95 249.07,-31.04"/>
<polygon fill="#63b8ff" stroke="#63b8ff" points="250.42,-27.8 239.83,-27.99 248.22,-34.45 250.42,-27.8"/>
</a>
</g>
</g>
<!-- Node13 -->
<g id="Node000013" class="node">
<title>Node13</title>
<g id="a_Node000013"><a xlink:title=" ">
<polygon fill="#e0e0e0" stroke="#999999" points="361.38,-27.12 266.62,-27.12 266.62,-6.38 361.38,-6.38 361.38,-27.12"/>
<text text-anchor="middle" x="314" y="-13.62" font-family="Helvetica,sans-Serif" font-size="10.00">Eigen/Geometry</text>
</a>
</g>
</g>
<!-- Node7&#45;&gt;Node13 -->
<g id="edge15_Node000007_Node000013" class="edge">
<title>Node7&#45;&gt;Node13</title>
<g id="a_edge15_Node000007_Node000013"><a xlink:title=" ">
<path fill="none" stroke="#63b8ff" d="M535.92,-71.08C479.05,-58.62 400.88,-41.3 370,-33.5 366.43,-32.6 362.73,-31.63 359.03,-30.64"/>
<polygon fill="#63b8ff" stroke="#63b8ff" points="360.01,-27.28 349.44,-28.02 358.16,-34.03 360.01,-27.28"/>
</a>
</g>
</g>
<!-- Node14 -->
<g id="Node000014" class="node">
<title>Node14</title>
<g id="a_Node000014"><a xlink:title=" ">
<polygon fill="#e0e0e0" stroke="#999999" points="500.88,-33.5 379.12,-33.5 379.12,0 500.88,0 500.88,-33.5"/>
<text text-anchor="start" x="387.12" y="-20" font-family="Helvetica,sans-Serif" font-size="10.00">boost/math/constants</text>
<text text-anchor="middle" x="440" y="-7.25" font-family="Helvetica,sans-Serif" font-size="10.00">/constants.hpp</text>
</a>
</g>
</g>
<!-- Node7&#45;&gt;Node14 -->
<g id="edge16_Node000007_Node000014" class="edge">
<title>Node7&#45;&gt;Node14</title>
<g id="a_edge16_Node000007_Node000014"><a xlink:title=" ">
<path fill="none" stroke="#63b8ff" d="M562.44,-69.08C540.41,-59.85 512.58,-48.18 489.02,-38.3"/>
<polygon fill="#63b8ff" stroke="#63b8ff" points="490.5,-35.13 479.92,-34.49 487.79,-41.58 490.5,-35.13"/>
</a>
</g>
</g>
<!-- Node15 -->
<g id="Node000015" class="node">
<title>Node15</title>
<g id="a_Node000015"><a xlink:title=" ">
<polygon fill="#e0e0e0" stroke="#999999" points="573.12,-27.12 518.88,-27.12 518.88,-6.38 573.12,-6.38 573.12,-27.12"/>
<text text-anchor="middle" x="546" y="-13.62" font-family="Helvetica,sans-Serif" font-size="10.00">fstream</text>
</a>
</g>
</g>
<!-- Node7&#45;&gt;Node15 -->
<g id="edge18_Node000007_Node000015" class="edge">
<title>Node7&#45;&gt;Node15</title>
<g id="a_edge18_Node000007_Node000015"><a xlink:title=" ">
<path fill="none" stroke="#63b8ff" d="M587.97,-69.25C579.89,-59.34 569.49,-46.58 561.06,-36.24"/>
<polygon fill="#63b8ff" stroke="#63b8ff" points="563.99,-34.29 554.96,-28.75 558.56,-38.71 563.99,-34.29"/>
</a>
</g>
</g>
<!-- Node16 -->
<g id="Node000016" class="node">
<title>Node16</title>
<g id="a_Node000016"><a xlink:title=" ">
<polygon fill="#e0e0e0" stroke="#999999" points="720.62,-33.5 591.38,-33.5 591.38,0 720.62,0 720.62,-33.5"/>
<text text-anchor="start" x="599.38" y="-20" font-family="Helvetica,sans-Serif" font-size="10.00">state&#45;observation/tools</text>
<text text-anchor="middle" x="656" y="-7.25" font-family="Helvetica,sans-Serif" font-size="10.00">/definitions.hxx</text>
</a>
</g>
</g>
<!-- Node7&#45;&gt;Node16 -->
<g id="edge19_Node000007_Node000016" class="edge">
<title>Node7&#45;&gt;Node16</title>
<g id="a_edge19_Node000007_Node000016"><a xlink:title=" ">
<path fill="none" stroke="#63b8ff" d="M614.03,-69.25C620.54,-61.27 628.56,-51.43 635.84,-42.5"/>
<polygon fill="#63b8ff" stroke="#63b8ff" points="638.5,-44.77 642.1,-34.81 633.07,-40.35 638.5,-44.77"/>
</a>
</g>
</g>
</g>
</svg>
